<svg xmlns="http://www.w3.org/2000/svg" viewBox="0 0 40.19 40"><g data-name="Layer 2"><g><path d="M29.1,0h9.06s0,.05.05.05a2.53,2.53,0,0,1,2,2.76V37.35a2.5,2.5,0,0,1-1.9,2.58.54.54,0,0,0-.13.07H29.1L29,40a2.51,2.51,0,0,1-2-2.71V2.65A2.49,2.49,0,0,1,29,.07S29.05,0,29.1,0Zm.46,20V36.12a1.25,1.25,0,0,0,1.38,1.38h5.35a1.27,1.27,0,0,0,1.4-1.41V3.88A1.26,1.26,0,0,0,36.31,2.5H31A1.28,1.28,0,0,0,29.56,4Z"/><path d="M2,0H20.78c1.56.49,2.06,1.59,2,3.16,0,7.6,0,15.21,0,22.81v11.4a2.48,2.48,0,0,1-1.38,2.36,6.24,6.24,0,0,1-.72.27H2a.12.12,0,0,0,0,0A2.52,2.52,0,0,1,0,37.2V2.65A2.49,2.49,0,0,1,1.9.07.54.54,0,0,0,2,0ZM2.5,20V36.09A1.26,1.26,0,0,0,3.89,37.5h15a1.27,1.27,0,0,0,1.38-1.39V3.89A1.26,1.26,0,0,0,18.93,2.5h-15A1.27,1.27,0,0,0,2.5,4Z"/></g></g></svg>