<svg xmlns="http://www.w3.org/2000/svg" viewBox="0 0 40 33.76"><g data-name="Layer 2"><g><path d="M5.13,11.06,4.94,11,.82,9.45A1.12,1.12,0,0,1,0,8.37,1.14,1.14,0,0,1,.81,7.28L19.53.11a1.42,1.42,0,0,1,1.09,0l18.57,7A1.15,1.15,0,0,1,40,8.21a1.13,1.13,0,0,1-.8,1.09c-2.18.86-4.36,1.72-6.54,2.56a.29.29,0,0,0-.22.33q0,7.95,0,15.9a1.15,1.15,0,0,1-.86,1.27L21.13,33.64a1.31,1.31,0,0,1-1.08,0L9.91,29.32a1.14,1.14,0,0,1-.77-1.16V12.78a.32.32,0,0,0-.23-.35,1.17,1.17,0,0,0-1,0,5.44,5.44,0,0,1-.78.25c-.1,0-.16.07-.16.19C7,14,7,15.06,7,16.17c0,.12,0,.15.16.16a2,2,0,0,1,1.84,2q0,2.54,0,5.07a2,2,0,0,1-2,2H5.16a2,2,0,0,1-2-2V18.32a1.94,1.94,0,0,1,1.43-1.91c.13,0,.16-.11.16-.24V12.24A1.43,1.43,0,0,1,5.13,11.06Zm6.25,2.3V27.27a.3.3,0,0,0,.21.33l8.85,3.76a.36.36,0,0,0,.32,0L30,27.58a.27.27,0,0,0,.2-.3q0-7.11,0-14.22v-.23l-9,3.53A1.07,1.07,0,0,1,22,17a7,7,0,0,1,.18,1H23a1.12,1.12,0,0,1,1.05,1.38,1.1,1.1,0,0,1-1.1.86H20.26a.87.87,0,1,0,0,1.74c.5,0,1,0,1.49,0a3.09,3.09,0,0,1,2.76,2.89A3.12,3.12,0,0,1,22.33,28l-.22.07v.53A1.1,1.1,0,0,1,21,29.77a1.12,1.12,0,0,1-1.13-1.13v-.46c-.43,0-.83,0-1.24,0a1.13,1.13,0,1,1,0-2.25h2.69a.87.87,0,1,0,0-1.74H20.2a3.46,3.46,0,0,1-.72-.09A3.12,3.12,0,0,1,19.72,18c.13,0,.16-.07.16-.18a1.62,1.62,0,0,1,0-.54,5.54,5.54,0,0,1,.29-.65Zm-7-5,.12.06,3.9,1.44a.46.46,0,0,0,.26,0l8.76-2.76a.23.23,0,0,0,.17-.21,3.11,3.11,0,0,1,6.13,1.06,3.16,3.16,0,0,1-2.3,2.59,3.1,3.1,0,0,1-3.26-1.14.22.22,0,0,0-.29-.09L12.11,11.1l-.16.06.2.09,8,3a.38.38,0,0,0,.33,0l15-5.89.19-.08-.22-.09L20.26,2.38a.5.5,0,0,0-.38,0L6.12,7.65ZM5.43,18.58V23.1H6.74V18.58H5.43ZM20.6,6.63a.87.87,0,1,0,0,1.73.87.87,0,1,0,0-1.73Z"/></g></g></svg>