<svg id="Layer_1" data-name="Layer 1" xmlns="http://www.w3.org/2000/svg" viewBox="0 0 128 128">
  <g>
    <path d="M208,279.9996q-63.99951.0003-127.99962.0004Q80.0001,216.00048,80,152.00039q63.99953-.0003,127.99962-.00039Q207.99989,215.99951,208,279.9996ZM115.03205,162.58993a8.44249,8.44249,0,0,1-1.43357.35441c-5.33246.02953-10.665.03506-15.99756.05683-8.517.03478-12.58707,4.03292-12.593,12.50247q-.03093,44.49654,0,88.9931c.00588,8.4618,4.08714,12.49228,12.60258,12.498,23.1649.01558,46.37565-.873,69.47765.33251,14.01867.73151,24.96632-2.55311,33.214-13.86044,1.25886-1.72585,2.57122-3.959,2.58356-5.96534.16913-27.49687.13663-54.99514.09975-82.493-.01048-7.8128-4.24148-11.95547-12.08174-12.00151-5.93711-.03487-11.8746-.00691-17.86667-.00691-.16877-4.56748-1.09471-7.77648-6.07832-8.03808-8.25238-.43318-8.94-.09057-11.33621,7.87037h-23.482c-1.63176-7.61946-2.21872-7.8548-10.092-7.896C116.73307,154.90849,114.9523,157.684,115.03205,162.58993Z" transform="translate(-80 -152)" style="fill: #fff"/>
    <path d="M115.03205,162.58993c-.07975-4.906,1.701-7.68144,7.01657-7.65361,7.87327.04123,8.46023.27657,10.092,7.896h23.482c2.39617-7.96094,3.08383-8.30355,11.33621-7.87037,4.98361.2616,5.90955,3.4706,6.07832,8.03808,5.99207,0,11.92956-.028,17.86667.00691,7.84026.046,12.07126,4.18871,12.08174,12.00151.03688,27.49785.06938,54.99612-.09975,82.493-.01234,2.00635-1.3247,4.23949-2.58356,5.96534-8.24771,11.30733-19.19536,14.59195-33.214,13.86044-23.102-1.20547-46.31275-.31693-69.47765-.33251-8.51544-.00572-12.5967-4.0362-12.60258-12.498q-.0309-44.49652,0-88.9931c.00588-8.46955,4.07592-12.46769,12.593-12.50247,5.33252-.02177,10.6651-.0273,15.99756-.05683A8.44249,8.44249,0,0,0,115.03205,162.58993Zm82.54881,32.40559H90.16784v4.41356q-.00009,31.99316.00842,63.98632c.00721,6.65777,1.85907,8.42976,8.70782,8.43275q37.99188.01656,75.98377-.00506c1.6174-.00086,3.23473-.137,5.3006-.23052,0-4.67869.17491-8.98676-.05081-13.27374-.2118-4.02273,1.13419-5.8632,5.41134-5.54706,3.92148.28985,7.88125.06155,12.05188.06155Zm-82.57475-26.80908c-6.648,0-12.79553-.10917-18.93661.04218a5.55657,5.55657,0,0,0-5.7983,5.68983c-.25254,4.94428-.06477,9.911-.06477,15.21779H197.79275c0-5.30668.47136-10.33111-.222-15.18931-.29514-2.068-2.88224-5.2282-4.6772-5.40847-6.519-.65468-13.14346-.25822-19.62827-.25822-.98072,7.39039-1.9127,8.42984-7.20392,8.5513-8.33643.19137-8.516.041-10.14859-8.652H132.0941c-1.65107,8.68378-1.84545,8.625-10.16,8.72668C116.08618,176.97773,114.99092,173.49815,115.00611,168.18644Zm70.81127,101.668,12.322-11.55967h-12.322ZM121.26976,160.44375c-2.14645,9.38975-1.19481,11.50818,4.5435,10.28743V160.44375Zm40.85258.01087V171.0655h4.93775V160.45462Z" transform="translate(-80 -152)"/>
    <path d="M197.58086,194.99552v57.8378c-4.17063,0-8.1304.2283-12.05188-.06155-4.27715-.31614-5.62314,1.52433-5.41134,5.54706.22572,4.287.05081,8.59505.05081,13.27374-2.06587.09352-3.6832.22966-5.3006.23052q-37.99188.02019-75.98377.00506c-6.84875-.003-8.70061-1.775-8.70782-8.43275q-.03463-31.99312-.00842-63.98632v-4.41356ZM134.29455,240.314c-3.16491-3.58341-5.75476-6.8366-8.73325-9.68314-.84109-.80384-2.81938-.41778-4.2761-.57745.1966,1.47286-.13353,3.40964.68289,4.33659a95.34569,95.34569,0,0,0,10.23939,10.1775c.99262.8305,4.02152.79452,4.92592-.07758,9.80987-9.45952,19.42153-19.12692,28.94741-28.87428.78373-.802.54476-2.60336.781-3.94038-1.46207.09216-3.43723-.39182-4.29838.37509-3.96531,3.53139-7.6354,7.39628-11.38231,11.1704C145.819,228.62175,140.48215,234.0479,134.29455,240.314Z" transform="translate(-80 -152)" style="fill: #fff"/>
    <path d="M115.00611,168.18644c-.01519,5.31171,1.08007,8.79129,6.928,8.71975,8.31452-.1017,8.5089-.0429,10.16-8.72668h23.81868c1.63264,8.693,1.81216,8.8434,10.14859,8.652,5.29122-.12146,6.2232-1.16091,7.20392-8.5513,6.48481,0,13.10932-.39646,19.62827.25822,1.795.18027,4.38206,3.34042,4.6772,5.40847.69335,4.8582.222,9.88263.222,15.18931H90.20643c0-5.30675-.18777-10.27351.06477-15.21779a5.55657,5.55657,0,0,1,5.7983-5.68983C102.21058,168.07727,108.35808,168.18644,115.00611,168.18644Z" transform="translate(-80 -152)" style="fill: #fff"/>
    <path d="M185.81738,269.85448V258.29481h12.322Z" transform="translate(-80 -152)" style="fill: #fff"/>
    <path d="M121.26976,160.44375h4.5435v10.28743C120.075,171.95193,119.12331,169.8335,121.26976,160.44375Z" transform="translate(-80 -152)" style="fill: #fff"/>
    <path d="M162.12234,160.45462h4.93775V171.0655h-4.93775Z" transform="translate(-80 -152)" style="fill: #fff"/>
    <path d="M134.29455,240.314c6.1876-6.26605,11.52443-11.6922,16.88654-17.09325,3.74691-3.77412,7.417-7.639,11.38231-11.1704.86115-.76691,2.83631-.28293,4.29838-.37509-.23621,1.337.00276,3.13843-.781,3.94038-9.52588,9.74736-19.13754,19.41476-28.94741,28.87428-.9044.8721-3.9333.90808-4.92592.07758A95.34569,95.34569,0,0,1,121.96809,234.39c-.81642-.927-.48629-2.86373-.68289-4.33659,1.45672.15967,3.435-.22639,4.2761.57745C128.53979,233.47735,131.12964,236.73054,134.29455,240.314Z" transform="translate(-80 -152)"/>
  </g>
</svg>
