<svg data-name="Layer 1" xmlns="http://www.w3.org/2000/svg" viewBox="0 0 200 200"><path d="M184.72,128.43l-.19-.07V79.72a5,5,0,0,0-3.18-4.62L96.55,42.63a5,5,0,0,0-2.39-.31,5.26,5.26,0,0,0-1.18.31L8.19,75.1a4.91,4.91,0,0,0-2.73,2.64A4.86,4.86,0,0,0,5.4,81.5a5,5,0,0,0,2.79,2.77L93,116.74a5,5,0,0,0,3.56,0l45-17.18V124L94.77,143.41,48,123.92V108.43a4.94,4.94,0,0,0-5.18-4.29,5.13,5.13,0,0,0-3.56,1.68,4.25,4.25,0,0,0-1.17,3v18.46a4.91,4.91,0,0,0,3,4.54l51.7,21.44a5,5,0,0,0,3.87,0l51.69-21.44a4.92,4.92,0,0,0,3-4.54V95.79l8.94-3.36a4.93,4.93,0,0,0,2.77-2.61,4.84,4.84,0,0,0,.09-3.77,5,5,0,0,0-6.42-2.85l-62,23.69L23.71,79.72,94.77,52.49,174.62,83v45.32l-.19.07a15.38,15.38,0,1,0,10.29,0Zm-5.15,19.49a5.29,5.29,0,1,1,5.4-5.28A5.28,5.28,0,0,1,179.57,147.92Z"/></svg>