<svg  preserveAspectRatio="xMidYMid meet" viewBox="0 0 128 128" xmlns="http://www.w3.org/2000/svg"><g transform="matrix(.1 0 0 -.1 0 128)"><path d="m275 1077c-116-45-216-86-223-90-29-20-4-40 93-76l100-36 3-158 3-158 65-30c70-32 94-32 94-1 0 13-16 25-55 41l-55 23v129c0 71 3 129 8 129 4 0 48-16 98-35l91-34 99 39c55 22 104 40 111 40 6 0 13-15 15-32 2-25 8-33 23-33 17 0 20 8 23 47l3 47 72 27c83 31 99 42 95 62-2 8-91 47-227 98-123 46-224 84-225 83-1 0-96-38-211-82zm389-39c92-33 166-64 166-67s-75-35-166-70l-166-63-174 63c-96 35-174 66-174 69 0 6 319 128 337 129 7 1 86-27 177-61z"/><path d="m489 741-29-29v-282c0-174 4-289 10-301 24-45 53-49 330-49s306 4 330 49c6 12 10 127 10 301v282l-29 29-29 29h-282-282zm587-35c17-13 19-27 19-133v-118h-295-295v118c0 106 2 120 19 133 29 21 523 21 552 0zm22-420c-5-167 17-156-298-156s-293-11-298 156l-4 114h302 302z"/><path d="m647 683c-4-3-7-19-7-35 0-24-4-28-30-28-23 0-30-4-30-20 0-15 7-20 29-20 26 0 30-4 33-32 2-25 8-34 25-36 18-3 22 2 25 30s8 34 33 38c18 3 30 11 30 20s-12 17-30 20c-25 4-30 10-33 38-2 23-8 32-21 32-10 0-21-3-24-7z"/><path d="m862 588c3-22 7-23 88-23 78 0 85 2 85 20s-8 20-88 23c-87 3-88 2-85-20z"/><path d="m597 336c-3-7 1-23 9-35 13-19 13-23 0-42-28-40 8-67 44-34 15 14 18 14 30 0 16-19 49-19 57 0 3 9-3 25-12 35-17 19-17 21 0 40 9 10 15 26 12 35-8 19-41 19-57 0-12-14-15-14-30 0-21 19-46 19-53 1z"/><path d="m860 320c0-20 5-21 88-18 69 2 87 6 87 18s-18 16-87 18c-83 3-88 2-88-18z"/><path d="m860 240c0-20 5-21 88-18 69 2 87 6 87 18s-18 16-87 18c-83 3-88 2-88-18z"/></g></svg>