<svg xmlns="http://www.w3.org/2000/svg" viewBox="0 0 40 38.24"><g data-name="Layer 2"><g><path d="M39.15,3.87A2.83,2.83,0,0,0,37.06,3H28.39V1.34a1.34,1.34,0,1,0-2.67,0V3H14.31V1.34A1.34,1.34,0,0,0,12.94,0a1.31,1.31,0,0,0-1.33,1.34V3H2.94a2.84,2.84,0,0,0-2.09.88A2.89,2.89,0,0,0,0,5.94V35.29a2.89,2.89,0,0,0,.85,2.07,2.84,2.84,0,0,0,2.09.88H37.06a2.84,2.84,0,0,0,2.09-.86A2.92,2.92,0,0,0,40,35.29V5.94A2.91,2.91,0,0,0,39.15,3.87ZM37.32,35.29a.3.3,0,0,1-.26.24H2.94a.3.3,0,0,1-.26-.24V15.5H37.32Zm0-22.46H2.68V5.94c0-.17.09-.24.26-.24h8.67v.58a1.34,1.34,0,0,0,1.33,1.36,1.36,1.36,0,0,0,1.37-1.36V5.7H25.72v.58a1.34,1.34,0,1,0,2.67,0V5.7h8.67c.17,0,.26.07.26.24Z"/><path d="M14.35,23.49H30.49a1.34,1.34,0,0,0,1.33-1.37,1.32,1.32,0,0,0-1.33-1.34H14.35A1.34,1.34,0,0,0,13,22.12,1.36,1.36,0,0,0,14.35,23.49Z"/><path d="M14.35,30H30.49a1.31,1.31,0,0,0,1.33-1.34,1.34,1.34,0,0,0-1.33-1.36H14.35A1.36,1.36,0,0,0,13,28.62,1.34,1.34,0,0,0,14.35,30Z"/><path d="M8.18,20.78h2.67v2.71H8.18Z"/><path d="M8.18,27.26h2.67V30H8.18Z"/></g></g></svg>