<svg xmlns="http://www.w3.org/2000/svg" viewBox="0 0 40 36.46"><g data-name="Layer 2"><g><path d="M29.28.75v35H40V.75Zm9.25,33.48H30.75v-32h7.78ZM37.36,7.38H31.93V5.88h5.43v1.5Zm0,2.48H31.92V8.36h5.44Zm-5.43,19h5.43v1.5H31.93ZM17.85,2.3,7.81,0,0,34.06l10.45,2.4,7.4-32.3V36.05H28.57V1.1H17.85ZM9.35,34.7,1.76,33,8.91,1.76,16.5,3.5Zm10-32.13H27.1V22.32H19.32Zm1.29,23.69v-1.4H26v1.4Zm5.38.93v1.4H20.61v-1.4Zm-6.67,3.94H27.1v3.45H19.32ZM20.49,5.88h5.44v1.5H20.49ZM5.77,23.55,9.84,5.79l1.35.31L7.13,23.86Zm2.71.62L12.56,6.41l1.35.31L9.84,24.48Z"/></g></g></svg>