<svg id="Layer_1" data-name="Layer 1" xmlns="http://www.w3.org/2000/svg" viewBox="0 0 128 128">
  <g>
    <path d="M208,280H80V152H208Zm-92.73282-20.418-2.28131,9.38906c3.40355-.9438,6.31188-2.404,9.24374-2.45277,14.51208-.24142,29.03062-.06279,43.54629-.1419,3.78911-.02065,7.658-.63652,9.25184,4.54719l1.07562-.8369c-.8568-3.31688-1.7136-6.63375-2.69841-10.44613l21.888-7.09186,2.73009,4.58742c.87521-1.65425,1.09886-3.41941.32292-4.23725-4.89207-5.15622-2.2321-10.97838-.81616-16.02265,2.65206-9.448.46491-17.091-7.10659-22.56737-8.30455-6.00653-10.367-13.62419-9.432-23.258.69862-7.19829.1378-14.51869.1378-21.72631H107.84962c0,7.23028-.62768,14.12833.14613,20.8656,1.18035,10.27679-1.42385,18.29154-10.07189,24.53317C90.4936,220.08607,88.64774,227.71594,91.181,236.5a58.34191,58.34191,0,0,1,1.6267,8.30334c.28475,2.09518,1.28864,4.18907-1.55682,5.981-1.34993.85014-1.34228,3.85357-1.94966,5.88148l1.431.51254,2.77659-4.599Zm47.54149-95.1009.00327-1.07232H126.07587l-.00478,1.07232Z" transform="translate(-80 -152)" style="fill: #fff"/>
    <path d="M115.26718,259.582l-21.75843-7.00262-2.77659,4.599-1.431-.51254c.60738-2.02791.59973-5.03134,1.94966-5.88148,2.84546-1.792,1.84157-3.88585,1.55682-5.981A58.34191,58.34191,0,0,0,91.181,236.5c-2.53324-8.784-.68738-16.4139,6.74288-21.77661,8.648-6.24163,11.25224-14.25638,10.07189-24.53317-.77381-6.73727-.14613-13.63532-.14613-20.8656H181.129c0,7.20762.56082,14.528-.1378,21.72631-.935,9.63378,1.12749,17.25144,9.432,23.258,7.5715,5.47634,9.75865,13.11937,7.10659,22.56737-1.41594,5.04427-4.07591,10.86643.81616,16.02265.77594.81784.55229,2.583-.32292,4.23725l-2.73009-4.58742-21.888,7.09186c.98481,3.81238,1.84161,7.12925,2.69841,10.44613l-1.07562.8369c-1.59389-5.18371-5.46273-4.56784-9.25184-4.54719-14.51567.07911-29.03421-.09952-43.54629.1419-2.93186.04877-5.84019,1.509-9.24374,2.45277Zm2.53316,4.29737h53.086c.5481-2.86991,1.04517-5.47257,1.65526-8.667-1.6143-3.02485-4.72491-6.62548-5.4331-10.64855-1.43376-8.14468-1.63238-16.51374-2.2015-24.79979-.23608-3.43728.68069-6.45777,4.75417-6.97039,4.17275-.52512,6.07142,2.00087,6.84287,5.677.51254,2.4423.91338,4.908,1.36421,7.36326l.76446-.155V171.43132H110.24837v53.89739c1.12648-1.932,1.31788-4.01242,1.75492-6.04.78074-3.622,2.13416-6.92795,6.71874-6.50107,4.58006.42647,6.04482,3.95653,5.20582,7.57328-2.79281,12.03917,1.6311,25.801-9.18835,35.9302l1.92658.04362ZM107.7582,209.88773l-2.02454-1.33487c-2.42036,2.96254-4.51219,6.29259-7.331,8.80944-5.49714,4.90836-6.84679,10.71793-5.21081,17.59352.46046,1.93518.75044,3.91088,1.11881,5.868,2.04125,10.8448,2.02062,10.93106,12.801,13.50889a5.06263,5.06263,0,0,0,4.3115-1.5629c3.70676-5.294,7.51767-10.61157,6.73988-17.7337-.16165-1.48029,1.119-3.06652,1.45551-4.66276a79.03764,79.03764,0,0,0,1.99989-11.68983c.0666-1.174-1.9317-3.04505-3.33653-3.49345-.77755-.24817-2.89533,1.57342-3.33826,2.837-.97572,2.78337-.95282,5.91942-1.95043,8.69117-.7532,2.09269-2.45706,3.84359-3.7378,5.74661l-1.49728-.79975Zm73.35353,21.87555-2.11.855a69.50566,69.50566,0,0,1-3.6804-7.27744c-.6845-1.81967-.22-4.135-1.08671-5.80478-.91626-1.76539-2.80246-3.02794-4.265-4.51013-.97688,1.87711-3.00183,3.909-2.75117,5.60481,1.15167,7.79128,2.90633,15.49563,4.54132,23.21071a9.35436,9.35436,0,0,0,1.4939,2.57593c6.02636,9.83785,6.86093,10.11674,17.30989,5.09853a4.6053,4.6053,0,0,0,2.35153-2.72389c1.22312-6.35256,2.31806-12.73731,3.1674-19.14949.24773-1.87024.21859-4.392-.82653-5.70958-4.03462-5.08633-8.5315-9.80641-12.8561-14.663l-1.28817.78482Z" transform="translate(-80 -152)"/>
    <path d="M162.80867,164.48113H126.07109l.00478-1.07232h36.73607Z" transform="translate(-80 -152)"/>
    <path d="M117.80034,263.8794l-1.13426-7.54462-1.92658-.04362c10.81945-10.12924,6.39554-23.891,9.18835-35.9302.839-3.61675-.62576-7.14681-5.20582-7.57328-4.58458-.42688-5.938,2.879-6.71874,6.50107-.437,2.02754-.62844,4.108-1.75492,6.04V171.43132h68.38436V225.6789l-.76446.155c-.45083-2.45524-.85167-4.921-1.36421-7.36326-.77145-3.6761-2.67012-6.20209-6.84287-5.677-4.07348.51262-4.99025,3.53311-4.75417,6.97039.56912,8.28605.76774,16.65511,2.2015,24.79979.70819,4.02307,3.8188,7.6237,5.4331,10.64855-.61009,3.19447-1.10716,5.79713-1.65526,8.667Zm-2.744-70.2483,1.19855.76911c.891-.855,2.16792-1.54989,2.60179-2.59454,1.39821-3.36649,3.28215-4.43994,6.71419-2.55653.99047.54354,2.53235.08338,4.71455.08338-4.05739-4.69381-7.13227-8.37232-10.37437-11.89718-.63266-.68784-2.2096-1.33907-2.82784-1.01383a4.0488,4.0488,0,0,0-1.938,2.84795C114.94547,184.04957,115.05638,188.84266,115.05638,193.6311ZM157.549,229.1718l-.1059-1.19871H131.24837l-.00053,1.19871Zm-.07668-35.73218-.0121-.96177h-26.17l.01111.96177Zm-26.21435,20.87567.02778,1.59767c8.76335.05053,17.52907.27682,26.28659-.10293l-.02534-1.49474Zm-.02357,23.12225.03477,1.49172c8.75556-.14417,17.549.74713,26.2207-1.49172Zm26.167-30.138.10021-1.10254H131.33411l-.00219,1.10254Zm-26.072,43.76907c5.1076,2.62048,23.53926,2.18965,26.40579,0Zm12.41414-50.58448.02128-1.06413H131.30292v1.06413Zm-12.44418,20.62251-.00526,1.03977h12.43368l.007-1.03977Zm12.44131,24.35408-.01087-.9869H131.24851l.05689.9869Zm-12.3117-62.7712.052.83494H143.77l-.07838-.83494Z" transform="translate(-80 -152)" style="fill: #fff"/>
    <path d="M107.7582,209.88773V231.665l1.49728.79975c1.28074-1.903,2.9846-3.65392,3.7378-5.74661.99761-2.77175.97471-5.9078,1.95043-8.69117.44293-1.26353,2.56071-3.08512,3.33826-2.837,1.40483.4484,3.40313,2.31945,3.33653,3.49345a79.03764,79.03764,0,0,1-1.99989,11.68983c-.33653,1.59624-1.61716,3.18247-1.45551,4.66276.77779,7.12213-3.03312,12.43968-6.73988,17.7337a5.06263,5.06263,0,0,1-4.3115,1.5629c-10.78039-2.57783-10.75976-2.66409-12.801-13.50889-.36837-1.95708-.65835-3.93278-1.11881-5.868-1.636-6.87559-.28633-12.68516,5.21081-17.59352,2.81876-2.51685,4.91059-5.8469,7.331-8.80944Z" transform="translate(-80 -152)" style="fill: #fff"/>
    <path d="M181.11173,231.76328V210.05482l1.28817-.78482c4.3246,4.85657,8.82148,9.57665,12.8561,14.663,1.04512,1.31756,1.07426,3.83934.82653,5.70958-.84934,6.41218-1.94428,12.79693-3.1674,19.14949a4.6053,4.6053,0,0,1-2.35153,2.72389c-10.449,5.01821-11.28353,4.73932-17.30989-5.09853a9.35436,9.35436,0,0,1-1.4939-2.57593c-1.635-7.71508-3.38965-15.41943-4.54132-23.21071-.25066-1.69585,1.77429-3.7277,2.75117-5.60481,1.46252,1.48219,3.34872,2.74474,4.265,4.51013.86668,1.66981.40221,3.98511,1.08671,5.80478a69.50566,69.50566,0,0,0,3.6804,7.27744Z" transform="translate(-80 -152)" style="fill: #fff"/>
    <path d="M115.05638,193.6311c0-4.78844-.11091-9.58153.08888-14.36164a4.0488,4.0488,0,0,1,1.938-2.84795c.61824-.32524,2.19518.326,2.82784,1.01383,3.2421,3.52486,6.317,7.20337,10.37437,11.89718-2.1822,0-3.72408.46016-4.71455-.08338-3.432-1.88341-5.316-.81-6.71419,2.55653-.43387,1.04465-1.71082,1.73953-2.60179,2.59454Z" transform="translate(-80 -152)"/>
    <path d="M157.549,229.1718H131.24784l.00053-1.19871h26.19468Z" transform="translate(-80 -152)"/>
    <path d="M157.47227,193.43962h-26.171l-.01111-.96177h26.17Z" transform="translate(-80 -152)"/>
    <path d="M131.25792,214.31529h26.289l.02534,1.49474c-8.75752.37975-17.52324.15346-26.28659.10293Z" transform="translate(-80 -152)"/>
    <path d="M131.23435,237.43754h26.25547c-8.67173,2.23885-17.46514,1.34755-26.2207,1.49172Z" transform="translate(-80 -152)"/>
    <path d="M157.40134,207.29954H131.33192l.00219-1.10254h26.16744Z" transform="translate(-80 -152)"/>
    <path d="M131.32933,251.06861h26.40579C154.86859,253.25826,136.43693,253.68909,131.32933,251.06861Z" transform="translate(-80 -152)"/>
    <path d="M143.74347,200.48413H131.30292V199.42h12.46183Z" transform="translate(-80 -152)"/>
    <path d="M131.29929,221.10664h12.43539l-.007,1.03977H131.294Z" transform="translate(-80 -152)"/>
    <path d="M143.7406,245.46072H131.3054l-.05689-.9869h12.48122Z" transform="translate(-80 -152)"/>
    <path d="M131.4289,182.68952h12.26276l.07838.83494H131.48093Z" transform="translate(-80 -152)"/>
  </g>
</svg>
