<svg xmlns="http://www.w3.org/2000/svg" viewBox="0 0 40 33.78"><g data-name="Layer 2"><g><path class="cls-1" d="M40,3.81a3.27,3.27,0,0,0,0-.54A3.81,3.81,0,0,0,36.25,0H3.8a3.27,3.27,0,0,0-.54,0A3.8,3.8,0,0,0,0,3.76V29.92a4,4,0,0,0,0,.6,3.81,3.81,0,0,0,3.68,3.26H36.27a2.45,2.45,0,0,0,.46,0A3.8,3.8,0,0,0,40,30Zm-2.26,26.1a1.56,1.56,0,0,1-1.62,1.61H3.89A1.62,1.62,0,0,1,2.25,29.9q0-13,0-26A1.61,1.61,0,0,1,3.89,2.26c5.37,0,10.74,0,16.12,0H36.1a1.56,1.56,0,0,1,1.62,1.29,1.67,1.67,0,0,1,0,.32Z"/><path class="cls-1" d="M28.53,14.86h5.82a1.13,1.13,0,0,1,.25,2.23,2.1,2.1,0,0,1-.36,0H22.83a1.17,1.17,0,0,1-1.21-.79,1.12,1.12,0,0,1,1.1-1.46Z"/><path class="cls-1" d="M28.54,20.72h5.75A1.12,1.12,0,0,1,34.56,23l-.31,0H22.78a1.13,1.13,0,0,1-1.21-1.17,1.1,1.1,0,0,1,1.05-1.07c.69,0,1.38,0,2.06,0Z"/><path class="cls-1" d="M26.76,9h4a1.11,1.11,0,0,1,1.1.86,1.13,1.13,0,0,1-1.12,1.39h-8A1.13,1.13,0,1,1,22.68,9Z"/><path class="cls-1" d="M17.38,21.77a6.33,6.33,0,0,0-3.85-5.32A6.06,6.06,0,0,0,12.2,16a3.56,3.56,0,0,0-1.1-6.9,3.53,3.53,0,0,0-3.49,2.58,3.44,3.44,0,0,0,.26,2.59,3.6,3.6,0,0,0,2,1.73l-.23,0a6.43,6.43,0,0,0-5,6.21,1.13,1.13,0,1,0,2.25,0,4.91,4.91,0,0,1,.06-.66A4.14,4.14,0,0,1,14.41,20a4.12,4.12,0,0,1,.75,2.38,1.12,1.12,0,0,0,1.07,1.13,1.14,1.14,0,0,0,1.17-1A2.89,2.89,0,0,0,17.38,21.77ZM11,14a1.29,1.29,0,1,1,1.27-1.29A1.28,1.28,0,0,1,11,14Z"/></g></g></svg>