<svg id="Layer_1" data-name="Layer 1" xmlns="http://www.w3.org/2000/svg" viewBox="0 0 128 128">
  <g>
    <path d="M80,280V152H208V280Zm3.83255-67.70025c.00146,35.44788,31.9016,61.33728,66.48061,53.75437a10.042,10.042,0,0,1,9.40018,2.06661,27.33251,27.33251,0,0,0,35.30046-1.83436c9.52053-8.74945,12.23165-24.2985,4.33785-34.51965-4.97225-6.43824-5.81544-12.415-5.77384-20.12655.16213-30.05006-25.124-54.63258-54.96138-54.46565A54.87713,54.87713,0,0,0,83.83255,212.29975Z" transform="translate(-80 -152)" style="fill: #fff"/>
    <path d="M83.83255,212.29975a54.87713,54.87713,0,0,1,54.78388-55.12523c29.83743-.16693,55.12351,24.41559,54.96138,54.46565-.0416,7.7115.80159,13.68831,5.77384,20.12655,7.8938,10.22115,5.18268,25.7702-4.33785,34.51965a27.33251,27.33251,0,0,1-35.30046,1.83436,10.042,10.042,0,0,0-9.40018-2.06661C115.73415,273.637,83.834,247.74763,83.83255,212.29975Zm103.80968,8.26511c3.25215-23.66323-8.45262-44.90382-29.19065-53.8011a49.72307,49.72307,0,0,0-59.99019,74.85476c5.703,7.85052,5.70348,7.85146,13.967,3.41158,1.172-.62969,2.338-1.27054,3.50375-1.91178,6.95145-3.82386,7.6166-7.34224,3.91895-14.55147-3.49548-6.81506-8.08835-13.37448-7.05294-21.77451.86755-7.03817,1.1837-14.14955,2.198-21.16284.91871-6.35216,4.99417-11.16277,11.02072-12.234a61.092,61.092,0,0,1,21.0637-.38583c9.02821,1.62034,12.97159,8.3099,13.07562,17.48047.04787,4.2199,1.22416,8.41581,1.47871,12.64726.35052,5.82687,1.92166,11.75473-3.57747,16.73105-2.479,2.24333-3.34243,6.272-4.93888,9.49062C162.75242,218.67413,174.20682,216.2813,187.64223,220.56486Zm-36.36736,39.58806c-1.11313-5.56707-.98464-11.36913-3.40272-15.77288-6.47235-11.78729,2.3825-19.65032,6.06356-28.88027.89919-2.25462,2.79312-4.483,2.72908-6.67967-.17076-5.85789-1.54591-11.68-1.72619-17.53845-.245-7.961-3.4817-12.96489-11.30573-13.88952a51.80668,51.80668,0,0,0-15.76187.929c-4.30216.84148-7.24373,4.21813-7.8329,8.78031-.85965,6.65672-1.55146,13.34634-1.99094,20.04319-.51553,7.85562,4.1888,13.97388,7.42179,20.54619,2.895,5.88516,2.572,16.25127-4.64433,18.98276-3.694,1.39824-7.03188,3.7373-10.56995,5.67263C118.67388,261.04351,138.517,264.71091,151.27487,260.15292Zm2.57113-14.45268a22.3124,22.3124,0,1,0,22.5332-21.86339A22.24032,22.24032,0,0,0,153.846,245.70024Z" transform="translate(-80 -152)"/>
    <path d="M187.64223,220.56486c-13.43541-4.28356-24.88981-1.89073-34.52365,8.79426,1.59645-3.21863,2.45987-7.24729,4.93888-9.49062,5.49913-4.97632,3.928-10.90418,3.57747-16.73105-.25455-4.23145-1.43084-8.42736-1.47871-12.64726-.104-9.17057-4.04741-15.86013-13.07562-17.48047a61.092,61.092,0,0,0-21.0637.38583c-6.02655,1.07118-10.102,5.88179-11.02072,12.234-1.01433,7.01329-1.33048,14.12467-2.198,21.16284-1.03541,8.4,3.55746,14.95945,7.05294,21.77451,3.69765,7.20923,3.0325,10.72761-3.91895,14.55147-1.16573.64124-2.33176,1.28209-3.50375,1.91178-8.26352,4.43988-8.264,4.43894-13.967-3.41158a49.72307,49.72307,0,0,1,59.99019-74.85476C179.18961,175.661,190.89438,196.90163,187.64223,220.56486Z" transform="translate(-80 -152)" style="fill: #fff"/>
    <path d="M151.27487,260.15292c-12.75786,4.558-32.601.89059-41.0202-7.80672,3.53807-1.93533,6.876-4.27439,10.56995-5.67263,7.21629-2.73149,7.5393-13.0976,4.64433-18.98276-3.233-6.57231-7.93732-12.69057-7.42179-20.54619.43948-6.69685,1.13129-13.38647,1.99094-20.04319.58917-4.56218,3.53074-7.93883,7.8329-8.78031a51.80668,51.80668,0,0,1,15.76187-.929c7.824.92463,11.06073,5.92848,11.30573,13.88952.18028,5.8584,1.55543,11.68056,1.72619,17.53845.064,2.19669-1.82989,4.425-2.72908,6.67967-3.68106,9.22995-12.53591,17.093-6.06356,28.88027C150.29023,248.78379,150.16174,254.58585,151.27487,260.15292Z" transform="translate(-80 -152)" style="fill: #fff"/>
    <path d="M153.846,245.70024a22.3124,22.3124,0,0,1,44.62022.50739,22.31217,22.31217,0,1,1-44.62022-.50739Zm17.884,5.61446c-2.26142-2.62079-3.91187-4.94474-6.00794-6.75183-.79188-.6827-2.61349-.171-3.96569-.2038.14118,1.31348-.189,3.01387.512,3.86784,2.097,2.55461,4.69382,4.69111,6.91438,7.15415,2.40457,2.66715,4.34978,2.36908,6.46448-.34207,4.18494-5.36529,8.59371-10.55988,12.65241-16.01661.8523-1.14588.59421-3.11768.84778-4.7089-1.6576.47838-3.90077.43571-4.87081,1.52588C180.2056,240.41446,176.51566,245.32862,171.73,251.3147Z" transform="translate(-80 -152)" style="fill: #fff"/>
    <path d="M171.73,251.3147c4.78569-5.98608,8.47563-10.90024,12.5466-15.47534.97-1.09017,3.21321-1.0475,4.87081-1.52588-.25357,1.59122.00452,3.563-.84778,4.7089-4.0587,5.45673-8.46747,10.65132-12.65241,16.01661-2.1147,2.71115-4.05991,3.00922-6.46448.34207-2.22056-2.463-4.81742-4.59954-6.91438-7.15415-.701-.854-.37081-2.55436-.512-3.86784,1.35221.03277,3.17382-.4789,3.9657.2038C167.8181,246.37,169.46855,248.69391,171.73,251.3147Z" transform="translate(-80 -152)"/>
  </g>
</svg>
