<svg id="Layer_1" data-name="Layer 1" xmlns="http://www.w3.org/2000/svg" viewBox="0 0 128 128">
  <g>
    <path d="M80,152H208V280H80Zm52.22289,68.728c-5.90508,2.63346-11.34364,5.64434-17.14831,7.5255-12.03674,3.9008-17.78649,12.63763-20.43779,24.27975-2.07067,9.09251-1.63094,10.06539,7.46016,12.33858,18.95113,4.73865,38.26268,4.75337,57.60444,4.156a9.49532,9.49532,0,0,0,2.86117-1.09689l-.07411-1.28247a33.81232,33.81232,0,0,0-4.38085-.65863c-10.65273-.2424-21.34668.08478-31.94854-.76013-8.56854-.68286-17.056-2.60791-25.50525-4.343-1.41517-.2906-3.63864-2.59406-3.48053-3.67322,1.51508-10.34058,4.533-19.83415,15.52675-24.29629,6.62589-2.68933,13.01448-5.96375,19.64291-8.64608a7.55094,7.55094,0,0,1,5.33571.3526c4.3785,1.97647,8.87644,3.7265,13.3861,1.43344,4.2869-2.17981,8.09314-3.21633,12.24918-.02671.49682.38131,1.69123-.1463,4.23549-.45685l-7.29386-5.0683c3.66731-6.43683,7.79621-12.543,10.68925-19.18724,1.75034-4.01989,2.064-8.86736,2.12587-13.35536.048-3.48053-1.47354-6.9542-1.98415-10.47633-1.44861-9.99255-7.40564-18.7802-18.51529-19.53394a73.52179,73.52179,0,0,0-8.98339-.1246c-13.12195.72038-21.1645,9.15981-21.36545,22.20718-.03821,2.48111.48473,5.36281-.57012,7.36475-3.534,6.70705-1.5791,12.5373,1.83089,18.37414C126.31307,210.61781,129.14449,215.46082,132.22289,220.728Zm67.04177,26.5047a20.20227,20.20227,0,0,0-19.72345-20.29446,20.1862,20.1862,0,1,0-.13036,40.36766A19.92586,19.92586,0,0,0,199.26466,247.23267Z" transform="translate(-80 -152)" style="fill: #fff"/>
    <path d="M132.22289,220.728c-3.0784-5.26715-5.90982-10.11016-8.73972-14.95406-3.41-5.83684-5.36493-11.66709-1.83089-18.37414,1.05485-2.00194.53191-4.88364.57012-7.36475.201-13.04737,8.2435-21.4868,21.36545-22.20718a73.52179,73.52179,0,0,1,8.98339.1246c11.10965.75374,17.06668,9.54139,18.51529,19.53394.51061,3.52213,2.03211,6.9958,1.98415,10.47633-.06185,4.488-.37553,9.33547-2.12587,13.35536-2.893,6.64426-7.02194,12.75041-10.68925,19.18724l7.29386,5.0683c-2.54426.31055-3.73867.83816-4.23549.45685-4.156-3.18962-7.96228-2.1531-12.24918.02671-4.50966,2.29306-9.0076.543-13.3861-1.43344a7.55094,7.55094,0,0,0-5.33571-.3526c-6.62843,2.68233-13.017,5.95675-19.64291,8.64608-10.99371,4.46214-14.01167,13.95571-15.52675,24.29629-.15811,1.07916,2.06536,3.38262,3.48053,3.67322,8.44927,1.73505,16.93671,3.6601,25.50525,4.343,10.60186.84491,21.29581.51773,31.94854.76013a33.81232,33.81232,0,0,1,4.38085.65863l.07411,1.28247a9.49532,9.49532,0,0,1-2.86117,1.09689c-19.34176.59737-38.65331.58265-57.60444-4.156-9.0911-2.27319-9.53083-3.24607-7.46016-12.33858,2.6513-11.64212,8.401-20.379,20.43779-24.27975C120.87925,226.37231,126.31781,223.36143,132.22289,220.728Zm14.583-59.93691c-14.10184.012-21.12653,6.91945-21.50211,21.07007-.0704,2.65234.63995,5.90247-.61418,7.83647-3.54589,5.46816-.92327,9.75845,1.50769,14.27611,1.55575,2.89118,3.34055,5.66313,4.81612,8.59256,2.66391,5.28863,6.25571,9.42406,12.3521,10.67873,7.36159,1.515,14.07929-2.67045,18.46845-11.3323,2.009-3.96464,4.53719-7.703,6.18111-11.80413,1.31409-3.27827,3.26193-7.76709,2.0099-10.2423a19.77017,19.77017,0,0,1-2.094-9.19617c-.178-11.54742-7.26343-20.33116-19.12714-19.8823C148.13877,160.813,147.47191,160.79106,146.80588,160.79106Z" transform="translate(-80 -152)"/>
    <path d="M199.26466,247.23267a19.92586,19.92586,0,0,1-19.85381,20.0732,20.1862,20.1862,0,1,1,.13036-40.36766A20.20227,20.20227,0,0,1,199.26466,247.23267Zm-20.63841,16.94a17.01607,17.01607,0,1,0,.78885-34.02144,16.41322,16.41322,0,0,0-16.86244,15.63084C162.15522,256.21667,168.78873,263.80639,178.62625,264.17269Z" transform="translate(-80 -152)"/>
    <path d="M146.80588,160.79106c.666,0,1.33289.02191,1.998-.00326,11.86371-.44886,18.94916,8.33488,19.12714,19.8823a19.77017,19.77017,0,0,0,2.094,9.19617c1.252,2.47521-.69581,6.964-2.0099,10.2423-1.64392,4.10108-4.17213,7.83949-6.18111,11.80413-4.38916,8.66185-11.10686,12.84734-18.46845,11.3323-6.09639-1.25467-9.68819-5.3901-12.3521-10.67873-1.47557-2.92943-3.26037-5.70138-4.81612-8.59256-2.431-4.51766-5.05358-8.808-1.50769-14.27611,1.25413-1.934.54378-5.18413.61418-7.83647C125.67935,167.71051,132.704,160.803,146.80588,160.79106Z" transform="translate(-80 -152)" style="fill: #fff"/>
    <path d="M178.62625,264.17269c-9.83752-.3663-16.471-7.956-16.07359-18.3906a16.41322,16.41322,0,0,1,16.86244-15.63084,17.01607,17.01607,0,1,1-.78885,34.02144Zm-.34477-4.51265c3.64076-3.75645,3.29352-17.26109,0-19.94751Z" transform="translate(-80 -152)" style="fill: #fff"/>
    <path d="M178.28148,259.66V239.71253C181.575,242.399,181.92224,255.90359,178.28148,259.66Z" transform="translate(-80 -152)"/>
  </g>
</svg>
