<svg version="1.1" xmlns="http://www.w3.org/2000/svg" xmlns:xlink="http://www.w3.org/1999/xlink" x="0px" y="0px"
	 viewBox="0 0 48 48" style="enable-background:new 0 0 48 48;" xml:space="preserve">
<g>
	<circle class="st0" cx="24" cy="24" r="9.2"/>
	<path d="M45.6,19.4l-3.2-0.6c-0.4-1.5-1-2.9-1.8-4.3l1.9-2.7c0.5-0.7,0.4-1.6-0.2-2.2l-4.1-4.1C37.6,5,36.7,5,36,5.5l-2.7,1.9
		C32,6.6,30.6,6,29.1,5.6l-0.6-3.2C28.4,1.6,27.7,1,26.9,1h-5.8c-0.8,0-1.6,0.6-1.7,1.4l-0.6,3.2c-1.5,0.4-2.9,1-4.3,1.8l-2.7-1.9
		C11.2,5,10.3,5.1,9.7,5.7L5.6,9.8C5,10.3,5,11.3,5.5,12l1.9,2.7C6.6,16,6,17.4,5.6,18.9l-3.2,0.6C1.6,19.5,1,20.3,1,21.1v5.8
		c0,0.8,0.6,1.6,1.4,1.7l3.2,0.6c0.4,1.5,1,2.9,1.8,4.3l-1.9,2.7c-0.5,0.7-0.4,1.6,0.2,2.2l4.1,4.1c0.6,0.6,1.5,0.7,2.2,0.2l2.7-1.9
		c1.3,0.7,2.8,1.3,4.2,1.7l0.6,3.2c0.1,0.8,0.8,1.4,1.7,1.4h5.8c0.8,0,1.6-0.6,1.7-1.4l0.6-3.2c1.5-0.4,2.9-1,4.3-1.8l2.7,1.9
		c0.7,0.5,1.6,0.4,2.2-0.2l4.1-4.1c0.6-0.6,0.7-1.5,0.2-2.2l-1.9-2.7c0.7-1.3,1.3-2.8,1.7-4.2l3.2-0.6c0.8-0.1,1.4-0.8,1.4-1.7v-5.8
		C47,20.3,46.4,19.5,45.6,19.4z M24,33.2c-5.1,0-9.2-4.1-9.2-9.2c0-5.1,4.1-9.2,9.2-9.2s9.2,4.1,9.2,9.2C33.2,29,29,33.2,24,33.2z"
		/>
</g>
</svg>
