<svg xmlns="http://www.w3.org/2000/svg" viewBox="0 0 36.32 40"><g data-name="Layer 2"><path d="M35.25,26.1H29.64V20.54a1.12,1.12,0,1,0-2.23,0V26.1H21.8a1.11,1.11,0,0,0,0,2.22h5.61v5.57h0a1.12,1.12,0,0,0,2.23,0V28.32h5.61a1.11,1.11,0,0,0,0-2.22Z"/><path d="M20.9,33.78a38.94,38.94,0,0,1-4.54,3.49c-2.79-1.82-13.84-9.71-13.84-21a13.85,13.85,0,0,1,27.69,0c0,.38,0,.76-.07,1.14a9.81,9.81,0,0,1,2.47.74c.06-.62.12-1.24.12-1.88A16.37,16.37,0,0,0,0,16.25c0,14.3,15.09,23.21,15.73,23.58a1.26,1.26,0,0,0,1.27,0,38.24,38.24,0,0,0,5.79-4.34A9.59,9.59,0,0,1,20.9,33.78Z"/><path d="M12.64,16.28a3.75,3.75,0,1,0,3.72-3.78A3.74,3.74,0,0,0,12.64,16.28Z"/></g></svg>