<svg xmlns="http://www.w3.org/2000/svg" viewBox="0 0 40 40"><g data-name="Layer 2"><g><path d="M17.51,14.81c0-.81,0-1.63,0-2.45a2.5,2.5,0,0,1,5,.15c0,1.6,0,3.2,0,4.8,0,.15,0,.2.19.2h4.74a2.5,2.5,0,0,1,.24,5c-.62,0-1.24,0-1.87,0H22.66c-.14,0-.17,0-.17.17,0,1.59,0,3.18,0,4.77A2.48,2.48,0,0,1,20.36,30a2.51,2.51,0,0,1-2.82-2,3.39,3.39,0,0,1,0-.55V22.69c0-.15,0-.2-.19-.19H12.56a2.5,2.5,0,0,1-.21-5c.69,0,1.38,0,2.07,0h2.9c.14,0,.19,0,.18-.17V14.81Z"/><path d="M35.15,40h-10C25,40,25,40,25,39.82c0-.72,0-1.44,0-2.16a.3.3,0,0,1,0-.16H35a2.46,2.46,0,0,0,.6-.07c.06,0,.1,0,.12,0,.21.75.43,1.49.65,2.23,0,.1,0,.11-.09.12A4.91,4.91,0,0,1,35.15,40Z"/><path d="M40,11.44v10H37.62c-.14,0-.12-.06-.12-.15V12.56c0-.32,0-.65,0-1,0-.12,0-.16.15-.16Z"/><path d="M0,27.86v-10H2.38c.1,0,.12,0,.12.12v9.77c0,.11,0,.12-.13.12Z"/><path d="M19.3,0h10c0,.72,0,1.45,0,2.17,0,.32,0,.32-.32.32h-9.5c-.14,0-.18,0-.18-.18,0-.72,0-1.45,0-2.17C19.29.11,19.3.05,19.3,0Z"/><path d="M20,40H10c0-.73,0-1.45,0-2.18,0-.32,0-.32.32-.32H20s0,0,0,.08v2.34A.22.22,0,0,1,20,40Z"/><path d="M4.85,0H14.3c0,.77,0,1.55,0,2.33,0,.13,0,.16-.17.16H4.75c-.08,0-.11,0-.12-.08L4.3.14c0-.08,0-.1.09-.1Z"/><path d="M40,26.44v2.82c0,1.93,0,3.86,0,5.8,0,0,0,.06,0,.09a5,5,0,0,1-.17,1.15c0,.09,0,.12-.14.09l-2.19-.65c-.08,0-.1,0-.08-.13A2.48,2.48,0,0,0,37.5,35c0-2.78,0-5.57,0-8.35,0-.14,0-.17.17-.17Z"/><path d="M0,12.85V5.08C0,5,0,4.91,0,4.82A5.23,5.23,0,0,1,.4,3c0-.1.07-.11.17-.07l2,.94c.09,0,.11.07.07.16a2.48,2.48,0,0,0-.18,1q0,3.8,0,7.59c0,.15,0,.19-.19.19Z"/><path d="M34.29,0h.86a5,5,0,0,1,4.58,3.39A4.83,4.83,0,0,1,40,4.85V6.43H37.6c-.09,0-.11,0-.1-.12V5A2.5,2.5,0,0,0,35,2.5h-.56c-.12,0-.15,0-.14-.15V0Z"/><path d="M5,40H4.82A4.94,4.94,0,0,1,.46,37.08,4.62,4.62,0,0,1,0,35.18V32.86H2.4c.12,0,.1.06.1.13v1.95a2.49,2.49,0,0,0,2.19,2.54c.1,0,.24,0,.29.05s0,.2,0,.31Z"/></g></g></svg>