<svg xmlns="http://www.w3.org/2000/svg" viewBox="0 0 39.99 40"><g data-name="Layer 2"><g><path class="cls-1" d="M19,7H17.21c-.16,0-.2,0-.19.19v3.47a1.11,1.11,0,0,1-.93,1.08A1.14,1.14,0,0,1,14.82,11a1.25,1.25,0,0,1-.07-.47c0-1.12,0-2.24,0-3.36,0-.16,0-.19-.19-.19H11.07a1.12,1.12,0,1,1,0-2.23h3.45c.18,0,.22,0,.22-.22,0-1.14,0-2.29,0-3.43A1.11,1.11,0,0,1,15.67,0a1.15,1.15,0,0,1,1.25.64,1.3,1.3,0,0,1,.1.52c0,1.11,0,2.21,0,3.32,0,.23.07.26.27.26h3.41A1.12,1.12,0,0,1,20.78,7H19Z"/><path class="cls-1" d="M30.16,1.42a1.14,1.14,0,0,1-.23.69l-5.07,8.32-.29.48a1.14,1.14,0,0,1-1.59.36,1.1,1.1,0,0,1-.34-1.55L27.29,2.1c.26-.43.52-.87.8-1.3a1.07,1.07,0,0,1,1.1-.49,1.09,1.09,0,0,1,.94.84.44.44,0,0,1,0,.1A1,1,0,0,1,30.16,1.42Z"/><path class="cls-1" d="M34.93,7H31a1.1,1.1,0,0,1-1.11-1.15A1.11,1.11,0,0,1,31,4.76h7.83a1.14,1.14,0,0,1,1.17,1A1.11,1.11,0,0,1,38.91,7c-.61,0-1.23,0-1.85,0Z"/><path class="cls-1" d="M30.29,13.73a1.16,1.16,0,0,0-1.34.51l-4.83,7.12c-.06.09-.09.17-.25.13a3,3,0,0,0-3.53,1.41c-.67,1.16-1.35,2.32-2,3.48-.1.16-.17.16-.32.1l-2.56-1-2.68-1.05a3.72,3.72,0,0,0-1.39-.29c-2.53,0-5.05,0-7.58,0A3.82,3.82,0,0,0,0,28V38.78A1.12,1.12,0,0,0,1.22,40H7.61c2.12,0,4.25,0,6.38,0a1.18,1.18,0,0,0,1.23-1.24c0-1.49,0-3,0-4.46,0-.24,0-.25.22-.17l3.82,1.25a1.12,1.12,0,0,0,1.34-.46q2.79-4.31,5.57-8.63A2.84,2.84,0,0,0,26,23a.21.21,0,0,1,0-.3c1-1.43,2-2.87,2.93-4.31l2-2.91A1.1,1.1,0,0,0,30.29,13.73ZM24.2,25.18l-4.95,7.68c-.08.12-.15.12-.27.08l-4.46-1.46A1.13,1.13,0,0,0,13,32.61c0,1.64,0,3.29,0,4.93,0,.18,0,.23-.22.23H2.48c-.16,0-.21,0-.21-.21V28a1.6,1.6,0,0,1,1.6-1.65c2.49,0,5,0,7.46,0a1.8,1.8,0,0,1,.64.14l6.18,2.45a1.16,1.16,0,0,0,1.62-.56L22.3,24a.73.73,0,0,1,1.2-.25l.52.38A.68.68,0,0,1,24.2,25.18Z"/><path class="cls-1" d="M7.14,13.19a5.22,5.22,0,1,0,0,10.43,5.22,5.22,0,1,0,0-10.43Zm0,8.19a3,3,0,1,1,3-2.95A3,3,0,0,1,7.14,21.38Z"/></g></g></svg>