<svg xmlns="http://www.w3.org/2000/svg" viewBox="0 0 40 37.24"><g data-name="Layer 2"><g data-name="60-adress update"><path class="cls-1" d="M20,37.24H4.7a.89.89,0,0,1-1-1V19.09a.88.88,0,0,1,.65-.95.87.87,0,0,1,1.09.79,2.44,2.44,0,0,1,0,.27q0,8,0,16.06c0,.18,0,.24.23.24H34.33c.19,0,.23-.06.23-.24q0-8.1,0-16.2a.88.88,0,0,1,.67-.92.86.86,0,0,1,1.07.77,1.34,1.34,0,0,1,0,.2V36.24a.88.88,0,0,1-.7,1,1.51,1.51,0,0,1-.3,0Z"/><path class="cls-1" d="M40,18.13a.88.88,0,0,1-1.46.62l-1.79-1.61-16.62-15c-.11-.1-.16-.08-.26,0L1.58,18.65a.94.94,0,0,1-.89.3A.84.84,0,0,1,0,18.32a.84.84,0,0,1,.27-.88l2-1.82L15.44,3.81,19.28.35a.91.91,0,0,1,1.44,0q5.45,4.89,10.88,9.79l8,7.24A1,1,0,0,1,40,18.13Z"/><path class="cls-1" d="M18.66,13.19a8.17,8.17,0,0,0-2.65,1,8.4,8.4,0,0,0-4.28,6.49,8.52,8.52,0,0,0,6.08,9.21.91.91,0,0,1,.71.71.87.87,0,0,1-1.14,1,9.93,9.93,0,0,1-3.76-2A10.06,10.06,0,0,1,10,23.19,10.32,10.32,0,0,1,18,11.55a11.38,11.38,0,0,1,1.38-.22l-.52-.52-.32-.32a.86.86,0,0,1,0-1.21.84.84,0,0,1,1.19,0c.71.68,1.41,1.38,2.1,2.09a.85.85,0,0,1,0,1.18q-1,1.05-2.07,2.07a.85.85,0,0,1-1.19,0,.87.87,0,0,1-.07-1.21Z"/><path class="cls-1" d="M22.57,31.74l.37.26a.88.88,0,0,1,.18,1.23.87.87,0,0,1-1.21.19l-2.33-1.67a.85.85,0,0,1-.21-1.2c.55-.8,1.11-1.58,1.68-2.37a.87.87,0,0,1,1.42,1c-.09.14-.2.28-.3.42s-.19.28-.31.44a7.88,7.88,0,0,0,2.93-1.15,8.36,8.36,0,0,0,4-6.67,8.51,8.51,0,0,0-5.68-8.7.91.91,0,0,1-.67-.75.86.86,0,0,1,1.18-.93,9.71,9.71,0,0,1,2.6,1.34,10.1,10.1,0,0,1,4.25,7,10.32,10.32,0,0,1-7.76,11.5A.21.21,0,0,0,22.57,31.74Z"/></g></g></svg>