<svg xmlns="http://www.w3.org/2000/svg" viewBox="0 0 40 39.99"><g data-name="Layer 2"><g><path class="cls-1" d="M24.88,24.49a7.1,7.1,0,0,0-1.13-.92,3,3,0,0,0-4.31.86L18.3,26.28c-.09.15-.16.18-.33.11l-5.29-2.12A3.52,3.52,0,0,0,11.32,24c-2.5,0-5,0-7.5,0A3.85,3.85,0,0,0,0,27.85v11A1.12,1.12,0,0,0,1.19,40H14a1.1,1.1,0,0,0,.26,0,1.12,1.12,0,0,0,.93-1.19V34l.22.07,3.75,1.24a1.12,1.12,0,0,0,1.36-.42c1.56-2.3,3.12-4.58,4.65-6.89A2.91,2.91,0,0,0,24.88,24.49Zm-1.67,2.38q-2,3-4,5.95c-.1.14-.18.1-.29.06L14.5,31.42a1.13,1.13,0,0,0-1.6,1.14c0,1.66,0,3.31,0,5,0,.17,0,.22-.22.22H2.47c-.16,0-.21,0-.21-.21,0-3.2,0-6.41,0-9.61A1.62,1.62,0,0,1,4,26.24h7.22a1.92,1.92,0,0,1,.71.15l6.23,2.49a1.14,1.14,0,0,0,1.54-.51l1.68-2.7a.72.72,0,0,1,1.14-.22l.56.41A.7.7,0,0,1,23.21,26.87Z"/><path class="cls-1" d="M39.85,9.72a10.79,10.79,0,0,0-4-6.79A12.83,12.83,0,0,0,25.78.12a12.35,12.35,0,0,0-6.91,3.16,10.8,10.8,0,0,0-3.72,8,10.52,10.52,0,0,0,1.94,6.32.38.38,0,0,1,0,.42c-.33.8-.64,1.61-1,2.41a1.09,1.09,0,0,0,.2,1.25,1.12,1.12,0,0,0,1.25.28L20.43,21a.38.38,0,0,1,.36,0,12.86,12.86,0,0,0,6.31,1.87,14.15,14.15,0,0,0,3.11-.25,12.29,12.29,0,0,0,7.32-4.36A10.54,10.54,0,0,0,39.85,9.72ZM35.59,17.1a10,10,0,0,1-6.48,3.45,10.74,10.74,0,0,1-7.67-1.76,1.12,1.12,0,0,0-1.06-.14l-1.24.41c.13-.34.25-.64.37-.93a1.19,1.19,0,0,0-.19-1.32,8.59,8.59,0,0,1-1.78-3.9A8.33,8.33,0,0,1,19.2,6.25a9.85,9.85,0,0,1,6.17-3.78A10.64,10.64,0,0,1,33.68,4.1a8.75,8.75,0,0,1,3.81,5.39A8.29,8.29,0,0,1,35.59,17.1Z"/><path class="cls-1" d="M7.14,13a5.25,5.25,0,1,0,5.26,5.26A5.26,5.26,0,0,0,7.14,13Zm3,5.36A3,3,0,1,1,7.2,15.24,3,3,0,0,1,10.14,18.35Z"/><path class="cls-1" d="M27.57,9.44H22.79a1.63,1.63,0,0,1-.49,0,1.11,1.11,0,0,1-.82-1.18,1.13,1.13,0,0,1,1.08-1h9.91a1.14,1.14,0,0,1,1.2,1.17,1.12,1.12,0,0,1-1,1.07l-.37,0Z"/><path class="cls-1" d="M24.88,11.69c.77,0,1.54,0,2.31,0a1.11,1.11,0,0,1,1,1.53,1,1,0,0,1-1,.7c-1.53,0-3.07,0-4.6,0a1.12,1.12,0,0,1,0-2.23c.78,0,1.56,0,2.35,0Z"/></g></g></svg>