<svg id="Layer_1" data-name="Layer 1" xmlns="http://www.w3.org/2000/svg" viewBox="0 0 128 128">
  <g>
    <path d="M80,152H208V280H80Zm49.60025,62.854c1.74367,4.13336,4.00335,8.584,5.46547,13.28276a19.86985,19.86985,0,0,1,.79239,9.53363c-.87573,4.19548-.67718,8.42485,2.87221,10.08538a15.38283,15.38283,0,0,0,11.225.3311c3.79987-1.58,3.609-5.988,2.89944-10.116a20.23347,20.23347,0,0,1,.75863-9.56922c1.6675-4.90532,4.20866-9.51365,6.32236-14.11774,2.28142.52408,4.88606,1.71323,7.38247,1.51806,2.18982-.1712,4.25824-1.89519,6.38028-2.93332-1.37426-1.40552-2.75792-2.80209-4.11274-4.22611a1.3236,1.3236,0,0,1-.278-.55993c4.53282-3.433,9.12284-6.65678,13.4239-10.22853,5.82828-4.84,12.21712-7.89282,19.94385-7.95306,1.10467-.00862,2.1995-1.27958,3.29889-1.96633-1.15132-.67485-2.25805-1.83492-3.46123-1.94552-7.59622-.69831-14.38753,1.62137-20.71607,5.7642-4.30043,2.81517-8.59129,5.84417-13.299,7.76791-3.13893,1.28268-7.00614,1.06371-10.54346,1.03472-8.33248-.06829-16.74073-1.20525-24.96527-.38156-5.18274.51906-9.80469.92731-14.35763-1.727-4.73936-2.763-9.39647-5.67654-14.21864-8.28565-6.09472-3.29764-12.58441-5.3028-19.61868-4.41439-1.03061.13017-1.92546,1.33526-2.88312,2.043,1.01636.548,2.04261,1.58473,3.04746,1.56438,6.30531-.12765,11.65315,2.27909,16.65951,5.7864,6.09644,4.271,12.20521,8.52437,18.41749,12.86135-.41012.25075-1.10342.625-1.74236,1.07622-1.13864.80412-2.2444,1.65479-3.36392,2.486,1.09661,1.09644,2.10011,2.99879,3.30729,3.13826A101.43557,101.43557,0,0,0,129.60025,214.854Z" transform="translate(-80 -152)" style="fill: #fff"/>
    <path d="M129.60025,214.854a101.43557,101.43557,0,0,1-11.36356-.151c-1.20718-.13947-2.21068-2.04182-3.30729-3.13825,1.11952-.8312,2.22528-1.68187,3.36392-2.486.63894-.45123,1.33224-.82547,1.74236-1.07622-6.21228-4.337-12.321-8.59037-18.41749-12.86135-5.00636-3.50731-10.3542-5.91405-16.65951-5.7864-1.00485.02035-2.0311-1.01636-3.04746-1.56438.95766-.70772,1.85251-1.91281,2.88312-2.043,7.03427-.88841,13.524,1.11675,19.61868,4.41439,4.82217,2.60911,9.47928,5.52266,14.21864,8.28565,4.55294,2.65433,9.17489,2.24608,14.35763,1.727,8.22454-.82369,16.63279.31327,24.96527.38156,3.53732.029,7.40453.248,10.54346-1.03472,4.70773-1.92374,8.99859-4.95274,13.299-7.76791,6.32854-4.14283,13.11985-6.46251,20.71607-5.7642,1.20318.1106,2.30991,1.27067,3.46123,1.94553-1.09939.68674-2.19422,1.9577-3.29889,1.96632-7.72673.06024-14.11557,3.113-19.94385,7.95306-4.30106,3.57175-8.89108,6.79553-13.4239,10.22853a1.3236,1.3236,0,0,0,.278.55993c1.35482,1.424,2.73848,2.82059,4.11274,4.22611-2.122,1.03813-4.19046,2.76212-6.38028,2.93332-2.49641.19517-5.101-.994-7.38247-1.51806-2.1137,4.60409-4.65486,9.21242-6.32236,14.11774a20.23347,20.23347,0,0,0-.75863,9.56922c.70952,4.128.90043,8.53595-2.89944,10.116a15.38283,15.38283,0,0,1-11.225-.3311c-3.54939-1.66053-3.74794-5.8899-2.87221-10.08538a19.86985,19.86985,0,0,0-.79239-9.53363C133.6036,223.438,131.34392,218.9874,129.60025,214.854Z" transform="translate(-80 -152)"/>
  </g>
</svg>
