<svg preserveAspectRatio="xMidYMid meet" viewBox="0 0 128 128" xmlns="http://www.w3.org/2000/svg"><g transform="matrix(.1 0 0 -.1 0 128)"><path d="m212 1035c-73-67-142-168-179-261-22-58-27-89-31-196l-4-128h54 55l6 102c10 169 59 279 170 384l68 65-28 44c-15 25-33 45-39 45s-38-25-72-55z"/><path d="m951 1043c-25-35-30-48-20-52 8-2 42-31 77-65 103-99 161-246 162-408v-68h55 55v101c0 153-38 270-126 390-39 53-141 149-159 149-6 0-26-21-44-47z"/><path d="m852 854c-18-24-32-47-32-50 0-2 16-19 36-36 59-52 87-119 92-220l4-88h59 59v73c0 80-20 162-53 217s-76 108-106 129l-28 20z"/><path d="m361 874c-42-30-110-134-131-201-12-40-20-93-20-139v-74h59 59l4 87c5 102 33 169 93 221l36 32-31 45c-17 25-34 45-38 45s-18-7-31-16z"/><path d="m575 721c-78-36-105-91-105-216 0-77-3-90-25-119-30-39-32-62-6-76 26-13 376-13 402 0 27 15 24 42-11 75-30 28-30 30-30 135 0 102-1 109-29 147-29 40-90 73-134 73-12 0-40-9-62-19z"/><path d="m580 247c0-41 74-61 103-29 30 33 21 42-43 42-44 0-60-4-60-13z"/></g></svg>