<svg xmlns="http://www.w3.org/2000/svg" viewBox="0 0 40 38.24"><g data-name="Layer 2"><g><path class="cls-1" d="M40,21a1.57,1.57,0,0,0-.44-.77q-3.25-3.72-6.5-7.43C29.46,8.67,25.86,4.57,22.28.44a1.17,1.17,0,0,0-1.94.18Q12.88,12.8,5.41,25c-.27.45-.55.89-.82,1.33A1.13,1.13,0,0,0,3,26.21C2.1,27,1.24,27.74.38,28.52a1.07,1.07,0,0,0-.09,1.55l7,7.77a1.09,1.09,0,0,0,1.59.1c.87-.76,1.73-1.53,2.59-2.3a1.07,1.07,0,0,0,.08-1.57l-.37-.42.16-.08,4.08-1.66c.15-.07.2,0,.27.1.45.85.9,1.69,1.36,2.53A.87.87,0,0,0,18.3,35L26,31.57a.89.89,0,0,0,.47-1.33c-.38-.73-.76-1.45-1.15-2.17-.08-.14-.07-.19.09-.25l10.29-4.21,3.57-1.45A1.11,1.11,0,0,0,40,21ZM9,34.86c-.26.21-.49.43-.73.64l-.12.11-.11-.15L5,32c-.73-.82-1.46-1.63-2.2-2.44-.1-.12-.11-.18,0-.28s.49-.42.72-.65.13-.07.21,0c1,1.16,2.07,2.32,3.11,3.47.74.82,1.47,1.64,2.21,2.45C9.16,34.7,9.16,34.76,9,34.86Zm15.32-4.48-3,1.33c-1,.43-2,.86-2.91,1.3-.17.08-.23,0-.31-.11-.27-.53-.55-1-.83-1.56-.07-.12-.08-.18.07-.24l6.1-2.49c.07,0,.13-.07.19.05l.81,1.55,0,.06C24.51,30.36,24.42,30.36,24.36,30.38Zm9.28-8.28L9.79,31.84a.24.24,0,0,1-.32-.07c-1.08-1.22-2.17-2.42-3.26-3.63-.1-.11-.06-.18,0-.28Q10.62,20.69,15,13.5,18.21,8.31,21.4,3.1a1.4,1.4,0,0,1,.12-.18L37.07,20.7Z"/></g></g></svg>