<svg xmlns="http://www.w3.org/2000/svg" viewBox="0 0 35.47 40"><g data-name="Layer 2"><g><path d="M23.18,19.78a10.66,10.66,0,1,0-10.89,0A17.59,17.59,0,0,0,0,36.51,3.53,3.53,0,0,0,3.55,40H31.92a3.53,3.53,0,0,0,3.55-3.49A17.59,17.59,0,0,0,23.18,19.78ZM9.45,10.67a8.28,8.28,0,1,1,8.28,8.27h0a8.28,8.28,0,0,1-8.27-8.28ZM19.94,21.44l-2.21,1.83-2.21-1.83a16,16,0,0,1,4.42,0ZM14.36,37.67H3.55A1.19,1.19,0,0,1,2.36,36.5a15.2,15.2,0,0,1,5.89-12L12,30.11a1.19,1.19,0,0,0,1.66.32l.16-.14.42-.41L15.32,32Zm-.6-10.61h0l-.57.57-3-4.41a15.87,15.87,0,0,1,2.49-1.11q1.57,1.45,3.28,2.75Zm3,10.61L17.7,32a.11.11,0,0,1-.08-.12.1.1,0,1,1,.2,0,.11.11,0,0,1-.08.08l1,5.66Zm1.1-6.38a.28.28,0,0,1,.12.37.28.28,0,0,1-.37.12.27.27,0,0,1-.12-.37.28.28,0,0,1,.12-.12L16,28.14l1.71-1.7,1.71,1.7Zm4.9-9.18a15.24,15.24,0,0,1,2.81,1.3l-3.24,4.28-.63-.62h0l-2.22-2.2c3.4-2.81,3.18-2.61,3.3-2.76Zm9.16,15.56H21.09l-1-5.67,1.07-2.11.41.41a1.21,1.21,0,0,0,1.69,0l.1-.12,4.1-5.41a15.16,15.16,0,0,1,5.59,11.73,1.18,1.18,0,0,1-1.17,1.18Z"/></g></g></svg>