<svg xmlns="http://www.w3.org/2000/svg" viewBox="0 0 40 39.89"><g data-name="Layer 2"><g><path d="M40,9.94v2.27c0,.17,0,.33-.06.5-.08.93-.13,1.87-.24,2.8a28.59,28.59,0,0,1-4.93,13.16,24.51,24.51,0,0,1-7.19,6.9,30.13,30.13,0,0,1-14,4.22,40,40,0,0,1-6.75-.09,18.8,18.8,0,0,1-5.19-1,.66.66,0,0,1-.37-.27,11.91,11.91,0,0,1-.59-1.9C.48,35.17.32,33.8.16,32.43.08,31.73.05,31,0,30.33V27.91c0-.23.06-.46.07-.69A34.33,34.33,0,0,1,1.58,18.4,24.79,24.79,0,0,1,13.84,3.63,29.92,29.92,0,0,1,25.61.16,37.54,37.54,0,0,1,38.45,1.22a.48.48,0,0,1,.28.26A42.24,42.24,0,0,1,39.85,8C39.89,8.65,40,9.3,40,9.94ZM15.22,37.06l.25,0c.72-.12,1.44-.21,2.16-.34a23,23,0,0,0,10.15-4.82,23,23,0,0,0,5.52-6,28,28,0,0,0,3.58-10.65.64.64,0,0,0-.17-.62Q30.95,8.88,25.22,3.12a.63.63,0,0,0-.59-.2A27,27,0,0,0,12.24,8.1a22.85,22.85,0,0,0-6.32,7,25.53,25.53,0,0,0-3,9.26.84.84,0,0,0,.29.82c.76.73,1.49,1.48,2.24,2.23l9.45,9.44A2.78,2.78,0,0,0,15.22,37.06ZM28.87,2.61,37.25,11s0,0,0,0a34.15,34.15,0,0,0-.5-7.42c0-.23-.13-.33-.37-.36-1.7-.19-3.4-.43-5.11-.58C30.45,2.55,29.62,2.61,28.87,2.61ZM2.7,28.71a.5.5,0,0,0,0,.12,44.89,44.89,0,0,0,.69,7.41c0,.28.23.31.44.33l6.44.61c.31,0,.63,0,.93,0Z"/><path d="M28.4,17.89l-2,2-2-2.07-2.26,2.25,2.06,2-2,2-2-2.07-2.25,2.25,2.09,2-2,2-2-2.07-2.12,2.15-2.18-2.18,2.13-2.1-2.18-2.13,2-2,2.05,2.12,2.25-2.25-2.08-2.06,2-2,2,2.11,2.27-2.28-2.06-2,2-2,2.05,2.13,2.16-2.16,2.09,2.1-2.1,2.09Z"/></g></g></svg>