<svg id="Layer_1" data-name="Layer 1" xmlns="http://www.w3.org/2000/svg" viewBox="0 0 128 128">
  <g>
    <path d="M80,280V152H208V280Zm120.9888-64.41225a57.48873,57.48873,0,1,0-57.40871,57.39978A57.3324,57.3324,0,0,0,200.9888,215.58775Z" transform="translate(-80 -152)" style="fill: #fff"/>
    <path d="M200.9888,215.58775A57.48873,57.48873,0,0,1,86.01145,215.57a57.48873,57.48873,0,1,1,114.97735.01779Zm-36.03626,36.38609c-.34135.87-.43066,2.05991-1.06421,2.559-4.77007,3.75749-3.124,7.49292-.18377,11.55648,14.79833-6.449,25.14729-16.795,31.2803-33.29576-3.40145.51913-5.64412.52839-7.63854,1.23667a107.93135,107.93135,0,0,0-11.38856,4.822,12.53841,12.53841,0,0,0-4.12821,3.47689c-2.485,3.16044-4.71215,6.52354-7.04415,9.80425,6.70523-8.44207,7.75146-16.67673.31905-25.585-2.29685-2.75295-3.76246-4.298-7.45408-3.54814a20.14977,20.14977,0,0,1-8.92374.1092c-8.6431-2.33142-12.89306,2.146-17.98038,8.42134-5.75278,7.09616-5.29868,12.80733-.7487,19.48436a47.24713,47.24713,0,0,0,3.466,4.8599c.8261.93175,2.08395,2.06305,3.17231,2.089C146.52174,258.19927,157.24711,262.09517,164.95254,251.97384Zm-14.037-30.29331c7.757,1.31565,13.18208-1.30042,16.17541-8.50819a24.46317,24.46317,0,0,1,2.95608-5.18554c3.04412-4.083,2.47189-7.91374.53776-12.4373-4.58273-10.71817-11.10407-16.51564-23.92447-15.29658-7.61737.72432-11.97484,3.10331-15.53361,9.61769-4.21621,7.71784-4.31966,13.91159.69249,21.79162C136.78252,219.46554,142.34424,222.95215,150.91552,221.68053Zm-45.90566-16.1088c5.95642-1.543,11.18248-3.2276,16.53987-4.147,2.74145-.47049,3.83269-1.56733,4.86724-3.97013,1.96331-4.55987,3.82279-9.41145,6.90679-13.17338,3.18218-3.8817,1.958-6.23142-.07269-9.87063-3.06321-5.48971-7.03633-6.415-12.42066-4.49827-2.81169,1.00089-5.71367,1.78633-8.4437,2.97127-8.1396,3.53292-11.91013,11.19786-13.53292,18.6937-.87037,4.02034,3.84715,9.25177,6.05728,13.93C104.96759,205.62689,105.18937,205.66846,105.00986,205.57173ZM133.3602,259.8784c-3.13547-6.33662-5.9418-12.11311-8.86745-17.82853a6.36812,6.36812,0,0,0-2.43252-2.838c-5.50905-2.65766-11.12188-5.10021-17.06584-7.7829-.93308,1.02708-2.0719,2.23481-3.16029,3.48638-5.50549,6.33088-5.83845,9.41541-.14744,15.47677,4.17344,4.445,8.77762,8.8708,14.01768,11.84816C126.265,268.24071,124.4088,269.05651,133.3602,259.8784Zm29.31672-80.66535c3.77009,6.93392,7.17818,13.35253,10.76832,19.66765a6.76664,6.76664,0,0,0,3.13118,2.73341c4.29977,1.72567,8.70934,3.17776,13.47154,4.8742,2.27313-7.3772,3.7667-14.70676-1.80032-21.85573-5.87974-7.55053-11.72375-14.8868-22.31088-14.63344C164.62839,173.69723,163.47652,176.953,162.67692,179.21305ZM96.95608,239.18437c2.55584-3.75471,6.3027-6.98535,6.979-10.76538,1.12064-6.26345.30976-12.88132.19724-19.34787a6.85464,6.85464,0,0,0-.991-3.17652c-2.24617-3.83249-4.61433-7.59349-6.944-11.39132C86.39294,199.91834,86.30792,232.09293,96.95608,239.18437Zm98.20611-7.15347c3.86855-12.19239,3.63195-23.74709-.77954-35.11482l-1.40566.00128L190.23853,231.314Zm-80.66874-63.838.81028,2.17726,24.42817-7.70039-.76273-2.39065Z" transform="translate(-80 -152)"/>
    <path d="M150.91552,221.68053c-8.57128,1.27162-14.133-2.215-19.09634-10.0183-5.01215-7.88-4.9087-14.07378-.69249-21.79162,3.55877-6.51438,7.91624-8.89337,15.53361-9.61769,12.8204-1.21906,19.34174,4.57841,23.92447,15.29658,1.93413,4.52356,2.50636,8.35426-.53776,12.4373a24.46317,24.46317,0,0,0-2.95608,5.18554C164.0976,220.38011,158.67247,222.99618,150.91552,221.68053Z" transform="translate(-80 -152)" style="fill: #fff"/>
    <path d="M164.947,251.97621c-7.69993,10.119-18.4253,6.22306-28.31114,5.98767-1.08836-.02591-2.34621-1.15721-3.17231-2.089a47.24713,47.24713,0,0,1-3.466-4.8599c-4.55-6.677-5.00408-12.3882.7487-19.48436,5.08732-6.27532,9.33728-10.75276,17.98038-8.42134a20.14977,20.14977,0,0,0,8.92374-.1092c3.69162-.74989,5.15723.79519,7.45408,3.54814,7.43241,8.90829,6.38618,17.143-.31905,25.585Z" transform="translate(-80 -152)" style="fill: #fff"/>
    <path d="M105.00986,205.57173c.17951.09673-.04227.05516-.09879-.06448-2.21013-4.67822-6.92765-9.90965-6.05728-13.93,1.62279-7.49584,5.39332-15.16078,13.53292-18.6937,2.73-1.18494,5.632-1.97038,8.4437-2.97127,5.38433-1.91668,9.35745-.99144,12.42066,4.49827,2.03065,3.63921,3.25487,5.98893.07269,9.87063-3.084,3.76193-4.94348,8.61351-6.90679,13.17338-1.03455,2.4028-2.12579,3.49964-4.86724,3.97013C116.19234,202.34413,110.96628,204.02877,105.00986,205.57173Z" transform="translate(-80 -152)" style="fill: #fff"/>
    <path d="M133.3602,259.8784c-8.9514,9.17811-7.09522,8.36231-17.65586,2.36186-5.24006-2.97736-9.84424-7.40313-14.01768-11.84816-5.691-6.06136-5.35805-9.14589.14744-15.47677,1.08839-1.25157,2.22721-2.4593,3.16029-3.48638,5.944,2.68269,11.55679,5.12524,17.06584,7.7829a6.36812,6.36812,0,0,1,2.43252,2.838C127.4184,247.76529,130.22473,253.54178,133.3602,259.8784Z" transform="translate(-80 -152)" style="fill: #fff"/>
    <path d="M162.67692,179.21305c.7996-2.26005,1.95147-5.51582,3.25984-9.21391,10.58713-.25336,16.43114,7.08291,22.31088,14.63344,5.567,7.149,4.07345,14.47853,1.80032,21.85573-4.7622-1.69644-9.17177-3.14853-13.47154-4.8742a6.76664,6.76664,0,0,1-3.13118-2.73341C169.8551,192.56558,166.447,186.147,162.67692,179.21305Z" transform="translate(-80 -152)" style="fill: #fff"/>
    <path d="M96.95608,239.18437c-10.64816-7.09144-10.56314-39.266-.75869-44.68109,2.32965,3.79783,4.69781,7.55883,6.944,11.39132a6.85464,6.85464,0,0,1,.991,3.17652c.11252,6.46655.9234,13.08442-.19724,19.34787C103.25878,232.199,99.51192,235.42966,96.95608,239.18437Z" transform="translate(-80 -152)" style="fill: #fff"/>
    <path d="M164.7854,252.13328c2.332-3.28071,4.55919-6.64381,7.04415-9.80425a12.53841,12.53841,0,0,1,4.12821-3.47689,107.93135,107.93135,0,0,1,11.38856-4.822c1.99442-.70828,4.23709-.71754,7.63854-1.23667-6.133,16.50075-16.482,26.84681-31.2803,33.29576-2.94024-4.06356-4.5863-7.799.18377-11.55648.63355-.499.72286-1.689,1.06147-2.55777Z" transform="translate(-80 -152)" style="fill: #fff"/>
    <path d="M195.16219,232.0309l-4.92366-.71691,2.73846-34.39663,1.40566-.00128C198.79414,208.28381,199.03074,219.83851,195.16219,232.0309Z" transform="translate(-80 -152)" style="fill: #fff"/>
    <path d="M114.49345,168.19287l24.47572-7.91378.76273,2.39065-24.42817,7.70039Z" transform="translate(-80 -152)" style="fill: #fff"/>
  </g>
</svg>
