<svg  data-name="Layer 1" xmlns="http://www.w3.org/2000/svg" viewBox="0 0 200 200"><path  d="M98,155.55H61.9a4.33,4.33,0,1,0,0,8.65H98a4.19,4.19,0,0,0,4.33-4.33A4.34,4.34,0,0,0,98,155.55Z"/><path  d="M52.76,130.8a4.34,4.34,0,0,0-4.33-4.33H12.32a4.33,4.33,0,0,0,0,8.66H48.43A4.19,4.19,0,0,0,52.76,130.8Z"/><path  d="M83.36,145.19A4.18,4.18,0,0,0,79,140.86H33.74a4.33,4.33,0,0,0,0,8.65H79A4.18,4.18,0,0,0,83.36,145.19Z"/><path  d="M192.27,137.51l0-.07a9.86,9.86,0,0,0-6.27-6.6c-4.07-1.53-22.75-8.64-28.76-10.93l-1.89-.72a10.61,10.61,0,0,1-6.05-5L120.63,68.5a1.58,1.58,0,0,0-.74-.9,15.67,15.67,0,0,0-14.41-5.69c-4.89.7-8.82,3.52-10.51,7.59a4.15,4.15,0,0,0,.42,3.79l22,37.66a16.78,16.78,0,0,0,8.31,7l26.35,9.5.12,0c1,.32,11.89,4.49,19.09,7.24,5,1.93,9.56,3.67,11.39,4.35.49.17.8.43,1.06,1.41s.12,2.48-.6,4.39h-46a12.25,12.25,0,0,1-7.5-2.51L52.49,85.05a8.63,8.63,0,0,0,1.79-6.41l-3-29a43.08,43.08,0,0,1,3.08-5,1.49,1.49,0,0,1,1-.64c.14,0,.32,0,.65.32.12.07,2.89,2,12.53,16.82,5.07,7.09,10.5,10.77,18.29,12.3h.61A4.21,4.21,0,0,0,91.72,70,4.38,4.38,0,0,0,91,66.74a6,6,0,0,0-4.09-2.15c-5.4-.81-7.33-2.91-11.09-8.22-10-15.84-13.19-18.19-14.69-19.31-4.07-3.05-9.7-2.3-13.46,1.86l-18,28.13a9.51,9.51,0,0,0-1.52,6.24,9.86,9.86,0,0,0-5.24,4.21l-4,6.46a10.71,10.71,0,0,0-1.35,8A11.36,11.36,0,0,0,22,98.51l23.45,14.92.41.38c24.64,16.09,57.42,37.06,71.32,45.9a32.15,32.15,0,0,0,17.82,5.1h18.67c11.78,0,27.93-3.41,34.6-12.95A15.45,15.45,0,0,0,192.27,137.51Zm-155-66,6.58-10.34,1.78,17.95c0,.15,0,.16-.28.39h0l-.12.1-.09,0L38,74.21A2.68,2.68,0,0,1,37.28,71.47Zm117,84.69H135.65a27.3,27.3,0,0,1-13.4-3.78c-7.78-4.92-18.8-12.06-30.47-19.62l-.18-.11c-11-7.15-22.46-14.54-33-21.29l-31.93-20a1.44,1.44,0,0,1-.53-.8l-.06-.3c-.12-.37-.06-.61.18-1.29l.08-.21,4-6.41a1.48,1.48,0,0,1,1.11-.53l.3-.06a1.28,1.28,0,0,1,1.31.44l2.12,1.52,88.46,65.5a22.05,22.05,0,0,0,12.68,4.22h34.86A54.84,54.84,0,0,1,154.32,156.16Zm-15.77-43.58L129,109.4a9.19,9.19,0,0,1-3.93-3.15L104.56,71.14a8.41,8.41,0,0,1,2.57-.92,7.41,7.41,0,0,1,6.33,2.49Z"/></svg>