<svg xmlns="http://www.w3.org/2000/svg" viewBox="0 0 40 36.78"><g data-name="Layer 2"><g><path d="M40,11.34l-.06.53a10.61,10.61,0,0,1-1.54,4.46,10.91,10.91,0,0,1-1.53,1.93q-7.8,7.81-15.58,15.65a1.72,1.72,0,0,1-2.95-.77,1.7,1.7,0,0,1,.49-1.63l4.92-5q5.36-5.37,10.69-10.75a7,7,0,0,0,2.05-4A7.15,7.15,0,0,0,31,3.64a6.91,6.91,0,0,0-6.67,1.95c-3.24,3.22-6.46,6.48-9.68,9.72Q10,19.94,5.44,24.58a7.43,7.43,0,0,0-1.89,3.21A3.57,3.57,0,0,0,3.65,30a4.58,4.58,0,0,0,3.68,3.28,4.52,4.52,0,0,0,4.25-1.34c1.66-1.65,3.31-3.32,5-5q5.66-5.7,11.32-11.38a2.41,2.41,0,0,0,.69-1.27,2.3,2.3,0,0,0-2-2.73,2.35,2.35,0,0,0-2,.72L12.15,24.71a1.81,1.81,0,0,1-1,.56,1.73,1.73,0,0,1-2-1.47,1.78,1.78,0,0,1,.54-1.52L21.24,10.7c.4-.41.79-.82,1.22-1.2a5.45,5.45,0,0,1,3.22-1.42,5.72,5.72,0,0,1,6.18,4.45,5.54,5.54,0,0,1-1.48,5.33c-2.05,2.12-4.16,4.2-6.25,6.3L14,34.31a8.17,8.17,0,0,1-3.83,2.22,8.39,8.39,0,0,1-1.49.23l-.09,0H7.75l-.1,0a7.47,7.47,0,0,1-1.48-.23,8.12,8.12,0,0,1-4.69-3.27,7.9,7.9,0,0,1-1.42-3.8c0-.21,0-.43-.06-.65v-.45s0-.07,0-.11a5.94,5.94,0,0,1,.23-1.39A10.85,10.85,0,0,1,3,22.13q9.39-9.46,18.8-18.91a10,10,0,0,1,1.25-1.1A10.5,10.5,0,0,1,28.68,0l.65,0h.31a10.55,10.55,0,0,1,9.18,5.74,10.24,10.24,0,0,1,1.12,3.71L40,10Z"/></g></g></svg>