<svg xmlns="http://www.w3.org/2000/svg" viewBox="0 0 38.23 40"><g data-name="Layer 2"><g><path class="cls-1" d="M20.57,25.6a1.24,1.24,0,0,1,1.23-.7h9.47a1.09,1.09,0,0,1,1.15,1.19,1.08,1.08,0,0,1-1,1H22.93c-.18,0-.23,0-.23.23V37.59c0,.17,0,.21.21.21H33c.17,0,.22,0,.22-.22,0-1.11,0-2.22,0-3.33A1.1,1.1,0,0,1,34,33.1a1.12,1.12,0,0,1,1.39,1.11v4.62A1.09,1.09,0,0,1,34.55,40l-.26,0H21.67a1.09,1.09,0,0,1-1.14-1.14V30.41a.32.32,0,0,0-.18-.32,3.71,3.71,0,0,1-2-3.27c0-.93,0-1.86,0-2.8a1.1,1.1,0,0,1,.26-.74,14.32,14.32,0,0,0,2.56-4.75,1.29,1.29,0,0,1,.84-.9,1,1,0,0,0,.71-1c0-1,0-2,0-2.95a1.12,1.12,0,0,0-.37-.82A1.09,1.09,0,0,1,22,12c0-1.44,0-2.88,0-4.32a5.67,5.67,0,0,0-.38-2.38,4.56,4.56,0,0,0-2.8-2.55,10.88,10.88,0,0,0-4-.58,9.87,9.87,0,0,0-3.65.62,4.49,4.49,0,0,0-3,3.34,5.45,5.45,0,0,0-.12,1.4c0,.61,0,1.23,0,1.85V12a1.16,1.16,0,0,1-.37.88,1.13,1.13,0,0,0-.36.87v2.86a1.09,1.09,0,0,0,.48.95,1.28,1.28,0,0,1,.52.8,13.46,13.46,0,0,0,2.37,4.94,1.27,1.27,0,0,1,.27.8c0,.87,0,1.74,0,2.62a3.69,3.69,0,0,1-2,3.37L2.82,33.52a6,6,0,0,0-1,.68,1.07,1.07,0,0,1-1.56-.08,1.1,1.1,0,0,1,.14-1.58,7.07,7.07,0,0,1,1.31-.93L8,28.15a1.63,1.63,0,0,0,.93-1.58c0-.68,0-1.36,0-2a.44.44,0,0,0-.09-.29,15.94,15.94,0,0,1-2.38-5A.46.46,0,0,0,6.31,19a3.35,3.35,0,0,1-1-2.42V13.66a3.24,3.24,0,0,1,.63-1.94.56.56,0,0,0,.1-.33C6,10,6,8.62,6,7.24A6.78,6.78,0,0,1,10.66.69,12.38,12.38,0,0,1,14.27,0a14.24,14.24,0,0,1,4.9.54A7.21,7.21,0,0,1,22.81,3a7,7,0,0,1,1.41,4.76c0,.28,0,.55,0,.83V11.4a.47.47,0,0,0,.07.28,3.26,3.26,0,0,1,.66,2c0,1,0,1.95,0,2.93a3.25,3.25,0,0,1-1.66,2.88.32.32,0,0,0-.15.19,17.07,17.07,0,0,1-2.5,4.64.25.25,0,0,0-.06.2Z"/><path class="cls-1" d="M38.23,26.24a1.18,1.18,0,0,1-.37.84L31,34l-1.94,2a1.08,1.08,0,0,1-1.7,0l-3.3-3.35a1.06,1.06,0,0,1-.28-1.16,1,1,0,0,1,.88-.73,1,1,0,0,1,.94.34c.83.84,1.66,1.67,2.47,2.51.13.14.19.08.28,0,2.64-2.68,5.3-5.36,7.93-8a1.1,1.1,0,0,1,1.86.33A1.22,1.22,0,0,1,38.23,26.24Z"/></g></g></svg>