<svg xmlns="http://www.w3.org/2000/svg" viewBox="0 0 40 38.67"><g data-name="Layer 2"><g><path d="M34.79,26.33l-3.73,5.36-2.64-2.16a.68.68,0,0,0-.94.09.67.67,0,0,0,.1.94l3.19,2.62a.66.66,0,0,0,.42.15h.09a.7.7,0,0,0,.46-.28l4.14-6a.66.66,0,0,0-1.09-.76Z"/><path d="M36.11,22.78a18.58,18.58,0,0,0,.56-4.45A18.34,18.34,0,1,0,6,31.84h0l.6.51.11.08c.32.27.65.52,1,.76l.32.23c.35.24.72.48,1.09.7l.25.14c.41.23.82.45,1.25.65l.1,0a18.45,18.45,0,0,0,4.43,1.4l.12,0c.48.09,1,.15,1.47.2h.18c.49,0,1,.07,1.49.07a18.23,18.23,0,0,0,6.34-1.14A8.66,8.66,0,1,0,36.11,22.78ZM1.33,18.33a17,17,0,0,1,34,0,17.17,17.17,0,0,1-.42,3.78h0a5.57,5.57,0,0,0-.77-.3l-.07,0a7.84,7.84,0,0,0-.83-.23h0a8.36,8.36,0,0,0-.85-.14h-.06c-.3,0-.61-.05-.92-.05A8.67,8.67,0,0,0,23,27.61a1.49,1.49,0,0,1-.46-1.08v-2c.13-.16.27-.34.41-.54A13.6,13.6,0,0,0,24.7,20.6a2.42,2.42,0,0,0,1.39-2.19V16.05a2.42,2.42,0,0,0-.59-1.58V11.36a5.37,5.37,0,0,0-1.26-3.91C23,6,21,5.33,18.33,5.33S13.65,6,12.42,7.45a5.34,5.34,0,0,0-1.25,3.9v3.12a2.42,2.42,0,0,0-.59,1.58v2.36a2.44,2.44,0,0,0,.89,1.88,12.58,12.58,0,0,0,2.06,4.26v1.93a1.49,1.49,0,0,1-.77,1.3L7.48,30.66A5.91,5.91,0,0,0,7,31,17,17,0,0,1,1.33,18.33Zm15.74,17-.22,0q-.63,0-1.26-.15h-.05a17.34,17.34,0,0,1-2.6-.65l-.07,0a17,17,0,0,1-2.4-1l-.14-.07c-.34-.18-.67-.38-1-.59L9,32.56c-.3-.2-.6-.41-.89-.63l-.09-.07.06,0L13.39,29a2.8,2.8,0,0,0,1.47-2.47v-2.4l-.15-.19a11.07,11.07,0,0,1-2-4.14l-.06-.27-.23-.14a1.12,1.12,0,0,1-.51-.93V16a1.08,1.08,0,0,1,.37-.81l.22-.2v-3.8a4,4,0,0,1,.93-2.91c1-1.1,2.62-1.65,4.91-1.65s3.93.55,4.9,1.64a4.07,4.07,0,0,1,.94,2.92V15l.22.2a1.1,1.1,0,0,1,.37.82v2.36A1.11,1.11,0,0,1,24,19.46l-.33.1-.11.33a12.39,12.39,0,0,1-1.66,3.36,7.78,7.78,0,0,1-.49.63l-.17.19v2.46A2.81,2.81,0,0,0,22.72,29c0,.32,0,.64,0,1a5.62,5.62,0,0,0,0,.58,1.49,1.49,0,0,0,0,.21,1.37,1.37,0,0,0,0,.19c0,.06,0,.12,0,.18l.06.34a2.23,2.23,0,0,0,0,.23h0s0,0,0,.06a2.46,2.46,0,0,0,.07.29c0,.07,0,.14,0,.2l.06.18a2,2,0,0,0,.07.23.74.74,0,0,1,0,.14c.05.14.1.27.16.4h0c0,.1.08.2.13.3a2.14,2.14,0,0,0,.1.22l.06.14a.41.41,0,0,1,.05.09l.18.32.05.1a16.87,16.87,0,0,1-5.54.93C17.91,35.33,17.49,35.31,17.07,35.28Zm14.26,2a7.31,7.31,0,0,1-5.93-3l-.16-.23-.11-.16-.08-.14L25,33.61l-.13-.24a1.63,1.63,0,0,1-.09-.19l0,0c-.05-.1-.1-.21-.14-.31s-.05-.12-.07-.17l-.15-.41c0-.06,0-.12-.05-.19s0,0,0-.06-.07-.26-.1-.4l0-.13s0-.08,0-.12-.05-.29-.07-.45v-.05a.88.88,0,0,0,0-.16c0-.23,0-.45,0-.68s0-.42,0-.62,0-.4.08-.62l.05-.28a7.34,7.34,0,0,1,7.17-5.81,6.54,6.54,0,0,1,.89.06,1.38,1.38,0,0,1,.2,0,5.72,5.72,0,0,1,.72.14l.15,0a7.65,7.65,0,0,1,1.7.71,7.33,7.33,0,0,1-3.66,13.68Z"/></g></g></svg>