<svg xmlns="http://www.w3.org/2000/svg" viewBox="0 0 35.25 40"><g data-name="Layer 2"><g><path class="cls-1" d="M18.19,25.2V23.76a1.37,1.37,0,0,1,.34-1A14,14,0,0,0,21,18.26a1.38,1.38,0,0,1,.89-1,.89.89,0,0,0,.63-.89V13.56a.94.94,0,0,0-.3-.71,1.32,1.32,0,0,1-.42-1c0-1.35,0-2.71,0-4.06a5.9,5.9,0,0,0-.23-2A4.35,4.35,0,0,0,18.76,3a10.77,10.77,0,0,0-4.06-.56,9.63,9.63,0,0,0-3.4.6,4.28,4.28,0,0,0-2.86,3.3,5.31,5.31,0,0,0-.08,1.26c0,.5,0,1,0,1.5,0,.9,0,1.81,0,2.71a1.37,1.37,0,0,1-.42,1,.92.92,0,0,0-.31.72V16.4a.93.93,0,0,0,.43.81,1.39,1.39,0,0,1,.56.85A12.84,12.84,0,0,0,11,22.85a1.41,1.41,0,0,1,.3.91c0,.84,0,1.68,0,2.52a3.74,3.74,0,0,1-2,3.43C7.16,30.86,5.1,32,3,33.1a6.43,6.43,0,0,0-1,.69A1.22,1.22,0,1,1,.44,32,7.52,7.52,0,0,1,1.75,31L8,27.63a1.52,1.52,0,0,0,.87-1.46c0-.64,0-1.28,0-1.92A.44.44,0,0,0,8.74,24,15.39,15.39,0,0,1,6.4,19.1a.53.53,0,0,0-.14-.24,3.4,3.4,0,0,1-1-2.49V13.58a3.47,3.47,0,0,1,.63-2,.4.4,0,0,0,.1-.24c0-1.17,0-2.35,0-3.52A7.84,7.84,0,0,1,6.27,5,6.71,6.71,0,0,1,10.36.8a11.07,11.07,0,0,1,3.5-.75A15.91,15.91,0,0,1,17.7.21a8.33,8.33,0,0,1,4.53,2.14,6.4,6.4,0,0,1,2,4.33c.07,1.44,0,2.88,0,4.31a1.24,1.24,0,0,0,.22.77,3.08,3.08,0,0,1,.51,1.69c0,1.08,0,2.16,0,3.23a3.25,3.25,0,0,1-1.61,2.63.46.46,0,0,0-.21.26A16.63,16.63,0,0,1,20.7,24a.41.41,0,0,0-.08.27c0,.67,0,1.34,0,2a1.45,1.45,0,0,0,.8,1.39,1.19,1.19,0,0,1,.63,1.27,1.22,1.22,0,0,1-1,1,1.12,1.12,0,0,1-.82-.14,3.8,3.8,0,0,1-2.07-3.44C18.18,26,18.19,25.58,18.19,25.2Z"/><path class="cls-1" d="M31.1,27.33H28.21c-.33,0-.66,0-1,0a1.21,1.21,0,0,1-.09-2.42,2.54,2.54,0,0,1,.39,0h6.35a1.23,1.23,0,0,1,1.37,1.36v6.66a1.22,1.22,0,0,1-.8,1.16,1.2,1.2,0,0,1-1.34-.36,1.17,1.17,0,0,1-.28-.82V29.1a.33.33,0,0,0-.16.11l-7.33,7.37a1.25,1.25,0,0,1-1.78.23L19.8,34.54a.24.24,0,0,0-.33,0c-1.95,1.69-3.91,3.36-5.85,5a1.26,1.26,0,0,1-1.3.32,1.21,1.21,0,0,1-.4-2.07c.6-.54,1.22-1.06,1.83-1.58l4.84-4.18a1.25,1.25,0,0,1,1.32-.31,2.8,2.8,0,0,1,.3.15L24,34.23c.11.07.18.08.28,0C26.5,32,28.74,29.71,31,27.47Z"/></g></g></svg>