<svg id="Layer_1" data-name="Layer 1" xmlns="http://www.w3.org/2000/svg" viewBox="0 0 128 128">
  <g>
    <path d="M80,280V152H208V280Zm59.9981-14.06378.03267-.40023c1.49887,0,2.9978.00889,4.49661-.00142,10.82382-.0744,9.69348.96017,9.17137-9.31981a52.632,52.632,0,0,1,10.89742-35.8192,45.475,45.475,0,0,0,5.01007-8.61278c5.62287-12.33534,1.71022-27.47269-9.26229-36.4914a32.57523,32.57523,0,0,0-39.47409-1.363,32.03675,32.03675,0,0,0-11.893,36.27192c3.14319,9.07823,12.79793,14.92137,12.37075,25.63826,5.73622,3.95176,3.73639,10.10533,4.28583,15.47186.45408,4.43506-1.25838,10.72482,1.06875,12.90378C129.35012,266.69357,135.4172,265.52128,139.9981,265.93622Zm22.64069-21.74536c-3.8756,2.0246-3.80745,6.66582,1.13411,10.63554.03341,1.90862.03895,4.14841,1.1536,5.13455,1.67232,1.47949,4.12269,2.07953,6.2422,3.05356,2.00355.688,3.76744,2.36534,5.49277,2.32658,2.11025-.04742,4.18819-1.53339,6.05341-2.3037,2.31864-.90043,4.737-1.1914,6.08762-2.54653,1.34873-1.35323,1.62845-3.77193,2.37681-5.72353.803-2.049,2.52167-3.97192,2.47838-5.85432-.04757-2.06893-1.717-4.10057-2.69153-6.15341-.49955-1.75305-.47416-4.09231-1.62261-5.12071-1.68953-1.51292-4.21667-2.09045-6.387-3.06645-1.95151-.84666-3.75478-2.4229-5.46593-2.32857-2.104.116-4.13115,1.626-6.19152,2.53344-2.20862.75295-4.591,1.04361-5.87179,2.3856C164.09815,238.55555,163.83533,240.96591,162.63879,244.19086Zm-33.63218,24.901-.03871,2.01373c.27088.38561.531,1.09926.81423,1.10859,6.2815.20686,12.5656.38995,18.84906.3853.54977-.0004,1.09855-1.3306,1.6478-2.04314-.7912-.48128-1.5638-1.33788-2.37684-1.37816-3.31979-.16448-6.65195-.08181-9.97957-.0856Q133.46461,269.08747,129.00661,269.09182Z" transform="translate(-80 -152)" style="fill: #fff"/>
    <path d="M139.9981,265.93622c-4.5809-.41494-10.648.75735-13.29589-1.722-2.32713-2.179-.61467-8.46872-1.06875-12.90378-.54944-5.36653,1.45039-11.5201-4.28583-15.47186.42718-10.71689-9.22756-16.56-12.37075-25.63826a32.03675,32.03675,0,0,1,11.893-36.27192,32.57523,32.57523,0,0,1,39.47409,1.363c10.97251,9.01871,14.88516,24.15606,9.26229,36.4914a45.475,45.475,0,0,1-5.01007,8.61278,52.632,52.632,0,0,0-10.89742,35.8192c.52211,10.28,1.65245,9.24541-9.17137,9.31981-1.49881.01031-2.99774.00142-4.49661.00142Zm-2.07079-19.0147c0-5.93769-.13341-11.25265.08577-16.553.06135-1.48386,1.16154-2.92477,1.78519-4.38538.57688,1.53023,1.59247,3.04382,1.65127,4.59371.20511,5.40762.07937,10.8278.07937,16.30128h8.10247c1.71218-5.76452,2.78063-11.3766,5.05139-16.4506,2.357-5.26671,6.04413-9.92167,8.83006-15.01879a40.64356,40.64356,0,0,0,4.451-10.47123c2.5845-11.86447-3.69968-24.25566-14.75284-30.06535a29.04109,29.04109,0,0,0-34.08394,5.23609c-8.94377,9.022-11.04366,22.15167-4.55547,33.01245,6.37233,10.66686,14.15212,20.60573,14.307,33.80085Zm11.90445,14.99042V251.21931H129.415l-.638,1.51393c1.18169.66779,2.32443,1.811,3.5526,1.91163,3.30007.27038,6.64853-.06945,9.95349.16929,1.55132.11206,3.04675.99785,4.56751,1.533-1.59855.62975-3.16333,1.66923-4.80264,1.80434-3.46514.28558-6.97621-.01754-10.45214.19164-.81275.04891-1.56052,1.17741-2.33818,1.8092.805.58654,1.59814,1.6614,2.41706,1.68145C137.61358,261.97927,143.55768,261.91194,149.83176,261.91194Z" transform="translate(-80 -152)"/>
    <path d="M162.63879,244.19086c1.19654-3.22495,1.45936-5.63531,2.78852-7.02795,1.28081-1.342,3.66317-1.63265,5.87179-2.3856,2.06037-.90745,4.08751-2.41742,6.19152-2.53344,1.71115-.09433,3.51442,1.48191,5.46593,2.32857,2.17033.976,4.69747,1.55353,6.387,3.06645,1.14845,1.0284,1.12306,3.36766,1.62847,5.12319.96865,2.05036,2.6381,4.082,2.68567,6.15093.04329,1.8824-1.67534,3.80533-2.47838,5.85432-.74836,1.9516-1.02808,4.3703-2.37681,5.72353-1.35063,1.35513-3.769,1.6461-6.08762,2.54653-1.86522.77031-3.94316,2.25628-6.05341,2.3037-1.72533.03876-3.48922-1.63858-5.49277-2.32658-2.11951-.974-4.56988-1.57407-6.2422-3.05356-1.11465-.98614-1.12019-3.22593-1.1536-5.13455C158.83134,250.85668,158.76319,246.21546,162.63879,244.19086Zm22.67934,12.86759,3.43461-7.786-3.08923-8.646-8.19977-3.45688c-3.19374,1.178-6.14981,2.26833-8.503,3.13629-1.24959,2.91374-2.53833,5.91874-3.61466,8.42845,1.18068,2.82445,2.44506,5.84917,3.425,8.1934l8.14464,3.61539Z" transform="translate(-80 -152)"/>
    <path d="M129.00661,269.09182q4.458,0,8.916.00072c3.32762.00379,6.65978-.07888,9.97957.0856.813.04028,1.58564.89688,2.37684,1.37816-.54925.71254-1.098,2.04274-1.6478,2.04314-6.28346.00465-12.56756-.17844-18.84906-.3853-.28327-.00933-.54335-.723-.81423-1.10859Z" transform="translate(-80 -152)"/>
    <path d="M137.92731,246.92152h-9.04876c-.15489-13.19512-7.93468-23.134-14.307-33.80085-6.48819-10.86078-4.3883-23.99042,4.55547-33.01245a29.04109,29.04109,0,0,1,34.08394-5.23609c11.05316,5.80969,17.33734,18.20088,14.75284,30.06535a40.64356,40.64356,0,0,1-4.451,10.47123c-2.78593,5.09712-6.47306,9.75208-8.83006,15.01879-2.27076,5.074-3.33921,10.68608-5.05139,16.4506h-8.10247c0-5.47348.12574-10.89366-.07937-16.30128-.0588-1.54989-1.07439-3.06348-1.65127-4.59371-.62365,1.46061-1.72384,2.90152-1.78519,4.38538C137.7939,235.66887,137.92731,240.98383,137.92731,246.92152Zm-10.6796-28.13437c3.00777-.21627,5.70349-4.96027,6.86124.40668.76747,3.5578,3.06932,2.97187,5.25046,2.86619,2.34663-.1137,5.66727,1.34307,5.926-3.19224.03277-.57439,3.0424-1.79753,3.48372-1.4,3.40741,3.06939,4.68072-.398,6.41437-1.94455,1.75448-1.56512,4.31047-3.10587,1.4625-6.07084-.34177-.35582.8699-3.28605,1.54384-3.35991,4.44318-.487,2.90843-3.77865,3.04016-6.10961.12217-2.16189.79115-4.8342-2.96069-5.166-.60522-.05352-1.8084-3.14866-1.3605-3.68086,2.48942-2.9579-.0832-4.29032-1.64654-5.68785-1.7024-1.52184-2.909-5.11172-6.38525-2.07919-.56463.49255-3.42415-.34835-3.46237-.74327-.61983-6.405-6.52867-4.51428-8.23463-3.44436-3.42634,2.14888-5.85114,4.861-10.66863,4.10723-1.918-.30011-4.35032,2.68647-6.54849,4.1768,2.83762,4.10289,6.16831,7.14356-.24165,7.88973-.72813.08476-1.59181,2.96244-1.56945,4.53335.02783,1.95568.72154,5.511,1.45451,5.59723,6.90775.81253,2.53007,4.28882,1.63949,6.81719Z" transform="translate(-80 -152)" style="fill: #fff"/>
    <path d="M149.83176,261.91194c-6.27408,0-12.21818.06733-18.15707-.07815-.81892-.02005-1.612-1.09491-2.41706-1.68145.77766-.63179,1.52543-1.76029,2.33818-1.8092,3.47593-.20918,6.987.09394,10.45214-.19164,1.63931-.13511,3.20409-1.17459,4.80264-1.80434-1.52076-.53515-3.01619-1.42094-4.56751-1.533-3.305-.23874-6.65342.10109-9.95349-.16929-1.22817-.10062-2.37091-1.24384-3.5526-1.91163l.638-1.51393h20.41675Z" transform="translate(-80 -152)" style="fill: #fff"/>
    <path d="M185.31813,257.05845l-8.40246,3.48462-8.14464-3.61539c-.97992-2.34423-2.2443-5.369-3.425-8.1934,1.07633-2.50971,2.36507-5.51471,3.61466-8.42845,2.35322-.868,5.30929-1.9583,8.503-3.13629l8.19977,3.45688,3.08923,8.646Zm-8.31686-14.21331c-3.39524.47-5.77308,2.38412-5.71489,6.03166a5.50095,5.50095,0,0,0,6.05173,5.78477,5.42122,5.42122,0,0,0,5.62773-5.68758C183.03217,245.25106,180.80544,243.33355,177.00127,242.84514Z" transform="translate(-80 -152)" style="fill: #fff"/>
    <path d="M127.24771,218.78715l-6.00188-6.48425c.89058-2.52837,5.26826-6.00466-1.63949-6.81719-.733-.08621-1.42668-3.64155-1.45451-5.59723-.02236-1.57091.84132-4.44859,1.56945-4.53335,6.41-.74617,3.07927-3.78684.24165-7.88973,2.19817-1.49033,4.63045-4.47691,6.54849-4.1768,4.81749.75377,7.24229-1.95835,10.66863-4.10723,1.706-1.06992,7.6148-2.9606,8.23463,3.44436.03822.39492,2.89774,1.23582,3.46237.74327,3.47627-3.03253,4.68285.55735,6.38525,2.07919,1.56334,1.39753,4.136,2.73,1.64654,5.68785-.4479.5322.75528,3.62734,1.3605,3.68086,3.75184.33177,3.08286,3.00408,2.96069,5.166-.13173,2.331,1.403,5.62264-3.04016,6.10961-.67394.07386-1.88561,3.00409-1.54384,3.35991,2.848,2.965.292,4.50572-1.4625,6.07084-1.73365,1.54654-3.007,5.01394-6.41437,1.94455-.44132-.39753-3.451.82561-3.48372,1.4-.25876,4.53531-3.5794,3.07854-5.926,3.19224-2.18114.10568-4.483.69161-5.25046-2.86619C132.9512,213.82688,130.25548,218.57088,127.24771,218.78715Zm4.57979-6.73408a76.16475,76.16475,0,0,0,6.15641,4.84531c.87654.56878,3.12648.74192,3.34473.33705,2.09475-3.886,4.97786-5.05325,9.18445-3.69321.4817.15574,2.38973-1.78352,2.22518-2.312-1.32068-4.24121-.02237-7.09617,3.78118-9.228.46782-.2622.459-2.82788-.02176-3.09935-3.80815-2.15053-5.0665-5.03286-3.76368-9.26586.16-.5198-1.758-2.4407-2.25551-2.28161-4.24114,1.35607-7.10084.09923-9.201-3.76613-.26-.47857-2.89961-.47961-3.129-.0319-2.03917,3.97925-5.0088,5.00273-9.19494,3.848-.47984-.13235-2.32016,1.94788-2.12411,2.52343,1.33607,3.92217-.317,6.70823-3.30969,8.62081-2.20956,1.41208-2.63443,2.19027-.2768,3.65086,3.34611,2.073,4.9994,4.75928,3.49479,8.87718-.17509.4792,1.43012,1.82912,2.42542,2.39916C129.52337,213.68323,130.51523,212.78663,131.8275,212.05307Z" transform="translate(-80 -152)"/>
    <path d="M177.00127,242.84514c3.80417.48841,6.0309,2.40592,5.96457,6.12885a5.42122,5.42122,0,0,1-5.62773,5.68758,5.50095,5.50095,0,0,1-6.05173-5.78477C171.22819,245.22926,173.606,243.31509,177.00127,242.84514Z" transform="translate(-80 -152)"/>
    <path d="M131.8275,212.05307c-1.31227.73356-2.30413,1.63016-2.66435,1.42386-.9953-.57-2.60051-1.92-2.42542-2.39916,1.50461-4.1179-.14868-6.80418-3.49479-8.87718-2.35763-1.46059-1.93276-2.23878.2768-3.65086,2.99272-1.91258,4.64576-4.69864,3.30969-8.62081-.196-.57555,1.64427-2.65578,2.12411-2.52343,4.18614,1.15468,7.15577.1312,9.19494-3.848.22943-.44771,2.869-.44667,3.129.0319,2.10014,3.86536,4.95984,5.1222,9.201,3.76613.49755-.15909,2.41548,1.76181,2.25551,2.28161-1.30282,4.233-.04447,7.11533,3.76368,9.26586.48073.27147.48958,2.83715.02176,3.09935-3.80355,2.1318-5.10186,4.98676-3.78118,9.228.16455.52844-1.74348,2.4677-2.22518,2.312-4.20659-1.36-7.0897-.19275-9.18445,3.69321-.21825.40487-2.46819.23173-3.34473-.33705A76.16475,76.16475,0,0,1,131.8275,212.05307Zm7.65483-2.64522a9.12986,9.12986,0,0,0,9.26669-8.614,9.26758,9.26758,0,0,0-9.04961-9.392,9.03663,9.03663,0,0,0-8.92028,8.92572A8.88419,8.88419,0,0,0,139.48233,209.40785Z" transform="translate(-80 -152)" style="fill: #fff"/>
    <path d="M139.48233,209.40785a8.88419,8.88419,0,0,1-8.7032-9.08022,9.03663,9.03663,0,0,1,8.92028-8.92572,9.26758,9.26758,0,0,1,9.04961,9.392A9.12986,9.12986,0,0,1,139.48233,209.40785Zm6.34885-7.72.036-2.287c-2.02667-1.44468-3.90106-3.73293-6.11634-4.13284-3.18339-.5747-5.30553,1.89914-5.36752,5.09431-.06245,3.21817,2.05409,5.71774,5.2018,5.28235C141.80706,205.3373,143.7588,203.07652,145.83118,201.68786Z" transform="translate(-80 -152)"/>
    <path d="M145.83118,201.68786c-2.07238,1.38866-4.02412,3.64944-6.24606,3.95679-3.14771.43539-5.26425-2.06418-5.2018-5.28235.062-3.19517,2.18413-5.669,5.36752-5.09431,2.21528.39991,4.08967,2.68816,6.11634,4.13284Z" transform="translate(-80 -152)" style="fill: #fff"/>
  </g>
</svg>
