<svg id="Layer_1" data-name="Layer 1" xmlns="http://www.w3.org/2000/svg" viewBox="0 0 48 48">
  <g>
    <path d="M167.36319,240H120V192h47.36319ZM168,201.05805c-2.21876-2.57643-3.85469-5.49313-6.3247-7.09-3.176-2.0533-6.50731-.88075-9.52767,1.555-6.84145,5.51727-10.96992,13.6684-18.32629,18.74062-3.21141,2.21427-5.6729,5.549-8.44669,8.403-4.45122,4.57988-4.92467,9.91722-1.24108,13.635,3.75742,3.79226,8.56008,3.01034,13.51478-1.167,6.04615-5.09751,9.76244-12.356,16.43926-16.9136,3.75246-2.56143,6.73869-6.36455,9.771-9.87276C165.38287,206.58479,166.23913,204.23066,168,201.05805Z" transform="translate(-120 -192)" style="fill: #fff"/>
    <path d="M168,201.05805c-1.76087,3.17261-2.61713,5.52674-4.14138,7.2902-3.03232,3.50821-6.01855,7.31133-9.771,9.87276-6.67682,4.55758-10.39311,11.81609-16.43926,16.9136-4.9547,4.17732-9.75736,4.95924-13.51478,1.167-3.68359-3.71775-3.21014-9.05509,1.24108-13.635,2.77379-2.854,5.23528-6.18869,8.44669-8.403,7.35637-5.07222,11.48484-13.22335,18.32629-18.74062,3.02036-2.43576,6.35168-3.60831,9.52767-1.555C164.14531,195.56492,165.78124,198.48162,168,201.05805Zm-18.64545,17.86268c4.47354-4.54188,8.59065-8.619,12.58582-12.81485,2.59433-2.72464,2.63709-5.81024-.00587-8.41392-2.53409-2.49643-5.427-2.13258-7.92769.31013a125.41061,125.41061,0,0,0-9.368,9.62744c-1.3613,1.6505-1.737,4.13259-3.01037,7.39373C147.76531,211.76718,147.94207,215.86885,149.35455,218.92073Zm-10.38738-6.21338c-4.50442,4.72965-8.52138,8.89561-12.47708,13.12026-2.40491,2.56842-2.57153,5.5216-.26549,8.05845,2.53623,2.79009,5.56636,2.62432,8.26368-.00092,3.20367-3.11805,6.48523-6.18927,9.36045-9.60193,1.32339-1.57077,1.75987-3.906,3.01629-6.88518C140.881,220.2959,140.56943,216.24945,138.96717,212.70735Z" transform="translate(-120 -192)"/>
    <path d="M149.35455,218.92073c-1.41248-3.05188-1.58924-7.15355-7.7261-3.89747,1.27334-3.26114,1.64907-5.74323,3.01037-7.39373a125.41061,125.41061,0,0,1,9.368-9.62744c2.50071-2.44271,5.3936-2.80656,7.92769-.31013,2.643,2.60368,2.6002,5.68928.00587,8.41392C157.9452,210.30176,153.82809,214.37885,149.35455,218.92073Z" transform="translate(-120 -192)" style="fill: #fff"/>
    <path d="M138.96717,212.70735c1.60226,3.5421,1.91383,7.58855,7.89785,4.69068-1.25642,2.9792-1.6929,5.31441-3.01629,6.88518-2.87522,3.41266-6.15678,6.48388-9.36045,9.60193-2.69732,2.62524-5.72745,2.791-8.26368.00092-2.306-2.53685-2.13942-5.49.26549-8.05845C130.44579,221.603,134.46275,217.437,138.96717,212.70735Z" transform="translate(-120 -192)" style="fill: #fff"/>
  </g>
</svg>
