<svg id="Layer_1" data-name="Layer 1" xmlns="http://www.w3.org/2000/svg" viewBox="0 0 128 128">
  <g>
    <path d="M80,152H208V280H80Zm63.44855,59.8325h39.935c13.95309,0,14.40579-.58594,11.09989-14.36616-6.1835-25.77513-28.79173-42.27458-55.36971-40.40875-25.17678,1.76746-45.1591,22.19167-47.34937,48.39647-.48107,5.75561.034,6.36312,5.759,6.371Q120.48594,211.85648,143.44855,211.8325Zm.96493,40.00114c-15.81442,0-31.62979.09408-47.44254-.06827-3.80129-.039-4.96042,1.4136-4.83732,4.99458a18.61009,18.61009,0,0,0,18.68759,18.21827q33.45965.10425,66.91983.0047c10.30645-.0249,17.85318-7.29528,18.73143-17.59941.33566-3.93816-.69778-5.70177-5.11644-5.63809C175.71134,251.97091,160.06142,251.8333,144.41348,251.83364Zm23.45526-27.67856c7.15669,0,14.31732.11984,21.46627-.11544,1.2222-.04023,2.39447-1.59792,3.5898-2.4546a18.61915,18.61915,0,0,0-3.5861-2.49825c-1.0016-.40572-2.29763-.08649-3.46267-.0865-29.12619-.00037-58.25257-.04395-87.37823.08073-2.389.01022-6.70541-1.83046-6.58,2.68493.10931,3.93618,4.24278,2.5206,6.48482,2.28988,12.67366-1.30424,24.01775.25049,31.70752,12.09131,1.91426,2.94761,4.809,2.64179,6.27129-.52785,4.99311-10.82253,13.77819-13.02669,24.50379-11.4992A48.17576,48.17576,0,0,0,167.86874,224.15508ZM174.885,250.623c7.37867-.56134,11.51919-5.87866,16.3774-9.76591.887-.70971.70758-2.75211,1.02044-4.17931-1.4957.08015-3.26383-.31828-4.428.34436-2.14039,1.21835-3.90612,3.08533-5.86211,4.639-4.90133,3.89322-7.93163,4.14042-13.10323.67719-6.27161-4.19988-12.39775-4.29263-18.53728.13677-3.99846,2.88472-7.96123,2.93431-11.98591.03307-6.12082-4.41227-12.25266-4.44008-18.5261-.17139-5.05737,3.44123-8.19631,3.20035-13.12369-.65312a81.63,81.63,0,0,0-6.68867-5.21443,4.056,4.056,0,0,0-3.52818.32164c-.488.30048-.49706,2.26308-.03391,3.089a19.10777,19.10777,0,0,0,26.83644,6.55561c3.95547-2.47935,7.8185-2.61927,11.63016.154,6.12885,4.45923,12.35771,4.61989,18.50615.24942,4.44812-3.16184,8.4761-2.72387,12.90388.14374C168.90218,248.64043,172.01894,249.43816,174.885,250.623Z" transform="translate(-80 -152)" style="fill: #fff"/>
    <path d="M143.44855,211.83233q-22.96259-.00024-45.92517-.00731c-5.725-.00784-6.24011-.61535-5.759-6.371,2.19027-26.2048,22.17259-46.629,47.34937-48.39647,26.578-1.86583,49.18621,14.63362,55.36971,40.40875,3.3059,13.78022,2.8532,14.36615-11.09989,14.36616Q163.416,211.8325,143.44855,211.83233Zm46.94363-5.54322c-1.69046-17.40553-9.60671-30.25786-24.35414-38.22347-17.04592-9.20711-34.03528-8.02559-49.84221,3.21594-11.8296,8.41294-18.08337,20.1663-19.24805,35.00753Z" transform="translate(-80 -152)"/>
    <path d="M144.41348,251.83347c15.64794-.00017,31.29786.13744,46.94255-.08805,4.41866-.06368,5.4521,1.69993,5.11644,5.63809-.87825,10.30413-8.425,17.57451-18.73143,17.59941q-33.45978.08082-66.91983-.0047A18.61009,18.61009,0,0,1,92.13362,256.76c-.1231-3.581,1.036-5.03359,4.83732-4.99458C112.78369,251.92772,128.59906,251.83364,144.41348,251.83347Zm46.40447,5.34011H98.126c.04752,6.81765,4.75165,12.42141,11.66586,12.50823q34.45707.43266,68.92247.0416C185.50289,269.65639,190.08976,264.49377,190.818,257.17358Z" transform="translate(-80 -152)"/>
    <path d="M167.86874,224.16129a49.07,49.07,0,0,1-6.98353-.0412c-10.7256-1.52749-19.51068.67667-24.50379,11.4992-1.46234,3.16964-4.357,3.47546-6.27129.52785-7.68977-11.84082-19.03386-13.39555-31.70752-12.09131-2.242.23072-6.37551,1.6463-6.48482-2.28988-.12539-4.51539,4.191-2.67471,6.58-2.68493,29.12566-.12468,58.252-.0811,87.37823-.08073,1.165,0,2.46107-.31922,3.46267.0865a18.61915,18.61915,0,0,1,3.5861,2.49825c-1.19533.85668-2.3676,2.41437-3.5898,2.4546C182.18606,224.27492,175.02543,224.15508,167.86874,224.16129Zm-29.72164.25451h-11.68l6.94783,6.27582C134.60561,229.11253,136.058,227.18634,138.1471,224.4158Z" transform="translate(-80 -152)"/>
    <path d="M174.885,250.623c-2.86607-1.18481-5.98283-1.98254-8.54258-3.64033-4.42778-2.86761-8.45576-3.30558-12.90388-.14374-6.14844,4.37047-12.3773,4.20981-18.50615-.24942-3.81166-2.7733-7.67469-2.63338-11.63016-.154a19.10777,19.10777,0,0,1-26.83644-6.55561c-.46315-.8259-.45412-2.7885.03391-3.089a4.056,4.056,0,0,1,3.52818-.32164,81.63,81.63,0,0,1,6.68867,5.21443c4.92738,3.85347,8.06632,4.09435,13.12369.65312,6.27344-4.26869,12.40528-4.24088,18.5261.17139,4.02468,2.90124,7.98745,2.85165,11.98591-.03307,6.13953-4.4294,12.26567-4.33665,18.53728-.13677,5.1716,3.46323,8.2019,3.216,13.10323-.67719,1.956-1.55369,3.72172-3.42067,5.86211-4.639,1.16414-.66264,2.93227-.26421,4.428-.34436-.31286,1.4272-.13349,3.4696-1.02044,4.17931C186.4042,244.74431,182.26368,250.06163,174.885,250.623Z" transform="translate(-80 -152)"/>
    <path d="M190.39218,206.28911H96.94778c1.16468-14.84123,7.41845-26.59459,19.24805-35.00753,15.80693-11.24153,32.79629-12.423,49.84221-3.21594C180.78547,176.03125,188.70172,188.88358,190.39218,206.28911Z" transform="translate(-80 -152)" style="fill: #fff"/>
    <path d="M190.818,257.17358c-.72819,7.32019-5.31506,12.48281-12.10358,12.54983q-34.45887.34022-68.92247-.0416c-6.91421-.08682-11.61834-5.69058-11.66586-12.50823Z" transform="translate(-80 -152)" style="fill: #fff"/>
    <path d="M138.1471,224.4158c-2.08907,2.77054-3.54149,4.69673-4.73218,6.27582l-6.94783-6.27582Z" transform="translate(-80 -152)" style="fill: #fff"/>
  </g>
</svg>
