<svg id="Layer_1" data-name="Layer 1" xmlns="http://www.w3.org/2000/svg" viewBox="0 0 102.4 102.4">
  <g>
    <path d="M93.169,261.81364V165h49.13429c-.3979,4.60822-.90513,9.2125-1.0712,13.82908-.02383.66257,1.64229,1.98716,2.448,1.92838,1.037-.07567,2.86584-1.26335,2.84678-1.92877-.13222-4.61585-.65568-9.22047-1.05358-13.82869H195.4V267.36852q-49.72866,0-99.4573.01855c-1.72828.00131-3.50529.32911-2.77372-2.39921,1.96054.528,3.91931,1.508,5.88187,1.51564,26.13292.1023,52.26638.06853,78.3997.06822,4.35555,0,8.71113.007,13.06664-.00623,3.30509-.01,4.55766-1.6,3.71-4.83918-.70131-2.68-1.43039-5.35711-1.99658-8.06705-1.07913-5.165-1.69137-10.70766-9.64458-8.837,0-3.03484-.0451-5.5273.0081-8.01765.19217-8.99512-.97573-7.65957-7.04506-8.12471-.21136-.01619-.40436-.27247-.63341-.43655-.24431-5.2497-.23488-10.536-.78157-15.76395a30.42508,30.42508,0,0,0-60.47884-.12858c-.55052,5.35316-.56181,10.7619-.8222,16.2046a15.27754,15.27754,0,0,1-1.64361.29579c-5.8931.38668-5.98515.47428-5.99762,6.23811-.00675,3.11962-.0012,6.23925-.0012,9.27866-7.51861.95886-7.49082.96614-9.33147,8.01122C95.03273,255.54244,94.06992,258.66993,93.169,261.81364Zm29.3508-75.63191c-.05292-.20958-.0269-.70756-.26276-.94878-2.74143-2.80377-5.43432-5.669-8.37065-8.25553a3.15725,3.15725,0,0,0-3.10079.39415c-.66072.80283-1.07127,2.82693-.55508,3.41488a68.29261,68.29261,0,0,0,8.37295,8.24637C120.25394,190.3601,122.62874,188.54266,122.51978,186.18173Zm45.77308,3.25625c.23876-.08165.70633-.1044.95991-.34931,2.8227-2.72605,5.73124-5.382,8.30964-8.32647.51016-.58259.1155-2.76011-.58653-3.38238a3.54006,3.54006,0,0,0-3.45169-.19414,63.20828,63.20828,0,0,0-7.7767,7.77191C164.23774,186.79288,165.87839,189.50091,168.29286,189.438Z" transform="translate(-93 -165)" style="fill: #fff"/>
    <path d="M93.169,261.81364c.90094-3.14371,1.86375-6.2712,2.6902-9.43443,1.84065-7.04508,1.81286-7.05236,9.33147-8.01122,0-3.03941-.00555-6.159.0012-9.27866.01247-5.76383.10452-5.85143,5.99762-6.23811a15.27754,15.27754,0,0,0,1.64361-.29579c.26039-5.4427.27168-10.85144.8222-16.2046a30.42508,30.42508,0,0,1,60.47884.12858c.54669,5.228.53726,10.51425.78157,15.76395.22905.16408.422.42036.63341.43655,6.06933.46514,7.23723-.87041,7.04506,8.12471-.0532,2.49035-.0081,4.98281-.0081,8.01765,7.95321-1.87067,8.56545,3.672,9.64458,8.837.56619,2.70994,1.29527,5.3871,1.99658,8.06705.84763,3.23916-.40494,4.82915-3.71,4.83918-4.35551.01322-8.71109.00619-13.06664.00623-26.13332.00031-52.26678.03408-78.3997-.06822-1.96256-.00767-3.92133-.98765-5.88187-1.51564Zm47.683-33.17275c0-2.57426-.10228-4.92747.03075-7.26727a3.98292,3.98292,0,0,0-2.45921-4.31391A10.46811,10.46811,0,0,1,133.519,204.8208a10.75634,10.75634,0,0,1,20.78262.189c1.30515,4.73967-.67092,9.41057-5.054,12.25456-.89192.57874-2.11715,1.48382-2.19382,2.329-.26926,2.96814-.10453,5.97576-.10453,8.99577h21.51709c0-5.02184.29679-9.77679-.06173-14.48168-.7485-9.82259-5.88039-16.90451-14.82011-20.79237-8.82635-3.83855-17.33258-2.57643-24.97547,3.31755-10.828,8.35024-9.75716,20.13976-9.19684,32.00832Zm46.7831,31.7228a47.91751,47.91751,0,0,1-1.16548-5.44035c-.31974-3.46459-2.05594-4.3669-5.45617-4.30888-12.66915.2162-25.34419.0863-38.017.08632-12.40884,0-24.818-.03788-37.22606.059-1.23614.00965-3.22454.53041-3.557,1.34729-1.01718,2.499-1.39682,5.25822-2.10483,8.2566Zm-11.31079-25.307H111.58064v9.41916H176.3243Zm-28.10638-25.08224c.99-1.51163,1.00872-3.78857-1.14992-5.72355a4.39447,4.39447,0,0,0-6.38668.03712c-2.033,1.91034-2.336,4.17233-.93258,5.8255l4.15633-5.15949Z" transform="translate(-93 -165)"/>
    <path d="M145.47322,165c.3979,4.60822.92136,9.21284,1.05358,13.82869.01906.66542-1.80978,1.8531-2.84678,1.92877-.80566.05878-2.47178-1.26581-2.448-1.92838.16607-4.61658.6733-9.22086,1.0712-13.82908Z" transform="translate(-93 -165)"/>
    <path d="M122.51978,186.18173c.109,2.36093-2.26584,4.17837-3.91633,2.85109a68.29261,68.29261,0,0,1-8.37295-8.24637c-.51619-.588-.10564-2.61205.55508-3.41488a3.15725,3.15725,0,0,1,3.10079-.39415c2.93633,2.5865,5.62922,5.45176,8.37065,8.25553C122.49288,185.47417,122.46686,185.97215,122.51978,186.18173Z" transform="translate(-93 -165)"/>
    <path d="M168.29286,189.438c-2.41447.06293-4.05512-2.6451-2.54537-4.48039a63.20828,63.20828,0,0,1,7.7767-7.77191,3.54006,3.54006,0,0,1,3.45169.19414c.702.62227,1.09669,2.79979.58653,3.38238-2.5784,2.94443-5.48694,5.60042-8.30964,8.32647C168.99919,189.33358,168.53162,189.35633,168.29286,189.438Z" transform="translate(-93 -165)"/>
    <path d="M140.852,228.64089H119.41228c-.56032-11.86856-1.63115-23.65808,9.19684-32.00832,7.64289-5.894,16.14912-7.1561,24.97547-3.31755,8.93972,3.88786,14.07161,10.96978,14.82011,20.79237.35852,4.70489.06173,9.45984.06173,14.48168H146.94934c0-3.02-.16473-6.02763.10453-8.99577.07667-.84514,1.3019-1.75022,2.19382-2.329,4.383-2.844,6.35912-7.51489,5.054-12.25456a10.75634,10.75634,0,0,0-20.78262-.189,10.46811,10.46811,0,0,0,4.90449,12.23891,3.98292,3.98292,0,0,1,2.45921,4.31391C140.74971,223.71342,140.852,226.06663,140.852,228.64089Z" transform="translate(-93 -165)" style="fill: #fff"/>
    <path d="M187.63509,260.36369H100.10848c.708-2.99838,1.08765-5.75759,2.10483-8.2566.3325-.81688,2.3209-1.33764,3.557-1.34729,12.40809-.0969,24.81722-.059,37.22606-.059,12.67284,0,25.34788.12988,38.017-.08632,3.40023-.058,5.13643.84429,5.45617,4.30888A47.91751,47.91751,0,0,0,187.63509,260.36369Z" transform="translate(-93 -165)" style="fill: #fff"/>
    <path d="M176.3243,235.05667v9.41916H111.58064v-9.41916Z" transform="translate(-93 -165)" style="fill: #fff"/>
    <path d="M148.21792,209.97443l-4.31285-5.02042-4.15633,5.15949c-1.40345-1.65317-1.10038-3.91516.93258-5.8255a4.39447,4.39447,0,0,1,6.38668-.03712C149.22664,206.18586,149.20791,208.4628,148.21792,209.97443Z" transform="translate(-93 -165)" style="fill: #fff"/>
  </g>
</svg>
