<svg xmlns="http://www.w3.org/2000/svg" viewBox="0 0 36.83 40"><g data-name="Layer 2"><g><path d="M33.65,30.38v8l.33,0h1.8c.67,0,1,.28,1,.78s-.37.8-1,.8H5.68A5.6,5.6,0,0,1,.13,35.53,6.34,6.34,0,0,1,0,34.3V5A4.77,4.77,0,0,1,4,.08,5.87,5.87,0,0,1,5.09,0H32.62c.74,0,.94.2,1,.92q.55,4.86,1.1,9.74c.36,3.25.71,6.49,1.07,9.74.33,3,.67,6,1,9a.8.8,0,0,1-.89,1C35.19,30.39,34.44,30.38,33.65,30.38ZM5.58,1.55V26.27a.82.82,0,0,1-.8.91A.8.8,0,0,1,4,26.29V1.66A3.17,3.17,0,0,0,1.58,4.84V30c0,.13,0,.25,0,.44.21-.15.37-.26.52-.39a5.26,5.26,0,0,1,3.46-1.27q14.56,0,29.13,0h.46c-1-9.12-2-18.18-3-27.26ZM32,30.38H5.52A3.78,3.78,0,0,0,2,32.56a3.79,3.79,0,0,0,.24,4.09,3.94,3.94,0,0,0,3.48,1.78H32Z"/><path d="M17.18,35H4.84a.79.79,0,1,1,0-1.57H29.45c.6,0,1,.29,1,.77s-.37.8-1,.8H17.18Z"/></g></g></svg>