<svg xmlns="http://www.w3.org/2000/svg" viewBox="0 0 25.88 38.59"><g data-name="Layer 2"><g data-name="22-bookmarks"><path d="M25.49,1A2.33,2.33,0,0,0,24.42.18,2.25,2.25,0,0,0,23.53,0H2.35a2.25,2.25,0,0,0-.89.18A2.33,2.33,0,0,0,.39,1,2.17,2.17,0,0,0,0,2.26V36.33a2.17,2.17,0,0,0,.39,1.25,2.33,2.33,0,0,0,1.07.83,2.25,2.25,0,0,0,.89.18A2.37,2.37,0,0,0,4,37.92l8.92-8.57,8.92,8.57a2.4,2.4,0,0,0,1.67.65,2.21,2.21,0,0,0,.89-.16,2.33,2.33,0,0,0,1.07-.83,2.17,2.17,0,0,0,.39-1.25V2.26A2.17,2.17,0,0,0,25.49,1ZM23.29,35.7l-8.55-8.21-1.8-1.72-1.8,1.72L2.59,35.7V2.59h20.7V35.7Z"/></g></g></svg>