<svg id="Layer_1" data-name="Layer 1" xmlns="http://www.w3.org/2000/svg" viewBox="0 0 128 128">
  <g>
    <path d="M80,280V152H208V280Zm29.988-98.03576c0,12.704.13236,24.69735-.07982,36.68459-.06453,3.64545,1.24273,5.31063,4.73222,5.31291q32.95173.02151,65.9035-.0175c3.339-.00321,4.5481-1.65632,4.429-5.04626-.39185-11.15609-.4233-22.32488-.81881-33.4808-.14727-4.15385,1.68381-4.20426,4.9304-3.28717,0,4.17229.05507,7.99095-.0176,11.80717-.05708,2.99809.46655,5.25516,4.22789,5.33541,4.08452.08714,4.56515-2.35825,4.49672-5.54694-.08583-3.9984.14992-8.01088-.10312-11.995-.10407-1.63874-.78461-4.27036-1.79612-4.59348-1.74911-.55874-3.99276.19416-5.96943.65318-1.84346.42809-3.60946,1.18976-6.18792,2.07045,1.17167-6.93107-2.61235-9.36164-6.97037-11.08863-19.45137-7.70817-38.97045-7.659-58.44711-.08519-4.54753,1.7684-8.34772,4.33564-7.1836,11.27231-2.58436-.8912-4.25428-1.59441-5.99111-2.03229-1.96792-.49613-4.283-1.49472-5.90094-.867-1.16115.45047-1.87087,3.1808-1.99909,4.95075-.28828,3.97933-.03079,7.99507-.10854,11.99379-.05831,2.9987.43238,5.28365,4.2192,5.30726,3.63965.0227,4.52362-1.95921,4.45557-5.10871-.07915-3.66324.01534-7.331.089-10.99576a5.22225,5.22225,0,0,1,.64178-1.52556Zm74.78689,46.11651H110.21846a31.00557,31.00557,0,0,0,.02405,4.02055c1.34855,11.21468,2.70619,22.42919,4.24241,33.61884a4.295,4.295,0,0,0,2.3867,2.78679c7.54849,2.86089,12.311-.3068,12.58407-8.14239a20.71386,20.71386,0,0,1,.48316-2.8391h35.02456c.11743,1.172.25038,1.99073.274,2.81259.24389,8.49836.239,8.501,8.71154,8.45173a9.88317,9.88317,0,0,0,3.46465-.16174c1.10348-.44554,2.535-1.35886,2.81268-2.35113,1.30419-4.66094,2.753-9.36991,3.2315-14.15363C184.26681,244.03461,184.38367,235.87672,184.77487,228.08075Z" transform="translate(-80 -152)" style="fill: #fff"/>
    <path d="M109.988,181.96424l-3.44829-.28254a5.22225,5.22225,0,0,0-.64178,1.52556c-.07365,3.66472-.16814,7.33252-.089,10.99576.068,3.1495-.81592,5.13141-4.45557,5.10871-3.78682-.02361-4.27751-2.30856-4.2192-5.30726.07775-3.99872-.17974-8.01446.10854-11.99379.12822-1.76995.83794-4.50028,1.99909-4.95075,1.618-.6277,3.933.37089,5.90094.867,1.73683.43788,3.40675,1.14109,5.99111,2.03229-1.16412-6.93667,2.63607-9.50391,7.1836-11.27231,19.47666-7.57385,38.99574-7.623,58.44711.08519,4.358,1.727,8.142,4.15756,6.97037,11.08863,2.57846-.88069,4.34446-1.64236,6.18792-2.07045,1.97667-.459,4.22032-1.21192,5.96943-.65318,1.01151.32312,1.692,2.95474,1.79612,4.59348.253,3.98417.01729,7.99665.10312,11.995.06843,3.18869-.4122,5.63408-4.49672,5.54694-3.76134-.08025-4.285-2.33732-4.22789-5.33541.07267-3.81622.0176-7.63488.0176-11.80717-3.24659-.91709-5.07767-.86668-4.9304,3.28717.39551,11.15592.427,22.32471.81881,33.4808.11908,3.38994-1.09,5.04305-4.429,5.04626q-32.95174.03168-65.9035.0175c-3.48949-.00228-4.79675-1.66746-4.73222-5.31291C110.12034,206.66159,109.988,194.66826,109.988,181.96424Zm35.87732-5.57664c-9.66676,0-19.1258-.16252-28.56435.20345-1.19444.04632-3.15708,2.80717-3.262,4.40877-.39144,5.97449-.15749,11.99-.15775,17.99007-.00028,6.43721-.00006,12.87442-.00006,19.18931,6.82532,1.45362,8.87977-4.07679,12.369-6.98145,3.699-3.07925,8.0734-6.16515,10.04646-10.26247,1.8591-3.86065.976-9.04178,1.29933-13.642l1.149.08184v24.25625l-1.29494.07915-.5937-8.967L123.104,217.76485h22.7613Zm10.07464,10.851,1.33.009a5.92522,5.92522,0,0,1,.4757,2.21872c-1.91732,9.27626,2.74488,15.43089,9.58676,20.62737,1.18529.90025,2.02246,2.31389,3.277,3.05727,3.40943,2.02019,6.95653,3.808,11.22435,6.10531,0-13.81731.12547-26.13641-.15993-38.446-.03538-1.52652-2.2054-4.25292-3.46915-4.3023-9.4055-.3675-18.83191-.19948-28.34409-.19948v40.90585l17.59177-4.166c-2.93995-3.14991-5.89124-6.31195-9.25694-9.918-.365,3.52834-.63811,6.16875-.91125,8.80916l-1.34429-.10707Z" transform="translate(-80 -152)"/>
    <path d="M184.77487,228.08075c-.3912,7.796-.50806,15.95386-1.31713,24.04251-.4785,4.78372-1.92731,9.49269-3.2315,14.15363-.27766.99227-1.7092,1.90559-2.81268,2.35113a9.88317,9.88317,0,0,1-3.46465.16174c-8.47254.04928-8.46765.04663-8.71154-8.45173-.02358-.82186-.15653-1.64058-.274-2.81259H129.93885a20.71386,20.71386,0,0,0-.48316,2.8391c-.27306,7.83559-5.03558,11.00328-12.58407,8.14239a4.295,4.295,0,0,1-2.3867-2.78679c-1.53622-11.18965-2.89386-22.40416-4.24241-33.61884a31.00557,31.00557,0,0,1-.02405-4.02055Zm-58.6746,20.10451c6.50142.3469,8.16764-.74352,7.50958-4.62167-.68086-4.01246-3.93712-3.72824-6.63274-3.42174-3.10828.35343-8.27208-3.00831-8.73955,3.06012C117.779,249.15482,123.10628,247.6563,126.10027,248.18526Zm40.52152.16458c2.932-.1892,5.07475.25652,6.46467-.56751,1.673-.99189,2.70606-3.06317,4.01616-4.66717-1.49817-1.09565-2.8595-2.58712-4.53606-3.16677-1.44628-.5-3.25073.05747-4.898.1125-3.03886.10152-6.31071-.01972-6.26027,4.35489C161.46044,248.93805,164.628,248.61648,166.62179,248.34984Z" transform="translate(-80 -152)"/>
    <path d="M145.8653,176.3876v41.37725H123.104l13.75228-15.02131.5937,8.967,1.29494-.07915V187.37512l-1.149-.08184c-.32328,4.60022.55977,9.78135-1.29933,13.642-1.97306,4.09732-6.3475,7.18322-10.04646,10.26247-3.48925,2.90466-5.5437,8.43507-12.369,6.98145,0-6.31489-.00022-12.7521.00006-19.18931.00026-6.0001-.23369-12.01558.15775-17.99007.10494-1.6016,2.06758-4.36245,3.262-4.40877C126.7395,176.22508,136.19854,176.3876,145.8653,176.3876Z" transform="translate(-80 -152)" style="fill: #fff"/>
    <path d="M155.93994,187.23858v24.59394l1.34429.10707c.27314-2.64041.54627-5.28082.91125-8.80916,3.3657,3.60605,6.317,6.76809,9.25694,9.918l-17.59177,4.166V176.30853c9.51218,0,18.93859-.168,28.34409.19948,1.26375.04938,3.43377,2.77578,3.46915,4.3023.2854,12.30958.15993,24.62868.15993,38.446-4.26782-2.29727-7.81492-4.08512-11.22435-6.10531-1.25459-.74338-2.09176-2.157-3.277-3.05727-6.84188-5.19648-11.50408-11.35111-9.58676-20.62737a5.92522,5.92522,0,0,0-.4757-2.21872Z" transform="translate(-80 -152)" style="fill: #fff"/>
    <path d="M126.10027,248.18526c-2.994-.529-8.32127.96956-7.86271-4.98329.46747-6.06843,5.63127-2.70669,8.73955-3.06012,2.69562-.3065,5.95188-.59072,6.63274,3.42174C134.26791,247.44174,132.60169,248.53216,126.10027,248.18526Z" transform="translate(-80 -152)" style="fill: #fff"/>
    <path d="M166.62179,248.34984c-1.99383.26664-5.16135.58821-5.21349-3.93406-.05044-4.37461,3.22141-4.25337,6.26027-4.35489,1.64726-.055,3.45171-.61253,4.898-.1125,1.67656.57965,3.03789,2.07112,4.53606,3.16677-1.3101,1.604-2.34315,3.67528-4.01616,4.66717C171.69654,248.60636,169.55382,248.16064,166.62179,248.34984Z" transform="translate(-80 -152)" style="fill: #fff"/>
  </g>
</svg>
