<svg xmlns="http://www.w3.org/2000/svg" viewBox="0 0 40 36.01"><g data-name="Layer 2"><g><path d="M40,4V4a1.44,1.44,0,0,0-1.46-1.46H31.89c-.28,0-.29,0-.29-.28s0-.26,0-.4V1.5A1.34,1.34,0,0,0,30.36,0h-.48a1.35,1.35,0,0,0-1.21,1.3,6.77,6.77,0,0,0,0,.78c0,.44,0,.41-.4.41H11.73c-.15,0-.2-.05-.2-.2v-.8A1.37,1.37,0,0,0,10.29,0H9.78a1.37,1.37,0,0,0-.55.18,1.44,1.44,0,0,0-.65,1.19c0,.3,0,.59,0,.89s0,.23-.24.23H1.54A1.39,1.39,0,0,0,0,3.69v.16a.38.38,0,0,1,0,.21V34.5c0,.07,0,.15,0,.21v.16a2.3,2.3,0,0,0,.1.35A1.39,1.39,0,0,0,1.18,36h.16c.06,0,.14,0,.21,0H38.39a.38.38,0,0,1,.21,0h.08a1.28,1.28,0,0,0,1.11-.66,1.53,1.53,0,0,0,.21-.86ZM36.87,33.28H3.07c-.21,0-.24-.05-.24-.24q0-10.59,0-21.19c0-.21.07-.24.26-.24H36.87c.21,0,.25.05.25.25q0,10.59,0,21.18C37.12,33.25,37.06,33.28,36.87,33.28Zm.28-24.55c0,.09,0,.14-.12.13h-34c-.2,0-.25,0-.25-.24,0-1,0-2.1,0-3.14,0-.15,0-.18.18-.18H8.47c.14,0,.18,0,.18.18a3.75,3.75,0,0,0,0,.82,1.41,1.41,0,0,0,2.79-.24,3.87,3.87,0,0,0,0-.59c0-.15,0-.19.19-.17H28.49c.2,0,.25.06.24.25a2.9,2.9,0,0,0,.05.88,1.39,1.39,0,0,0,1.49,1,1.37,1.37,0,0,0,1.27-1.33c0-.22,0-.43,0-.65s0-.13.13-.13H37c.09,0,.12,0,.12.12Z"/></g></g></svg>