<svg xmlns="http://www.w3.org/2000/svg" viewBox="0 0 39.93 40"><g data-name="Layer 2"><g><path d="M31.58,24.78a4,4,0,0,0-2.86-1.31,4.06,4.06,0,0,0-2.88,1.3l-2.67,2.66-.65-.34a9.33,9.33,0,0,1-.84-.45,28.93,28.93,0,0,1-6.94-6.33,16.6,16.6,0,0,1-2.28-3.59c.69-.64,1.33-1.3,2-1.93l.71-.72a3.88,3.88,0,0,0,0-5.84l-2.31-2.3c-.26-.26-.53-.53-.78-.8-.51-.53-1-1.07-1.59-1.58A4,4,0,0,0,7.62,2.31,4.15,4.15,0,0,0,4.75,3.55v0L1.87,6.47A6.19,6.19,0,0,0,0,10.39a14.82,14.82,0,0,0,1.09,6.27A36,36,0,0,0,7.57,27.43,39.89,39.89,0,0,0,20.8,37.79,20.47,20.47,0,0,0,28.23,40l.53,0a6.38,6.38,0,0,0,4.87-2.09l0,0a19.14,19.14,0,0,1,1.48-1.52c.36-.35.73-.71,1.09-1.09a4.21,4.21,0,0,0,1.28-2.92,4.06,4.06,0,0,0-1.3-2.9Zm3,8.89h0c-.33.35-.67.67-1,1a20.2,20.2,0,0,0-1.63,1.69,4.07,4.07,0,0,1-3.17,1.34h-.39a18.44,18.44,0,0,1-6.59-2A37.6,37.6,0,0,1,9.34,26,34.12,34.12,0,0,1,3.26,15.86a12.08,12.08,0,0,1-.95-5.28A3.91,3.91,0,0,1,3.48,8.07L6.36,5.19a1.9,1.9,0,0,1,1.28-.6,1.8,1.8,0,0,1,1.23.59l0,0c.51.48,1,1,1.52,1.51l.8.82,2.3,2.3a1.61,1.61,0,0,1,0,2.62l-.72.73c-.71.72-1.39,1.4-2.12,2.06,0,0,0,0,0,0a1.71,1.71,0,0,0-.44,1.92l0,.07A18.71,18.71,0,0,0,13,21.73h0a30.88,30.88,0,0,0,7.49,6.82c.35.22.7.4,1,.57s.59.29.84.44a.33.33,0,0,0,.1.06,1.71,1.71,0,0,0,.83.21,1.86,1.86,0,0,0,1.29-.58l2.88-2.89a1.94,1.94,0,0,1,1.28-.63,1.7,1.7,0,0,1,1.21.62h0L34.59,31A1.67,1.67,0,0,1,34.6,33.67Z"/><path d="M21.58,9.51a10.88,10.88,0,0,1,8.85,8.85,1.13,1.13,0,0,0,1.12.95l.19,0A1.14,1.14,0,0,0,32.68,18,13.11,13.11,0,0,0,22,7.27a1.15,1.15,0,0,0-1.32.93A1.13,1.13,0,0,0,21.58,9.51Z"/><path d="M39.91,17.65A21.61,21.61,0,0,0,22.29,0,1.14,1.14,0,0,0,21,1a1.15,1.15,0,0,0,.94,1.31A19.34,19.34,0,0,1,37.67,18a1.13,1.13,0,0,0,1.12.94H39A1.12,1.12,0,0,0,39.91,17.65Z"/></g></g></svg>