<svg  data-name="Layer 1" xmlns="http://www.w3.org/2000/svg" viewBox="0 0 200 200"><path d="M185,86.28a15.57,15.57,0,0,0-4.29-21.6L176.78,62a15.57,15.57,0,0,0-21.6,4.3l-56,83.81a4.25,4.25,0,0,0-.7,1.94l-2.68,28.88A4.22,4.22,0,0,0,102,185l25.58-13.5a4.26,4.26,0,0,0,1.54-1.38ZM162.18,70.9a7.15,7.15,0,0,1,9.91-1.84L176,71.7a7.13,7.13,0,0,1,2,9.9h0l-5.76,8.56h0l-46.44,69.51A24.32,24.32,0,0,0,110,149.09Zm-55.69,86.17A16,16,0,0,1,119.77,166l-14.89,7.9Z"/><path d="M28.94,37.93V150.78a14.45,14.45,0,0,0,14.41,14.48H84.87a4.22,4.22,0,1,0,0-8.44H59.56V31.94h71.55V72.83a4.22,4.22,0,1,0,8.44,0V27.72a4.22,4.22,0,0,0-4.22-4.22H43.46A14.45,14.45,0,0,0,28.94,37.88ZM51.15,156.82H43.46a6,6,0,0,1-6.08-5.94V37.93a6,6,0,0,1,6-6h7.84Z"/><path d="M77.58,50.15a4.21,4.21,0,0,0-4.22,4.21v21a4.22,4.22,0,0,0,4.22,4.22h35.54a4.22,4.22,0,0,0,4.22-4.22v-21a4.21,4.21,0,0,0-4.22-4.21Zm31.32,21H81.8V58.58h27.1Z"/></svg>