<svg  data-name="Layer 1" xmlns="http://www.w3.org/2000/svg" viewBox="0 0 200 200"><path d="M176.29,42.69,154.94,20.48a4.86,4.86,0,0,0-5.88-.86c-18.71,10.59-42.47-.51-46.46-2.54a4.77,4.77,0,0,0-4.36-.42,4.39,4.39,0,0,0-.86.45C93.25,19.21,69.59,30.18,51,19.66a4.84,4.84,0,0,0-5.88.86L23.69,42.69a4.93,4.93,0,0,0-1.24,4.51c.1.41,9.77,41.43,3.54,62.44a1.25,1.25,0,0,0-.07.31c-.51,2.13-10.86,52.85,72.49,80.81a4.93,4.93,0,0,0,3.13,0c83.38-28,73-78.68,72.55-80.81a1.08,1.08,0,0,1-.07-.31c-6.22-21,3.44-62,3.54-62.44A4.91,4.91,0,0,0,176.29,42.69Zm-11.66,69.5c.45,2.47,7.05,44.22-64.64,68.84-71.8-24.69-65.23-65.85-64.64-68.84,5.94-20.5-.76-54.88-2.86-64.65L49.55,29.8c20.18,9.11,43,.24,50.44-3.2,7.46,3.44,30.26,12.31,50.44,3.2l17.06,17.74C165.36,57.31,158.69,91.69,164.63,112.19Z"/><path d="M146.82,80.62l-32.18-.1L104.6,50a4.86,4.86,0,0,0-9.22,0l-10,30.57-32.18.1a4.86,4.86,0,0,0-2.86,8.77l26,19L66.43,139a4.86,4.86,0,0,0,7.46,5.43L100,125.63l26.1,18.84a4.85,4.85,0,0,0,7.46-5.43l-9.87-30.64,26-19A4.86,4.86,0,0,0,146.82,80.62Zm-31.7,22a4.81,4.81,0,0,0-1.75,5.4l6.39,19.91-16.92-12.25a4.82,4.82,0,0,0-5.67,0l-17,12.25L86.61,108a4.81,4.81,0,0,0-1.75-5.4L68,90.28l20.9-.07a4.84,4.84,0,0,0,4.61-3.33L100,67l6.54,19.88a4.84,4.84,0,0,0,4.61,3.33l20.9.07Z"/></svg>