<svg preserveAspectRatio="xMidYMid meet" viewBox="0 0 256 256" xmlns="http://www.w3.org/2000/svg"><path d="m740 2060c-19-19-20-33-20-200v-179l-95-67c-156-108-195-142-195-168 0-43 35-55 93-31 16 7 17-16 17-394 0-436-1-428 57-483 62-59 50-58 675-58 369 0 586 4 611 11 43 12 101 59 123 100 11 23 14 98 14 430 0 378 1 401 18 394 35-15 63-17 77-5 22 18 18 53-7 77-47 43-810 593-823 593-7 0-72-43-144-95s-134-95-137-95-5 30-4 68c2 90 2 88-16 106-12 13-38 16-120 16-91 0-107-3-124-20zm160-164c0-81-1-85-27-104-55-38-53-41-53 77v111h40 40zm718-171 313-227-3-435-3-435-28-24c-27-23-33-24-203-24h-174v265 266l-45 48c-117 125-300 127-422 4l-43-42-2-268-3-268-157-3c-153-2-157-2-185 22l-28 24-3 434-3 434 323 232c182 131 330 231 339 229 8-2 156-107 327-232zm-281-584c86-40 83-29 83-311v-250h-160-160v246 247l36 33c57 55 129 67 201 35z" transform="matrix(.1 0 0 -.1 0 256)"/></svg>