<svg  data-name="Layer 1" xmlns="http://www.w3.org/2000/svg" viewBox="0 0 200 200"><path  d="M99.53,31.62A4.35,4.35,0,0,0,97,32.89L85.37,44.5H39.45a4.36,4.36,0,0,0-3.09,1.75L6.29,87.06a4.29,4.29,0,0,0-.8,2.55v17.18a4.45,4.45,0,0,0,4.29,4.29h8.6v36.23a4.46,4.46,0,0,0,4.29,4.36,4.47,4.47,0,0,0,4.3-4.36V111.08H59.19v34.37H41.88a4.3,4.3,0,0,0,.41,8.59h16.9v6.44a4.47,4.47,0,0,0,4.29,4.3h73a4.47,4.47,0,0,0,4.29-4.3V154h36.52a4.46,4.46,0,0,0,4.29-4.3V111.08h8.6a4.45,4.45,0,0,0,4.29-4.29V89.61a4.29,4.29,0,0,0-.8-2.55L163.64,46.25a4.4,4.4,0,0,0-3.5-1.75H114.63L103,32.89A4.35,4.35,0,0,0,99.53,31.62ZM100,42l32.22,32.22v82H67.78v-82ZM42.07,53.09h34.7L60.46,69.4a4.38,4.38,0,0,0-1.27,3v30.07H14.08V91.08Zm81.16,0h34.7l28,38v11.41H140.81V72.42a4.38,4.38,0,0,0-1.27-3ZM100,68.13a17.18,17.18,0,1,0,17.18,17.18A17.24,17.24,0,0,0,100,68.13Zm0,8.59a8.59,8.59,0,1,1-8.59,8.59A8.52,8.52,0,0,1,100,76.72Zm40.81,34.36H173v34.37H140.81Z"/></svg>