<svg id="Layer_1" data-name="Layer 1" xmlns="http://www.w3.org/2000/svg" viewBox="0 0 256 256">
  <g>
    <path d="M16,344V88H272V343.99994Q144,344,16,344ZM69.45393,201.55468c0,2.78462,0,4.58984,0,6.395q.00056,32.99193.00941,65.98385c.02041,14.1398,7.82348,21.88783,21.98865,21.892q52.23728.01528,104.47454.0018c15.11339-.0022,22.57579-7.52726,22.58572-22.79882q.02129-32.742.01494-65.484c.00131-1.72468.15546-3.44924.26-5.61835,3.72887,1.87872,7.3107,4.149,9.73283-.05106,2.54819-4.41864-1.28845-6.54141-4.25662-8.7079q-37.52943-27.39291-75.02514-54.8317c-3.16816-2.32927-5.816-2.66294-8.96221-.186-3.26821,2.57295-6.74074,4.88627-10.12279,7.31469-4.37532,3.14159-8.74953,6.28472-13.83675,9.939,0-5.01454-.07659-8.81.02031-12.601.10948-4.28375-1.76352-6.60634-6.14959-6.62834-4.832-.02423-9.6645-.03912-14.49637-.00335-5.92023.04383-7.45808,1.51749-7.49028,7.31472-.04814,8.66429-.25062,17.33826.08507,25.98979.1726,4.44842-1.10585,7.2872-4.93635,9.78748-7.52035,4.90879-14.82151,10.199-21.83171,15.8084-1.55419,1.24362-1.5249,4.46614-2.22472,6.77749,2.33667.51739,4.65775,1.146,7.0205,1.47744C66.9388,203.41359,67.69258,202.58648,69.45393,201.55468Z" transform="translate(-16 -88)" style="fill: #fff"/>
    <path d="M69.45393,201.55468c-1.76135,1.0318-2.51513,1.85891-3.14055,1.77116-2.36275-.33148-4.68383-.96-7.0205-1.47744.69982-2.31135.67053-5.53387,2.22472-6.77749,7.0102-5.60938,14.31136-10.89961,21.83171-15.8084,3.8305-2.50028,5.10895-5.33906,4.93635-9.78748-.33569-8.65153-.13321-17.3255-.08507-25.98979.0322-5.79723,1.57-7.27089,7.49028-7.31472,4.83187-.03577,9.66433-.02088,14.49637.00335,4.38607.022,6.25907,2.34459,6.14959,6.62834-.0969,3.791-.02031,7.58644-.02031,12.601,5.08722-3.65431,9.46143-6.79744,13.83675-9.939,3.38205-2.42842,6.85458-4.74174,10.12279-7.31469,3.14624-2.47692,5.794-2.14325,8.96221.186q37.4343,27.52229,75.02514,54.8317c2.96817,2.16649,6.80481,4.28926,4.25662,8.7079-2.42213,4.20009-6.004,1.92978-9.73283.05106-.10455,2.16911-.2587,3.89367-.26,5.61835q-.0249,32.742-.01494,65.484c-.00993,15.27156-7.47233,22.79662-22.58572,22.79882q-52.23728.00757-104.47454-.0018c-14.16517-.00414-21.96824-7.75217-21.98865-21.892q-.04764-32.99186-.00941-65.98385C69.4539,206.14452,69.45393,204.3393,69.45393,201.55468Zm46.83855,84.39454c.0963-2.08426.2479-3.87171.25051-5.65937.02021-13.83177.15684-27.666-.07055-41.494a14.61716,14.61716,0,0,1,4.523-11.12342c12.64032-12.98044,32.37416-12.34,43.94626,1.7866a14.04778,14.04778,0,0,1,2.93173,8.04535c.2862,14.32614.12558,28.661.14559,42.99286.00245,1.75108.15757,3.502.25358,5.49429,10.10279,0,19.59145.015,29.08005-.00436,8.86762-.01807,11.37972-2.447,11.392-11.24522.03566-25.49714.0941-50.99506-.12843-76.4903a9.29944,9.29944,0,0,0-3.22418-6.48446c-18.96654-14.13257-38.17362-27.94191-57.18692-42.01259-2.8037-2.07485-4.651-1.94157-7.38622.05034q-28.88167,21.033-58.02423,41.70562c-2.86751,2.02892-3.64269,4.2357-3.62563,7.49211.10473,19.99724.05044,39.99532.05337,59.99311.00089,5.99925-.13844,12.00383.06828,17.99623.19564,5.6709,2.86136,8.75148,8.08867,8.8874C96.85663,286.12581,106.34491,285.94922,116.29248,285.94922Zm10.0368-.27878h31.84139c0-15.0844-.16219-29.85341.099-44.61493.0782-4.4207-1.48688-7.55382-5.13922-9.35713a31.075,31.075,0,0,0-10.24444-3.38164c-7.40824-.75505-16.34163,4.65138-16.44783,10.03773C126.13058,253.95492,126.32928,269.56537,126.32928,285.67044ZM98.18121,167.71514c8.62329-4.33985,10.63658-10.63648,7.33767-21.28547H98.18121Z" transform="translate(-16 -88)"/>
    <path d="M116.29248,285.94922c-9.94757,0-19.43585.17659-28.91313-.06986-5.22731-.13592-7.893-3.2165-8.08867-8.8874-.20672-5.9924-.06739-11.997-.06828-17.99623-.00293-19.99779.05136-39.99587-.05337-59.99311-.01706-3.25641.75812-5.46319,3.62563-7.49211q29.16586-20.63637,58.02423-41.70562c2.7352-1.99191,4.58252-2.12519,7.38622-.05034,19.0133,14.07068,38.22038,27.88,57.18692,42.01259a9.29944,9.29944,0,0,1,3.22418,6.48446c.22253,25.49524.16409,50.99316.12843,76.4903-.01229,8.7982-2.52439,11.22715-11.392,11.24522-9.4886.01935-18.97726.00436-29.08.00436-.096-1.99234-.25113-3.74321-.25358-5.49429-.02-14.33182.14061-28.66672-.14559-42.99286a14.04778,14.04778,0,0,0-2.93173-8.04535c-11.5721-14.12662-31.30594-14.767-43.94626-1.7866a14.61716,14.61716,0,0,0-4.523,11.12342c.22739,13.82807.09076,27.66228.07055,41.494C116.54038,282.07751,116.38878,283.865,116.29248,285.94922Z" transform="translate(-16 -88)" style="fill: #fff"/>
    <path d="M126.32928,285.67044c0-16.10507-.1987-31.71552.10887-47.316.1062-5.38635,9.03959-10.79278,16.44783-10.03773a31.075,31.075,0,0,1,10.24444,3.38164c3.65234,1.80331,5.21742,4.93643,5.13922,9.35713-.26116,14.76152-.099,29.53053-.099,44.61493Z" transform="translate(-16 -88)" style="fill: #fff"/>
    <path d="M98.18121,167.71514V146.42967h7.33767C108.81779,157.07866,106.8045,163.37529,98.18121,167.71514Z" transform="translate(-16 -88)" style="fill: #fff"/>
  </g>
</svg>
