<svg  preserveAspectRatio="xMidYMid meet" viewBox="0 0 128 128" xmlns="http://www.w3.org/2000/svg"><path d="m515 1206c-338-78-533-425-421-748 86-246 325-404 580-385 45 4 103 13 129 21 182 57 337 217 388 401 21 74 18 247-5 315-63 184-189 315-365 376-91 31-219 40-306 20zm29-51c-37-19-81-35-99-35s-51-7-74-15c-22-8-41-12-41-10 0 11 126 67 178 79 98 24 109 19 36-19zm329-22c16-8 27-16 25-18-8-8-55 8-78 26l-25 20 25-7c14-3 38-13 53-21zm-345-73c17-27 32-52 32-56 0-3-14-26-31-50-17-25-41-71-54-102l-23-57-60-12c-33-7-78-19-99-28-38-16-38-16-60 11-12 15-29 45-39 66-17 38-17 39 7 90 51 109 102 154 204 179 72 17 88 12 123-41zm403 29c41-14 119-87 159-150 33-50 39-103 19-171l-10-38-37 19c-20 10-55 24-77 30-36 9-44 17-68 70-15 33-43 81-62 106-34 44-35 47-20 75 8 16 15 38 15 50 0 23 27 27 81 9zm-92-138c17-21 45-69 62-105l31-66-38-70c-71-131-87-140-238-125l-76 7-53 86c-29 48-56 92-59 97-7 12 50 140 82 185l21 30h119 118zm-613-201c9-11 13-51 15-132l1-116-38-46c-45-54-64-50-89 21-40 114-27 312 23 362l25 25 25-50c13-27 30-56 38-64zm939 4c17-81 18-138 2-214-11-49-15-55-37-55s-25 4-23 30c1 17 4 73 7 125 7 134 17 203 27 193 5-5 16-40 24-79zm-294-261c37-61 45-82 38-100-12-32-54-97-89-136-36-42-85-52-196-42-70 7-77 10-100 41-15 18-36 59-49 90l-23 56 63 87 63 86 124-2 123-2zm-452-83c6 0 24-30 41-67s42-82 56-100c25-33 26-35 7-55-10-11-30-29-45-40l-28-19-52 26c-120 60-218 158-218 218 0 19 12 45 35 73l36 43 78-39c44-22 84-40 90-40zm721 42c0-34-75-145-138-203-53-50-158-117-167-107-1 2-10 18-19 35l-16 33 46 56c25 31 55 76 66 99 18 36 27 43 67 54 26 6 60 20 76 31 40 25 85 26 85 2z" transform="matrix(.1 0 0 -.1 0 128)"/></svg>