<svg id="Layer_1" data-name="Layer 1" xmlns="http://www.w3.org/2000/svg" viewBox="0 0 240 240">
  <g>
    <path d="M138,336H24V222q2.35005,13.31606,4.69223,26.58749a32.897,32.897,0,0,0,.53535-65.09755c-.63765,2.26373-1.48279,4.56931-1.92,6.94982C26.11309,196.943,25.0906,203.47773,24,210V96H138l-26.59159,4.69572a32.9019,32.9019,0,0,0,65.10523.53429c-2.25671-.63637-4.56483-1.48366-6.94818-1.92156C163.06061,98.11328,156.524,97.09086,150,96H264V210q-2.35005-13.31616-4.69223-26.5877a32.89675,32.89675,0,0,0-.53505,65.09724c.63757-2.26375,1.48259-4.56942,1.91983-6.95C261.887,235.05659,262.90942,228.52205,264,222V336H150l26.59215-4.69551a32.90245,32.90245,0,0,0-65.10617-.53471c2.25668.63641,4.56472,1.48381,6.948,1.92169C124.939,333.88669,131.4758,334.9091,138,336ZM92.576,128.70295c-.84853-2.72651-2.36439-7.94555-4.1108-13.08626-1.16131-3.41838-3.06281-3.98479-6.39505-1.90662a125.158,125.158,0,0,0-40.2856,40.20655c-2.31,3.67613-1.14753,5.08974,2.08963,6.78044C65.62862,172.059,92.27821,156.06188,92.576,128.70295ZM231.4693,164.54949c2.69057-.84891,7.89844-2.39879,13.03931-4.14583,3.62374-1.23149,3.67378-3.28074,1.7-6.448a124.08958,124.08958,0,0,0-40.25386-40.22729c-3.29483-2.05381-4.76842-1.3773-6.49419,1.82539C187.74312,137.29894,203.94939,164.51015,231.4693,164.54949Zm-137.994,136.412-.84124-.325c-.2724-1.80717-.54962-3.61363-.81646-5.42163-3.278-22.2099-29.33059-34.70712-48.76378-23.44843-2.38014,1.37894-3.53718,2.52559-1.78822,5.39371a122.479,122.479,0,0,0,41.62708,41.58952c2.4738,1.50084,4.11612,1.1597,5.049-1.45C89.87682,311.886,91.64089,306.41121,93.4753,300.96153Zm101.855,2.22769c.99927,3.12058,2.56575,8.324,4.34439,13.45391,1.12512,3.245,3.00142,3.64917,6.0762,1.7454a123.55039,123.55039,0,0,0,40.59288-40.57426c1.84658-2.98251,1.55546-4.58893-1.601-6.1754-10.91974-5.4884-21.78488-5.64293-32.40076.45387C201.3291,278.41757,196.14491,288.39145,195.33026,303.18922ZM143.81641,162.81959a10.58919,10.58919,0,0,0,10.89648-10.53692c.01021-5.77058-5.12388-10.9737-10.77821-10.92312a11.21617,11.21617,0,0,0-10.64334,10.55568A10.5817,10.5817,0,0,0,143.81641,162.81959Zm-52.997,53.58014a10.61486,10.61486,0,0,0-10.321-11.11268A11.179,11.179,0,0,0,69.3598,215.84936c-.11466,5.62925,5.06742,10.82329,10.83748,10.86251A10.59783,10.59783,0,0,0,90.81944,216.39973Zm106.361-.22643a10.58107,10.58107,0,0,0,10.89378,10.53546,11.21635,11.21635,0,0,0,10.56536-10.633c.05888-5.65283-5.14179-10.795-10.91169-10.78887A10.58962,10.58962,0,0,0,197.18042,216.1733ZM144.2283,269.18042a10.59516,10.59516,0,0,0-10.94179,10.49251c-.03881,5.77092,5.06286,10.98308,10.7343,10.96676a11.20081,11.20081,0,0,0,10.68735-10.51051A10.58064,10.58064,0,0,0,144.2283,269.18042ZM99.11547,160.26894A10.61564,10.61564,0,0,0,88.2687,170.862,10.72866,10.72866,0,0,0,98.48186,181.631a10.878,10.878,0,0,0,11.1509-10.39865A10.71989,10.71989,0,0,0,99.11547,160.26894Zm100.61617,10.46215a10.68414,10.68414,0,0,0-21.36573.13491A10.86574,10.86574,0,0,0,189.152,181.63419,10.71337,10.71337,0,0,0,199.73164,170.73109Zm-90.098,90.28269a10.87484,10.87484,0,0,0-10.90574-10.64856,10.72644,10.72644,0,0,0-10.45945,11.024,10.68537,10.68537,0,0,0,21.36519-.37544Zm79.38014-10.64742A10.875,10.875,0,0,0,178.36523,261.272a10.72637,10.72637,0,0,0,11.024,10.45952,10.68537,10.68537,0,0,0-.37539-21.36518Z" transform="translate(-24 -96)" style="fill: #fff"/>
    <path d="M150,96c6.524,1.09086,13.06061,2.11328,19.56546,3.30845,2.38335.4379,4.69147,1.28519,6.94818,1.92156a32.9019,32.9019,0,0,1-65.10523-.53429L138,96Z" transform="translate(-24 -96)"/>
    <path d="M24,210c1.0906-6.52227,2.11309-13.05705,3.30756-19.56024.43723-2.38051,1.28237-4.68609,1.92-6.94982a32.897,32.897,0,0,1-.53535,65.09755Q26.354,235.33838,24,222Z" transform="translate(-24 -96)"/>
    <path d="M264,222c-1.09058,6.52205-2.113,13.05659-3.30745,19.55957-.43724,2.38055-1.28226,4.68622-1.91983,6.95a32.89675,32.89675,0,0,1,.53505-65.09724Q261.646,196.66153,264,210Z" transform="translate(-24 -96)"/>
    <path d="M138,336c-6.5242-1.0909-13.061-2.11331-19.566-3.30853-2.38328-.43788-4.69132-1.28528-6.948-1.92169a32.90245,32.90245,0,0,1,65.10617.53471L150,336Z" transform="translate(-24 -96)"/>
    <path d="M92.576,128.70295c-.29782,27.35893-26.94741,43.356-48.70182,31.99411-3.23716-1.6907-4.39962-3.10431-2.08963-6.78044a125.158,125.158,0,0,1,40.2856-40.20655c3.33224-2.07817,5.23374-1.51176,6.39505,1.90662C90.21164,120.7574,91.7275,125.97644,92.576,128.70295Z" transform="translate(-24 -96)"/>
    <path d="M231.4693,164.54949c-27.51991-.03934-43.72618-27.25055-32.00879-48.99578,1.72577-3.20269,3.19936-3.8792,6.49419-1.82539a124.08958,124.08958,0,0,1,40.25386,40.22729c1.97383,3.16731,1.92379,5.21656-1.7,6.448C239.36774,162.1507,234.15987,163.70058,231.4693,164.54949Z" transform="translate(-24 -96)"/>
    <path d="M93.4753,300.96153c-1.83441,5.44968-3.59848,10.92449-5.53364,16.33815-.93286,2.60971-2.57518,2.95085-5.049,1.45A122.479,122.479,0,0,1,41.2656,277.16017c-1.749-2.86812-.59192-4.01477,1.78822-5.39371C62.487,260.50777,88.53958,273.005,91.8176,295.21489c.26684,1.808.54406,3.61446.81646,5.42163Z" transform="translate(-24 -96)"/>
    <path d="M195.33026,303.18922c.81465-14.79777,5.99884-24.77165,17.01172-31.09648,10.61588-6.0968,21.481-5.94227,32.40076-.45387,3.15645,1.58647,3.44757,3.19289,1.601,6.1754a123.55039,123.55039,0,0,1-40.59288,40.57426c-3.07478,1.90377-4.95108,1.49964-6.0762-1.7454C197.896,311.51324,196.32953,306.3098,195.33026,303.18922Z" transform="translate(-24 -96)"/>
    <path d="M143.81641,162.81959a10.5817,10.5817,0,0,1-10.52507-10.90436,11.21617,11.21617,0,0,1,10.64334-10.55568c5.65433-.05058,10.78842,5.15254,10.77821,10.92312A10.58919,10.58919,0,0,1,143.81641,162.81959Z" transform="translate(-24 -96)"/>
    <path d="M90.81944,216.39973a10.59783,10.59783,0,0,1-10.62216,10.31214c-5.77006-.03922-10.95214-5.23326-10.83748-10.86251a11.179,11.179,0,0,1,11.13868-10.56231A10.61486,10.61486,0,0,1,90.81944,216.39973Z" transform="translate(-24 -96)"/>
    <path d="M197.18042,216.1733a10.58962,10.58962,0,0,1,10.54745-10.88645c5.7699-.0061,10.97057,5.136,10.91169,10.78887a11.21635,11.21635,0,0,1-10.56536,10.633A10.58107,10.58107,0,0,1,197.18042,216.1733Z" transform="translate(-24 -96)"/>
    <path d="M144.2283,269.18042a10.58064,10.58064,0,0,1,10.47986,10.94876,11.20081,11.20081,0,0,1-10.68735,10.51051c-5.67144.01632-10.77311-5.19584-10.7343-10.96676A10.59516,10.59516,0,0,1,144.2283,269.18042Z" transform="translate(-24 -96)"/>
    <path d="M99.11547,160.26894a10.71989,10.71989,0,0,1,10.51729,10.96344A10.878,10.878,0,0,1,98.48186,181.631,10.72866,10.72866,0,0,1,88.2687,170.862,10.61564,10.61564,0,0,1,99.11547,160.26894Z" transform="translate(-24 -96)"/>
    <path d="M199.73164,170.73109a10.71337,10.71337,0,0,1-10.57966,10.9031A10.86574,10.86574,0,0,1,178.36591,170.866a10.68414,10.68414,0,0,1,21.36573-.13491Z" transform="translate(-24 -96)"/>
    <path d="M109.63368,261.01378a10.68534,10.68534,0,1,1-10.90574-10.64856A10.87484,10.87484,0,0,1,109.63368,261.01378Z" transform="translate(-24 -96)"/>
    <path d="M189.01382,250.36636A10.68534,10.68534,0,1,1,178.36523,261.272,10.875,10.875,0,0,1,189.01382,250.36636Z" transform="translate(-24 -96)"/>
  </g>
</svg>
