<svg id="Layer_1" data-name="Layer 1" xmlns="http://www.w3.org/2000/svg" viewBox="0 0 128 128">
  <g>
    <path d="M80,280V152H208V280Zm20.19083-22.205c.2275,3.97415.069,7.659.73365,11.18877.83779,4.44933,4.26729,6.24162,8.52584,5.95068,3.557-.243,7.65193-.09546,10.48961-1.8087,5.69115-3.436,1.94316-10.19406,3.77965-15.15744h40.78916c1.22953,6.9491-2.60032,16.46313,9.076,16.90824,3.643.13887,9.125.10294,10.62555-2.04566,2.76941-3.96533,3.21769-9.55175,4.79892-15.03839,5.97959,1.26957,5.18766-3.44319,5.1797-7.78089-.04463-24.30612.00625-48.61242-.03327-72.91857-.02063-12.67882-7.48478-20.07085-20.20793-20.08648q-29.71678-.03651-59.43366-.00305c-13.37471.009-20.66234,7.26085-20.675,20.61851-.02277,24.13971.07828,48.28-.08051,72.41869C93.72806,254.67905,93.80832,258.513,100.19083,257.795Z" transform="translate(-80 -152)" style="fill: #fff"/>
    <path d="M100.19083,257.795c-6.38251.718-6.46277-3.11593-6.43226-7.75429.15879-24.13868.05774-48.279.08051-72.41869.01261-13.35766,7.30024-20.60955,20.675-20.61851q29.71682-.01992,59.43366.00305c12.72315.01563,20.1873,7.40766,20.20793,20.08648.03952,24.30615-.01136,48.61245.03327,72.91857.008,4.3377.79989,9.05046-5.1797,7.78089-1.58123,5.48664-2.02951,11.07306-4.79892,15.03839-1.50058,2.1486-6.98255,2.18453-10.62555,2.04566-11.6763-.44511-7.84645-9.95914-9.076-16.90824H123.71958c-1.83649,4.96338,1.9115,11.72145-3.77965,15.15744-2.83768,1.71324-6.93258,1.56568-10.48961,1.8087-4.25855.29094-7.68805-1.50135-8.52584-5.95068C100.25984,265.45394,100.41833,261.76913,100.19083,257.795ZM188.8364,181.3618H99.34977v41.47071c10.64844,0,20.96133-.26333,31.25114.1099,5.23025.18972,9.08318-1.155,12.63437-5.13992,5.313-5.96185,11.15209-11.46728,16.96484-16.95784.88017-.83139,2.82647-.53409,4.27962-.75887-.16834,1.45454-.03041,3.04469-.59646,4.32314-.50381,1.13784-1.78054,1.93729-2.72782,2.87429-4.90087,4.84768-9.80549,9.69158-15.37117,15.19131H188.8364Zm-89.46246-5.93424h89.43015c-1.00361-8.13042-5.80427-13.12174-13.29149-13.18681q-31.44711-.2733-62.8979-.0052C104.741,162.30143,99.68192,167.65342,99.37394,175.42756Zm.02523,52.79417V251.9321h89.20059V228.22173Zm5.77341,29.517c.76236,4.33464.4839,8.56331,2.38813,11.23811,1.02183,1.43534,7.52352,1.37292,8.50923-.07928,1.93873-2.85626,1.75349-7.1542,2.50373-11.15883Zm63.80423-.0186c1.14677,4.45723,1.30381,8.63968,3.346,11.45432.9783,1.34833,7.33747,1.14576,8.093-.17113,1.75238-3.05454,1.57851-7.21417,2.244-11.28319Z" transform="translate(-80 -152)"/>
    <path d="M188.8364,181.3618v41.11272H145.78429c5.56568-5.49973,10.4703-10.34363,15.37117-15.19131.94728-.937,2.224-1.73645,2.72782-2.87429.566-1.27845.42812-2.8686.59646-4.32314-1.45315.22478-3.39945-.07252-4.27962.75887-5.81275,5.49056-11.65189,10.996-16.96484,16.95784-3.55119,3.98493-7.40412,5.32964-12.63437,5.13992-10.28981-.37323-20.6027-.1099-31.25114-.1099V181.3618Z" transform="translate(-80 -152)" style="fill: #fff"/>
    <path d="M99.37394,175.42756c.308-7.77414,5.367-13.12613,13.24076-13.192q31.44726-.26313,62.8979.0052c7.48722.06507,12.28788,5.05639,13.29149,13.18681Zm40.78012-5.2774a88.69231,88.69231,0,0,0,9.44012-.1177c1.09086-.11724,2.03582-1.592,3.04739-2.44684-.89427-.84317-1.766-2.38756-2.68643-2.41721-6.62576-.21347-13.26558-.23445-19.88913.00727-.93093.034-1.79755,1.83014-2.69394,2.81062.94389.721,1.8445,1.98444,2.8396,2.06387C133.50745,170.31321,136.83728,170.14946,140.15406,170.15016Z" transform="translate(-80 -152)" style="fill: #fff"/>
    <path d="M99.39917,228.22173h89.20059V251.9321H99.39917Zm45.50929,17.26976c4.81748,0,9.637-.087,14.45184.0258,4.33979.10164,4.18281-2.8693,4.12614-5.76017-.05688-2.90277.66352-6.3054-4.10988-6.27015-9.80053.07239-19.60279.09587-29.40268-.012-4.41591-.04861-4.07286,2.843-3.9761,5.74291.09572,2.8692-.9083,6.36141,3.96016,6.28912C134.94042,245.433,139.92487,245.4906,144.90846,245.49149Zm-43.05171-5.99337a9.98089,9.98089,0,1,0,9.68655-9.97929A9.87561,9.87561,0,0,0,101.85675,239.49812Zm84.28609.00558a9.98059,9.98059,0,0,0-19.96111-.0455,9.98058,9.98058,0,0,0,19.96111.0455Z" transform="translate(-80 -152)" style="fill: #fff"/>
    <path d="M105.17258,257.73871h13.40109c-.75024,4.00463-.565,8.30257-2.50373,11.15883-.98571,1.4522-7.4874,1.51462-8.50923.07928C105.65648,266.302,105.93494,262.07335,105.17258,257.73871Z" transform="translate(-80 -152)" style="fill: #fff"/>
    <path d="M168.97681,257.72011h13.683c-.66545,4.069-.49158,8.22865-2.244,11.28319-.7555,1.31689-7.11467,1.51946-8.093.17113C170.28062,266.35979,170.12358,262.17734,168.97681,257.72011Z" transform="translate(-80 -152)" style="fill: #fff"/>
    <path d="M140.15405,170.14981c-3.31677-.00035-6.6466.1634-9.94238-.09964-.9951-.07943-1.89571-1.34282-2.8396-2.06387.89639-.98048,1.763-2.77665,2.69394-2.81062,6.62355-.24172,13.26337-.22074,19.88913-.00727.92048.02965,1.79216,1.574,2.68643,2.41721-1.01157.85485-1.95653,2.3296-3.04739,2.44684A88.60032,88.60032,0,0,1,140.15405,170.14981Z" transform="translate(-80 -152)"/>
    <path d="M144.90846,245.491c-4.98359-.00044-9.968-.058-14.95052.016-4.86846.07229-3.86444-3.41992-3.96016-6.28912-.09676-2.89988-.43981-5.79152,3.9761-5.74291,9.79989.10788,19.60215.0844,29.40268.012,4.7734-.03525,4.053,3.36738,4.10988,6.27015.05667,2.89087.21365,5.86181-4.12614,5.76017C154.54546,245.40451,149.72594,245.49149,144.90846,245.491Zm-13.00231-6.31353-.00259.64485h25.431l.00259-.64485Z" transform="translate(-80 -152)"/>
    <path d="M101.85675,239.49812a9.98089,9.98089,0,0,1,19.96175-.02716,9.98089,9.98089,0,0,1-19.96175.02716Zm15.26043.8859-.08126-2.14144c-1.86634-1.11589-3.81234-3.2031-5.57533-3.05854-1.579.12949-4.34549,3.00949-4.10472,4.15323.38287,1.8188,2.70146,4.249,4.44321,4.46433C113.40633,244.00034,115.33184,241.62538,117.11718,240.384Z" transform="translate(-80 -152)"/>
    <path d="M186.14284,239.5037a9.98059,9.98059,0,1,1-9.677-9.98489A9.88928,9.88928,0,0,1,186.14284,239.5037Zm-4.51512,1.17178.05346-2.11911c-1.80942-1.2232-3.63193-3.4041-5.42429-3.37961-1.55389.02124-4.44312,2.71849-4.28858,3.91648.23382,1.81263,2.42156,4.422,4.1069,4.69914C177.711,244.06137,179.76012,241.81643,181.62772,240.67548Z" transform="translate(-80 -152)"/>
    <ellipse cx="64.62034" cy="87.49993" rx="17.9824" ry="0.45598" style="fill: #fff"/>
    <path d="M117.11718,240.384c-1.78534,1.24136-3.71085,3.61632-5.3181,3.41758-1.74175-.21537-4.06034-2.64553-4.44321-4.46433-.24077-1.14374,2.5257-4.02374,4.10472-4.15323,1.763-.14456,3.709,1.94265,5.57533,3.05854Z" transform="translate(-80 -152)" style="fill: #fff"/>
    <path d="M181.62772,240.67548c-1.8676,1.141-3.91676,3.38589-5.55251,3.1169-1.68534-.27716-3.87308-2.88651-4.1069-4.69914-.15454-1.198,2.73469-3.89524,4.28858-3.91648,1.79236-.02449,3.61487,2.15641,5.42429,3.37961Z" transform="translate(-80 -152)" style="fill: #fff"/>
  </g>
</svg>
