<svg xmlns="http://www.w3.org/2000/svg" viewBox="0 0 26 40"><g data-name="Layer 2"><g><path d="M22.42,0H3.57A3.58,3.58,0,0,0,0,3.6V36.4A3.58,3.58,0,0,0,3.57,40H22.42A3.59,3.59,0,0,0,26,36.4h0V3.6A3.59,3.59,0,0,0,22.42,0Zm1,36.4a1,1,0,0,1-1,1.09H3.57a1,1,0,0,1-1-1.09V31.24H23.4Zm0-7.66H2.6V10H23.4V28.75Zm0-21.25H2.6V3.6a1,1,0,0,1,1-1.09H22.42a1,1,0,0,1,1,1.09V7.49ZM13,36.24a1.88,1.88,0,1,0-1.95-1.87A1.92,1.92,0,0,0,13,36.25h0Zm2.6-32.5H10.4a1.25,1.25,0,0,0,0,2.5h5.2a1.25,1.25,0,1,0,.17-2.49H15.6Z"/></g></g></svg>