<svg xmlns="http://www.w3.org/2000/svg" viewBox="0 0 40 40"><g data-name="Layer 2"><g><path class="cls-1" d="M36.78,28.8a.38.38,0,0,1,.06-.33A17.9,17.9,0,0,0,40,18.63a19.25,19.25,0,0,0-.25-3.37,18,18,0,0,0-4.2-9A18.25,18.25,0,0,0,4.22,13.22a2.06,2.06,0,0,1-.45.85A15.49,15.49,0,0,0,.14,26.38,15.06,15.06,0,0,0,2.66,33a.4.4,0,0,1,.06.35l-1,4.34a1.09,1.09,0,0,0,.34,1.16,1.1,1.1,0,0,0,1.2.19l3.8-1.43a.36.36,0,0,1,.36,0,15.46,15.46,0,0,0,10.36,2.21,15.25,15.25,0,0,0,6.79-2.61,15.13,15.13,0,0,0,1.35-1c.14-.12.23-.28.44-.34a17.59,17.59,0,0,0,5.05-2.19.34.34,0,0,1,.35,0l4.63,1.74A1.13,1.13,0,0,0,38,34.06Zm-16.06,8A13.31,13.31,0,0,1,8.17,35.43a1.28,1.28,0,0,0-1.25-.15l-2.31.87c-.06,0-.12.07-.21,0l.42-1.92.24-1.09a1.12,1.12,0,0,0-.21-1A13.07,13.07,0,0,1,2.72,27.8a13.41,13.41,0,0,1,.7-9s0-.1.09-.12A18,18,0,0,0,8.87,31.13a18,18,0,0,0,12.51,5.36A3.78,3.78,0,0,1,20.72,36.79Zm13.76-7.92c.28,1.16.53,2.33.79,3.49,0,0,0,.11,0,.16s-.15,0-.22-.05L31.94,31.3a1.17,1.17,0,0,0-1.16.13A15.35,15.35,0,0,1,24.22,34a15.6,15.6,0,0,1-12.77-3.59,15.08,15.08,0,0,1-5.35-9A15.62,15.62,0,0,1,11.17,6.28,15.09,15.09,0,0,1,18.92,2.5,16,16,0,0,1,37.2,14.12a15.58,15.58,0,0,1-2.45,13.39A1.58,1.58,0,0,0,34.48,28.87Z"/><path class="cls-1" d="M22.88,13.13h-7a1.12,1.12,0,0,1-.17-2.24H30a1.13,1.13,0,1,1,0,2.25H22.88Z"/><path class="cls-1" d="M21.12,17.09h5.25a1.12,1.12,0,0,1,.24,2.23l-.27,0H15.88a1.13,1.13,0,1,1-.06-2.25h5.3Z"/><path class="cls-1" d="M19.34,23.32h3.48a1.13,1.13,0,1,1,0,2.25h-7.1a1.13,1.13,0,0,1-.28-2.21,1.64,1.64,0,0,1,.44,0Z"/></g></g></svg>