<svg xmlns="http://www.w3.org/2000/svg" viewBox="0 0 40 39.36"><g data-name="Layer 2"><g><path class="cls-1" d="M22.93,13.73l1-1.6A.72.72,0,0,0,23.74,11l-.43-.32a.72.72,0,0,0-1.23.26L20,14.63l-.38.64a1.21,1.21,0,0,1-1.63.59c-2-.83-4-1.63-6.07-2.45a2.36,2.36,0,0,0-.87-.17c-2.33,0-4.66,0-7,0A1.73,1.73,0,0,0,2.24,15c0,3.16,0,6.31,0,9.46,0,.22,0,.27.27.27h10c.23,0,.29-.05.29-.28,0-1.63,0-3.25,0-4.87a1.17,1.17,0,0,1,1.63-1.17c.52.2,1.05.36,1.58.53.15.05.15.09.08.21a12.15,12.15,0,0,0-.87,1.68,12.48,12.48,0,0,0-1,5.5c0,.65,0,.65-.62.65H1.35A2,2,0,0,1,.81,27a1.13,1.13,0,0,1-.81-1v-11a3.85,3.85,0,0,1,3.13-3.82A3.65,3.65,0,0,1,3.94,11h7.19a4,4,0,0,1,1.51.3l5.17,2.08c.2.09.28,0,.37-.14.64-1.13,1.29-2.26,1.94-3.39a2.94,2.94,0,0,1,3.53-1.49c.18.05.21-.06.28-.16l4.74-7.11a1.13,1.13,0,1,1,2,1.09c-.17.28-.36.55-.55.83-1.44,2.16-2.88,4.33-4.33,6.49a.27.27,0,0,0,0,.38,2.91,2.91,0,0,1,.29,3.1.35.35,0,0,1-.34.23,12.24,12.24,0,0,0-2.47.47A.73.73,0,0,1,22.93,13.73Z"/><path class="cls-1" d="M39.61,37.39c-1.41-1.38-2.84-2.76-4.26-4.13-.12-.12-.15-.18,0-.34a10.87,10.87,0,0,0,2.44-9.17,11.15,11.15,0,0,0-11.16-9.1,10.48,10.48,0,0,0-1.89.2,11.11,11.11,0,0,0,1.38,22,10.9,10.9,0,0,0,7.25-2.08c.16-.12.25-.1.38,0,.9.89,1.81,1.77,2.72,2.65C37,38,37.52,38.51,38.07,39a1.13,1.13,0,1,0,1.54-1.64ZM26.85,34.61a8.86,8.86,0,1,1,8.85-8.82A8.84,8.84,0,0,1,26.85,34.61Z"/><path class="cls-1" d="M7.07,0a5.25,5.25,0,1,0,5.26,5.24A5.24,5.24,0,0,0,7.07,0Zm0,8.25a3,3,0,1,1,3-3A3,3,0,0,1,7.07,8.25Z"/></g></g></svg>