<svg xmlns="http://www.w3.org/2000/svg" viewBox="0 0 41.03 40"><g data-name="Layer 2"><g><path class="cls-1" d="M24.29,14.59c.39-.61.77-1.2,1.14-1.8a.74.74,0,0,0-.19-1c-.19-.16-.39-.31-.59-.46a.78.78,0,0,0-1.26.26l-2.67,4.69a1.21,1.21,0,0,1-1.67.58L12.52,14.2a2,2,0,0,0-.79-.16H4.21a1.76,1.76,0,0,0-1.87,1.85c0,3.4,0,6.8,0,10.2,0,.17,0,.22.21.22H13.39c.16,0,.21,0,.21-.2,0-1.79,0-3.59,0-5.39a1.18,1.18,0,0,1,1.29-1.23,1.31,1.31,0,0,1,.27.06l1.83.61c.14,0,.14.08.07.2-.36.58-.63,1.21-.95,1.82-.18.36-.23.75-.38,1.11a7.34,7.34,0,0,0-.32,1.2q-.13.61-.21,1.23c0,.41-.08.82-.09,1.24a8.56,8.56,0,0,0,0,1.24c0,.45,0,.46-.45.46H1.29A1.18,1.18,0,0,1,0,27.36v-9.9c0-.58,0-1.17,0-1.76a4.07,4.07,0,0,1,4.06-4h7.8a3.87,3.87,0,0,1,1.5.31l5.54,2.24c.17.07.23,0,.32-.12.7-1.25,1.42-2.5,2.13-3.75a3.09,3.09,0,0,1,3.7-1.48c.16,0,.19-.05.25-.14l5.07-7.62a1.18,1.18,0,1,1,2,1.25c-.46.71-.94,1.41-1.41,2.12-1.24,1.87-2.47,3.73-3.72,5.59a.28.28,0,0,0,0,.38,3.07,3.07,0,0,1,.29,3.37c0,.08-.07.15-.19.16a13.68,13.68,0,0,0-3,.59Z"/><path class="cls-1" d="M28.56,15A12.52,12.52,0,1,0,41,27.62,12.49,12.49,0,0,0,28.56,15Zm0,22.68A10.17,10.17,0,1,1,38.68,27.5,10.15,10.15,0,0,1,28.55,37.65Z"/><path class="cls-1" d="M7.49,0A5.56,5.56,0,1,0,13,5.57,5.54,5.54,0,0,0,7.49,0Zm0,8.77a3.21,3.21,0,1,1,3.19-3.19A3.21,3.21,0,0,1,7.49,8.77Z"/><path class="cls-1" d="M35.15,24.26a1.22,1.22,0,0,1-.41.89L29.89,30l-2.65,2.66a1.18,1.18,0,0,1-1.83,0l-2.83-2.84a1.13,1.13,0,0,1-.32-1.2,1.08,1.08,0,0,1,.87-.81,1.15,1.15,0,0,1,1.12.35c.64.65,1.29,1.29,1.93,1.95.12.12.18.12.3,0l6.6-6.63a1.19,1.19,0,0,1,1.21-.37A1.17,1.17,0,0,1,35.15,24.26Z"/></g></g></svg>