<svg id="Layer_1" data-name="Layer 1" xmlns="http://www.w3.org/2000/svg" viewBox="0 0 128 128">
  <g>
    <path d="M80,280V152H208V280Zm49.65666-31.46744c-2.06216-.455-4.11788-1.26507-6.1876-1.30257-8.32314-.15081-16.65066-.04374-24.97645-.06873-6.77105-.02032-8.64426-1.84911-8.65174-8.53479q-.03351-29.97308-.00687-59.9462c.002-8.7127,2.75566-10.98546,11.30645-9.12117,1.86786,2.20245,3.915,4.941,6.35765,5.35709,3.95754.67409,9.07946,1.69419,10.11917-4.81593a2.15943,2.15943,0,0,1,1.69075-1.29309,2.20344,2.20344,0,0,1,1.43269,1.57582c.47288,5.09286,4.14866,4.7545,7.73128,4.8061,3.54224.051,6.76837-.12114,7.44054-4.68535.101-.6857,1.13052-1.23465,1.73051-1.84685.51157.70821,1.014,1.42325,1.53664,2.12318,1.03239,1.38255,1.79057,3.44216,3.16489,4.0144,5.61612,2.33843,10.55741-.14374,12.65329-5.91537,11.07714-1.31048,13.48933.78934,13.49559,11.75041.00324,5.66159-.15232,11.33053.11293,16.97975.06937,1.47734,1.44407,2.89338,2.21927,4.33757,1.00074-1.45736,2.80258-2.88081,2.866-4.37787.30266-7.14736.29479-14.31934.08854-21.47366-.22426-7.77927-4.71427-12.29908-12.45425-12.86952-2.25728-.16636-4.53719-.02557-7.07079-.02557.15919-4.72192-.6463-7.92356-5.742-8.08105-7.05685-.21812-7.50418-.04275-9.43431,6.26653-.20913.68362-1.203,1.12718-1.83285,1.68209-.46793-.72486-1.32093-1.43827-1.34288-2.17639-.17609-5.92068-4.26979-5.75117-8.46693-5.75646-3.80633-.0048-6.56932.88362-6.68447,5.4315-.02135.84321-1.03581,1.66127-1.59192,2.49094-.569-.83224-1.09591-1.69734-1.71545-2.49006-1.40373-1.79613-2.55293-4.6498-4.33661-5.13954-7.15985-1.96584-10.092.16776-11.476,7.49849-2.23858.18523-4.562.21468-6.82627.59592-6.332,1.06614-10.22215,5.23123-10.25654,11.58187q-.17856,32.96939.01225,65.94011c.04521,6.73755,4.67273,11.26714,11.42263,11.4007,9.82067.19432,19.64931-.03676,29.47172.10706,3.116.04562,4.17148-1.34619,4.12589-4.12222.7915,1.60265,1.69416,3.16075,2.35707,4.81494a37.05958,37.05958,0,0,0,71.56364-14.68923c-.53826-21.59654-18.24666-37.07288-40.80953-35.66567-19.64649,1.22531-34.95483,19.9054-33.06615,40.29571C129.79028,244.95358,129.65371,246.74953,129.65666,248.53256ZM111.38237,202.9941a8.48039,8.48039,0,0,0,8.744-8.354,8.62455,8.62455,0,1,0-17.247-.255A8.503,8.503,0,0,0,111.38237,202.9941Zm25.436.00053a8.40034,8.40034,0,0,0,8.66144-8.40648,8.29786,8.29786,0,0,0-8.27932-8.7415,8.53016,8.53016,0,0,0-9.01789,8.61149A8.62931,8.62931,0,0,0,136.81841,202.99463Zm-16.68508,15.62686a8.61855,8.61855,0,1,0-8.56633,8.53331A8.3654,8.3654,0,0,0,120.13333,218.62149Z" transform="translate(-80 -152)" style="fill: #fff"/>
    <path d="M129.5606,248.403c.06646,2.80276-.989,4.19457-4.105,4.14895-9.82241-.14382-19.651.08726-29.47172-.10706-6.7499-.13356-11.37742-4.66315-11.42263-11.4007Q84.34,208.07525,84.549,175.10405c.03439-6.35064,3.92452-10.51573,10.25654-11.58187,2.26423-.38124,4.58769-.41069,6.82627-.59592,1.384-7.33073,4.31612-9.46433,11.476-7.49849,1.78368.48974,2.93288,3.34341,4.33661,5.13954.61954.79272,1.14647,1.65782,1.71545,2.49006.55611-.82967,1.57057-1.64773,1.59192-2.49094.11515-4.54788,2.87814-5.4363,6.68447-5.4315,4.19714.00529,8.29084-.16422,8.46693,5.75646.022.73812.87495,1.45153,1.34288,2.17639.62986-.55491,1.62372-.99847,1.83285-1.68209,1.93013-6.30928,2.37746-6.48465,9.43431-6.26653,5.09565.15749,5.90114,3.35913,5.742,8.08105,2.5336,0,4.81351-.14079,7.07079.02557,7.74.57044,12.23,5.09025,12.45425,12.86952.20625,7.15432.21412,14.3263-.08854,21.47366-.0634,1.49706-1.86524,2.92051-2.866,4.37787-.7752-1.44419-2.1499-2.86023-2.21927-4.33757-.26525-5.64922-.10969-11.31816-.11293-16.97975-.00626-10.96107-2.41845-13.06089-13.49559-11.75041-2.09588,5.77163-7.03717,8.2538-12.65329,5.91537-1.37432-.57224-2.1325-2.63185-3.16489-4.0144-.52266-.69993-1.02507-1.415-1.53664-2.12318-.6.6122-1.62953,1.16115-1.73051,1.84685-.67217,4.56421-3.8983,4.73636-7.44054,4.68535-3.58262-.0516-7.2584.28676-7.73128-4.8061a2.20344,2.20344,0,0,0-1.43269-1.57582,2.15943,2.15943,0,0,0-1.69075,1.29309c-1.03971,6.51012-6.16163,5.49-10.11917,4.81593-2.44269-.41608-4.48979-3.15464-6.35765-5.35709-8.55079-1.86429-11.30446.40847-11.30645,9.12117q-.00681,29.9731.00687,59.9462c.00748,6.68568,1.88069,8.51447,8.65174,8.53479,8.32579.025,16.65331-.08208,24.97645.06873,2.06972.0375,4.12544.84759,6.1876,1.30257Zm-17.208-79.04121c-1.46136-2.94334,2.43645-7.07-2.6917-8.51129-.20857-.05862-1.73153,3.3597-2.0768,5.26075C107.02773,169.17434,108.208,170.82026,112.35255,169.36176ZM126.155,170.371c1.749-.63993,3.88147-.93542,3.97249-1.53885a23.42329,23.42329,0,0,0-.12139-7.31911c-.08151-.48115-2.31-.59859-3.8511-.95336Zm22.6697-10.45285c-1.8922.957-3.88872,1.40551-3.989,2.12008a23.2291,23.2291,0,0,0,.26424,7.27912c.07424.40946,2.3816.414,3.72475.61572Z" transform="translate(-80 -152)"/>
    <path d="M129.65666,248.53256c-.00295-1.783.13362-3.579-.03016-5.34711-1.88868-20.39031,13.41966-39.0704,33.06615-40.29571,22.56287-1.40721,40.27127,14.06913,40.80953,35.66567a37.05958,37.05958,0,0,1-71.56364,14.68923c-.66291-1.65419-1.56557-3.21229-2.3675-4.8283C129.5606,248.403,129.65666,248.53256,129.65666,248.53256Zm68.51005-8.53766a31.668,31.668,0,1,0-31.94993,31.49125A31.5505,31.5505,0,0,0,198.16671,239.9949Z" transform="translate(-80 -152)"/>
    <path d="M111.38237,202.9941a8.503,8.503,0,0,1-8.503-8.609,8.62455,8.62455,0,1,1,17.247.255A8.48039,8.48039,0,0,1,111.38237,202.9941Zm4.82854-8.12938c-1.97476-1.768-3.20622-3.679-4.19519-3.56085-1.38137.16508-2.58173,1.845-3.85954,2.87672.96451,1.172,1.8574,3.212,2.91143,3.29891C112.41955,197.59105,113.90107,196.13214,116.21091,194.86472Z" transform="translate(-80 -152)"/>
    <path d="M136.81841,202.99463a8.62931,8.62931,0,0,1-8.63577-8.53649,8.53016,8.53016,0,0,1,9.01789-8.61149,8.29786,8.29786,0,0,1,8.27932,8.7415A8.40034,8.40034,0,0,1,136.81841,202.99463Zm4.93842-8.58022c-2.42367-1.61273-3.75129-3.17355-5.0361-3.13907-1.04852.02813-2.84687,1.96325-2.84576,3.05135.00117,1.13963,1.7091,3.14389,2.7491,3.19545C137.90671,197.58572,139.26994,196.02362,141.75683,194.41441Z" transform="translate(-80 -152)"/>
    <path d="M120.13333,218.62149a8.61754,8.61754,0,1,1-8.42721-8.6171A8.44182,8.44182,0,0,1,120.13333,218.62149Zm-8.99639,4.80822c1.78305-2.29119,3.4777-3.536,3.56725-4.88711.06826-1.03-1.83251-2.97741-2.9799-3.075-1.09971-.09352-3.23514,1.59408-3.32614,2.6375C108.28122,219.44575,109.75014,220.92467,111.13694,223.42971Z" transform="translate(-80 -152)"/>
    <path d="M112.35255,169.36176c-4.14458,1.4585-5.32482-.18742-4.7685-3.25054.34527-1.901,1.86823-5.31937,2.0768-5.26075C114.789,162.29172,110.89119,166.41842,112.35255,169.36176Z" transform="translate(-80 -152)" style="fill: #fff"/>
    <path d="M126.155,170.371v-9.81132c1.54107.35477,3.76959.47221,3.8511.95336a23.42329,23.42329,0,0,1,.12139,7.31911C130.03643,169.43558,127.90392,169.73107,126.155,170.371Z" transform="translate(-80 -152)" style="fill: #fff"/>
    <path d="M148.82466,159.91815v10.01492c-1.34315-.2017-3.65051-.20626-3.72475-.61572a23.2291,23.2291,0,0,1-.26424-7.27912C144.93594,161.32366,146.93246,160.87516,148.82466,159.91815Z" transform="translate(-80 -152)" style="fill: #fff"/>
    <path d="M198.16671,239.9949a31.66786,31.66786,0,1,1-31.37509-31.99472A31.61815,31.61815,0,0,1,198.16671,239.9949Zm-32.64049,8.397c2.27245-.7737,4.22054-.82373,4.97269-1.79751,3.56071-4.60993,8.46242-3.53748,13.13888-3.59567,1.33049-.01656,2.79149.28323,3.95164-.17383a3.92371,3.92371,0,0,0,2.3112-2.5504c.05226-.73943-1.42379-2.122-2.38258-2.28821a38.42712,38.42712,0,0,0-6.47051-.15171c-8.04778-.0066-12.53583-4.42267-12.54118-12.35063-.001-1.49777.32161-3.09128-.086-4.4687a26.06781,26.06781,0,0,0-2.44614-4.698,49.35758,49.35758,0,0,0-2.75,4.51039c-.32668.67415-.04272,1.63805-.05895,2.46984-.08483,4.34641.71928,8.64513-3.27845,12.33714-1.398,1.29113-1.24223,5.58245-.23331,7.78924C160.64974,245.60276,163.62122,246.87862,165.52622,248.39186Z" transform="translate(-80 -152)" style="fill: #fff"/>
    <path d="M116.21091,194.86472c-2.30984,1.26742-3.79136,2.72633-5.1433,2.61478-1.054-.087-1.94692-2.12687-2.91143-3.29891,1.27781-1.03173,2.47817-2.71164,3.85954-2.87672C113.00469,191.1857,114.23615,193.09673,116.21091,194.86472Z" transform="translate(-80 -152)" style="fill: #fff"/>
    <path d="M141.75683,194.41441c-2.48689,1.60921-3.85012,3.17131-5.13276,3.10773-1.04-.05156-2.74793-2.05582-2.7491-3.19545-.00111-1.0881,1.79724-3.02322,2.84576-3.05135C138.00554,191.24086,139.33316,192.80168,141.75683,194.41441Z" transform="translate(-80 -152)" style="fill: #fff"/>
    <path d="M111.13694,223.42971c-1.3868-2.505-2.85572-3.984-2.73879-5.32458.091-1.04342,2.22643-2.731,3.32614-2.6375,1.14739.09756,3.04816,2.045,2.9799,3.075C114.61464,219.89375,112.92,221.13852,111.13694,223.42971Z" transform="translate(-80 -152)" style="fill: #fff"/>
    <path d="M165.52622,248.39186c-1.905-1.51324-4.87648-2.7891-5.87267-4.968-1.00892-2.20679-1.16473-6.49811.23331-7.78924,3.99773-3.692,3.19362-7.99073,3.27845-12.33714.01623-.83179-.26773-1.79569.05895-2.46984a49.35758,49.35758,0,0,1,2.75-4.51039,26.06781,26.06781,0,0,1,2.44614,4.698c.40762,1.37742.085,2.97093.086,4.4687.00535,7.928,4.4934,12.344,12.54118,12.35063a38.42712,38.42712,0,0,1,6.47051.15171c.95879.1662,2.43484,1.54878,2.38258,2.28821a3.92371,3.92371,0,0,1-2.3112,2.5504c-1.16015.45706-2.62115.15727-3.95164.17383-4.67646.05819-9.57817-1.01426-13.13888,3.59567C169.74676,247.56813,167.79867,247.61816,165.52622,248.39186Z" transform="translate(-80 -152)"/>
  </g>
</svg>
