<svg xmlns="http://www.w3.org/2000/svg" viewBox="0 0 40 36.5"><g data-name="Layer 2"><g><path d="M38.26.07A2.26,2.26,0,0,1,40,2.41V34a2.3,2.3,0,0,1-1.81,2.51s0,0,0,0H22.93a4.7,4.7,0,0,1-.66-.24A2.27,2.27,0,0,1,21,34.11c0-3.47,0-6.94,0-10.41,0-6.94,0-13.88,0-20.82A2.59,2.59,0,0,1,22.86,0H38.14ZM37.72,3.6a1.16,1.16,0,0,0-1.31-1.32H24.55a1.16,1.16,0,0,0-1.26,1.27V33a1.15,1.15,0,0,0,1.26,1.26h11.9a1.15,1.15,0,0,0,1.27-1.28V3.6Z"/><path d="M17.27.07A2.26,2.26,0,0,1,19,2.41V34a2.3,2.3,0,0,1-1.81,2.51s0,0-.05,0H1.94a4.7,4.7,0,0,1-.66-.24A2.27,2.27,0,0,1,0,34.11c0-3.47,0-6.94,0-10.41C0,16.76,0,9.82,0,2.88A2.59,2.59,0,0,1,1.87,0H17.15ZM16.73,3.6a1.16,1.16,0,0,0-1.31-1.32H3.56A1.16,1.16,0,0,0,2.3,3.55V33a1.15,1.15,0,0,0,1.26,1.26h11.9a1.15,1.15,0,0,0,1.27-1.28V3.6Z"/></g></g></svg>