<svg xmlns="http://www.w3.org/2000/svg" viewBox="0 0 40 36.94"><g data-name="Layer 2"><g><path d="M8,30.71h-.2c-.78,0-1.56,0-2.34,0A5.71,5.71,0,0,1,.22,26.57,5.59,5.59,0,0,1,0,25.05C0,18.59,0,12.12,0,5.66A5.67,5.67,0,0,1,4.85.07a6.24,6.24,0,0,1,1-.06Q20,0,34.18,0A5.57,5.57,0,0,1,39.51,3.4,5.33,5.33,0,0,1,40,5.73c0,6.45,0,12.9,0,19.35a5.68,5.68,0,0,1-4.92,5.57,7.46,7.46,0,0,1-1,.05q-8.1,0-16.21,0a.48.48,0,0,0-.31.1q-3.8,2.93-7.58,5.86a1.24,1.24,0,0,1-2-.58,1.92,1.92,0,0,1,0-.41C8,34.1,8,32.53,8,31Zm2.45,2.51h0l.13-.1,5.87-4.53a1.53,1.53,0,0,1,1-.35h16.8A3.25,3.25,0,0,0,37.55,25q0-9.64,0-19.29a3.24,3.24,0,0,0-3.27-3.26H5.73a3.31,3.31,0,0,0-.55,0A3.26,3.26,0,0,0,2.44,5.76q0,9.59,0,19.19a3.08,3.08,0,0,0,0,.53,3.26,3.26,0,0,0,3.28,2.78c1.11,0,2.23,0,3.34,0a1.44,1.44,0,0,1,.54.1,1.19,1.19,0,0,1,.74,1.18c0,.66,0,1.32,0,2Z"/></g></g></svg>