<svg xmlns="http://www.w3.org/2000/svg" viewBox="0 0 40 39.97"><g data-name="Layer 2"><g><path d="M37,29.49l-5-5a3.52,3.52,0,0,0-5,0l-2.26,2.26a2.67,2.67,0,0,1-3.77,0h0L13.2,19a2.66,2.66,0,0,1,0-3.76h0l2.26-2.26a3.51,3.51,0,0,0,0-5h0l-5-5a3.52,3.52,0,0,0-5,0L3.86,4.65a12.68,12.68,0,0,0-.29,17.93l.14.14L17.3,36.27a12.7,12.7,0,0,0,18-.05l.11-.1h0L37,34.46A3.52,3.52,0,0,0,37,29.49ZM7.18,4.65a1.18,1.18,0,0,1,1.66,0h0l5,5a1.17,1.17,0,0,1,0,1.66h0L13,12.1,6.35,5.47ZM19,34.61,5.36,21.06a10.35,10.35,0,0,1-.64-13.9l6.6,6.6a5,5,0,0,0,.22,6.84l7.86,7.83a5,5,0,0,0,6.85.22l6.6,6.6A10.35,10.35,0,0,1,19,34.61Zm16.43-1.8-.83.83L27.93,27l.83-.83a1.18,1.18,0,0,1,1.65,0h0l5,5a1.17,1.17,0,0,1,0,1.66ZM36.5,0H22.42A3.53,3.53,0,0,0,18.9,3.53v9.36a3.53,3.53,0,0,0,3.52,3.52h1.17v3.51a1.18,1.18,0,0,0,1.18,1.17,1.15,1.15,0,0,0,.82-.34l4.35-4.34h6.54A3.53,3.53,0,0,0,40,12.89V3.53A3.52,3.52,0,0,0,36.49,0h0Zm1.17,12.88a1.18,1.18,0,0,1-1.17,1.18h-7a1.13,1.13,0,0,0-.82.34l-2.69,2.68V15.24a1.17,1.17,0,0,0-1.17-1.17H22.42a1.18,1.18,0,0,1-1.17-1.18V3.53a1.18,1.18,0,0,1,1.17-1.18H36.49a1.17,1.17,0,0,1,1.17,1.18v9.36h0ZM34.15,4.7H24.77a1.16,1.16,0,0,0-1.22,1.12A1.17,1.17,0,0,0,24.67,7h9.47a1.18,1.18,0,1,0,0-2.35Zm-4.7,4.67H24.77a1.17,1.17,0,1,0-.1,2.34h4.79a1.17,1.17,0,0,0,1.21-1.13,1.16,1.16,0,0,0-1.12-1.21Z"/></g></g></svg>