<svg preserveAspectRatio="xMidYMid meet" viewBox="0 0 128 128" xmlns="http://www.w3.org/2000/svg"><path d="m508 1181c-74-24-122-53-186-115-55-53-101-124-122-188-6-21-18-38-26-38s-37-22-63-49c-41-40-51-58-61-107-19-90-7-215 25-270 28-47 87-87 145-99 19-4 51-22 70-41 44-42 107-69 193-84 52-9 74-19 97-41 26-27 34-29 100-29 83 0 107 10 125 53 17 42 9 83-23 107-20 16-40 20-104 20-69 0-82-3-102-23-13-13-25-29-27-36-6-16-120 9-177 38-42 21-72 51-53 51 6 0 20 15 31 33 18 29 20 50 20 220 0 158-3 193-17 217-17 30-51 50-83 50-26 0-25 11 4 68 103 200 349 288 549 194 79-36 158-108 198-177 38-66 38-85-1-85-42 0-74-17-93-50-14-23-17-59-17-215 0-207 6-232 62-261 68-35 187 11 233 90 32 55 44 180 25 270-10 50-20 67-63 110-32 32-58 69-68 98-50 139-177 255-323 294-72 19-199 17-268-5zm-204-403c13-18 16-55 16-199 0-192-2-198-61-212-35-9-108 29-136 71-43 66-40 236 6 300 42 60 145 83 175 40zm813-6c51-36 68-84 68-192 0-131-31-183-127-212-34-10-42-9-66 9l-27 20-3 178c-3 217 2 230 78 223 26-3 61-14 77-26zm-373-528c19-7 21-45 4-62-16-16-120-16-136 0-7 7-12 19-12 28s5 21 12 28c12 12 104 17 132 6z" transform="matrix(.1 0 0 -.1 0 128)"/></svg>