<svg id="Layer_1" data-name="Layer 1" xmlns="http://www.w3.org/2000/svg" viewBox="0 0 128 128">
  <g>
    <path d="M208,280H80V152H208ZM105.46332,193.86392c2.57382-12.83614,18.90366-29.901,41.73364-28.95547,17.02366.705,34.91457,14.17,37.645,29.23793-1.29922.15782-2.59063.2781-3.87.47631-6.15073.95292-9.96423,4.91347-10.06889,11.13429-.17935,10.66107-.20261,21.33019.00223,31.9903.12914,6.72048,5.40374,11.34632,12.15988,11.23445,9.661-.16,18.73775-7.451,19.97084-17.05422a105.526,105.526,0,0,0,.23354-19.38493c-.35523-6.17726-3.979-10.72533-8.76243-14.5132a11.23376,11.23376,0,0,1-3.5923-4.89407c-6.5347-19.55784-24.0248-33.0512-43.499-33.33977-22.47-.333-40.019,11.59018-47.48088,31.9988a10.38438,10.38438,0,0,1-4.18629,4.91133c-6.107,3.64317-10.31645,8.59534-11.00463,15.73231a89.9566,89.9566,0,0,0-.22964,16.924c.99207,10.58831,7.391,17.16677,17.81784,19.409,1.38608.29807,3.14517.55035,3.97238,1.49124,6.61958,7.52931,15.46,10.00419,24.84776,11.39975,1.454.21616,3.67259.19337,4.18524,1.071,4.55361,7.7956,12.01111,5.05487,18.4849,5.11475,4.48443.04148,7.82281-4.31808,7.83214-8.83889a8.87022,8.87022,0,0,0-8.16237-9.09913c-2.818-.20795-5.66605.02944-8.49379-.09182-4.00889-.17192-7.10749,1.16273-9.203,4.74249-.49242.84119-1.65347,1.93843-2.41783,1.87325-8.03747-.68534-15.632-2.61727-22.14558-8.65959,5.43167-3.70359,6.13363-8.76349,5.98429-14.32746-.20558-7.65936-.05074-15.32836-.05166-22.99324C117.16348,199.25121,115.80048,197.31961,105.46332,193.86392Z" transform="translate(-80 -152)" style="fill: #fff"/>
    <path d="M105.46332,193.86392c10.33716,3.45569,11.70016,5.38729,11.70149,16.5895.00092,7.66488-.15392,15.33388.05166,22.99324.14934,5.564-.55262,10.62387-5.98429,14.32746,6.51353,6.04232,14.10811,7.97425,22.14558,8.65959.76436.06518,1.92541-1.03206,2.41783-1.87325,2.09552-3.57976,5.19412-4.91441,9.203-4.74249,2.82774.12126,5.67583-.11613,8.49379.09182a8.87022,8.87022,0,0,1,8.16237,9.09913c-.00933,4.52081-3.34771,8.88037-7.83214,8.83889-6.47379-.05988-13.93129,2.68085-18.4849-5.11475-.51265-.87765-2.73121-.85486-4.18524-1.071-9.38774-1.39556-18.22818-3.87044-24.84776-11.39975-.82721-.94089-2.5863-1.19317-3.97238-1.49124-10.42688-2.24225-16.82577-8.82071-17.81784-19.409a89.9566,89.9566,0,0,1,.22964-16.924c.68818-7.137,4.89758-12.08914,11.00463-15.73231a10.38438,10.38438,0,0,0,4.18629-4.91133c7.46191-20.40862,25.01089-32.33176,47.48088-31.9988,19.47416.28857,36.96426,13.78193,43.499,33.33977a11.23376,11.23376,0,0,0,3.5923,4.89407c4.78345,3.78787,8.4072,8.33594,8.76243,14.5132a105.526,105.526,0,0,1-.23354,19.38493c-1.23309,9.6032-10.30983,16.89426-19.97084,17.05422-6.75614.11187-12.03074-4.514-12.15988-11.23445-.20484-10.66011-.18158-21.32923-.00223-31.9903.10466-6.22082,3.91816-10.18137,10.06889-11.13429,1.27933-.19821,2.57074-.31849,3.87-.47631-2.73046-15.06789-20.62137-28.53289-37.645-29.23793C124.367,163.963,108.03714,181.02778,105.46332,193.86392Zm70.55685,27.594c0,4.98332-.111,9.96978.03052,14.94908.14822,5.2145,3.41294,7.83037,8.5137,7.08488,7.012-1.02484,12.78306-6.30747,13.451-13.36408a88.3799,88.3799,0,0,0-.0756-17.37211c-.71222-6.844-7.202-12.41708-13.88406-12.87838-5.14294-.355-7.878,1.987-8.0112,7.12967C175.91986,211.82094,176.01787,216.64069,176.02017,221.4579Zm-64.04245.18961c0-5.00222.12475-10.00848-.03647-15.00551-.14951-4.634-2.788-6.91628-7.41055-6.80172-6.90608.17116-13.70219,5.79372-14.46492,12.897a88.37823,88.37823,0,0,0-.07551,17.43736c.61851,6.71387,6.27533,12.13851,12.58622,13.14615,6.14819.98165,9.29859-1.5496,9.39264-7.66718C112.04089,230.98591,111.98339,226.31627,111.97772,221.64751Zm36.47288,41.25228c2.60511-.66212,7.53784,1.55882,7.5308-3.94665-.00686-5.37062-4.77079-3.79759-7.92217-3.86614-3.24338-.07055-7.97294-1.22315-7.81049,4.03891C140.39512,263.867,144.89034,262.62876,148.4506,262.89979Z" transform="translate(-80 -152)"/>
    <path d="M176.019,221.4579c-.00116-4.81721-.09917-9.637.02554-14.45094.13322-5.1427,2.86826-7.48471,8.0112-7.12967,6.682.4613,13.17184,6.0344,13.88406,12.87838a88.3799,88.3799,0,0,1,.0756,17.37211c-.668,7.05661-6.43908,12.33924-13.451,13.36408-5.10076.74549-8.36548-1.87038-8.5137-7.08488C175.90915,231.42768,176.02017,226.44122,176.019,221.4579Z" transform="translate(-80 -152)" style="fill: #fff"/>
    <path d="M111.98055,221.64751c.00284,4.66876.06034,9.3384-.01142,14.006-.09405,6.11758-3.24445,8.64883-9.39264,7.66718-6.31089-1.00764-11.96771-6.43228-12.58622-13.14615a88.37823,88.37823,0,0,1,.07551-17.43736c.76273-7.10323,7.55884-12.72579,14.46492-12.897,4.62251-.11456,7.261,2.16773,7.41055,6.80172C112.10247,211.639,111.97772,216.64529,111.98055,221.64751Z" transform="translate(-80 -152)" style="fill: #fff"/>
    <path d="M148.4506,262.89979c-3.56026-.271-8.05548.9672-8.20186-3.77388-.16245-5.26206,4.56711-4.10946,7.81049-4.03891,3.15138.06855,7.91531-1.50448,7.92217,3.86614C155.98844,264.45861,151.05571,262.23767,148.4506,262.89979Z" transform="translate(-80 -152)" style="fill: #fff"/>
  </g>
</svg>
