<svg xmlns="http://www.w3.org/2000/svg" viewBox="0 0 38.76 40"><g data-name="Layer 2"><g><path d="M19.38,0A14.64,14.64,0,0,0,4.76,14.62v1.59h3V14.62a11.65,11.65,0,0,1,23.3,0v1.59h3V14.62A14.64,14.64,0,0,0,19.38,0Z"/><path d="M8.33,14.72H4.66A4.66,4.66,0,0,0,0,19.38v6.79a4.66,4.66,0,0,0,4.66,4.66H8.33a1.49,1.49,0,0,0,1.48-1.49V16.21A1.49,1.49,0,0,0,8.33,14.72ZM6.84,27.86H4.66A1.67,1.67,0,0,1,3,26.17V19.38A1.67,1.67,0,0,1,4.66,17.7H6.84Z"/><path d="M34.1,14.72H30.43A1.49,1.49,0,0,0,29,16.21V29.34a1.49,1.49,0,0,0,1.48,1.49H34.1a4.66,4.66,0,0,0,4.66-4.66V19.38A4.66,4.66,0,0,0,34.1,14.72Zm1.69,11.45a1.67,1.67,0,0,1-1.69,1.69H31.92V17.7H34.1a1.67,1.67,0,0,1,1.69,1.68v6.79Z"/><path d="M32.07,29.34a3.77,3.77,0,0,1-3.77,3.77h-4v3h4A6.74,6.74,0,0,0,35,29.34Z"/><path d="M25.77,34.56a5.27,5.27,0,1,0-1.43,3.78A5.1,5.1,0,0,0,25.77,34.56Zm-3.58,1.72a2.46,2.46,0,0,1-1.77.75,2.5,2.5,0,0,1-2.48-2.43,2.43,2.43,0,0,1,4.86,0v.06A2.17,2.17,0,0,1,22.19,36.28Z"/></g></g></svg>