<svg preserveAspectRatio="xMidYMid meet" viewBox="0 0 128 128" xmlns="http://www.w3.org/2000/svg"><path d="m465 1261c-219-64-393-241-449-458-20-76-21-249-2-321 60-225 243-408 468-468 68-18 248-18 315 0 81 22 191 77 262 132 5 4-72 94-80 94-4 0-30-16-59-35-225-151-556-84-708 145-61 91-87 176-87 290 0 246 151 439 391 500 97 25 151 25 248 0 134-34 232-102 305-211 58-87 81-169 88-319 5-115 4-127-14-149-14-17-30-24-52-24-57 0-65 18-71 167-5 124-8 137-38 199-71 143-232 232-386 213-32-4-86-22-126-42-286-143-276-553 17-686 138-62 298-36 413 69 22 19 40 30 40 24s21-25 47-41c86-55 198-35 260 47 27 35 28 41 31 176 4 167-8 247-53 344-82 177-239 310-422 357-83 22-259 20-338-3zm291-399c48-25 100-81 121-131 23-54 20-151-7-205-28-59-91-113-154-131-62-19-90-19-152 0-65 19-116 63-148 127-67 135-1 301 140 354 52 19 148 12 200-14z" transform="matrix(.1 0 0 -.1 0 128)"/></svg>