<svg id="Layer_1" data-name="Layer 1" xmlns="http://www.w3.org/2000/svg" viewBox="0 0 128 128">
  <g>
    <path d="M208,280H80q0-64,0-128l128,0Q208,216,208,280Zm-64.10662-4.95546c32.43662.71165,59.18429-26.39664,59.2684-58.81828a59.1841,59.1841,0,1,0-118.36788-.16657C84.8186,248.32,111.32143,275.66557,143.89338,275.04454Z" transform="translate(-80 -152)" style="fill: #fff"/>
    <path d="M143.89338,275.04454c-32.57195.621-59.07478-26.72457-59.09948-58.98485a59.1841,59.1841,0,1,1,118.36788.16657C203.07767,248.6479,176.33,275.75619,143.89338,275.04454ZM88.01364,215.84373c-.0308,30.50776,25.5107,56.29616,56.04313,56.07923a56.22139,56.22139,0,0,0,55.84923-55.7441c.30221-30.47371-25.6162-56.17824-56.01675-56.15526C113.73871,160.0464,88.044,185.71556,88.01364,215.84373Z" transform="translate(-80 -152)"/>
    <path d="M88.01364,215.84373c.0304-30.12817,25.72507-55.79733,55.87561-55.82013,30.40055-.023,56.319,25.68155,56.01675,56.15526a56.22139,56.22139,0,0,1-55.84923,55.7441C113.52434,272.13989,87.98284,246.35149,88.01364,215.84373Zm55.87564-9.05274c-2.83058,10.43805-5.57762,20.5808-8.33229,30.72147-1.68049,6.18631-.10871,10.58335,4.5213,11.97586,3.80823,1.14534,6.47277-.82943,8.06388-4.0229.754-1.51331.57694-3.49049.82168-5.25752l-1.65984-.22476a8.46,8.46,0,0,1-1.46788,2.40131c-1.59788,1.29218-3.61654,3.54472-5.03975,3.26281-2.92908-.58019-3.024-3.13987-2.0486-5.97514,1.55053-4.50719,2.63451-9.17712,3.86287-13.79231,1.48262-5.57051,3.24531-11.10092,4.17133-16.76565.30593-1.87147-1.10552-4.75048-2.66763-5.96861-1.23059-.95959-3.89776-.07691-5.92685-.0125l-.01231,1.95411Zm7.67866-23.792-1.52539-.59159c-.9806,2.213-2.06453,4.39111-2.83628,6.6747-.12327.36474,1.15292,1.20245,1.78213,1.8215a50.80179,50.80179,0,0,0,2.87663-5.20417C152.17282,184.97123,151.69059,183.90911,151.56794,182.999Z" transform="translate(-80 -152)" style="fill: #fff"/>
    <path d="M143.88928,206.791l-5.71409-1.70383.01231-1.95411c2.02909-.06441,4.69626-.94709,5.92685.0125,1.56211,1.21813,2.97356,4.09714,2.66763,5.96861-.926,5.66473-2.68871,11.19514-4.17133,16.76565-1.22836,4.61519-2.31234,9.28512-3.86287,13.79231-.97537,2.83527-.88048,5.39495,2.0486,5.97514,1.42321.28191,3.44187-1.97063,5.03975-3.26281a8.46,8.46,0,0,0,1.46788-2.40131l1.65984.22476c-.24474,1.767-.06769,3.74421-.82168,5.25752-1.59111,3.19347-4.25565,5.16824-8.06388,4.0229-4.63-1.39251-6.20179-5.78955-4.5213-11.97586C138.31166,227.37179,141.0587,217.229,143.88928,206.791Z" transform="translate(-80 -152)"/>
    <path d="M151.56794,182.999c.12265.91013.60488,1.97225.29709,2.70044a50.80481,50.80481,0,0,1-2.87662,5.20418c-.62922-.61906-1.90541-1.45677-1.78214-1.82151.77175-2.28359,1.85568-4.46169,2.83628-6.6747Z" transform="translate(-80 -152)"/>
  </g>
</svg>
