<svg xmlns="http://www.w3.org/2000/svg" viewBox="0 0 32.87 40"><g data-name="Layer 2"><g><path class="cls-1" d="M32.86,3.85A3.82,3.82,0,0,0,29,0H3.86A3.83,3.83,0,0,0,0,3.87V36.14A3.82,3.82,0,0,0,3.86,40H29a3.93,3.93,0,0,0,.69-.06,3.82,3.82,0,0,0,3.16-3.84V20Q32.87,11.92,32.86,3.85ZM5.56,20q0,8.75,0,17.49c0,.21-.06.25-.26.25-.48,0-1,0-1.44,0a1.59,1.59,0,0,1-1.61-1.57V4A1.59,1.59,0,0,1,4,2.25H5c.19,0,.46-.07.57,0s0,.39,0,.59Zm25,16a1.59,1.59,0,0,1-1.72,1.73H8.07c-.2,0-.25,0-.25-.25q0-8.76,0-17.51t0-17.49c0-.21,0-.26.25-.26H28.88A1.59,1.59,0,0,1,30.6,4Q30.62,20,30.6,36Z"/><path class="cls-1" d="M18.77,9.61H11.45a1.15,1.15,0,0,1-.87-.28,1.12,1.12,0,0,1,.61-1.95l.3,0H26a1.16,1.16,0,0,1,1.26.93,1.11,1.11,0,0,1-1,1.31H18.77Z"/><path class="cls-1" d="M16.41,18.82H11.32a1.12,1.12,0,0,1-.67-2,1.14,1.14,0,0,1,.71-.23H21.51a1.14,1.14,0,0,1,1.16,1.13,1.12,1.12,0,0,1-1.17,1.12Z"/><path class="cls-1" d="M16.43,12h5.12a1.09,1.09,0,0,1,1,.69,1.07,1.07,0,0,1-.22,1.2,1.16,1.16,0,0,1-.9.36H11.4a1.13,1.13,0,0,1-1.17-.89A1.1,1.1,0,0,1,11.3,12c.87,0,1.75,0,2.63,0Z"/></g></g></svg>