<svg preserveAspectRatio="xMidYMid meet" viewBox="0 0 128 128" xmlns="http://www.w3.org/2000/svg"><g transform="matrix(.1 0 0 -.1 0 128)"><path d="m342 1162c-29-11-70-33-92-51-34-28-46-31-103-31-50 0-66-4-71-16-3-9-6-221-6-473 0-342 3-460 12-469 17-17 1099-17 1116 0 9 9 12 127 12 469 0 252-3 464-6 473-5 12-21 16-70 16-57 0-68 4-108 34-60 45-107 60-191 61-59 0-81-5-133-31l-62-31-59 30c-78 38-165 45-239 19zm216-67 52-24v-381-380h-170-170v373c0 346 1 375 18 390 58 52 183 63 270 22zm379 10c78-33 73-5 73-422v-373h-170-170v380 381l53 24c62 29 157 33 214 10zm-715-457 3-383h415 415l3 383 2 382h45 45v-430-430h-510-510v430 430h45 45z"/><path d="m395 1014c-62-15-105-37-105-54 0-26 24-31 64-15 46 19 124 19 182-1 53-18 77-8 58 24-19 30-145 59-199 46z"/><path d="m361 865c-66-19-71-22-71-45 0-25 18-29 64-14 52 19 137 18 186-2 45-18 68-9 56 21-15 41-148 64-235 40z"/><path d="m341 687c-41-16-61-41-45-57 7-7 30-5 76 7 58 15 74 16 120 5 80-20 102-19 106 0 9 43-176 75-257 45z"/><path d="m341 547c-41-16-61-41-45-57 7-7 30-5 76 7 58 15 74 16 120 5 80-20 102-19 106 0 9 43-176 75-257 45z"/><path d="m760 1004c-69-19-91-37-70-59 13-12 20-13 55 0 53 19 137 19 182 0 43-18 63-14 63 14 0 43-140 70-230 45z"/><path d="m757 866c-27-7-56-21-65-30-15-14-15-18-1-31 14-14 19-14 52 0 47 19 137 19 184 0 44-19 66-13 61 17-6 42-145 68-231 44z"/><path d="m736 686c-43-16-57-32-49-53 4-10 14-13 32-8 109 27 131 28 191 12 77-22 82-21 78 5-2 13-16 29-33 38-42 20-170 24-219 6z"/><path d="m736 545c-43-15-57-31-49-52 4-9 14-13 27-9 112 29 127 30 193 13 70-18 83-16 83 13 0 42-169 66-254 35z"/></g></svg>