<svg id="Layer_1" data-name="Layer 1" xmlns="http://www.w3.org/2000/svg" viewBox="0 0 128 128">
  <g>
    <path d="M208,280H80q0-64,0-128l128,0Q208,216,208,280Zm-65.70482-19.74021-1.06725,2.189c-12.12726,0-24.25461.0282-36.38174-.01054-7.32687-.0234-8.22693-.9596-8.23527-8.4743-.02144-19.32866.021-38.65747-.05095-57.98589a39.65234,39.65234,0,0,0-.93509-6.04412l-1.8983.1271a23.84244,23.84244,0,0,0-.69468,4.04338q-.06625,31.74224-.00319,63.48459c.01669,5.31049,3.35225,8.38779,8.93559,8.39479q41.49.052,82.98.00119c5.80715-.00687,9.025-3.1285,9.03717-8.80337q.06768-31.49228-.02613-62.98469a18.84257,18.84257,0,0,0-.97937-4.18785l-1.73152.04822a42.20753,42.20753,0,0,0-.81019,5.82827c-.06139,19.49511-.018,38.99053-.04916,58.4858-.01128,7.06754-.99737,8.03313-8.13887,8.06669-9.33089.04385-18.66213.01143-27.99322.01176q-4.40084.00015-8.80165,0l-.68878-1.6985c1.17709-.9183,2.28471-2.51359,3.54276-2.64265,7.03681-.722,14.12013-1.57387,21.1675-1.42589,5.69327.11954,11.35817,1.59036,17.51923,2.536.16-2.21928.39394-4.00062.39966-5.78268.03479-10.83062.01843-21.66141.01757-32.49214-.00092-11.66386.07629-23.329-.10623-34.99a5.746,5.746,0,0,0-2.27645-4.197c-1.19612-.72553-3.17591-.15909-4.81211-.15909l-.52256,1.51874c5.282,1.65228,4.20155,5.73138,4.20546,9.35379q.03073,28.49311.00955,56.98629v4.23263c-10.49451-.23911-20.45977-1.346-30.22041-.38171-6.59514.65158-12.78319,1.35507-19.374-.14033-4.416-1.002-9.23838-.5417-13.85079-.26572-5.68222.34-11.33521,1.16843-17.35959,1.82487,0-22.6492-.03294-44.95735.10532-67.26442a3.97448,3.97448,0,0,1,2.39808-2.951c10.446-1.88177,20.91055-3.89511,31.57461-1.39911,3.36837.78839,4.801,2.32955,4.75475,6.15327-.2317,19.15925-.118,38.32286-.08692,57.48486.00307,1.89156.26953,3.78271.47971,6.53934,2.39717-1.21579,3.93657-2.041,5.51278-2.78851,8.22791-3.90222,16.35043-8.06174,24.75369-11.54246,3.53148-1.46277,4.69312-3.15536,4.66105-6.90088-.17687-20.66018-.07943-41.32268-.09473-61.98436-.00119-1.61362-.14534-3.22713-.25311-5.4648a43.967,43.967,0,0,0-5.62336,1.77905c-6.57295,3.15962-13.175,6.283-19.5582,9.79778-1.84313,1.0149-2.99054,3.29328-4.45691,4.99241a36.46816,36.46816,0,0,0,6.05027-1.781c6.60528-3.22211,13.1084-6.65361,20.50983-10.44626v6.842c0,16.32941-.37278,32.67138.17665,48.98227.23188,6.88389-1.08641,10.98236-8.346,12.9349-5.17473,1.3918-9.87492,4.55092-14.78312,6.92911-1.7.82372-3.38873,1.67073-5.70546,2.81464,0-2.70976,0-4.51509,0-6.32042-.0001-17.99568-.16766-35.99406.124-53.985.06817-4.20568-1.51954-5.922-5.14908-7.00458-11.74511-3.50321-23.29213-1.3073-34.9539.61077-4.41027.72537-5.7263,2.38208-5.68858,6.73379.19059,21.99307.07843,43.98868.10494,65.98336.00214,1.7764.24948,3.5525.429,5.94305,4.06254-.71771,7.58259-1.73161,11.14066-1.88966,8.40166-.3732,16.82688-.54369,25.22983-.31926C138.39609,257.25827,140.33409,259.19145,142.29518,260.25979Zm-17.534-65.54172c-4.0436.58125-8.0047,1.027-11.90282,1.79312-1.04653.20568-1.90127,1.38712-2.84406,2.12063,1.18362.46205,2.36682,1.31888,3.55094,1.32015,6.26839.0067,12.53958-.141,18.80259-.40584.86724-.03668,1.69441-1.02085,2.54014-1.56638-.60661-.65195-1.11924-1.72-1.83649-1.882C130.33014,195.47866,127.523,195.15117,124.76116,194.71807Zm11.03537,13.2937c-1.42734-.97568-2.1737-1.92855-2.89959-1.9132-6.86058.145-13.72137.39312-20.57083.80068-.79619.04738-1.52417,1.241-2.28378,1.90325.99315.45784,1.98579,1.30856,2.97954,1.30987q9.82182.013,19.64181-.34368C133.52689,209.73826,134.35978,208.8472,135.79653,208.01177Zm.649,10.25316c-2.18507-1.23717-3.08494-2.19172-3.96553-2.17425-6.55046.13-13.10436.35245-19.637.82526-.95835.06936-1.80976,1.61625-2.71065,2.47949a14.39491,14.39491,0,0,0,3.31567.77459q9.329-.04752,18.65541-.34879C133.14182,219.786,134.15843,219.11058,136.44553,218.26493Zm-11.10907,7.17784-.03108-.34235c-4.40409.63695-8.826,1.179-13.196,1.99759-.7942.14877-1.37656,1.42845-2.05671,2.186.88554.46513,1.77866,1.34522,2.65543,1.32923q9.79749-.17866,19.5858-.7232c.90018-.05033,1.75026-.99668,2.62354-1.52821-.71856-.76078-1.338-2.022-2.17441-2.18766A68.0826,68.0826,0,0,0,125.33646,225.44277Zm-2.264,10.135c-2.80161.37114-6.89771.8056-10.93909,1.54088-.80361.14621-1.39761,1.44447-2.08827,2.21149.878.50456,1.76657,1.46192,2.6322,1.44157q9.79239-.23011,19.5734-.84562c.91787-.05636,1.78525-.93512,2.676-1.43322-.70682-.78969-1.32723-2.1426-2.13617-2.26672C130.02363,235.80164,127.19044,235.80878,123.07251,235.57779Zm46.25139-19.46444c-.70066-1.242-.75384-1.47941-.863-1.50881-2.58183-.6953-16.55606,4.383-17.89577,6.57031-.28194.46034-.40646,1.43821-.13107,1.72685.49884.52283,1.55719,1.169,2.028.96126C158.07409,221.3871,163.62083,218.76317,169.3239,216.11335Zm-.17966-30.18179.13388-1.45668c-.44437-.22226-1.00753-.74441-1.3155-.6224q-8.74531,3.46467-17.41029,7.12765c-.27149.11532-.40137,1.52417-.18041,1.66189.7168.44677,1.82442,1.03253,2.43325.7668C158.29382,191.0133,163.70812,188.44744,169.14424,185.93156ZM169.21645,206c-3.39989-2.0544-17.44144,2.792-18.74378,5.168a1.91148,1.91148,0,0,0-.00928,1.7356c.50552.50749,1.56362,1.1158,2.03955.90214C158.1118,211.28778,163.65556,208.62481,169.21645,206Zm.97323-10.73812c-1.8619-.95785-2.56036-1.615-2.93412-1.46471-5.47953,2.2035-10.93188,4.4783-16.33128,6.87026-.42471.18815-.409,1.37056-.5979,2.0909.97536.21636,2.12719.87731,2.89562.57231,3.37512-1.33966,6.65412-2.92757,9.93854-4.48744C165.22091,197.86469,167.22907,196.77622,170.18968,195.2619Zm-1.04813,30.17849c-3.92249-1.89061-15.051,2.3902-19.01908,7.00266C152.68684,234.11309,164.073,230.02834,169.14155,225.44039Z" transform="translate(-80 -152)" style="fill: #fff"/>
    <path d="M142.29518,260.25979c-1.96109-1.06834-3.89909-3.00152-5.8873-3.05461-8.403-.22443-16.82817-.05394-25.22983.31926-3.55807.158-7.07812,1.17195-11.14066,1.88966-.17953-2.39055-.42687-4.16665-.429-5.94305-.02651-21.99468.08565-43.99029-.10494-65.98336-.03772-4.35171,1.27831-6.00842,5.68858-6.73379,11.66177-1.91807,23.20879-4.114,34.9539-.61077,3.62954,1.08258,5.21725,2.7989,5.14908,7.00458-.29165,17.99095-.12409,35.98933-.124,53.985,0,1.80533,0,3.61066,0,6.32042,2.31673-1.14391,4.00545-1.99092,5.70546-2.81464,4.9082-2.37819,9.60839-5.53731,14.78312-6.92911,7.25964-1.95254,8.57793-6.051,8.346-12.9349-.54943-16.31089-.17665-32.65286-.17665-48.98227v-6.842c-7.40143,3.79265-13.90455,7.22415-20.50983,10.44626a36.46816,36.46816,0,0,1-6.05027,1.781c1.46637-1.69913,2.61378-3.97751,4.45691-4.99241,6.38318-3.51481,12.98525-6.63816,19.5582-9.79778a43.967,43.967,0,0,1,5.62336-1.77905c.10777,2.23767.25192,3.85118.25311,5.4648.0153,20.66168-.08214,41.32418.09473,61.98436.03207,3.74552-1.12957,5.43811-4.66105,6.90088-8.40326,3.48072-16.52578,7.64024-24.75369,11.54246-1.57621.74755-3.11561,1.57272-5.51278,2.78851-.21018-2.75663-.47664-4.64778-.47971-6.53934-.03108-19.162-.14478-38.32561.08692-57.48486.04624-3.82372-1.38638-5.36488-4.75475-6.15327-10.66406-2.496-21.12864-.48266-31.57461,1.39911a3.97448,3.97448,0,0,0-2.39808,2.951c-.13826,22.30707-.10532,44.61522-.10532,67.26442,6.02438-.65644,11.67737-1.48487,17.35959-1.82487,4.61241-.276,9.43476-.73624,13.85079.26572,6.59085,1.4954,12.7789.79191,19.374.14033,9.76064-.96431,19.7259.1426,30.22041.38171v-4.23263q0-28.49314-.00955-56.98629c-.00391-3.62241,1.07651-7.70151-4.20546-9.35379l.52256-1.51874c1.6362,0,3.616-.56644,4.81211.15909a5.746,5.746,0,0,1,2.27645,4.197c.18252,11.661.10531,23.32614.10623,34.99.00086,10.83073.01722,21.66152-.01757,32.49214-.00572,1.78206-.23965,3.5634-.39966,5.78268-6.16106-.94561-11.826-2.41643-17.51923-2.536-7.04737-.148-14.13069.70393-21.1675,1.42589-1.258.12906-2.36567,1.72435-3.54276,2.64265l.68878,1.6985q4.40084,0,8.80165,0c9.33109-.00033,18.66233.03209,27.99322-.01176,7.1415-.03356,8.12759-.99915,8.13887-8.06669.03114-19.49527-.01223-38.99069.04916-58.4858a42.20753,42.20753,0,0,1,.81019-5.82827l1.73152-.04822a18.84257,18.84257,0,0,1,.97937,4.18785q.09522,31.49214.02613,62.98469c-.01219,5.67487-3.23,8.7965-9.03717,8.80337q-41.49.04911-82.98-.00119c-5.58334-.007-8.9189-3.0843-8.93559-8.39479q-.09978-31.74206.00319-63.48459a23.84244,23.84244,0,0,1,.69468-4.04338l1.8983-.1271A39.65234,39.65234,0,0,1,96.56,195.978c.07192,19.32842.02951,38.65723.05095,57.98589.00834,7.5147.9084,8.4509,8.23527,8.4743,12.12713.03874,24.25448.01054,36.38174.01054Z" transform="translate(-80 -152)"/>
    <path d="M124.76116,194.71807c2.76181.4331,5.569.76059,8.3103,1.37966.71725.162,1.22988,1.23007,1.83649,1.882-.84573.54553-1.6729,1.5297-2.54014,1.56638-6.263.26483-12.5342.41254-18.80259.40584-1.18412-.00127-2.36732-.8581-3.55094-1.32015.94279-.73351,1.79753-1.915,2.84406-2.12063C116.75646,195.74505,120.71756,195.29932,124.76116,194.71807Z" transform="translate(-80 -152)"/>
    <path d="M135.79653,208.01177c-1.43675.83543-2.26964,1.72649-3.13285,1.75692q-9.81592.346-19.64181.34368c-.99375-.00131-1.98639-.852-2.97953-1.30987.7596-.66222,1.48758-1.85587,2.28377-1.90325,6.84946-.40756,13.71025-.65569,20.57083-.80068C133.62283,206.08322,134.36919,207.03609,135.79653,208.01177Z" transform="translate(-80 -152)"/>
    <path d="M136.44553,218.26493c-2.2871.84565-3.30371,1.521-4.34206,1.5563q-9.32343.31672-18.65541.34879a14.39491,14.39491,0,0,1-3.31567-.77459c.90089-.86324,1.7523-2.41013,2.71065-2.47949,6.5326-.47281,13.0865-.69529,19.637-.82526C133.36059,216.07321,134.26046,217.02776,136.44553,218.26493Z" transform="translate(-80 -152)"/>
    <path d="M125.33646,225.44277a68.0826,68.0826,0,0,1,7.40655.73144c.83642.16566,1.45585,1.42688,2.17441,2.18766-.87328.53153-1.72336,1.47788-2.62354,1.52821q-9.78378.54693-19.5858.7232c-.87677.016-1.76989-.8641-2.65544-1.32923.68016-.75759,1.26252-2.03727,2.05672-2.186,4.37006-.81858,8.79193-1.36064,13.196-1.99759Z" transform="translate(-80 -152)"/>
    <path d="M123.07251,235.57779c4.11793.231,6.95112.22385,9.71807.64838.80894.12412,1.42935,1.477,2.13617,2.26672-.89075.4981-1.75813,1.37686-2.676,1.43322q-9.77717.60035-19.5734.84562c-.86563.02035-1.75424-.937-2.63221-1.44157.69067-.767,1.28467-2.06528,2.08828-2.21149C116.1748,236.38339,120.2709,235.94893,123.07251,235.57779Z" transform="translate(-80 -152)"/>
    <path d="M169.3239,216.11335c-5.70307,2.64982-11.24981,5.27375-16.86189,7.74961-.47079.2077-1.52914-.43843-2.028-.96126-.27539-.28864-.15087-1.26651.13107-1.72685,1.33971-2.18736,15.31394-7.26561,17.89577-6.57031C168.57006,214.63394,168.62324,214.87136,169.3239,216.11335Z" transform="translate(-80 -152)"/>
    <path d="M169.14424,185.93156c-5.43612,2.51588-10.85042,5.08174-16.33907,7.47726-.60883.26573-1.71645-.32-2.43325-.7668-.221-.13772-.09108-1.54657.18041-1.66189q8.65737-3.67776,17.41029-7.12765c.308-.122.87113.40014,1.3155.6224Z" transform="translate(-80 -152)"/>
    <path d="M169.21645,206c-5.56089,2.62479-11.10465,5.28776-16.71351,7.8057-.47593.21366-1.534-.39465-2.03955-.90214a1.91148,1.91148,0,0,1,.00928-1.7356C151.775,208.792,165.81656,203.94562,169.21645,206Z" transform="translate(-80 -152)"/>
    <path d="M170.18968,195.2619c-2.96061,1.51432-4.96877,2.60279-7.02914,3.58132-3.28442,1.55987-6.56342,3.14778-9.93854,4.48744-.76843.305-1.92026-.356-2.89562-.57231.189-.72034.17319-1.90275.5979-2.0909,5.3994-2.392,10.85175-4.66676,16.33128-6.87026C167.62932,193.64689,168.32778,194.30405,170.18968,195.2619Z" transform="translate(-80 -152)"/>
    <path d="M169.14155,225.44039c-5.06855,4.58795-16.45471,8.6727-19.01908,7.00266C154.09057,227.83059,165.21906,223.54978,169.14155,225.44039Z" transform="translate(-80 -152)"/>
  </g>
</svg>
