<svg xmlns="http://www.w3.org/2000/svg" viewBox="0 0 39.09 40"><g data-name="Layer 2"><g><path class="cls-1" d="M12.75,30.1c1.14,0,2.29,0,3.44,0a1.11,1.11,0,0,1,1.13,1.11,1.12,1.12,0,0,1-1.15,1.12H9.35a1.12,1.12,0,1,1,0-2.23C10.48,30.09,11.61,30.1,12.75,30.1Z"/><path class="cls-1" d="M32.39,1.22A1.13,1.13,0,0,0,31.15,0h-25a6.74,6.74,0,0,0-1,.08A6.07,6.07,0,0,0,0,6V31.1a4.37,4.37,0,0,0,.06.72,6,6,0,0,0,6,5.24c4,0,7.92,0,11.88,0h.12A1.12,1.12,0,0,0,19,35.4a1.15,1.15,0,0,0-1.1-.58H6.13A3.82,3.82,0,1,1,6,27.18h10.2a1.12,1.12,0,1,0-.15-2.23H7.24c-.3,0-.26,0-.26-.26Q7,13.58,7,2.49c0-.2,0-.26.26-.26q11.34,0,22.67,0c.2,0,.25,0,.25.24V16.33a1.62,1.62,0,0,0,0,.22,1.08,1.08,0,0,0,.68,1,1.13,1.13,0,0,0,1.57-1.11Q32.39,8.81,32.39,1.22ZM4.52,25.14a5.8,5.8,0,0,0-2.13,1l-.12.08c0-.06,0-.12,0-.18,0-6.65,0-13.3,0-19.95A3.74,3.74,0,0,1,4.51,2.57l.16-.06h.07v.23q0,11.06,0,22.11C4.75,25,4.69,25.1,4.52,25.14Z"/><path class="cls-1" d="M28.66,19.13A10.44,10.44,0,1,0,39.09,29.58,10.45,10.45,0,0,0,28.66,19.13Zm0,18.64a8.2,8.2,0,1,1,8.22-8.2A8.23,8.23,0,0,1,28.63,37.77Z"/><path class="cls-1" d="M27.52,26.64c0-.95,0-1.9,0-2.85a1.08,1.08,0,0,1,.66-1.06,1.07,1.07,0,0,1,1.21.19,1.12,1.12,0,0,1,.38.9c0,1.47,0,2.94,0,4.41,0,.18,0,.23.22.22h2.19a1.12,1.12,0,0,1,.35,2.17,1.24,1.24,0,0,1-.43.06c-1.13,0-2.27,0-3.4,0a1.11,1.11,0,0,1-1.17-1.18C27.51,28.55,27.52,27.59,27.52,26.64Z"/></g></g></svg>