<svg preserveAspectRatio="xMidYMid meet" viewBox="0 0 480 480" xmlns="http://www.w3.org/2000/svg"><path d="m880 4109c-103-11-288-44-367-64-83-22-97-39-103-133l-5-77-170-2c-182-3-207-9-224-52-8-18-10-473-9-1539l3-1514 28-24c39-33 66-30 177 20 374 172 817 260 1300 259 282 0 423-14 703-70l189-37 156 32c320 65 569 88 847 79 438-16 870-110 1189-262 53-25 107-45 120-45 14 0 38 11 53 24l28 24 3 1520 2 1520-26 31-26 31h-179-179v74c0 106-12 118-148 150-202 48-327 60-587 60-200 0-261-4-366-22-325-56-621-190-822-372l-68-62-47 44c-217 202-496 331-837 389-139 24-494 34-635 18zm527-194c341-45 609-164 828-367l70-66 3-1161c2-638 1-1161-2-1161-4 0-25 12-49 27-184 117-510 215-824 248-216 23-628 17-805-11l-38-6v1225c0 1159 1 1226 18 1231 30 9 198 37 279 45 134 14 394 12 520-4zm2491 5c98-11 262-37 295-46 16-5 17-72 17-1231v-1225l-37 6c-169 27-583 35-774 16-306-31-548-97-776-212l-133-66v1158 1158l78 73c99 94 192 156 334 224 130 63 320 118 478 139 128 17 386 20 518 6zm-3488-1451c0-790 3-1187 10-1200 6-10 24-26 40-34 25-13 41-13 138 0 303 40 671 44 892 10 119-19 286-57 345-79l40-15-60 7c-33 4-190 7-350 7-309-1-395-9-660-61-108-21-423-106-445-119-3-2-43-17-88-34l-82-30v1365 1364h110 110zm4209 224c-1-527-5-1141-8-1365l-6-406-105 40c-215 81-498 150-755 185-138 18-602 25-755 11-89-8-72 1 69 37 324 82 726 96 1146 41 110-15 153-7 174 32 8 15 11 375 11 1201v1181h115 115z" transform="matrix(.1 0 0 -.1 0 480)"/></svg>