<svg xmlns="http://www.w3.org/2000/svg" viewBox="0 0 35.48 40"><g data-name="Layer 2"><g data-name="course-information"><path d="M35.47,20q0,9.41,0,18.81A1.17,1.17,0,0,1,34.32,40H6.93a7.3,7.3,0,0,1-2.74-.45,6.43,6.43,0,0,1-4-4.72A5.43,5.43,0,0,1,0,33.56q0-13.4,0-26.8A6.55,6.55,0,0,1,.59,3.83,6.46,6.46,0,0,1,5.32.13,6,6,0,0,1,6.66,0H34.27a1.13,1.13,0,0,1,1.14.8,1.29,1.29,0,0,1,.06.4ZM7.53,27H33.16V2.28H7.53Zm25.63,2.28H6.6a4.39,4.39,0,0,0-1.75.36,4.2,4.2,0,0,0,.49,7.89A5,5,0,0,0,7,37.73H33.16ZM2.31,28.57l.09-.07a6.54,6.54,0,0,1,2.7-1.31A.13.13,0,0,0,5.22,27V2.5l-.1,0A4.26,4.26,0,0,0,2.56,5.07,4.81,4.81,0,0,0,2.31,6.8V28.57Z"/><path d="M18.32,15.91V12.28a1.33,1.33,0,0,1,2.65,0v7.29a1.33,1.33,0,0,1-2.64.18,1.85,1.85,0,0,1,0-.23Z"/><path d="M19.63,9.88A1.6,1.6,0,0,1,18,8.31a1.56,1.56,0,0,1,1.6-1.52,1.53,1.53,0,0,1,1.57,1.54A1.56,1.56,0,0,1,19.63,9.88Z"/><rect x="8" y="32.69" width="21.26" height="2.27" rx="1.05" ry="1.05"/></g></g></svg>