<svg preserveAspectRatio="xMidYMid meet" viewBox="0 0 128 128" xmlns="http://www.w3.org/2000/svg"><g transform="matrix(.1 0 0 -.1 0 128)"><path d="m142 1116-92-93v-470c0-351 3-472 12-481s125-12 460-12c518 0 468-13 468 122 0 91-8 112-36 106-16-3-19-14-22-86l-3-82h-409-410v435 435h80c95 0 100 5 100 104v66h320 320v-255c0-219 2-256 15-261 8-4 22-1 30 6 13 10 15 54 15 270 0 142-3 265-6 274-5 14-48 16-378 16h-372zm88-31c0-34-1-35-37-35h-37l34 35c19 19 35 35 37 35s3-16 3-35z"/><path d="m224 815c-4-8-1-22 6-30 18-21 536-22 565-1 16 12 17 16 6 30-12 14-48 16-293 16-239 0-279-2-284-15z"/><path d="m1158 783c-9-2-100-93-201-201-182-196-183-198-197-260-18-87-8-94 71-57 50 24 84 54 192 170 72 77 153 163 179 191 37 38 49 59 50 83 2 48-47 86-94 74zm42-67c0-18-324-366-357-384-60-33-9 38 152 213 156 168 205 209 205 171z"/><path d="m233 673c-18-7-16-40 3-47 9-3 136-6 284-6 226 0 270 2 280 15 10 12 10 18 0 30-11 13-54 15-284 14-149 0-277-3-283-6z"/><path d="m224 495c-3-8-3-19 1-25 10-16 571-14 577 3 14 36 3 37-288 37-240 0-286-2-290-15z"/></g></svg>