<svg xmlns="http://www.w3.org/2000/svg" viewBox="0 0 40 40"><g data-name="Layer 2"><g><path d="M0,39a.92.92,0,0,1,1-.67c.21,0,.41,0,.64,0v-9a1.31,1.31,0,0,1,0-.34.8.8,0,0,1,.82-.62h5a.82.82,0,0,1,.85.83v9.17h3.34v-.27q0-8.53,0-17.07a.93.93,0,0,1,1-1c1.56,0,3.12,0,4.69,0a.86.86,0,0,1,1,1V38.34h3.33v-14a1.37,1.37,0,0,1,0-.29.82.82,0,0,1,.84-.67h4.94a.83.83,0,0,1,.87.85V38.34h3.33v-24c0-.1,0-.2,0-.3a.82.82,0,0,1,.83-.7h5a.81.81,0,0,1,.83.84,1.93,1.93,0,0,1,0,.24V38.35c.22,0,.44,0,.65,0a.92.92,0,0,1,1,.6v.5a1.13,1.13,0,0,1-.55.55H.59A1.06,1.06,0,0,1,0,39.38ZM36.67,15h-3.3V38.34h3.3Zm-20,23.32V21.69H13.35V38.34Zm10,0V25H23.36V38.34Zm-20,0V30H3.55c-.18,0-.22,0-.22.22,0,2.63,0,5.27,0,7.9,0,.07,0,.14,0,.22Z"/><path d="M35.39,0l.47.11a3.33,3.33,0,0,1-.33,6.52,3.25,3.25,0,0,1-2-.33l-.15-.08h0L27.9,11.67a3.34,3.34,0,0,1-4.26,4.71,3.35,3.35,0,0,1-1.92-3.59l-.78-.22-2.87-.83a.22.22,0,0,0-.29.12,3.33,3.33,0,0,1-4.63.91c-.09-.06-.15-.1-.26,0L8,16.68l-.06,0a3.33,3.33,0,0,1,.17,2.87,3.2,3.2,0,0,1-1.5,1.68,3.33,3.33,0,0,1-4.18-5,3.35,3.35,0,0,1,4.36-.73l.89-.71,4.15-3.31a.23.23,0,0,0,.09-.3,3.21,3.21,0,0,1,.67-3.45A3.14,3.14,0,0,1,16,6.82a3.2,3.2,0,0,1,2.33,2.6c0,.18,0,.37.06.55a.26.26,0,0,0,.12.15l3.82,1.1a.2.2,0,0,0,.23-.09A3.28,3.28,0,0,1,25.12,10a3.32,3.32,0,0,1,1.6.46L32.14,5a3.67,3.67,0,0,1-.43-1.31A3.34,3.34,0,0,1,34.52,0l.13,0Zm-2,3.35A1.67,1.67,0,1,0,35,1.67,1.66,1.66,0,0,0,33.35,3.35ZM25,15a1.66,1.66,0,1,0-1.67-1.65A1.66,1.66,0,0,0,25,15ZM13.34,10A1.67,1.67,0,1,0,15,8.34,1.67,1.67,0,0,0,13.34,10ZM5,20a1.68,1.68,0,0,0,1.66-1.67,1.67,1.67,0,0,0-3.34,0A1.68,1.68,0,0,0,5,20Z"/></g></g></svg>