<svg xmlns="http://www.w3.org/2000/svg" viewBox="0 0 40 39.94"><g data-name="Layer 2"><g><path d="M36.34,18.61v-15a1.17,1.17,0,0,0-1.17-1.17H29.41V1.12A1.17,1.17,0,0,0,28.18,0a1.19,1.19,0,0,0-1.12,1.12V2.47H19.35V1.12a1.18,1.18,0,0,0-2.35,0V2.47H9.28V1.12a1.18,1.18,0,0,0-2.35,0V2.47H1.17A1.17,1.17,0,0,0,0,3.64V35.1a1.17,1.17,0,0,0,1.17,1.17H18.66A12.49,12.49,0,1,0,36.34,18.61ZM2.37,4.82H34V10H2.37Zm0,29.11V12.37H34V16.8A12.5,12.5,0,0,0,16.87,33.93H2.37ZM27.62,37.7A10.16,10.16,0,1,1,37.77,27.54h0A10.17,10.17,0,0,1,27.62,37.7Zm6.91-11.33H28.79V20.64a1.18,1.18,0,0,0-2.35,0v6.91a1.18,1.18,0,0,0,1.18,1.17h6.91a1.17,1.17,0,0,0,1.12-1.23,1.19,1.19,0,0,0-1.12-1.12Z"/></g></g></svg>