<svg xmlns="http://www.w3.org/2000/svg" viewBox="0 0 32.55 40"><g data-name="Layer 2"><g><path d="M29.74,4.71h-5.5V1.24A1.26,1.26,0,0,0,23,0a.17.17,0,0,0-.14.05.16.16,0,0,0-.1,0H9.61A1.24,1.24,0,0,0,8.33,1.24V4.71H2.81A2.73,2.73,0,0,0,0,7.44V11.9H2.44V37.3A2.69,2.69,0,0,0,5.22,40H27.33a2.71,2.71,0,0,0,2.81-2.7V11.9h2.41V7.44A2.73,2.73,0,0,0,29.74,4.71ZM10.88,2.48H21.67V4.71H10.88ZM27.56,37.3c0,.15-.07.22-.23.22H5.22c-.16,0-.23-.07-.23-.22V11.9H27.56ZM30,9.42H2.58v-2c0-.16.07-.25.23-.25H29.74c.17,0,.24.09.24.25v2Z"/><path d="M21,14.81h2.58v20.5H21Z"/><path d="M15,14.81h2.58v20.5H15Z"/><path d="M9.07,14.81h2.58v20.5H9.07Z"/></g></g></svg>