<svg id="Layer_1" data-name="Layer 1" xmlns="http://www.w3.org/2000/svg" viewBox="0 0 512 512">
  <g>
    <path d="M400,472H-112V-40H400ZM-56.246,156.49238c-18.93216,3.18829-27.13114,12.77016-27.25635,32.52736-.08448,13.33115-.42139,26.682.18738,39.98592a39.5298,39.5298,0,0,0,4.40746,16.04492c1.8831,3.59592,1.87726,5.97072.42963,9.43573a66.03676,66.03676,0,0,0,20.517,77.69322c2.45228,1.87468,3.08766,3.86154,3.28,6.66695,2.64265,38.54135,21.86368,65.88786,56.36141,82.69811,27.43386,13.36816,56.95025,18.76554,87.00851,20.13235,31.2711,1.422,62.641,1.5512,93.948,1.04132,28.02726-.4565,55.81115-3.97072,82.67023-12.701,18.57591-6.0379,35.72655-14.61184,49.91647-28.384,17.9128-17.38542,25.88959-39.06662,27.7228-63.49353a8.301,8.301,0,0,1,2.60462-5.33743c24.69721-19.80994,32.741-50.87394,20.36036-79.9086-1.101-2.582-.86177-4.24868.492-6.74209,2.17384-4.00377,4.55762-8.52065,4.69821-12.89.54608-16.9745.73948-33.99509.098-50.962-.51058-13.50559-11.16083-23.75563-24.60672-25.41728-1.11107-.13731-2.19823-.46819-3.277-.70486-.11133-.92387-.23293-1.57913-.2637-2.23861-1.95712-41.97651-18.88552-77.27566-48.64467-106.37442C256.14044,10.14627,209.38893-8.176,156.41258-11.05146,107.008-13.733,61.1431-2.22134,20.04955,25.80292c-33.83116,23.07159-58.29689,53.5496-69.4136,93.47139C-52.68466,131.1991-53.94251,143.69808-56.246,156.49238Z" transform="translate(112 40)" style="fill: #fff"/>
    <path d="M-56.246,156.49238c2.30346-12.7943,3.56131-25.29328,6.88192-37.21807,11.11671-39.92179,35.58244-70.3998,69.4136-93.47139C61.1431-2.22134,107.008-13.733,156.41258-11.05146,209.38893-8.176,256.14044,10.14627,294.40777,47.56445c29.75915,29.09876,46.68755,64.39791,48.64467,106.37442.03077.65948.15237,1.31474.2637,2.23861,1.07874.23667,2.1659.56755,3.277.70486,13.44589,1.66165,24.09614,11.91169,24.60672,25.41728.64149,16.96693.44809,33.98752-.098,50.962-.14059,4.36934-2.52437,8.88622-4.69821,12.89-1.35376,2.49341-1.593,4.16007-.492,6.74209,12.38067,29.03466,4.33685,60.09866-20.36036,79.9086a8.301,8.301,0,0,0-2.60462,5.33743c-1.83321,24.42691-9.81,46.10811-27.7228,63.49353-14.18992,13.77217-31.34056,22.34611-49.91647,28.384-26.85908,8.73025-54.643,12.24447-82.67023,12.701-31.307.50988-62.67693.38065-93.948-1.04132-30.05826-1.36681-59.57465-6.76419-87.00851-20.13235-34.49773-16.81025-53.71876-44.15676-56.36141-82.69811-.19236-2.80541-.82774-4.79227-3.28-6.66695a66.03676,66.03676,0,0,1-20.517-77.69322c1.44763-3.465,1.45347-5.83981-.42963-9.43573a39.5298,39.5298,0,0,1-4.40746-16.04492c-.60877-13.30391-.27186-26.65477-.18738-39.98592C-83.37711,169.26254-75.17813,159.68067-56.246,156.49238Zm371.31514,2.34585c-.48878-5.76942-.65708-11.08-1.4266-16.3021-5.19032-35.22236-23.01829-63.21179-50.32179-85.235C201.60914,7.52425,106.64592,3.00178,39.87925,46.30071,11.48058,64.71757-9.72464,89.00572-20.68252,121.452a112.71475,112.71475,0,0,0-5.96939,37.38621ZM144.03527,244.226q-82.48689,0-164.97375-.03617c-8.3312-.01063-15.76082,2.06383-22.10814,7.626-11.24893,9.8574-15.28133,27.40251-9.6398,42.19884,5.45871,14.31678,16.63873,21.67015,33.01,21.67329q47.74311.00917,95.4862-.00488,116.23331.00092,232.46631-.12371a40.26347,40.26347,0,0,0,15.95984-3.06309c14.46485-6.47791,21.95109-24.577,18.019-41.58753-3.859-16.69453-16.27574-26.67964-33.2449-26.68239Q226.52266,244.21286,144.03527,244.226Zm-170.74,85.77145c.13279,28.34915,11.0994,49.94952,35.64634,63.7824,20.29585,11.43726,42.71281,15.56525,65.477,18.21631,31.37759,3.65422,62.89889,3.53537,94.39974,2.88624,26.50907-.5463,52.96624-2.25729,78.80138-8.899,18.44405-4.74165,35.82232-11.71416,49.24631-25.97881,13.1635-13.98781,17.85359-31.00073,17.83341-50.00709ZM-54.95612,229.86256a218.52916,218.52916,0,0,0,64.4965-5.46749c27.88364-6.51845,55.55935-7.30808,83.63192-.74442,13.88287,3.24594,28.21812,4.96667,42.45071,6.21136,20.62231,1.80362,40.874-2.05886,60.91927-6.4188,23.24724-5.05637,46.40419-6.35405,69.88683-1.474,14.654,3.04535,29.44819,5.73355,44.31378,7.33685,10.61973,1.14537,21.46264.22248,32.13881.22248V184.88313c-1.86682,0-3.3492-.0588-4.82581.00893-17.96407.824-35.56637-1.78813-53.00929-5.70395-32.17007-7.22195-64.41594-8.46437-96.57672-.45866-30.24821,7.52961-60.16415,7.06561-90.44048-.313a190.26923,190.26923,0,0,0-83.81544-1.331c-22.21264,4.52775-44.41122,9.14173-67.30456,7.8447a6.47989,6.47989,0,0,0-1.86552.48835Z" transform="translate(112 40)"/>
    <path d="M315.06917,158.83823H-26.65191A112.71475,112.71475,0,0,1-20.68252,121.452c10.95788-32.4463,32.1631-56.73445,60.56177-75.15131C106.64592,3.00178,201.60914,7.52425,263.32078,57.30117c27.3035,22.02317,45.13147,50.0126,50.32179,85.235C314.41209,147.75819,314.58039,153.06881,315.06917,158.83823Z" transform="translate(112 40)" style="fill: #fff"/>
    <path d="M144.03527,244.22445q82.4874-.0023,164.97479.00186c16.96916.00275,29.38591,9.98786,33.2449,26.68239,3.932,17.01057-3.5542,35.10962-18.019,41.58753a40.26347,40.26347,0,0,1-15.95984,3.06309q-116.2326.28015-232.46631.12371-47.74311-.00038-95.4862.00488c-16.37125-.00314-27.55127-7.35651-33.01-21.67329-5.64153-14.79633-1.60913-32.34144,9.6398-42.19884,6.34732-5.56214,13.77694-7.6366,22.10814-7.626Q61.54829,244.2948,144.03527,244.22445Z" transform="translate(112 40)" style="fill: #fff"/>
    <path d="M-26.70469,329.99743h341.4042c.02018,19.00636-4.66991,36.01928-17.83341,50.00709-13.424,14.26465-30.80226,21.23716-49.24631,25.97881-25.83514,6.64176-52.29231,8.35275-78.80138,8.899-31.50085.64913-63.02215.768-94.39974-2.88624-22.76421-2.65106-45.18117-6.77905-65.477-18.21631C-15.60529,379.947-26.5719,358.34658-26.70469,329.99743Z" transform="translate(112 40)" style="fill: #fff"/>
    <path d="M-54.95612,229.86256v-44.4441a6.47989,6.47989,0,0,1,1.86552-.48835c22.89334,1.297,45.09192-3.317,67.30456-7.8447a190.26923,190.26923,0,0,1,83.81544,1.331c30.27633,7.37862,60.19227,7.84262,90.44048.313,32.16078-8.00571,64.40665-6.76329,96.57672.45866,17.44292,3.91582,35.04522,6.528,53.00929,5.70395,1.47661-.06773,2.959-.00893,4.82581-.00893v44.64538c-10.67617,0-21.51908.92289-32.13881-.22248-14.86559-1.6033-29.65978-4.2915-44.31378-7.33685-23.48264-4.88-46.63959-3.58234-69.88683,1.474-20.04525,4.35994-40.297,8.22242-60.91927,6.4188-14.23259-1.24469-28.56784-2.96542-42.45071-6.21136-28.07257-6.56366-55.74828-5.774-83.63192.74442A218.52916,218.52916,0,0,1-54.95612,229.86256Z" transform="translate(112 40)" style="fill: #fff"/>
  </g>
</svg>
