<svg xmlns="http://www.w3.org/2000/svg" viewBox="0 0 40 27.52"><g data-name="Layer 2"><g><path d="M37.89,21.07A18,18,0,0,0,23.18,4.44a3.22,3.22,0,0,0,.18-1.08,3.36,3.36,0,0,0-6.72,0,3.22,3.22,0,0,0,.18,1.08A18,18,0,0,0,2.11,21.07,3.35,3.35,0,0,0,0,24.16a3.42,3.42,0,0,0,3.46,3.36H36.54A3.42,3.42,0,0,0,40,24.16,3.35,3.35,0,0,0,37.89,21.07ZM19.2,3.36a.8.8,0,1,1,.8.8A.8.8,0,0,1,19.2,3.36ZM20,6.72A15.37,15.37,0,0,1,35.3,20.8H4.7A15.37,15.37,0,0,1,20,6.72ZM36.54,25H3.46a.81.81,0,1,1,0-1.6H36.54a.81.81,0,1,1,0,1.6Z"/></g></g></svg>