<svg xmlns="http://www.w3.org/2000/svg" viewBox="0 0 35.93 40"><g data-name="Layer 2"><g><path d="M34.55,0H4.48A1.38,1.38,0,0,0,3.1,1.38V9.31H1.38a1.38,1.38,0,1,0,0,2.75H3.1v6.56H1.38a1.38,1.38,0,1,0,0,2.76H3.1v6.56H1.38a1.38,1.38,0,1,0,0,2.75H3.1v7.93A1.38,1.38,0,0,0,4.48,40H34.55a1.38,1.38,0,0,0,1.38-1.38V1.38A1.38,1.38,0,0,0,34.55,0ZM33.17,37.25H5.86V30.69H7.58a1.38,1.38,0,1,0,0-2.75H5.86V21.38H7.58a1.38,1.38,0,1,0,0-2.76H5.86V12.06H7.58a1.38,1.38,0,1,0,0-2.75H5.86V2.75H33.18v34.5Z"/><path d="M20.5,20.63A5.66,5.66,0,1,0,14.84,15,5.67,5.67,0,0,0,20.5,20.63Zm0-8.57A2.91,2.91,0,1,1,17.59,15,2.92,2.92,0,0,1,20.5,12.06Z"/><path d="M14.2,30.93a1.38,1.38,0,0,0,1.38-1.38V27.17a2.77,2.77,0,0,1,2.76-2.77h4.35a2.77,2.77,0,0,1,2.77,2.77v2.38a1.38,1.38,0,1,0,2.75,0V27.17a5.53,5.53,0,0,0-5.52-5.52H18.34a5.53,5.53,0,0,0-5.52,5.52v2.38A1.38,1.38,0,0,0,14.2,30.93Z"/></g></g></svg>