<svg xmlns="http://www.w3.org/2000/svg" viewBox="0 0 40 26.68"><g data-name="Layer 2"><g><path class="cls-1" d="M28.78,3.87l-.86.87L26.67,6A1.13,1.13,0,1,1,25.08,4.4l4-4a1.11,1.11,0,0,1,1.66,0q2.06,2,4.08,4.07A1.12,1.12,0,1,1,33.26,6l-2-2-.16-.15a.34.34,0,0,0,0,.22v6.1a1.12,1.12,0,1,1-2.24.2V3.9Z"/><path class="cls-1" d="M19,.21H1.23A1.13,1.13,0,0,0,0,1.44v9.65a1.13,1.13,0,0,0,1.23,1.24H19a1.13,1.13,0,0,0,1.22-1.23V1.45A1.13,1.13,0,0,0,19,.21ZM18,9.89c0,.16-.05.19-.2.19H2.46c-.17,0-.21,0-.21-.2V2.65c0-.16,0-.19.2-.19H17.77c.16,0,.21,0,.21.2Q18,6.28,18,9.89Z"/><path class="cls-1" d="M40,15.79a1.14,1.14,0,0,0-1.23-1.23H21a1.13,1.13,0,0,0-1.23,1.23v9.66A1.13,1.13,0,0,0,21,26.68H38.77A1.13,1.13,0,0,0,40,25.43Zm-2.25,8.43c0,.18,0,.21-.22.21H22.27c-.19,0-.25,0-.25-.23q0-3.59,0-7.17c0-.19.06-.22.23-.22H37.52c.17,0,.23,0,.23.22Z"/></g></g></svg>