<svg xmlns="http://www.w3.org/2000/svg" viewBox="0 0 40 38.23"><g data-name="Layer 2"><g><path d="M28.87,2.24H8.1V6.45A1.15,1.15,0,0,1,6.83,7.72H2.26V36H28.87v-.23c0-1.5,0-3,0-4.5a1.11,1.11,0,0,1,1.49-1,1.07,1.07,0,0,1,.74,1v.17c0,1.9,0,3.79,0,5.68a1.1,1.1,0,0,1-1,1.19,1,1,0,0,1-.25,0H1.21A1.13,1.13,0,0,1,0,37V6.79a1.28,1.28,0,0,1,.39-.94L5.89.37A1.2,1.2,0,0,1,6.78,0H29.93A1.11,1.11,0,0,1,31.1,1.14a1.92,1.92,0,0,1,0,.24V17.94a1.78,1.78,0,0,1,0,.46,1.11,1.11,0,0,1-1.17.85,1.12,1.12,0,0,1-1-1.09V2.24Zm-23,3.22V3.63L4,5.46Z"/><path d="M37.43,14a2.67,2.67,0,0,1,1.81,4.51q-4.77,5.13-9.56,10.24c-.45.48-.9,1-1.36,1.45a1.65,1.65,0,0,1-.48.35l-3.36,1.69a1.13,1.13,0,0,1-1.63-1.32c.28-1.11.55-2.23.84-3.34A1.51,1.51,0,0,1,24,27q5.61-6,11.25-12A2.79,2.79,0,0,1,37.43,14ZM25.65,29.14l.92-.46a1.11,1.11,0,0,0,.3-.22L37.55,17l.11-.12a.45.45,0,0,0,0-.57.43.43,0,0,0-.57,0,.71.71,0,0,0-.15.15L26,28.1A2.05,2.05,0,0,0,25.65,29.14Z"/><rect x="5.35" y="10.57" width="20" height="2.24" rx="1" ry="1"/><rect x="5.35" y="15.85" width="20" height="2.24" rx="1" ry="1"/><rect x="5.35" y="21.13" width="20" height="2.24" rx="1" ry="1"/></g></g></svg>