<svg xmlns="http://www.w3.org/2000/svg" viewBox="0 0 40 35.68"><g data-name="Layer 2"><g><path class="cls-1" d="M18.64,23.39V1.46a1.37,1.37,0,1,1,2.73-.14v22l.05,0c.39-.4.77-.8,1.16-1.19l7.74-7.72a1.37,1.37,0,0,1,1.7-.28,1.35,1.35,0,0,1,.28,2.14c-.84.85-1.69,1.69-2.54,2.54L21,27.54a1.38,1.38,0,0,1-2.05,0L7.73,16.33a1.36,1.36,0,1,1,1.92-1.92q4,4,8,7.94Z"/><path class="cls-1" d="M20,35.67H1.5A1.44,1.44,0,0,1,0,34.17c0-2.65,0-5.29,0-7.94a1.36,1.36,0,0,1,2.4-.87,1.47,1.47,0,0,1,.32,1c0,2.12,0,4.25,0,6.37,0,.21.07.25.26.25H37c.29,0,.26,0,.26-.26,0-2.13,0-4.26,0-6.39A1.36,1.36,0,1,1,40,26.19c0,.61,0,1.22,0,1.83v6.21a1.35,1.35,0,0,1-1.45,1.44Z"/></g></g></svg>