<svg xmlns="http://www.w3.org/2000/svg" viewBox="0 0 39.95 40"><g data-name="Layer 2"><g><path d="M0,30l0,8.23a1.76,1.76,0,0,0,.51,1.26A1.67,1.67,0,0,0,1.73,40h0l8.19,0a1.69,1.69,0,0,0,1.23-.51L39.44,11.18a1.77,1.77,0,0,0,0-2.49L31.33.51a1.77,1.77,0,0,0-2.49,0L23.18,6.2h0L.55,28.78A1.84,1.84,0,0,0,0,30ZM30.11,4.22l5.7,5.7-3.21,3.2L26.9,7.43ZM3.55,30.76,24.41,9.92l5.7,5.69L9.25,36.41l-5.75.05Z"/><path d="M0,30l0,8.23a1.76,1.76,0,0,0,.51,1.26A1.67,1.67,0,0,0,1.73,40h0l8.19,0a1.69,1.69,0,0,0,1.23-.51L39.44,11.18a1.77,1.77,0,0,0,0-2.49L31.33.51a1.77,1.77,0,0,0-2.49,0L23.18,6.2h0L.55,28.78A1.84,1.84,0,0,0,0,30ZM30.11,4.22l5.7,5.7-3.21,3.2L26.9,7.43ZM3.55,30.76,24.41,9.92l5.7,5.69L9.25,36.41l-5.75.05Z"/></g></g></svg>