<svg xmlns="http://www.w3.org/2000/svg" viewBox="0 0 40 29.99"><g data-name="Layer 2"><g><path d="M35.12,0H4.89A4.86,4.86,0,0,0,0,4.82V25.17A4.86,4.86,0,0,0,4.89,30H35.11A4.86,4.86,0,0,0,40,25.17V4.83A4.85,4.85,0,0,0,35.12,0Zm2.65,25.17a2.64,2.64,0,0,1-2.65,2.62H4.89a2.65,2.65,0,0,1-2.66-2.62V4.83A2.64,2.64,0,0,1,4.89,2.21H35.11a2.64,2.64,0,0,1,2.66,2.62V25.17Z"/><path d="M25.23,14.74,35,6.1a1.1,1.1,0,0,0,.08-1.56,1.13,1.13,0,0,0-1.58-.08L20,16.39l-2.63-2.32,0,0a1.37,1.37,0,0,0-.18-.16L6.48,4.45a1.12,1.12,0,0,0-1.58.09A1.1,1.1,0,0,0,5,6.1l9.9,8.71L5,23.91a1.09,1.09,0,0,0,0,1.55,1.15,1.15,0,0,0,.82.35,1.08,1.08,0,0,0,.76-.29l10-9.22,2.71,2.39A1.17,1.17,0,0,0,20,19a1.09,1.09,0,0,0,.74-.28l2.79-2.46,10,9.31a1.15,1.15,0,0,0,.77.3,1.1,1.1,0,0,0,.77-1.9Z"/><path d="M35.12,0H4.89A4.86,4.86,0,0,0,0,4.82V25.17A4.86,4.86,0,0,0,4.89,30H35.11A4.86,4.86,0,0,0,40,25.17V4.83A4.85,4.85,0,0,0,35.12,0Zm2.65,25.17a2.64,2.64,0,0,1-2.65,2.62H4.89a2.65,2.65,0,0,1-2.66-2.62V4.83A2.64,2.64,0,0,1,4.89,2.21H35.11a2.64,2.64,0,0,1,2.66,2.62V25.17Z"/><path d="M25.23,14.74,35,6.1a1.1,1.1,0,0,0,.08-1.56,1.13,1.13,0,0,0-1.58-.08L20,16.39l-2.63-2.32,0,0a1.37,1.37,0,0,0-.18-.16L6.48,4.45a1.12,1.12,0,0,0-1.58.09A1.1,1.1,0,0,0,5,6.1l9.9,8.71L5,23.91a1.09,1.09,0,0,0,0,1.55,1.15,1.15,0,0,0,.82.35,1.08,1.08,0,0,0,.76-.29l10-9.22,2.71,2.39A1.17,1.17,0,0,0,20,19a1.09,1.09,0,0,0,.74-.28l2.79-2.46,10,9.31a1.15,1.15,0,0,0,.77.3,1.1,1.1,0,0,0,.77-1.9Z"/></g></g></svg>