<svg xmlns="http://www.w3.org/2000/svg" viewBox="0 0 40 39.42"><g data-name="Layer 2"><g><path d="M31.71,24.14a4,4,0,0,0-2.87-1.32,4.09,4.09,0,0,0-2.9,1.31L23.27,26.8l-.66-.34c-.3-.15-.59-.3-.84-.45a29.2,29.2,0,0,1-7-6.36A16.91,16.91,0,0,1,12.51,16c.7-.63,1.34-1.29,2-1.93l.71-.72a3.88,3.88,0,0,0,0-5.86L12.87,5.21c-.26-.26-.53-.53-.78-.8-.51-.53-1.05-1.07-1.6-1.58A4,4,0,0,0,7.65,1.59,4.17,4.17,0,0,0,4.77,2.83v0L1.87,5.76A6.22,6.22,0,0,0,0,9.7,14.84,14.84,0,0,0,1.12,16,36.37,36.37,0,0,0,7.6,26.8,40.06,40.06,0,0,0,20.88,37.2a20.7,20.7,0,0,0,7.46,2.2l.54,0a6.39,6.39,0,0,0,4.89-2.1s0,0,0,0a21.09,21.09,0,0,1,1.48-1.53c.37-.35.74-.71,1.11-1.09a4.27,4.27,0,0,0,1.27-2.94,4,4,0,0,0-1.3-2.9Zm3,8.92h0c-.33.36-.67.68-1,1a22,22,0,0,0-1.64,1.69,4.06,4.06,0,0,1-3.19,1.35h-.39a18.42,18.42,0,0,1-6.61-2,37.8,37.8,0,0,1-12.51-9.8,34.33,34.33,0,0,1-6.1-10.16,12.2,12.2,0,0,1-1-5.31A3.91,3.91,0,0,1,3.49,7.37L6.38,4.48a2,2,0,0,1,1.29-.61,1.84,1.84,0,0,1,1.24.6l0,0c.52.49,1,1,1.53,1.52l.8.82,2.32,2.32a1.61,1.61,0,0,1,0,2.62l-.73.73c-.71.73-1.39,1.41-2.13,2.07l0,0a1.74,1.74,0,0,0-.44,1.93l0,.07A18.86,18.86,0,0,0,13,21.08h0a31.13,31.13,0,0,0,7.53,6.84,8.92,8.92,0,0,0,1,.57c.3.16.59.3.84.45l.1.06a1.77,1.77,0,0,0,.84.21,1.86,1.86,0,0,0,1.29-.58l2.9-2.9a1.88,1.88,0,0,1,1.28-.64,1.74,1.74,0,0,1,1.22.62v0l4.67,4.67A1.67,1.67,0,0,1,34.74,33.06Z"/><path d="M39,8.14H31.86V1a1.36,1.36,0,0,0-2.64,0V8.14H22.11a1.28,1.28,0,0,0-1,1.32,1.28,1.28,0,0,0,1,1.32h7.11v7.11a1.36,1.36,0,0,0,2.64,0V10.78H39a1.27,1.27,0,0,0,1-1.32A1.27,1.27,0,0,0,39,8.14Z"/></g></g></svg>