<svg xmlns="http://www.w3.org/2000/svg" viewBox="0 0 36.24 40"><g data-name="Layer 2"><g><path class="cls-1" d="M22.93,4.53a9.9,9.9,0,0,0-8.1,8.25,9.89,9.89,0,0,0,7,11,.91.91,0,0,1,.73.87.87.87,0,0,1-.59.86.88.88,0,0,1-.6,0,11.28,11.28,0,0,1-8.13-8.77A11.24,11.24,0,0,1,16.9,5.51,11,11,0,0,1,23.1,2.7l.61-.07.06,0-1-1a.88.88,0,0,1-.25-.93A.87.87,0,0,1,23.91.23c.82.79,1.61,1.59,2.4,2.41a.88.88,0,0,1-.07,1.25L24.7,5.43l-.69.7a.9.9,0,1,1-1.27-1.27c.09-.1.19-.19.28-.28S23,4.52,22.93,4.53Z"/><path class="cls-1" d="M27,25.74l.63.46a.89.89,0,0,1-.43,1.61.83.83,0,0,1-.61-.16l-2.65-1.9a.87.87,0,0,1-.21-1.25c.62-.89,1.26-1.78,1.9-2.67a.87.87,0,0,1,1.23-.21A.89.89,0,0,1,27,22.87c-.26.39-.54.77-.83,1.18a6.31,6.31,0,0,0,1.33-.32A9.65,9.65,0,0,0,34.29,16,9.83,9.83,0,0,0,27.84,5a.91.91,0,0,1-.4-1.52.89.89,0,0,1,1-.18,11.72,11.72,0,0,1,7.72,9.55,11.7,11.7,0,0,1-9.08,12.91Z"/><path class="cls-1" d="M25.47,16.7v1.72a.89.89,0,0,1-1.73.26,1.22,1.22,0,0,1-.06-.42V15.1c0-.29,0-.29-.29-.29H20.15a.88.88,0,0,1-.84-.51.87.87,0,0,1,.12-1,.9.9,0,0,1,.74-.32h3.3c.17,0,.22,0,.22-.21,0-1.09,0-2.19,0-3.28a.93.93,0,0,1,.63-.95.89.89,0,0,1,1.16.83v.33c0,1.08,0,2.17,0,3.26,1.09.05,2.18,0,3.27,0h.31a.88.88,0,0,1,.81.6.89.89,0,0,1-.27,1,.92.92,0,0,1-.64.21H25.69c-.18,0-.23,0-.23.22,0,.56,0,1.12,0,1.67Z"/><path class="cls-1" d="M33,36.38c-.15-1.29-.29-2.59-.44-3.89a3.18,3.18,0,0,0-2.21-2.8,4.49,4.49,0,0,0-1.86-.13A13.66,13.66,0,0,1,24,29.11a1.75,1.75,0,0,0-.85,0,2.41,2.41,0,0,0-1.52,1l-1.87,2.36a1.43,1.43,0,0,1-1.81.41,23.81,23.81,0,0,1-8.36-6.6,1.46,1.46,0,0,1,0-2c.59-.71,1.18-1.4,1.75-2.11A2.78,2.78,0,0,0,11.82,19a16.12,16.12,0,0,1-1.32-4.39,3.21,3.21,0,0,0-3.56-2.81c-1.4.14-2.8.31-4.19.48A3.25,3.25,0,0,0,0,15.81c.12.88.29,1.77.49,2.64a27.32,27.32,0,0,0,6.28,12.1A27.71,27.71,0,0,0,27.63,40a23.92,23.92,0,0,0,2.55-.14A3.23,3.23,0,0,0,33,36.38ZM29.84,38.1c-.74.06-1.47.1-2.09.09A26.14,26.14,0,0,1,1.92,16.37c0-.22-.08-.44-.11-.66a1.44,1.44,0,0,1,1.28-1.66L7,13.6A1.5,1.5,0,0,1,8.75,15a17.25,17.25,0,0,0,1.45,4.81A1,1,0,0,1,10,21c-.38.48-.78.94-1.17,1.41-.22.26-.44.52-.65.79a3.24,3.24,0,0,0-.05,4.13,25.6,25.6,0,0,0,8.91,7.11,3.23,3.23,0,0,0,4.18-.95l1.81-2.28a.6.6,0,0,1,.72-.26,16.05,16.05,0,0,0,4.63.45,5.57,5.57,0,0,1,1.08,0,1.45,1.45,0,0,1,1.23,1.28c.14,1.29.28,2.57.43,3.85A1.44,1.44,0,0,1,29.84,38.1Z"/></g></g></svg>