<svg version="1.1" xmlns="http://www.w3.org/2000/svg" xmlns:xlink="http://www.w3.org/1999/xlink" x="0px" y="0px"
	 viewBox="0 0 48 48" style="enable-background:new 0 0 48 48;" xml:space="preserve">
<g>
	<g>
		<path d="M32.4,47c-10.6,0-18.8-3.7-24.5-11.1C3,29.6,1.5,22.3,1,19.4v0c-0.2-1.2,0.4-2.3,1.5-2.8c5.4-2.5,8.8-0.4,8.9-0.3l0.3,0.2
			V17c0,0.4,0.5,2.5,2,7.5c0.2,0.7,0.1,1.5-0.3,2.2c-0.7,1.1-1.5,2.1-2.2,2.8c-0.3,0.3-0.4,0.7-0.3,1.1c1.6,5.7,10.3,8.9,11.1,9.2
			c0.4-0.1,1.5-1,3.6-3.6c0.6-0.7,1.4-1,2.3-0.9c2.1,0.4,7.1,0.7,7.2,0.7l0.3,0l0.2,0.2c1.1,1.1,1.6,3.9,1.6,8.2
			c0,1.4-1,2.5-2.4,2.6C34.1,47,33.2,47,32.4,47z M7.6,16.8c-1.2,0-2.7,0.3-4.5,1.1c-0.5,0.2-0.8,0.7-0.7,1.3v0
			c1,6.5,6.3,27.7,32.5,26.3c0.6,0,1.1-0.5,1.1-1.2c0-3.4-0.4-6-1.1-7c-1.1-0.1-5.1-0.3-7-0.7c-0.4-0.1-0.8,0.1-1,0.4
			c-3.8,4.5-4.6,4.2-5.1,4c-0.8-0.3-10.1-3.7-12-10.2c-0.2-0.9,0-1.8,0.6-2.5c0.6-0.7,1.4-1.7,2-2.7c0.2-0.3,0.2-0.6,0.1-1
			c-1.2-3.9-1.8-6.4-2-7.4C10,17.2,9,16.8,7.6,16.8z"/>
		<path d="M32.4,47.8c-10.8,0-19.3-3.8-25.2-11.4c-5.1-6.5-6.6-14-7.1-16.9c-0.2-1.5,0.6-3,2-3.7c5.9-2.6,9.6-0.3,9.8-0.2l0.7,0.5
			V17c0,0.3,0.5,2.2,2,7.2c0.3,1,0.1,2-0.4,2.8c-0.7,1.1-1.6,2.2-2.3,3c-0.1,0.1-0.1,0.2-0.1,0.3c1.4,4.8,8.4,7.8,10.2,8.5
			c0.4-0.3,1.3-1.1,3-3.2c0.8-0.9,1.9-1.3,3.1-1.1c1.8,0.3,6,0.6,7.1,0.7l0.6,0l0.4,0.4c1.3,1.3,1.9,4.2,1.9,8.8
			c0,1.8-1.4,3.3-3.2,3.4C34.1,47.8,33.3,47.8,32.4,47.8z M7.6,17.7c-1.3,0-2.7,0.3-4.2,1c-0.1,0.1-0.2,0.2-0.2,0.4
			c1,6.4,6.1,27,31.6,25.6c0.1,0,0.3-0.1,0.3-0.3c0-3.3-0.3-5.3-0.7-6.2c-1.7-0.1-4.9-0.4-6.6-0.6c-0.1,0-0.2,0-0.2,0.1
			c-3.6,4.2-4.9,4.8-6,4.3c-1.3-0.5-10.5-4-12.5-10.7c-0.3-1.1,0-2.4,0.7-3.3c0.6-0.6,1.4-1.6,2-2.5c0.1-0.1,0.1-0.2,0-0.3
			c-1-3.5-1.7-5.8-1.9-7.1C9.3,17.9,8.5,17.7,7.6,17.7z"/>
	</g>
	<g>
		<path d="M33.8,32H17.5V19.5c0-0.3,0.1-0.5,0.1-0.7c0-0.1,0-0.1,0.1-0.2c0.3-1.7,3.4-6.3,8.2-6.3c4.5,0,7.2,4.5,7.8,6.2
			c0.1,0.3,0.2,0.6,0.2,0.9V32z M18.8,30.6h13.6V19.4c0-0.1,0-0.3-0.1-0.4c-0.5-1.4-2.8-5.3-6.5-5.3c-4.1,0-6.7,4-6.9,5.2
			c0,0.1-0.1,0.2-0.1,0.4c0,0.1-0.1,0.2-0.1,0.3V30.6z"/>
		<path d="M34.7,32.9H16.6V19.5c0-0.4,0.1-0.7,0.2-0.9c0-0.1,0-0.1,0-0.2c0.4-2,3.6-7,9.1-7c5,0,7.9,4.9,8.6,6.8
			c0.1,0.4,0.2,0.8,0.2,1.2V32.9z M19.7,29.7h11.9V19.4c0,0,0-0.1,0-0.1c-0.4-1-2.4-4.7-5.7-4.7c-3.6,0-5.9,3.6-6.1,4.5
			c0,0.1-0.1,0.3-0.1,0.4c0,0.1,0,0.1,0,0.1L19.7,29.7z"/>
	</g>
	<g>
		<path d="M22.2,27.7c-0.4,0-0.8-0.1-1-0.4c-0.3-0.3-0.5-0.7-0.5-1.1c0-0.6,0-1.3-0.1-2c-0.1-1.4-0.1-2.9,0.1-4.3
			c0.4-3,3.3-4.2,5.6-4.3c0.8,0,1.5,0.6,1.5,1.5c0,0.9-0.6,1.6-1.5,1.6c-1.4,0.1-2.2,0.5-2.6,1.4c0,0.1,0,0.1,0,0.1c0,0,0,0,0,0.1
			c0,0.1,0,0.3,0,0.5v5.3C23.8,27,23.1,27.7,22.2,27.7z M22.1,26.1C22.1,26.1,22.1,26.1,22.1,26.1h0.9H22.1z"/>
	</g>
	<g>
		<path d="M16.7,14.1c-0.4,0-0.8-0.2-1.1-0.5l-4.5-5.2c-0.7-0.7-0.4-1.7,0.2-2.2c0.6-0.6,1.5-0.5,2.1,0.1l4.5,5.2
			c0.7,0.7,0.4,1.7-0.2,2.2C17.4,13.9,17.1,14.1,16.7,14.1z"/>
	</g>
	<g>
		<path d="M26.3,9.8c-0.9,0-1.5-0.7-1.5-1.5V1.7c0-0.9,0.7-1.5,1.5-1.5s1.5,0.7,1.5,1.5v6.6C27.9,9.1,27.2,9.8,26.3,9.8z"/>
	</g>
	<g>
		<path d="M35.9,14.1c-0.4,0-0.8-0.1-1.1-0.4c-0.6-0.6-0.7-1.6-0.1-2.2l4.5-4.7c0.6-0.6,1.5-0.6,2.1,0c0.6,0.6,0.7,1.6,0.1,2.2
			L37,13.6C36.7,13.9,36.3,14.1,35.9,14.1z M35.8,12.4L35.8,12.4L35.8,12.4z"/>
	</g>
	<g>
		<path d="M46.3,23.9h-6.8c-0.5,0-0.9-0.2-1.1-0.5c-0.2-0.3-0.4-0.6-0.4-1c0-0.9,0.6-1.6,1.5-1.6h6.8c0.5,0,0.9,0.2,1.1,0.5
			c0.2,0.3,0.4,0.6,0.4,1C47.8,23.3,47.2,23.9,46.3,23.9z"/>
	</g>
</g>
</svg>
