<svg preserveAspectRatio="xMidYMid meet" viewBox="0 0 128 134" xmlns="http://www.w3.org/2000/svg"><g transform="matrix(.1 0 0 -.1 0 134)"><path d="m230 1225v-115h-25c-24 0-25 3-25 60v60h-90-90v-150-150h640 640v150 150h-85-85v55 55h-65-65v-115c0-108-1-115-20-115-18 0-20 7-20 60v60h-296-296l4 55 3 55h-62-63z"/><path d="m0 440v-440h640 640v440 440h-60-60v-380-380h-520-520v380 380h-60-60z"/><path d="m460 755v-65h65 65v65 65h-65-65z"/><path d="m690 755v-65h65 65v65 65h-65-65z"/><path d="m920 755v-65h65 65v65 65h-65-65z"/><path d="m230 525v-65h63 62v65 65h-62-63z"/><path d="m460 525v-65h65 65v65 65h-65-65z"/><path d="m690 525v-65h65 65v65 65h-65-65z"/><path d="m920 525v-65h65 65v65 65h-65-65z"/><path d="m230 295v-65h63 62l-1 62-1 63-61 3-62 3z"/><path d="m460 295v-65h65 65v65 65h-65-65z"/><path d="m690 295v-65h65 65v65 65h-65-65z"/><path d="m927 353c-4-3-7-33-7-65v-58h65 65v65 65h-58c-32 0-62-3-65-7z"/></g></svg>