<svg xmlns="http://www.w3.org/2000/svg" viewBox="0 0 39.61 40"><g data-name="Layer 2"><g><path d="M12,24.86h7.38c.17,0,.21,0,.21-.21,0-1,0-2,0-3a.61.61,0,1,1,1.21,0c0,1,0,2,0,3.05,0,.17.05.2.21.2H35.11a.57.57,0,0,1,.61.63c0,.79,0,1.57,0,2.35,0,.49,0,1,0,1.46a.59.59,0,0,1-.83.56.5.5,0,0,1-.36-.43,1.37,1.37,0,0,1,0-.29V26.26c0-.14,0-.19-.18-.19H21c-.14,0-.18,0-.18.18v3a.57.57,0,0,1-.6.65.56.56,0,0,1-.61-.58c0-.42,0-.84,0-1.26,0-.59,0-1.18,0-1.77,0-.17,0-.22-.21-.22h-14c-.17,0-.22,0-.21.21v3a.58.58,0,0,1-.53.66A.63.63,0,0,1,4,29.25V25.42a.53.53,0,0,1,.47-.54,1.51,1.51,0,0,1,.3,0Z"/><path d="M30.36,9.6a1,1,0,0,0-.9-1c-.45-.06-.9-.12-1.35-.16a.2.2,0,0,1-.22-.19,7.3,7.3,0,0,0-.62-1.63c-.08-.15-.24-.31-.22-.45s.21-.27.32-.41a11.22,11.22,0,0,0,1.2-1.46c.07-.11.07-.17,0-.26L27.06,2.54a1,1,0,0,0-1.4-.09l-1.07.8a.19.19,0,0,1-.24,0,7.73,7.73,0,0,0-2-.82c-.1,0-.14,0-.15-.16s-.05-.48-.08-.73A5.21,5.21,0,0,0,22,.88,1.25,1.25,0,0,0,21.1,0H19.25s-.05,0-.08.05a1,1,0,0,0-.72.92c-.05.42-.11.84-.15,1.27a.23.23,0,0,1-.22.24,7,7,0,0,0-1.94.79.18.18,0,0,1-.24,0c-.35-.28-.71-.55-1.07-.81a1.07,1.07,0,0,0-1.49.12c-.32.32-.65.63-1,1a1,1,0,0,0-.07,1.39l.83,1a.15.15,0,0,1,0,.22,7,7,0,0,0-.8,2,.2.2,0,0,1-.21.18c-.47.05-1,.1-1.42.17a1,1,0,0,0-.9,1q0,.74,0,1.47a1.08,1.08,0,0,0,.94,1l1.35.16a.16.16,0,0,1,.17.15,7.66,7.66,0,0,0,.82,2c.06.1,0,.15,0,.22-.29.36-.58.71-.86,1.08a1,1,0,0,0,.1,1.36l1,1a1,1,0,0,0,1.39.1l1.08-.82a.17.17,0,0,1,.24,0,6.55,6.55,0,0,0,1.94.79c.17,0,.2.12.22.26l.15,1.3a1,1,0,0,0,1,.92c.49,0,1,0,1.46,0a1,1,0,0,0,1-1c.05-.43.11-.86.15-1.29a.21.21,0,0,1,.19-.22,5.4,5.4,0,0,0,1.66-.64.6.6,0,0,1,.84.07,6.46,6.46,0,0,0,.95.7,1,1,0,0,0,1.16-.07c.4-.34.78-.71,1.15-1.08a.93.93,0,0,0,0-1.3l-.9-1.13a.14.14,0,0,1,0-.18,6.9,6.9,0,0,0,.83-2c0-.1.07-.13.17-.14l1.27-.15a1.07,1.07,0,0,0,1-1C30.37,10.57,30.37,10.08,30.36,9.6Zm-1,.24c0,.26,0,.51,0,.77,0,.1,0,.15-.13.16l-1.33.16a1,1,0,0,0-.91.79,7.36,7.36,0,0,1-.83,2A1,1,0,0,0,26.2,15l.8,1.06c.06.08.07.13,0,.21s-.41.39-.6.6-.13.07-.21,0l-1-.77A1,1,0,0,0,23.83,16a6.39,6.39,0,0,1-1.92.77A1.07,1.07,0,0,0,21,17.87c0,.4-.1.79-.14,1.19,0,.13-.06.15-.17.14h-.83c-.13,0-.18,0-.2-.16,0-.45-.1-.89-.15-1.33a1,1,0,0,0-.78-.88A8.71,8.71,0,0,1,16.56,16a1,1,0,0,0-1.16.08l-1.08.82c-.09.06-.14.07-.22,0a8.07,8.07,0,0,0-.58-.59.14.14,0,0,1,0-.23c.41-.53.81-1.06,1.22-1.58a.17.17,0,0,0,0-.25,6.72,6.72,0,0,1-1.13-2.53,1,1,0,0,0-.9-.81l-1.45-.18a4.68,4.68,0,0,1,0-1l1.23-.15a1,1,0,0,0,.95-.83,7.8,7.8,0,0,1,.82-2,1,1,0,0,0-.07-1.22c-.27-.36-.53-.72-.81-1.07,0-.08-.06-.12,0-.19s.41-.4.6-.6a.14.14,0,0,1,.23,0l1.24,1a.65.65,0,0,0,.82,0,6.69,6.69,0,0,1,2.25-1,1,1,0,0,0,.86-.93c.07-.46.15-.92.22-1.38,0-.11.05-.14.16-.13h.86c.12,0,.16,0,.18.14,0,.45.1.89.15,1.33a1,1,0,0,0,.81.9,8.56,8.56,0,0,1,2.11.85A1,1,0,0,0,25,4.36l1.08-.82c.09-.07.14-.06.21,0s.43.41.65.61.08.12,0,.21c-.26.33-.51.67-.76,1a1.08,1.08,0,0,0-.07,1.36,6,6,0,0,1,.77,1.87A1.07,1.07,0,0,0,28,9.5c.39,0,.77.1,1.16.13C29.29,9.65,29.34,9.69,29.34,9.84Z"/><path d="M20.21,5.22a5.11,5.11,0,0,0-5.1,5,5.11,5.11,0,1,0,5.1-5Zm0,8.87a3.83,3.83,0,1,1,3.88-3.84A3.85,3.85,0,0,1,20.22,14.09Z"/><path d="M8.5,31.5A1.81,1.81,0,0,0,7.19,31H1.85A1.84,1.84,0,0,0,0,32.81v5.34a1.79,1.79,0,0,0,.54,1.31A1.79,1.79,0,0,0,1.85,40H7.19A1.84,1.84,0,0,0,9,38.15V32.81A1.81,1.81,0,0,0,8.5,31.5Zm-.28,6.65a1,1,0,0,1-1,1H1.85a1,1,0,0,1-1-1V32.81a1,1,0,0,1,.3-.72,1,1,0,0,1,.73-.31H7.19a1.06,1.06,0,0,1,1,1v5.34Z"/><path d="M23.82,31.5A1.79,1.79,0,0,0,22.51,31H17.17a1.86,1.86,0,0,0-1.85,1.85v5.34A1.86,1.86,0,0,0,17.17,40h5.34a1.84,1.84,0,0,0,1.85-1.85V32.81A1.81,1.81,0,0,0,23.82,31.5Zm-.28,6.65a1,1,0,0,1-1,1H17.17a1,1,0,0,1-1-1V32.81a1.06,1.06,0,0,1,1-1h5.34a1,1,0,0,1,1,1v5.34Z"/><path d="M39.06,31.5a1.77,1.77,0,0,0-1.3-.54H32.42a1.84,1.84,0,0,0-1.85,1.85v5.34A1.84,1.84,0,0,0,32.42,40h5.34a1.77,1.77,0,0,0,1.3-.54,1.8,1.8,0,0,0,.55-1.31V32.81A1.81,1.81,0,0,0,39.06,31.5Zm-.28,6.65a1,1,0,0,1-.3.73,1,1,0,0,1-.72.3H32.42a1,1,0,0,1-.73-.3,1,1,0,0,1-.3-.73V32.81a1,1,0,0,1,.3-.72,1,1,0,0,1,.73-.31h5.34a1,1,0,0,1,.72.31,1,1,0,0,1,.3.72v5.34Z"/></g></g></svg>