<svg xmlns="http://www.w3.org/2000/svg" viewBox="0 0 39.97 40"><g data-name="Layer 2"><g><path d="M0,4.28H5.67A4.37,4.37,0,0,1,7.31.93,4.2,4.2,0,0,1,10.18,0a4.33,4.33,0,0,1,4.11,4.25H25.68A4.34,4.34,0,0,1,27.39.89,4.2,4.2,0,0,1,30.23,0C32.42.1,34,1.69,34.32,4.28H40V40H0ZM37.12,17.19H2.85v20H37.12ZM2.85,14.27H37.12V7.18H34.31a4.34,4.34,0,0,1-4.23,4.26c-2.38,0-4-1.54-4.42-4.27H14.3c-.39,2.59-1.88,4.15-4.05,4.26a4.26,4.26,0,0,1-2.77-.8A4.38,4.38,0,0,1,5.67,7.17H2.85Zm5.7-8.58c0,.48,0,1,0,1.43a1.43,1.43,0,1,0,2.85,0c0-1,0-1.91,0-2.86A1.42,1.42,0,0,0,10,2.86a1.44,1.44,0,0,0-1.4,1.45C8.54,4.77,8.55,5.23,8.55,5.69Zm22.87,0c0-.46,0-.92,0-1.38A1.44,1.44,0,0,0,30,2.86a1.42,1.42,0,0,0-1.42,1.47c0,.94,0,1.88,0,2.81a1.43,1.43,0,1,0,2.85,0C31.43,6.65,31.42,6.18,31.42,5.7Z"/><path d="M17.13,34.31l-5.61-6.48,1.89-2.15,3.72,4.47,9.36-10.06,2.09,2Z"/></g></g></svg>