<svg preserveAspectRatio="xMidYMid meet" viewBox="0 0 128 128" xmlns="http://www.w3.org/2000/svg"><g transform="matrix(.1 0 0 -.1 0 128)"><path d="m362 1258c-7-7-12-29-12-50v-38h-111-111l-34-34-34-34v-511-511l29-32 29-33 469-3 468-3 83 84 83 83-3 468-3 468-33 29c-32 28-35 29-142 29h-110v38c0 49-14 62-66 62-66 0-74-6-74-56v-44h-150-150v44c0 31-5 46-16 50-27 10-99 7-112-6zm106-90c3-64 2-68-22-74-54-13-61-5-64 74l-3 73 43-3 43-3zm430 0c-3-79-11-87-64-74-23 6-24 11-24 76v70h45 46zm-548-52c0-36 22-47 82-44 52 3 53 4 56 36l3 32h149 149l3-32c3-32 4-33 56-36 60-3 82 8 82 44 0 24 1 24 109 24 106 0 110-1 130-26 18-23 21-41 21-115v-89h-550-550v92c0 80 3 95 22 115 20 21 30 23 130 23 107 0 108 0 108-24zm840-556v-320h-90-90v-96c0-72 3-95 13-92 8 3 13 31 15 81l3 77h74c53 0 75-4 75-12 0-7-33-45-72-85l-72-73h-455c-453 0-455 0-478 22l-23 21v399 398h550 550z"/><path d="m511 764c-57-47-50-137 13-175 94-57 204 35 162 135-19 45-52 66-102 66-31 0-51-7-73-26zm131-21c36-33 31-98-11-130-27-21-79-15-106 12-76 75 38 189 117 118z"/><path d="m534 511c-84-21-152-96-162-176-7-62 13-58 28 6 26 109 138 172 241 137 70-24 129-94 129-155 0-24 5-33 16-33 25 0 12 72-23 128-44 72-147 114-229 93z"/><path d="m888 263-98-97-33 32c-31 30-57 41-57 24 0-14 88-94 98-91 12 5 212 215 212 223 0 22-38-6-122-91z"/></g></svg>