<svg preserveAspectRatio="xMidYMid meet" viewBox="0 0 480 480" xmlns="http://www.w3.org/2000/svg"><g transform="matrix(.1 0 0 -.1 0 480)"><path d="m1165 4790c-48-19-69-58-73-130l-4-70h-483-483l-30-28c-39-36-45-77-40-263 2-117 6-149 21-170 33-49 114-65 164-32 39 26 53 71 53 173v90h400 400v-54c0-99 73-161 157-133 51 17 74 52 80 125l6 62h918 919v-56c0-89 41-138 116-138 38 0 83 29 101 65 7 13 13 48 13 77v52h399 398l5-103c5-111 18-145 64-165 67-31 145 0 165 66 6 23 9 102 7 204l-3 168-28 27-27 28-488 5-487 5-5 65c-6 79-19 102-64 124-42 20-69 20-106 1-40-21-54-49-60-125l-5-65-917-3-918-2-1 47c0 69-19 114-58 140-35 24-71 28-106 13z"/><path d="m109 3837c-21-14-39-37-47-61-10-30-12-352-10-1540 3-1415 4-1502 21-1527 9-14 29-31 43-37 18-9 309-12 1100-12h1076l34 34 34 34v455 455l75 4c69 3 78 6 108 36 27 28 32 39 32 81 0 81-55 121-167 121h-48v380 380h405c402 0 405 0 405-20 0-54 60-110 116-110 51 0 114 60 114 109 0 21 1 21 399 21h398l5-108c6-144 32-182 126-182 47 0 80 22 98 66 21 51 21 1329-1 1380-29 69 140 64-2183 64h-2099zm4091-587v-380l-397 2-398 3-5 265c-4 234-7 269-23 293-36 55-118 64-169 18l-33-29-5-274-5-273h-400-400l-5 273-5 274-33 29c-51 46-133 37-169-18-16-24-19-59-23-293l-5-265-397-3-398-2v242c0 135-5 259-10 280-21 75-101 109-171 72-54-27-59-56-59-339v-255h-400-400v380 380h1955 1955zm-3110-990v-380h-400-400v380 380h400 400zm1040 0v-380h-400-400v380 380h400 400zm-1040-995v-375h-400-400v375 375h400 400zm1040 0v-375h-400-400v375 375h400 400z"/><path d="m3353 2245c-55-24-79-87-60-155 7-23 3-27-65-60-205-99-348-230-468-429-95-160-142-333-141-531 0-313 109-563 340-782 411-389 1073-379 1468 24 122 124 186 219 243 361 132 330 82 734-124 1015l-47 63 41 46c35 40 40 52 40 93 0 57-25 93-76 110-48 16-77 7-130-42-42-39-47-41-67-28-90 57-159 96-200 113-45 19-48 22-41 46 21 71-3 132-61 157-49 20-605 20-652-1zm553-380c601-174 805-916 376-1368-102-107-220-180-367-227-106-35-312-40-426-11-301 76-533 303-615 601-28 101-26 321 4 423 93 321 356 555 685 608 89 14 244 2 343-26z"/><path d="m3640 1607c-19-7-44-27-57-46-22-33-23-40-23-293 0-277 3-298 52-332 28-20 90-21 126-2 44 23 290 278 297 309 20 78-32 147-111 147-36 0-51-6-83-35-21-19-41-35-45-35-3 0-6 51-6 114 0 114 0 114-31 145-17 17-37 31-44 31s-19 2-27 4c-7 3-29 0-48-7z"/></g></svg>