<svg xmlns="http://www.w3.org/2000/svg" viewBox="0 0 39.98 40"><g data-name="Layer 2"><g><path d="M39,0H1A1,1,0,0,0,0,1H0V19.21a1,1,0,0,0,1,1H1a1,1,0,0,0,1-1V2H38V38H20.67a1,1,0,0,0,0,2H39a1,1,0,0,0,1-1h0V1A1,1,0,0,0,39,0ZM0,39a1,1,0,0,0,1,1H14.93a1,1,0,0,0,1-1h0V25.06a1,1,0,0,0-1-1H1a1,1,0,0,0-1,1H0V39H0ZM2,26.06H13.93V38H2V26.07Zm16.22-4.3a1,1,0,0,0,1.42,0h0L31,10.43V17a1,1,0,0,0,1,1.05,1,1,0,0,0,1-1,.17.17,0,0,0,0-.1V8a1,1,0,0,0-1-1H23A1,1,0,0,0,22,8,1,1,0,0,0,22.93,9h6.63L18.23,20.36a1,1,0,0,0,0,1.41h0Z"/></g></g></svg>