<svg xmlns="http://www.w3.org/2000/svg" viewBox="0 0 40 33.43"><g data-name="Layer 2"><g><path d="M30,27.41a1.51,1.51,0,0,0-1.51,1.5h0v1.52H3V12.18H7.05a1.51,1.51,0,0,0,0-3H1.5A1.5,1.5,0,0,0,0,10.67H0V31.93a1.5,1.5,0,0,0,1.5,1.5H30a1.5,1.5,0,0,0,1.5-1.5h0v-3a1.5,1.5,0,0,0-1.5-1.5Zm9.57-16-11-11A1.49,1.49,0,0,0,26,1.5v5A19.57,19.57,0,0,0,12.5,11.74a17.92,17.92,0,0,0-5,11.77A1.49,1.49,0,0,0,8.65,25,1.31,1.31,0,0,0,9,25a1.5,1.5,0,0,0,1.3-.75c2.87-5,10.27-5.77,14.43-5.77.46,0,.87,0,1.23,0v5A1.5,1.5,0,0,0,27.5,25a1.54,1.54,0,0,0,1.06-.44l11-11a1.51,1.51,0,0,0,0-2.12ZM29,19.88V17.09a1.49,1.49,0,0,0-1.33-1.5c-.05,0-1.18-.13-2.89-.13a24.75,24.75,0,0,0-13.26,3.29,13.78,13.78,0,0,1,3.11-4.9A17.52,17.52,0,0,1,27.51,9.42,1.5,1.5,0,0,0,29,7.92h0V5.13l7.37,7.38L29,19.88Z"/></g></g></svg>