<svg version="1.1"  xmlns="http://www.w3.org/2000/svg" xmlns:xlink="http://www.w3.org/1999/xlink" x="0px" y="0px"
	 viewBox="0 0 48 48" style="enable-background:new 0 0 48 48;" xml:space="preserve">
<g>
	<path d="M36,43.9c0,0.6-0.4,1-1,1H4c-0.6,0-1-0.4-1-1v-31c0-0.6,0.4-1,1-1h25.9l2-3H2.5C1.1,8.9,0,10.1,0,11.5v34
		C0,46.9,1.1,48,2.5,48h34c1.4,0,2.5-1.1,2.5-2.5V16.1l-3,2V43.9z"/>
	<path d="M46.5,0H31.4c-0.9,0-1.5,0.8-1.5,1.5c0,0.9,0.8,1.5,1.5,1.5h11.4L22.7,23.2c-0.3,0.3-0.5,0.6-0.5,1.1
		c0,0.5,0.2,0.8,0.5,1.1c0.3,0.3,0.6,0.5,1.1,0.5c0.5,0,0.8-0.2,1.1-0.5L45,5.2v11.4c0,0.9,0.8,1.5,1.5,1.5c0.9,0,1.5-0.8,1.5-1.5
		V1.5C48,0.8,47.2,0,46.5,0z"/>
</g>
</svg>
