<svg id="Layer_1" data-name="Layer 1" xmlns="http://www.w3.org/2000/svg" viewBox="0 0 128 128">
  <g>
    <path d="M169.98615,152H208V280H153.98031V222.69644h20.98026c.42684-9.05506.82792-17.56338,1.25572-26.63856H153.79293c0-4.48605.13419-8.45228-.03626-12.40538-.18512-4.29331,1.69475-6.02142,5.94468-5.869,5.09019.18253,10.19194.04309,15.788.04309V153.37581Z" transform="translate(-80 -152)" style="fill: #fff"/>
    <path d="M125.97011,280H80V152h71.97958a9.75513,9.75513,0,0,1-1.7751.8042c-16.02105,3.72747-24.01772,13.685-24.12241,30.10359-.02724,4.27221-.00411,8.54474-.00411,13.36942H111.20007v26.3989h14.77Z" transform="translate(-80 -152)" style="fill: #fff"/>
    <path d="M125.97011,280V222.67611h-14.77v-26.3989H126.078c0-4.82468-.02313-9.09721.00411-13.36942.10469-16.41858,8.10136-26.37612,24.12241-30.10359a9.75513,9.75513,0,0,0,1.7751-.8042h18.00657l5.50324,1.37581v24.45076c-5.5961,0-10.69785.13944-15.788-.04309-4.24993-.1524-6.1298,1.57571-5.94468,5.869.17045,3.9531.03626,7.91933.03626,12.40538h22.42336c-.4278,9.07518-.82888,17.5835-1.25572,26.63856H153.98031V280Zm5.85645-6.11328h16.288V216.7816h21.56252V201.96791h-21.6548c0-6.80441-.164-13.09777.04361-19.37885.23312-7.05163,3.58842-10.26987,10.63863-10.52018,3.60978-.12816,7.22788-.02247,10.994-.02247V157.88312c-4.87469,0-9.35841-.14743-13.82959.02686-15.14038.59018-23.90795,9.73578-23.95907,24.86491-.02119,6.27049-.00352,12.54112-.00352,19.34522H117.03689v14.89965h14.78967Z" transform="translate(-80 -152)"/>
    <path d="M131.82656,273.88672v-56.867H117.03689V202.12011h14.86945c0-6.8041-.01767-13.07473.00352-19.34522.05112-15.12913,8.81869-24.27473,23.95907-24.86491,4.47118-.17429,8.9549-.02686,13.82959-.02686v14.16329c-3.76608,0-7.38418-.10569-10.994.02247-7.05021.25031-10.40551,3.46855-10.63863,10.52018-.20764,6.28108-.04361,12.57444-.04361,19.37885h21.6548V216.7816H148.1146v57.10512Z" transform="translate(-80 -152)" style="fill: #fff"/>
  </g>
</svg>
