<svg id="Layer_1" data-name="Layer 1" xmlns="http://www.w3.org/2000/svg" viewBox="0 0 102.4 102.4">
  <g>
    <path d="M187.462,165H195.4V267.4L93,267.4q0-34.13332,0-68.26667c1.24051,3.5974,1.67417,7.81888,3.87947,10.67,5.62518,7.27259,11.98327,13.98655,18.20767,20.77777.8531.93079,2.61506,1.02859,3.95623,1.512-.4314-1.44072-.44877-3.262-1.36411-4.25793-4.5617-4.96345-9.60274-9.49827-14.02249-14.57774-8.6718-9.9662-8.8573-24.49044-.59189-35.38251,4.40153,4.40259,8.696,8.85854,13.20391,13.087,1.0425.97787,2.81456,1.178,4.25091,1.736-.54311-1.5273-.68035-3.43947-1.70007-4.51483-4.26169-4.49422-8.78835-8.7372-13.17434-13.02964,5.9523-7.71918,9.88894-8.00855,16.36774-1.53864,3.74436,3.73922,7.55562,7.4149,11.206,11.24382,3.71267,3.89426,3.70893,7.60864.0943,11.56544a62.89,62.89,0,0,1-5.9015,5.87715c-2.80047,2.34712-2.71942,4.20984-.082,6.75737q11.41662,11.02766,22.45016,22.44875c2.51665,2.60311,4.72034,4.24595,7.177,1.41881l24.13417,24.12532a27.49942,27.49942,0,0,1-34.48637-.90541c-5.3071-4.5562-10.03235-9.78489-15.17194-14.54627-.93361-.86491-2.60186-.93684-3.931-1.37483.37353,1.34973.34308,3.07531,1.18951,3.98505a134.34365,134.34365,0,0,0,12.36549,12.30869c3.80889,3.14985,8.01088,6.32753,12.586,7.9548,14.69006,5.22489,26.88371.33,37.12448-10.685,5.171-5.562,5.164-11.69549-.19208-17.20242q-6.50207-6.68512-13.205-13.17391c-5.33618-5.143-11.6176-5.18611-16.887-.01428a69.7225,69.7225,0,0,0-5.28987,6.40756l-25.25145-25.228c2.02718-1.78428,4.5751-3.71191,6.73987-6.00176,3.809-4.0291,4.84244-9.94184,1.44031-13.77562-6.43549-7.252-12.46483-15.08584-21.30829-19.80007h35.72093c-4.21288,2.128-7.49522,4.94977-7.50119,10.17192-.00846,7.3939-.15975,14.79236.05073,22.1803.1707,5.992,4.08779,10.23589,10.03952,9.91083,5.57062-.30425,9.28276,1.4198,11.93723,6.17352,1.76935,3.16859,3.9145,2.905,5.54731-.08915,2.55251-4.6807,6.183-6.29195,11.57416-6.05562,6.44215.28241,10.34686-4.264,10.40789-10.84325.0539-5.8093-.302-11.64117.09712-17.42346C195.12407,172.70217,193.20163,167.962,187.462,165Z" transform="translate(-93 -165)" style="fill: #fff"/>
    <path d="M116.814,165c8.84346,4.71423,14.8728,12.54808,21.30829,19.80007,3.40213,3.83378,2.3687,9.74652-1.44031,13.77562-2.16477,2.28985-4.71269,4.21748-6.73987,6.00176l25.25145,25.228a69.7225,69.7225,0,0,1,5.28987-6.40756c5.26939-5.17183,11.55081-5.12867,16.887.01428q6.71439,6.47127,13.205,13.17391c5.35613,5.50693,5.36313,11.64041.19208,17.20242-10.24077,11.015-22.43442,15.90992-37.12448,10.685-4.57516-1.62727-8.77715-4.805-12.586-7.9548A134.34365,134.34365,0,0,1,128.6914,244.21c-.84643-.90974-.816-2.63532-1.18951-3.98505,1.32911.438,2.99736.50992,3.931,1.37483,5.13959,4.76138,9.86484,9.99007,15.17194,14.54627a27.49942,27.49942,0,0,0,34.48637.90541L156.957,232.92617c-2.45667,2.82714-4.66036,1.1843-7.177-1.41881q-11.03278-11.41183-22.45016-22.44875c-2.6374-2.54753-2.71845-4.41025.082-6.75737a62.89,62.89,0,0,0,5.9015-5.87715c3.61463-3.9568,3.61837-7.67118-.0943-11.56544-3.6504-3.82892-7.46166-7.5046-11.206-11.24382-6.4788-6.46991-10.41544-6.18054-16.36774,1.53864,4.386,4.29244,8.91265,8.53542,13.17434,13.02964,1.01972,1.07536,1.157,2.98753,1.70007,4.51483-1.43635-.558-3.20841-.7581-4.25091-1.736-4.5079-4.22844-8.80238-8.68439-13.20391-13.087-8.26541,10.89207-8.07991,25.41631.59189,35.38251,4.41975,5.07947,9.46079,9.61429,14.02249,14.57774.91534.996.93271,2.81721,1.36411,4.25793-1.34117-.48345-3.10313-.58125-3.95623-1.512-6.2244-6.79122-12.58249-13.50518-18.20767-20.77777-2.2053-2.85115-2.639-7.07263-3.87947-10.67v-7.938c2.33369-11.34688,8.31644-20.15048,18.25736-26.19535Zm68.27719,88.43393c7.00558-5.13552,7.37114-9.35791,1.01062-15.73119q-4.88994-4.89975-9.78987-9.78952c-6.13045-6.1114-10.35225-5.73227-15.50919,1.12372Z" transform="translate(-93 -165)"/>
    <path d="M187.462,165c5.73961,2.962,7.662,7.70217,7.22563,14.02509-.39909,5.78229-.04322,11.61416-.09712,17.42346-.061,6.57925-3.96574,11.12566-10.40789,10.84325-5.39117-.23633-9.02165,1.37492-11.57416,6.05562-1.63281,2.99416-3.778,3.25774-5.54731.08915-2.65447-4.75372-6.36661-6.47777-11.93723-6.17352-5.95173.32506-9.86882-3.91881-10.03952-9.91083-.21048-7.38794-.05919-14.7864-.05073-22.1803.006-5.22215,3.28831-8.044,7.50119-10.17192Zm-17.30317,45.634c2.46924-7.14059,8.02568-7.45065,14.13227-7.28233,4.2579.11736,6.27137-2.42945,6.32589-6.92133.0801-6.60012.05708-13.20216.01185-19.80293-.03789-5.53-2.14356-7.62417-7.71147-7.65025q-13.06986-.06121-26.14021-.00127c-5.625.02345-7.69878,1.99212-7.78742,7.558-.0988,6.20349-.06243,12.41-.01668,18.61467.048,6.50576,1.81919,8.57393,8.22192,8.247,5.07831-.2593,9.05364.73024,11.41512,5.58521C168.82086,209.414,169.28954,209.72185,170.15885,210.634Z" transform="translate(-93 -165)"/>
    <path d="M111.25736,165C101.31644,171.04487,95.33369,179.84847,93,191.19535V165Z" transform="translate(-93 -165)" style="fill: #fff"/>
    <path d="M185.09114,253.43393l-24.28844-24.397c5.15694-6.856,9.37874-7.23512,15.50919-1.12372q4.90245,4.88723,9.78987,9.78952C192.46228,244.076,192.09672,248.29841,185.09114,253.43393Z" transform="translate(-93 -165)" style="fill: #fff"/>
    <path d="M170.15885,210.634c-.86931-.91217-1.338-1.22-1.54873-1.65327-2.36148-4.855-6.33681-5.84451-11.41512-5.58521-6.40273.32692-8.17395-1.74125-8.22192-8.247-.04575-6.20469-.08212-12.41118.01668-18.61467.08864-5.56583,2.16241-7.5345,7.78742-7.558q13.06992-.05448,26.14021.00127c5.56791.02608,7.67358,2.1203,7.71147,7.65025.04523,6.60077.06825,13.20281-.01185,19.80293-.05452,4.49188-2.068,7.03869-6.32589,6.92133C178.18453,203.18337,172.62809,203.49343,170.15885,210.634Zm1.00643-37.78555c-4.5109.46042-6.94965,1.87158-7.73953,5.078-.25588,1.0387.43544,2.31073.6935,3.476.92525-.62449,1.87746-1.21309,2.76875-1.88277,1.05966-.79617,1.96915-2.02863,3.13882-2.3407.572-.1526,2.31226,1.42926,2.24143,2.08828a5.00779,5.00779,0,0,1-1.95225,3.352c-2.79518,1.759-2.82481,4.26921-2.33127,6.92538a2.47842,2.47842,0,0,0,1.84285,1.551c.60364-.00306,1.323-.963,1.778-1.64469,1.00088-1.49958,1.64546-3.29114,2.83679-4.59754,2.121-2.32581,2.8985-5.09161,1.47173-7.60346C174.75805,175.21492,172.347,173.89262,171.16528,172.84847Z" transform="translate(-93 -165)" style="fill: #fff"/>
    <path d="M171.16528,172.84847c1.18174,1.04415,3.59277,2.36645,4.74879,4.40161,1.42677,2.51185.64924,5.27765-1.47173,7.60346-1.19133,1.3064-1.83591,3.098-2.83679,4.59754-.45494.68165-1.17433,1.64163-1.778,1.64469a2.47842,2.47842,0,0,1-1.84285-1.551c-.49354-2.65617-.46391-5.16638,2.33127-6.92538a5.00779,5.00779,0,0,0,1.95225-3.352c.07083-.659-1.66945-2.24088-2.24143-2.08828-1.16967.31207-2.07916,1.54453-3.13882,2.3407-.89129.66968-1.8435,1.25828-2.76875,1.88277-.25806-1.1653-.94938-2.43733-.6935-3.476C164.21563,174.72,166.65438,173.30889,171.16528,172.84847Z" transform="translate(-93 -165)"/>
  </g>
</svg>
