<svg xmlns="http://www.w3.org/2000/svg" viewBox="0 0 39.12 40"><g data-name="Layer 2"><g><path class="cls-1" d="M39.08,5A3.86,3.86,0,0,0,35.89,1.7c-.66-.08-1.32,0-2,0-.16,0-.36.05-.46,0s0-.3,0-.45V1.09a1.14,1.14,0,0,0-1-1.09,1.13,1.13,0,0,0-1.19.94,3.75,3.75,0,0,0,0,.58c0,.11,0,.14-.14.14H26.21c-.12,0-.14,0-.14-.14s0-.34,0-.5a1.13,1.13,0,0,0-1-1,1.12,1.12,0,0,0-1.17.83,1.74,1.74,0,0,0,0,.6c0,.18,0,.24-.22.24-.6,0-1.21,0-1.81,0a3.79,3.79,0,0,0-3.66,3.57c0,1.25,0,2.51,0,3.76v8.4a4.15,4.15,0,0,0,.07.87A3.83,3.83,0,0,0,22,21.35H35.22a3.87,3.87,0,0,0,3.9-3.9V5.66A5.63,5.63,0,0,0,39.08,5Zm-18.7.39a1.54,1.54,0,0,1,1.55-1.41c.59,0,1.17,0,1.75,0,.13,0,.16,0,.16.17a2.44,2.44,0,0,0,0,.66,1.11,1.11,0,0,0,2.18-.19,3.23,3.23,0,0,0,0-.44c0-.16,0-.21.2-.21h4.37c.17,0,.4-.08.5,0s0,.31,0,.48a1.12,1.12,0,1,0,2.24,0c0-.17,0-.39,0-.48s.33,0,.5,0c.52,0,1,0,1.56,0a1.53,1.53,0,0,1,1.37,1.46c0,.64,0,1.27,0,1.91,0,.16-.09.14-.18.14H20.58c-.18,0-.23,0-.23-.23C20.38,6.6,20.31,6,20.38,5.34Zm16.5,12.08A1.58,1.58,0,0,1,35.63,19a1.75,1.75,0,0,1-.4,0H22a1.57,1.57,0,0,1-1.64-1.65q0-3.75,0-7.49c0-.19.08-.19.22-.19H36.65c.18,0,.23,0,.23.22Z"/><path class="cls-1" d="M24.16,23.92l-.66-.5a2.91,2.91,0,0,0-4.28.84c-.38.62-.76,1.25-1.13,1.88-.09.16-.17.17-.32.11l-5.13-2.11A4.28,4.28,0,0,0,11,23.81H4a4.6,4.6,0,0,0-.74.05A3.88,3.88,0,0,0,0,27.76v11A1.13,1.13,0,0,0,1.21,40H7.5c2.07,0,4.14,0,6.22,0A1.21,1.21,0,0,0,15,38.72c0-1.51,0-3,0-4.53,0-.24,0-.24.24-.16l3.67,1.24a1.11,1.11,0,0,0,1.39-.45q2.28-3.43,4.54-6.87A3,3,0,0,0,24.16,23.92ZM23,26.71l-4,6c-.07.12-.14.09-.24.06l-4.4-1.49a1.11,1.11,0,0,0-1.56,1.11q0,2.52,0,5c0,.18,0,.24-.23.24H2.46c-.17,0-.23,0-.23-.21q0-4.84,0-9.69A1.63,1.63,0,0,1,4,26.09h7a2.06,2.06,0,0,1,.73.14l6.12,2.51a1.13,1.13,0,0,0,1.57-.52L21.1,25.5a.71.71,0,0,1,1.12-.22c.2.15.39.29.58.45A.7.7,0,0,1,23,26.71Z"/><path class="cls-1" d="M7.07,12.7A5.31,5.31,0,0,0,7,23.31,5.31,5.31,0,0,0,7.07,12.7ZM7,21a3,3,0,1,1,3-3A3,3,0,0,1,7,21Z"/></g></g></svg>