<svg version="1.1" xmlns="http://www.w3.org/2000/svg" xmlns:xlink="http://www.w3.org/1999/xlink" x="0px" y="0px"
	 viewBox="0 0 47.3 47.3" style="enable-background:new 0 0 47.3 47.3;" xml:space="preserve">
<path d="M41.4,0.6H5.8C3,0.6,0.6,3,0.6,5.8v35.6c0,2.9,2.3,5.2,5.2,5.2h35.6c2.9,0,5.2-2.3,5.2-5.2V5.8
	C46.6,3,44.3,0.6,41.4,0.6z M43.7,41.7c0,1.1-0.9,2-2,2H5.5c-1.1,0-2-0.9-2-2V5.5c0-1.1,0.9-2,2-2h36.2c1.1,0,2,0.9,2,2V41.7
	L43.7,41.7z M38.8,18.7l-9.4-1.5l-4.3-8.5c-0.4-0.7-1.3-1-2-0.6c-0.3,0.1-0.5,0.4-0.6,0.6l-4.3,8.5l-9.4,1.5
	c-0.8,0.1-1.3,0.9-1.2,1.7c0,0.3,0.2,0.6,0.4,0.8l6.7,6.7l-1.5,9.4c-0.1,0.8,0.4,1.6,1.2,1.7c0.3,0,0.6,0,0.9-0.1l8.5-4.3l8.5,4.3
	c0.2,0.1,0.4,0.2,0.7,0.2c0.3,0,0.6-0.1,0.9-0.3c0.4-0.3,0.7-0.9,0.6-1.4L32.9,28l6.7-6.7c0.6-0.6,0.6-1.5,0-2.1
	C39.4,18.9,39.1,18.8,38.8,18.7L38.8,18.7z M30.3,26.4c-0.3,0.3-0.5,0.8-0.4,1.3L31,35l-6.6-3.3c-0.4-0.2-0.9-0.2-1.3,0L16.5,35
	l1.1-7.3c0.1-0.5-0.1-0.9-0.4-1.3L12,21.2l7.3-1.2c0.5-0.1,0.9-0.4,1.1-0.8l3.4-6.6l3.4,6.6c0.2,0.4,0.6,0.7,1.1,0.8l7.3,1.2
	L30.3,26.4z"/>
</svg>
