<svg xmlns="http://www.w3.org/2000/svg" viewBox="0 0 40 39.82"><g data-name="Layer 2"><g><path d="M0,28.88l.7-1.72Q6,14.12,11.33,1.09a.28.28,0,0,1,.3-.21h4a.25.25,0,0,1,.28.18q3.64,8.94,7.3,17.87a.65.65,0,0,1,0,.34c-.05.49-.1,1-.16,1.48a.78.78,0,0,1-.13.36,5.63,5.63,0,0,0-.9,1.67,3.24,3.24,0,0,0,.28,2.46c.18.33.4.63.59.95a.81.81,0,0,1,.11.33c.06.52.09,1,.18,1.55a3.8,3.8,0,0,0,.28.8c-.17.06-.25,0-.32-.19-.78-1.94-1.57-3.87-2.35-5.81a.27.27,0,0,0-.31-.21H6.77a.27.27,0,0,0-.3.21Q5.3,25.81,4.11,28.72c0,.1-.07.18-.21.18H0Zm19.64-9.31-6-15.08L7.58,19.57Z"/><path d="M31.92,36.1l-2.19,2.16-1.25,1.23a1,1,0,0,1-1.7-.71q0-4.31,0-8.61a.32.32,0,0,0-.25-.36c-.34-.12-.68-.24-1-.39A2.4,2.4,0,0,1,24,27.19c0-.3,0-.6,0-.89a1.32,1.32,0,0,0-.14-.45c-.15-.26-.33-.5-.49-.75a2.46,2.46,0,0,1,0-2.91,7.64,7.64,0,0,0,.47-.69A1.3,1.3,0,0,0,24,21c0-.44,0-.88.11-1.31A2.17,2.17,0,0,1,25.33,18a9.08,9.08,0,0,1,1.12-.46,1.26,1.26,0,0,0,.65-.48c.14-.19.3-.38.45-.56a2.54,2.54,0,0,1,2.79-.9c.23.06.46.12.69.2a1.57,1.57,0,0,0,.86,0,9.15,9.15,0,0,1,1.36-.29,2.16,2.16,0,0,1,1.82.7,10.29,10.29,0,0,1,.74.87,1.21,1.21,0,0,0,.58.42l.69.26a2.49,2.49,0,0,1,1.8,2.49c0,1.27-.05.87.62,1.87a2.51,2.51,0,0,1,0,3c-.14.21-.29.43-.45.64a1.05,1.05,0,0,0-.2.6c0,.43,0,.86-.1,1.29a2.12,2.12,0,0,1-1.13,1.57,7,7,0,0,1-1,.44.25.25,0,0,0-.2.28c0,2.76,0,5.51,0,8.27a.94.94,0,0,1-.86,1,1,1,0,0,1-.83-.31l-2.63-2.6A1.93,1.93,0,0,1,31.92,36.1ZM29.57,17.84c-.05,0-.11.06-.14.11s-.3.36-.44.55a3.49,3.49,0,0,1-1.72,1.25l-.71.26a.21.21,0,0,0-.15.23c0,.24,0,.47,0,.71A3.3,3.3,0,0,1,25.66,23a5.07,5.07,0,0,0-.36.54.34.34,0,0,0,0,.26,5.31,5.31,0,0,0,.42.63,3.19,3.19,0,0,1,.61,1.93c0,.23,0,.46,0,.69a.26.26,0,0,0,.22.28l.72.26a3.5,3.5,0,0,1,1.64,1.2c.13.18.28.36.42.54a.28.28,0,0,0,.35.11c.21-.08.44-.12.65-.19a3.52,3.52,0,0,1,2.13,0l.71.19a.22.22,0,0,0,.27-.08c.14-.18.29-.36.42-.54a3.41,3.41,0,0,1,1.75-1.26l.66-.25a.23.23,0,0,0,.17-.24c0-.27,0-.53,0-.8A3,3,0,0,1,37,24.59c.17-.23.32-.47.49-.7a.33.33,0,0,0,0-.47c-.16-.2-.3-.42-.44-.63a2.76,2.76,0,0,1-.49-1.22c0-.32,0-.64-.06-1,0-.68,0-.55-.52-.72a4.29,4.29,0,0,1-2.3-1.64c-.38-.54-.25-.44-.85-.28l-.36.1A3.34,3.34,0,0,1,31,18.2c-.34-.06-.68-.16-1-.25ZM34.4,36l.06-.06V31.54a2.49,2.49,0,0,1-1.63.21c-.32-.06-.64-.15-1-.24a1.36,1.36,0,0,0-.89,0,3.61,3.61,0,0,1-2.25.17v4.85a1.2,1.2,0,0,0,.16-.15l2.24-2.21a1,1,0,0,1,1.53,0l1.28,1.26C34.1,35.6,34.25,35.79,34.4,36Z"/><path class="cls-1" d="M35.1,5.26H30.59V.74A.75.75,0,0,0,29.84,0a.74.74,0,0,0-.74.74V5.26H24.59a.74.74,0,1,0,0,1.48H29.1v4.52a.74.74,0,0,0,.74.74.75.75,0,0,0,.75-.74V6.74H35.1a.74.74,0,1,0,0-1.48Z"/></g></g></svg>