<svg id="Layer_1" data-name="Layer 1" xmlns="http://www.w3.org/2000/svg" viewBox="0 0 128 128">
  <g>
    <path d="M80,280V152H208V280Zm76.37158-16.3386c-4.48842,0-8.45788-.211-12.39384.06157-3.6599.2534-4.90241-.90148-4.88042-4.7291q.2312-40.23594-.011-80.47341c-.02912-4.23835,1.64152-5.034,5.2995-4.89375a66.947,66.947,0,0,0,8.71275-.74148l-.0188-2.37422c-2.55728-.23975-5.11014-.56582-7.673-.69685-3.02989-.15492-6.34544.84667-7.09084-4.00438-.18014-1.17228-3.30288-2.54264-5.158-2.68177-4.97049-.37279-9.98746-.15039-14.98571-.12149-5.19323.03-7.0631,1.88266-7.16439,7.22686-.0809,4.26806-.01633,8.53887-.01633,12.69916l-10.25589,1.386-.03394,2.35657,9.95141,1.60457v75.38241c-2.283,0-4.24716-.0001-6.2113,0-6.99011.00039-6.997.00042-6.998-6.85566q-.00485-34.73907.01479-69.47813c.00371-2.98345-.64553-6.45871.663-8.76823.80478-1.42037,4.77877-.95724,7.27877-1.55352a3.85618,3.85618,0,0,0,2.2136-1.67368c.21352-.37016-.43694-1.64822-1.01181-1.99969-5.22134-3.19227-12.58681.8617-12.5921,6.92148q-.03469,39.73748-.005,79.475c.00275,6.158,1.10424,7.26274,7.2516,7.26509q44.73593.01716,89.47185.00011c6.15059-.00231,7.263-1.11282,7.26606-7.25065.01235-25.15875-.04631-50.31773.06414-75.476.01547-3.52408-.50706-6.80982-4.25264-7.37006-4.39063-.65673-9.2168-1.97768-13.19889,1.17427l-.0523,1.95211,14.00215,1.3781v6.22469c0,21.49324.0466,42.98661-.01721,64.47966-.03924,13.21652,1.722,11.27084-11.77729,11.64327-4.19605.11577-5.33912-1.19889-5.301-5.32555.1925-20.825.0818-41.65276.10343-62.47952.00164-1.5794.2053-3.15859.33306-4.99692,3.16973,0,5.82715.1313,8.459-.07054.93319-.07157,1.80416-.95432,2.70354-1.46674-.89118-.74263-1.7252-2.02382-2.68438-2.12562a87.46344,87.46344,0,0,0-8.83986-.10225c0-5.16744.13387-9.63156-.03571-14.08412-.18911-4.9651-2.18844-6.74625-7.175-6.82174-1.66576-.02522-3.33222-.00588-4.99837-.0044-8.05093.00717-8.94426.85835-8.94895,8.8586q-.024,40.9871-.00685,81.97421C156.37157,259.0704,156.37158,261.03517,156.37158,263.6614Zm-3.1851-59.1642c0-3.14618-.21533-6.31081.05252-9.434.36451-4.25018-2.14819-4.47147-5.27526-4.374-3.03824.09469-6.10853-.38381-5.93243,4.36069.23322,6.28367.24083,12.58981-.00585,18.87249-.17847,4.54522,2.259,5.03443,5.91618,5.085,3.74635.05185,5.60881-1.02086,5.29539-5.0754C152.99527,210.80451,153.18882,207.64337,153.18648,204.4972Zm28.92126-.21372c-2.71075,4.36316-2.49009,17.95258.10889,21.15665C185.60127,222.55012,185.701,207.77641,182.10774,204.28348Zm5.987,22.18513c3.14332-3.13011,4.054-10.65732,3.04754-18.90963-.14052-1.15218-1.055-2.21-1.61124-3.31144l-1.4363.40161ZM153.30553,248.006c-3.63512-3.00783-7.74381-2.96619-10.87155-.15094C145.48362,250.8989,149.26112,251.03843,153.30553,248.006ZM141.588,253.80675c3.81538,4.24453,9.18025,4.04608,11.67442,0Zm44.10637-2.76241,5.33687-2.91506c-1.73935-.76324-3.45273-2.04963-5.2256-2.13764-1.66179-.08251-3.38655,1.10331-5.0836,1.731Zm.34781,6.82559,4.97081-3.1148c-1.66882-.63435-3.36331-1.8269-4.99949-1.75164-1.76149.081-3.46832,1.3504-5.199,2.10131ZM104.09882,208.8901l3.64426-2.4068c-1.04584-.72346-2.14255-2.0881-3.12481-2.01016-1.26457.10032-2.4374,1.35694-3.64975,2.11551Zm.20739,1.32828-3.30933,3.06223c1.1339.7105,2.2736,1.98362,3.40007,1.972,1.109-.01142,2.20467-1.32524,3.30618-2.06761Z" transform="translate(-80 -152)" style="fill: #fff"/>
    <path d="M156.37158,263.6614c0-2.62623,0-4.591,0-6.55578q.00041-40.98711.00685-81.97421c.00469-8.00025.898-8.85143,8.94895-8.8586,1.66615-.00148,3.33261-.02082,4.99837.0044,4.98661.07549,6.98594,1.85664,7.175,6.82174.16958,4.45256.03571,8.91668.03571,14.08412a87.46344,87.46344,0,0,1,8.83986.10225c.95918.1018,1.7932,1.383,2.68438,2.12562-.89938.51242-1.77035,1.39517-2.70354,1.46674-2.63187.20184-5.28929.07054-8.459.07054-.12776,1.83833-.33142,3.41752-.33306,4.99692-.02163,20.82676.08907,41.65452-.10343,62.47952-.03815,4.12666,1.10492,5.44132,5.301,5.32555,13.4993-.37243,11.738,1.57325,11.77729-11.64327.06381-21.49305.01721-42.98642.01721-64.47966v-6.22469l-14.00215-1.3781.0523-1.95211c3.98209-3.15195,8.80826-1.831,13.19889-1.17427,3.74558.56024,4.26811,3.846,4.25264,7.37006-.11045,25.15827-.05179,50.31725-.06414,75.476-.003,6.13783-1.11547,7.24834-7.26606,7.25065q-44.73592.01682-89.47185-.00011c-6.14736-.00235-7.24885-1.1071-7.2516-7.26509q-.0177-39.7375.005-79.475c.00529-6.05978,7.37076-10.11375,12.5921-6.92148.57487.35147,1.22533,1.62953,1.01181,1.99969a3.85618,3.85618,0,0,1-2.2136,1.67368c-2.5.59628-6.474.13315-7.27877,1.55352-1.30858,2.30952-.65934,5.78478-.663,8.76823q-.04317,34.739-.01479,69.47813c.001,6.85608.00784,6.856,6.998,6.85566,1.96414-.00011,3.92828,0,6.2113,0V188.27964l-9.95141-1.60457.03394-2.35657,10.25589-1.386c0-4.16029-.06457-8.4311.01633-12.69916.10129-5.3442,1.97116-7.19684,7.16439-7.22686,4.99825-.0289,10.01522-.2513,14.98571.12149,1.85509.13913,4.97783,1.50949,5.158,2.68177.7454,4.85105,4.061,3.84946,7.09084,4.00438,2.56284.131,5.1157.4571,7.673.69685l.0188,2.37422a66.947,66.947,0,0,1-8.71275.74148c-3.658-.14028-5.32862.6554-5.2995,4.89375q.27645,40.23535.011,80.47341c-.022,3.82762,1.22052,4.9825,4.88042,4.7291C147.9137,263.45044,151.88316,263.6614,156.37158,263.6614Zm-21.07-.26693c0-2.20633,0-4.15119,0-6.096q0-38.20794-.00006-76.41586c0-14.51363-.00134-14.36436-14.68657-14.48973-4.754-.04058-6.47861,1.45922-4.91283,6.65747,3.79542,0,7.75959-.17577,11.69421.08839,1.52769.10256,2.98864,1.19894,4.48,1.8426-1.42831.72134-2.81992,1.96042-4.292,2.06476-4.05322.28729-8.14013.09925-12.04675.09925v86.24917Zm25.01359-82.61991V263.3382h13.01225v-5.738q0-39.92107-.0002-79.84214c-.00015-7.85853-.00119-7.85853-7.801-7.77413-5.68724.06153-5.92168.34109-4.901,6.45219a57.53561,57.53561,0,0,1,6.7794.08789c.91263.10778,1.70968,1.19438,2.55933,1.83551-.85376.805-1.62339,2.15857-2.57815,2.305A47.97207,47.97207,0,0,1,160.31517,180.77456Z" transform="translate(-80 -152)"/>
    <path d="M153.18765,204.4972c.00117,3.14617-.19238,6.30731.04938,9.4348.31342,4.05454-1.549,5.12725-5.29539,5.0754-3.65722-.05061-6.09465-.53982-5.91618-5.085.24668-6.28268.23907-12.58882.00585-18.87249-.1761-4.7445,2.89419-4.266,5.93243-4.36069,3.12707-.09746,5.63977.12383,5.27526,4.374C152.97115,198.18639,153.18648,201.351,153.18765,204.4972Zm-6.06207,9.9095,1.33611-.15355V194.457l-1.33611.02353Z" transform="translate(-80 -152)"/>
    <path d="M182.10774,204.28348c3.59326,3.49293,3.49353,18.26664.10889,21.15665C179.61765,222.23606,179.397,208.64664,182.10774,204.28348Z" transform="translate(-80 -152)"/>
    <path d="M188.0947,226.46861V204.64915l1.4363-.40161c.55622,1.10148,1.47072,2.15926,1.61124,3.31144C192.14873,215.81129,191.238,223.3385,188.0947,226.46861Z" transform="translate(-80 -152)"/>
    <path d="M153.30553,248.006c-4.04441,3.03239-7.82191,2.89286-10.87155-.15094C145.56172,245.03985,149.67041,244.99821,153.30553,248.006Z" transform="translate(-80 -152)"/>
    <path d="M141.588,253.80675h11.67442C150.76821,257.85283,145.40334,258.05128,141.588,253.80675Z" transform="translate(-80 -152)"/>
    <path d="M185.69433,251.04434l-4.97233-3.32171c1.697-.62768,3.42181-1.8135,5.0836-1.731,1.77287.088,3.48625,1.3744,5.2256,2.13763Z" transform="translate(-80 -152)"/>
    <path d="M186.04214,257.86993l-5.22767-2.76513c1.73067-.75091,3.4375-2.0203,5.199-2.10131,1.63618-.07526,3.33067,1.11729,4.99949,1.75164Z" transform="translate(-80 -152)"/>
    <path d="M104.09882,208.8901l-3.1303-2.30145c1.21235-.75857,2.38518-2.01519,3.64975-2.11551.98226-.07794,2.079,1.2867,3.12481,2.01016Z" transform="translate(-80 -152)"/>
    <path d="M104.30621,210.21838l3.39692,2.96663c-1.10151.74237-2.19714,2.05619-3.30618,2.06761-1.12647.01161-2.26617-1.26151-3.40007-1.972Z" transform="translate(-80 -152)"/>
    <path d="M135.30158,263.39447h-19.764V177.1453c3.90662,0,7.99353.188,12.04675-.09925,1.472-.10434,2.86365-1.34342,4.292-2.06476-1.49135-.64366-2.9523-1.74-4.48-1.8426-3.93462-.26416-7.89879-.08839-11.69421-.08839-1.56578-5.19825.15882-6.698,4.91283-6.65747,14.68523.12537,14.68654-.0239,14.68657,14.48973q.00006,38.20794.00006,76.41586C135.30159,259.24328,135.30158,261.18814,135.30158,263.39447Zm-3.19679-72.67517c-3.75755,0-6.87408.108-9.9796-.0306-3.06026-.13655-4.11895,1.276-4.05431,4.182.10709,4.81424.0246,9.63267.02395,14.44933-.00142,10.37618-.00092,10.376,10.1974,9.60123.16534-.01257.40175.06351.48755-.021,1.12071-1.10379,3.13644-2.19671,3.17739-3.35428C132.23827,207.60017,132.10479,199.63968,132.10479,190.7193Zm-6.97947,54.03175-6.57638,3.324c2.15128.67309,4.30994,1.89829,6.45183,1.86963,2.31032-.03091,4.60494-1.23519,6.90641-1.9276Zm-.12333,13.08119,6.87432-2.76364c-2.21756-.73908-4.43652-2.0596-6.6523-2.05428-2.23216.00536-4.46116,1.328-6.69155,2.07353Z" transform="translate(-80 -152)" style="fill: #fff"/>
    <path d="M160.31517,180.77456a47.97207,47.97207,0,0,0,7.07065-.11c.95476-.14642,1.72439-1.5,2.57815-2.305-.84965-.64113-1.6467-1.72773-2.55933-1.83551a57.53561,57.53561,0,0,0-6.7794-.08789c-1.02071-6.1111-.78627-6.39066,4.901-6.45219,7.79982-.0844,7.80086-.0844,7.801,7.77413q.00077,39.92107.0002,79.84214v5.738H160.31517Zm3.07735,72.64119.01621,2.9798c1.97478,0,3.95544.06457,5.91405-.11341a11.30909,11.30909,0,0,0,.28868-2.49879Zm-.15314-48.192.17055,2.68589,6.396-.75322a10.98592,10.98592,0,0,0-.37047-2.16679C167.37164,204.95978,165.3052,205.113,163.23938,205.22374Zm7.119,43.14332-.10714-1.35005c-1.22511-.389-2.52215-1.22493-3.65528-1.04254-1.15213.18545-2.14273,1.37441-3.20406,2.12394,1.33424.65835,2.62425,1.67479,4.01855,1.847C168.31429,250.05705,169.37043,248.93586,170.35835,248.36706Z" transform="translate(-80 -152)" style="fill: #fff"/>
    <path d="M147.12558,214.4067V194.48053l1.33611-.02353v19.79615Z" transform="translate(-80 -152)" style="fill: #fff"/>
    <path d="M132.10479,190.7193c0,8.92038.13348,16.88087-.14762,24.82669-.04095,1.15757-2.05668,2.25049-3.17739,3.35428-.0858.08452-.32221.00844-.48755.021-10.19832.77482-10.19882.775-10.1974-9.60123.00065-4.81666.08314-9.63509-.02395-14.44933-.06464-2.906.99405-4.31857,4.05431-4.182C125.23071,190.82727,128.34724,190.7193,132.10479,190.7193Zm-9.82007,3.82023v19.78H128.474v-19.78Z" transform="translate(-80 -152)"/>
    <path d="M125.12532,244.75105l6.78186,3.26606c-2.30147.69241-4.59609,1.89669-6.90641,1.9276-2.14189.02866-4.30055-1.19654-6.45183-1.86963Z" transform="translate(-80 -152)"/>
    <path d="M125.002,257.83224l-6.46953-2.74439c2.23039-.74549,4.45939-2.06817,6.69155-2.07353,2.21578-.00532,4.43474,1.3152,6.6523,2.05428Z" transform="translate(-80 -152)"/>
    <path d="M163.39252,253.41575l6.21894.36759a11.30912,11.30912,0,0,1-.28868,2.4988c-1.95861.178-3.93927.11341-5.91405.11341Z" transform="translate(-80 -152)"/>
    <path d="M163.23938,205.22374c2.06582-.11073,4.13226-.264,6.196-.23412a10.98592,10.98592,0,0,1,.37047,2.16679l-6.396.75322Z" transform="translate(-80 -152)"/>
    <path d="M170.35835,248.36706c-.98792.5688-2.04406,1.69-2.94793,1.57837-1.3943-.17223-2.68431-1.18867-4.01855-1.847,1.06133-.74953,2.05193-1.93849,3.20406-2.12394,1.13313-.18239,2.43017.65349,3.65528,1.04254Z" transform="translate(-80 -152)"/>
    <path d="M122.28472,194.53953H128.474v19.78h-6.18925Z" transform="translate(-80 -152)" style="fill: #fff"/>
  </g>
</svg>
