<svg xmlns="http://www.w3.org/2000/svg" viewBox="0 0 40 40"><g data-name="Layer 2"><g><path d="M21.68,18.83H18.33a2.53,2.53,0,0,1,0-5h5.91a1.15,1.15,0,1,0,0-2.3H21.16V9.13a1.15,1.15,0,1,0-2.3,0v2.35h-.53a4.83,4.83,0,0,0,0,9.65h3.35a2.52,2.52,0,0,1,0,5h-6a1.15,1.15,0,1,0,0,2.3h3.18v2.4a1.15,1.15,0,0,0,2.3,0v-2.4h.59a4.82,4.82,0,0,0-.06-9.64Z"/><path d="M34.14,5.86a20,20,0,0,0-28.28,0,20,20,0,0,0,0,28.28,20,20,0,0,0,28.28,0,20,20,0,0,0,0-28.28ZM20,38A18,18,0,1,1,38,20,18,18,0,0,1,20,38Z"/></g></g></svg>