<svg xmlns="http://www.w3.org/2000/svg" viewBox="0 0 40 19.1"><g data-name="Layer 2"><g><path class="cls-1" d="M16.75,4.06a9,9,0,0,0-12-2.87,9.75,9.75,0,0,0-2.95,14,9,9,0,0,0,10.67,3.27,9.53,9.53,0,0,0,6-8.93A9.78,9.78,0,0,0,16.75,4.06ZM11.28,16.5A6.91,6.91,0,0,1,3,12.94a7.38,7.38,0,0,1,3.38-10,6.91,6.91,0,0,1,9.07,3.35,7.69,7.69,0,0,1,.77,3.49A7.21,7.21,0,0,1,11.28,16.5Z"/><path class="cls-1" d="M38.35,4.1A9,9,0,0,0,25,2.15a9.78,9.78,0,0,0-1.64,13,9,9,0,0,0,10.82,3.3C37.66,17,40,13.48,40,8.9A9.29,9.29,0,0,0,38.35,4.1Zm-3.5,11.38a6.86,6.86,0,0,1-9.73-1.65A7.41,7.41,0,0,1,27.8,3a6.66,6.66,0,0,1,3-.69,7,7,0,0,1,6.62,4.89A7.41,7.41,0,0,1,34.85,15.48Z"/></g></g></svg>