<svg preserveAspectRatio="xMidYMid meet" viewBox="0 0 128 123" xmlns="http://www.w3.org/2000/svg"><path d="m655 1029c-286-109-550-210-587-224l-68-27v-54-54l155-102 154-103 1-212v-212l55-17c30-10 56-16 58-13 2 2 43 57 92 121l87 118 62-44c242-172 292-206 303-206s93 30 93 34c0 1 50 249 110 551 61 302 110 559 110 570 0 24-61 75-87 74-10-1-252-91-538-200zm210-58c-28-24-464-370-481-381-18-11-32-5-119 53l-99 66 30 11c16 6 166 63 334 127 168 63 312 119 320 124 20 11 27 11 15 0zm167-437-77-382-120 85c-66 46-129 91-139 98-18 13-6 31 195 299 117 157 214 284 215 283s-32-174-74-383zm-162 283c0-2-99-136-220-297l-220-293v119 120l218 176c225 183 222 180 222 175z" transform="matrix(.1 0 0 -.1 0 123)"/></svg>