<svg xmlns="http://www.w3.org/2000/svg" viewBox="0 0 40 35.13"><g data-name="Layer 2"><g ><path d="M40,12.88C40,8,38.2,4.19,33.81,2.09,30,.25,24.68,0,20,0S10.07.25,6.23,2.09C1.83,4.19,0,8,0,12.88v3.51H1.76L0,20.46,1,21a8.73,8.73,0,0,1,1.36.87v3.93H0v1.17a8.25,8.25,0,0,0,8.27,8.2H31.8a8.22,8.22,0,0,0,8.2-8.2V25.76H37.66v-4A6.14,6.14,0,0,1,38.85,21L40,20.5l-1.74-4.11H40Zm-8.2,19.9H8.31A5.92,5.92,0,0,1,2.5,28.09h35A5.87,5.87,0,0,1,31.8,32.78ZM35.1,20.7a1.9,1.9,0,0,1-2.41-.34,4.06,4.06,0,0,0-6.71,0,1.63,1.63,0,0,1-2.73,0,4,4,0,0,0-6.63,0,1.64,1.64,0,0,1-2.74,0,4,4,0,0,0-6.63,0,1.74,1.74,0,0,1-2.45.4c-.61-.47-1.15-.93-1.79-1.35l1.31-3H35.71l1.26,3C36.29,19.78,35.75,20.24,35.1,20.7Zm.22,2.46v2.6H4.72V23.28A4,4,0,0,0,9.2,21.66a1.63,1.63,0,0,1,1.37-.73,1.62,1.62,0,0,1,1.36.73,4,4,0,0,0,6.64,0,1.62,1.62,0,0,1,1.36-.73,1.63,1.63,0,0,1,1.37.73,4,4,0,0,0,6.63,0,1.73,1.73,0,0,1,2.82,0A4.17,4.17,0,0,0,35.32,23.16Zm2.34-9.11H2.38V12.88c0-4.33,1.54-7.09,4.86-8.68S15.62,2.34,20,2.34s9.36.22,12.78,1.86,4.86,4.35,4.86,8.68Z"/><rect x="9.48" y="9.37" width="2.34" height="2.34"/><rect x="18.85" y="9.37" width="2.34" height="2.34"/><rect x="28.21" y="9.37" width="2.34" height="2.34"/></g></g></svg>