<svg xmlns="http://www.w3.org/2000/svg" viewBox="0 0 31.3 40"><g data-name="Layer 2"><g><path d="M30.92,10.82,20.49.38A1.31,1.31,0,0,0,19.57,0H1.3A1.3,1.3,0,0,0,0,1.3V38.7A1.3,1.3,0,0,0,1.3,40H30a1.3,1.3,0,0,0,1.3-1.3v-27A1.31,1.31,0,0,0,30.92,10.82Zm-10-6.37,6,6h-6v-6ZM28.7,37.39H2.61V2.61H18.26v9.13A1.3,1.3,0,0,0,19.57,13H28.7V37.39Z"/><path d="M24.78,19.13h-13a1.31,1.31,0,1,0,0,2.61h13a1.31,1.31,0,1,0,0-2.61Z"/><path d="M24.78,24.35h-13a1.31,1.31,0,1,0,0,2.61h13a1.31,1.31,0,1,0,0-2.61Z"/><path d="M24.78,29.57h-13a1.3,1.3,0,1,0,0,2.6h13a1.3,1.3,0,1,0,0-2.6Z"/><circle cx="6.52" cy="20.43" r="1.3"/><circle cx="6.52" cy="25.65" r="1.3"/><circle cx="6.52" cy="30.87" r="1.3"/></g></g></svg>