<svg xmlns="http://www.w3.org/2000/svg" viewBox="0 0 40 34.04"><g data-name="Layer 2"><g><path d="M32.25,18.38V3.69A3.69,3.69,0,0,0,28.56,0H3.69A3.7,3.7,0,0,0,0,3.69V18.38a3.7,3.7,0,0,0,3.69,3.7H4.75V26.5A1.48,1.48,0,0,0,6.23,28h0a1.49,1.49,0,0,0,1.12-.51L12,22.07H28.57A3.68,3.68,0,0,0,32.25,18.38Zm-20.7,1.69a1,1,0,0,0-.76.35l-4,4.68v-4a1,1,0,0,0-1-1H3.69A1.7,1.7,0,0,1,2,18.37V3.69A1.69,1.69,0,0,1,3.69,2H28.56a1.69,1.69,0,0,1,1.69,1.69V18.38a1.69,1.69,0,0,1-1.69,1.69Z"/><path d="M32.66,33.52a1.43,1.43,0,0,0,1.11.52,1.6,1.6,0,0,0,.52-.1,1.46,1.46,0,0,0,1-1.39V28.12h1.06A3.7,3.7,0,0,0,40,24.43V9.74a3.69,3.69,0,0,0-3.69-3.69,1,1,0,1,0,0,2A1.69,1.69,0,0,1,38,9.74V24.43a1.69,1.69,0,0,1-1.69,1.69H34.26a1,1,0,0,0-1,1v4L29.2,26.47a1,1,0,0,0-.76-.34h-15a1,1,0,1,0,0,2H28Z"/></g></g></svg>