<svg preserveAspectRatio="xMidYMid meet" viewBox="0 0 128 128" xmlns="http://www.w3.org/2000/svg"><g transform="matrix(.1 0 0 -.1 0 128)"><path d="m100 1135v-125h130 130v125 125h-130-130z"/><path d="m530 1135v-65h375 375v65 65h-375-375z"/><path d="m265 710-100-101-39 42-38 41-44-43c-24-24-44-48-44-54s37-47 83-93l82-82 150 150 149 150-44 45c-24 25-47 45-50 45s-50-45-105-100z"/><path d="m530 640v-70h375 375v70 70h-375-375z"/><path d="m100 145v-125h130 130v125 125h-130-130z"/><path d="m530 145v-65h375 375v65 65h-375-375z"/></g></svg>