<svg id="Layer_1" data-name="Layer 1" xmlns="http://www.w3.org/2000/svg" viewBox="0 0 128 128">
  <g>
    <path d="M80,152H208V280H80Zm13.68538,57.482c0,3.03287,0,4.82975,0,6.62664q.00051,26.73114.00887,53.46229c.00914,6.86686.6534,7.51639,7.339,7.51928q43.46938.01878,86.93879.00039c6.72588-.0027,7.43768-.69342,7.44809-7.43179q.0417-26.98091.01081-53.96194c.00005-1.75529,0-3.51058,0-6.13034,2.335,1.75538,3.64293,3.40867,5.23129,3.74754a6.55433,6.55433,0,0,0,5.19164-1.11675c.80954-.76518.40695-3.29923-.11113-4.82051-.37864-1.1119-1.79907-1.88973-2.79921-2.76617Q176.45378,181.397,149.94775,158.202c-5.13926-4.49416-5.91863-4.51805-10.90324-.15954Q112.3412,181.3917,85.682,204.79129c-.87567.76762-2.21071,1.45083-2.45724,2.40041-.44428,1.71127-.95278,4.218-.08237,5.23308.8942,1.04287,3.53,1.21383,5.1737.81616C89.92755,212.85106,91.24971,211.2652,93.68538,209.482Z" transform="translate(-80 -152)" style="fill: #fff"/>
    <path d="M93.68538,209.482c-2.43567,1.78322-3.75783,3.36908-5.36933,3.759-1.64374.39767-4.2795.22671-5.1737-.81616-.87041-1.01512-.36191-3.52181.08237-5.23308.24653-.94958,1.58157-1.63279,2.45724-2.40041q26.67409-23.38259,53.36255-46.74879c4.98461-4.35851,5.764-4.33462,10.90324.15954q26.514,23.18587,52.99579,46.40858c1.00014.87644,2.42057,1.65427,2.79921,2.76617.51808,1.52128.92067,4.05533.11113,4.82051a6.55433,6.55433,0,0,1-5.19164,1.11675c-1.58836-.33887-2.89629-1.99216-5.23129-3.74754,0,2.61976.00005,4.37505,0,6.13034q-.00073,26.981-.01081,53.96194c-.01041,6.73837-.72221,7.42909-7.44809,7.43179q-43.4694.01754-86.93879-.00039c-6.68561-.00289-7.32987-.65242-7.339-7.51928q-.0356-26.7311-.00887-53.46229C93.68535,214.31173,93.68538,212.51485,93.68538,209.482ZM144.5406,164.6435c-13.84623,12.02374-27.4691,23.75154-40.90183,35.69322-1.199,1.0659-1.62085,3.51756-1.63134,5.3301-.11273,19.48623-.07794,38.97335-.05394,58.4602.00174,1.41964.23365,2.839.35557,4.2247h23.59482c0-2.21444-.00007-4.01893,0-5.82341.00048-10.32638-.029-20.65289.01318-30.9791.024-5.86063.75331-6.55638,6.7268-6.58607,7.32822-.03641,14.65676-.01612,21.98515-.00736,7.68023.00918,8.19025.52056,8.196,8.26566.00865,11.62568.00225,23.25138.00225,35.171h24.12629v-5.75935c0-16.98857-.37081-33.98907.17591-50.96.23057-7.15729-1.756-11.96549-7.38354-16.517C167.7352,185.4419,156.348,174.95672,144.5406,164.6435Zm-10.16174,68.6668c0,11.253-.05326,22.17379.11091,33.09125.01189.79073,1.58192,2.19871,2.46752,2.23127,5.59842.20581,11.20813.1044,17.03761.1044V233.3103Z" transform="translate(-80 -152)"/>
    <path d="M144.5406,164.6435c11.80744,10.31322,23.1946,20.7984,35.20534,30.51257,5.6275,4.55148,7.61411,9.35968,7.38354,16.517-.54672,16.971-.17589,33.97145-.17591,50.96v5.75935H162.82729c0-11.91959.0064-23.54529-.00225-35.171-.00576-7.7451-.51578-8.25648-8.196-8.26566-7.32839-.00876-14.65693-.02905-21.98515.00736-5.97349.02969-6.70284.72544-6.7268,6.58607-.04222,10.32621-.0127,20.65272-.01318,30.9791-.00009,1.80448,0,3.609,0,5.82341H102.30906c-.12192-1.38571-.35383-2.80506-.35557-4.2247-.024-19.48685-.05879-38.974.05394-58.4602.01049-1.81254.43236-4.2642,1.63134-5.3301C117.0715,188.395,130.69437,176.66724,144.5406,164.6435Zm.19046,34.36691c1.66525,0,3.57779.51657,4.93254-.132,1.65742-.79347,3.925-2.55275,3.93849-3.91412.01366-1.38083-2.24028-3.73185-3.78017-3.98942a33.21492,33.21492,0,0,0-10.91919.01675c-1.49217.25545-3.67933,2.71423-3.611,4.0738.06938,1.38,2.33124,3.11738,4.00156,3.813C140.8544,199.5286,142.89914,199.01749,144.73106,199.01041Z" transform="translate(-80 -152)" style="fill: #fff"/>
    <path d="M134.37886,233.3103h19.616v35.42692c-5.82948,0-11.43919.10141-17.03761-.1044-.8856-.03256-2.45563-1.44054-2.46752-2.23127C134.3256,255.48409,134.37886,244.56334,134.37886,233.3103Z" transform="translate(-80 -152)" style="fill: #fff"/>
    <path d="M144.731,199.014c-1.83189.00354-3.87663.51465-5.43772-.13551-1.67032-.69565-3.93218-2.43307-4.00156-3.813-.06835-1.35957,2.11881-3.81835,3.611-4.0738a33.21492,33.21492,0,0,1,10.91919-.01675c1.53989.25757,3.79383,2.60859,3.78017,3.98942-.01347,1.36137-2.28107,3.12065-3.93849,3.91412C148.30885,199.527,146.39631,199.01041,144.731,199.014Z" transform="translate(-80 -152)"/>
  </g>
</svg>
