<svg xmlns="http://www.w3.org/2000/svg" viewBox="0 0 40 39.21"><g data-name="Layer 2"><g><path d="M30.71,19.6V34.93a4.17,4.17,0,0,1-1.44,3.25,4,4,0,0,1-2.72,1H4.15A4.19,4.19,0,0,1,.06,35.72,4.77,4.77,0,0,1,0,35V4.22A4.17,4.17,0,0,1,3.29.1,4,4,0,0,1,4.14,0H26.57a4.18,4.18,0,0,1,4.06,3.39,5.59,5.59,0,0,1,.08.91Zm-28.39,0V34.91a2.68,2.68,0,0,0,0,.4,1.85,1.85,0,0,0,1.89,1.57H26.47a1.93,1.93,0,0,0,.42,0A1.86,1.86,0,0,0,28.39,35V32.41q0-14.07,0-28.15a2.06,2.06,0,0,0-.06-.55,1.84,1.84,0,0,0-1.84-1.38H4.22s-.06,0-.08,0a3.1,3.1,0,0,0-.62.13,1.83,1.83,0,0,0-1.2,1.8Z"/><path d="M38,7.39H36.46V5.85h3.26a.41.41,0,0,1,0,.11V8.45a.31.31,0,0,1-.06.16,3.92,3.92,0,0,1-3.25,1.25A3.74,3.74,0,0,1,34.21,9a3.25,3.25,0,0,1-1.14-2.13,3.58,3.58,0,0,1,.41-2.29,3.38,3.38,0,0,1,2.39-1.67,3.72,3.72,0,0,1,2.26.19,3.05,3.05,0,0,1,1.46,1.31l0,.07-1.45.75a3.46,3.46,0,0,0-.35-.4,1.76,1.76,0,0,0-2.4,0,2.07,2.07,0,0,0,.11,3,1.94,1.94,0,0,0,1.94.26A2.58,2.58,0,0,0,37.92,8,.13.13,0,0,0,38,7.87Z"/><path d="M32.66,35,33,34l2.16-5.74c0-.08.06-.11.15-.11h2a.12.12,0,0,1,.13.09c.83,2.22,1.67,4.43,2.5,6.64l0,.09H38.12c-.08,0-.11,0-.14-.1l-.27-.8a.1.1,0,0,0-.12-.09H35.08a.1.1,0,0,0-.12.09l-.28.82s-.06.08-.08.08Zm2.8-2.53H37.2l-.87-2.56Z"/><path d="M33.4,15.52h3.47a2.39,2.39,0,0,1,1.27.35,2.07,2.07,0,0,1,1,1.59A2.34,2.34,0,0,1,38.86,19a2.08,2.08,0,0,1-1.55,1,3.94,3.94,0,0,1-.68,0H35.15v2.28H33.4Zm1.75,3h1.37l.24,0a.69.69,0,0,0,.62-.65.7.7,0,0,0-.55-.76,1.36,1.36,0,0,0-.29,0H35.15Z"/><path d="M9.08,24.55l.86-.85,1-1a1.16,1.16,0,1,1,1.64,1.64l-1.79,1.8-.1.1.56.54,1.35,1.36a1.16,1.16,0,0,1-.4,1.88A1.09,1.09,0,0,1,11,29.73L9.19,27.94l-.09-.12-.22.23c-.56.56-1.11,1.13-1.68,1.68a1.15,1.15,0,0,1-1.93-.52,1.11,1.11,0,0,1,.3-1.13l1.78-1.79.12-.08-.11-.11L5.57,24.3a1.12,1.12,0,0,1-.29-1.16,1.09,1.09,0,0,1,.85-.8,1.16,1.16,0,0,1,1.1.33L9,24.46A.36.36,0,0,1,9.08,24.55Z"/><path d="M10.25,12V14.6a1.16,1.16,0,0,1-2.32.05V12H5.28a1.17,1.17,0,0,1,0-2.33H7.93V6.94a1.16,1.16,0,0,1,2.31-.06c0,.86,0,1.73,0,2.59v.15h2.68a1.16,1.16,0,0,1,.39,2.25,1.35,1.35,0,0,1-.44.07H10.25Z"/><path d="M21.45,21.79h3.81a1.17,1.17,0,1,1,0,2.33H17.62a1.15,1.15,0,0,1-1.14-1,1.14,1.14,0,0,1,.8-1.26,1.39,1.39,0,0,1,.4-.06Z"/><path d="M21.44,28.73H17.62a1.17,1.17,0,1,1,0-2.33h7.59a1.17,1.17,0,1,1,.05,2.33Z"/><path d="M21.44,11.78H17.63a1.17,1.17,0,1,1,0-2.33h7.6a1.17,1.17,0,1,1,.05,2.33Z"/></g></g></svg>