<svg xmlns="http://www.w3.org/2000/svg" viewBox="0 0 28.41 40"><g data-name="Layer 2"><g><path class="cls-1" d="M28,11.78a8.71,8.71,0,0,0-1.13-1.87,1,1,0,0,1-.19-.61,10.44,10.44,0,0,0,0-1.25A4.81,4.81,0,0,0,24,3.91a13.43,13.43,0,0,0-1.81-.73.86.86,0,0,1-.42-.31c-.3-.39-.6-.79-.93-1.16A4.85,4.85,0,0,0,16.3.07c-.65.1-1.27.32-1.9.48a.65.65,0,0,1-.34,0C13.49.4,12.93.21,12.35.1A4.8,4.8,0,0,0,8.08,1.25,10.08,10.08,0,0,0,6.72,2.81a1.12,1.12,0,0,1-.55.41c-.46.16-.92.32-1.36.52a4.79,4.79,0,0,0-3,4c-.06.55-.06,1.11-.09,1.66a.65.65,0,0,1-.12.36c-.3.42-.6.82-.86,1.26A4.8,4.8,0,0,0,.5,15.76a12.29,12.29,0,0,0,1.06,1.69.7.7,0,0,1,.13.42c0,.44,0,.88,0,1.32a4.81,4.81,0,0,0,2.68,4.16A14.9,14.9,0,0,0,6.12,24a1.09,1.09,0,0,1,.58.43c.19.26.4.52.61.77a.54.54,0,0,1,.14.38q0,3.19,0,6.39v6.2a2.19,2.19,0,0,0,0,.51,1.13,1.13,0,0,0,1.93.46c1.75-1.73,3.51-3.47,5.25-5.21.12-.11.17-.11.28,0,1.48,1.85,3,3.7,4.47,5.55a1.15,1.15,0,0,0,1.29.4,1.11,1.11,0,0,0,.75-1.09V25.06a1.18,1.18,0,0,1,.68-1c.5-.19,1-.35,1.49-.58a4.76,4.76,0,0,0,2.95-4c.05-.5.07-1,.08-1.48a1.08,1.08,0,0,1,.23-.69,12.24,12.24,0,0,0,.76-1.12A4.79,4.79,0,0,0,28,11.78ZM19.19,35.47v.14c-.09,0-.1-.07-.14-.11l-3.16-3.91a1.15,1.15,0,0,0-1.9-.11l-4.1,4.06c-.05.05-.09.12-.19.14V27.21c0-.18,0-.21.2-.15A5.42,5.42,0,0,0,13,27l1-.29a.73.73,0,0,1,.36,0,16.51,16.51,0,0,0,2,.49A4.68,4.68,0,0,0,19,26.85c.13-.05.19-.08.19.11C19.19,29.8,19.19,32.63,19.19,35.47Zm6.48-20.35c-.25.41-.52.79-.8,1.18a2.46,2.46,0,0,0-.47,1.42,11.4,11.4,0,0,1-.14,1.93,2.4,2.4,0,0,1-1.1,1.55,5.59,5.59,0,0,1-1.46.64,3.38,3.38,0,0,0-1.93,1.4,8.19,8.19,0,0,1-.59.73,2.71,2.71,0,0,1-3,.92c-.35-.1-.69-.18-1-.29a3.12,3.12,0,0,0-2,0,8,8,0,0,1-1.74.4,2.49,2.49,0,0,1-1.83-.59,6,6,0,0,1-1-1.17A3.42,3.42,0,0,0,6.7,21.86a7.31,7.31,0,0,1-1.24-.5A2.58,2.58,0,0,1,4,19.16c-.05-.56,0-1.12-.06-1.67a2.17,2.17,0,0,0-.36-1.08l-.69-1a3.72,3.72,0,0,1-.56-1.25,2.47,2.47,0,0,1,.29-1.78,11.56,11.56,0,0,1,.82-1.24A2.74,2.74,0,0,0,4,9.44a9.91,9.91,0,0,1,.1-1.63A2.42,2.42,0,0,1,5.38,6a7.53,7.53,0,0,1,1.56-.64A3.08,3.08,0,0,0,8.48,4.22c.23-.32.48-.62.73-.92a2.7,2.7,0,0,1,3-.93c.35.09.7.18,1,.29a3.11,3.11,0,0,0,1.93,0,9.24,9.24,0,0,1,1.65-.4A2.49,2.49,0,0,1,19,3.05a8.89,8.89,0,0,1,.92,1.11,3.06,3.06,0,0,0,1.58,1.16c.33.11.66.24,1,.36a2.79,2.79,0,0,1,2,2.8c0,.42,0,.83,0,1.25A2.44,2.44,0,0,0,24.93,11c.26.38.55.75.78,1.16a2.87,2.87,0,0,1,.44,1.46A2.67,2.67,0,0,1,25.67,15.12Z"/></g></g></svg>