<svg id="Layer_1" data-name="Layer 1" xmlns="http://www.w3.org/2000/svg" viewBox="0 0 100.00955 100.00955">
  <g>
    <path d="M94,208.62313V166H194.00955V266.00955H151.42538a20.29867,20.29867,0,0,1,2.4114-.8614c25.44867-5.716,42.24942-28.92074,39.34585-54.37029-2.63863-23.12728-21.36084-41.68668-44.3-43.91475a49.71891,49.71891,0,0,0-52.65536,34.51333C95.46328,203.78517,94.74141,206.20725,94,208.62313Z" transform="translate(-94 -166)" style="fill: #fff"/>
    <path d="M94,208.62313c.74141-2.41588,1.46328-4.838,2.22728-7.24669a49.71891,49.71891,0,0,1,52.65536-34.51333c22.93915,2.22807,41.66136,20.78747,44.3,43.91475,2.90357,25.44955-13.89718,48.65433-39.34585,54.37029a20.29867,20.29867,0,0,0-2.4114.8614H135.905a14.35111,14.35111,0,0,0-2.01632-.8004c-19.08409-4.48507-31.78423-15.95269-37.92408-34.59611-.70584-2.14326-1.31215-4.31925-1.96461-6.48006Zm49.69324,52.33711a44.58242,44.58242,0,1,0-44.6405-44.64979A44.796,44.796,0,0,0,143.69324,260.96024Z" transform="translate(-94 -166)"/>
    <path d="M94,224.133c.65246,2.16081,1.25877,4.3368,1.96461,6.48006,6.13985,18.64342,18.84,30.111,37.92408,34.59611a14.35111,14.35111,0,0,1,2.01632.8004H94Z" transform="translate(-94 -166)" style="fill: #fff"/>
    <path d="M143.69324,260.96024a44.58229,44.58229,0,1,1,44.58441-44.70835A44.79635,44.79635,0,0,1,143.69324,260.96024Zm.19487-85.30017A40.71927,40.71927,0,0,0,143.248,257.096c22.94781.07368,41.10713-17.74821,41.16281-40.398C184.46714,193.79592,166.59682,175.69838,143.88811,175.66007Z" transform="translate(-94 -166)" style="fill: #fff"/>
    <path d="M143.88811,175.66007c22.70871.03831,40.579,18.13585,40.52273,41.038-.05568,22.64974-18.215,40.47163-41.16281,40.398a40.71927,40.71927,0,0,1,.64008-81.43591ZM181.8009,216.4808a38.13585,38.13585,0,1,0-38.43247,38.00707A38.26315,38.26315,0,0,0,181.8009,216.4808Z" transform="translate(-94 -166)"/>
    <path d="M181.8009,216.4808a38.13585,38.13585,0,1,1-37.839-38.21257A38.26161,38.26161,0,0,1,181.8009,216.4808ZM137.15449,199.676c3.075-3.94381,8.41542-5.03195,12.007-2.54864,3.26995,2.26089,4.07462,6.97618,1.5669,11.11253a52.08,52.08,0,0,1-4.815,6.01172,21.11194,21.11194,0,0,0-4.9832,14.25233c1.99427-.76483,4.62313-1.10059,4.802-1.951,1.14193-5.42824,5.12438-8.41134,8.88775-11.77093,5.7735-5.15405,7.0486-11.58947,3.45564-16.88993-3.47119-5.12083-8.73113-6.59393-14.56214-6.28942-5.61515.29324-10.336,2.50132-12.8814,7.78036-.84038,1.74286-1.40458,4.16411-.85552,5.8788a7.49576,7.49576,0,0,0,4.13533,4.27291c1.31765.45314,4.18767-.61115,4.78953-1.79889.82049-1.61917.28258-4.01536.02906-6.04115C138.63832,200.9579,137.69027,200.3281,137.15449,199.676Zm6.14353,43.438a4.73828,4.73828,0,0,0,4.98793-4.74622c-.12834-2.85992-1.78454-4.48222-4.59594-4.75649a4.9574,4.9574,0,0,0-5.24707,4.568A4.861,4.861,0,0,0,143.298,243.114Z" transform="translate(-94 -166)" style="fill: #fff"/>
    <path d="M137.15449,199.676c.53578.6521,1.48383,1.2819,1.576,2.01866.25352,2.02579.79143,4.422-.02906,6.04115-.60186,1.18774-3.47188,2.252-4.78953,1.79889a7.49576,7.49576,0,0,1-4.13533-4.27291c-.54906-1.71469.01514-4.13594.85552-5.8788,2.54544-5.279,7.26625-7.48712,12.8814-7.78036,5.831-.30451,11.09095,1.16859,14.56214,6.28942,3.593,5.30046,2.31786,11.73588-3.45564,16.88993-3.76337,3.35959-7.74582,6.34269-8.88775,11.77093-.17891.85044-2.80777,1.1862-4.802,1.951a21.11194,21.11194,0,0,1,4.9832-14.25233,52.08,52.08,0,0,0,4.815-6.01172c2.50772-4.13635,1.703-8.85164-1.5669-11.11253C145.56991,194.64405,140.22944,195.73219,137.15449,199.676Z" transform="translate(-94 -166)"/>
    <path d="M143.298,243.114a4.861,4.861,0,0,1-4.85508-4.93475,4.9574,4.9574,0,0,1,5.24707-4.568c2.8114.27427,4.4676,1.89657,4.59594,4.75649A4.73828,4.73828,0,0,1,143.298,243.114Z" transform="translate(-94 -166)"/>
  </g>
</svg>
