<svg xmlns="http://www.w3.org/2000/svg" viewBox="0 0 40 29.67"><g data-name="Layer 2"><g><path d="M.59,12l6,2.87v4.79a1.06,1.06,0,0,0,.6.95l11.42,5.5a1,1,0,0,0,.45.1H21a1.06,1.06,0,0,0,.46-.1L32.8,20.59a1.06,1.06,0,0,0,.49-.51l.05-.09a1.16,1.16,0,0,0,.08-.42V14.84l1.63-.78v6.49a1.91,1.91,0,0,0-.76,1l-.92,3a1.82,1.82,0,0,0,0,1.13l.85,2.65A1.9,1.9,0,0,0,36,29.67H36a1.89,1.89,0,0,0,1.76-1.19l1-2.52a1.92,1.92,0,0,0,0-1.23l-.92-3.14a1.93,1.93,0,0,0-.76-1v-7.5L39.41,12A1,1,0,0,0,40,11v-.84a1,1,0,0,0-.59-.94L20.45.1a1.11,1.11,0,0,0-.91,0L.59,9.23a1,1,0,0,0-.59.94V11A1.06,1.06,0,0,0,.59,12Zm35.46,15.2-.66-2,.7-2.29.71,2.41ZM31.32,19,20.71,24.08H19.27L8.66,19V15.85l10.88,5.24a1,1,0,0,0,.45.11,1.07,1.07,0,0,0,.46-.11l10.87-5.24V19ZM20,2.21,37.4,10.6l-5.34,2.57-.14.06L20,19,8.07,13.23l-.14-.06L2.58,10.6Z"/></g></g></svg>