<svg xmlns="http://www.w3.org/2000/svg" viewBox="0 0 40 30.42"><g data-name="Layer 2"><g><path class="cls-1" d="M14.87,5.16l-.63,1.63q-1.76,4.67-3.53,9.32a1.11,1.11,0,0,1-1.15.8H1.14a1.1,1.1,0,0,1-1.08-.74A1.13,1.13,0,0,1,.4,14.94a1.19,1.19,0,0,1,.79-.25H8.7a.25.25,0,0,0,.28-.2C10.7,9.93,12.44,5.38,14.15.82A1.12,1.12,0,0,1,15.79.16,1.06,1.06,0,0,1,16.3.9c.4,2,.79,4,1.19,6C18,9.46,18.5,12,19,14.57s1.07,5.42,1.61,8.14c.06.29.12.58.2.87l.24-1.2,1.77-9c.36-1.79.72-3.59,1.07-5.38a1.1,1.1,0,0,1,2-.48C27.58,9.68,29.27,11.81,31,14a.38.38,0,0,0,.32.16h7.55A1.09,1.09,0,0,1,40,15a1.1,1.1,0,0,1-1,1.34h-.3c-2.65,0-5.3,0-8,0a1.31,1.31,0,0,1-1.13-.54C28.3,14.13,27,12.5,25.71,10.86l-.12-.14-.19.95-1.86,9.39q-.81,4.17-1.64,8.32a1.13,1.13,0,0,1-1.08,1,1.09,1.09,0,0,1-1.1-.89q-.67-3.41-1.34-6.81l-1.56-7.9c-.54-2.71-1.07-5.42-1.61-8.13-.09-.49-.19-1-.29-1.47C14.92,5.2,14.92,5.17,14.87,5.16Z"/></g></g></svg>