<svg id="Layer_1" data-name="Layer 1" xmlns="http://www.w3.org/2000/svg" viewBox="0 0 128 128">
  <g>
    <path d="M208,280H80q0-64,0-128l128,0Q208,216,208,280Zm-63.99746-3.97681q25.23562,0,50.47122-.00853c7.30875-.01171,9.53687-2.23249,9.541-9.539q.02869-50.47146.0001-100.94294c-.00409-7.2942-2.246-9.54191-9.54531-9.54648q-50.47146-.03156-100.943-.00072c-7.292.00426-9.5373,2.25314-9.54141,9.54836q-.02845,50.47148.00069,100.943c.00442,7.31,2.23256,9.5262,9.54518,9.53785Q118.76675,276.05493,144.00254,276.02319Z" transform="translate(-80 -152)" style="fill: #fff"/>
    <path d="M144.00254,276.0232q-25.23573,0-50.47146-.0085c-7.31262-.01165-9.54076-2.22788-9.54518-9.53785q-.03054-50.47146-.00069-100.943c.00411-7.29522,2.24942-9.5441,9.54141-9.54836q50.47146-.02952,100.943.00072c7.2993.00457,9.54122,2.25228,9.54531,9.54648q.02837,50.47146-.0001,100.94294c-.00415,7.30649-2.23227,9.52727-9.541,9.539Q169.23823,276.05507,144.00254,276.0232ZM124.3004,223.84289l1.85143-.02091c.23567-1.86575.62024-3.727.67736-5.59817.137-4.49018-.17028-9.01091.22687-13.47258a17.32048,17.32048,0,0,1,17.77919-15.48045,17.52668,17.52668,0,0,1,17.015,16.38878c.144,2.82469.04189,5.66118.09241,8.49156.11761,6.58912-1.56029,13.55642,5.54163,18.31281,1.417.949,1.62511,4.65193,1.22817,6.87768-.15168.85046-3.55705,1.55258-5.4913,1.583q-18.73166.29513-37.46839.18613c-1.97694-.01-5.62053-.78355-5.64-1.30949-.09223-2.49689.08526-5.62519,1.54459-7.38792a10.8114,10.8114,0,0,1,7.07014-3.42643c8.80608-.44318,17.64512-.19663,26.46954-.34135a28.00655,28.00655,0,0,0,5.03293-.99373l-.21767-1.54084c-1.54348-.12642-3.08657-.35637-4.63048-.362-8.32693-.03057-16.70533.5749-24.96741-.15494-9.147-.808-14.67008,6.39053-13.75525,15.24694.26907,2.60481,1.16743,3.44357,3.65247,3.431,16.1541-.08137,32.309-.03814,48.46217-.19431,1.14437-.01108,3.31366-1.41349,3.24855-1.95918-.47776-4.00345-.09938-9.255-2.47429-11.63542-4.27277-4.28275-4.51168-8.7728-4.373-13.92177.09409-3.49419.13568-7.00265-.0644-10.48951A20.66727,20.66727,0,0,0,143.99718,186.391a20.40575,20.40575,0,0,0-20.23786,20.44487q-.09365,6.24393.01336,12.49A43.866,43.866,0,0,0,124.3004,223.84289Zm32.803,22.47329c-2.48609,2.22971-4.58854,5.51448-6.38427,5.35459-2.02421-.18023-3.77226-3.46189-5.97243-5.73809-1.82875,3.12139-.69659,5.65288,1.70685,7.666,2.92722,2.4518,6.26932,2.47991,9.03447-.14207C157.58757,251.46572,159.55858,248.94649,157.10341,246.31618Zm-9.59053-60.84309c2.61818-3.48171,2.05679-6.20927-.64842-7.729a6.40247,6.40247,0,0,0-5.73011.49246c-2.20976,1.66058-2.38915,4.28114-.131,6.7003l3.59819-5.8255Zm-6.79117,9.08308c-5.71673.33778-9.625,4.7701-8.70551,7.63657Z" transform="translate(-80 -152)"/>
    <path d="M124.3004,223.84289a43.866,43.866,0,0,1-.52772-4.517q-.10912-6.24338-.01336-12.49A20.40575,20.40575,0,0,1,143.99718,186.391a20.66727,20.66727,0,0,1,21.11352,19.68086c.20008,3.48686.15849,6.99532.0644,10.48951-.13865,5.149.10026,9.639,4.373,13.92177,2.37491,2.38047,1.99653,7.632,2.47429,11.63542.06511.54569-2.10418,1.9481-3.24855,1.95918-16.15313.15617-32.30807.11294-48.46217.19431-2.485.01252-3.3834-.82624-3.65247-3.431-.91483-8.85641,4.60822-16.055,13.75525-15.24694,8.26208.72984,16.64048.12437,24.96741.15494,1.54391.00566,3.087.23561,4.63048.362l.21767,1.54084a28.00655,28.00655,0,0,1-5.03293.99373c-8.82442.14472-17.66346-.10183-26.46954.34135a10.8114,10.8114,0,0,0-7.07014,3.42643c-1.45933,1.76273-1.63682,4.891-1.54459,7.38792.01943.52594,3.663,1.29949,5.64,1.30949q18.734.09486,37.46839-.18613c1.93425-.03047,5.33962-.73259,5.4913-1.583.39694-2.22575.18881-5.92868-1.22817-6.87768-7.10192-4.75639-5.424-11.72369-5.54163-18.31281-.05052-2.83038.0516-5.66687-.09241-8.49156a17.52668,17.52668,0,0,0-17.015-16.38878,17.32048,17.32048,0,0,0-17.77919,15.48045c-.39715,4.46167-.08983,8.9824-.22687,13.47258-.05712,1.87121-.44169,3.73242-.67736,5.59817Z" transform="translate(-80 -152)" style="fill: #fff"/>
    <path d="M157.10341,246.31618c2.45517,2.63031.48416,5.14954-1.61538,7.14038-2.76515,2.622-6.10725,2.59387-9.03447.14207-2.40344-2.01307-3.5356-4.54456-1.70685-7.666,2.20017,2.2762,3.94822,5.55786,5.97243,5.73809C152.51487,251.83066,154.61732,248.54589,157.10341,246.31618Z" transform="translate(-80 -152)" style="fill: #fff"/>
    <path d="M147.51288,185.47309l-2.91131-6.3617-3.59819,5.8255c-2.25818-2.41916-2.07879-5.03972.131-6.7003a6.40247,6.40247,0,0,1,5.73011-.49246C149.56967,179.26382,150.13106,181.99138,147.51288,185.47309Z" transform="translate(-80 -152)" style="fill: #fff"/>
    <path d="M140.72171,194.55617l-8.70551,7.63657C131.09669,199.32627,135.005,194.894,140.72171,194.55617Z" transform="translate(-80 -152)" style="fill: #fff"/>
  </g>
</svg>
