<svg xmlns="http://www.w3.org/2000/svg" viewBox="0 0 40 40"><g data-name="Layer 2"><g><path d="M20.94,9.41a4.65,4.65,0,0,0-4.23.94,5,5,0,0,0-1.89,4,1.18,1.18,0,1,0,2.36,0,2.53,2.53,0,0,1,.94-2.11,2.72,2.72,0,0,1,2.35-.48,2.8,2.8,0,0,1,2.12,2.12,2.59,2.59,0,0,1-.94,2.83,7,7,0,0,0-2.83,5.64A1.11,1.11,0,0,0,20,23.53c.71,0,1.18-.47.94-1.18a5.17,5.17,0,0,1,2.12-3.76,5.1,5.1,0,0,0,1.88-5.18,5.33,5.33,0,0,0-4-4Z"/><path d="M19.06,28.47a1.4,1.4,0,0,0-.24.94.86.86,0,0,0,.24.71,1.78,1.78,0,0,0,.94.47c.24,0,.71-.24.71-.47.23,0,.47-.47.47-.71a1.25,1.25,0,0,0-.47-.94,1.14,1.14,0,0,0-1.65,0Z"/><path d="M20,0A20,20,0,1,0,40,20,20,20,0,0,0,20,0Zm0,37.65A17.78,17.78,0,0,1,2.35,20,17.78,17.78,0,0,1,20,2.35,17.78,17.78,0,0,1,37.65,20,17.78,17.78,0,0,1,20,37.65Z"/></g></g></svg>