<svg xmlns="http://www.w3.org/2000/svg" viewBox="0 0 34.06 40"><g data-name="Layer 2"><g><path class="cls-1" d="M11.57,7.17c-1.43,0-2.86,0-4.29,0a5.16,5.16,0,1,0,.25,10.32c1.25,0,2.5,0,3.76,0a7.24,7.24,0,0,1,5.86,3,1.07,1.07,0,0,1-.7,1.74,1.08,1.08,0,0,1-1.07-.47A5.1,5.1,0,0,0,13.1,20a4.84,4.84,0,0,0-1.84-.37H7.36A7.33,7.33,0,0,1,5.75,5.18,7.86,7.86,0,0,1,7.43,5,10.44,10.44,0,0,0,8.8,5a12.71,12.71,0,0,0,0-1.38c0-.84,0-1.68,0-2.52a1.08,1.08,0,0,1,.75-1,1.1,1.1,0,0,1,1.2.37,1.14,1.14,0,0,1,.23.74V4.79C11,5,11,5,11.22,5h5a1.08,1.08,0,0,1,1.06,1.43,1.11,1.11,0,0,1-1.12.73Z"/><path class="cls-1" d="M13.76,31l0,.1c-.08.08,0,.19-.07.29a1.06,1.06,0,0,1-1,.8H11.18c-.15,0-.18,0-.18.19v3.72a1.09,1.09,0,0,1-2,.59A1.17,1.17,0,0,1,8.82,36V32.43c0-.28,0-.28-.27-.28H2.39A1.08,1.08,0,0,1,2.3,30H12.57a1.1,1.1,0,0,1,1.16.8C13.76,30.84,13.81,30.89,13.76,31Z"/><path class="cls-1" d="M33.34,26.18a10.12,10.12,0,0,0-11.94-6A9.86,9.86,0,0,0,14,27.79a10.08,10.08,0,0,0-.2,3,.9.9,0,0,0,0,.16c0,.05,0,.07.06.1a9.58,9.58,0,0,0,.88,3.1,10.15,10.15,0,0,0,18.66-8ZM23.82,37.84a7.92,7.92,0,1,1,8.06-7.9A8,8,0,0,1,23.82,37.84Z"/><path class="cls-1" d="M22.81,27.1c0-.94,0-1.88,0-2.82a1.06,1.06,0,0,1,.92-1.05A1.09,1.09,0,0,1,25,24a1.69,1.69,0,0,1,0,.38v4.16c0,.29,0,.29.29.29.67,0,1.34,0,2,0A1.08,1.08,0,0,1,27.52,31a1.51,1.51,0,0,1-.3,0H24a1.08,1.08,0,0,1-1.17-1.16Z"/></g></g></svg>