<svg xmlns="http://www.w3.org/2000/svg" viewBox="0 0 39.01 40"><g data-name="Layer 2"><g><path class="cls-1" d="M18.84,7.37h7.4a1.12,1.12,0,1,1,.15,2.23H11.45a1.12,1.12,0,0,1-1.15-.83,1.1,1.1,0,0,1,1-1.39c.54,0,1.09,0,1.63,0Z"/><path class="cls-1" d="M16.51,14.21H11.44A1.12,1.12,0,0,1,11.23,12H21.56a1.12,1.12,0,1,1,0,2.23Z"/><path class="cls-1" d="M33,3.86A3.73,3.73,0,0,0,31.16.57,3.78,3.78,0,0,0,29.11,0H3.93A3.89,3.89,0,0,0,0,3.87V36.13a4,4,0,0,0,.06.69A3.91,3.91,0,0,0,4,40H20.79a1.12,1.12,0,1,0-.17-2.23H8.11c-.21,0-.27,0-.27-.26q0-8.76,0-17.52t0-17.53c0-.2,0-.25.25-.25H29A1.76,1.76,0,0,1,30.79,4c0,3,0,6,0,9A1.13,1.13,0,1,0,33,13C33,10,33.05,6.92,33,3.86ZM5.34,37.78a16.4,16.4,0,0,1-1.72,0,1.64,1.64,0,0,1-1.36-1.58V4a1.67,1.67,0,0,1,1.1-1.7,1.34,1.34,0,0,1,.49-.1H5.46c.1,0,.14,0,.13.13V20q0,8.76,0,17.52C5.6,37.73,5.55,37.79,5.34,37.78Z"/><path class="cls-1" d="M29.94,27.23a.29.29,0,0,1-.15-.27c0-.55,0-1.09,0-1.64h0V23.75a1.13,1.13,0,1,0-2.26,0c0,1,0,2,0,3a.32.32,0,0,1-.2.34,2.54,2.54,0,0,0-1.33,3,2.62,2.62,0,0,0,2.81,1.82,2.59,2.59,0,0,0,2.23-2A2.54,2.54,0,0,0,29.94,27.23Zm-1.42,2.5a.34.34,0,0,1-.35-.35.35.35,0,0,1,.69,0A.34.34,0,0,1,28.52,29.73Z"/><path class="cls-1" d="M38.7,27.12A10.16,10.16,0,0,0,32,19.8c-.14-.06-.2-.11-.2-.27,0-.57,0-1.14,0-1.7a1.14,1.14,0,0,0-1.25-1.25h-4a1.13,1.13,0,0,0-1.19,1.21c0,.57,0,1.13,0,1.7a.24.24,0,0,1-.2.27,10.36,10.36,0,0,0-6.67,12.85,10.54,10.54,0,0,0,14.73,6.23A10.25,10.25,0,0,0,38.7,27.12ZM27.54,19a.17.17,0,0,1,.17-.17h1.62a.18.18,0,0,1,.17.17v.1a.18.18,0,0,1-.17.17H27.71a.17.17,0,0,1-.17-.17Zm1,18.74a8.19,8.19,0,1,1,8.19-8.19A8.19,8.19,0,0,1,28.52,37.72Z"/></g></g></svg>