<svg xmlns="http://www.w3.org/2000/svg" viewBox="0 0 40 39.4"><g data-name="Layer 2"><g><path  d="M39.64,16.75,20.94.34a1.4,1.4,0,0,0-1.82,0L.42,16.75a1.38,1.38,0,0,0,1.81,2.07l1.45-1.27V38A1.38,1.38,0,0,0,5.06,39.4H35A1.38,1.38,0,0,0,36.41,38h0V17.55l1.44,1.27a1.39,1.39,0,0,0,1.92-.38A1.37,1.37,0,0,0,39.64,16.75ZM16.84,36.63V25.3H23.2V36.63ZM33.63,15.14V36.63H26V23.92a1.38,1.38,0,0,0-1.38-1.38H15.46a1.37,1.37,0,0,0-1.37,1.38h0V36.63H6.41V15.14L20,3.21,33.62,15.14h0ZM16.94,12.89a1.38,1.38,0,0,0,1.38,1.38h3.41a1.38,1.38,0,0,0,0-2.76H18.3a1.38,1.38,0,0,0-1.36,1.39Z"/></g></g></svg>