<svg id="Layer_1" data-name="Layer 1" xmlns="http://www.w3.org/2000/svg" viewBox="0 0 100.00955 100.00955">
  <g>
    <path d="M125.8137,266.00955H94V166H194.00955V266.00955H162.30249a10.11931,10.11931,0,0,1,1.621-.80788c10.36595-3.06161,16.389-10.09548,16.52171-20.81174.27532-22.23421.1843-44.47486.028-66.71136-.04741-6.74526-4.97513-11.11523-11.49182-10.97211-6.138.13481-10.57928,4.83633-10.67743,11.39662-.06141,4.1053-.01142,8.21226-.01142,12.80947-5.598-2.42243-10.42739-1.74173-14.67062,2.30345-4.2749-4.22908-9.14737-4.58113-14.574-2.33355,0-4.59636.04058-8.59925-.00906-12.601-.08433-6.79969-4.54162-11.50772-10.89-11.57507-6.46287-.06856-11.27134,4.42893-11.30669,11.17809-.11577,22.10782-.20807,44.21846.033,66.32429.11628,10.66159,6.19952,17.91056,16.43792,20.9002C124.16194,265.3568,124.98087,265.70694,125.8137,266.00955Z" transform="translate(-94 -166)" style="fill: #fff"/>
    <path d="M125.8137,266.00955c-.83283-.30261-1.65176-.65275-2.5006-.90062-10.2384-2.98964-16.32164-10.23861-16.43792-20.9002-.2411-22.10583-.1488-44.21647-.033-66.32429.03535-6.74916,4.84382-11.24665,11.30669-11.17809,6.34842.06735,10.80571,4.77538,10.89,11.57507.04964,4.00178.00906,8.00467.00906,12.601,5.4266-2.24758,10.29907-1.89553,14.574,2.33355,4.24323-4.04518,9.07261-4.72588,14.67062-2.30345,0-4.59721-.05-8.70417.01142-12.80947.09815-6.56029,4.53947-11.26181,10.67743-11.39662,6.51669-.14312,11.44441,4.22685,11.49182,10.97211.15629,22.2365.24731,44.47715-.028,66.71136-.13269,10.71626-6.15576,17.75013-16.52171,20.81174a10.11931,10.11931,0,0,0-1.621.80788Zm-13.47223-46.99533c-1.058,8.00289.13682,10.0793,7.10365,12.68275a14.38083,14.38083,0,0,0,3.332.99338c9.85692,1.10128,19.728,2.0789,29.57788,3.23722,1.6042.18865,3.1252,1.08372,4.68466,1.65228a35.83892,35.83892,0,0,1-2.88789,4.44474c-1.34686,1.54848-3.12328,2.71951-4.50476,4.24314-3.61915,3.99153-6.22317,8.46458-6.24061,15.26122,7.20039-.68038,14.18127-.71506,20.85616-2.16063,5.75107-1.2455,10.06838-5.63225,10.45059-11.68131.59754-9.45689.15833-18.97919.15833-28.67279Zm-.365,15.00974c0,3.97169-.13754,7.20407.02656,10.42107a16.65874,16.65874,0,0,0,14.98124,16.12413c2.04275.26721,4.12773.197,6.18013.40906,3.21669.33239,4.98451-.15841,5.48522-4.22474.45039-3.65763,2.68224-7.14861,4.40213-10.57587.87568-1.745,2.35356-3.1882,3.88866-5.19945C134.75876,240.23512,123.14386,239.64387,111.97648,234.024Zm11.78037-20.34924c0-12.4266.14208-24.636-.09559-36.83806-.06281-3.22467-2.63827-4.94228-5.87843-4.992a5.87145,5.87145,0,0,0-5.76694,6.07376c-.07231,11.60085.01543,23.20275.07075,34.8041.00157.32882.32865.65609.48689.95215Zm51.61321.00261c0-11.72293.01974-23.1655-.0101-34.60794-.01131-4.33757-2.32114-7.15111-5.81268-7.25652-3.68459-.11124-6.04591,2.67719-6.06254,7.34663-.03674,10.3144-.01906,20.629-.00095,30.94353.002,1.12436.15207,2.24845.24806,3.5743Zm-34.20474.00849c0-4.56317.18771-8.79908-.0574-13.00983-.20871-3.58524-2.80868-6.07931-5.898-5.99866-3.461.09035-5.72518,2.09323-5.98961,5.41086-.3537,4.43768-.08751,8.92469-.08751,13.59763Zm17.08732.00324c0-4.72782.19261-8.9833-.0614-13.212-.20045-3.33691-2.23861-5.57981-5.66828-5.7654a5.4223,5.4223,0,0,0-6.10087,5.20552c-.38976,4.53972-.0975,9.13793-.0975,13.77187Z" transform="translate(-94 -166)"/>
    <path d="M112.34147,219.01422h62.53c0,9.6936.43921,19.2159-.15833,28.67279-.38221,6.04906-4.69952,10.43581-10.45059,11.68131-6.67489,1.44557-13.65577,1.48025-20.85616,2.16063.01744-6.79664,2.62146-11.26969,6.24061-15.26122,1.38148-1.52363,3.1579-2.69466,4.50476-4.24314a35.83892,35.83892,0,0,0,2.88789-4.44474c-1.55946-.56856-3.08046-1.46363-4.68466-1.65228-9.8499-1.15832-19.721-2.13594-29.57788-3.23722a14.38083,14.38083,0,0,1-3.332-.99338C112.47829,229.09352,111.2835,227.01711,112.34147,219.01422Z" transform="translate(-94 -166)" style="fill: #fff"/>
    <path d="M111.97648,234.024c11.16738,5.61991,22.78228,6.21116,34.96394,6.9542-1.5351,2.01125-3.013,3.45447-3.88866,5.19945-1.71989,3.42726-3.95174,6.91824-4.40213,10.57587-.50071,4.06633-2.26853,4.55713-5.48522,4.22474-2.0524-.21208-4.13738-.14185-6.18013-.40906A16.65874,16.65874,0,0,1,112.003,244.445C111.83894,241.228,111.97648,237.99565,111.97648,234.024Z" transform="translate(-94 -166)" style="fill: #fff"/>
    <path d="M123.75685,213.67472H112.57353c-.15824-.29606-.48532-.62333-.48689-.95215-.05532-11.60135-.14306-23.20325-.07075-34.8041a5.87145,5.87145,0,0,1,5.76694-6.07376c3.24016.04967,5.81562,1.76728,5.87843,4.992C123.89893,189.0387,123.75685,201.24812,123.75685,213.67472Z" transform="translate(-94 -166)" style="fill: #fff"/>
    <path d="M175.37006,213.67733H163.73185c-.096-1.32585-.24609-2.44994-.24806-3.5743-.01811-10.3145-.03579-20.62913.00095-30.94353.01663-4.66944,2.37795-7.45787,6.06254-7.34663,3.49154.10541,5.80137,2.91895,5.81268,7.25652C175.3898,190.51183,175.37006,201.9544,175.37006,213.67733Z" transform="translate(-94 -166)" style="fill: #fff"/>
    <path d="M141.16532,213.68582H129.13281c0-4.67294-.26619-9.16.08751-13.59763.26443-3.31763,2.52859-5.32051,5.98961-5.41086,3.08931-.08065,5.68928,2.41342,5.898,5.99866C141.353,204.88674,141.16532,209.12265,141.16532,213.68582Z" transform="translate(-94 -166)" style="fill: #fff"/>
    <path d="M158.25264,213.68906H146.32459c0-4.63394-.29226-9.23215.0975-13.77187a5.4223,5.4223,0,0,1,6.10087-5.20552c3.42967.18559,5.46783,2.42849,5.66828,5.7654C158.44525,204.70576,158.25264,208.96124,158.25264,213.68906Z" transform="translate(-94 -166)" style="fill: #fff"/>
  </g>
</svg>
