<svg id="Layer_1" data-name="Layer 1" xmlns="http://www.w3.org/2000/svg" viewBox="0 0 128 128">
  <g>
    <path d="M208,280H80q0-64,0-128l128,0Q208,216,208,280ZM102.826,216.67561a38.14846,38.14846,0,0,0,38.3959,38.32391,38.49938,38.49938,0,1,0,.19255-76.99851A38.22734,38.22734,0,0,0,102.826,216.67561Zm87.17416-27.09412-1.33376.54338c-.69829-.78648-1.7416-1.47138-2.01037-2.38431-.36229-1.23062.1548-2.72165-.213-3.94878-.62984-2.10126-1.58131-5.78082-2.524-5.82079-3.87336-.16425-2.63755,3.32782-2.69355,5.55524-.14214,5.65516.08173,11.32019-.08984,16.97372-.12748,4.20056.3615,7.87006,4.26932,10.48257.875.58495,1.179,2.54606,1.15948,3.86493-.17,11.47354-.546,22.94412-.70412,34.41774-.06934,5.03158,1.5035,6.239,6.69992,6.264,4.46451.02146,6.33551-2.11289,6.19238-6.46266-.35-10.636-.624-21.27445-.92481-31.912-.08381-2.96425-.14656-5.5851,2.85189-7.81868,1.60006-1.19191,2.27746-4.35819,2.38457-6.67891.30659-6.64321.27743-13.31687-.0058-19.96211-.07325-1.71887-1.56482-3.3773-2.4049-5.0635-.88445,1.62454-2.1637,3.15969-2.55669,4.8955a44.94728,44.94728,0,0,0-.51989,7.26939l-1.88318.06524c-.17313-2.28278-.25735-4.57688-.54582-6.845-.25933-2.03886,1.21459-5.4263-2.558-5.094-1.01283.08921-2.0747,3.41094-2.49507,5.38085C189.6664,185.31133,190.00013,187.482,190.00013,189.58149ZM98,216.90972c0-10.32542.11783-20.65327-.094-30.97435-.04533-2.20925-1.28558-4.394-1.97536-6.59-2.5828.87059-5.82726,1.07121-7.57,2.79237a13.39949,13.39949,0,0,0-3.37415,7.84862c-.50432,5.61725-.1268,11.31133-.16691,16.97338-.02951,4.16583,1.77184,7.14828,5.0757,9.71827a8.12864,8.12864,0,0,1,2.80122,5.46116c.28806,8.98389.01686,17.98484.23541,26.97265.0386,1.58733,1.45837,3.14107,2.24032,4.71033.94234-1.64565,2.66185-3.27321,2.70064-4.93989C98.12079,238.22955,97.9992,227.56822,98,216.90972Z" transform="translate(-80 -152)" style="fill: #fff"/>
    <path d="M102.826,216.67561a38.22734,38.22734,0,0,1,38.58845-38.6746,38.49938,38.49938,0,1,1-.19255,76.99851A38.14846,38.14846,0,0,1,102.826,216.67561Zm5.17534-.68456A33.55993,33.55993,0,0,0,140.941,249.82129c18.02472.28358,33.50207-15.082,33.517-33.27493.01474-17.98745-14.87685-33.05365-32.97827-33.36494C123.66929,182.87514,108.243,197.99323,108.00131,215.99105Z" transform="translate(-80 -152)"/>
    <path d="M190.00013,189.58149c0-2.09947-.33373-4.27016.09478-6.27819.42037-1.96991,1.48224-5.29164,2.49507-5.38085,3.77259-.33233,2.29867,3.05511,2.558,5.094.28847,2.26811.37269,4.56221.54582,6.845l1.88318-.06524a44.94728,44.94728,0,0,1,.51989-7.26939c.393-1.73581,1.67224-3.271,2.55669-4.8955.84008,1.6862,2.33165,3.34463,2.4049,5.0635.28323,6.64524.31239,13.3189.0058,19.96211-.10711,2.32072-.78451,5.487-2.38457,6.67891-2.99845,2.23358-2.9357,4.85443-2.85189,7.81868.3008,10.63757.57485,21.276.92481,31.912.14313,4.34977-1.72787,6.48412-6.19238,6.46266-5.19642-.025-6.76926-1.23239-6.69992-6.264.15813-11.47362.53416-22.9442.70412-34.41774.01955-1.31887-.28452-3.28-1.15948-3.86493-3.90782-2.61251-4.3968-6.282-4.26932-10.48257.17157-5.65353-.0523-11.31856.08984-16.97372.056-2.22742-1.17981-5.71949,2.69355-5.55524.94264.04,1.89411,3.71953,2.524,5.82079.36783,1.22713-.14926,2.71816.213,3.94878.26877.91293,1.31208,1.59783,2.01037,2.38431Zm-4.45481,5.64173c1.10974,4.15842,1.33164,8.04975,3.15634,10.9233,1.65664,2.60888,6.02411,1.772,7.27788-.22853,1.78762-2.85238,1.85955-6.78,2.76792-10.69477Zm7.21689,25.42982-1.056.00142v29.209l1.056-.00386Z" transform="translate(-80 -152)"/>
    <path d="M97.99958,216.90972c-.00038,10.6585.12121,21.31983-.12677,31.97255-.03879,1.66668-1.7583,3.29424-2.70064,4.93989-.78195-1.56926-2.20172-3.123-2.24032-4.71033-.21855-8.98781.05265-17.98876-.23541-26.97265a8.12864,8.12864,0,0,0-2.80122-5.46116c-3.30386-2.57-5.10521-5.55244-5.0757-9.71827.04011-5.66205-.33741-11.35613.16691-16.97338a13.39949,13.39949,0,0,1,3.37415-7.84862c1.74277-1.72116,4.98723-1.92178,7.57-2.79237.68978,2.196,1.93,4.38074,1.97536,6.59C98.11778,196.25645,98,206.5843,97.99958,216.90972Zm-5.46531-31.54913c-3.58755,5.207-3.32409,22.28683,0,25.84675Z" transform="translate(-80 -152)"/>
    <path d="M108.00131,215.99105c.24173-17.99782,15.668-33.11591,33.47841-32.80963,18.10142.31129,32.993,15.37749,32.97827,33.36494-.0149,18.19295-15.49225,33.55851-33.517,33.27493A33.55993,33.55993,0,0,1,108.00131,215.99105Zm25.21147,12.5009c-4.3057-2.36536-7.57122-4.36785-11.03445-5.93278-1.01863-.46029-2.71724.08658-3.8476.66949-.34662.17876-.2203,2.66011.33613,2.98731,4.84634,2.84985,9.63018,6.22405,14.91641,7.65457,1.59871.43264,4.71171-4.72424,7.12774-7.32394.43649-.46967.85667-.95451,1.62891-1.81725,6.02419,4.50322,12.74438,3.922,19.45892,2.3372,1.43684-.33912,2.60782-1.80465,3.90127-2.75128-1.55-.76569-3.07867-2.11745-4.6546-2.17506-3.27943-.11987-7.31348,1.7967-9.74537.48355C143.0145,218.14978,136.76336,218.15818,133.21278,228.492Zm10.54733-23.99008a9.6203,9.6203,0,0,0-9.275-9.30981,9.31011,9.31011,0,1,0,.02363,18.61862A9.56571,9.56571,0,0,0,143.76011,204.50187Z" transform="translate(-80 -152)" style="fill: #fff"/>
    <path d="M185.54532,195.22322h13.20214c-.90837,3.91477-.9803,7.84239-2.76792,10.69477-1.25377,2.00054-5.62124,2.83741-7.27788.22853C186.877,203.273,186.65506,199.38164,185.54532,195.22322Z" transform="translate(-80 -152)" style="fill: #fff"/>
    <path d="M192.76221,220.653v29.20655l-1.056.00386v-29.209Z" transform="translate(-80 -152)" style="fill: #fff"/>
    <path d="M92.53427,185.36059v25.84675C89.21018,207.64742,88.94672,190.56756,92.53427,185.36059Z" transform="translate(-80 -152)" style="fill: #fff"/>
    <path d="M133.21278,228.492c3.55058-10.33377,9.80172-10.34217,18.08736-5.86819,2.43189,1.31315,6.46594-.60342,9.74537-.48355,1.57593.05761,3.10455,1.40937,4.6546,2.17506-1.29345.94663-2.46443,2.41216-3.90127,2.75128-6.71454,1.5848-13.43473,2.166-19.45892-2.3372-.77224.86274-1.19242,1.34758-1.62891,1.81725-2.416,2.5997-5.529,7.75658-7.12774,7.32394-5.28623-1.43052-10.07007-4.80472-14.91641-7.65457-.55643-.3272-.68275-2.80855-.33613-2.98731,1.13036-.58291,2.829-1.12978,3.8476-.66949C125.64156,224.1241,128.90708,226.12659,133.21278,228.492Z" transform="translate(-80 -152)"/>
    <path d="M143.76011,204.50187a9.56571,9.56571,0,0,1-9.25133,9.30881,9.31011,9.31011,0,1,1-.02363-18.61862A9.6203,9.6203,0,0,1,143.76011,204.50187Zm-9.45768-5.56972c-1.80631,2.61129-3.70531,4.15415-3.56951,5.4902.14273,1.40432,2.23327,2.61066,3.47266,3.90353,1.33038-1.3333,3.41681-2.50746,3.742-4.05234C138.18967,203.12339,136.15154,201.49329,134.30243,198.93215Z" transform="translate(-80 -152)"/>
    <path d="M134.30243,198.93215c1.84911,2.56114,3.88724,4.19124,3.64515,5.34139-.32519,1.54488-2.41162,2.719-3.742,4.05234-1.23939-1.29287-3.32993-2.49921-3.47266-3.90353C130.59712,203.0863,132.49612,201.54344,134.30243,198.93215Z" transform="translate(-80 -152)" style="fill: #fff"/>
  </g>
</svg>
