<svg id="Layer_1" data-name="Layer 1" xmlns="http://www.w3.org/2000/svg" viewBox="0 0 102.4 102.4">
  <g>
    <path d="M187.462,165H195.4V267.4L93,267.4q0-12.70077,0-25.40155a8.33885,8.33885,0,0,0,7.80487,3.60307c3.4317-.15056,6.87517-.03236,10.3135-.03221,5.76285.00025,11.5257.00008,17.37491.00008v9.12612c-4.446,1.20439-7.49313,3.64114-8.40017,8.18219-.43449,2.17528.08091,3.71239,2.673,3.71368q15.67075.00778,31.34151-.00593c2.15586-.00411,3.08194-1.02316,2.72493-3.28684a10.0322,10.0322,0,0,0-5.961-7.81843c-1.0277-.50943-2.41769-1.45534-2.5555-2.36583a51.94914,51.94914,0,0,1-.12158-7.54487c2.3069,0,3.88294.00053,5.459-.00009,7.80234-.00312,15.60474.00888,23.407-.01676,3.5551-.01168,6.47677-1.23138,6.63334-5.23066.25326-6.46855.1971-12.95356.067-19.4275-.01707-.84926-1.241-1.67426-1.906-2.51049-.63278.8699-1.714,1.69264-1.81138,2.61884a74.96,74.96,0,0,0-.087,7.64627H145.76879c.82862-9.81359-2.65487-16.91809-11.77969-19.29956.39978-4.10082,1.01876-7.71736,1.05692-11.34.12843-12.19462.04936-12.19546-12.16335-11.063-5.26321.48805-8.34892,3.41069-8.3848,8.67186-.03078,4.51212.55557,9.02846.89075,13.856-9.31872,2.28827-12.20965,9.65075-11.7847,19.18538h-6.638v-3.96989c0-13.35658.12561-26.7151-.08039-40.06851-.058-3.763.97221-5.08954,4.86286-5.01523,11.501.21965,23.00885.08034,34.514.07353a9.37824,9.37824,0,0,0,3.14238-.163c.808-.30073,1.37744-1.24241,2.05235-1.90071a10.81893,10.81893,0,0,0-2.20727-1.7678,6.07806,6.07806,0,0,0-2.35238-.12628c-12.03415-.00442-24.069.06674-36.102-.04834-3.29771-.03154-5.89131.90915-7.79551,3.61489V165h60.32868c-3.72966,2.39882-7.14641,5.00841-7.13458,10.07012.01608,6.87816-.07887,13.75781.03747,20.63406.07581,4.48138,2.22775,7.68044,6.34717,9.71453,1.068.52735,1.74478,2.067,2.34086,3.27056a34.04551,34.04551,0,0,1,1.464,4.1516c1.30968-.73255,2.99789-1.165,3.85992-2.25242,2.88884-3.64415,6.40885-4.93861,11.01975-4.52552a107.78872,107.78872,0,0,0,12.69048.04957c6.51054-.18809,10.552-4.31647,10.63368-10.80471.06826-5.42239-.29293-10.86852.09595-16.26378C195.139,172.72266,193.25032,167.94583,187.462,165Z" transform="translate(-93 -165)" style="fill: #fff"/>
    <path d="M93,179.28837c1.9042-2.70574,4.4978-3.64643,7.79551-3.61489,12.033.11508,24.06785.04392,36.102.04834a6.07806,6.07806,0,0,1,2.35238.12628,10.81893,10.81893,0,0,1,2.20727,1.7678c-.67491.6583-1.24435,1.6-2.05235,1.90071a9.37824,9.37824,0,0,1-3.14238.163c-11.50517.00681-23.013.14612-34.514-.07353-3.89065-.07431-4.92091,1.25223-4.86286,5.01523.206,13.35341.08038,26.71193.08039,40.06851v3.96989h6.638c-.42495-9.53463,2.466-16.89711,11.7847-19.18538-.33518-4.82752-.92153-9.34386-.89075-13.856.03588-5.26117,3.12159-8.18381,8.3848-8.67186,12.21271-1.13247,12.29178-1.13163,12.16335,11.063-.03816,3.62267-.65714,7.23921-1.05692,11.34,9.12482,2.38147,12.60831,9.486,11.77969,19.29956h34.18764a74.96,74.96,0,0,1,.087-7.64627c.0974-.9262,1.1786-1.74894,1.81138-2.61884.665.83623,1.88895,1.66123,1.906,2.51049.1301,6.47394.18626,12.95895-.067,19.4275-.15657,3.99928-3.07824,5.219-6.63334,5.23066-7.80227.02564-15.60467.01364-23.407.01676-1.576.00062-3.15208.00009-5.459.00009a51.94914,51.94914,0,0,0,.12158,7.54487c.13781.91049,1.5278,1.8564,2.5555,2.36583a10.0322,10.0322,0,0,1,5.961,7.81843c.357,2.26368-.56907,3.28273-2.72493,3.28684q-15.67069.02991-31.34151.00593c-2.5921-.00129-3.1075-1.5384-2.673-3.71368.907-4.541,3.95415-6.9778,8.40017-8.18219v-9.12612c-5.84921,0-11.61206.00017-17.37491-.00008-3.43833-.00015-6.8818-.11835-10.3135.03221A8.33885,8.33885,0,0,1,93,241.99845Zm4.44863,53.78013c-1.48541,8.20886-1.22229,8.534,6.72246,8.53409q34.29276.00051,68.58552,0c7.76607-.00013,7.77274-.0052,6.96413-7.71325-.02333-.22244-.27421-.421-.55025-.82081Zm44.08258-4.35653c.73965-5.89264-.08366-10.73893-5.11455-13.9555-2.18357-1.3961-4.047-1.58279-6.18391.69977-5.82665,6.22386-5.13994,6.1956-11.04447-.07058-1.97951-2.10074-3.72288-1.97175-5.865-.79523-4.63376,2.545-6.66854,8.35529-4.88066,14.12154Zm10.54517,33.814.24881-1.3202c-6.96974-5.01951-15.18532-1.71833-22.78107-2.36327-1.66539-.14141-3.4976,1.68183-5.253,2.60031l.56384,1.08316ZM132.919,245.78564V254.393h10.9881v-8.60731Zm-14.01289-45.01058-1.31275,1.075c1.36368,2.14341,2.28775,4.9852,4.23076,6.20827,1.54186.97055,4.62926.57835,6.49625-.31953,2.71237-1.30445,3.14236-4.17073,2.62649-6.96376Zm-.29688-3.96521c2.73177,0,5.20645.02371,7.68052-.00513,4.58876-.05351,5.40118-1.164,4.22892-5.70784C122.0442,190.35316,118.05349,190.61919,118.60925,196.80985Z" transform="translate(-93 -165)"/>
    <path d="M187.462,165c5.7883,2.94583,7.677,7.72266,7.22135,14.044-.38888,5.39526-.02769,10.84139-.09595,16.26378-.08169,6.48824-4.12314,10.61662-10.63368,10.80471a107.78872,107.78872,0,0,1-12.69048-.04957c-4.6109-.41309-8.13091.88137-11.01975,4.52552-.862,1.08741-2.55024,1.51987-3.85992,2.25242a34.04551,34.04551,0,0,0-1.464-4.1516c-.59608-1.2036-1.27287-2.74321-2.34086-3.27056-4.11942-2.03409-6.27136-5.23315-6.34717-9.71453-.11634-6.87625-.02139-13.7559-.03747-20.63406-.01183-5.06171,3.40492-7.6713,7.13458-10.07012Zm-27.2875,40.02348c1.66973-2.90356,5.02373-2.98216,8.57072-2.87945,4.87746.14124,9.76423.12164,14.64316.007,5.03435-.1183,7.18038-2.32891,7.23437-7.36289q.09976-9.30035-.00151-18.60247c-.05685-4.87835-2.19685-7.1432-6.94345-7.19105q-13.25809-.13363-26.51841-.00173c-4.77369.04586-6.93042,2.28856-6.98867,7.14627-.07593,6.332-.011,12.66553-.01979,18.99839-.00531,3.84527,1.80717,6.06574,5.6021,7.01737C157.193,202.516,158.39426,203.82889,160.17452,205.02348Z" transform="translate(-93 -165)"/>
    <path d="M97.44863,233.0685h81.72186c.276.39981.52692.59837.55025.82081.80861,7.70805.80194,7.71312-6.96413,7.71325q-34.29276.0006-68.58552,0C96.22634,241.60247,95.96322,241.27736,97.44863,233.0685Z" transform="translate(-93 -165)" style="fill: #fff"/>
    <path d="M141.53121,228.712h-33.0886c-1.78788-5.76625.2469-11.57653,4.88066-14.12154,2.14213-1.17652,3.8855-1.30551,5.865.79523,5.90453,6.26618,5.21782,6.29444,11.04447.07058,2.13689-2.28256,4.00034-2.09587,6.18391-.69977C141.44755,217.973,142.27086,222.81933,141.53121,228.712Z" transform="translate(-93 -165)" style="fill: #fff"/>
    <path d="M152.07638,262.526H124.855l-.56384-1.08316c1.75539-.91848,3.5876-2.74172,5.253-2.60031,7.59575.64494,15.81133-2.65624,22.78107,2.36327Z" transform="translate(-93 -165)" style="fill: #fff"/>
    <path d="M132.919,245.78564h10.9881V254.393H132.919Z" transform="translate(-93 -165)" style="fill: #fff"/>
    <path d="M118.90613,200.77506h12.04075c.51587,2.793.08588,5.65931-2.62649,6.96376-1.867.89788-4.95439,1.29008-6.49625.31953-1.943-1.22307-2.86708-4.06486-4.23076-6.20827Z" transform="translate(-93 -165)" style="fill: #fff"/>
    <path d="M118.60925,196.80985c-.55576-6.19066,3.435-6.45669,11.90944-5.713,1.17226,4.5438.35984,5.65433-4.22892,5.70784C123.8157,196.83356,121.341,196.80985,118.60925,196.80985Z" transform="translate(-93 -165)" style="fill: #fff"/>
    <path d="M160.17452,205.02348c-1.78026-1.19459-2.98153-2.50748-4.42148-2.86857-3.79493-.95163-5.60741-3.1721-5.6021-7.01737.00874-6.33286-.05614-12.66644.01979-18.99839.05825-4.85771,2.215-7.10041,6.98867-7.14627q13.25822-.12736,26.51841.00173c4.7466.04785,6.8866,2.3127,6.94345,7.19105q.10839,9.30016.00151,18.60247c-.054,5.034-2.2,7.24459-7.23437,7.36289-4.87893.11465-9.7657.13425-14.64316-.007C165.19825,202.04132,161.84425,202.11992,160.17452,205.02348Zm10.22967-21.87708c-3.56728,0-7.14173-.12189-10.69671.08716-.87046.05118-1.67725,1.18518-2.51331,1.82135.83029.67,1.64825,1.903,2.49279,1.9215q10.69645.234,21.39928.00291c.85093-.01836,1.67588-1.242,2.51287-1.90691-.831-.64187-1.63231-1.78646-2.49829-1.8377C177.546,183.02433,173.97148,183.14679,170.40419,183.1464Zm-.01636,12.66425c3.43517,0,6.88092.14953,10.299-.09213,1.0108-.07147,1.94357-1.24638,2.9121-1.91563-.9635-.64432-1.91434-1.82385-2.89253-1.847q-10.2998-.24351-20.60707-.00095c-.98226.02306-1.93757,1.19358-2.90534,1.83305.96278.67408,1.88934,1.858,2.89493,1.92947C163.50683,195.96028,166.95266,195.81027,170.38783,195.81065Zm4.33736-21.36515,0-.03326a60.90276,60.90276,0,0,0-6.73583.07935c-.94844.106-1.7996,1.0822-2.695,1.663.77732.72067,1.53056,2.03167,2.33595,2.06453,4.61884.18846,9.25342.1578,13.87359-.02617.72081-.0287,1.39513-1.22506,2.09094-1.88149-.70883-.622-1.36833-1.69665-2.13583-1.78029A62.41563,62.41563,0,0,0,174.72519,174.4455Z" transform="translate(-93 -165)" style="fill: #fff"/>
    <path d="M170.4042,183.1466c3.56728.00019,7.1418-.12227,10.69662.08811.866.05124,1.66727,1.19583,2.49829,1.8377-.837.665-1.66194,1.88855-2.51287,1.90691q-10.69656.23076-21.39928-.00291c-.84454-.01847-1.6625-1.25148-2.49279-1.9215.83606-.63617,1.64285-1.77017,2.51331-1.82135C163.26246,183.02451,166.83691,183.1464,170.4042,183.1466Z" transform="translate(-93 -165)"/>
    <path d="M170.38783,195.81046c-3.43517-.00019-6.881.14982-10.29892-.093-1.00559-.07144-1.93215-1.25539-2.89493-1.92948.96777-.63946,1.92308-1.81,2.90534-1.833q10.29987-.24182,20.60707.00095c.97819.02313,1.929,1.20266,2.89253,1.847-.96853.66925-1.9013,1.84416-2.9121,1.91563C177.26875,195.96018,173.823,195.81065,170.38783,195.81046Z" transform="translate(-93 -165)"/>
    <path d="M174.72519,174.4455a62.41563,62.41563,0,0,1,6.7338.08565c.7675.08364,1.427,1.15831,2.13583,1.7803-.69581.65642-1.37013,1.85278-2.09094,1.88148-4.62017.184-9.25475.21463-13.87359.02617-.80539-.03286-1.55863-1.34386-2.33595-2.06453.89537-.58078,1.74653-1.557,2.695-1.663a60.90276,60.90276,0,0,1,6.73583-.07935Z" transform="translate(-93 -165)"/>
  </g>
</svg>
