<svg id="Layer_1" data-name="Layer 1" xmlns="http://www.w3.org/2000/svg" viewBox="0 0 128 128">
  <g>
    <path d="M80.00038,280Q80.0001,216.00048,80,152.00038q63.99953-.00029,127.9996-.00038.0003,63.99953.0004,127.9996Q144.00048,279.9999,80.00038,280ZM159.186,239.69743c0-7.8473.28921-15.33771-.1602-22.78354a12.63025,12.63025,0,0,0-3.43924-7.321c-3.6093-3.74-6.26338-3.06284-8.77346,1.43-.68152,1.21986-1.4743,2.37758-2.442,3.92531-1.00346-1.56624-1.73618-2.64974-2.4084-3.76956-2.8629-4.76921-6.35028-5.22062-9.98328-.8687a11.28169,11.28169,0,0,0-2.64042,6.232c-.31406,7.61474-.12289,15.25029-.12289,23.10617l4.25633.892v32.16859h8.2157c.77151-5.73822,1.4906-11.08652,2.20969-16.43481l.81548.14634c.711,5.52452,1.42209,11.049,2.10881,16.38461h8.20906V240.84336Zm3.28125-23.70843c.56882.97746.71682,1.47835.88541,1.48539,4.1245.17212,8.2564.47855,12.37586.36352,3.4922-.09752,5.9987.25838,7.71348,4.13841,1.8994,4.29773,7.21031,5.97836,11.52237,4.49625,4.5007-1.547,7.1406-4.51229,7.03218-9.63227-.11578-5.4681-2.13151-8.7081-6.85328-10.2397-4.40791-1.42979-9.72752-.02722-11.56616,4.313-1.80906,4.27036-4.58735,4.40486-8.1931,4.22709-3.147-.15516-6.31025-.09876-9.46138.00875A17.97341,17.97341,0,0,0,162.46724,215.989Zm8.11957-24.137,2.4337,1.58645a34.57478,34.57478,0,0,0,4.15854,1.46268,10.14724,10.14724,0,0,0,11.3274-5.26642c2.31863-4.36061,1.61764-8.36056-1.66079-11.89618a10.2545,10.2545,0,0,0-12.34766-1.9147c-4.17281,2.397-6.77534,6.44168-5.01217,10.79414,1.84209,4.54726-.16626,6.5665-2.88149,9.09947-2.91017,2.71483-5.67731,5.58732-8.42045,8.47315a2.85533,2.85533,0,0,0-.64372,1.4426Zm-41.87593,15.70845,2.0509-1.412a13.612,13.612,0,0,0-1.68179-3.0394c-2.97946-3.13775-6.04682-6.196-9.16951-9.19214-1.65668-1.58951-2.578-2.80925-1.44293-5.49724,2.05523-4.867.21361-9.5464-3.9368-12.20627a10.5603,10.5603,0,0,0-12.89508,1.31407,10.35367,10.35367,0,0,0-1.66038,12.42972,9.82384,9.82384,0,0,0,12.46789,4.4306c2.65693-1.08762,3.93452-.313,5.49525,1.4235C121.49,199.763,125.11545,203.64822,128.71088,207.56047Zm-3.41161,9.68508-.01176-2.50437c-4.70793,0-9.41955-.11254-14.12241.04186-2.859.09387-4.78058-.24128-6.159-3.43689-2.01-4.65958-7.00488-6.49-11.708-5.22859-4.51193,1.21017-7.28389,5.05337-7.25388,10.05721.03006,5.0113,2.81358,8.68932,7.46666,9.86616,4.72516,1.19505,9.62307-.66631,11.6347-5.36516,1.36432-3.18683,3.25868-3.5759,6.14154-3.47441C115.95254,217.36559,120.628,217.24555,125.29927,217.24555Zm18.055-26.82355,1.34454.17544a9.462,9.462,0,0,0,.80253-2.96837c-.33036-4.6031.22071-8.05774,5.1623-10.74453,5.18637-2.81988,5.18051-10.41846,1.06618-14.81351a10.31134,10.31134,0,0,0-15.0777.10171c-4.05311,4.419-3.974,12.09569,1.1903,14.81224,4.82192,2.53647,5.49325,5.76873,5.04817,10.27224A13.02045,13.02045,0,0,0,143.3543,190.422Zm.91485,15.83915a6.63627,6.63627,0,0,0,6.59532-6.208c.13756-3.45038-3.13293-6.97157-6.6182-6.76473-3.81364.22634-6.19864,2.34275-6.46979,6.27705A6.30622,6.30622,0,0,0,144.26915,206.26115Z" transform="translate(-80 -152)" style="fill: #fff"/>
    <path d="M159.186,239.69743l-4.15486,1.14593v31.96152h-8.20906c-.68672-5.33556-1.39777-10.86009-2.10881-16.38461l-.81548-.14634c-.71909,5.34829-1.43818,10.69659-2.20969,16.43481h-8.2157V240.54015l-4.25633-.892c0-7.85588-.19117-15.49143.12289-23.10617a11.28169,11.28169,0,0,1,2.64042-6.232c3.633-4.35192,7.12038-3.90051,9.98328.8687.67222,1.11982,1.40494,2.20332,2.4084,3.76956.96774-1.54773,1.76052-2.70545,2.442-3.92531,2.51008-4.49283,5.16416-5.17,8.77346-1.43a12.63025,12.63025,0,0,1,3.43924,7.321C159.4752,224.35972,159.186,231.85013,159.186,239.69743Zm-15.96,1.52117,1.92009.07915c.29928,1.52164.68488,3.03214.883,4.56684.89447,6.92844,1.64607,13.8771,2.676,20.78465.194,1.301,1.42092,2.44806,2.17121,3.66615.56-1.32224,1.62235-2.65239,1.60169-3.9655-.19367-12.3109-.58984-24.6185-.87468-36.92826a34.73988,34.73988,0,0,1,.40021-4.21972l1.70656-.00122.89457,11.97665,1.325-.1c0-7.34908.3205-14.72154-.21249-22.03175-.14348-1.96792-2.88058-3.74673-4.23607-5.38188-3.12165,3.175-5.42122,5.51389-7.7208,7.85276l-6.6976-7.34737c-4.353,1.81091-5.27775,2.8389-5.37166,7.10631-.1281,5.82162-.07269,11.64858.00106,17.472a9.774,9.774,0,0,0,.83375,2.66931l.9985-.15806.90926-12.049,1.86764.05648c.12919,1.80229.40958,3.60848.36312,5.40623-.3094,11.975-.733,23.94729-.97822,35.92335-.02518,1.23023.88067,2.47952,1.3545,3.72.83892-1.15154,2.23911-2.22015,2.42356-3.46841,1.02094-6.90885,1.70844-13.86626,2.59981-20.7955A44.134,44.134,0,0,1,143.22594,241.2186Z" transform="translate(-80 -152)"/>
    <path d="M162.46724,215.989a17.97341,17.97341,0,0,1,3.45538-.83955c3.15113-.10751,6.31434-.16391,9.46138-.00875,3.60575.17777,6.384.04327,8.1931-4.22709,1.83864-4.34023,7.15825-5.7428,11.56616-4.313,4.72177,1.5316,6.7375,4.7716,6.85328,10.2397.10842,5.12-2.53148,8.08531-7.03218,9.63227-4.31206,1.48211-9.623-.19852-11.52237-4.49625-1.71478-3.88-4.22128-4.23593-7.71348-4.13841-4.11946.115-8.25136-.1914-12.37586-.36352C163.18406,217.46735,163.03606,216.96646,162.46724,215.989Zm29.70165,8.06487a7.60857,7.60857,0,0,0,7.6154-7.54035,7.69714,7.69714,0,1,0-7.6154,7.54035Z" transform="translate(-80 -152)"/>
    <path d="M170.58681,191.852l-13.04664,13.78119a2.85533,2.85533,0,0,1,.64372-1.4426c2.74314-2.88583,5.51028-5.75832,8.42045-8.47315,2.71523-2.533,4.72358-4.55221,2.88149-9.09947-1.76317-4.35246.83936-8.39714,5.01217-10.79414a10.2545,10.2545,0,0,1,12.34766,1.9147c3.27843,3.53562,3.97942,7.53557,1.66079,11.89618a10.14724,10.14724,0,0,1-11.3274,5.26642,34.57478,34.57478,0,0,1-4.15854-1.46268Zm8.78725-14.88859a7.78638,7.78638,0,0,0,.08916,15.57169,7.78612,7.78612,0,0,0-.08916-15.57169Z" transform="translate(-80 -152)"/>
    <path d="M128.71088,207.56047c-3.59543-3.91225-7.22086-7.79752-10.77245-11.74917-1.56073-1.73653-2.83832-2.51112-5.49525-1.4235a9.82384,9.82384,0,0,1-12.46789-4.4306,10.35367,10.35367,0,0,1,1.66038-12.42972,10.5603,10.5603,0,0,1,12.89508-1.31407c4.15041,2.65987,5.992,7.33924,3.9368,12.20627-1.13507,2.688-.21375,3.90773,1.44293,5.49724,3.12269,2.99609,6.19,6.05439,9.16951,9.19214a13.612,13.612,0,0,1,1.68179,3.0394Zm-11.80662-22.60832a7.96265,7.96265,0,0,0-7.359-7.96686,7.76877,7.76877,0,1,0-.93818,15.50747A7.95856,7.95856,0,0,0,116.90426,184.95215Z" transform="translate(-80 -152)"/>
    <path d="M125.29927,217.24555c-4.67125,0-9.34673.12-14.0122-.04419-2.88286-.10149-4.77722.28758-6.14154,3.47441-2.01163,4.69885-6.90954,6.56021-11.6347,5.36516-4.65308-1.17684-7.4366-4.85486-7.46666-9.86616-.03-5.00384,2.742-8.847,7.25388-10.05721,4.70312-1.26144,9.698.569,11.708,5.22859,1.37847,3.19561,3.30008,3.53076,6.159,3.43689,4.70286-.1544,9.41448-.04186,14.12241-.04186Zm-21.54182-1.27071a7.58737,7.58737,0,0,0-7.85324-7.29357,7.68611,7.68611,0,0,0-7.58175,7.59507,7.71978,7.71978,0,1,0,15.435-.3015Z" transform="translate(-80 -152)"/>
    <path d="M143.3543,190.422a13.02045,13.02045,0,0,1-.46368-3.16478c.44508-4.50351-.22625-7.73577-5.04817-10.27224-5.16426-2.71655-5.24341-10.39323-1.1903-14.81224a10.31134,10.31134,0,0,1,15.0777-.10171c4.11433,4.395,4.12019,11.99363-1.06618,14.81351-4.94159,2.68679-5.49266,6.14143-5.1623,10.74453a9.462,9.462,0,0,1-.80253,2.96837Zm.892-28.874a7.34586,7.34586,0,0,0-7.538,7.48352,7.57961,7.57961,0,0,0,7.319,7.79577,7.80886,7.80886,0,0,0,7.90988-7.81352A7.64181,7.64181,0,0,0,144.24627,161.548Z" transform="translate(-80 -152)"/>
    <path d="M144.26915,206.26115a6.30622,6.30622,0,0,1-6.49267-6.69568c.27115-3.9343,2.65615-6.05071,6.46979-6.27705,3.48527-.20684,6.75576,3.31435,6.6182,6.76473A6.63627,6.63627,0,0,1,144.26915,206.26115Zm5.50711-6.722c-2.63987-1.684-4.24771-3.52-5.56927-3.333-1.42511.20166-2.58227,2.29691-3.85633,3.56609,1.40539,1.31924,2.66324,3.38494,4.26673,3.70186C145.73274,203.69456,147.32287,201.51285,149.77626,199.53918Z" transform="translate(-80 -152)"/>
    <path d="M143.22594,241.2186a44.134,44.134,0,0,0-1.162,4.83327c-.89137,6.92924-1.57887,13.88665-2.59981,20.7955-.18445,1.24826-1.58464,2.31687-2.42356,3.46841-.47383-1.24044-1.37968-2.48973-1.3545-3.72.24519-11.97606.66882-23.94835.97822-35.92335.04646-1.79775-.23393-3.60394-.36312-5.40623l-1.86764-.05648-.90926,12.049-.9985.15806a9.774,9.774,0,0,1-.83375-2.66931c-.07375-5.82344-.12916-11.6504-.00106-17.472.09391-4.26741,1.01864-5.2954,5.37166-7.10631l6.6976,7.34737c2.29958-2.33887,4.59915-4.67774,7.7208-7.85276,1.35549,1.63515,4.09259,3.414,4.23607,5.38188.533,7.31021.21249,14.68267.21249,22.03175l-1.325.1L153.71,225.20069l-1.70656.00122a34.73988,34.73988,0,0,0-.40021,4.21972c.28484,12.30976.681,24.61736.87468,36.92826.02066,1.31311-1.04173,2.64326-1.60169,3.9655-.75029-1.21809-1.97723-2.36512-2.17121-3.66615-1.02993-6.90755-1.78153-13.85621-2.676-20.78465-.19813-1.5347-.58373-3.0452-.883-4.56684Z" transform="translate(-80 -152)" style="fill: #fff"/>
    <path d="M192.16889,224.05387a7.62024,7.62024,0,1,1,7.6154-7.54035A7.60857,7.60857,0,0,1,192.16889,224.05387Z" transform="translate(-80 -152)" style="fill: #fff"/>
    <path d="M179.37406,176.96343a7.78612,7.78612,0,0,1,.08916,15.57169,7.78638,7.78638,0,0,1-.08916-15.57169Z" transform="translate(-80 -152)" style="fill: #fff"/>
    <path d="M116.90426,184.95215a7.95856,7.95856,0,0,1-8.29721,7.54061,7.76877,7.76877,0,1,1,.93818-15.50747A7.96265,7.96265,0,0,1,116.90426,184.95215Z" transform="translate(-80 -152)" style="fill: #fff"/>
    <path d="M103.75745,215.97484a7.71978,7.71978,0,1,1-15.435.3015,7.68611,7.68611,0,0,1,7.58175-7.59507A7.58737,7.58737,0,0,1,103.75745,215.97484Z" transform="translate(-80 -152)" style="fill: #fff"/>
    <path d="M144.24627,161.548a7.64181,7.64181,0,0,1,7.6908,7.46577,7.80886,7.80886,0,0,1-7.90988,7.81352,7.57961,7.57961,0,0,1-7.319-7.79577A7.34586,7.34586,0,0,1,144.24627,161.548Z" transform="translate(-80 -152)" style="fill: #fff"/>
    <path d="M149.77626,199.53918c-2.45339,1.97367-4.04352,4.15538-5.15887,3.93494-1.60349-.31692-2.86134-2.38262-4.26673-3.70186,1.27406-1.26918,2.43122-3.36443,3.85633-3.56609C145.52855,196.01916,147.13639,197.8552,149.77626,199.53918Z" transform="translate(-80 -152)" style="fill: #fff"/>
  </g>
</svg>
