<svg id="Layer_1" data-name="Layer 1" xmlns="http://www.w3.org/2000/svg" viewBox="0 0 102.4 102.4">
  <g>
    <path d="M93,246.86581V165H195.4V267.4H93V253.22745c1.55319.55843,3.1049,1.59926,4.6598,1.60406,30.82091.09526,61.64221.05536,92.46337.09316,3.1806.0039,4.85035-1.41085,4.505-4.53193-.23923-2.16178-.58637-4.57145-1.72137-6.3297-5.30349-8.21571-6.86147-17.0605-6.39964-26.7566.55367-11.62451.1423-23.29565.125-34.94657-.00743-5.0107-.52914-5.55271-5.37672-5.55492q-37.30293-.017-74.60586-.00137c-5.11529.00179-5.58309.48392-5.58709,5.74442-.01156,15.22565.00964,30.45135-.02724,45.67692a10.11763,10.11763,0,0,1-.56432,4.24735C98.11181,237.33389,95.51118,242.07811,93,246.86581Z" transform="translate(-93 -165)" style="fill: #fff"/>
    <path d="M93,246.86581c2.51118-4.7877,5.11181-9.53192,7.47092-14.39354a10.11763,10.11763,0,0,0,.56432-4.24735c.03688-15.22557.01568-30.45127.02724-45.67692.004-5.2605.4718-5.74263,5.58709-5.74442q37.30293-.013,74.60586.00137c4.84758.00221,5.36929.54422,5.37672,5.55492.01727,11.65092.42864,23.32206-.125,34.94657-.46183,9.6961,1.09615,18.54089,6.39964,26.7566,1.135,1.75825,1.48214,4.16792,1.72137,6.3297.34539,3.12108-1.32436,4.53583-4.505,4.53193-30.82116-.0378-61.64246.0021-92.46337-.09316-1.5549-.0048-3.10661-1.04563-4.6598-1.60406Zm90.37812-16.85993V180.0391H104.31366v49.96678Zm7.30089,16.1993c-2.13038-4.27432-3.84216-7.97128-5.838-11.50764a3.79713,3.79713,0,0,0-2.86966-1.383q-38.12641-.11192-76.25315.00026a3.794,3.794,0,0,0-2.86621,1.38852c-1.99531,3.53623-3.70715,7.23268-5.83492,11.50161,10.11583,0,19.59008-.102,29.05963.064,2.73577.048,4.155-.62781,4.55225-3.49439.36975-2.668,1.59085-4.68224,4.88294-4.61012,5.55749.12174,11.11971.05684,16.67965.02267,2.44562-.015,4.26627.91477,4.49621,3.464.38457,4.26328,2.888,4.85738,6.53013,4.62077,4.35037-.28261,8.73307-.06664,13.10177-.06664Zm-47.24826,5.743q21.83459,0,43.66916-.00317a16.75569,16.75569,0,0,0,3.16219-.12354c.4867-.09455.86419-.75234,1.29115-1.155-.4785-.4666-.88364-1.15453-1.454-1.34391a7.79515,7.79515,0,0,0-2.36318-.07342q-43.86767-.00137-87.73531-.00067a4.36589,4.36589,0,0,0-1.57385.03613,18.28565,18.28565,0,0,0-2.29024,1.34164,11.55959,11.55959,0,0,0,2.446,1.26548,11.564,11.564,0,0,0,2.76682.05618Q122.39014,251.9487,143.43075,251.94814Zm-10.23341-5.9127H154.4951c.18987-3.54882-1.06741-5.14563-4.75949-4.84684a74.12263,74.12263,0,0,1-11.43047.00346C134.88922,240.93824,132.97371,241.89205,133.19734,246.03544Z" transform="translate(-93 -165)"/>
    <path d="M183.37812,230.00588H104.31366V180.0391h79.06446Zm-5.99945-6.271H110.31352c0-4.58289.09258-8.9242-.07556-13.25536-.035-.90178-1.03493-1.766-1.59018-2.64757-.45034.823-1.26495,1.63509-1.29,2.47086-.13067,4.36348-.03748,8.73314-.06965,13.10031-.01825,2.47667,1.13182,3.61416,3.6174,3.61191q32.92493-.0297,65.84988.00455c2.77673.0036,3.70662-1.409,3.665-3.97852-.0665-4.10166.06447-8.208-.07861-12.30578-.03428-.98187-.81886-1.93749-1.25836-2.90518-.56824,1.00278-1.58135,1.98576-1.62691,3.01179C177.27,215.04183,177.37867,219.25487,177.37867,223.73491Zm.00568-37.70741c0,4.662-.09259,9.12446.07821,13.57683.03412.88941,1.07351,1.74019,1.64937,2.60878.42917-.85909,1.2024-1.7076,1.22916-2.57907.13-4.23207-.0269-8.4727.09053-12.7055.08125-2.92889-1.24863-4.08532-4.05375-3.99322-2.24592.07373-4.4963.00933-6.7447.00933-19.17761,0-38.3555.05382-57.53258-.04675-3.54231-.01857-5.09495,1.14271-4.86,4.8383.23473,3.6916-.04818,7.41413.11168,11.11376.0491,1.13627.80869,2.24178,1.24294,3.36138.5748-1.13662,1.58947-2.252,1.64537-3.41366.20122-4.18174.079-8.37907.079-12.77018Z" transform="translate(-93 -165)" style="fill: #fff"/>
    <path d="M190.679,246.20518H176.31963c-4.3687,0-8.7514-.216-13.10177.06664-3.64217.23661-6.14556-.35749-6.53013-4.62077-.22994-2.54918-2.05059-3.479-4.49621-3.464-5.55994.03417-11.12216.09907-16.67965-.02267-3.29209-.07212-4.51319,1.94212-4.88294,4.61012-.39727,2.86658-1.81648,3.54235-4.55225,3.49439-9.46955-.166-18.9438-.064-29.05963-.064,2.12777-4.26893,3.83961-7.96538,5.83492-11.50161a3.794,3.794,0,0,1,2.86621-1.38852q38.12643-.11236,76.25315-.00026a3.79713,3.79713,0,0,1,2.86966,1.383C186.83685,238.2339,188.54863,241.93086,190.679,246.20518Z" transform="translate(-93 -165)" style="fill: #fff"/>
    <path d="M143.43075,251.94821q-21.0406.00009-42.08123-.00031a11.564,11.564,0,0,1-2.76682-.05618,11.55959,11.55959,0,0,1-2.446-1.26548,18.28565,18.28565,0,0,1,2.29024-1.34164,4.36589,4.36589,0,0,1,1.57385-.03613q43.86765-.00018,87.73531.00067a7.79515,7.79515,0,0,1,2.36318.07342c.57038.18938.97552.87731,1.454,1.3439-.427.40263-.80445,1.06042-1.29115,1.155a16.75569,16.75569,0,0,1-3.16219.12354Q165.26534,251.952,143.43075,251.94821Z" transform="translate(-93 -165)" style="fill: #fff"/>
    <path d="M133.19734,246.03544c-.22363-4.14339,1.69188-5.0972,5.1078-4.84338a74.12263,74.12263,0,0,0,11.43047-.00346c3.69208-.29879,4.94936,1.298,4.75949,4.84684Z" transform="translate(-93 -165)" style="fill: #fff"/>
    <path d="M177.37867,223.73491c0-4.48-.10868-8.69308.07784-12.893.04556-1.026,1.05867-2.009,1.62691-3.01179.4395.96769,1.22408,1.92331,1.25836,2.90518.14308,4.09773.01211,8.20412.07861,12.30578.04166,2.56954-.88823,3.98212-3.665,3.97852q-32.92489-.04254-65.84988-.00455c-2.48558.00225-3.63565-1.13524-3.6174-3.61191.03217-4.36717-.061-8.73683.06965-13.10031.025-.83577.83964-1.64785,1.29-2.47086.55525.88155,1.55517,1.74579,1.59018,2.64757.16814,4.33116.07556,8.67247.07556,13.25536Z" transform="translate(-93 -165)"/>
    <path d="M177.38435,186.0275h-67.0647c0,4.39111.12218,8.58844-.079,12.77018-.0559,1.16163-1.07057,2.277-1.64537,3.41366-.43425-1.1196-1.19384-2.22511-1.24294-3.36138-.15986-3.69963.12305-7.42216-.11168-11.11376-.235-3.69559,1.31766-4.85687,4.86-4.8383,19.17708.10057,38.355.04674,57.53258.04675,2.2484,0,4.49878.0644,6.7447-.00933,2.80512-.0921,4.135,1.06433,4.05375,3.99322-.11743,4.2328.03945,8.47343-.09053,12.7055-.02676.87147-.8,1.72-1.22916,2.57907-.57586-.86859-1.61525-1.71937-1.64937-2.60878C177.29176,195.152,177.38435,190.68946,177.38435,186.0275Z" transform="translate(-93 -165)"/>
  </g>
</svg>
