<svg version="1.1"  xmlns="http://www.w3.org/2000/svg" xmlns:xlink="http://www.w3.org/1999/xlink" x="0px" y="0px"
	 viewBox="0 0 24 24" style="enable-background:new 0 0 24 24;" xml:space="preserve">
<g>
	<path d="M16.3,2C19.5,2,22,4.5,22,7.7v8.6c0,3.2-2.5,5.7-5.7,5.7H7.7C4.5,22,2,19.5,2,16.3V7.7C2,4.5,4.5,2,7.7,2H16.3 M16.3,0.5
		H7.7c-4,0-7.2,3.2-7.2,7.2v8.6c0,4,3.2,7.2,7.2,7.2h8.6c4,0,7.2-3.2,7.2-7.2V7.7C23.5,3.7,20.3,0.5,16.3,0.5L16.3,0.5z"/>
</g>
<g>
	<g>
		<path d="M12,7.8c2.4,0,4.3,1.9,4.3,4.3s-1.9,4.3-4.3,4.3s-4.3-1.9-4.3-4.3S9.6,7.8,12,7.8 M12,6.3c-3.2,0-5.8,2.6-5.8,5.8
			s2.6,5.8,5.8,5.8s5.8-2.6,5.8-5.8S15.2,6.3,12,6.3L12,6.3z"/>
	</g>
</g>
<g>
	<g>
		<circle cx="18.4" cy="5.8" r="1"/>
	</g>
</g>
</svg>
