<svg id="Layer_1" data-name="Layer 1" xmlns="http://www.w3.org/2000/svg" viewBox="0 0 128 128">
  <g>
    <path d="M80.00005,280Q80,216.00007,80,152q63.99993,0,127.99994,0,0,63.99993.00006,127.99994Q144.00007,280,80.00005,280Zm9.98531-64.49957H89.941c0,8.48984-.06487,16.98028.01372,25.46939.15562,16.80942,11.71383,28.628,28.49908,28.8216q24.96684.288,49.93945-.00017c16.04572-.17052,27.9363-11.44682,28.34661-27.46706.44314-17.30138.40963-34.62937.02548-51.93335-.36484-16.435-12.51934-27.88344-29.00432-27.96581-16.31343-.08151-32.62857-.10962-48.94128.03219-16.91185.147-28.5402,11.73077-28.81166,28.57261C89.87661,199.1847,89.98536,207.34344,89.98536,215.50043Z" transform="translate(-80 -152)" style="fill: #fff"/>
    <path d="M89.98536,215.50043c0-8.157-.10875-16.31573.02269-24.4706.27146-16.84184,11.89981-28.4256,28.81166-28.57261,16.31271-.14181,32.62785-.1137,48.94128-.03219,16.485.08237,28.63948,11.53076,29.00432,27.96581.38415,17.304.41766,34.632-.02548,51.93335-.41031,16.02024-12.30089,27.29654-28.34661,27.46706q-24.96738.26534-49.93945.00017c-16.78525-.19363-28.34346-12.01218-28.49908-28.8216-.07859-8.48911-.01372-16.97955-.01372-25.46939Zm53.27474,51.10914c8.65909,0,17.31964.10193,25.97693-.023,14.29714-.20634,24.44552-10.40794,24.53007-24.72392q.15194-25.72671.00687-51.4548c-.102-14.37758-10.69-24.78459-25.0842-24.8356q-24.97706-.0885-49.95456-.01815c-15.41771.0577-25.7069,10.28194-25.78256,25.65463q-.12419,25.22684.00407,50.45472c.07422,14.60065,10.16718,24.72021,24.826,24.93012C126.27355,266.71515,134.76753,266.61566,143.2601,266.60957Z" transform="translate(-80 -152)"/>
    <path d="M143.2601,266.61262c-8.49257.003-16.98655.10253-25.47738-.01906-14.65882-.20991-24.75178-10.32947-24.826-24.93012q-.12825-25.22682-.00407-50.45472c.07566-15.37269,10.36485-25.59693,25.78256-25.65463q24.97694-.09348,49.95456.01815c14.39423.051,24.98224,10.458,25.0842,24.8356q.18246,25.72623-.00687,51.4548c-.08455,14.316-10.23293,24.51758-24.53007,24.72392C160.57974,266.7115,151.91919,266.60957,143.2601,266.61262Zm.25455-6.40372c8.15436,0,16.3093.06138,24.463-.01488,11.25823-.10528,19.1329-7.96254,19.17885-19.20763q.101-24.71243.00342-49.42554c-.04124-11.53065-7.93317-19.37239-19.49716-19.407q-24.21337-.07245-48.42714-.003c-11.703.02622-19.79728,7.98645-19.86634,19.71075q-.14408,24.46233.01436,48.926c.09241,11.39829,8.21665,19.30717,19.668,19.40382C127.20539,260.26028,135.36025,260.2048,143.51465,260.2089Z" transform="translate(-80 -152)" style="fill: #fff"/>
    <path d="M143.51465,260.20685c-8.1544-.002-16.30926.05343-24.46307-.01541-11.45134-.09665-19.57558-8.00553-19.668-19.40382q-.1983-24.46162-.01436-48.926c.06906-11.7243,8.16333-19.68453,19.86634-19.71075q24.21348-.05426,48.42714.003c11.564.03459,19.45592,7.87633,19.49716,19.407q.08838,24.71252-.00342,49.42554c-.046,11.24509-7.92062,19.10235-19.17885,19.20763C159.824,260.27028,151.669,260.2089,143.51465,260.20685Zm-40.75743-43.96664c0,8.49108-.09241,16.98346.02532,25.47291.12407,8.94618,5.05109,14.80594,13.93412,15.01885q26.70265.64,53.42983.015c8.51716-.19422,13.71747-6.111,13.80148-14.67884q.25219-25.72039.00023-51.44473c-.09877-9.52413-5.8418-15.09671-15.44287-15.17245q-24.97219-.197-49.94688-.00506c-10.24641.08236-15.66379,5.61759-15.782,15.82074C102.68,199.59014,102.75679,207.91562,102.75722,216.24021Z" transform="translate(-80 -152)"/>
    <path d="M102.757,216.24021c-.00021-8.32459-.077-16.65007.01941-24.97354.11825-10.20315,5.53563-15.73838,15.782-15.82074q24.97209-.20073,49.94688.00506c9.60107.07574,15.3441,5.64832,15.44287,15.17245q.26674,25.72011-.00023,51.44473c-.084,8.56786-5.28432,14.48462-13.80148,14.67884q-26.70378.609-53.42983-.015c-8.883-.21291-13.81005-6.07267-13.93412-15.01885C102.66481,233.22367,102.75722,224.73129,102.757,216.24021Zm16.35528-.34661c-.07183,13.26985,11.27044,24.79056,24.33345,24.71622,12.8994-.07339,24.1755-11.4394,24.19672-24.38965.02126-12.96862-11.11941-24.22748-24.12788-24.38384C130.68938,191.68217,119.18194,203.02691,119.11228,215.8936Zm50.362-19.38642c3.02613-.08517,6.49654-3.74642,6.31976-6.66728-.1827-3.01876-4.21889-7.01272-6.78992-5.83947a12.34634,12.34634,0,0,0-5.91631,6.22377C162.092,192.84584,166.46539,196.59187,169.4743,196.50718Z" transform="translate(-80 -152)" style="fill: #fff"/>
    <path d="M119.11228,215.8936c.06966-12.86669,11.5771-24.21143,24.40229-24.05727,13.00847.15636,24.14914,11.41522,24.12788,24.38384-.02122,12.95025-11.29732,24.31626-24.19672,24.38965C130.38272,240.68416,119.04045,229.16345,119.11228,215.8936ZM143.254,237.21738c12.25665.01211,21.05806-8.739,21.06187-20.94142.00382-12.20539-8.88323-21.31125-20.8535-21.36694a20.94579,20.94579,0,0,0-21.18688,21.155C122.25264,228.2091,131.17465,237.20545,143.254,237.21738Z" transform="translate(-80 -152)"/>
    <path d="M169.4743,196.50718c-3.00891.08469-7.38226-3.66134-6.38647-6.283a12.34634,12.34634,0,0,1,5.91631-6.22377c2.571-1.17325,6.60722,2.82071,6.78992,5.83947C175.97084,192.76076,172.50043,196.422,169.4743,196.50718Zm-.31411-10.73008c-1.4578,1.94133-3.23662,3.34776-3.00473,4.219.38143,1.43292,2.06541,2.51911,3.20024,3.75149,1.04136-1.29024,2.64072-2.47158,2.92151-3.91027C172.4547,188.9279,170.66408,187.6344,169.16019,185.7771Z" transform="translate(-80 -152)"/>
    <path d="M143.254,237.21738c-12.07937-.01193-21.00138-9.00828-20.97851-21.15331a20.94579,20.94579,0,0,1,21.18688-21.155c11.97027.05569,20.85732,9.16155,20.8535,21.36694C164.31208,228.47842,155.51067,237.22949,143.254,237.21738ZM157.935,216.285c.08816-7.43824-7.37-15.0426-14.67076-14.95837-7.16711.08268-14.37279,7.37868-14.4813,14.6628-.1113,7.47162,6.68824,14.534,14.167,14.71467C150.66575,230.89043,157.84377,223.98352,157.935,216.285Z" transform="translate(-80 -152)" style="fill: #fff"/>
    <path d="M169.16019,185.7771c1.50389,1.8573,3.29451,3.1508,3.117,4.06018-.28079,1.43869-1.88015,2.62-2.92151,3.91027-1.13483-1.23238-2.81881-2.31857-3.20024-3.75149C165.92357,189.12486,167.70239,187.71843,169.16019,185.7771Z" transform="translate(-80 -152)" style="fill: #fff"/>
    <path d="M157.935,216.285c-.09124,7.69856-7.26926,14.60547-14.98508,14.4191-7.47874-.18064-14.27828-7.24305-14.167-14.71467.10851-7.28412,7.31419-14.58012,14.4813-14.6628C150.565,201.24236,158.02317,208.84672,157.935,216.285Zm-14.41476,11.27171a11.25327,11.25327,0,0,0,11.34635-11.39973,11.47289,11.47289,0,0,0-11.89615-11.4521,11.30735,11.30735,0,0,0-11.01619,11.73882A11.094,11.094,0,0,0,143.52025,227.55667Z" transform="translate(-80 -152)"/>
    <path d="M143.52025,227.55667a11.094,11.094,0,0,1-11.566-11.113,11.30735,11.30735,0,0,1,11.01619-11.73882,11.47289,11.47289,0,0,1,11.89615,11.4521A11.25327,11.25327,0,0,1,143.52025,227.55667Z" transform="translate(-80 -152)" style="fill: #fff"/>
  </g>
</svg>
