<svg id="Layer_1" data-name="Layer 1" xmlns="http://www.w3.org/2000/svg" viewBox="0 0 102.4 102.4">
  <g>
    <path d="M143.0093,165h1.5876c.96489,1.56272,2.25856,3.01577,2.82421,4.71165,1.08009,3.23821,3.178,3.8722,6.31964,3.81882,10.30525-.17508,20.6161-.13693,30.92337-.03556,6.7938.06682,9.90532,3.2545,9.92227,10.06452q.06951,27.95106.00042,55.90239c-.01635,6.75276-3.14425,9.98191-9.88207,10.16579-5.2824.14416-10.57177.03352-15.858.03489-4.04789.001-8.09579.00021-12.41855.00021.41349,2.72489.3295,4.9821,1.15229,6.83711.89995,2.029,2.572,3.74168,4.03557,5.4848a33.77252,33.77252,0,0,0,3.04561,2.86576c-1.329.57575-2.65232,1.63522-3.988,1.65111-11.23177.13367-22.46582.08244-33.69914.06444a6.82145,6.82145,0,0,1-2.70538-.3253,2.4524,2.4524,0,0,1-1.27253-1.73689,2.21959,2.21959,0,0,1,1.114-1.79681c6.8806-1.84026,6.10484-7.5338,6.95835-13.04473-9.282,0-18.11033-.09411-26.93535.03531-5.29345.07762-9.26-1.63766-11.13358-6.90526V180.08217c1.99415-4.87726,5.62517-6.79175,10.86537-6.67571,9.351.20707,18.72357-.24264,28.05974.18288,4.75885.2169,7.77039-.93844,9.14956-5.65525A11.94992,11.94992,0,0,1,143.0093,165Zm47.36586,63.34967c0-15.65413.04676-30.9635-.04653-46.272a4.02757,4.02757,0,0,0-4.236-4.343c-11.32876-.06624-22.65813-.02793-34.41058-.02793.76631,1.69581,1.30934,3.01008,1.942,4.27967,4.77081,9.57342,9.57578,19.12985,14.33445,28.70928,2.05077,4.1283,1.44988,5.0635-3.2662,5.071q-21.02877.03345-42.05763-.00411c-4.37158-.01-4.99621-1.04008-3.04608-4.96528,4.81786-9.69735,9.68788-19.36878,14.52242-29.05786.6069-1.21632,1.12655-2.47618,1.84514-4.06674-10.92573,0-21.23714-.00481-31.54854.00182-6.13845.00394-7.22157,1.04519-7.229,7.06083q-.02463,19.83849-.00519,39.677v3.93726Zm-.38128,4.56659H97.40165c-.08834,1.30858-.20571,2.34172-.22044,3.37632-.12147,8.534.37386,9.03813,8.78725,9.0383,24.71382.00047,49.42779-.04958,74.14138.02519,9.60313.02906,10.716.6797,10.26815-11.10261A6.717,6.717,0,0,0,189.99388,232.91626Zm-65.92219-21.66118h39.47352l-19.75352-39.4303Zm30.43025,50.9775c-.7176-3.735-1.27475-7.07812-2.05307-10.36893-.19055-.80571-1.08538-2.03961-1.68942-2.0592-5.09554-.16533-10.19876-.09429-15.02188-.09429-.98338,4.54592-1.83067,8.4627-2.70888,12.52242Z" transform="translate(-93 -165)"/>
    <path d="M93,242.79225c1.8736,5.2676,5.84013,6.98288,11.13358,6.90526,8.825-.12942,17.65331-.03531,26.93535-.03531-.85351,5.51093-.07775,11.20447-6.95835,13.04473a2.21959,2.21959,0,0,0-1.114,1.79681,2.4524,2.4524,0,0,0,1.27253,1.73689,6.82145,6.82145,0,0,0,2.70538.3253c11.23332.018,22.46737.06923,33.69914-.06444,1.33571-.01589,2.659-1.07536,3.988-1.65111a33.77252,33.77252,0,0,1-3.04561-2.86576c-1.46352-1.74312-3.13562-3.45581-4.03557-5.4848-.82279-1.855-.7388-4.11222-1.15229-6.83711,4.32276,0,8.37066.00083,12.41855-.00021,5.28628-.00137,10.57565.10927,15.858-.03489,6.73782-.18388,9.86572-3.413,9.88207-10.16579q.06771-27.95108-.00042-55.90239c-.017-6.81-3.12847-9.9977-9.92227-10.06452-10.30727-.10137-20.61812-.13952-30.92337.03556-3.1416.05338-5.23955-.58061-6.31964-3.81882-.56565-1.69588-1.85932-3.14893-2.82421-4.71165H195.4V267.4L93,267.4Q93,255.09613,93,242.79225Z" transform="translate(-93 -165)" style="fill: #fff"/>
    <path d="M143.0093,165a11.94992,11.94992,0,0,0-1.93463,2.93409c-1.37917,4.71681-4.39071,5.87215-9.14956,5.65525-9.33617-.42552-18.70875.02419-28.05974-.18288-5.2402-.116-8.87122,1.79845-10.86537,6.67571V165Z" transform="translate(-93 -165)" style="fill: #fff"/>
    <path d="M190.37516,228.34967H97.17344v-3.93726q0-19.83852.00519-39.677c.00746-6.01564,1.09058-7.05689,7.229-7.06083,10.3114-.00663,20.62281-.00182,31.54854-.00182-.71859,1.59056-1.23824,2.85042-1.84514,4.06674-4.83454,9.68908-9.70456,19.36051-14.52242,29.05786-1.95013,3.9252-1.3255,4.95529,3.04608,4.96528q21.02873.048,42.05763.00411c4.71608-.0075,5.317-.9427,3.2662-5.071-4.75867-9.57943-9.56364-19.13586-14.33445-28.70928-.63269-1.26959-1.17572-2.58386-1.942-4.27967,11.75245,0,23.08182-.03831,34.41058.02793a4.02757,4.02757,0,0,1,4.236,4.343C190.42192,197.38617,190.37516,212.69554,190.37516,228.34967Z" transform="translate(-93 -165)" style="fill: #fff"/>
    <path d="M189.99388,232.91626a6.717,6.717,0,0,1,.38411,1.3372c.44783,11.78231-.665,11.13167-10.26815,11.10261-24.71359-.07477-49.42756-.02472-74.14138-.02519-8.41339-.00017-8.90872-.50427-8.78725-9.0383.01473-1.0346.1321-2.06774.22044-3.37632Zm-45.12089,1.404-1.88156-.05572c-1.08681,1.61326-3.05575,3.2603-2.99562,4.82961.053,1.38294,2.34623,3.69351,3.699,3.72893,1.36042.03562,3.78233-2.13744,3.91078-3.51334C147.75169,237.74529,145.87208,235.99169,144.873,234.3203Z" transform="translate(-93 -165)" style="fill: #fff"/>
    <path d="M124.07169,211.25508l19.72-39.4303,19.75352,39.4303Zm17.59507-23.18249-.01486,0a65.56749,65.56749,0,0,0,.092,7.49573c.11989,1.03668,1.25359,1.95612,1.9264,2.92886.75875-.88409,2.13661-1.743,2.17369-2.65643.20818-5.127.18707-10.27065-.00111-15.3996-.03251-.88614-1.24131-1.72912-1.90676-2.592-.75646.90586-2.03952,1.74438-2.16565,2.73084A59.42584,59.42584,0,0,0,141.66676,188.07259Z" transform="translate(-93 -165)" style="fill: #fff"/>
    <path d="M154.50194,262.23258H133.02869c.87821-4.05972,1.7255-7.9765,2.70888-12.52242,4.82312,0,9.92634-.071,15.02188.09429.604.01959,1.49887,1.25349,1.68942,2.0592C153.22719,255.15446,153.78434,258.49758,154.50194,262.23258Z" transform="translate(-93 -165)" style="fill: #fff"/>
    <path d="M144.873,234.3203c.99909,1.67139,2.8787,3.425,2.73264,4.98948-.12845,1.3759-2.55036,3.549-3.91078,3.51334-1.35281-.03542-3.64605-2.346-3.699-3.72893-.06013-1.56931,1.90881-3.21635,2.99562-4.82961Z" transform="translate(-93 -165)"/>
    <path d="M141.66676,188.07259a59.42584,59.42584,0,0,1,.10373-7.4926c.12613-.98646,1.40919-1.825,2.16565-2.73084.66545.86291,1.87425,1.70589,1.90676,2.592.18818,5.129.20929,10.27256.00111,15.3996-.03708.91338-1.41494,1.77234-2.17369,2.65643-.67281-.97274-1.80651-1.89218-1.9264-2.92886a65.56749,65.56749,0,0,1-.092-7.49573Z" transform="translate(-93 -165)"/>
  </g>
</svg>
