<svg xmlns="http://www.w3.org/2000/svg" viewBox="0 0 40 39.15"><g data-name="Layer 2"><g><path class="cls-1" d="M40,19.53V3a3,3,0,0,0-3-3H12.22a3,3,0,0,0-3,3.07V18.25c0,.17,0,.22-.21.22h-6A3,3,0,0,0,0,21.53V34.74a4.91,4.91,0,0,0,.09.94,4.29,4.29,0,0,0,3.82,3.43c.68.06,1.36,0,2.05,0l7.65,0,13.64,0,9,0A7.48,7.48,0,0,0,37.57,39,3,3,0,0,0,40,36.06V19.53ZM9.25,33.4a3.5,3.5,0,0,1-3.53,3.53H4.31a2.11,2.11,0,0,1-2.13-2.14V21.58a.79.79,0,0,1,.91-.91H9c.16,0,.21,0,.21.21Zm27.61,3.45-17.14,0-9.23,0h-.26a5.9,5.9,0,0,0,.92-1.73,5.7,5.7,0,0,0,.28-1.69V3.11c0-.62.29-.91.92-.91H37.06a.79.79,0,0,1,.72.74v.19q0,12,0,24.09c0,2.9,0,5.79,0,8.68C37.82,36.58,37.55,36.85,36.86,36.85Z"/><path class="cls-1" d="M35.68,7.85c-2,.14-4,.31-6,.63a32.52,32.52,0,0,0-5.83,1.46,16,16,0,0,0-5.34,3,9.29,9.29,0,0,0-3.28,7.17,12.05,12.05,0,0,0,1.29,5.39.54.54,0,0,1,.06.31,21.36,21.36,0,0,0-.23,2.26c0,1,0,1.92,0,2.88a1.09,1.09,0,1,0,2.18-.12,27.26,27.26,0,0,1,.12-3.94c0-.34,0-.34.38-.32a9.58,9.58,0,0,0,7-2.43,10.34,10.34,0,0,0,2.5-3.29,1.11,1.11,0,0,0-.35-1.45l-.72-.55,1.91-.68c1.23-.45,1-.24,1.73-1.25L36.69,9.7A1.21,1.21,0,0,0,37,9,1.12,1.12,0,0,0,35.68,7.85ZM17.55,21.76a1.34,1.34,0,0,1-.1-.43c0-.14,0-.29-.05-.44a7.31,7.31,0,0,1,3-6.66,15.45,15.45,0,0,1,4.73-2.41c.49-.16,1-.3,1.49-.45a.33.33,0,0,1,.2,0A19.29,19.29,0,0,0,17.55,21.76ZM31.8,12.41,29.17,15.8a.52.52,0,0,1-.28.2l-4,1.44a1.1,1.1,0,0,0-.31,2L26,20.53c.1.07.13.12.05.24a7.69,7.69,0,0,1-4.95,3.47,8.52,8.52,0,0,1-1.89.15c-.15,0-.15-.05-.12-.17a16.24,16.24,0,0,1,3.5-6.78,19.78,19.78,0,0,1,6.3-4.69,29.51,29.51,0,0,1,3.64-1.48.22.22,0,0,1,.2,0Z"/></g></g></svg>