<svg xmlns="http://www.w3.org/2000/svg" viewBox="0 0 36.56 40"><g data-name="Layer 2"><g><path class="cls-1" d="M36.56,6.81a3.75,3.75,0,0,0-3.8-3.74H27.92c-.15,0-.19,0-.19-.2,0-.35,0-.71,0-1.06A1.81,1.81,0,0,0,25.89,0h-2a1.8,1.8,0,0,0-1.78,1.56,10.11,10.11,0,0,0,0,1.35c0,.11,0,.17-.15.17H14.65c-.13,0-.15,0-.15-.16,0-.37,0-.74,0-1.1A1.81,1.81,0,0,0,12.64,0h-2A1.8,1.8,0,0,0,8.85,1.55a8.17,8.17,0,0,0,0,1.31c0,.19-.06.22-.23.22H3.78A3.8,3.8,0,0,0,3,3.13,3.74,3.74,0,0,0,0,6.84V36.26A3.73,3.73,0,0,0,3.74,40H30.68a1.19,1.19,0,0,0,.89-.37L36.2,35a1.16,1.16,0,0,0,.36-.86Q36.54,20.45,36.56,6.81ZM24.36,2.17h1.07c.12,0,.16,0,.16.15,0,.48,0,1,0,1.44s0,1,0,1.43c0,.13,0,.16-.16.16H24.36c-.13,0-.16,0-.16-.16,0-1,0-1.91,0-2.87C24.2,2.19,24.24,2.16,24.36,2.17ZM11,3.75V2.32c0-.11,0-.16.14-.15H12.2c.11,0,.15,0,.15.14V5.2c0,.13,0,.15-.16.15h-1c-.13,0-.17,0-.17-.17C11,4.71,11,4.23,11,3.75ZM2.14,6.94a1.64,1.64,0,0,1,1.7-1.71c1.59,0,3.19,0,4.78,0,.17,0,.21,0,.2.22a1.9,1.9,0,0,0,.61,1.6,1.72,1.72,0,0,0,1.2.46h2A1.81,1.81,0,0,0,14.5,5.73V5.65c0-.41,0-.41.41-.41h6.93c.18,0,.23,0,.22.23a1.85,1.85,0,0,0,.68,1.65,1.61,1.61,0,0,0,1.07.4H26a1.82,1.82,0,0,0,1.76-1.8c0-.15,0-.35,0-.44s.29,0,.44,0c1.5,0,3,0,4.49,0A1.64,1.64,0,0,1,34.42,7c0,1.32,0,2.63,0,4,0,.19-.05.24-.23.24H2.39c-.2,0-.26,0-.25-.25C2.15,9.58,2.16,8.26,2.14,6.94ZM34.42,31.46c0,.19,0,.25-.24.25H30a1.08,1.08,0,0,0-1.19,1.2v4.71c0,.16,0,.23-.21.23H3.83a1.59,1.59,0,0,1-1.69-1.69V13.54c0-.22.06-.25.26-.25H34.18c.19,0,.24,0,.24.24Z"/><path class="cls-1" d="M27.78,16.05a7,7,0,0,0-3.4-2,4,4,0,0,0-2.77.17,4.42,4.42,0,0,0-2.3,2.59,15.66,15.66,0,0,0-.94,5.11,8.89,8.89,0,0,1-.69,3.22A8.33,8.33,0,0,0,17,28.41a4.84,4.84,0,0,0,0,.74,4,4,0,0,0,3,3.45,3.87,3.87,0,0,0,4.32-1.27,8.48,8.48,0,0,0,1.45-2.57c.66-1.65,1.28-3.31,2-5a24,24,0,0,0,1.13-2.91A4.8,4.8,0,0,0,27.78,16.05Zm-2.29,7.59c-.62,1.39-1.11,2.84-1.68,4.25A9.26,9.26,0,0,1,23,29.58a2.2,2.2,0,0,1-1.28,1,2,2,0,0,1-2.49-1.65,5.43,5.43,0,0,1,.43-2.81,10.81,10.81,0,0,0,.86-3.29c.05-.59.07-1.19.1-1.78,0-.19,0-.38.07-.6A1.14,1.14,0,0,0,22,20.36c.38-.27.78-.52,1.17-.79.12-.08.15-.07.21.06.36.94.74,1.88,1.1,2.82a1.13,1.13,0,0,0,1.14.8C25.6,23.38,25.55,23.51,25.49,23.64Zm1.38-3.58a7.34,7.34,0,0,1-.46,1.34c-.24-.62-.48-1.21-.71-1.8s-.55-1.38-.82-2.07A1.07,1.07,0,0,0,23.16,17l-2.11,1.42a5.58,5.58,0,0,1,.5-1.3,1.87,1.87,0,0,1,2.29-1A5.18,5.18,0,0,1,26,17.37,2.61,2.61,0,0,1,26.87,20.06Z"/><path class="cls-1" d="M17,29.93a8.56,8.56,0,0,1-.3-3.1,20.11,20.11,0,0,0,.15-2.33,16.31,16.31,0,0,0-.08-1.71,8.43,8.43,0,0,0-.49-2.32,4,4,0,0,0-4.07-2.67,7,7,0,0,0-2.85.8,5,5,0,0,0-2.77,5.89c.31,1.43.69,2.85,1.06,4.26.31,1.21.51,2.44.84,3.65A8.76,8.76,0,0,0,9.51,35a3.91,3.91,0,0,0,3.26,1.86A4.08,4.08,0,0,0,17,33.64,7.64,7.64,0,0,0,17,29.93Zm-8-4.66c-.09-.38-.18-.72-.26-1.06a4.61,4.61,0,0,1-.11-1.48,2.33,2.33,0,0,1,.78-1.56A4.75,4.75,0,0,1,12.47,20a1.73,1.73,0,0,1,1.56.89,3.8,3.8,0,0,1,.48,1.55L13.05,21a1.07,1.07,0,0,0-1.29-.2,1.27,1.27,0,0,0-.45.47l-2.25,3.8Zm6,7.91a1.89,1.89,0,0,1-1.66,1.48,1.86,1.86,0,0,1-2-.88,6.17,6.17,0,0,1-.79-2c-.28-1.13-.52-2.27-.79-3.41-.1-.41-.21-.81-.32-1.25a1.14,1.14,0,0,0,1.33-.62c.54-.95,1.11-1.88,1.66-2.82.08-.14.13-.19.26,0s.35.36.53.54a1.06,1.06,0,0,0,1.41.21l.09,0c0,.45,0,.88-.06,1.31a15.66,15.66,0,0,0-.11,2.82,22,22,0,0,0,.43,2.29A5.35,5.35,0,0,1,14.92,33.18Z"/></g></g></svg>