<svg xmlns="http://www.w3.org/2000/svg" viewBox="0 0 37.42 40"><g data-name="Layer 2"><g><path class="cls-1" d="M33.67,14c0,.11-.1.14-.15.2Q28.63,19,23.75,23.92a1.1,1.1,0,1,0,1.55,1.56L36.39,14.41c.23-.22.46-.45.68-.68a1.09,1.09,0,0,0,0-1.61L25.29.37a1.1,1.1,0,0,0-1.6,0,1.12,1.12,0,0,0,0,1.62l9.64,9.62.18.19h-.37c-2.74-.07-5.49-.11-8.23,0a61.06,61.06,0,0,0-8.33.71,24.31,24.31,0,0,0-6.41,1.92A14.77,14.77,0,0,0,3.1,21.59a27.6,27.6,0,0,0-2,6.41,58.56,58.56,0,0,0-.88,7C.11,36.28,0,37.58,0,38.87A1.09,1.09,0,0,0,1.13,40a1.07,1.07,0,0,0,1.06-1c.05-.77.08-1.53.12-2.29.1-1.91.26-3.81.52-5.7A35.37,35.37,0,0,1,4.15,25a16.1,16.1,0,0,1,2.69-5.22,12.68,12.68,0,0,1,5.73-4,25.34,25.34,0,0,1,5.22-1.27,69.23,69.23,0,0,1,9.54-.59c2,0,4.08,0,6.12.08Z"/></g></g></svg>