<svg version="1.1" xmlns="http://www.w3.org/2000/svg" xmlns:xlink="http://www.w3.org/1999/xlink" x="0px" y="0px"
	 viewBox="0 0 48 48" style="enable-background:new 0 0 48 48;" xml:space="preserve">
<g>
	<path d="M17.5,24.1c5.8,0,10.5-4.7,10.5-10.5c0-5.8-4.7-10.5-10.5-10.5S7,7.8,7,13.6C7,19.4,11.7,24.1,17.5,24.1z M17.5,6.2
		c4.1,0,7.4,3.3,7.4,7.4c0,4.1-3.3,7.4-7.4,7.4s-7.4-3.3-7.4-7.4C10.1,9.5,13.4,6.2,17.5,6.2z"/>
	<path d="M36.5,22c3.7,0,6.7-2.8,6.7-6.3s-3-6.3-6.7-6.3s-6.7,2.8-6.7,6.3S32.8,22,36.5,22z M36.5,11.3c2.6,0,4.7,2,4.7,4.4
		c0,2.4-2.1,4.4-4.7,4.4s-4.7-2-4.7-4.4C31.8,13.2,33.9,11.3,36.5,11.3z"/>
	<path d="M36.5,24.2c-4.5,0-8.2,2.7-9.7,6.5c-2.6-1.8-5.8-2.9-9.3-2.9C8.3,27.8,1,35.3,1,44.9h3.1c0-8,5.8-14,13.4-14
		s13.4,6,13.4,14H34c0-5.3-2.2-9.9-5.6-13c1-3.5,4.2-5.9,8.1-5.9c4.8,0,8.5,3.6,8.5,8.4h2C47,28.7,42.4,24.2,36.5,24.2z"/>
</g>
</svg>
