<svg version="1.1" xmlns="http://www.w3.org/2000/svg" xmlns:xlink="http://www.w3.org/1999/xlink" x="0px" y="0px"
	 viewBox="0 0 48 48" style="enable-background:new 0 0 48 48;" xml:space="preserve">
<g>
	<path d="M19.4,24.1c6.5,0,11.7-5.2,11.7-11.6C31.2,6.2,25.9,1,19.4,1C12.9,1,7.7,6.2,7.7,12.6C7.7,18.9,12.9,24.1,19.4,24.1z
		 M19.4,4.4c4.6,0,8.3,3.7,8.3,8.2c0,4.5-3.7,8.2-8.3,8.2c-4.6,0-8.3-3.7-8.3-8.2C11.1,8.1,14.8,4.4,19.4,4.4z"/>
	<path d="M19.4,28.2C9.1,28.2,1,36.5,1,47h3.5c0-8.8,6.4-15.4,15-15.4c2.6,0,4.9,0.6,7,1.7c2.1,0,3.9-0.1,5.6-0.1
		C28.8,30.1,24.4,28.2,19.4,28.2z"/>
	<path d="M46,35.5h-5.9v-5.9c0-0.6-0.4-1-1-1h-2.6c-0.6,0-1,0.4-1,1v5.9h-5.9c-0.6,0-1,0.4-1,1v2.6c0,0.6,0.4,1,1,1h5.9V46
		c0,0.6,0.4,1,1,1h2.6c0.6,0,1-0.4,1-1v-5.9H46c0.6,0,1-0.4,1-1v-2.6C47,35.9,46.6,35.5,46,35.5z"/>
</g>
</svg>
