<svg version="1.1" xmlns="http://www.w3.org/2000/svg" xmlns:xlink="http://www.w3.org/1999/xlink" x="0px" y="0px"
	 viewBox="0 0 50 50" style="enable-background:new 0 0 50 50;" xml:space="preserve">
<g>
	<path d="M47.1,46.1h-1V18.3c0-0.5-0.4-1-1-1h-5.8c-0.5,0-1,0.4-1,1v27.8h-3.7V29.8c0-0.5-0.4-1-1-1h-5.8c-0.5,0-1,0.4-1,1v16.3
		h-3.7V26c0-0.6-0.4-1-1-1h-5.8c-0.5,0-1,0.4-1,1v20.1h-3.6V35.6c-0.1-0.6-0.5-1-1.1-1H4.9c-0.5,0-1,0.4-1,1v10.5H3
		c-0.5,0-1,0.4-1,1c0,0.5,0.4,1,1,1h1.9h5.8h5.6h5.8h5.7h5.8h5.7h5.8h2c0.5,0,1-0.4,1-1C48,46.5,47.6,46.1,47.1,46.1z M5.8,46.1
		v-9.6h3.8v9.6H5.8z M17.4,46.1V26.9h3.8v19.2H17.4z M28.9,46.1V30.8h3.8v15.3H28.9z M40.4,46.1V19.3h3.8v26.8H40.4z"/>
	<path d="M7.8,26.9c2.1,0,3.8-1.7,3.8-3.8c0-0.7-0.2-1.3-0.5-1.9l5.9-4.7c0.6,0.5,1.4,0.8,2.3,0.8c1.4,0,2.6-0.7,3.2-1.9l4.5,1.3
		c0,0.2-0.1,0.4-0.1,0.5c0,2.1,1.7,3.8,3.8,3.8s3.8-1.7,3.8-3.8c0-0.7-0.2-1.3-0.5-1.9L40.3,9c0.6,0.3,1.2,0.5,1.9,0.5
		c2.1,0,3.8-1.7,3.8-3.8s-1.7-3.8-3.8-3.8s-3.8,1.7-3.8,3.8c0,0.7,0.2,1.3,0.5,1.9L32.7,14c-0.6-0.3-1.2-0.5-1.9-0.5
		c-1.2,0-2.3,0.6-3,1.4l-4.7-1.4c0,0,0,0,0-0.1c0-2.1-1.7-3.8-3.8-3.8s-3.8,1.7-3.8,3.8c0,0.5,0.1,1.1,0.3,1.5l-6,4.8
		c-0.6-0.4-1.3-0.6-2-0.6C5.7,19.3,4,21,4,23.1S5.7,26.9,7.8,26.9z M42.3,4c1.1,0,1.9,0.9,1.9,1.9s-0.9,1.9-1.9,1.9
		c-1.1,0-1.9-0.9-1.9-1.9C40.4,4.8,41.3,4,42.3,4z M30.8,15.5c1.1,0,1.9,0.9,1.9,1.9s-0.9,1.9-1.9,1.9c-1.1,0-1.9-0.9-1.9-1.9
		C28.9,16.3,29.8,15.5,30.8,15.5z M19.3,11.6c1.1,0,1.9,0.9,1.9,1.9c0,0.1,0,0.1,0,0.2C21.1,13.8,21,13.9,21,14s0,0.2,0,0.4
		c-0.3,0.6-1,1-1.7,1c-1.1,0-1.9-0.9-1.9-1.9C17.4,12.4,18.3,11.6,19.3,11.6z M7.8,21.2c1.1,0,1.9,0.9,1.9,1.9
		c0,1.1-0.9,1.9-1.9,1.9c-1.1,0-1.9-0.9-1.9-1.9C5.9,22,6.8,21.2,7.8,21.2z"/>
</g>
</svg>
