<svg version="1.1" xmlns="http://www.w3.org/2000/svg" xmlns:xlink="http://www.w3.org/1999/xlink" x="0px" y="0px"
	 viewBox="0 0 48 48" style="enable-background:new 0 0 48 48;" xml:space="preserve">
<g>
	<path d="M37.8,29.2c-1.6-1.6-4.1-1.6-5.7,0l-2.6,2.6c-1.2,1.2-3.1,1.2-4.3,0c0,0,0,0,0,0l-9-9c-1.2-1.2-1.2-3.1,0-4.3l2.6-2.6
		c1.6-1.6,1.6-4.1,0-5.7L13,4.4c-1.6-1.6-4.1-1.6-5.7,0c0,0-1.9,1.9-1.9,1.9c-5.6,5.1-6.2,14.8-0.2,20.8l15.6,15.6
		c5.4,5.4,14.7,6,20.8-0.2c0,0,0,0,0,0l1.9-1.9c1.6-1.6,1.6-4.1,0-5.7L37.8,29.2z M9.2,6.3c0.5-0.5,1.4-0.5,1.9,0l5.7,5.7
		c0.5,0.5,0.5,1.4,0,1.9l-1,1L8.3,7.3L9.2,6.3z M22.8,40.8L7.1,25.2c-4.4-4.4-4.6-11.3-0.7-16l7.6,7.6c-2,2.3-1.9,5.7,0.3,7.9l9,9
		c2.2,2.2,5.6,2.3,7.9,0.3l7.6,7.6C34.1,45.4,27.2,45.2,22.8,40.8z M41.7,38.7l-1,1l-7.6-7.6l1-1c0.5-0.5,1.4-0.5,1.9,0l5.7,5.7
		C42.2,37.4,42.2,38.2,41.7,38.7z"/>
	<path d="M42.9,1H26.7c-2.2,0-4,1.8-4,4v10.8c0,2.2,1.8,4,4,4h1.3v4c0,1.2,1.5,1.8,2.3,1l5-5h7.5c2.2,0,4-1.8,4-4V5
		C47,2.8,45.2,1,42.9,1z M44.3,15.8L44.3,15.8c0,0.7-0.6,1.3-1.3,1.3h-8.1c-0.4,0-0.7,0.1-1,0.4l-3.1,3.1v-2.1
		c0-0.7-0.6-1.3-1.3-1.3h-2.7c-0.7,0-1.3-0.6-1.3-1.3V5c0-0.7,0.6-1.3,1.3-1.3h16.2c0.7,0,1.3,0.6,1.3,1.3V15.8z"/>
	<path d="M40.2,6.4H29.4c-0.7,0-1.3,0.6-1.3,1.3c0,0.7,0.6,1.3,1.3,1.3h10.8c0.7,0,1.3-0.6,1.3-1.3C41.6,7,41,6.4,40.2,6.4z"/>
	<path d="M34.8,11.8h-5.4c-0.7,0-1.3,0.6-1.3,1.3c0,0.7,0.6,1.3,1.3,1.3h5.4c0.7,0,1.3-0.6,1.3-1.3C36.2,12.4,35.6,11.8,34.8,11.8z"
		/>
</g>
</svg>
