<svg version="1.1" xmlns="http://www.w3.org/2000/svg" xmlns:xlink="http://www.w3.org/1999/xlink" x="0px" y="0px"
	 viewBox="0 0 48 48" style="enable-background:new 0 0 48 48;" xml:space="preserve">
<g>
	<path d="M46.5,15.9c-0.4-0.5-1-0.8-1.7-0.8h-2.1l0.7-4.6c0.1-0.7-0.1-1.3-0.5-1.8C42.5,8.3,42,8,41.3,8H38l0.7-4.5
		c0.1-0.7-0.1-1.3-0.5-1.8c-0.4-0.5-1-0.8-1.6-0.8h-25c-0.6,0-1.2,0.3-1.6,0.8C9.5,2.3,9.3,2.9,9.4,3.6L10.1,8H6.7
		C6.1,8,5.5,8.3,5.1,8.8C4.7,9.3,4.5,10,4.6,10.6l0.7,4.5H3.2c-0.6,0-1.2,0.3-1.7,0.8C1.1,16.4,0.9,17,1,17.6L3.5,44c0,0,0,0,0,0.1
		C3.7,45.7,5.1,47,6.7,47h34.6c1.7,0,3.1-1.3,3.2-3L47,17.6C47.1,17,46.9,16.4,46.5,15.9z M12.8,4.3h22.5L34.7,8H13.3L12.8,4.3z
		 M8,11.3h32.1l-0.6,3.8h-31L8,11.3z M41.3,43.7C41.3,43.7,41.3,43.7,41.3,43.7l-34.6,0c0,0,0,0,0-0.1L4.3,18.4h39.4L41.3,43.7z"/>
	<path d="M17.3,28.9h13.5c0.9,0,1.6-0.7,1.6-1.7c0-0.9-0.7-1.7-1.6-1.7H17.3c-0.9,0-1.6,0.7-1.6,1.7C15.6,28.1,16.4,28.9,17.3,28.9z
		"/>
</g>
</svg>
