<svg preserveAspectRatio="xMidYMid meet" viewBox="0 0 512 512" xmlns="http://www.w3.org/2000/svg"><g transform="matrix(.1 0 0 -.1 0 512)"><path d="m199 4596c-59-21-106-54-139-99-63-86-61-36-58-1223l3-1079 28-57c32-66 92-120 157-143 30-11 83-15 181-15h138l3-411 3-411 37-34c42-38 89-45 136-20 15 8 220 208 457 445l430 431h98c111 0 148 13 172 60 8 16 15 42 15 58 0 41-39 95-80 109-43 15-242 17-290 3-27-8-118-93-387-362l-353-353v315c0 339-1 345-53 384-26 19-44 21-230 24-121 2-207 8-214 14-17 14-19 2088-3 2119 11 19 41 19 1753 19 1342 0 1746-3 1755-12s12-119 12-434v-421l23-34c47-70 147-70 195 1l23 34-3 451-3 450-30 53c-32 59-66 91-129 125l-41 22-1785 2c-1442 2-1792 0-1821-11z"/><path d="m824 3776c-29-29-34-41-34-79 0-56 34-102 88-117 26-8 383-10 1152-8 1046 3 1117 4 1141 21 33 22 49 57 49 108 0 33-7 48-34 75l-34 34h-1147-1147z"/><path d="m2324 3114c-58-21-120-77-152-138l-27-51-3-759c-2-655 0-766 13-811 20-69 87-144 157-176l53-24 785-3 785-3 315-314c207-206 324-316 343-320 63-16 123 16 146 78 7 17 11 129 11 291v263l76 6c128 11 208 61 262 162l27 50v775 775l-28 57c-16 32-46 73-69 92-81 70 6 66-1392 65-1078 0-1267-3-1302-15zm2544-236c9-9 12-186 12-734v-723l-22-15c-17-13-51-16-148-16-196 0-200-6-200-282v-192l-238 237-238 237h-805c-712 0-807 2-827 16l-22 15v723c0 548 3 725 12 734 17 17 2459 17 2476 0z"/><path d="m3002 2244c-35-24-55-72-49-117 18-133 208-134 233-2 8 43-20 101-57 120-37 20-99 19-127-1z"/><path d="m3568 2244c-58-31-74-107-35-165 57-85 188-61 214 39 3 13 0 42-6 63-21 69-106 100-173 63z"/><path d="m4123 2240c-36-21-60-82-50-122 26-100 157-124 214-39 73 108-52 230-164 161z"/><path d="m824 2976c-29-29-34-41-34-81s5-52 34-81l34-34h464c508 0 491-2 523 60 19 37 19 73 0 110-32 62-15 60-523 60h-464z"/></g></svg>