<svg preserveAspectRatio="xMidYMid meet" viewBox="0 0 128 128" xmlns="http://www.w3.org/2000/svg"><g transform="matrix(.1 0 0 -.1 0 128)"><path d="m165 1196c-103-46-124-181-40-255 41-36 72-45 125-38 77 10 130 74 130 155 0 43-28 93-71 125-34 25-105 31-144 13zm131-70c46-46 47-99 5-145-65-70-181-19-181 79 0 47 55 100 105 100 29 0 45-8 71-34z"/><path d="m890 862c-46-4-105-24-132-43-34-25-38-24-38 6v25h-130-130v-390-390h135 135v218c0 119 5 233 10 253 13 47 39 69 89 76 35 5 44 2 71-25l30-30v-246-246h141 141l-4 283c-4 233-7 291-22 335-20 62-71 123-123 147-37 18-128 32-173 27zm145-66c40-17 91-76 106-123 8-24 14-130 16-296l4-257h-90-91v214c0 128-4 226-11 243-26 69-95 103-171 82-100-26-118-78-118-346v-193h-85-85v340 340h80 80v-50c0-43 3-50 19-50 11 0 39 21 63 46 32 34 57 50 93 60 55 15 140 10 190-10z"/><path d="m90 460v-390h135 135v390 390h-135-135zm225 0v-335l-87-3-88-3v341 341l88-3 87-3z"/></g></svg>