<svg id="Layer_1" data-name="Layer 1" xmlns="http://www.w3.org/2000/svg" viewBox="0 0 128 128">
  <g>
    <path d="M80,152H208V280H80Zm45.81735,121.10689h27.30587c0-7.48162-.06185-14.295.01626-21.10669.08973-7.82473-.14215-15.69.59114-23.4599.70405-7.4599,4.66628-10.59709,11.03623-10.16363,5.54012.377,8.07274,3.47267,8.33166,10.93166.2601,7.49287.187,14.99795.21935,22.49785.03,6.95269.0064,13.90561.0064,21.02567h27.13266c0-17.89315.08206-35.51011-.08075-53.12481a30.58034,30.58034,0,0,0-1.766-8.7797c-3.138-9.84918-9.99709-15.35047-20.194-16.99024-9.315-1.49794-17.86637.07281-25.82979,6.2344-.3068-1.94882-.52483-3.33381-.74054-4.704h-26.0285Zm-9.722-77.63824H89.049V272.7873h27.04641Zm1.9963-21.04328A15.553,15.553,0,0,0,102.436,159.01716a15.75606,15.75606,0,0,0-15.52405,15.63755,15.51523,15.51523,0,0,0,16.0043,15.5493A15.28053,15.28053,0,0,0,118.09167,174.42537Z" transform="translate(-80 -152)" style="fill: #fff"/>
    <path d="M125.81735,273.10689V195.46745h26.0285c.21571,1.37024.43374,2.75523.74054,4.704,7.96342-6.16159,16.51481-7.73234,25.82979-6.2344,10.197,1.63977,17.05607,7.14106,20.194,16.99024a30.58034,30.58034,0,0,1,1.766,8.7797c.16281,17.6147.08075,35.23166.08075,53.12481H173.32426c0-7.12006.0236-14.073-.0064-21.02567-.03235-7.4999.04075-15.005-.21935-22.49785-.25892-7.459-2.79154-10.55468-8.33166-10.93166-6.37-.43346-10.33218,2.70373-11.03623,10.16363-.73329,7.7699-.50141,15.63517-.59114,23.4599-.07811,6.81173-.01626,13.62507-.01626,21.10669H125.81735Zm69.38046-5.17722c0-16.77491.42664-33.06987-.16486-49.32786-.33841-9.30135-4.9237-16.53021-14.741-19.12713-11.28765-2.98587-20.89974.04075-27.40442,8.30475-1.07954,1.37151-3.13425,1.9768-5.4657,3.37122-.23832-4.40548-.40455-7.4785-.57245-10.58225H131.03363v67.22409h16.46861a4.28869,4.28869,0,0,0,.46015-1.14855c.0507-8.99685-.01711-17.99564.15038-26.99008a100.91076,100.91076,0,0,1,.985-14.40841c.889-5.42328,4-9.45407,9.54241-11.1339,10.46344-3.17129,18.6951,2.021,19.32557,13,.66791,11.63089.38982,23.31563.5466,34.97656.02578,1.91728.16315,3.83306.25307,5.84158Z" transform="translate(-80 -152)"/>
    <path d="M116.09537,195.46865V272.7873H89.049V195.46865Zm-21.95713,72.29h16.83315V200.50772H94.13824Z" transform="translate(-80 -152)"/>
    <path d="M118.09167,174.42537A15.28053,15.28053,0,0,1,102.91623,190.204a15.51523,15.51523,0,0,1-16.0043-15.5493A15.75606,15.75606,0,0,1,102.436,159.01716,15.553,15.553,0,0,1,118.09167,174.42537Zm-5.05931.03724a10.57254,10.57254,0,0,0-10.54912-10.36986,10.75281,10.75281,0,0,0-10.49563,11.01264,10.561,10.561,0,0,0,10.88646,10.01883A10.34268,10.34268,0,0,0,113.03236,174.46261Z" transform="translate(-80 -152)"/>
    <path d="M195.19781,267.92967H178.76542c-.08992-2.00852-.22729-3.9243-.25307-5.84158-.15678-11.66093.12131-23.34567-.5466-34.97656-.63047-10.979-8.86213-16.17127-19.32557-13-5.54244,1.67983-8.65344,5.71062-9.54241,11.1339a100.91076,100.91076,0,0,0-.985,14.40841c-.16749,8.99444-.09968,17.99323-.15038,26.99008a4.28869,4.28869,0,0,1-.46015,1.14855H131.03363V200.5684h15.81575c.1679,3.10375.33413,6.17677.57245,10.58225,2.33145-1.39442,4.38616-1.99971,5.4657-3.37122,6.50468-8.264,16.11677-11.29062,27.40442-8.30475,9.8173,2.59692,14.40259,9.82578,14.741,19.12713C195.62445,234.8598,195.19781,251.15476,195.19781,267.92967Z" transform="translate(-80 -152)" style="fill: #fff"/>
    <path d="M94.13824,267.75864V200.50772h16.83315v67.25092Z" transform="translate(-80 -152)" style="fill: #fff"/>
    <path d="M113.03236,174.46261a10.34268,10.34268,0,0,1-10.15829,10.66161,10.561,10.561,0,0,1-10.88646-10.01883,10.75281,10.75281,0,0,1,10.49563-11.01264A10.57254,10.57254,0,0,1,113.03236,174.46261Z" transform="translate(-80 -152)" style="fill: #fff"/>
  </g>
</svg>
