<svg xmlns="http://www.w3.org/2000/svg" viewBox="0 0 40 40.02"><g data-name="Layer 2"><g><path d="M15.86,16.61a7.44,7.44,0,0,1,2.19-5.29c3-3,6-6.1,9.11-9.1A7.16,7.16,0,0,1,34.71.39a7.16,7.16,0,0,1,5.13,5.74,7.14,7.14,0,0,1-2,6.7c-2.85,2.91-5.75,5.76-8.62,8.64a9.07,9.07,0,0,1-2.46,1.9,6.32,6.32,0,0,1-.81.34,1.12,1.12,0,0,1-1.45-.65,1.11,1.11,0,0,1,.67-1.45,5.85,5.85,0,0,0,2.15-1.42q4.39-4.41,8.81-8.81a5.28,5.28,0,0,0-2.67-9A5.19,5.19,0,0,0,28.65,3.9l-8.92,8.91a5.28,5.28,0,0,0,1.11,8.44,1.12,1.12,0,0,1-.39,2.13,1,1,0,0,1-.64-.14A7.42,7.42,0,0,1,16,18,7,7,0,0,1,15.86,16.61Z"/><path d="M24.13,23.42a7.42,7.42,0,0,1-2.24,5.35l-9,9a7.52,7.52,0,0,1-12.75-4,7.25,7.25,0,0,1,2.06-6.61q4.52-4.58,9.09-9.09a7.16,7.16,0,0,1,3-1.84,1.12,1.12,0,0,1,.89,2,1.94,1.94,0,0,1-.3.13,5.39,5.39,0,0,0-2,1.26c-3,3-6.06,6-9.07,9.08A5,5,0,0,0,2.49,34a5,5,0,0,0,4,3.65,5,5,0,0,0,4.73-1.4q4.57-4.55,9.12-9.12a5.27,5.27,0,0,0,0-7.39,1.12,1.12,0,1,1,1.53-1.64A7.33,7.33,0,0,1,24,22.05,7,7,0,0,1,24.13,23.42Z"/></g></g></svg>