<svg id="Layer_1" data-name="Layer 1" xmlns="http://www.w3.org/2000/svg" viewBox="0 0 300 300">
  <g>
    <path d="M-6,66H294V366H-6Zm33.92724,99.12837c-31.71879,68.48213-.5545,131.40015,37.79947,159.91637,44.16326,32.83542,104.39608,34.61709,149.65384,3.65283,22.6704-15.51054,39.03208-36.1671,48.30777-62.02112,12.15143-33.86944,10.10184-67.31625-4.896-100.27446,14.14676-1.79268,22.06073-10.71032,26.11081-22.86155a133.29,133.29,0,0,0,5.98745-28.15184c.79725-7.65192-.39328-15.54836-1.1535-23.292-.14331-1.45991-2.34329-3.68162-3.71951-3.77886-1.30976-.09255-3.38843,1.86606-4.06546,3.39409-1.675,3.78027-2.64432,7.86577-4.07236,11.76446-3.08194,8.41378-6.00143,16.90358-9.51584,25.13671a14.42677,14.42677,0,0,1-13.23492,9.212c-7.04669.27661-14.80367,3.94376-20.09189-4.713-1.92227-3.14676-5.39421-5.38454-8.27821-7.90052-49.70757-43.36412-126.986-40.87-173.31632,6.09075-6.11034,6.19348-11.81881,8.16467-20.0378,6.87378-6.64611-1.04386-11.99581-3.34778-14.71332-9.53891-3.19854-7.287-5.87722-14.80878-8.60985-22.29137-1.76764-4.84021-3.0214-9.87588-4.94374-14.64738-.62858-1.56024-2.83579-3.735-3.96882-3.5436-1.63242.27577-3.1526,2.30151-4.31458,3.87948a6.77743,6.77743,0,0,0-.97292,3.80894c-.01085,8.95805-.933,18.07064.37992,26.8429C-.81636,142.211,5.54642,159.84865,27.92724,165.12837Z" transform="translate(6 -66)" style="fill: #fff"/>
    <path d="M27.92724,165.12837C5.54642,159.84865-.81636,142.211-3.73856,122.68613c-1.3129-8.77226-.39077-17.88485-.37992-26.8429a6.77743,6.77743,0,0,1,.97292-3.80894c1.162-1.578,2.68216-3.60371,4.31458-3.87948,1.133-.1914,3.34024,1.98336,3.96882,3.5436,1.92234,4.7715,3.1761,9.80717,4.94374,14.64738,2.73263,7.48259,5.41131,15.00436,8.60985,22.29137,2.71751,6.19113,8.06721,8.495,14.71332,9.53891,8.219,1.29089,13.92746-.6803,20.0378-6.87378,46.33028-46.96071,123.60875-49.45487,173.31632-6.09075,2.884,2.516,6.35594,4.75376,8.27821,7.90052,5.28822,8.65677,13.0452,4.98962,20.09189,4.713a14.42677,14.42677,0,0,0,13.23492-9.212c3.51441-8.23313,6.4339-16.72293,9.51584-25.13671,1.428-3.89869,2.39734-7.98419,4.07236-11.76446.677-1.528,2.7557-3.48664,4.06546-3.39409,1.37622.09724,3.5762,2.319,3.71951,3.77886.76022,7.74361,1.95075,15.64005,1.1535,23.292a133.29,133.29,0,0,1-5.98745,28.15184c-4.05008,12.15123-11.96405,21.06887-26.11081,22.86155,14.99786,32.95821,17.04745,66.405,4.896,100.27446-9.27569,25.854-25.63737,46.51058-48.30777,62.02112C170.12279,359.66183,109.89,357.88016,65.72671,325.04474,27.37274,296.52852-3.79155,233.6105,27.92724,165.12837ZM195.1264,185.2901a23.04908,23.04908,0,0,0-.98039,2.78q-8.0937,36.916-16.128,73.84491c-1.26226,5.8203-3.07423,11.65187-3.31164,17.53162-.31162,7.717.77252,15.48341,1.0845,23.2355.15254,3.791-1.9387,6.07277-5.73723,6.09163q-26.74119.1328-53.48326.00553c-3.48728-.01686-5.57067-1.92839-5.56713-5.65033.00635-6.66468-.03272-13.32965.02443-19.99385.02353-2.74482.81316-5.60151.28912-8.2137-3.97727-19.82616-8.175-39.60826-12.3438-59.39574-2.1352-10.13492-4.352-20.25264-6.50088-30.23359-6.50982,1.46821-12.48037,2.74669-18.4071,4.20339-1.34164.32975-3.2215.96607-3.68545,1.99039C64.7766,203.85606,57.5203,215.694,56.84983,229.77989c-1.31876,27.70589,1.5843,55.20961,4.25365,82.71411a7.11249,7.11249,0,0,0,2.40825,4.06807c43.38163,38.37082,113.449,38.98944,157.67073,1.3487a8.709,8.709,0,0,0,2.83521-5.34049c1.51665-19.08272,2.61691-38.19887,4.17191-57.2781,1.70593-20.93117-.61719-41.19936-9.03261-60.56374-.76581-1.76218-2.20778-4.01949-3.79965-4.49548C208.88014,188.29624,202.2222,186.96411,195.1264,185.2901Zm-39.56375-35.97956c-3.38737,4.05235-6.29693,7.924-9.64221,11.373-1.71718,1.77043-4.21231,2.78631-6.35588,4.14318-1.27519-2.23328-2.84848-4.35353-3.7491-6.72884a92.91785,92.91785,0,0,1-2.52432-9.52152c-4.43086,3.79709-5.967,1.87453-7.03639-2.65388-.61431-2.60146-1.47971-6.12106-5.75209-5.49452-6.24.91508-12.53482,1.5478-18.7,2.8171-1.494.30759-3.26969,2.44473-3.71041,4.06789a70.90571,70.90571,0,0,0-2.77308,14.6142c-.2556,4.79449-2.6922,5.14742-6.44843,5.10311-11.77332-.13891-23.54933-.05108-36.71485-.05108,2.34842,3.56,3.704,5.5978,5.04246,7.64686,5.76131,8.82018,13.49433,11.63454,23.5852,8.10144,5.07409-1.77657,10.32-3.06246,15.69355-4.63016,4.02214,18.85687,7.947,37.25738,11.97625,56.14782,23.6518-5.40027,46.94645-5.01162,70.24258-.58893l12.268-55.68861c8.2355,2.33518,15.80763,4.7395,23.52214,6.53073,2.71521.63044,6.444.76828,8.55492-.62231,5.57119-3.67,9.31866-9.16275,12.29425-16.13335H193.29388c-1.3849-7.37837-2.534-14.25453-4.06779-21.04375-.31175-1.37984-1.9216-3.26407-3.19225-3.49607-6.663-1.21651-13.40944-1.97641-20.06488-2.88649C161.5377,152.22164,160.11459,152.901,155.56265,149.31054ZM53.84153,138.4373l.303,1.9c18.67812-1.3,37.50839-1.5337,55.99559-4.17164,22.786-3.25134,45.31066-4.064,67.89113.36924,17.9675,3.52761,36.08086,2.58691,54.18329,2.42009.16882-.00156.33316-.48943.492-.75509C182.163,83.67968,97.23453,89.10633,53.84153,138.4373ZM229.72888,309.74785a15.56841,15.56841,0,0,0,1.9834-1.38483q53.08521-59.06759,25.14246-133.41375c-3.12641-8.2714-3.34345-8.28377-12.1035-7.69423-1.45078.09763-3.59732,1.05368-4.1043,2.19731-3.86456,8.71771-9.34555,16.013-17.11213,20.95623,2.87887,9.65528,7.09539,18.89609,8.15,28.48467,1.57393,14.31007,1.44766,28.879,1.07024,43.31235C232.34691,277.814,230.81915,293.39313,229.72888,309.74785ZM46.48005,166.2561c-3.25407-.1464-6.27477-.05293-9.22008-.47966-2.91613-.42251-4.06881.96852-5.20594,3.32987A123.556,123.556,0,0,0,50.54385,303.92664a35.53988,35.53988,0,0,1,3.08583,4.88995l1.39-1.35709c-1.13-18.22018-2.40945-36.43268-3.34639-54.66278-.86631-16.85585-.76444-33.6165,7.33734-49.19859,2.35282-4.52516,4.23136-9.29692,6.35068-14.00758C56.8747,183.47882,50.06926,176.37487,46.48005,166.2561ZM285.00632,98.09951c-.33487.91845-.68576,1.8314-1.002,2.75619-3.00879,8.79711-5.70343,17.71722-9.09713,26.363-3.92719,10.00486-11.13355,15.83381-22.42615,15.949-16.97287.17313-33.94312.59962-50.91471.90678-2.10359.03807-4.20846.00519-6.411.00519.66267,4.7476,1.34593,9.00313,1.82123,13.28177.29689,2.67266,1.19439,4.28868,4.25514,4.2704,18.30328-.10936,36.60776-.05194,54.91052-.20642,11.2085-.09461,18.207-6.6296,22.64841-16.11847C285.79782,130.33652,287.3064,114.45189,285.00632,98.09951ZM92.80511,144.08572c-2.822,0-5.14339.03115-7.46368-.005-16.15218-.25169-32.30751-.84539-48.45514-.67928-14.02138.14425-21.85352-7.2193-26.25288-19.55418-1.62016-4.5426-3.16973-9.11146-4.67936-13.69211-1.44675-4.38986-2.8-8.81055-4.47341-14.09985A16.50167,16.50167,0,0,0,.375,99.14506C-.90479,114.855.76113,130.10212,8.14556,144.28719c5.062,9.72374,12.93127,15.41295,24.1983,15.91376,5.98269.26593,11.95042,1.05519,17.93131,1.13638,13.10612.17791,26.21632.05511,39.36034.05511C90.75549,155.27713,91.73581,149.92431,92.80511,144.08572Zm21.267,117.07534c1.00426,4.61464,2.14781,8.78508,2.75074,13.03227.38286,2.697,1.36889,3.69678,4.10422,3.68022,14.98786-.09073,29.97714.01138,44.96394-.14532,1.2408-.013,3.272-1.23468,3.561-2.27634,1.302-4.69125,2.1079-9.52016,3.089-14.28154A141.87141,141.87141,0,0,0,114.07214,261.16106Zm56.425,42.4521V284.21663H116.39513v19.39653ZM109.00464,237.287c1.50545,6.9728,2.93175,13.57895,4.36935,20.23751,10.19989-.911,20.09827-2.48334,29.99721-2.48688,10.02243-.0036,20.04544,1.54457,30.15678,2.42073,1.54232-7.13274,3.00019-13.875,4.45823-20.618A158.92333,158.92333,0,0,0,109.00464,237.287Zm30.60911-76.12924,2.01925.69111,14.3563-19.80469c.70453,1.43376,1.69222,3.44381,3.21834,6.54958,1.34046-3.394,2.255-5.7096,3.32668-8.42312a87.05813,87.05813,0,0,0-35.42211-.2861c1.16,2.38618,2.11425,4.34908,3.18933,6.56057l4.99355-4.17092C136.815,148.92,138.21437,155.03888,139.61375,161.15773Z" transform="translate(6 -66)"/>
    <path d="M195.1264,185.2901c7.0958,1.674,13.75374,3.00614,20.23092,4.94286,1.59187.476,3.03384,2.7333,3.79965,4.49548,8.41542,19.36438,10.73854,39.63257,9.03261,60.56374-1.555,19.07923-2.65526,38.19538-4.17191,57.2781a8.709,8.709,0,0,1-2.83521,5.34049c-44.22178,37.64074-114.2891,37.02212-157.67073-1.3487a7.11249,7.11249,0,0,1-2.40825-4.06807c-2.66935-27.5045-5.57241-55.00822-4.25365-82.71411.67047-14.08591,7.92677-25.92383,13.5297-38.294.46395-1.02432,2.34381-1.66064,3.68545-1.99039,5.92673-1.4567,11.89728-2.73518,18.4071-4.20339,2.14884,9.981,4.36568,20.09867,6.50088,30.23359,4.16878,19.78748,8.36653,39.56958,12.3438,59.39574.524,2.61219-.26559,5.46888-.28912,8.2137-.05715,6.6642-.01808,13.32917-.02443,19.99385-.00354,3.72194,2.07985,5.63347,5.56713,5.65033q26.74119.12918,53.48326-.00553c3.79853-.01886,5.88977-2.30066,5.73723-6.09163-.312-7.75209-1.39612-15.51851-1.0845-23.2355.23741-5.87975,2.04938-11.71132,3.31164-17.53162q8.01-36.93417,16.128-73.84491A23.04908,23.04908,0,0,1,195.1264,185.2901Z" transform="translate(6 -66)" style="fill: #fff"/>
    <path d="M155.56265,149.31054c4.55194,3.5905,5.97505,2.9111,10.40631-8.99416,6.65544.91008,13.40184,1.67,20.06488,2.88649,1.27065.232,2.8805,2.11623,3.19225,3.49607,1.53384,6.78922,2.68289,13.66538,4.06779,21.04375h42.04136c-2.97559,6.9706-6.72306,12.46333-12.29425,16.13335-2.111,1.39059-5.83971,1.25275-8.55492.62231-7.71451-1.79123-15.28664-4.19555-23.52214-6.53073l-12.268,55.68861c-23.29613-4.42269-46.59078-4.81134-70.24258.58893-4.0293-18.89044-7.95411-37.291-11.97625-56.14782-5.37357,1.5677-10.61946,2.85359-15.69355,4.63016-10.09087,3.5331-17.82389.71874-23.5852-8.10144-1.33843-2.04906-2.694-4.08689-5.04246-7.64686,13.16552,0,24.94153-.08783,36.71485.05108,3.75623.04431,6.19283-.30862,6.44843-5.10311a70.90571,70.90571,0,0,1,2.77308-14.6142c.44072-1.62316,2.21643-3.7603,3.71041-4.06789,6.16514-1.2693,12.45992-1.902,18.7-2.8171,4.27238-.62654,5.13778,2.89306,5.75209,5.49452,1.06935,4.52841,2.60553,6.451,7.03639,2.65388a92.91785,92.91785,0,0,0,2.52432,9.52152c.90062,2.37531,2.47391,4.49556,3.7491,6.72884,2.14357-1.35687,4.6387-2.37275,6.35588-4.14318C149.26572,157.23455,152.17528,153.36289,155.56265,149.31054ZM179.18593,199.97c-.43144-3.44918-2.44814-5.757-6.09714-5.67247a5.557,5.557,0,0,0-5.83115,6.08027c.07544,3.64807,2.21778,5.82007,6.03557,5.74558C177.09218,206.04927,178.93633,203.87862,179.18593,199.97Zm-60.54561.57055c-.22851-3.72937-2.18545-6.11134-5.81625-6.2202-3.58879-.10757-6.04863,1.98926-6.11055,5.74388-.05944,3.60619,1.8129,5.93251,5.68683,6.0811C116.29849,206.29485,118.02148,203.987,118.64032,200.54054Z" transform="translate(6 -66)" style="fill: #fff"/>
    <path d="M53.84153,138.4373c43.393-49.331,128.32145-54.75762,178.86886-.235-.16266.26324-.327.75111-.49582.75267-18.10243.16682-36.21579,1.10752-54.18329-2.42009-22.58047-4.43328-45.1051-3.62058-67.89113-.36924-18.4872,2.63794-37.31747,2.87163-55.99559,4.17164Z" transform="translate(6 -66)" style="fill: #fff"/>
    <path d="M229.72888,309.74785c1.09027-16.35472,2.618-31.93385,3.02616-47.54225.37742-14.43334.50369-29.00228-1.07024-43.31235-1.0546-9.58858-5.27112-18.82939-8.15-28.48467,7.76658-4.94321,13.24757-12.23852,17.11213-20.95623.507-1.14363,2.65352-2.09968,4.1043-2.19731,8.76005-.58954,8.97709-.57717,12.1035,7.69423q28.09537,74.33094-25.14246,133.41375A15.56841,15.56841,0,0,1,229.72888,309.74785Z" transform="translate(6 -66)" style="fill: #fff"/>
    <path d="M46.48005,166.2561c3.58921,10.11877,10.39465,17.22272,18.88124,23.33445-2.11932,4.71066-3.99786,9.48242-6.35068,14.00758-8.10178,15.58209-8.20365,32.34274-7.33734,49.19859.93694,18.2301,2.21635,36.4426,3.34639,54.66278l-1.39,1.35709a35.53988,35.53988,0,0,0-3.08583-4.88995A123.556,123.556,0,0,1,32.054,169.10631c1.13713-2.36135,2.28981-3.75238,5.20594-3.32987C40.20528,166.20317,43.226,166.1097,46.48005,166.2561Z" transform="translate(6 -66)" style="fill: #fff"/>
    <path d="M285.00632,98.09951c2.30008,16.35238.7915,32.237-6.21573,47.20747-4.44144,9.48887-11.43991,16.02386-22.64841,16.11847-18.30276.15448-36.60724.09706-54.91052.20642-3.06075.01828-3.95825-1.59774-4.25514-4.2704-.4753-4.27864-1.15856-8.53417-1.82123-13.28177,2.20253,0,4.3074.03288,6.411-.00519,16.97159-.30716,33.94184-.73365,50.91471-.90678,11.2926-.11519,18.499-5.94414,22.42615-15.949,3.3937-8.64581,6.08834-17.56592,9.09713-26.363C284.32056,99.93091,284.67145,99.018,285.00632,98.09951Z" transform="translate(6 -66)" style="fill: #fff"/>
    <path d="M92.80511,144.08572c-1.0693,5.83859-2.04962,11.19141-3.1696,17.30672-13.144,0-26.25422.1228-39.36034-.05511-5.98089-.08119-11.94862-.87045-17.93131-1.13638-11.267-.50081-19.13633-6.19-24.1983-15.91376C.76113,130.10212-.90479,114.855.375,99.14506a16.50167,16.50167,0,0,1,1.10564-3.08977c1.67343,5.2893,3.02666,9.71,4.47341,14.09985,1.50963,4.58065,3.0592,9.14951,4.67936,13.69211,4.39936,12.33488,12.2315,19.69843,26.25288,19.55418,16.14763-.16611,32.303.42759,48.45514.67928C87.66172,144.11687,89.98307,144.08572,92.80511,144.08572Z" transform="translate(6 -66)" style="fill: #fff"/>
    <path d="M114.07214,261.16106a141.87141,141.87141,0,0,1,58.46889.00929c-.98106,4.76138-1.787,9.59029-3.089,14.28154-.28908,1.04166-2.32023,2.26338-3.561,2.27634-14.9868.1567-29.97608.05459-44.96394.14532-2.73533.01656-3.72136-.98317-4.10422-3.68022C116.22,269.94614,115.0764,265.7757,114.07214,261.16106Z" transform="translate(6 -66)" style="fill: #fff"/>
    <path d="M170.49719,303.61316H116.39513V284.21663h54.10206ZM120.68806,289.649c2.97905,3.10833,5.60691,5.85023,8.32952,8.691,2.29913-2.71752.42459-5.0268-1.39757-6.99392C125.72345,289.29868,123.37773,287.75659,120.68806,289.649Zm43.43319-.7c-.77094-.99217-3.03748.34277-5.07949,2.25613-2.46194,2.30678-2.64528,4.25731-2.04663,5.78189Q160.5582,292.968,164.12125,288.94893Z" transform="translate(6 -66)" style="fill: #fff"/>
    <path d="M109.00464,237.287a158.92333,158.92333,0,0,1,68.98157-.44661c-1.458,6.743-2.91591,13.48523-4.45823,20.618-10.11134-.87616-20.13435-2.42433-30.15678-2.42073-9.89894.00354-19.79732,1.57585-29.99721,2.48688C111.93639,250.86592,110.51009,244.25977,109.00464,237.287Zm24.90953,9.92121,4.45547-3.78035c-1.41233-.71618-2.82467-1.43236-5.08-2.576l6.49726-1.28955.20126-2.00027c-3.15846-1.6958-6.73743-.49343-10.60765.03412.41589,4.80848.805,9.30786,1.217,14.07066l10.27751-.961.27358-1.88282Zm30.72269,6.259a6.02022,6.02022,0,0,0,6.103-6.66889c-.407-3.652-2.75079-5.73605-6.364-5.51179-3.75345.233-5.33539,2.87033-5.36153,6.46493C158.98546,251.73058,161.38248,253.23755,164.63686,253.46718Zm-7.01981-16.11806c-6.50146-1.24579-4.30159,5.42517-7.171,6.90125-2.468-2.153.22793-8.27257-6.42617-7.79076,1.16766,4.49609,2.10769,8.65843,3.40443,12.70651a4.01628,4.01628,0,0,0,2.795,2.10126c.719.11842,2.05893-.95779,2.44037-1.80614C154.40269,245.58475,155.90521,241.60011,157.61705,237.34912ZM117.45,253.96533c3.33046-1.46626,7.29144-1.99249,8.128-3.8936.99511-2.26137.20864-6.55549-1.50206-8.36723-1.3918-1.474-5.28408-.587-8.66834-.78151C116.12439,245.50009,116.67506,249.01653,117.45,253.96533Z" transform="translate(6 -66)" style="fill: #fff"/>
    <path d="M139.61375,161.15773c-1.39938-6.11885-2.79875-12.23769-4.31866-18.88357l-4.99355,4.17092c-1.07508-2.21149-2.02931-4.17439-3.18933-6.56057a87.05813,87.05813,0,0,1,35.42211.2861c-1.0717,2.71352-1.98622,5.0291-3.32668,8.42312-1.52612-3.10577-2.51381-5.11582-3.21834-6.54958L141.633,161.84884Z" transform="translate(6 -66)" style="fill: #fff"/>
    <path d="M179.18593,199.97c-.2496,3.90863-2.09375,6.07928-5.89272,6.15338-3.81779.07449-5.96013-2.09751-6.03557-5.74558a5.557,5.557,0,0,1,5.83115-6.08027C176.73779,194.213,178.75449,196.52081,179.18593,199.97Z" transform="translate(6 -66)"/>
    <path d="M118.64032,200.54054c-.61884,3.44649-2.34183,5.75431-6.24,5.60478-3.87393-.14859-5.74627-2.47491-5.68683-6.0811.06192-3.75462,2.52176-5.85145,6.11055-5.74388C116.45487,194.4292,118.41181,196.81117,118.64032,200.54054Z" transform="translate(6 -66)"/>
    <path d="M120.68806,289.649c2.68967-1.89237,5.03539-.35028,6.932,1.69709,1.82216,1.96712,3.6967,4.2764,1.39757,6.99392C126.295,295.49919,123.66711,292.75729,120.68806,289.649Z" transform="translate(6 -66)"/>
    <path d="M164.12125,288.94893q-3.56305,4.019-7.12612,8.038c-.59865-1.52458-.41531-3.47511,2.04663-5.78189C161.08377,289.2917,163.35031,287.95676,164.12125,288.94893Z" transform="translate(6 -66)"/>
    <path d="M133.91417,247.20818l7.23436,1.6148-.27358,1.88282-10.27751.961c-.41192-4.7628-.80107-9.26218-1.217-14.07066,3.87022-.52755,7.44919-1.72992,10.60765-.03412l-.20126,2.00027-6.49726,1.28955c2.25536,1.14365,3.6677,1.85983,5.08,2.576Z" transform="translate(6 -66)"/>
    <path d="M164.63686,253.46718c-3.25438-.22963-5.6514-1.7366-5.62246-5.71575.02614-3.5946,1.60808-6.23194,5.36153-6.46493,3.61319-.22426,5.957,1.85983,6.364,5.51179A6.02022,6.02022,0,0,1,164.63686,253.46718Z" transform="translate(6 -66)"/>
    <path d="M157.61705,237.34912c-1.71184,4.251-3.21436,8.23563-4.95738,12.11212-.38144.84835-1.72133,1.92456-2.44037,1.80614a4.01628,4.01628,0,0,1-2.795-2.10126c-1.29674-4.04808-2.23677-8.21042-3.40443-12.70651,6.6541-.48181,3.95813,5.6378,6.42617,7.79076C153.31546,242.77429,151.11559,236.10333,157.61705,237.34912Z" transform="translate(6 -66)"/>
    <path d="M117.45,253.96533c-.775-4.9488-1.32564-8.46524-2.0424-13.04234,3.38426.19452,7.27654-.69251,8.66834.78151,1.7107,1.81174,2.49717,6.10586,1.50206,8.36723C124.74147,251.97284,120.78049,252.49907,117.45,253.96533Z" transform="translate(6 -66)"/>
  </g>
</svg>
