<svg preserveAspectRatio="xMidYMid meet" viewBox="0 0 128 128" xmlns="http://www.w3.org/2000/svg"><g transform="matrix(.1 0 0 -.1 0 128)"><path d="m647 1194c-4-4-7-22-7-41v-33h-270-270l-6-23c-3-13-4-41-2-63 3-39 3-39 51-42l47-3v-240-239h-24c-49 0-56-8-56-70 0-44 4-59 16-64 9-3 94-6 190-6 183 0 185 1 168 44-5 14-29 16-165 16-212 0-213 19-1 22l157 3v25 25l-117 3-118 3v239 240h400 400v-94c0-89 1-95 25-110l25-16v109 110l48 3c47 3 47 3 50 42 2 22 1 50-2 63l-6 23h-245-244l-3 37c-3 36-23 54-41 37zm483-139c0-13-61-15-490-15s-490 2-490 15 61 15 490 15 490-2 490-15z"/><path d="m777 800c-143-36-238-152-245-300-5-99 22-172 86-238 105-107 250-129 388-60l45 22 73-73c51-51 79-72 90-68 28 11 18 30-56 104l-71 72 26 38c63 91 75 229 29 325-65 133-228 212-365 178zm179-69c165-75 214-284 98-419-108-127-300-127-408 0-38 43-66 118-66 173 0 96 62 194 152 239 65 32 161 35 224 7z"/><path d="m345 220c-111-88-150-126-150-142 0-12 5-23 12-25 12-4 313 232 313 246 0 15-12 41-19 41-3 0-73-54-156-120z"/><path d="m612 159c2-33 8-45 22-47 44-9 45 39 0 71l-25 19z"/></g></svg>