<svg xmlns="http://www.w3.org/2000/svg" viewBox="0 0 25.77 40"><g data-name="Layer 2"><g><path d="M25.77,17.74V30.48a1.12,1.12,0,0,1-1.05,1.22l-3.63.65-1.48.26c-.16,0-.2.08-.2.24,0,2,0,3.92,0,5.88a1.75,1.75,0,0,1,0,.46,1.08,1.08,0,0,1-1.28.78q-3.64-.78-7.27-1.59L1.05,36.24a1.16,1.16,0,0,1-1-1.3V9.57A1.12,1.12,0,0,1,1.07,8.3l3.72-.72c.46-.09.91-.19,1.37-.26.18,0,.2-.11.2-.26v-6A1.09,1.09,0,0,1,7.68,0l6.94,1.51L24.67,3.75l.31.06a1.11,1.11,0,0,1,.79,1.07ZM2.22,10.82V34c0,.14,0,.19.17.22L8,35.47l9,2h.15V14.25c0-.11,0-.15-.14-.18l-1.18-.25L3.55,11.11ZM23.53,29.64V6.25L6.77,9.48a.13.13,0,0,0,.07.06L12.6,10.8l5.92,1.3a1.09,1.09,0,0,1,.84.76,1.77,1.77,0,0,1,.05.52V30.1c0,.08,0,.17,0,.27ZM8.58,6.85,19,4.84v0L8.58,2.51Z"/><path d="M13.81,20.19v3.5a1.11,1.11,0,0,1-1.46,1.15L5,23a1.11,1.11,0,0,1-.9-1.18v-7A1.12,1.12,0,0,1,5.6,13.66l7.28,1.83a1.13,1.13,0,0,1,.93,1.18Zm-7.47-4c0,.05,0,.07,0,.1v4.63c0,.11,0,.14.14.17l5,1.25.15,0V17.47Z"/><path d="M3.94,32a1.1,1.1,0,0,1,1.37-1.09l8.9,1.87.21.05A1.12,1.12,0,1,1,14,35l-6-1.27-3.09-.66A1.09,1.09,0,0,1,3.94,32Z"/><path d="M14.19,30.19c-.12,0-.24,0-.36-.06L5,27.89a1.12,1.12,0,0,1,.13-2.21,1.29,1.29,0,0,1,.39,0L14.44,28a1.13,1.13,0,0,1,.52,1.9A1.1,1.1,0,0,1,14.19,30.19Z"/></g></g></svg>