<svg xmlns="http://www.w3.org/2000/svg" viewBox="0 0 30 40"><g data-name="Layer 2"><g><path d="M29.91,38.59,24.64,27.44a1,1,0,0,0-.51-.49l-2.62-1.17,4.54-7.62,0-.05A12.47,12.47,0,0,0,23.74,3.58,12.46,12.46,0,0,0,2.56,12.37a12.53,12.53,0,0,0,1.36,5.74l0,.05L8.5,25.78,5.86,27a.92.92,0,0,0-.49.48L.09,38.59A1,1,0,0,0,.28,39.7a1,1,0,0,0,1.11.21L8,37l6.61,2.94a.93.93,0,0,0,.8,0L22,37l6.61,2.94A.9.9,0,0,0,29,40a1,1,0,0,0,.7-.3A1,1,0,0,0,29.91,38.59ZM5.66,17.18a10.34,10.34,0,0,1-1.13-4.8A10.52,10.52,0,0,1,14.85,2a10.47,10.47,0,0,1,9.49,15.2L15.85,31.41a1,1,0,0,1-1.7,0ZM22.41,35a1,1,0,0,0-.8,0L15,37.93,8.4,35a1,1,0,0,0-.81,0L3,37l4-8.42,2.52-1.12,2.94,4.93a2.95,2.95,0,0,0,5.08,0l2.95-4.93L23,28.61,27,37Z"/><path d="M15,7.94a4.51,4.51,0,1,0,4.51,4.5A4.51,4.51,0,0,0,15,7.94Zm0,7a2.53,2.53,0,1,1,2.53-2.53A2.53,2.53,0,0,1,15,15Z"/></g></g></svg>