<svg preserveAspectRatio="xMidYMid meet" viewBox="0 0 128 128" xmlns="http://www.w3.org/2000/svg"><g transform="matrix(.1 0 0 -.1 0 128)"><path d="m680 1191c-44-14-104-48-126-73-61-67-86-173-61-265l14-52-54-12c-52-12-60-11-239 40-102 29-192 50-200 47-12-4-14-60-14-341v-335l23-10c12-5 102-32 199-60l178-50 212 53 213 53 214-53c118-30 220-52 228-49 18 7 20 671 1 682-6 4-68 21-137 39l-126 31 4 76c3 94-22 160-84 217-63 58-169 85-245 62zm177-77c23-13 50-36 61-52 82-117 41-270-115-432l-53-54-56 54c-105 104-155 201-156 301 0 70 22 119 75 164 67 58 162 65 244 19zm-628-345c75-21 137-39 138-39 2 0 3-130 3-290 0-225-3-290-12-290-7 0-78 19-158 43l-145 42-3 293-2 293 21-6c12-4 83-25 158-46zm1001-336v-293l-27 7c-16 3-100 25-188 47l-160 41-3 183-2 183 40 47c23 25 53 67 67 92l26 47 124-31 123-30zm-683 294c17-37 106-140 153-177 42-33 43-33 71-17l29 16v-157-157l-185-46-185-46v292 293l38 10c57 15 68 14 79-11z"/><path d="m678 1011c-28-25-33-36-33-76s5-51 33-76c70-62 172-20 172 71 0 52-13 76-50 95-45 23-85 19-122-14zm100-37c26-18 28-50 5-76-32-35-85-12-85 37 0 27 23 55 47 55 6 0 21-7 33-16z"/></g></svg>