<svg id="Layer_1" data-name="Layer 1" xmlns="http://www.w3.org/2000/svg" viewBox="0 0 128 128">
  <g>
    <path d="M80,152H208V280H80ZM92.00541,266.64522H195.01988c-4.74347-10.02393-9.77707-19.38445-13.61961-29.21074-2.75627-7.04844-6.21332-11.3046-14.327-9.51822-.48645.1071-1.07913-.26838-2.24634-.59265,8.04432-9.49558,11.98105-19.71078,11.29592-31.91373-1.0855-19.33377-20.37737-34.10307-39.059-29.90722-24.58861,5.52256-32.36745,35.08523-19.8351,54.19754,1.68,2.562,3.41444,5.08828,5.55053,8.26614a91.61988,91.61988,0,0,0-9.84085.10521,5.34858,5.34858,0,0,0-3.7391,2.26478C103.41553,242.22631,97.84791,254.22147,92.00541,266.64522Z" transform="translate(-80 -152)" style="fill: #fff"/>
    <path d="M92.00541,266.64522c5.8425-12.42375,11.41012-24.41891,17.194-36.30889a5.34858,5.34858,0,0,1,3.7391-2.26478,91.61988,91.61988,0,0,1,9.84085-.10521c-2.13609-3.17786-3.87057-5.70413-5.55053-8.26614-12.53235-19.11231-4.75351-48.675,19.8351-54.19754,18.68158-4.19585,37.97345,10.57345,39.059,29.90722.68513,12.203-3.2516,22.41815-11.29592,31.91373,1.16721.32427,1.75989.69975,2.24634.59265,8.11369-1.78638,11.57074,2.46978,14.327,9.51822,3.84254,9.82629,8.87614,19.18681,13.61961,29.21074Zm51.77005-14.78694c7.47613-10.93,14.2626-21.33,21.55411-31.363,6.01619-8.27817,8.06607-17.157,6.72875-27.21956-2.22723-16.75856-19.24412-28.25243-35.51649-23.68679-18.9181,5.308-27.95618,28.433-17.31731,45.98841C126.6111,227.76608,135.17579,239.24091,143.77546,251.85828Zm45.40366,11.14662c-4.82191-10.20143-9.42878-20.04932-14.1867-29.82368a3.92263,3.92263,0,0,0-2.75238-1.546c-5.97106-.71555-11.58963-.60675-14.48121,6.207-.89031,2.09793-2.53755,3.878-3.8599,5.78854-3.32406,4.80276-6.6605,9.59694-10.16979,14.65062-5.32121-7.77487-10.19014-14.89759-15.06867-22.01373-2.94209-4.29151-10.49914-6.52974-15.24907-4.439a3.63206,3.63206,0,0,0-1.59888,1.68234c-4.62906,9.66091-9.2041,19.3477-14.01279,29.49387Z" transform="translate(-80 -152)"/>
    <path d="M143.77546,251.85828c-8.59967-12.61737-17.16436-24.0922-24.55094-36.281-10.63887-17.55546-1.60079-40.68044,17.31731-45.98841,16.27237-4.56564,33.28926,6.92823,35.51649,23.68679,1.33732,10.06252-.71256,18.94139-6.72875,27.21956C158.03806,230.52824,151.25159,240.92828,143.77546,251.85828Zm.51939-42.70333a11.53567,11.53567,0,0,0,11.70353-12.0779c-.09586-6.4256-5.9231-12.20084-12.13287-12.02458a12.73573,12.73573,0,0,0-11.85965,12.40929A12.01774,12.01774,0,0,0,144.29485,209.155Z" transform="translate(-80 -152)" style="fill: #fff"/>
    <path d="M189.17912,263.0049H97.79973c4.80869-10.14617,9.38373-19.833,14.01279-29.49387a3.63206,3.63206,0,0,1,1.59888-1.68234c4.74993-2.09078,12.307.14745,15.24907,4.439,4.87853,7.11614,9.74746,14.23886,15.06867,22.01373,3.50929-5.05368,6.84573-9.84786,10.16979-14.65062,1.32235-1.91058,2.96959-3.69061,3.8599-5.78854,2.89158-6.81372,8.51015-6.92252,14.48121-6.207a3.92263,3.92263,0,0,1,2.75238,1.546C179.75034,242.95558,184.35721,252.80347,189.17912,263.0049Z" transform="translate(-80 -152)" style="fill: #fff"/>
    <path d="M144.29485,209.155a12.01774,12.01774,0,0,1-12.289-11.69319,12.73573,12.73573,0,0,1,11.85965-12.40929c6.20977-.17626,12.037,5.599,12.13287,12.02458A11.53567,11.53567,0,0,1,144.29485,209.155Zm7.76269-11.36834c.19106-4.92291-2.8475-8.496-7.46518-8.77831a7.99886,7.99886,0,0,0-8.58878,7.75319,8.39441,8.39441,0,0,0,8.09547,8.90285A7.96533,7.96533,0,0,0,152.05754,197.78661Z" transform="translate(-80 -152)"/>
    <path d="M152.05754,197.78661a7.96533,7.96533,0,0,1-7.95849,7.87773,8.39441,8.39441,0,0,1-8.09547-8.90285,7.99886,7.99886,0,0,1,8.58878-7.75319C149.21,189.29065,152.2486,192.8637,152.05754,197.78661Z" transform="translate(-80 -152)" style="fill: #fff"/>
  </g>
</svg>
