<svg xmlns="http://www.w3.org/2000/svg" viewBox="0 0 40 36.04"><g data-name="Layer 2"><g><path d="M11.7.35A1.25,1.25,0,0,0,10.88,0H2.94a1.28,1.28,0,0,0-1.26,1.3v10H4.2V2.63h6.22l4.81,4.21a1.25,1.25,0,0,0,.82.31h3.82V4.56H16.52Z"/><path d="M37.06,4.56H31.55V7.15H35.8v4.17h2.52V5.86A1.28,1.28,0,0,0,37.06,4.56Z"/><path d="M39.66,10.44a1.25,1.25,0,0,0-.92-.41H1.26a1.21,1.21,0,0,0-.91.41,1.29,1.29,0,0,0-.35,1L1.26,34.82A1.28,1.28,0,0,0,2.52,36h35a1.28,1.28,0,0,0,1.26-1.22L40,11.4A1.32,1.32,0,0,0,39.66,10.44Zm-3.37,23H3.71L2.59,12.62H37.41Z"/><path d="M30.59.74a1.21,1.21,0,0,0-.71-.66,1.23,1.23,0,0,0-1,0l-20.76,10,1.08,2.33L28.85,3,33,12l2.28-1.1Z"/></g></g></svg>