<svg preserveAspectRatio="xMidYMid meet" viewBox="0 0 128 128" xmlns="http://www.w3.org/2000/svg"><g transform="matrix(.1 0 0 -.1 0 128)"><path d="m385 918-257-191 23-18c13-10 28-14 34-10 109 84 456 341 460 341 5 0 264-190 416-306 54-41 55-42 78-25l23 18-256 191c-141 106-258 192-260 192s-119-86-261-192z"/><path d="m422 821-222-166v-247-248h445 445v249 248l-192 144c-106 79-206 154-223 165l-30 22zm423-44 190-142 3-213 2-212h-130-130v220 220h-135-135v-220-220h-130-130v210 209l193 145c105 79 197 145 202 145 6 0 96-63 200-142zm-115-372v-195h-85-85v195 195h85 85z"/></g></svg>