<svg xmlns="http://www.w3.org/2000/svg" viewBox="0 0 40 37.37"><g data-name="Layer 2"><g><path d="M40,14.12a.45.45,0,0,0,0-.2,1,1,0,0,0-.4-.57l-5.73-4V5.1a1,1,0,0,0-1-1H26.19L20.59.18a1,1,0,0,0-1.17,0l-5.64,3.9H7.22a1,1,0,0,0-1,1V9.32l-5.76,4a1,1,0,0,0-.44.83H0L0,36.35a1,1,0,0,0,.3.72,1,1,0,0,0,.72.3h0l37.92,0a1,1,0,0,0,1-1ZM33.8,11.87l3.28,2.27L33.8,16.42ZM20,2.27l2.6,1.81H17.38ZM8.25,6.13H31.76V17.84l-7.9,5.49-3.22-2.5h0a1,1,0,0,0-1.24,0l-3.24,2.52-7.9-5.46Zm-2,5.68v4.66L2.83,14.14ZM2.05,16.1l12.4,8.56L2.08,34.26Zm2,19.22L20,22.94l15.9,12.34ZM25.56,24.65l12.36-8.6,0,18.21Z"/><path d="M26.94,10.23H13.07a1,1,0,1,0,0,2H26.94a1,1,0,0,0,0-2Z"/><path d="M26.94,15.55H13.07a1,1,0,1,0,0,2.05H26.94a1,1,0,0,0,0-2.05Z"/></g></g></svg>