<svg xmlns="http://www.w3.org/2000/svg" viewBox="0 0 40 27.55"><g data-name="Layer 2"><g><path class="cls-1" d="M40,16.24a9.76,9.76,0,0,0-.21-2A9.17,9.17,0,0,0,31,7a8.93,8.93,0,0,0-6.2,2.36c-.11.09-.16.08-.26,0a9,9,0,0,0-3-1.82c-.4-.14-.81-.25-1.25-.36a2.19,2.19,0,0,1,.27-.22c.13-.08.13-.17.07-.3a5.37,5.37,0,0,0-.84-1.37c-.17-.2-.17-.19.06-.34l4.89-3.16A1.21,1.21,0,0,0,25,1.47a.85.85,0,0,0,.1-.95A.86.86,0,0,0,24.27,0h-13a1.26,1.26,0,0,0-.75.23l-9.3,6-.84.55A.9.9,0,0,0,0,7.73a.88.88,0,0,0,.76.69,3,3,0,0,0,.52,0c.12,0,.16,0,.16.15v6.53a.25.25,0,0,1-.06.2A3.87,3.87,0,0,0,.49,16.9a10.29,10.29,0,0,0-.21,5.53,4.78,4.78,0,0,0,1,2.23,1.81,1.81,0,0,0,2.83,0,4.6,4.6,0,0,0,.95-1.85,10.55,10.55,0,0,0,.22-4.54,6.44,6.44,0,0,0-.66-2.13,2.59,2.59,0,0,0-1.3-1.31c-.09,0-.09-.09-.09-.16V8.57c0-.09,0-.14.13-.14H7.66c.11,0,.13,0,.12.14a4.86,4.86,0,0,0,0,1,1.77,1.77,0,0,0,1.36,1.68,8.55,8.55,0,0,0,1.39.27.79.79,0,0,1-.08.16,9,9,0,0,0-1.14,4.4c0,3.77,0,7.53,0,11.29,0,.15.05.17.19.17h5.41c.2,0,.26,0,.26-.25,0-3.62,0-7.25,0-10.87,0-.17,0-.35,0-.52a3.28,3.28,0,0,1,6.56.33v11.1c0,.17,0,.21.2.21h5.44c.17,0,.22,0,.22-.21q0-5.46,0-10.93c0-.21,0-.43,0-.64a3.29,3.29,0,0,1,6.55.4V27.32c0,.17,0,.24.22.23h5.41c.19,0,.23,0,.23-.22C40,23.63,40,19.94,40,16.24ZM3.4,17.86a8.59,8.59,0,0,1,.2,1A8.76,8.76,0,0,1,3.66,20a7.57,7.57,0,0,1-.42,2.72,2.77,2.77,0,0,1-.37.7c-.09.12-.17.14-.27,0a2.94,2.94,0,0,1-.46-1,8.49,8.49,0,0,1,.09-5,2.58,2.58,0,0,1,.35-.68c.14-.18.17-.18.3,0A3.41,3.41,0,0,1,3.4,17.86ZM14,6.52a.52.52,0,0,1-.3.11H4c0-.08.11-.1.16-.14l7.08-4.57a.45.45,0,0,1,.28-.1h9.68l-1.1.72Z"/></g></g></svg>