<svg id="Layer_1" data-name="Layer 1" xmlns="http://www.w3.org/2000/svg" viewBox="0 0 128 128">
  <g>
    <path d="M80,280V152H208V280Zm3.83255-67.7294c.00038,35.67632,31.95217,61.37819,66.95483,53.72877,3.321-.72577,5.68628-.48992,8.51989,1.79507a27.36313,27.36313,0,0,0,34.19216-.17921c9.647-7.604,14.46982-22.54212,7.30775-32.63174-6.60922-9.31078-7.6293-18.51552-7.46871-28.7835a7.97058,7.97058,0,0,0-.14693-.98638c-2.91286-25.77453-25.45813-49.07229-56.03215-47.80736C105.98174,158.69617,83.83222,182.20261,83.83255,212.2706Z" transform="translate(-80 -152)" style="fill: #fff"/>
    <path d="M83.83255,212.2706c-.00033-30.068,22.14919-53.57443,53.32684-54.86435,30.574-1.26493,53.11929,22.03283,56.03215,47.80736a7.97058,7.97058,0,0,1,.14693.98638c-.16059,10.268.85949,19.47272,7.46871,28.7835,7.16207,10.08962,2.3392,25.02776-7.30775,32.63174a27.36313,27.36313,0,0,1-34.19216.17921c-2.83361-2.285-5.19886-2.52084-8.51989-1.79507C115.78472,273.64879,83.83293,247.94692,83.83255,212.2706Zm104.31249,8.562c0-4.96141.30937-9.27373-.05254-13.529-1.74244-20.487-17.15469-38.1991-37.35955-43.19252A49.77375,49.77375,0,0,0,97.39739,184.635c-11.77533,17.837-11.19122,40.99326,1.4509,57.51877,5.5289,7.22726,5.52937,7.22813,13.72573,2.80635q1.756-.94733,3.50058-1.91572c6.71622-3.71676,7.49488-7.33236,3.89943-14.17407-3.96911-7.55277-8.59929-14.98754-7.14421-24.23752A133.2517,133.2517,0,0,0,114.472,189.925c.41178-9.21439,4.58535-15.6138,13.58994-17.19359a51.8447,51.8447,0,0,1,19.15927.29931c9.05127,1.89636,12.81577,8.27074,12.914,17.60921.04437,4.21913,1.26423,8.41385,1.52475,12.64587.31031,5.04075,1.57505,10.19587-1.96438,14.89759-2.60179,3.45617-4.645,7.33281-6.93714,11.02208C162.6408,218.90787,173.97045,216.12669,188.145,220.83257Zm-36.97376,39.22621c-.98715-5.27546-.69575-11.14959-3.15737-15.44659-6.7385-11.76268,1.51686-20.0254,6.108-28.73495,1.51451-2.87306,2.86876-5.27928,2.64889-8.29734-.4872-6.688-1.10673-13.38063-2.08584-20.0103a12.54486,12.54486,0,0,0-3.00339-6.13133c-5.70276-6.38-22.7297-6.47718-28.60268-.19241A11.15332,11.15332,0,0,0,120.133,186.86c-.95981,6.978-1.695,14.0068-2.06823,21.04005-.3963,7.46828,3.90555,13.46635,7.33783,19.546,3.843,6.80724,1.97167,15.48146-4.83221,19.26389-3.43566,1.91-6.88974,3.78685-10.44352,5.738C120.27086,261.43471,139.92829,264.85166,151.17128,260.05878Zm2.67811-14.006a22.327,22.327,0,1,0,22.17908-22.216A22.23664,22.23664,0,0,0,153.84939,246.05283Z" transform="translate(-80 -152)"/>
    <path d="M188.145,220.83257c-14.17459-4.70588-25.50424-1.9247-35.38666,8.37294,2.29213-3.68927,4.33535-7.56591,6.93714-11.02208,3.53943-4.70172,2.27469-9.85684,1.96438-14.89759-.26052-4.232-1.48038-8.42674-1.52475-12.64587-.0982-9.33847-3.8627-15.71285-12.914-17.60921a51.8447,51.8447,0,0,0-19.15927-.29931c-9.00459,1.57979-13.17816,7.9792-13.58994,17.19359a133.2517,133.2517,0,0,1-1.64215,14.70778c-1.45508,9.25,3.1751,16.68475,7.14421,24.23752,3.59545,6.84171,2.81679,10.45731-3.89943,14.17407q-1.74574.96609-3.50058,1.91572c-8.19636,4.42178-8.19683,4.42091-13.72573-2.80635-12.64212-16.52551-13.22623-39.68173-1.4509-57.51877a49.77375,49.77375,0,0,1,53.33556-20.52392c20.20486,4.99342,35.61711,22.70549,37.35955,43.19252C188.45441,211.55884,188.145,215.87116,188.145,220.83257Z" transform="translate(-80 -152)" style="fill: #fff"/>
    <path d="M151.17128,260.05878c-11.243,4.79288-30.90042,1.37593-41.04443-7.61087,3.55378-1.95114,7.00786-3.828,10.44352-5.738,6.80388-3.78243,8.67522-12.45665,4.83221-19.26389-3.43228-6.07968-7.73413-12.07775-7.33783-19.546.37322-7.03325,1.10842-14.06208,2.06823-21.04005a11.15332,11.15332,0,0,1,2.94589-5.61409c5.873-6.28477,22.89992-6.18756,28.60268.19241a12.54486,12.54486,0,0,1,3.00339,6.13133c.97911,6.62967,1.59864,13.32232,2.08584,20.0103.21987,3.01806-1.13438,5.42428-2.64889,8.29734-4.59112,8.70955-12.84648,16.97227-6.108,28.735C150.47553,248.90919,150.18413,254.78332,151.17128,260.05878Z" transform="translate(-80 -152)" style="fill: #fff"/>
    <path d="M153.84939,246.05283a22.327,22.327,0,1,1,44.65279.30763,22.327,22.327,0,0,1-44.65279-.30763Zm17.79577,5.30919c-2.34877-2.79069-3.97474-5.14944-6.06678-6.97371-.72-.62782-2.60281.07794-3.95442.17448.13049,1.1872-.17093,2.74119.46951,3.49532,2.24645,2.6453,4.87569,4.96067,7.248,7.50534,2.26065,2.4249,4.14557,2.14928,6.11983-.36013,4.19933-5.33767,8.60788-10.51681,12.63714-15.97753.90459-1.226.60422-3.341.85857-5.04675-1.63881.5855-3.8092.69865-4.823,1.83954C180.0806,240.58025,176.38653,245.46125,171.64516,251.362Z" transform="translate(-80 -152)" style="fill: #fff"/>
    <path d="M171.64516,251.362c4.74137-5.90077,8.43544-10.78177,12.48887-15.34344,1.01379-1.14089,3.18418-1.254,4.823-1.83954-.25435,1.70574.046,3.82079-.85857,5.04675-4.02926,5.46072-8.43781,10.63986-12.63714,15.97753-1.97426,2.50941-3.85918,2.785-6.11983.36013-2.37232-2.54467-5.00156-4.86-7.248-7.50534-.64044-.75413-.339-2.30812-.46951-3.49532,1.35161-.09654,3.23446-.8023,3.95442-.17448C167.67042,246.21258,169.29639,248.57133,171.64516,251.362Z" transform="translate(-80 -152)"/>
  </g>
</svg>
