<svg data-name="Layer 1" xmlns="http://www.w3.org/2000/svg" viewBox="0 0 200 200"><path d="M148.18,122.41a38.61,38.61,0,1,0-42.62,0A58.14,58.14,0,0,0,68.8,176.49a5.78,5.78,0,0,0,11.56,0,46.56,46.56,0,1,1,93.12,0,5.78,5.78,0,0,0,11.56,0A58.33,58.33,0,0,0,148.18,122.41Zm-21.3-5.11A27.1,27.1,0,1,1,154,90.2,27.12,27.12,0,0,1,126.88,117.3Z"/><path d="M78.11,96c1.22-.73,3-2.59,3-6.58,0-3.78-1.47-4.79-3.09-6.08a20.17,20.17,0,0,0-4.54-2.43A27.09,27.09,0,0,1,85,29.28c10.32,0,18.76,4.74,23.33,13.24h0l.22.4a5.8,5.8,0,0,0,8,2.27,5.8,5.8,0,0,0,2.27-7.66s0,0,0,0C112.45,25.23,99.94,17.73,85,17.73a38.64,38.64,0,0,0-21.3,70.9,58.1,58.1,0,0,0-36.82,54,5.78,5.78,0,1,0,11.56,0,46.59,46.59,0,0,1,34-44.82A22.27,22.27,0,0,0,78.11,96Z"/></svg>