<svg id="Layer_1" data-name="Layer 1" xmlns="http://www.w3.org/2000/svg" viewBox="0 0 128 128">
  <g>
    <path d="M80,280V152H208V280Zm36.11641-4.58059a25.28322,25.28322,0,0,0,2.76661.33711c19.82824.01864,39.657-.051,59.48433.08192,3.62132.02428,4.50363-1.40768,4.48421-4.75086-.11225-19.32785-.00768-38.65686-.07955-57.98511a28.01886,28.01886,0,0,0-7.37033-19.12425,10.20643,10.20643,0,0,1-2.19689-5.67962c-.3263-4.22311-.10028-8.4889-.10028-12.51607H161.34622l-.075,1.44327,8.99985.99867v84.74521h-61.9764v-65.0035c5.45626,0,10.60059-.22112,15.71545.0721,3.879.22236,5.43519-.91983,5.15987-5.00876-.33094-4.91479-.07825-9.86888-.07825-15.74026h21.943l-.065-1.74589c-7.98156,0-15.96361-.03655-23.94378.06864-.64593.00851-1.31378.9523-1.91272,1.52309-5.66834,5.40188-11.49027,10.65887-16.88162,16.32518a11.0887,11.0887,0,0,0-2.84278,6.868c-.21893,20.15926-.13327,40.32192-.11091,60.48353.00179,1.61167.20874,3.22311.3273,4.9352l10.51115.62777Zm38.56122-68.80325,2.10486.15179c.635-2.603,1.7592-5.19516,1.81735-7.811.21091-9.48871.063-18.98535.05337-28.479q-.006-5.9014-.00066-11.80282l1.30433-.03932v13.06088l.9899-.03348V157.21265c-6.43041-.91025-7.76191.06549-7.79529,5.80954-.06484,11.15881-.13749,22.32024.05037,33.47625C153.25878,199.87834,154.162,203.244,154.67763,206.61616Zm-34.79615-6.20847v9.28122h16.42974c0-5.50535-.031-10.62422.01093-15.74249.02789-3.40087-1.76946-3.33448-3.212-2.78468-1.41237,3.42968-1.81046,7.26623-3.82005,8.52015C126.98993,201.11714,123.25815,200.25809,119.88148,200.40769Zm44.589,16.92487.00222-1.34649H116.2518l-.00218,1.34649Zm-.1577,13.04635.12727-2.14873c-16.04473.22873-32.09334-.4565-48.13529.42875l-.0017,1.72Zm-48.0164,10.93555.0865,2.096h47.96722l.00294-1.96249C148.33567,241.12576,132.31546,241.31905,116.29635,241.31446Z" transform="translate(-80 -152)" style="fill: #fff"/>
    <path d="M116.11641,275.41941v-9.04459l-10.51115-.62777c-.11856-1.71209-.32551-3.32353-.3273-4.9352-.02236-20.16161-.108-40.32427.11091-60.48353a11.0887,11.0887,0,0,1,2.84278-6.868c5.39135-5.66631,11.21328-10.9233,16.88162-16.32518.59894-.57079,1.26679-1.51458,1.91272-1.52309,7.98017-.10519,15.96222-.06864,23.94378-.06864l.065,1.74589h-21.943c0,5.87138-.25269,10.82547.07825,15.74026.27532,4.08893-1.28086,5.23112-5.15987,5.00876-5.11486-.29322-10.25919-.0721-15.71545-.0721v65.0035H170.271V178.22447l-8.99985-.99867.075-1.44327h11.75829c0,4.02717-.226,8.293.10028,12.51607a10.20643,10.20643,0,0,0,2.19689,5.67962,28.01886,28.01886,0,0,1,7.37033,19.12425c.07187,19.32825-.0327,38.65726.07955,57.98511.01942,3.34318-.86289,4.77514-4.48421,4.75086-19.82737-.1329-39.65609-.06328-59.48433-.08192A25.28322,25.28322,0,0,1,116.11641,275.41941Zm2.99575-2.735h60.8504c0-21.19568.11936-42.00088-.08664-62.80286-.04951-4.99968-2.12956-9.52013-6.86806-13.89385v70.2156h-53.8957Zm7.02834-77.64825V179.19234c-5.42044,5.89952-9.94029,10.81884-14.55726,15.84386Z" transform="translate(-80 -152)"/>
    <path d="M154.67763,206.61616c-.5156-3.37218-1.41885-6.73782-1.47577-10.11772-.18786-11.156-.11521-22.31744-.05037-33.47625.03338-5.744,1.36488-6.71979,7.79529-5.80954v14.45056l-.9899.03348V158.63581l-1.30433.03932q0,5.9014.00066,11.80282c.00965,9.49365.15754,18.99029-.05337,28.479-.05815,2.61584-1.18232,5.208-1.81735,7.811Zm1.51606-42.04693-.39143.01332v32.85351l.39143-.01322Z" transform="translate(-80 -152)"/>
    <path d="M119.88148,200.40769c3.37667-.1496,7.10845.70945,9.40865-.7258,2.00959-1.25392,2.40768-5.09047,3.82005-8.52015,1.44251-.5498,3.23986-.61619,3.212,2.78468-.042,5.11827-.01093,10.23714-.01093,15.74249H119.88148Z" transform="translate(-80 -152)"/>
    <ellipse cx="60.36114" cy="64.65931" rx="34.09728" ry="0.95211"/>
    <path d="M164.31275,230.37891H116.303l.0017-1.72c16.04195-.88525,32.09056-.2,48.13529-.42875Z" transform="translate(-80 -152)"/>
    <path d="M116.29635,241.31446c16.01911.00459,32.03932-.1887,48.05666.13355l-.00294,1.96249H116.38285Z" transform="translate(-80 -152)"/>
    <path d="M119.11216,272.68445v-6.48111h53.8957v-70.2156c4.7385,4.37372,6.81855,8.89417,6.86806,13.89385.206,20.802.08664,41.60718.08664,62.80286Z" transform="translate(-80 -152)" style="fill: #fff"/>
    <path d="M126.1405,195.0362H111.58324c4.617-5.025,9.13682-9.94434,14.55726-15.84386Z" transform="translate(-80 -152)" style="fill: #fff"/>
    <ellipse cx="75.99798" cy="29.00267" rx="0.27678" ry="23.23087" style="fill: #fff"/>
  </g>
</svg>
