<svg id="Layer_1" data-name="Layer 1" xmlns="http://www.w3.org/2000/svg" viewBox="0 0 128 128">
  <g>
    <path d="M80,280V152H208V280Zm60.54564-86.00239c.04263-.2633.08917.118-.07345.35747-6.81945,10.044-13.6298,20.09451-20.54335,30.07365-.587.84723-1.87857,1.20716-3.66279,2.29207.6838-5.63567-2.25572-7.212-5.96993-7.85855-5.73564-.99845-11.49133-1.89174-17.25449-2.71851-3.03845-.43588-4.10613,1.11387-4.08431,4.09038.09165,12.50715-.00913,25.01584.11293,37.52247.0124,1.26988.70141,3.1234,1.67094,3.6892,3.74214,2.18383,15.42478-.18259,18.25365-3.52348,10.98848,3.67642,22.10636,7.2214,33.08993,11.142,5.80257,2.07123,11.4402,2.35634,17.06728-.01193,12.44317-5.23693,24.81569-10.64122,37.23431-15.93676,2.89265-1.23348,3.64079-3.36454,1.37448-5.33518-3.64639-3.1707-3.21245-7.0399-3.54589-11.19182A31.43852,31.43852,0,0,0,190.672,224.775c-3.33193-6.31972-7.31206-12.31394-11.24928-18.29428-2.89459-4.39665-6.1538-8.55368-8.93972-12.38958l5.54228-3.02208-3.92773-3.8936c2.27867-2.20173,4.72581-4.25206,6.78165-6.63882,2.16314-2.51136,4.4965-5.12035,5.729-8.10921.95433-2.31422,1.42417-6.403.12419-7.67049-1.61706-1.57667-5.51128-1.92633-8.00051-1.25217-3.92825,1.06388-7.50548,3.42154-11.23012,5.234-9.686-9.34646-9.686-9.34646-20.18279.11244a70.3242,70.3242,0,0,0-6.52133-3.58558c-4.01715-1.71239-8.59964-5.21339-12.36327-.87923-3.92641,4.52163-.1179,8.82441,2.71446,12.44454,3.11985,3.98759,6.73759,7.58633,9.76606,10.94188l-3.81964,2.95251Z" transform="translate(-80 -152)" style="fill: #fff"/>
    <path d="M140.54564,193.99761l-5.45033-3.27222,3.81964-2.95251c-3.02847-3.35555-6.64621-6.95429-9.76606-10.94188-2.83236-3.62013-6.64087-7.92291-2.71446-12.44454,3.76363-4.33416,8.34612-.83316,12.36327.87923a70.3242,70.3242,0,0,1,6.52133,3.58558c10.49678-9.4589,10.49678-9.4589,20.18221-.11366,3.72522-1.81126,7.30245-4.16892,11.2307-5.2328,2.48923-.67416,6.38345-.3245,8.00051,1.25217,1.3,1.26752.83014,5.35627-.12419,7.67049-1.23253,2.98886-3.56589,5.59785-5.729,8.10921-2.05584,2.38676-4.503,4.43709-6.78165,6.63882l3.92773,3.8936-5.54228,3.02208c2.78592,3.8359,6.04513,7.99293,8.93972,12.38958C183.36,212.4611,187.3401,218.45532,190.672,224.775a31.43852,31.43852,0,0,1,3.54292,11.81356c.33344,4.15192-.1005,8.02112,3.54589,11.19182,2.26631,1.97064,1.51817,4.1017-1.37448,5.33518-12.41862,5.29554-24.79114,10.69983-37.23431,15.93676-5.62708,2.36827-11.26471,2.08316-17.06728.01193-10.98357-3.92058-22.10145-7.46556-33.08993-11.142-2.82887,3.34089-14.51151,5.70731-18.25365,3.52348-.96953-.5658-1.65854-2.41932-1.67094-3.6892-.12206-12.50663-.02128-25.01532-.11293-37.52247-.02182-2.97651,1.04586-4.52626,4.08431-4.09038,5.76316.82677,11.51885,1.72006,17.25449,2.71851,3.71421.64655,6.65373,2.22288,5.96993,7.85855,1.78422-1.08491,3.07583-1.44484,3.66279-2.29207,6.91355-9.97914,13.7239-20.02967,20.54335-30.07365C140.63481,194.11557,140.58827,193.73431,140.54564,193.99761Zm12.124,39.77685c1.65191-3.90374-.85258-4.44378-2.93864-5.96153-2.31363-1.68332-5.09864-4.523-5.18927-6.95192-.09277-2.48671,2.43922-5.496,4.55648-7.50369,1.64811-1.56281,4.64259-1.6825,4.6932-4.93153a23.94288,23.94288,0,0,1,3.38417-.38489c-.05364,3.93867,3.75269,3.95589,5.77322,5.81189a17.54776,17.54776,0,0,1,3.63742,5.14356c.31433.63561-.63569,1.89536-1.008,2.86992a8.87441,8.87441,0,0,1-2.76744-1.244c-1.369-1.34161-2.48026-2.94576-4.54991-5.48849-.81917,6.33922-1.7721,10.64938,4.49391,12.75289,3.65909,1.22837,4.67583,4.67773,3.788,8.69331-.57886,2.61816-.3448,5.41573-.49628,8.57952l24.611-4.93712c-.92479-3.66293-1.15514-8.14438-3.12087-11.65623A294.58614,294.58614,0,0,0,171.611,203.27983c-7.80147-11.11654-8.03126-11.02508-21.54734-10.22989a6.74512,6.74512,0,0,0-4.52543,2.241c-6.64256,8.93946-13.0802,18.032-19.501,27.13367a36.33988,36.33988,0,0,0-2.432,4.93764Zm-43.17889,19.52117c12.413,4.22163,24.3385,8.3847,36.35417,12.26933,2.27855.73665,5.21125,1.1685,7.33757.381,13.46954-4.98835,26.79716-10.3592,40.85534-15.872-4.67347-5.13-9.1965-5.08361-13.80482-3.55913-15.141,5.00881-30.36579,7.32707-45.87436,1.8018-1.40707-.5013-2.47111-1.96365-3.69445-2.97971,1.57588-.40724,3.22662-1.33594,4.71343-1.12285,4.27476.61265,8.44775,1.975,12.72744,2.50136,4.57772.563,9.23148.509,14.05867.73395.06285-5.56626-2.569-7.4971-5.9952-8.29514-13.42933-3.12791-26.901-6.07434-40.56932-9.13576Zm20.77484-86.92308-1.10078,1.67271c3.22509,8.1082,9.61349,13.835,16.33794,18.78762,2.74653,2.02284,7.49242,1.64491,11.34613,1.756,2.85031.08215,6.53509.146,8.43968-1.45477,5.184-4.357,9.71523-9.5161,14.2878-14.55423,1.16562-1.2843,1.523-3.30079,2.25178-4.98087l-1.26469-1.348c-4.29485,2.261-8.75567,4.26344-12.827,6.87256-2.78031,1.78176-4.27746,1.47734-6.0801-1.1652-1.635-2.39674-3.80852-4.42675-6.37741-7.33479-1.94591,2.31011-3.83834,3.86915-4.8327,5.873-2.45676,4.951-5.184,4.08658-9.00683,1.48811C138.02246,169.66217,134.01338,168.20921,130.26558,166.37255ZM93.55933,257.41367c2.92961,0,5.28627.25775,7.541-.10934a4.29418,4.29418,0,0,0,2.96522-2.35181q3.96126-14.14623,7.41115-28.43112c.22651-.94018-.9014-3.07818-1.70663-3.25293-5.24077-1.1374-10.56614-1.88569-16.21077-2.81864Zm58.12041-32.95723,1.26356-.72341v-6.67031l-1.15266-.64363c-.99112,1.39515-2.67007,2.74709-2.76147,4.19879C148.95242,221.83705,150.72558,223.17248,151.67974,224.45644Z" transform="translate(-80 -152)"/>
    <path d="M152.66963,233.77446l-29.06445-6.41221a36.33988,36.33988,0,0,1,2.432-4.93764c6.42082-9.10163,12.85846-18.19421,19.501-27.13367a6.74512,6.74512,0,0,1,4.52543-2.241c13.51608-.79519,13.74587-.88665,21.54734,10.22989a294.58614,294.58614,0,0,1,15.92567,25.28629c1.96573,3.51185,2.19608,7.9933,3.12087,11.65623l-24.611,4.93712c.15148-3.16379-.08258-5.96136.49628-8.57952.88782-4.01558-.12892-7.46494-3.788-8.69331-6.266-2.10351-5.31308-6.41367-4.49391-12.75289,2.06965,2.54273,3.1809,4.14688,4.54991,5.48849a8.87441,8.87441,0,0,0,2.76744,1.244c.37228-.97456,1.3223-2.23431,1.008-2.86992a17.54776,17.54776,0,0,0-3.63742-5.14356c-2.02053-1.856-5.82686-1.87322-5.77322-5.81189a23.94288,23.94288,0,0,0-3.38417.38489c-.05061,3.249-3.04509,3.36872-4.6932,4.93153-2.11726,2.00771-4.64925,5.017-4.55648,7.50369.09063,2.4289,2.87564,5.2686,5.18927,6.95192C151.81705,229.33068,154.32154,229.87072,152.66963,233.77446Z" transform="translate(-80 -152)" style="fill: #fff"/>
    <path d="M109.49074,253.29563l6.10847-23.27712c13.66831,3.06142,27.14,6.00785,40.56932,9.13576,3.42624.798,6.05805,2.72888,5.9952,8.29514-4.82719-.22494-9.48095-.17092-14.05867-.73395-4.27969-.52639-8.45268-1.88871-12.72744-2.50136-1.48681-.21309-3.13755.71561-4.71343,1.12285,1.22334,1.01606,2.28738,2.47841,3.69445,2.97971,15.50857,5.52527,30.73336,3.207,45.87436-1.8018,4.60832-1.52448,9.13135-1.57085,13.80482,3.55913-14.05818,5.51281-27.3858,10.88366-40.85534,15.872-2.12632.78746-5.059.35561-7.33757-.381C133.82924,261.68033,121.90376,257.51726,109.49074,253.29563Z" transform="translate(-80 -152)" style="fill: #fff"/>
    <path d="M130.26558,166.37255c3.7478,1.83666,7.75688,3.28962,11.17382,5.61217,3.82286,2.59847,6.55007,3.46287,9.00683-1.48811.99436-2.00386,2.88679-3.5629,4.8327-5.873,2.56889,2.908,4.74243,4.938,6.37741,7.33479,1.80264,2.64254,3.29979,2.947,6.0801,1.1652,4.07133-2.60912,8.53215-4.61157,12.827-6.87256l1.26469,1.348c-.72875,1.68008-1.08616,3.69657-2.25178,4.98087-4.57257,5.03813-9.10377,10.19719-14.2878,14.55423-1.90459,1.60076-5.58937,1.53692-8.43968,1.45477-3.85371-.11108-8.5996.26685-11.34613-1.756-6.72445-4.95263-13.11285-10.67942-16.33794-18.78762Z" transform="translate(-80 -152)" style="fill: #fff"/>
    <path d="M93.55933,257.41367V220.44983c5.64463.933,10.97,1.68124,16.21077,2.81864.80523.17475,1.93314,2.31275,1.70663,3.25293q-3.44076,14.28117-7.41115,28.43112a4.29418,4.29418,0,0,1-2.96522,2.35181C98.8456,257.67142,96.48894,257.41367,93.55933,257.41367Z" transform="translate(-80 -152)" style="fill: #fff"/>
    <path d="M151.67974,224.45644c-.95416-1.284-2.72732-2.61939-2.65057-3.83856.0914-1.4517,1.77035-2.80364,2.76147-4.19879l1.15266.64363V223.733Z" transform="translate(-80 -152)" style="fill: #fff"/>
  </g>
</svg>
