<svg preserveAspectRatio="xMidYMid meet" viewBox="0 0 128 128" xmlns="http://www.w3.org/2000/svg"><g transform="matrix(.1 0 0 -.1 0 128)"><path d="m321 1196c-45-25-50-50-51-228v-167l-117-3-118-3-3-318c-2-313-2-319 19-349 42-58 40-58 604-58 551 0 559 1 585 49 14 27 14 1015 0 1042-26 47-42 49-482 49-324-1-418-4-437-14zm861-53c17-15 18-44 18-501 0-438-2-487-17-504s-42-18-442-18h-426l3 502c2 497 3 503 23 521 19 16 55 17 422 17 359 0 402-2 419-17zm-914-686 2-288-24-24c-40-40-142-27-160 20-3 9-6 145-6 301v285l93-3 92-3z"/><path d="m413 1093c-10-3-13-46-13-163 0-135 2-159 16-164 20-8 278-8 298 0 24 9 24 319 0 328-19 7-283 7-301-1zm267-163v-120h-115-115v120 120h115 115z"/><path d="m800 1085c-25-30 0-35 161-35 149 0 159 1 159 19 0 28-18 31-170 31-108 0-140-3-150-15z"/><path d="m795 970c-4-6-1-18 6-26 10-12 39-14 163-12 148 3 151 3 154 26l3 22h-160c-100 0-162-4-166-10z"/><path d="m793 854c-11-30 13-35 168-32 151 3 154 3 157 26l3 22h-161c-137 0-162-2-167-16z"/><path d="m400 640c0-20 7-20 360-20s360 0 360 20-7 20-360 20-360 0-360-20z"/><path d="m404 486c-3-8-3-20 1-26 4-7 125-10 361-10h355l-3 23-3 22-353 3c-302 2-353 0-358-12z"/></g></svg>