<svg id="Layer_1" data-name="Layer 1" xmlns="http://www.w3.org/2000/svg" viewBox="0 0 128 128">
  <g>
    <path d="M80,152H208V280L80,280Q80,216,80,152Zm26.83309,48.16788c-6.63465,0-12.61407.21143-18.57008-.07094-4.29764-.20375-5.89665,1.21692-5.84735,5.66375.19387,17.48611.02989,34.97584.09983,52.46381.03826,9.56662,5.27141,14.59647,15.01464,14.60155q47.96772.025,95.93548.00039c8.33886-.00379,12.00542-3.50015,12.01891-11.71878q.07425-45.21953-.005-90.43919c-.01556-7.92234-3.74694-11.485-11.7381-11.49233q-37.47481-.03423-74.94967-.00284c-8.343.00524-11.90959,3.50787-11.94833,11.76687C106.799,180.40944,106.83309,189.87907,106.83309,200.16788Z" transform="translate(-80 -152)" style="fill: #fff"/>
    <path d="M106.83309,200.16788c0-10.28881-.03412-19.75844.01029-29.22771.03874-8.259,3.60538-11.76163,11.94833-11.76687q37.47483-.02354,74.94967.00284c7.99116.0073,11.72254,3.57,11.7381,11.49233q.0888,45.21947.005,90.43919c-.01349,8.21863-3.68,11.715-12.01891,11.71878q-47.96773.02178-95.93548-.00039c-9.74323-.00508-14.97638-5.03493-15.01464-14.60155-.06994-17.488.094-34.9777-.09983-52.46381-.0493-4.44683,1.54971-5.8675,5.84735-5.66375C94.219,200.37931,100.19844,200.16788,106.83309,200.16788ZM112,267.49342h4.551q37.7314,0,75.46282-.00457c7.29585-.0034,8.147-.83567,8.1494-7.95185q.015-43.47858.00053-86.95715c-.00221-7.25976-.79553-8.0639-8.03308-8.068q-35.98227-.02043-71.96454-.00005c-7.17056.004-8.1593.9799-8.16193,8.01184q-.01516,40.48-.00416,80.96Zm-23.9063-61.74684c-.10194,1.6731-.24865,2.97173-.24994,4.27051q-.02381,23.97042.0025,47.94086c.0171,6.73194,2.95337,9.50914,9.84155,9.5341,6.99931.02537,9.12774-2.10373,9.13771-9.29288q.03288-23.72073.00676-47.44155v-5.011Z" transform="translate(-80 -152)"/>
    <path d="M112,267.49342V253.48363q0-40.48.00416-80.96c.00263-7.03194.99137-8.00784,8.16193-8.01184q35.98225-.0201,71.96454.00005c7.23755.0041,8.03087.80824,8.03308,8.068q.01327,43.47858-.00053,86.95715c-.00245,7.11618-.85355,7.94845-8.1494,7.95185q-37.73142.01758-75.46282.00457Zm41.15725-80.60859c0-4.15748-.08265-8.31715.02767-12.47169.07988-3.0085-1.38429-4.23224-4.20609-4.23217q-12.47241.00032-24.94483-.00235c-2.835-.00218-4.24346,1.242-4.21594,4.22993.07812,8.48051.05582,16.9623.017,25.44332-.01249,2.72717,1.3164,3.96167,3.94544,3.96331q12.72179.00794,25.44357.00316c3.00726.00133,4.03029-1.63512,3.96257-4.46168C153.08707,195.20156,153.16094,191.04231,153.15724,186.88483Zm2.35094,31.6175c10.81979,0,21.641.084,32.45767-.10015,1.44576-.02461,2.86844-1.40575,4.3018-2.1587-1.4375-.91528-2.86861-2.61609-4.31346-2.62783q-31.70822-.25771-63.41885-.01046c-1.51632.01141-3.02106,1.56186-4.53119,2.39672,1.51427.8336,3.01422,2.35757,4.54511,2.38931C134.86523,218.60516,145.18777,218.50272,155.50818,218.50233Zm-.01279,16.999c10.6603,0,21.32255.1,31.97879-.10779,1.59839-.03118,3.16866-1.50339,4.75194-2.309-1.58061-.97175-3.15363-2.77492-4.743-2.78942q-31.22875-.28448-62.46059-.01257c-1.67651.014-3.33947,1.6466-5.00872,2.527,1.66661.89819,3.31557,2.5333,5.00273,2.57372C135.17131,235.62654,145.33482,235.50411,155.49539,235.50128Zm20.1864-48.672c4.30691,0,8.62593.17983,12.91335-.10923,1.29184-.08709,2.49585-1.47709,3.74009-2.27025-1.24871-.98036-2.4743-2.77359-3.74984-2.80985-8.60644-.24462-17.22622-.22-25.8339.00935-1.18867.03167-2.33443,1.67372-3.5,2.57024,1.1699.86782,2.29229,2.39583,3.51828,2.484C167.05442,187.01194,171.3749,186.823,175.68179,186.82933Zm-.169-11.3421c4.49068,0,8.9897.14841,13.46622-.10331,1.13311-.06372,2.19448-1.40334,3.28881-2.15667-1.07538-1.00694-2.12812-2.85773-3.22974-2.8873q-13.21206-.35454-26.43621.00537c-1.13841.031-2.22836,1.84054-3.34075,2.82623,1.25914.77491,2.478,2.12673,3.7849,2.218C167.18386,175.6785,171.35466,175.49629,175.51274,175.48723Zm.23876,22.509c4.33112,0,8.67517.18521,12.98525-.11585,1.25-.08732,2.40261-1.56775,3.59988-2.40955-1.17044-.8759-2.32255-2.4811-3.51425-2.51106q-12.98514-.3264-25.98094-.00538c-1.21308.02958-2.38908,1.58049-3.58223,2.4272,1.16632.87082,2.2852,2.40528,3.50752,2.49265C167.07582,198.18227,171.42039,197.994,175.7515,197.99621Z" transform="translate(-80 -152)" style="fill: #fff"/>
    <path d="M88.09369,205.74658h18.73858v5.011q0,23.72079-.00676,47.44155c-.01,7.18915-2.1384,9.31825-9.13771,9.29288-6.88818-.025-9.82445-2.80216-9.84155-9.5341q-.06088-23.97031-.0025-47.94086C87.845,208.71831,87.99175,207.41968,88.09369,205.74658Z" transform="translate(-80 -152)" style="fill: #fff"/>
    <path d="M153.1591,186.88483c.00184,4.15748-.072,8.31673.02751,12.47183.06772,2.82656-.95531,4.463-3.96257,4.46168q-12.72179-.00566-25.44357-.00316c-2.629-.00164-3.95793-1.23614-3.94544-3.96331.03884-8.481.06114-16.96281-.017-25.44332-.02752-2.98791,1.381-4.23211,4.21594-4.22993q12.47241.0096,24.94483.00235c2.8218-.00007,4.286,1.22367,4.20609,4.23217C153.07459,178.56768,153.15724,182.72735,153.1591,186.88483Zm-27.98618,11.20124h22.5318V175.914h-22.5318Z" transform="translate(-80 -152)"/>
    <path d="M155.50818,218.50252c-10.32041.0002-20.643.10264-30.95892-.1113-1.53089-.03174-3.03084-1.55571-4.54511-2.38931,1.51013-.83486,3.01487-2.38531,4.53119-2.39672q31.70851-.23863,63.41885.01046c1.44485.01174,2.876,1.71255,4.31346,2.62783-1.43336.75295-2.856,2.13409-4.3018,2.1587C177.14919,218.58629,166.328,218.50233,155.50818,218.50252Z" transform="translate(-80 -152)"/>
    <path d="M155.49539,235.5027c-10.16057.00141-20.32408.12384-30.47882-.11944-1.68716-.04042-3.33612-1.67553-5.00273-2.57372,1.66925-.88043,3.33221-2.513,5.00872-2.527q31.22915-.26176,62.46059.01257c1.58934.0145,3.16236,1.81767,4.743,2.78942-1.58328.8056-3.15355,2.27781-4.75194,2.309C176.81794,235.60127,166.15569,235.50128,155.49539,235.5027Z" transform="translate(-80 -152)"/>
    <path d="M175.68179,186.82619c-4.30689-.00315-8.62737.18575-12.91207-.12255-1.226-.08822-2.34838-1.61623-3.51828-2.484,1.16562-.89652,2.31138-2.53857,3.5-2.57024,8.60768-.22936,17.22746-.254,25.8339-.00935,1.27554.03626,2.50113,1.82949,3.74984,2.80985-1.24424.79316-2.44825,2.18316-3.74009,2.27025C184.30772,187.00916,179.9887,186.82933,175.68179,186.82619Z" transform="translate(-80 -152)"/>
    <path d="M175.51274,175.49176c-4.15808.00453-8.32888.18674-12.46677-.10222-1.30688-.09126-2.52576-1.44308-3.7849-2.218,1.11239-.98569,2.20234-2.79522,3.34075-2.82623q13.212-.36,26.43621-.00537c1.10162.02957,2.15436,1.88036,3.22974,2.8873-1.09433.75333-2.1557,2.093-3.28881,2.15667C184.50244,175.63564,180.00342,175.48723,175.51274,175.49176Z" transform="translate(-80 -152)"/>
    <path d="M175.7515,197.99512c-4.33111-.0011-8.67568.18715-12.98477-.1209-1.22232-.08737-2.3412-1.62183-3.50752-2.49265,1.19315-.84671,2.36915-2.39762,3.58223-2.4272q12.98558-.31656,25.98094.00538c1.1917.03,2.34381,1.63516,3.51425,2.51106-1.19727.8418-2.34991,2.32223-3.59988,2.40955C184.42667,198.18142,180.08262,197.99621,175.7515,197.99512Z" transform="translate(-80 -152)"/>
    <path d="M125.17292,198.08607V175.914h22.5318v22.17211Z" transform="translate(-80 -152)" style="fill: #fff"/>
  </g>
</svg>
