<svg id="Layer_1" data-name="Layer 1" xmlns="http://www.w3.org/2000/svg" viewBox="0 0 128 128">
  <g>
    <path d="M208,213.97238V280H80q0-27.51151,0-55.023l9.91985,4.97665c0,9.2757-.00665,19.55812.002,29.84052.00761,9.04653,2.13127,11.14981,11.17673,11.111,7.8361-.03358,10.32656-2.49839,10.37922-10.57406.06819-10.45563.01664-20.912.01664-32.59934,3.89173.85647,7.26187.98689,10.05784,2.32136,10.957,5.22957,21.73546,10.83375,32.575,16.30921,8.92056,4.50611,10.00126,3.82,10.00451-6.39876q.00261-8.2267.0003-16.47651c8.91146-2.73594,14.40266-8.257,14.887-17.52054.48313-9.23994-4.21545-15.32272-12.56593-19.014-1.15457-.51036-2.14945-2.68007-2.21571-4.12752-.25873-5.65227.00451-11.32643-.15853-16.98575-.12567-4.36242-2.24506-5.67635-6.2223-3.82122a117.9215,117.9215,0,0,0-14.19389,7.27353c-16.2261,10.45669-33.70792,14.915-53.01018,12.85023C87.24111,181.77694,83.55777,183.956,80,184.96025V152H208v43.96485c-2.05059-3.35206-3.76949-6.9916-6.30686-9.92178-1.0911-1.26-3.88-1.0486-5.89755-1.5057.13344,2.06738-.49231,4.66731.52309,6.116,6.78357,9.67846,6.79,18.7121.01407,28.47736-1.02133,1.47194-.42958,4.06409-.584,6.13806,2.13989-.5475,5.02737-.41882,6.26209-1.785C204.48531,220.74573,206.05614,217.19035,208,213.97238Zm-8.756-9.05789c-2.26935-4.609-4.08852-8.95569-6.56836-12.88505-.62551-.99114-3.36354-.64793-5.13078-.91791-.14255,1.796-1.09218,4.16633-.29211,5.29143,4.12021,5.79408,4.12218,11.16842.02648,16.97129-.76264,1.08052.2391,3.4074.42657,5.15908,1.76928-.25074,4.51876.11641,5.13462-.8614C195.23931,213.86316,196.96165,209.62794,199.244,204.91449Z" transform="translate(-80 -152)" style="fill: #fff"/>
    <path d="M80,184.96025c3.55777-1.00426,7.24111-3.18331,10.65254-2.81838,19.30226,2.0648,36.78408-2.39354,53.01018-12.85023a117.9215,117.9215,0,0,1,14.19389-7.27353c3.97724-1.85513,6.09663-.5412,6.2223,3.82122.163,5.65932-.1002,11.33348.15853,16.98575.06626,1.44745,1.06114,3.61716,2.21571,4.12752,8.35048,3.69124,13.04906,9.774,12.56593,19.014-.48435,9.26356-5.97555,14.7846-14.887,17.52054q0,8.26138-.0003,16.47651c-.00325,10.21875-1.08395,10.90487-10.00451,6.39876-10.83952-5.47546-21.618-11.07964-32.575-16.30921-2.796-1.33447-6.16611-1.46489-10.05784-2.32136,0,11.6873.05155,22.14371-.01664,32.59934-.05266,8.07567-2.54312,10.54048-10.37922,10.57406-9.04546.03876-11.16912-2.06452-11.17673-11.111-.00865-10.2824-.002-20.56482-.002-29.84052L80,224.977Zm76.66748-14.08862c-11.00225,5.56824-21.25768,10.64917-31.36084,16.01695-1.19636.63562-2.17479,2.8278-2.20772,4.32153-.20154,9.14154.03543,18.293-.17878,27.43392-.0708,3.02073,1.15412,4.38965,3.687,5.58076,5.69529,2.67832,11.256,5.64321,16.8698,8.49471,4.21434,2.14063,8.42609,4.28635,13.19057,6.71044Zm-41.35839,18.92116h-28.321v30.902h28.321ZM97.51734,228.5783V262.994h6.12143V228.5783Zm66.89739-13.19987c5.1731-2.34386,7.4782-5.98118,7.34562-10.82194-.12609-4.60394-2.40355-8.06-7.34562-9.9418Z" transform="translate(-80 -152)"/>
    <path d="M208,213.97238c-1.94386,3.218-3.51469,6.77335-5.98916,9.51139-1.23472,1.36622-4.1222,1.23754-6.26209,1.785.15442-2.074-.43733-4.66612.584-6.13806,6.77588-9.76526,6.7695-18.7989-.01407-28.47736-1.0154-1.44871-.38965-4.04864-.52309-6.116,2.01755.4571,4.80645.24569,5.89755,1.5057,2.53737,2.93018,4.25627,6.56972,6.30686,9.92178Z" transform="translate(-80 -152)"/>
    <path d="M199.244,204.91449c-2.28238,4.71345-4.00472,8.94867-6.40358,12.75744-.61586.97781-3.36534.61066-5.13462.8614-.18747-1.75168-1.18921-4.07856-.42657-5.15908,4.0957-5.80287,4.09373-11.17721-.02648-16.97129-.80007-1.1251.14956-3.49546.29211-5.29143,1.76724.27,4.50527-.07323,5.13078.91791C195.15551,195.9588,196.97468,200.30547,199.244,204.91449Z" transform="translate(-80 -152)"/>
    <path d="M156.66748,170.87163v68.55831c-4.76448-2.42409-8.97623-4.56981-13.19057-6.71044-5.61382-2.8515-11.17451-5.81639-16.8698-8.49471-2.53285-1.19111-3.75777-2.56-3.687-5.58076.21421-9.141-.02276-18.29238.17878-27.43392.03293-1.49373,1.01136-3.68591,2.20772-4.32153C135.4098,181.5208,145.66523,176.43987,156.66748,170.87163Z" transform="translate(-80 -152)" style="fill: #fff"/>
    <path d="M115.30909,189.79279v30.902h-28.321v-30.902Z" transform="translate(-80 -152)" style="fill: #fff"/>
    <path d="M97.51734,228.5783h6.12143V262.994H97.51734Z" transform="translate(-80 -152)" style="fill: #fff"/>
    <path d="M164.41473,215.37843V194.61469c4.94207,1.88177,7.21953,5.33786,7.34562,9.9418C171.89293,209.39725,169.58783,213.03457,164.41473,215.37843Z" transform="translate(-80 -152)" style="fill: #fff"/>
  </g>
</svg>
