<svg id="Layer_1" data-name="Layer 1" xmlns="http://www.w3.org/2000/svg" viewBox="0 0 128 128">
  <g>
    <path d="M80,152H208V280L80,280Q80,216,80,152Zm79.72071,109c2.30705,0,4.29906.00011,6.29108,0,10.98966-.00065,21.97985.048,32.96833-.06647,1.326-.0138,2.64272-.90956,3.96375-1.39655-.59795-1.39432-1.10414-2.83709-1.8102-4.17434-2.67424-5.065-6.77787-9.82712-7.83522-15.19708-2.00993-10.20779-2.58285-20.73795-3.22642-31.1667-1.14308-18.52364-9.77613-31.78459-26.77064-39.34477-2.73123-1.215-4.54663-2.40861-5.53192-5.55633-1.73053-5.52855-6.58417-8.19584-12.94945-8.09664-6.042.09416-10.7778,2.89084-12.293,8.29368-.86756,3.09341-2.68922,4.10234-5.21709,5.18336-13.97115,5.97461-23.06888,16.29313-25.89289,31.289-1.28149,6.80491-.80992,13.92239-1.46125,20.86735-1.17611,12.54036-1.34739,25.44465-11.91668,34.86361-2.05614,1.83236-.98048,3.69075,1.43861,4.37727a14.99649,14.99649,0,0,0,3.9777.12171c12.43722.005,24.87444.00293,37.125.00293,3.12744,8.6756,7.97156,12.7455,14.68236,12.684C152.084,273.6214,156.80938,269.56819,159.72071,261Z" transform="translate(-80 -152)" style="fill: #fff"/>
    <path d="M159.72071,261c-2.91133,8.56819-7.63669,12.6214-14.458,12.68394-6.7108.06152-11.55492-4.00838-14.68236-12.684-12.25051,0-24.68773.002-37.125-.00293a14.99649,14.99649,0,0,1-3.9777-.12171c-2.41909-.68652-3.49475-2.54491-1.43861-4.37727,10.56929-9.419,10.74057-22.32325,11.91668-34.86361.65133-6.945.17976-14.06244,1.46125-20.86735,2.824-14.99582,11.92174-25.31434,25.89289-31.28895,2.52787-1.081,4.34953-2.08995,5.21709-5.18336,1.51523-5.40284,6.251-8.19952,12.293-8.29368,6.36528-.0992,11.21892,2.56809,12.94945,8.09664.98529,3.14772,2.80069,4.34132,5.53192,5.55633,16.99451,7.56018,25.62756,20.82113,26.77064,39.34477.64357,10.42875,1.21649,20.95891,3.22642,31.1667,1.05735,5.37,5.161,10.13207,7.83522,15.19708.70606,1.33725,1.21225,2.78,1.8102,4.17434-1.321.487-2.63779,1.38275-3.96375,1.39655-10.98848.11444-21.97867.06582-32.96833.06647C164.01977,261.00011,162.02776,261,159.72071,261Zm26.92747-20.0967c-.66066-11.40247-.81571-22.68946-2.06833-33.85329-2.39373-21.33371-16.67766-34.2919-37.61173-35.4011-21.68106-1.14879-38.43816,13.335-40.75063,32.32841-1.47945,12.15141-1.76512,24.44816-2.60249,36.926ZM97.33472,255.44808H193.2335c-3.78561-8.92645-3.78561-8.92663-12.44233-8.92667q-35.6914-.00017-71.38281,0C100.59489,246.52145,100.59489,246.52167,97.33472,255.44808Zm39.30134,5.79631c1.22132,4.8076,4.22034,6.91476,8.62378,6.92683,4.46193.01223,7.22454-2.39793,8.6949-6.92683Zm.89662-94.91789h15.0081l.61955-1.61891c-2.58435-1.17905-5.07841-2.99269-7.77592-3.3765C142.01389,160.85152,138.95733,162.29282,137.53268,166.3265Z" transform="translate(-80 -152)"/>
    <path d="M186.64818,240.9033H103.615c.83737-12.47782,1.123-24.77457,2.60249-36.926,2.31247-18.99345,19.06957-33.4772,40.75063-32.32841,20.93407,1.1092,35.218,14.06739,37.61173,35.4011C185.83247,218.21384,185.98752,229.50083,186.64818,240.9033Z" transform="translate(-80 -152)" style="fill: #fff"/>
    <path d="M97.33472,255.44808c3.26017-8.92641,3.26017-8.92663,12.07364-8.92667q35.6914-.00018,71.38281,0c8.65672,0,8.65672.00022,12.44233,8.92667Z" transform="translate(-80 -152)" style="fill: #fff"/>
    <path d="M136.63606,261.24439h17.31868c-1.47036,4.5289-4.233,6.93906-8.6949,6.92683C140.8564,268.15915,137.85738,266.052,136.63606,261.24439Z" transform="translate(-80 -152)" style="fill: #fff"/>
    <path d="M137.53268,166.3265c1.42465-4.03368,4.48121-5.475,7.85173-4.99541,2.69751.38381,5.19157,2.19745,7.77592,3.3765l-.61955,1.61891Z" transform="translate(-80 -152)" style="fill: #fff"/>
  </g>
</svg>
