<svg xmlns="http://www.w3.org/2000/svg" viewBox="0 0 15.233 19.108"><path id="Path_15" data-name="Path 15" d="M-573.654,4.129a2.672,2.672,0,0,1-2.156,2.136,2.62,2.62,0,0,1-3-1.881c-.059-.216-.146-.263-.356-.261-1.122.012-2.244.006-3.366.006a1.258,1.258,0,0,1-1.2-.69,1.235,1.235,0,0,1,.118-1.379,8.2,8.2,0,0,0,1.538-3.476,12.147,12.147,0,0,0,.143-1.624c.03-.893-.039-1.793.048-2.678A5.49,5.49,0,0,1-578.7-10.3a.334.334,0,0,0,.229-.346,2.189,2.189,0,0,1,2.015-2.145,2.155,2.155,0,0,1,2.346,1.9.781.781,0,0,0,.479.709A5.5,5.5,0,0,1-570.7-6.094a8.68,8.68,0,0,1,.078,1.307c.012.589.005,1.179,0,1.768a8.146,8.146,0,0,0,1.571,4.906,1.632,1.632,0,0,1,.38.834,1.282,1.282,0,0,1-1.307,1.405c-1.166,0-2.333,0-3.5,0Zm-2.626-1.066h3.252c1,0,2,0,3-.006a.352.352,0,0,0,.263-.127c.036-.06-.008-.19-.05-.271a3.133,3.133,0,0,0-.237-.344,8.612,8.612,0,0,1-1.629-4.955c-.01-.811,0-1.622,0-2.434a4.7,4.7,0,0,0-.536-2.268,4.579,4.579,0,0,0-2.49-2.175.548.548,0,0,1-.429-.629c0-.152,0-.3,0-.456a1.129,1.129,0,0,0-1.159-1.131,1.133,1.133,0,0,0-1.116,1.156c0,.171,0,.342,0,.513a.522.522,0,0,1-.364.523c-.083.032-.167.061-.247.1a4.445,4.445,0,0,0-2.8,3.789,25.706,25.706,0,0,0-.04,2.659,9.587,9.587,0,0,1-.255,2.316,9.267,9.267,0,0,1-1.6,3.312.361.361,0,0,0-.064.3.369.369,0,0,0,.285.122Q-579.39,3.068-576.281,3.063Zm-1.483,1.076a1.532,1.532,0,0,0,1.446,1.1,1.544,1.544,0,0,0,1.532-1.1Z" transform="translate(583.894 12.796)" /></svg>