<svg xmlns="http://www.w3.org/2000/svg" viewBox="0 0 40 40"><g data-name="Layer 2"><g><path d="M0,5.62a5.58,5.58,0,0,0,2.17,4.44l8,6.18a3.54,3.54,0,0,1,1.18,3.89l-.84,2.5a3.51,3.51,0,0,0,.85,3.6L24.37,39.31a2.34,2.34,0,0,0,3.32,0L39.31,27.69a2.34,2.34,0,0,0,0-3.32L26.23,11.31a3.51,3.51,0,0,0-3.6-.85l-2.5.84a3.54,3.54,0,0,1-3.89-1.18L10.06,2.17A5.62,5.62,0,0,0,0,5.62ZM24.22,35.84a3.51,3.51,0,0,0,1-5.66l-1.65-1.66a1.17,1.17,0,0,1,0-1.66,1.16,1.16,0,0,1,1.65,0l1.66,1.66a3.51,3.51,0,0,0,5-5,1.17,1.17,0,1,1,1.66-1.66C37.61,26,37.64,26,37.66,26L26,37.66Zm-8.13-8.15c.3-.31,11-11,11.6-11.6l3.46,3.45a3.3,3.3,0,0,0-1,.69,3.5,3.5,0,0,0,0,5,1.19,1.19,0,0,1,0,1.66,1.17,1.17,0,0,1-1.66,0L26.86,25.2a3.52,3.52,0,0,0-5,5l1.66,1.65a1.19,1.19,0,0,1,0,1.66,1.17,1.17,0,0,1-1.66,0ZM2.34,5.62a3.28,3.28,0,0,1,5.87-2l6.18,8A5.88,5.88,0,0,0,19,13.82c1.17,0,1.65-.23,4.35-1.13a1.14,1.14,0,0,1,1.2.28L26,14.43,14.43,26,13,24.57a1.14,1.14,0,0,1-.28-1.2l.83-2.5a5.89,5.89,0,0,0-2-6.48l-8-6.18A3.27,3.27,0,0,1,2.34,5.62Z"/><circle cx="6.02" cy="6.17" r="1.17"/></g></g></svg>