<svg id="Layer_1" data-name="Layer 1" xmlns="http://www.w3.org/2000/svg" viewBox="0 0 102.4 102.4">
  <g>
    <path d="M93,228.57591V165H195.4V267.4H93V246.06813c1.229.96246,2.32629,2.24026,3.71469,2.82074a11.95518,11.95518,0,0,1,6.24071,5.49651c3.42449,5.97,12.12594,5.71262,15.8356-.29972a4.35951,4.35951,0,0,1,4.37854-2.40189q20.847.11077,41.6947.00071a4.41833,4.41833,0,0,1,4.39831,2.38251c3.61838,5.77741,11.46169,6.30189,15.40935.97284,1.61029-2.17376,3.08814-3.35046,5.85486-3.68066,1.40695-.16792,3.23253-2.0359,3.75916-3.52774,3.28248-9.29866-1.14093-17.439-10.49665-20.06645-.92492-.25976-2.31926-1.25078-2.34254-1.94133-.19063-5.6526-.10745-11.31445-.10745-17.40629,3.07314,0,5.69022-.01,8.30719.0025,3.40171.01627,5.09445-1.502,5.05647-5.06937-.09025-8.47738-.07259-16.95669-.00841-25.43454.02665-3.51851-1.56417-5.05973-5.06227-5.01538-6.35252.08056-12.70679.02161-19.06033.02148-11.74083-.00025-13.14167,1.62544-11.35646,13.37818a8.63556,8.63556,0,0,0,1.2634,2.43237l1.31425-.20343c.18237-4.07924.36475-8.15847.55391-12.3896H191.3999v29.05615H162.42569c-.29739-3.50327-.56784-6.6894-.8383-9.87554l-2.04678.02732c-.12762,2.7293-.30939,5.45741-.36883,8.1882-.071,3.26025,1.58014,4.89527,4.85694,4.88128,3.13673-.01339,6.27357-.00289,9.55966-.00289V226.397c-3.53421-1.776-6.81006-2.73781-9.20883-4.74795a41.48433,41.48433,0,0,0-32.81809-9.76243,27.24573,27.24573,0,0,1-3.96842.01449,25.59261,25.59261,0,0,0-17.82125,6.45236,27.51068,27.51068,0,0,1-9.28078,4.9815C97.26554,224.33612,94.69873,225.67272,93,228.57591Zm81.93163-35.666c1.026-.16274,1.65855-.30567,2.29841-.35718,2.771-.22311,5.64341-.81079,5.96863-4.01933.20025-1.97566-.40842-5.31216-1.64947-5.88783-2.54225-1.17924-5.75166-.95891-8.69681-1.16645-.31-.02184-.98376.9435-.9913,1.45816-.07166,4.88253-.08122,9.76776.03724,14.64866.01239.51026.96524.99767,1.48175,1.49569.51719-.60775,1.36858-1.15944,1.48169-1.835A26.81974,26.81974,0,0,0,174.93163,192.91ZM150.9574,189.723c-3.03087-7.21486-13.17459-10.7556-22.35233-8.92291-6.59926,1.31779-11.92307,5.01721-12.35439,9.23915a24.19893,24.19893,0,0,0,3.16218-1.61056c9.85254-7.15277,18.84592-7.15825,28.41886-.05078A14.561,14.561,0,0,0,150.9574,189.723Zm-17.16-2.13983c-3.89336,1.8513-7.40538,3.43647-10.81056,5.22535-.55656.29238-.64183,1.48335-.94493,2.259.90219-.04023,2.06086.2697,2.66684-.1749,5.99648-4.39951,11.8803-4.47233,17.857.02114.58854.44248,1.59923.32256,2.414.46368-.218-.87874-.16033-2.25589-.69926-2.55451C141.02689,191.02015,137.63675,189.46417,133.79742,187.58319Zm5.51661,13.88315.37654-1.30381c-2.07974-2.74534-4.92563-3.82533-8.34767-2.58178-1.42242.5169-2.51775,1.93537-3.76182,2.94387l.8447,1.05614c1.82784-.53923,3.65049-1.4798,5.485-1.50357C135.70556,200.05394,137.51245,200.96525,139.314,201.46634Z" transform="translate(-93 -165)" style="fill: #fff"/>
    <path d="M93,228.57591c1.69873-2.90319,4.26554-4.23979,7.491-5.24095a27.51068,27.51068,0,0,0,9.28078-4.9815A25.59261,25.59261,0,0,1,127.593,211.9011a27.24573,27.24573,0,0,0,3.96842-.01449,41.48433,41.48433,0,0,1,32.81809,9.76243c2.39877,2.01014,5.67462,2.97192,9.20883,4.74795v-17.9829c-3.28609,0-6.42293-.0105-9.55966.00289-3.2768.014-4.92791-1.621-4.85694-4.88128.05944-2.73079.24121-5.4589.36883-8.1882l2.04678-.02732c.27046,3.18614.54091,6.37227.8383,9.87554H191.3999V176.13957H162.347c-.18916,4.23113-.37154,8.31036-.55391,12.3896l-1.31425.20343a8.63556,8.63556,0,0,1-1.2634-2.43237c-1.78521-11.75274-.38437-13.37843,11.35646-13.37818,6.35354.00013,12.70781.05908,19.06033-.02148,3.4981-.04435,5.08892,1.49687,5.06227,5.01538-.06418,8.47785-.08184,16.95716.00841,25.43454.038,3.56734-1.65476,5.08564-5.05647,5.06937-2.617-.01252-5.234-.0025-8.30719-.0025,0,6.09184-.08318,11.75369.10745,17.40629.02328.69055,1.41762,1.68157,2.34254,1.94133,9.35572,2.62749,13.77913,10.76779,10.49665,20.06645-.52663,1.49184-2.35221,3.35982-3.75916,3.52774-2.76672.3302-4.24457,1.5069-5.85486,3.68066-3.94766,5.329-11.791,4.80457-15.40935-.97284a4.41833,4.41833,0,0,0-4.39831-2.38251q-20.847.10881-41.6947-.00071a4.35951,4.35951,0,0,0-4.37854,2.40189c-3.70966,6.01234-12.41111,6.26975-15.8356.29972a11.95518,11.95518,0,0,0-6.24071-5.49651c-1.3884-.58048-2.48573-1.85828-3.71469-2.82074Zm8.16092,18.8328c.44588-1.04405.77544-2.04843,1.2787-2.95637,3.29354-5.94188,13.125-6.78728,15.73845-.7238,2.39077,5.54689,5.93151,5.36531,10.42637,5.21626,5.41634-.1796,10.84316-.0425,16.26545-.0425h22.6138c1.23157-5.21343,3.78189-8.906,9.2482-9.19445,6.24875-.32976,9.10748,3.721,10.84712,10.34872,1.78069-1.68634,3.65744-2.60059,3.94855-3.87706,2.15922-9.46769-1.21063-13.95027-10.78512-16.10325-5.85258-1.31606-12.545-2.20854-17.02062-5.67223-10.33416-7.99762-21.4356-10.87836-34.06273-9.52206a43.39842,43.39842,0,0,1-4.36177.04991c-4.6863.02742-8.54079,1.96714-12.38549,4.57586a78.74508,78.74508,0,0,1-13.07909,6.96942c-2.55111,1.09863-3.96065,2.31408-3.879,5.14337a66.05308,66.05308,0,0,1-.05218,9.12488C95.47185,244.629,96.92417,246.76431,101.16092,247.40871Zm16.22475,1.65626a6.59931,6.59931,0,0,0-6.668-6.47309,6.4747,6.4747,0,0,0-6.608,6.87564,6.556,6.556,0,0,0,6.81057,6.283A6.70165,6.70165,0,0,0,117.38567,249.065Zm60.06209,6.67883a6.48733,6.48733,0,0,0,6.45067-6.59306,6.56791,6.56791,0,1,0-6.45067,6.59306Zm-.35271-29.41647.82859-.11169V208.79423l-.82859.044Z" transform="translate(-93 -165)"/>
    <path d="M174.93163,192.91a26.81974,26.81974,0,0,1-.06986,4.33676c-.11311.67552-.9645,1.22721-1.48169,1.835-.51651-.498-1.46936-.98543-1.48175-1.49569-.11846-4.8809-.1089-9.76613-.03724-14.64866.00754-.51466.68134-1.48.9913-1.45816,2.94515.20754,6.15456-.01279,8.69681,1.16645,1.241.57567,1.84972,3.91217,1.64947,5.88783-.32522,3.20854-3.19759,3.79622-5.96863,4.01933C176.59018,192.60428,175.95768,192.74721,174.93163,192.91Zm.25343-2.54621c1.88887-.6678,3.61765-.85756,4.64458-1.80737.57412-.531.44967-2.91178-.186-3.416-1.08574-.86121-2.82111-.9021-4.45858-1.33367Z" transform="translate(-93 -165)"/>
    <path d="M150.9574,189.723a14.561,14.561,0,0,1-3.12568-1.3451c-9.57294-7.10747-18.56632-7.102-28.41886.05078a24.19893,24.19893,0,0,1-3.16218,1.61056c.43132-4.22194,5.75513-7.92136,12.35439-9.23915C137.78281,178.96742,147.92653,182.50816,150.9574,189.723Z" transform="translate(-93 -165)"/>
    <path d="M133.79742,187.58319c3.83933,1.881,7.22947,3.437,10.48308,5.23976.53893.29862.48124,1.67577.69926,2.55451-.81474-.14112-1.82543-.0212-2.414-.46368-5.97672-4.49347-11.86054-4.42065-17.857-.02114-.606.4446-1.76465.13467-2.66684.1749.3031-.77565.38837-1.96662.94493-2.259C126.392,191.01966,129.90406,189.43449,133.79742,187.58319Z" transform="translate(-93 -165)"/>
    <path d="M139.314,201.46634c-1.80158-.50109-3.60847-1.4124-5.40326-1.38915-1.8345.02377-3.65715.96434-5.485,1.50357l-.8447-1.05614c1.24407-1.0085,2.3394-2.427,3.76182-2.94387,3.422-1.24355,6.26793-.16356,8.34767,2.58178Z" transform="translate(-93 -165)"/>
    <path d="M101.16092,247.40871c-4.23675-.6444-5.68907-2.77968-5.25938-6.6633a66.05308,66.05308,0,0,0,.05218-9.12488c-.08163-2.82929,1.32791-4.04474,3.879-5.14337a78.74508,78.74508,0,0,0,13.07909-6.96942c3.8447-2.60872,7.69919-4.54844,12.38549-4.57586a43.39842,43.39842,0,0,0,4.36177-.04991c12.62713-1.3563,23.72857,1.52444,34.06273,9.52206,4.47561,3.46369,11.168,4.35617,17.02062,5.67223,9.57449,2.153,12.94434,6.63556,10.78512,16.10325-.29111,1.27647-2.16786,2.19072-3.94855,3.87706-1.73964-6.62775-4.59837-10.67848-10.84712-10.34872-5.46631.28847-8.01663,3.981-9.2482,9.19445h-22.6138c-5.42229,0-10.84911-.1371-16.26545.0425-4.49486.14905-8.0356.33063-10.42637-5.21626-2.61342-6.06348-12.44491-5.21808-15.73845.7238C101.93636,245.36028,101.6068,246.36466,101.16092,247.40871Zm22.12866-16.2322-.03279,1.52643a15.97072,15.97072,0,0,0,3.13205.63658c12.03205.04511,24.06479.07476,36.09589-.04215,1.22293-.01189,2.43637-1.00405,3.65421-1.54131-.60724-1.35824-.84431-3.22462-1.88684-3.98532-4.15486-3.03167-8.21149-7.01438-12.939-8.29052-14.11251-3.80951-28.49085-6.41972-41.01739,4.89047-2.14541,1.93708-6.15,2.87763-4.37874,6.82694,1.61363,3.59793,5.35123,1.86075,8.21286,2.08509.63563.04982,1.34377-.8269,2.01853-1.277-.65929-.49472-1.26771-1.30635-1.98782-1.42211-1.8367-.29527-3.72325-.28-6.04729-.41569,8.07076-8.60007,13.47428-11.0831,21.13234-9.90223V230.009Zm14.14688,4.63168-6.89221.377.12231,1.83316c2.09886-.16594,4.19791-.32964,6.29526-.51284A13.1784,13.1784,0,0,0,137.43646,235.80819Z" transform="translate(-93 -165)" style="fill: #fff"/>
    <path d="M117.38567,249.065a6.70165,6.70165,0,0,1-6.46542,6.68559,6.556,6.556,0,0,1-6.81057-6.283,6.4747,6.4747,0,0,1,6.608-6.87564A6.59931,6.59931,0,0,1,117.38567,249.065Zm-7.39619,5.02161,1.87635-.0629c1.07034-1.67808,2.86281-3.2849,3.0369-5.05146.24355-2.47143-1.7036-4.16557-4.3473-4.02956-2.58417.13293-4.50128,1.77046-3.93045,4.36552C107.011,251.063,108.818,252.50478,109.98948,254.08658Z" transform="translate(-93 -165)" style="fill: #fff"/>
    <path d="M177.44776,255.7438a6.56509,6.56509,0,1,1,6.45067-6.59306A6.44111,6.44111,0,0,1,177.44776,255.7438Zm-1.26222-1.72786,1.91733.059c1.17622-1.58737,3.04057-3.047,3.364-4.79269.4612-2.489-1.38613-4.27838-4.00212-4.342-2.56363-.06236-4.60525,1.42436-4.22562,4.06388C173.4945,250.77943,175.15416,252.35243,176.18554,254.01594Z" transform="translate(-93 -165)" style="fill: #fff"/>
    <path d="M177.095,226.32733v-17.489l.82859-.044v17.42141Z" transform="translate(-93 -165)" style="fill: #fff"/>
    <path d="M175.18506,190.36374v-6.557c1.63747.43157,3.37284.47246,4.45858,1.33367.63567.50422.76012,2.885.186,3.416C178.80271,189.50618,177.07393,189.69594,175.18506,190.36374Z" transform="translate(-93 -165)" style="fill: #fff"/>
    <path d="M123.28958,231.17651l5.956-1.16756v-9.74326c-7.65806-1.18087-13.06158,1.30216-21.13234,9.90223,2.324.13568,4.21059.12042,6.04729.41569.72011.11576,1.32853.92739,1.98782,1.42211-.67476.4501-1.3829,1.32682-2.01853,1.277-2.86163-.22434-6.59923,1.51284-8.21286-2.08509-1.77122-3.94931,2.23333-4.88986,4.37874-6.82694,12.52654-11.31019,26.90488-8.7,41.01739-4.89047,4.72752,1.27614,8.78415,5.25885,12.939,8.29052,1.04253.7607,1.2796,2.62708,1.88684,3.98532-1.21784.53726-2.43128,1.52942-3.65421,1.54131-12.0311.11691-24.06384.08726-36.09589.04215a15.97072,15.97072,0,0,1-3.13205-.63658Zm38.89359-.91768C153.381,222.474,144.2727,217.589,132.515,220.39v9.86886Z" transform="translate(-93 -165)"/>
    <path d="M137.43646,235.80819a13.1784,13.1784,0,0,1-.47464,1.6973c-2.09735.1832-4.1964.3469-6.29526.51284l-.12231-1.83316Z" transform="translate(-93 -165)"/>
    <path d="M109.98948,254.08658c-1.17144-1.5818-2.9785-3.02355-3.3645-4.7784-.57083-2.59506,1.34628-4.23259,3.93045-4.36552,2.6437-.136,4.59085,1.55813,4.3473,4.02956-.17409,1.76656-1.96656,3.37338-3.0369,5.05146Z" transform="translate(-93 -165)"/>
    <path d="M176.18554,254.01594c-1.03138-1.66351-2.691-3.23651-2.94638-5.01182-.37963-2.63952,1.662-4.12624,4.22562-4.06388,2.616.06363,4.46332,1.853,4.00212,4.342-.32346,1.74565-2.18781,3.20532-3.364,4.79269Z" transform="translate(-93 -165)"/>
    <path d="M162.18317,230.25883H132.515V220.39C144.2727,217.589,153.381,222.474,162.18317,230.25883Z" transform="translate(-93 -165)" style="fill: #fff"/>
  </g>
</svg>
