<svg xmlns="http://www.w3.org/2000/svg" viewBox="0 0 40 22.11"><g data-name="Layer 2"><g><path class="cls-1" d="M8.47,13.15a6.21,6.21,0,0,0-6.13,4.69,7.19,7.19,0,0,0-.17,1.46,1,1,0,0,1-.64.91A1.06,1.06,0,0,1,.4,20.07a1,1,0,0,1-.4-.85A8,8,0,0,1,4.23,12.1a8.42,8.42,0,0,1,9.68,1,.19.19,0,0,0,.28,0,10.09,10.09,0,0,1,11.61,0c.1.06.16.11.28,0a8.44,8.44,0,0,1,13.69,4.24A7.68,7.68,0,0,1,40,19.23a1.06,1.06,0,0,1-1,1.07,1,1,0,0,1-1.12-1,6.19,6.19,0,0,0-.55-2.55,6,6,0,0,0-4.9-3.55,6.13,6.13,0,0,0-4.67,1.29c-.13.1-.15.16,0,.3A9.55,9.55,0,0,1,30,21a1.09,1.09,0,1,1-2.17,0,7.46,7.46,0,0,0-2.44-5.51,7.65,7.65,0,0,0-6-2.08,7.77,7.77,0,0,0-6.89,5.69,9.43,9.43,0,0,0-.26,2,1.08,1.08,0,0,1-2.16,0,9.65,9.65,0,0,1,.06-1.2,9.54,9.54,0,0,1,2.28-5.16c.11-.12,0-.16-.06-.21A6.13,6.13,0,0,0,8.47,13.15Z"/><path class="cls-1" d="M20.05,0a5.11,5.11,0,0,0-5.21,5.06,5.16,5.16,0,0,0,10.32,0A5.12,5.12,0,0,0,20.05,0ZM20,8a3,3,0,0,1-3-2.94,3,3,0,0,1,6,0A3,3,0,0,1,20,8Z"/><path class="cls-1" d="M31.62,1.81A4.38,4.38,0,0,0,27.2,6.17a4.42,4.42,0,0,0,8.84,0A4.36,4.36,0,0,0,31.62,1.81Zm0,6.54a2.21,2.21,0,1,1-.07-4.41,2.25,2.25,0,0,1,2.29,2.14A2.23,2.23,0,0,1,31.65,8.35Z"/><path class="cls-1" d="M8.37,1.81a4.34,4.34,0,1,0,0,8.67A4.38,4.38,0,0,0,12.8,6.14,4.37,4.37,0,0,0,8.37,1.81Zm0,6.54a2.21,2.21,0,1,1,2.24-2.21A2.23,2.23,0,0,1,8.38,8.35Z"/></g></g></svg>