<svg xmlns="http://www.w3.org/2000/svg" viewBox="0 0 40 40"><g data-name="Layer 2"><g><path class="cls-1" d="M38.86,40H1.14A1.14,1.14,0,0,1,0,38.86V1.14A1.14,1.14,0,0,1,1.14,0H38.86A1.14,1.14,0,0,1,40,1.14V38.86A1.14,1.14,0,0,1,38.86,40ZM2.29,37.72H37.71V2.29H2.29Z"/><path class="cls-1" d="M1.14,40a1.17,1.17,0,0,1-.76-.29,1.15,1.15,0,0,1-.09-1.62L11.72,25.37a1.15,1.15,0,0,1,.8-.38,1.16,1.16,0,0,1,.83.31l3,2.79,9-8.9a1.14,1.14,0,0,1,1.57,0L39.62,30.62a1.13,1.13,0,0,1,.38.85v7.39A1.14,1.14,0,0,1,38.86,40H26.13a1.13,1.13,0,0,1-.78-.31L12.64,27.77,2,39.62A1.12,1.12,0,0,1,1.14,40Zm25.44-2.28H37.71V32L26.17,21.57,18,29.65Z"/><path class="cls-1" d="M12.91,20.34a5.49,5.49,0,1,1,5.49-5.48A5.49,5.49,0,0,1,12.91,20.34Zm0-8.68a3.2,3.2,0,1,0,3.2,3.2A3.2,3.2,0,0,0,12.91,11.66Z"/></g></g></svg>