<svg id="Layer_1" data-name="Layer 1" xmlns="http://www.w3.org/2000/svg" viewBox="0 0 128 128">
  <g>
    <path d="M80,280V152H208V280Zm84.34406-102.55875-.82979,1.64972c4.15309,0,8.32349.23573,12.45426-.06789,3.942-.28975,5.21091,1.00925,5.14133,5.0517-.24111,14.00628-.17363,28.01989-.013,42.02829.01831,1.59641,1.36792,3.17754,2.10025,4.76576.62689-1.53479,1.78358-3.06454,1.79827-4.60515.13833-14.50947.11325-29.02091.06615-43.53155-.01924-5.92985-1.87767-7.7179-7.75538-7.76641-2.5017-.02066-5.00941.09316-7.50288-.05181a5.2864,5.2864,0,0,1-3.05989-1.01643c-11.07014-9.96959-32.85277-11.83337-44.33657-2.56437-4.05752,3.275-7.689,3.57752-12.05235,3.63462-6.84784.08961-9.3922,2.568-9.39814,9.25652q-.02953,33.27442.00323,66.54889c.00686,6.29153,2.83775,9.23812,9.01383,9.27251,12.00849.06689,24.01843.09854,36.02518-.05629,1.408-.01816,2.79967-1.30071,4.19892-1.9971-1.49076-.66091-2.974-1.87463-4.47344-1.895-11.67322-.15855-23.34984-.13219-35.02477-.06018-3.563.022-5.71095-1.02573-5.7004-5.07413q.08733-33.52437-.02688-67.04892c-.0153-3.51692,1.56657-4.8234,4.79041-4.819q6.44986.00875,12.89975.00144l-.6649-1.55906c2.12448-1.71958,4.003-4.00043,6.41741-5.05841a36.76005,36.76005,0,0,1,27.31061-1.01294C158.90707,172.55718,161.48849,175.39894,164.34406,177.44125Zm25.75319,73.23719c.01585-10.67228-8.79223-19.59618-19.19045-19.44278a19.296,19.296,0,1,0,19.19045,19.44278Zm-16.15249-35.28629-.463-1.7478a13.93646,13.93646,0,0,0-3.14187-.753c-11.15169-.05521-22.30471-.10086-33.45442.05749-1.271.01805-2.52416,1.29738-3.78559,1.99188,1.30944.68589,2.61034,1.94727,3.92967,1.96686q16.22577.24087,32.45649.01831C170.97835,216.90752,172.45881,215.92715,173.94476,215.39215Zm-.27309-17.02534.11877-1.50989c-1.50059-.47576-2.99682-1.34724-4.50244-1.3638-10.66784-.11729-21.339-.14068-32.00508.04011-1.41819.024-2.814,1.36847-4.22017,2.10141,1.37559.58472,2.74537,1.66014,4.12767,1.67648,11.00022.13,22.003.08846,33.00436.00623A13.94205,13.94205,0,0,0,173.67167,198.36681ZM113.11911,214.74c-.86348,4.168-.09529,6.80879,5.39861,6.46408,4.16109-.26107,6.88844-.33488,6.63214-5.81934-.21116-4.51866-1.01834-6.77229-6.14192-6.51248C114.94458,209.07831,111.81026,209.26338,113.11911,214.74Zm.00965,18.10576c-1.25033,5.16287,1.12935,6.23877,5.84486,6.33795,5.08247.10688,6.08261-1.86477,6.1607-6.45516.08085-4.752-1.55608-5.9585-6.076-5.85392C114.62116,226.97728,111.6341,227.49485,113.12876,232.84576Zm5.58054-41.0593c-4.101-.97806-6.06566.19724-5.89055,4.98035.15151,4.13882.21238,7.15258,5.68642,6.60836,3.5881-.35672,6.84486.28912,6.64048-5.28971C124.97325,193.37957,124.213,190.5493,118.7093,191.78646Zm26.78989,39.17582c-2.97357,0-5.95886-.14942-8.91425.0824-1.01155.07934-1.94816,1.11416-2.919,1.71244.87589.755,1.73151,2.13471,2.63095,2.1639q8.91093.28917,17.83447-.00453c.94678-.031,1.85151-1.34683,2.77569-2.06867-.99419-.62711-1.94782-1.70034-2.9904-1.79512C151.13123,230.79951,148.30762,230.96649,145.49919,230.96228Z" transform="translate(-80 -152)" style="fill: #fff"/>
    <path d="M164.34406,177.44125c-2.85557-2.04231-5.437-4.88407-8.61875-5.97522A36.76005,36.76005,0,0,0,128.4147,172.479c-2.41439,1.058-4.29293,3.33883-6.41741,5.05841l.6649,1.55906q-6.44987,0-12.89975-.00144c-3.22384-.00437-4.80571,1.30211-4.79041,4.819q.1459,33.524.02688,67.04892c-.01055,4.0484,2.13738,5.0961,5.7004,5.07413,11.67493-.072,23.35155-.09837,35.02477.06018,1.49945.02037,2.98268,1.23409,4.47344,1.895-1.39925.69639-2.79093,1.97894-4.19892,1.9971-12.00675.15483-24.01669.12318-36.02518.05629-6.17608-.03439-9.007-2.981-9.01383-9.27251q-.03626-33.27441-.00323-66.54889c.00594-6.68854,2.5503-9.16691,9.39814-9.25652,4.36332-.0571,7.99483-.35965,12.05235-3.63462,11.4838-9.269,33.26643-7.40522,44.33657,2.56437a5.2864,5.2864,0,0,0,3.05989,1.01643c2.49347.145,5.00118.03115,7.50288.05181,5.87771.04851,7.73614,1.83656,7.75538,7.76641.0471,14.51064.07218,29.02208-.06615,43.53155-.01469,1.54061-1.17138,3.07036-1.79827,4.60515-.73233-1.58822-2.08194-3.16935-2.10025-4.76576-.16067-14.0084-.22815-28.022.013-42.02829.06958-4.04245-1.19936-5.34145-5.14133-5.0517-4.13077.30362-8.30117.06789-12.45426.06789Z" transform="translate(-80 -152)"/>
    <path d="M190.09725,250.67844a19.09392,19.09392,0,1,1-19.19045-19.44278C181.305,231.08226,190.1131,240.00616,190.09725,250.67844Zm-4.07947-.40078a15.17071,15.17071,0,0,0-15.06413-14.80756,14.96723,14.96723,0,0,0-14.94152,15.34182,15.26957,15.26957,0,0,0,14.97011,14.93678C179.1328,265.75923,186.09213,258.59833,186.01778,250.27766Z" transform="translate(-80 -152)"/>
    <path d="M173.94476,215.39215c-1.486.535-2.96641,1.51537-4.45871,1.53373q-16.22691.19966-32.45649-.01831c-1.31933-.01959-2.62023-1.281-3.92967-1.96686,1.26143-.6945,2.51456-1.97383,3.78559-1.99188,11.14971-.15835,22.30273-.1127,33.45442-.05749a13.93646,13.93646,0,0,1,3.14187.753Z" transform="translate(-80 -152)"/>
    <path d="M173.67167,198.36681a13.94205,13.94205,0,0,1-3.47689.95054c-11.00133.08223-22.00414.12376-33.00436-.00623-1.3823-.01634-2.75208-1.09176-4.12767-1.67648,1.40618-.73294,2.802-2.07737,4.22017-2.10141,10.66612-.18079,21.33724-.1574,32.00508-.04011,1.50562.01656,3.00185.888,4.50244,1.3638Z" transform="translate(-80 -152)"/>
    <path d="M113.11911,214.74c-1.30885-5.47662,1.82547-5.66169,5.88883-5.86774,5.12358-.25981,5.93076,1.99382,6.14192,6.51248.2563,5.48446-2.47105,5.55827-6.63214,5.81934C113.02382,221.54879,112.25563,218.908,113.11911,214.74Z" transform="translate(-80 -152)"/>
    <path d="M113.12876,232.84576c-1.49466-5.35091,1.4924-5.86848,5.92961-5.97113,4.51987-.10458,6.1568,1.102,6.076,5.85392-.07809,4.59039-1.07823,6.562-6.1607,6.45516C114.25811,239.08453,111.87843,238.00863,113.12876,232.84576Z" transform="translate(-80 -152)"/>
    <path d="M118.7093,191.78646c5.50374-1.23716,6.26395,1.59311,6.43635,6.299.20438,5.57883-3.05238,4.933-6.64048,5.28971-5.474.54422-5.53491-2.46954-5.68642-6.60836C112.64364,191.9837,114.60834,190.8084,118.7093,191.78646Z" transform="translate(-80 -152)"/>
    <path d="M145.49919,230.96438c2.80843.00211,5.632-.16487,8.41745.08832,1.04258.09478,1.99621,1.168,2.9904,1.79512-.92418.72184-1.82891,2.03768-2.77569,2.06867q-8.911.29167-17.83447.00453c-.89944-.02919-1.75506-1.40889-2.63095-2.1639.97085-.59828,1.90746-1.6331,2.919-1.71244C139.54033,230.81286,142.52562,230.96228,145.49919,230.96438Z" transform="translate(-80 -152)"/>
    <path d="M186.01778,250.27766c.07435,8.32067-6.885,15.48157-15.03554,15.471a15.26957,15.26957,0,0,1-14.97011-14.93678,14.96723,14.96723,0,0,1,14.94152-15.34182A15.17071,15.17071,0,0,1,186.01778,250.27766Zm-17.82692,13.04221c4.0962-6.41094,7.64367-11.77231,10.93005-17.28921.56546-.94927.02035-2.5601-.01176-3.86533-1.16324.67491-2.70234,1.07806-3.42217,2.0736-2.58216,3.57119-4.88719,7.34277-7.57337,11.46246-1.15-1.59212-1.73415-2.84351-2.70263-3.60782a10.50626,10.50626,0,0,0-3.208-1.14245c-.026,1.15559-.48735,2.55884.0029,3.42084C163.7439,257.07618,165.64024,259.57659,168.19086,263.31987Z" transform="translate(-80 -152)" style="fill: #fff"/>
    <path d="M168.19086,263.31987c-2.55062-3.74328-4.447-6.24369-5.98494-8.94791-.49025-.862-.02885-2.26525-.0029-3.42084a10.50626,10.50626,0,0,1,3.208,1.14245c.96848.76431,1.55258,2.0157,2.70263,3.60782,2.68618-4.11969,4.99121-7.89127,7.57337-11.46246.71983-.99554,2.25893-1.39869,3.42217-2.0736.03211,1.30523.57722,2.91606.01176,3.86533C175.83453,251.54756,172.28706,256.90893,168.19086,263.31987Z" transform="translate(-80 -152)"/>
  </g>
</svg>
