<svg preserveAspectRatio="xMidYMid meet" viewBox="0 0 128 128" xmlns="http://www.w3.org/2000/svg"><path d="m481 1024c-77-21-198-86-274-149-73-60-207-212-207-234 0-19 101-141 169-203 72-66 168-128 256-164 66-27 78-29 215-29s149 2 215 29c91 38 185 98 262 170 71 66 163 177 163 197 0 22-135 174-207 234-79 65-197 129-279 150-73 19-240 19-313-1zm-41-182c-47-47-62-70-75-117-37-125 9-254 115-327l25-18-30 11c-76 27-156 80-240 162l-90 87 92 89c69 68 111 99 173 130 45 23 84 41 85 41 2 0-23-26-55-58zm454 5c35-18 99-69 151-119l90-88-90-88c-60-58-114-100-162-125-39-20-74-37-78-37s14 20 39 45c61 61 90 138 83 222-7 94-48 165-132 228-19 14-18 14 10 4 16-5 56-25 89-42z" transform="matrix(.1 0 0 -.1 0 128)"/></svg>