<svg id="Layer_1" data-name="Layer 1" xmlns="http://www.w3.org/2000/svg" viewBox="0 0 102.4 102.4">
  <g>
    <path d="M173.96744,165H195.4V267.4H93V165h20.63876c-4.175,4.21439-8.22729,8.56095-12.57234,12.592-2.48015,2.30092-2.82571,4.20185-.955,7.12051a26.57642,26.57642,0,0,1,3.57456,21.99276c-.85537,3.18225-1.85191,6.33261-2.92346,9.44961-4.00257,11.64308-1.19882,21.38547,7.66409,29.82431,7.01588,6.68016,15.87241,9.72424,24.39879,13.56282a42.64718,42.64718,0,0,1,8.81354,5.69774c1.7147,1.36528,2.63945,1.41392,4.325-.00787a39.149,39.149,0,0,1,7.72818-5.223c5.54616-2.74551,11.56409-4.63125,16.86629-7.75594,9.47844-5.58584,17.68833-12.79939,17.87064-24.83538.0832-5.49308-1.64449-11.178-3.39463-16.49838-3.13442-9.5285-2.67621-18.45125,2.82365-26.91348,1.51332-2.32843,1.18766-3.95461-.77242-5.83614C182.61684,173.87981,178.32888,169.40163,173.96744,165Z" transform="translate(-93 -165)" style="fill: #fff"/>
    <path d="M173.96744,165c4.36144,4.40163,8.6494,8.87981,13.11821,13.16958,1.96008,1.88153,2.28574,3.50771.77242,5.83614-5.49986,8.46223-5.95807,17.385-2.82365,26.91348,1.75014,5.32035,3.47783,11.0053,3.39463,16.49838-.18231,12.036-8.3922,19.24954-17.87064,24.83538-5.3022,3.12469-11.32013,5.01043-16.86629,7.75594a39.149,39.149,0,0,0-7.72818,5.223c-1.68557,1.42179-2.61032,1.37315-4.325.00787a42.64718,42.64718,0,0,0-8.81354-5.69774c-8.52638-3.83858-17.38291-6.88266-24.39879-13.56282-8.86291-8.43884-11.66666-18.18123-7.66409-29.82431,1.07155-3.117,2.06809-6.26736,2.92346-9.44961a26.57642,26.57642,0,0,0-3.57456-21.99276c-1.87069-2.91866-1.52513-4.81959.955-7.12051,4.34505-4.03105,8.39738-8.37761,12.57234-12.592h1.5876c8.08528,6.62452,17.02566,6.91668,26.5201,3.7295a6.9117,6.9117,0,0,1,4.11342,0c9.4942,3.18588,18.43408,2.89024,26.52-3.72954Zm-1.12682,5.28192c-7.88111,4.68538-16.70285,5.99519-26.89354,2.88874a9.42758,9.42758,0,0,0-4.95637.22531c-8.34767,2.30332-16.3966,2.066-24.23-2.00644a4.03278,4.03278,0,0,0-3.61118.29481c-3.529,2.94644-6.81674,6.18191-9.95537,9.09439,7.1275,15.62255,7.304,19.51473,1.999,35.40429-.50094,1.50043-.92055,3.0311-1.31133,4.5647-1.75331,6.88065-.83531,13.51629,4.2764,18.42207a88.48463,88.48463,0,0,0,16.01,11.98174c5.85057,3.47949,12.31407,5.93341,18.5401,8.7686a2.86921,2.86921,0,0,0,2.11828.04869c6.58458-3.00193,13.40968-5.61684,19.60583-9.28815a78.91592,78.91592,0,0,0,15.22112-11.738c4.91721-4.87749,5.84421-11.39668,4.074-18.10565-1.00927-3.82509-2.25336-7.58952-3.43762-11.36688a31.47708,31.47708,0,0,1,2.37863-24.9374c.53727-1.02532,1.00473-2.08722,1.39431-2.90177Z" transform="translate(-93 -165)"/>
    <path d="M172.37985,165c-8.08589,6.61978-17.02577,6.91542-26.52,3.72954a6.9117,6.9117,0,0,0-4.11342,0c-9.49444,3.18718-18.43482,2.895-26.5201-3.7295Z" transform="translate(-93 -165)" style="fill: #fff"/>
    <path d="M172.84062,170.28192,184.06286,181.631c-.38958.81455-.857,1.87645-1.39431,2.90177a31.47708,31.47708,0,0,0-2.37863,24.9374c1.18426,3.77736,2.42835,7.54179,3.43762,11.36688,1.7702,6.709.8432,13.22816-4.074,18.10565a78.91592,78.91592,0,0,1-15.22112,11.738c-6.19615,3.67131-13.02125,6.28622-19.60583,9.28815a2.86921,2.86921,0,0,1-2.11828-.04869c-6.226-2.83519-12.68953-5.28911-18.5401-8.7686a88.48463,88.48463,0,0,1-16.01-11.98174c-5.11171-4.90578-6.02971-11.54142-4.2764-18.42207.39078-1.5336.81039-3.06427,1.31133-4.5647,5.305-15.88956,5.12853-19.78174-1.999-35.40429,3.13863-2.91248,6.42634-6.148,9.95537-9.09439a4.03278,4.03278,0,0,1,3.61118-.29481c7.8334,4.07245,15.88233,4.30976,24.23,2.00644a9.42758,9.42758,0,0,1,4.95637-.22531C156.13777,176.27711,164.95951,174.9673,172.84062,170.28192Zm-20.05575,61.67837c.62537-.964,2.12348-2.20811,1.99783-3.25791a16.72615,16.72615,0,0,1,4.63967-14.04422c1.76736-1.92251,1.35872-3.89635-1.33917-4.356-5.48542-.93453-9.22468-3.94719-11.92976-8.65983-1.29183-2.25055-3.312-2.55386-4.56792-.11335-2.55881,4.97216-6.62806,7.51491-11.90659,8.68853-2.91393.64788-3.35387,2.64064-1.33641,4.602,3.83264,3.726,4.86655,8.16224,4.36971,13.27048-.32577,3.34947,1.38171,4.5152,4.34069,2.976,4.48145-2.33123,8.83346-1.93142,13.25326-.00868C150.788,231.26689,151.29436,231.42012,152.78487,231.96029Zm-6.82738-44.63247-.08979-1.49855c-.93448-.43381-1.899-1.28741-2.79782-1.22307A35.56974,35.56974,0,0,0,134.891,185.826c-10.99422,3.48814-18.21714,10.81974-21.22022,22.01542-.30091,1.1218.73642,2.60257,1.15267,3.91675a16.63977,16.63977,0,0,0,2.71182-2.81958c.72725-1.21631.89478-2.75258,1.51138-4.0521,4.55963-9.60961,12.1363-14.9609,22.73437-16.12285A19.68477,19.68477,0,0,0,145.95749,187.32782Zm-1.78377,59.712c14.4203-.35389,26.86636-10.37162,29.767-23.2654.26045-1.15773-.74248-2.59967-1.15867-3.90962-.92468.932-2.337,1.70544-2.69925,2.82016-3.97494,12.23092-12.2332,18.96407-25.059,20.24864-1.07465.10763-2.02064,1.49974-3.0264,2.29509Z" transform="translate(-93 -165)" style="fill: #fff"/>
    <path d="M152.78487,231.96029c-1.49051-.54017-1.99687-.6934-2.47869-.903-4.4198-1.92274-8.77181-2.32255-13.25326.00868-2.959,1.53924-4.66646.37351-4.34069-2.976.49684-5.10824-.53707-9.54444-4.36971-13.27048-2.01746-1.96135-1.57752-3.95411,1.33641-4.602,5.27853-1.17362,9.34778-3.71637,11.90659-8.68853,1.25595-2.44051,3.27609-2.1372,4.56792.11335,2.70508,4.71264,6.44434,7.7253,11.92976,8.65983,2.69789.45963,3.10653,2.43347,1.33917,4.356a16.72615,16.72615,0,0,0-4.63967,14.04422C154.90835,229.75218,153.41024,230.99633,152.78487,231.96029ZM134.04823,213.95l3.64246,11.469h11.91394c1.42543-3.90142,2.88615-7.89945,4.028-11.02458L144.03,207.06613Z" transform="translate(-93 -165)"/>
    <path d="M145.95749,187.32782a19.68477,19.68477,0,0,1-4.17648,1.43581c-10.59807,1.16195-18.17474,6.51324-22.73437,16.12285-.6166,1.29952-.78413,2.83579-1.51138,4.0521a16.63977,16.63977,0,0,1-2.71182,2.81958c-.41625-1.31418-1.45358-2.79495-1.15267-3.91675,3.00308-11.19568,10.226-18.52728,21.22022-22.01542a35.56974,35.56974,0,0,1,8.17889-1.21979c.89882-.06434,1.86334.78926,2.79782,1.22307Z" transform="translate(-93 -165)"/>
    <path d="M144.17372,247.03977l-2.17634-1.81113c1.00576-.79535,1.95175-2.18746,3.0264-2.29509,12.82582-1.28457,21.08408-8.01772,25.059-20.24864.36228-1.11472,1.77457-1.88821,2.69925-2.82016.41619,1.31,1.41912,2.75189,1.15867,3.90962C171.04008,236.66815,158.594,246.68588,144.17372,247.03977Z" transform="translate(-93 -165)"/>
    <path d="M134.04823,213.95l9.98178-6.88382,9.60257,7.32824c-1.1418,3.12513-2.60252,7.12316-4.028,11.02458H137.69069Z" transform="translate(-93 -165)" style="fill: #fff"/>
  </g>
</svg>
