<svg id="Layer_1" data-name="Layer 1" xmlns="http://www.w3.org/2000/svg" viewBox="0 0 128 128">
  <g>
    <path d="M208,279.99988Q144.00014,280,80.00012,280,80,216.00016,80,152.00013,143.99984,152,207.99985,152,208,215.99986,208,279.99988ZM183.24484,156.132c-6.52919-.15964-10.73482,3.74813-14.797,8.11333q-32.30064,34.71035-64.67113,69.35569c-3.27007,3.51564-7.4878,6.82523-9.10425,11.05643-2.9445,7.70744-4.54066,15.97976-6.16786,24.12261-1.02462,5.1274,3.67484,8.4602,8.65817,6.37292,5.36322-2.24642,10.69274-4.63439,15.81153-7.38077a35.266,35.266,0,0,0,8.72469-6.34859c15.68739-16.305,31.19461-32.78347,46.74965-49.21572,9.03573-9.54529,18.14791-19.021,27.03512-28.703,4.887-5.324,5.60878-11.67532,2.5444-18.1197C195.13875,159.30868,189.991,156.2949,183.24484,156.132Z" transform="translate(-80 -152)" style="fill: #fff"/>
    <path d="M183.24484,156.132c6.74613.16293,11.89391,3.17671,14.78336,9.2532,3.06438,6.44438,2.34257,12.7957-2.5444,18.1197-8.88721,9.682-17.99939,19.15771-27.03512,28.703-15.555,16.43225-31.06226,32.91069-46.74965,49.21572a35.266,35.266,0,0,1-8.72469,6.34859c-5.11879,2.74638-10.44831,5.13435-15.81153,7.38077-4.98333,2.08728-9.68279-1.24552-8.65817-6.37292,1.6272-8.14285,3.22336-16.41517,6.16786-24.12261,1.61645-4.2312,5.83418-7.54079,9.10425-11.05643q32.29271-34.71771,64.67113-69.35569C172.51,159.8801,176.71565,155.97233,183.24484,156.132ZM116.41706,257.98683l65.84479-69.579-14.26376-14.341-65.2624,69.99349Zm56.90727-89.43463,13.53354,14.62708c4.18427-3.41185,7.41832-6.99091,6.28389-12.70012a9.32792,9.32792,0,0,0-7.49028-7.71721C179.91187,161.418,176.265,164.579,173.32433,168.5522Zm-73.954,81.82945-4.7289,19.0329,16.5819-7.72786Z" transform="translate(-80 -152)"/>
    <path d="M116.41706,257.98683l-13.68137-13.92646,65.2624-69.99349,14.26376,14.341Z" transform="translate(-80 -152)" style="fill: #fff"/>
    <path d="M173.32433,168.5522c2.94062-3.97324,6.58754-7.13422,12.32715-5.79025a9.32792,9.32792,0,0,1,7.49028,7.71721c1.13443,5.70921-2.09962,9.28827-6.28389,12.70012Z" transform="translate(-80 -152)" style="fill: #fff"/>
    <path d="M99.37036,250.38165l11.853,11.305-16.5819,7.72786Z" transform="translate(-80 -152)" style="fill: #fff"/>
  </g>
</svg>
