<svg id="Layer_1" data-name="Layer 1" xmlns="http://www.w3.org/2000/svg" viewBox="0 0 204.8 204.8">
  <g>
    <path d="M108.14163,318.8H42V114l204.8,0q0,102.4.00005,204.8-65.34476.00007-130.68949,0c9.47925-2.54487,16.56841-7.81071,20.5428-17.114,9.79171-22.9205,19.76932-45.76157,29.6679-68.63642,2.54685-5.88558,4.10486-12.2278,1.66622-18.17314-2.30609-5.62213-1.107-10.12487,1.41679-14.91157.80131-1.5198,1.11379-3.3617,2.13286-4.68405.99912-1.29645,2.5017-2.81188,3.973-3.04768,28.16368-4.51365,42.29659-37.01523,26.01486-60.37457-1.24428-1.78516-3.9826-3.59033-5.93762-3.49834-1.705.08023-3.86716,2.53921-4.81187,4.44938-2.99389,6.05352-5.38672,12.40245-8.309,18.49466a6.76739,6.76739,0,0,1-3.87122,3.24169c-9.40839,2.48854-9.43368,2.39232-14.851-5.694a4.99713,4.99713,0,0,0-.46267-.64708c-1.95836-2.09739-2.00028-4.20774-.7575-6.842,2.82677-5.99188,5.42113-12.1,7.91656-18.23954,2.043-5.02656-.71654-8.74337-5.85325-8.17365-25.7845,2.8598-42.11761,31.72965-30.20768,54.9168,3.5772,6.96436,3.78541,12.24768.03219,18.41486-.47814.78565-.57638,1.85605-1.16647,2.50915-1.3335,1.47588-2.63531,3.3118-4.35716,4.04471-5.71559,2.43286-10.43942,5.96323-13.182,11.532-3.39368,6.89086-6.41624,13.968-9.48928,21.01258-7.47434,17.134-14.95626,34.2653-22.29809,51.45623-5.41647,12.6827-2.56574,25.36685,8.04951,32.64431C96.77367,314.77466,102.71544,316.41131,108.14163,318.8Z" transform="translate(-42 -114)" style="fill: #fff"/>
    <path d="M108.14163,318.8c-5.42619-2.38869-11.368-4.02534-16.17326-7.3197-10.61525-7.27746-13.466-19.96161-8.04951-32.64431,7.34183-17.19093,14.82375-34.32224,22.29809-51.45623,3.073-7.04458,6.0956-14.12172,9.48928-21.01258,2.74256-5.56875,7.46639-9.09912,13.182-11.532,1.72185-.73291,3.02366-2.56883,4.35716-4.04471.59009-.6531.68833-1.7235,1.16647-2.50915,3.75322-6.16718,3.545-11.4505-.03219-18.41486-11.90993-23.18715,4.42318-52.057,30.20768-54.9168,5.13671-.56972,7.8963,3.14709,5.85325,8.17365-2.49543,6.1395-5.08979,12.24766-7.91656,18.23954-1.24278,2.6343-1.20086,4.74465.7575,6.842a4.99713,4.99713,0,0,1,.46267.64708c5.41733,8.08632,5.44262,8.18254,14.851,5.694a6.76739,6.76739,0,0,0,3.87122-3.24169c2.92229-6.09221,5.31512-12.44114,8.309-18.49466.94471-1.91017,3.10682-4.36915,4.81187-4.44938,1.955-.092,4.69334,1.71318,5.93762,3.49834,16.28173,23.35934,2.14882,55.86092-26.01486,60.37457-1.47128.2358-2.97386,1.75123-3.973,3.04768-1.01907,1.32235-1.33155,3.16425-2.13286,4.68405-2.52377,4.7867-3.72288,9.28944-1.41679,14.91157,2.43864,5.94534.88063,12.28756-1.66622,18.17314-9.89858,22.87485-19.87619,45.71592-29.6679,68.63642-3.97439,9.30326-11.06355,14.5691-20.5428,17.114Zm50.80365-97.44995c-.38426-8.70017-6.54127-15.04948-17.21691-17.45369-7.71271-1.73695-14.82655,2.13912-18.41406,10.36209q-15.0255,34.44-29.78914,68.99319a19.64473,19.64473,0,0,0-1.57707,9.22015c.86588,8.67022,7.31973,13.39178,18.18257,15.60933,6.9221,1.41308,13.5811-3.09168,17.00735-10.95872q14.84475-34.08522,29.54024-68.23521A66.63568,66.63568,0,0,0,158.94528,221.35005Zm37.27443-74.97929c-1.90388,4.37234-3.7683,8.42684-5.43535,12.56092a7.90729,7.90729,0,0,1-6.06886,5.12012c-5.04383,1.09815-10.12016,2.096-15.08882,3.47472-3.86165,1.07158-6.3041-.22628-8.34031-3.429-2.91342-4.58246-5.91314-9.12214-9.11736-13.50359a8.61973,8.61973,0,0,1-.87138-9.64075c1.78767-3.748,3.34416-7.60627,5.21856-11.91552-12.45184,4.37409-18.83661,21.6054-13.63448,34.97519a28.66224,28.66224,0,0,0,38.13793,15.7113C193.91889,174.01909,201.64417,157.51965,196.21971,146.37076Zm-52.42643,46.57938,14.51825,6.25434c1.09045-2.579,1.996-4.7207,2.88194-6.816l-14.42166-6.29317C145.86347,188.18579,144.93258,190.32815,143.79328,192.95014Z" transform="translate(-42 -114)"/>
    <path d="M158.94528,221.35005a66.63568,66.63568,0,0,1-2.267,7.53714q-14.685,34.15425-29.54024,68.23521c-3.42625,7.867-10.08525,12.3718-17.00735,10.95872C99.26783,305.86357,92.814,301.142,91.9481,292.47179a19.64473,19.64473,0,0,1,1.57707-9.22015q14.69071-34.58331,29.78914-68.99319c3.58751-8.223,10.70135-12.099,18.41406-10.36209C152.404,206.30057,158.561,212.64988,158.94528,221.35005ZM111.46861,280.352a6.73462,6.73462,0,0,0-6.72556,6.849,6.853,6.853,0,0,0,6.74246,6.87637,7.05786,7.05786,0,0,0,6.99072-7.10554A6.90945,6.90945,0,0,0,111.46861,280.352Z" transform="translate(-42 -114)" style="fill: #fff"/>
    <path d="M196.21971,146.37076c5.42446,11.14889-2.30082,27.64833-15.20007,33.35341a28.66224,28.66224,0,0,1-38.13793-15.7113c-5.20213-13.36979,1.18264-30.6011,13.63448-34.97519-1.8744,4.30925-3.43089,8.16752-5.21856,11.91552a8.61973,8.61973,0,0,0,.87138,9.64075c3.20422,4.38145,6.20394,8.92113,9.11736,13.50359,2.03621,3.2027,4.47866,4.50056,8.34031,3.429,4.96866-1.37877,10.045-2.37657,15.08882-3.47472a7.90729,7.90729,0,0,0,6.06886-5.12012C192.45141,154.7976,194.31583,150.7431,196.21971,146.37076Z" transform="translate(-42 -114)" style="fill: #fff"/>
    <path d="M143.79328,192.95014c1.1393-2.622,2.07019-4.76435,2.97853-6.85483l14.42166,6.29317c-.88593,2.0953-1.79149,4.237-2.88194,6.816Z" transform="translate(-42 -114)" style="fill: #fff"/>
    <path d="M111.46861,280.352a6.90945,6.90945,0,0,1,7.00762,6.61987,7.05786,7.05786,0,0,1-6.99072,7.10554,6.853,6.853,0,0,1-6.74246-6.87637A6.73462,6.73462,0,0,1,111.46861,280.352Z" transform="translate(-42 -114)"/>
  </g>
</svg>
