<svg xmlns="http://www.w3.org/2000/svg" viewBox="0 0 40 40"><g data-name="Layer 2"><g><path d="M20,0A20,20,0,1,1,0,19.94,20,20,0,0,1,20,0ZM7.9,33l.44-.25,5.4-2.94a1.27,1.27,0,0,0,.73-1.25c0-.54,0-1.09,0-1.63a.76.76,0,0,0-.11-.33,13.75,13.75,0,0,1-2-4.17.4.4,0,0,0-.12-.21A3,3,0,0,1,11.31,20v-2.4a3.1,3.1,0,0,1,.55-1.79.33.33,0,0,0,.07-.21q0-1.66,0-3.33a6.38,6.38,0,0,1,.45-2.56,6,6,0,0,1,3.79-3.44,10.88,10.88,0,0,1,3.25-.57,12.16,12.16,0,0,1,4.28.52,6,6,0,0,1,4.37,5.93c0,1.14,0,2.28,0,3.42a.5.5,0,0,0,.08.26,3,3,0,0,1,.54,1.75c0,.81,0,1.61,0,2.42a3,3,0,0,1-1.44,2.63.37.37,0,0,0-.16.19A15.12,15.12,0,0,1,25,26.69a.49.49,0,0,0-.09.28c0,.55,0,1.1,0,1.65a1.32,1.32,0,0,0,.82,1.32c1.06.51,2.1,1,3.15,1.57L32,33.1A17.79,17.79,0,1,0,7.9,33Zm1.84,1.49a17.73,17.73,0,0,0,20.42.1l-.23-.12c-1.78-.89-3.56-1.77-5.33-2.67A3.24,3.24,0,0,1,22.71,29c-.05-.93,0-1.86,0-2.79a.76.76,0,0,1,.18-.41c.38-.55.8-1.08,1.15-1.65a11.7,11.7,0,0,0,1.24-2.83.51.51,0,0,1,.41-.39,1.52,1.52,0,0,0,.2-.06.81.81,0,0,0,.6-.83c0-.74,0-1.48,0-2.23a1.13,1.13,0,0,0-.43-1,.64.64,0,0,1-.2-.41c0-1.38,0-2.77,0-4.15a3.75,3.75,0,0,0-1.35-3.13,5.1,5.1,0,0,0-2.15-1A11.9,11.9,0,0,0,18.75,8a7,7,0,0,0-2.29.56,3.68,3.68,0,0,0-2.25,2.72,7.59,7.59,0,0,0-.06,1.35c0,1.19,0,2.39,0,3.58a.84.84,0,0,1-.33.76.8.8,0,0,0-.31.7q0,1.2,0,2.4a.73.73,0,0,0,.37.7.89.89,0,0,1,.48.74c0,.05,0,.11,0,.17a11.55,11.55,0,0,0,2.08,4.14.78.78,0,0,1,.18.43c0,.89,0,1.78,0,2.67a3.14,3.14,0,0,1-1.44,2.6c-.72.47-1.5.86-2.26,1.27C11.9,33.35,10.82,33.93,9.74,34.52Z"/></g></g></svg>