<svg xmlns="http://www.w3.org/2000/svg" viewBox="0 0 40 36.39"><g data-name="Layer 2"><g><path d="M40,26.82H38.51c-.16,0-.22,0-.22-.2a7.1,7.1,0,0,0-1.37-4.13,7,7,0,0,0-4.65-2.84,7.62,7.62,0,0,0-5.47,1.05,7,7,0,0,0-3,4.18.24.24,0,0,0,.1.29,14.68,14.68,0,0,1,4.61,8.4,16.94,16.94,0,0,1,.25,2.55,2.45,2.45,0,0,0,0,.27H26A12.63,12.63,0,0,0,24.92,31a11,11,0,0,0-8.06-6.53A11.26,11.26,0,0,0,5.92,27.84a11.59,11.59,0,0,0-3,6.17,11.73,11.73,0,0,0-.2,2.37H.2c-.17,0-.22,0-.19-.2a.45.45,0,0,0,0-.28v-.07a.33.33,0,0,0,0-.24v-.31a3.4,3.4,0,0,0,.11-.84A14.39,14.39,0,0,1,11.18,21.9a14,14,0,0,1,11,2l.08,0h0c0-.11.08-.22.13-.33A8.68,8.68,0,0,1,29,18.12a9,9,0,0,1,7.52,1.61,8.55,8.55,0,0,1,3.46,5.95c0,.12,0,.25.07.35v.16a.06.06,0,0,0,0,.08v.19a.33.33,0,0,0,0,.24Z"/><path d="M23.34,7.34A9.18,9.18,0,0,0,15.78.11,4.48,4.48,0,0,1,15.06,0h-.31a.3.3,0,0,1-.23,0h-.71a.06.06,0,0,1-.08,0h-.12c0,.05-.06,0-.09,0-.31,0-.61.07-.91.13A9.15,9.15,0,1,0,23.34,7.34Zm-8.93,8.27a6.46,6.46,0,1,1,6.42-6.48A6.46,6.46,0,0,1,14.41,15.61Z"/><path d="M35.22,6.83a6,6,0,0,0-7.94-.6,5.31,5.31,0,0,0-2,5.69A5.75,5.75,0,0,0,30.91,16a5.86,5.86,0,0,0,3.61-1.19A5.28,5.28,0,0,0,35.22,6.83Zm-2.46,7.11A4.23,4.23,0,0,1,28,13.2a3.72,3.72,0,0,1,.26-5.65,4.2,4.2,0,0,1,6.39,1.37A4,4,0,0,1,35,10.74,3.72,3.72,0,0,1,32.76,13.94Z"/></g></g></svg>