<svg xmlns="http://www.w3.org/2000/svg" viewBox="0 0 40 39.98"><g data-name="Layer 2"><g><path d="M39.57,13a1.91,1.91,0,0,0-1.44-.69H1.87A1.89,1.89,0,0,0,0,14.41l2.14,23v.05A2.85,2.85,0,0,0,5,40h30.1a2.79,2.79,0,0,0,2.8-2.6l2.13-23A1.89,1.89,0,0,0,39.57,13ZM35.06,37.11H5a.08.08,0,0,1,0,0l-2-21.92H37.11Zm1.4-30.36a1.84,1.84,0,0,0-1.41-.66H5a1.84,1.84,0,0,0-1.42.69,2,2,0,0,0-.43,1.54L4,13.93l2.77-.44L6.08,9H34l-.68,4.52,2.76.44.84-5.62a2,2,0,0,0-.43-1.56ZM32.31.66A1.82,1.82,0,0,0,30.9,0H9.14A1.84,1.84,0,0,0,7.72.69a2,2,0,0,0-.43,1.55l.84,5.51L10.9,7.3l-.68-4.42H29.81l-.7,4.41,2.75.47.89-5.54A2,2,0,0,0,32.32.66ZM25.87,21.34H14.13a1.44,1.44,0,0,0,0,2.87H25.87a1.44,1.44,0,0,0,0-2.87Z"/></g></g></svg>