<svg xmlns="http://www.w3.org/2000/svg" viewBox="0 0 33.32 40"><g data-name="Layer 2"><g><path class="cls-1" d="M24.27,28.78A1.1,1.1,0,0,0,23,29.91c0,1,0,2,0,2.95,0,.19,0,.23-.23.23H2.42c-.17,0-.22,0-.22-.21q0-14.57,0-29.12A1.45,1.45,0,0,1,3.76,2.22H21.41A1.47,1.47,0,0,1,23,3.79c0,.79,0,1.58,0,2.36a1.1,1.1,0,1,0,2.2,0c0-.84,0-1.69,0-2.53A3.67,3.67,0,0,0,21.51,0H3.67A4,4,0,0,0,3,.06,3.66,3.66,0,0,0,0,3.71V36.3A3.66,3.66,0,0,0,3.7,40H21.51A3.64,3.64,0,0,0,25,37.49a3.59,3.59,0,0,0,.19-1.17V29.94A1.12,1.12,0,0,0,24.27,28.78ZM23,35.53c0,.24,0,.48,0,.71a1.46,1.46,0,0,1-1.54,1.54H3.75a1.45,1.45,0,0,1-1.51-1.15,7.34,7.34,0,0,1,0-1.24c0-.06,0-.08.08-.08H22.75C22.93,35.31,23,35.34,23,35.53Z"/><path class="cls-1" d="M33.3,21.68a.87.87,0,0,0-.74-.79,1.63,1.63,0,0,0-.38,0,.23.23,0,0,1-.25-.16,5.36,5.36,0,0,1-.38-1A14.62,14.62,0,0,1,31.12,16,11.4,11.4,0,0,0,31,14.39a6.87,6.87,0,0,0-13.64.45c-.07,1,0,1.93-.12,2.89a10.84,10.84,0,0,1-.58,2.7c-.13.32-.28.49-.66.46a.82.82,0,0,0-.85.76,3.16,3.16,0,0,0,3.12,3.5h3.14a1,1,0,0,0-.11,1,3.16,3.16,0,0,0,2.87,2,3.12,3.12,0,0,0,2.9-1.93,1.13,1.13,0,0,0,.05-1.07h3A3,3,0,0,0,31,25,3.17,3.17,0,0,0,33.3,21.68Zm-14.81-1a13.69,13.69,0,0,0,.59-3.3c.06-.79,0-1.59.08-2.38a5.1,5.1,0,0,1,10.11-.43,7.27,7.27,0,0,1,.09,1.4,16.12,16.12,0,0,0,.51,4.32c0,.14.08.29.13.42s.05.2-.13.2H18.64C18.43,20.88,18.43,20.82,18.49,20.65Zm6,5.71c-.89.1-1.36-.41-1.62-1.21h2.77A1.42,1.42,0,0,1,24.46,26.36Zm6-3a1.76,1.76,0,0,1-.33,0H18.39a1.4,1.4,0,0,1-1.19-.58.25.25,0,0,1,0-.07s0,0,0,0c.16,0,13.94,0,14.19,0A1.34,1.34,0,0,1,30.43,23.35Z"/></g></g></svg>