<svg xmlns="http://www.w3.org/2000/svg" viewBox="0 0 38.25 40"><g data-name="Layer 2"><g><path class="cls-1" d="M31.44,25.3a4.27,4.27,0,0,1-7.21,3.05.87.87,0,0,1-.08-1.28.89.89,0,0,1,1.28,0,2.41,2.41,0,0,0,2.67.52,2.46,2.46,0,0,0,1.6-2.23,3.18,3.18,0,0,0-.05-.62.87.87,0,0,1,1.7-.36A4.39,4.39,0,0,1,31.44,25.3Z"/><path class="cls-1" d="M38,17.19c-.37-.77-.77-1.54-1.16-2.31a.87.87,0,0,0-1.21-.39c-.2.1-.4.2-.59.31a.29.29,0,0,1-.34,0,8.32,8.32,0,0,1-1.88-1.72A26.71,26.71,0,0,1,29.7,8a9.9,9.9,0,0,0-9.12-5.68.28.28,0,0,1-.29-.16A4.07,4.07,0,0,0,16.87,0a4.26,4.26,0,0,0-4.1,6,.27.27,0,0,1,0,.31,9.85,9.85,0,0,0-2,5.38A10,10,0,0,0,11.81,17a29.26,29.26,0,0,1,1.77,4.11,11.77,11.77,0,0,1,.7,3.8.54.54,0,0,1-.39.61,2.16,2.16,0,0,0-.34.17A.89.89,0,0,0,13.11,27l1,2.06a2.09,2.09,0,0,0,3,1l11.08-5.59L37.06,20A2.07,2.07,0,0,0,38,17.19ZM15.43,2a2.43,2.43,0,0,1,3,.55A10.6,10.6,0,0,0,14.2,4.73,2.41,2.41,0,0,1,15.43,2ZM14.5,18.58c-.4-1-.9-1.88-1.32-2.83a8.25,8.25,0,0,1,14.94-7,27.31,27.31,0,0,0,3,5A12,12,0,0,0,33,15.7l.1.06L16,24.39c0-.47-.07-.91-.15-1.36A20.49,20.49,0,0,0,14.5,18.58Zm21.72-.13L26.59,23.3,16.35,28.47a1.06,1.06,0,0,1-.26.1.38.38,0,0,1-.32-.2c-.23-.47-.47-.94-.71-1.41-.07-.14,0-.14.11-.17l2.62-1.31,17.44-8.8c.15-.08.32-.27.47-.2s.17.29.25.45l.46.93C36.56,18.15,36.51,18.3,36.22,18.45Z"/><path class="cls-1" d="M21.74,30.71a1.83,1.83,0,0,0,0-.33,1.09,1.09,0,0,0-2.16.28c0,.69,0,1.37,0,2.05,0,.17,0,.2-.2.2h-17c-.16,0-.21,0-.21-.21q0-9.33,0-18.66a1.85,1.85,0,0,1,0-.23A.77.77,0,0,1,3,13.19H9a1.1,1.1,0,0,0,.9-.39A1.09,1.09,0,0,0,9.06,11H3a2.93,2.93,0,0,0-3,3v23A2.93,2.93,0,0,0,2.94,40H18.81a2.91,2.91,0,0,0,.6-.06A2.94,2.94,0,0,0,21.74,37Q21.76,33.85,21.74,30.71Zm-2.18,4.61c0,.55,0,1.1,0,1.65a.77.77,0,0,1-.86.85H3A.78.78,0,0,1,2.18,37c0-.55,0-1.1,0-1.65,0-.18,0-.23.23-.23H19.34C19.53,35.09,19.57,35.14,19.56,35.32Z"/></g></g></svg>