<svg xmlns="http://www.w3.org/2000/svg" viewBox="0 0 34.28 40"><g data-name="Layer 2"><g><path d="M23.05,34.79c0,.67,0,1.29,0,1.92a13.84,13.84,0,0,1,0,1.44A2.13,2.13,0,0,1,20.91,40h-13a2.15,2.15,0,0,1-2.22-2.21V27.42A.44.44,0,0,0,5.53,27a15.35,15.35,0,0,1-5.3-9.25A14.75,14.75,0,0,1,4,5,14.57,14.57,0,0,1,12.75.22a14.9,14.9,0,0,1,12.7,3.67,15,15,0,0,1,4.86,8.4c.08.36.12.73.18,1.1a1,1,0,0,0,.1.29l3.46,7.24a2.14,2.14,0,0,1-1.32,3,3.06,3.06,0,0,1-.79.1c-.46,0-.92,0-1.41,0v.27c0,1.53,0,3.06,0,4.59a5.92,5.92,0,0,1-5.19,5.81,18.63,18.63,0,0,1-2,.06Zm-2.38,2.83V33.75A1.21,1.21,0,0,1,22,32.42h2.65A3.2,3.2,0,0,0,26.2,32a3.59,3.59,0,0,0,2-3.3c0-1.93,0-3.85,0-5.78a1.19,1.19,0,0,1,1.28-1.27h2.34c-.05-.11-.09-.18-.12-.26Q30,18,28.34,14.49a2,2,0,0,1-.17-.52c-.08-.43-.12-.86-.21-1.29A13,13,0,0,0,13,2.57,12.54,12.54,0,0,0,5.57,6.82a12.42,12.42,0,0,0-2.93,11,13.14,13.14,0,0,0,4.82,7.77,1.5,1.5,0,0,1,.62,1.29c0,3.51,0,7,0,10.52v.26Z"/><path d="M4.34,15.56A11.59,11.59,0,0,1,13.77,4.1,11.41,11.41,0,0,1,25,8.09a1.19,1.19,0,0,1-.1,1.72,1.2,1.2,0,0,1-1.72-.2,9.3,9.3,0,0,0-15.87,2.7,9.06,9.06,0,0,0,1.44,9,1.21,1.21,0,0,1,0,1.65A1.18,1.18,0,0,1,7,22.93a11.54,11.54,0,0,1-2.64-7.37Z"/></g></g></svg>