<svg id="Layer_1" data-name="Layer 1" xmlns="http://www.w3.org/2000/svg" viewBox="0 0 128 128">
  <g>
    <path d="M80,152H208V280L80,280Q80,216,80,152Zm60.17061,42.615.86632,1.06207c-4.83552,5.41806-10.23123,10.44236-14.37925,16.34367-6.72967,9.57418-15.04806,14.39141-26.8664,11.98469a1.92309,1.92309,0,0,0-.499-.00106c-4.35138.2816-7.28154,3.18036-7.2894,7.209-.008,4.09459,2.76834,6.71448,7.43356,6.7656,6.99768.07667,14.01017.26464,20.98779-.117a11.91732,11.91732,0,0,0,6.71568-2.9632c3.51908-3.14251,6.53067-6.85333,9.82957-10.41349,2.92038,2.91819,5.623,5.02459,7.5116,7.70459a11.80749,11.80749,0,0,1,2.281,7.00616c-.36909,5.0922-1.56773,10.12824-2.49548,15.17479-.82811,4.5045,1.30256,8.5322,5.13252,9.52325,4.17152,1.07941,7.63008-.95663,8.70567-5.83655,1.8492-8.38989,3.52566-16.83593,4.74228-25.33462a9.77961,9.77961,0,0,0-2.26421-6.846c-3.63942-4.23846-7.87229-7.96733-10.87285-10.92238l10.998-12.37879c2.36476,2.58433,4.51566,5.14093,6.88723,7.47316,2.79676,2.75037,5.9356,2.95034,8.82026.178q7.56671-7.2722,14.88843-14.79767c2.62448-2.69744,2.53777-5.865.01669-8.45285-2.49-2.556-5.62-2.87517-8.4666-.34242a49.45226,49.45226,0,0,0-6.33245,6.37391c-2.76024,3.55334-5.20644,3.59386-7.84519.06506-6.82253-9.12374-15.91383-12.51776-27.07448-10.81762-1.30311.19852-2.68435-.11894-3.98868.07562-1.26071.188-2.78008.3846-3.64911,1.17073-5.30974,4.80323-10.66475,9.58709-15.59183,14.76988-2.50256,2.63245-2.69871,6.149.28372,8.89347,2.8364,2.61007,5.76682,2.0452,8.36176-.56331,3.055-3.071,5.98466-6.26936,9.10355-9.27242A26.81488,26.81488,0,0,1,140.17061,194.615Zm21.4835-17.13058A10.65429,10.65429,0,0,0,172.009,187.99538c5.62242.08118,10.97072-5.12844,10.937-10.6534-.03434-5.62875-5.20523-10.44226-11.10878-10.341A10.10694,10.10694,0,0,0,161.65411,177.48444Z" transform="translate(-80 -152)" style="fill: #fff"/>
    <path d="M140.17061,194.615a26.81488,26.81488,0,0,0-4.04927,2.71422c-3.11889,3.00306-6.04858,6.20147-9.10355,9.27242-2.59494,2.60851-5.52536,3.17338-8.36176.56331-2.98243-2.74442-2.78628-6.261-.28372-8.89347,4.92708-5.18279,10.28209-9.96665,15.59183-14.76988.869-.78613,2.3884-.98268,3.64911-1.17073,1.30433-.19456,2.68557.1229,3.98868-.07562,11.16065-1.70014,20.25195,1.69388,27.07448,10.81762,2.63875,3.5288,5.08495,3.48828,7.84519-.06506a49.45226,49.45226,0,0,1,6.33245-6.37391c2.84661-2.53275,5.9766-2.21354,8.4666.34242,2.52108,2.58785,2.60779,5.75541-.01669,8.45285q-7.31845,7.52194-14.88843,14.79767c-2.88466,2.77238-6.0235,2.57241-8.82026-.178-2.37157-2.33223-4.52247-4.88883-6.88723-7.47316l-10.998,12.37879c3.00056,2.95505,7.23343,6.68392,10.87285,10.92238a9.77961,9.77961,0,0,1,2.26421,6.846c-1.21662,8.49869-2.89308,16.94473-4.74228,25.33462-1.07559,4.87992-4.53415,6.916-8.70567,5.83655-3.83-.99105-5.96063-5.01875-5.13252-9.52325.92775-5.04655,2.12639-10.08259,2.49548-15.17479a11.80749,11.80749,0,0,0-2.281-7.00616c-1.88864-2.68-4.59122-4.7864-7.5116-7.70459-3.2989,3.56016-6.31049,7.271-9.82957,10.41349a11.91732,11.91732,0,0,1-6.71568,2.9632c-6.97762.38163-13.99011.19366-20.98779.117-4.66522-.05112-7.44155-2.671-7.43356-6.7656.00786-4.02867,2.938-6.92743,7.2894-7.209a1.92309,1.92309,0,0,1,.499.00106c11.81834,2.40672,20.13673-2.41051,26.8664-11.98469,4.148-5.90131,9.54373-10.92561,14.37925-16.34367Zm20.1991,2.85389a121.0118,121.0118,0,0,0,8.85377,8.92375c1.12265.9376,4.1062,1.37521,4.96925.60913,4.84811-4.30338,9.37434-8.98149,13.82829-13.70351.65535-.69479.33972-2.30543.47335-3.49233-1.2874.17174-2.935-.09855-3.79275.60045a88.75363,88.75363,0,0,0-6.3942,6.30994c-4.6774,4.67955-6.20392,4.68647-11.14946.08557-11.83912-11.01408-11.84023-11.04856-27.56911-10.538a7.62382,7.62382,0,0,0-4.51984,1.38878c-4.61653,4.07391-9.06516,8.34925-13.38446,12.73864-.78756.80032-.6858,2.47577-.99456,3.74724,1.40857-.17764,3.27641.15555,4.1437-.62417,3.21209-2.88776,6.09195-6.14472,9.10077-9.259,3.48232-3.60433,9.05729-4.17648,14.12327-1.27024a14.464,14.464,0,0,1-1.44919,2.44216c-9.20007,10.30933-18.377,20.64112-27.7442,30.79707-1.0366,1.12389-3.18882,1.60951-4.85629,1.68686-4.82082.22361-9.67371-.12059-14.47876.23473-1.2482.0923-2.36737,1.92939-3.54581,2.96506,1.04021,1.00524,2.04486,2.8427,3.12605,2.88892,12.945.5532,26.55431,2.81027,34.68971-11.374.08034-.14006.24646-.22859.34034-.36356,2.18593-3.14255,4.11843-2.36407,6.28631.16558a62.21966,62.21966,0,0,0,7.62888,7.89578c3.23951,2.64328,3.371,5.7921,2.72725,9.37263-.90754,5.04754-2.04927,10.07592-2.52211,15.16532-.15079,1.62308,1.50789,3.41426,2.33863,5.12853,1.45517-1.23671,3.86789-2.25711,4.20434-3.74654,1.70952-7.56765,3.03949-15.23458,4.11965-22.92053a7.41768,7.41768,0,0,0-1.71663-5.43706c-4.44677-4.66037-9.27055-8.961-13.84743-13.29712Z" transform="translate(-80 -152)"/>
    <path d="M161.65411,177.48444A10.10694,10.10694,0,0,1,171.83725,167.001c5.90355-.10126,11.07444,4.71225,11.10878,10.341.03371,5.525-5.31459,10.73458-10.937,10.6534A10.65429,10.65429,0,0,1,161.65411,177.48444Zm10.41355,6.51138a6.82129,6.82129,0,0,0,6.91722-6.37077c.153-3.864-2.85705-6.75979-6.97191-6.707a6.7412,6.7412,0,0,0-6.75309,6.51623A7.0982,7.0982,0,0,0,172.06766,183.99582Z" transform="translate(-80 -152)"/>
    <path d="M160.36971,197.46891,143.35847,214.589c4.57688,4.33609,9.40066,8.63675,13.84743,13.29712a7.41768,7.41768,0,0,1,1.71663,5.43706c-1.08016,7.68595-2.41013,15.35288-4.11965,22.92053-.33645,1.48943-2.74917,2.50983-4.20434,3.74654-.83074-1.71427-2.48942-3.50545-2.33863-5.12853.47284-5.0894,1.61457-10.11778,2.52211-15.16532.64378-3.58053.51226-6.72935-2.72725-9.37263a62.21966,62.21966,0,0,1-7.62888-7.89578c-2.16788-2.52965-4.10038-3.30813-6.28631-.16558-.09388.135-.26.2235-.34034.36356-8.1354,14.18431-21.74468,11.92724-34.68971,11.374-1.08119-.04622-2.08584-1.88368-3.12605-2.88892,1.17844-1.03567,2.29761-2.87276,3.54581-2.96506,4.805-.35532,9.65794-.01112,14.47876-.23473,1.66747-.07735,3.81969-.563,4.85629-1.68686,9.36724-10.156,18.54413-20.48774,27.7442-30.79707a14.464,14.464,0,0,0,1.44919-2.44216c-5.066-2.90624-10.641-2.33409-14.12327,1.27024-3.00882,3.11424-5.88868,6.3712-9.10077,9.259-.86729.77972-2.73513.44653-4.1437.62417.30876-1.27147.207-2.94692.99456-3.74724,4.3193-4.38939,8.76793-8.66473,13.38446-12.73864a7.62382,7.62382,0,0,1,4.51984-1.38878c15.72888-.51054,15.73-.47606,27.56911,10.538,4.94554,4.6009,6.47206,4.594,11.14946-.08557a88.75363,88.75363,0,0,1,6.3942-6.30994c.85773-.699,2.50535-.42871,3.79275-.60045-.13363,1.1869.182,2.79754-.47335,3.49233-4.45395,4.722-8.98018,9.40013-13.82829,13.70351-.86305.76608-3.8466.32847-4.96925-.60913A121.0118,121.0118,0,0,1,160.36971,197.46891Z" transform="translate(-80 -152)" style="fill: #fff"/>
    <path d="M172.06766,183.99582a7.0982,7.0982,0,0,1-6.80778-6.56158A6.7412,6.7412,0,0,1,172.013,170.918c4.11486-.05275,7.125,2.843,6.97191,6.707A6.82129,6.82129,0,0,1,172.06766,183.99582Z" transform="translate(-80 -152)" style="fill: #fff"/>
  </g>
</svg>
