<svg id="Layer_1" data-name="Layer 1" xmlns="http://www.w3.org/2000/svg" viewBox="0 0 128 128">
  <g>
    <path d="M208,280H80q0-64,0-128l128,0Q208,216,208,280Zm-31.69493-72.53914-1.69749-.46009c-.86817,2.211-2.3917,4.39455-2.48531,6.63784-.31918,7.64833-.83589,15.39847.03515,22.95853,1.08637,9.42906-2.13609,16.1926-9.27328,22.00213-2.76332,2.24929-5.18145,3.53033-8.79541,3.48026-13.98951-.19379-27.98331-.06961-41.97548-.08979-1.75936-.00253-3.5185-.15918-5.44948-.25276V171.42475h65.5139v23.85414l1.75417.381c.77818-2.28236,2.07025-4.52974,2.22848-6.8543.33842-4.97152.14678-9.98388.06733-14.97784-.09025-5.67313-1.45222-7.04244-7.15721-7.05168q-29.732-.04813-59.46411.01093c-6.15341.01165-7.56952,1.473-7.574,7.72566q-.02992,41.97689,0,83.95379c.0047,6.43472,1.39792,7.75184,8.05793,7.7607,12.32386.01638,24.69993-.69842,36.95536.21633,10.04217.74957,17.35862-2.10978,23.91859-9.72671,3.63209-4.2173,5.63312-7.96742,5.45575-13.56682C176.04346,231.26428,176.30507,219.35842,176.30507,207.46086Zm-22.63264,12.0037c-2.72721-3.36626-4.54246-5.9757-6.75919-8.1817-1.05081-1.04573-2.86867-1.32068-4.339-1.94483.31232,1.44975.24932,3.14867,1.0129,4.29884,1.73987,2.62075,4.0676,4.8498,5.82235,7.46243,2.55533,3.80463,4.71226,3.57128,7.81032.39835,10.57146-10.827,21.37247-21.42981,32.07859-32.12548a10.52606,10.52606,0,0,0,2.30395-2.58613c.40521-.86176.1645-2.02723.2094-3.05841-1.01017.07137-2.31093-.23077-2.97476.28572a53.17941,53.17941,0,0,0-5.04349,4.81592C173.88527,198.89193,163.99025,208.96758,153.67243,219.46456Zm-14.6673,16.36735c7.81711,0,15.63658.09818,23.44922-.08876,1.4393-.03444,2.851-1.22354,4.2754-1.87967-1.36727-.54864-2.73125-1.56483-4.10231-1.57445q-23.69975-.16626-47.4008.00675c-1.34408.01-2.68034,1.07241-4.02024,1.64592,1.28283.62953,2.55472,1.77664,3.85027,1.804C123.03653,235.91434,131.02172,235.83031,139.00513,235.83191Zm-.27322,13.83623c7.98976,0,15.98106.07916,23.96777-.07667,1.35656-.02648,2.69343-1.06176,4.0394-1.631-1.25737-.63611-2.51047-1.81593-3.77276-1.82584q-23.97081-.1884-47.94328-.00028c-1.27206.01-2.53489,1.19158-3.802,1.82869,1.34735.56908,2.68533,1.60312,4.04359,1.63047C123.08439,249.751,130.909,249.67028,138.73191,249.66814Zm-27.53152-42.70453H133.511c.13093-1.75916.2899-2.88437.2862-4.009-.02433-7.38569-2.79888-9.70954-10.14975-8.64217a3.82235,3.82235,0,0,1-2.3479-.3817c-3.49456-2.10217-6.17118-.05-7.48418,2.4599C112.31424,199.26023,112.14684,202.82759,111.20039,206.96361Zm11.8957-15.5432a6.81837,6.81837,0,1,0-.381-13.62288,6.48148,6.48148,0,0,0-6.72786,6.96452A6.6152,6.6152,0,0,0,123.09609,191.42041Zm31.4205-5.71571v-.02305c-3.32123,0-6.64834-.10811-9.9598.07177-.89015.04836-1.7327.97291-2.59711,1.49525.73881.63491,1.46644,1.80537,2.2182,1.82109,6.80526.14224,13.61548.127,20.42194.016.71376-.01165,1.41259-.93868,2.11836-1.441-.746-.64667-1.45987-1.802-2.2436-1.85154C161.16659,185.58418,157.83778,185.7047,154.51659,185.7047Z" transform="translate(-80 -152)" style="fill: #fff"/>
    <path d="M176.30507,207.46086c0,11.89756-.26161,23.80342.11488,35.68905.17737,5.5994-1.82366,9.34952-5.45575,13.56682-6.56,7.61693-13.87642,10.47628-23.91859,9.72671-12.25543-.91475-24.6315-.2-36.95536-.21633-6.66-.00886-8.05323-1.326-8.05793-7.7607q-.03068-41.97688,0-83.95379c.00446-6.25264,1.42057-7.714,7.574-7.72566q29.732-.05631,59.46411-.01093c5.705.00924,7.067,1.37855,7.15721,7.05168.07945,4.994.27109,10.00632-.06733,14.97784-.15823,2.32456-1.4503,4.57194-2.22848,6.8543l-1.75417-.381V171.42475h-65.5139V261.737c1.931.09358,3.69012.25023,5.44948.25276,13.99217.02018,27.986-.104,41.97548.08979,3.614.05007,6.03209-1.231,8.79541-3.48026,7.13719-5.80953,10.35965-12.57307,9.27328-22.00213-.871-7.56006-.35433-15.3102-.03515-22.95853.09361-2.24329,1.61714-4.42689,2.48531-6.63784Z" transform="translate(-80 -152)"/>
    <path d="M153.67243,219.46456c10.31782-10.497,20.21284-20.57263,30.121-30.63529a53.17941,53.17941,0,0,1,5.04349-4.81592c.66383-.51649,1.96459-.21435,2.97476-.28572-.0449,1.03118.19581,2.19665-.2094,3.05841a10.52606,10.52606,0,0,1-2.30395,2.58613c-10.70612,10.69567-21.50713,21.29849-32.07859,32.12548-3.09806,3.17293-5.255,3.40628-7.81032-.39835-1.75475-2.61263-4.08248-4.84168-5.82235-7.46243-.76358-1.15017-.70058-2.84909-1.0129-4.29884,1.47035.62415,3.28821.8991,4.339,1.94483C149.13,213.48886,150.94522,216.0983,153.67243,219.46456Z" transform="translate(-80 -152)"/>
    <path d="M139.00513,235.83111c-7.98341-.0008-15.9686.08323-23.94846-.0854-1.29555-.02737-2.56744-1.17448-3.85027-1.804,1.3399-.57351,2.67616-1.63593,4.02024-1.64592q23.69964-.1761,47.4008-.00675c1.37106.00962,2.735,1.02581,4.10231,1.57445-1.42443.65613-2.8361,1.84523-4.2754,1.87967C154.64171,235.93009,146.82224,235.83191,139.00513,235.83111Z" transform="translate(-80 -152)"/>
    <path d="M138.73191,249.66921c-7.82294.00107-15.64752.08183-23.46729-.07568-1.35826-.02735-2.69624-1.06139-4.04359-1.63047,1.26712-.63711,2.52995-1.81868,3.802-1.82869q23.97079-.18879,47.94328.00028c1.26229.00991,2.51539,1.18973,3.77276,1.82584-1.346.56922-2.68284,1.6045-4.0394,1.631C154.713,249.7473,146.72167,249.66814,138.73191,249.66921Z" transform="translate(-80 -152)"/>
    <path d="M111.20039,206.96361c.94645-4.136,1.11385-7.70338,2.615-10.573,1.313-2.50992,3.98962-4.56207,7.48418-2.4599a3.82235,3.82235,0,0,0,2.3479.3817c7.35087-1.06737,10.12542,1.25648,10.14975,8.64217.0037,1.12467-.15527,2.24988-.2862,4.009H111.20039Zm18.76018-4.071c-.071-3.68375-.31572-6.51517-5.03225-5.04194a9.28011,9.28011,0,0,1-3.9368.02392c-4.39426-.63571-5.26894.27455-4.47691,5.018Z" transform="translate(-80 -152)"/>
    <path d="M123.09609,191.42041a6.6152,6.6152,0,0,1-7.10882-6.65836,6.48148,6.48148,0,0,1,6.72786-6.96452,6.81837,6.81837,0,1,1,.381,13.62288Zm4.17052-6.88185c-2.01763-1.44662-3.32212-3.09447-4.37926-2.94868-1.1642.16056-2.90736,1.97063-2.90557,3.05965.00173,1.04549,1.8388,2.79657,3.01,2.92176C124.05157,187.68456,125.30123,186.02156,127.26661,184.53856Z" transform="translate(-80 -152)"/>
    <path d="M154.51659,185.7047c3.32119,0,6.65-.12052,9.958.08848.78373.04951,1.4976,1.20487,2.2436,1.85154-.70577.50233-1.4046,1.42936-2.11836,1.441-6.80646.11108-13.61668.12627-20.42194-.016-.75176-.01572-1.47939-1.18618-2.2182-1.82109.86441-.52234,1.707-1.44689,2.59711-1.49525,3.31146-.17988,6.63857-.07177,9.9598-.07177Z" transform="translate(-80 -152)"/>
    <path d="M129.96057,202.8926h-13.446c-.792-4.74347.08265-5.65373,4.47691-5.018a9.28011,9.28011,0,0,0,3.9368-.02392C129.64485,196.37743,129.88952,199.20885,129.96057,202.8926Z" transform="translate(-80 -152)" style="fill: #fff"/>
    <path d="M127.26661,184.53856c-1.96538,1.483-3.215,3.146-4.27483,3.03273-1.1712-.12519-3.00827-1.87627-3.01-2.92176-.00179-1.089,1.74137-2.89909,2.90557-3.05965C123.94449,181.44409,125.249,183.09194,127.26661,184.53856Z" transform="translate(-80 -152)" style="fill: #fff"/>
  </g>
</svg>
