<svg xmlns="http://www.w3.org/2000/svg" viewBox="0 0 37.51 40"><g data-name="Layer 2"><g><path class="cls-1" d="M0,22.57V7.23A1.07,1.07,0,0,1,.86,6.06a.91.91,0,0,1,.23,0H5.88A1.08,1.08,0,0,1,7,7a1.07,1.07,0,0,1-.85,1.17,1.34,1.34,0,0,1-.35,0H2.38c-.16,0-.2,0-.2.2V36.77c0,.21.08.22.24.22H13.49c.21,0,.26.05.26.26,0,.56,0,1.13,0,1.69,0,.17,0,.22-.22.22H1.19A1.1,1.1,0,0,1,0,38.34a1.44,1.44,0,0,1,0-.46Z"/><path class="cls-1" d="M15,13.77h8.25a1.08,1.08,0,0,1,.13,2.15H6.85A1.1,1.1,0,0,1,5.68,15a1.08,1.08,0,0,1,1-1.24H15Z"/><path class="cls-1" d="M29.22,11.76c0,1.53,0,3.06,0,4.59,0,.18-.06.23-.23.22-.59,0-1.17,0-1.75,0-.18,0-.21-.05-.21-.22q0-3.94,0-7.91c0-.21-.05-.27-.26-.27-1.15,0-2.29,0-3.44,0a1.09,1.09,0,0,1-1.07-.77,1.08,1.08,0,0,1,1-1.38h4.75a1.08,1.08,0,0,1,1.14,1.16C29.23,8.71,29.22,10.23,29.22,11.76Z"/><path class="cls-1" d="M10.16,21.94H6.82a1.07,1.07,0,0,1-1.13-.89,1.06,1.06,0,0,1,.83-1.23,2.33,2.33,0,0,1,.37,0h6.62c.18,0,.24,0,.24.22,0,.59,0,1.17,0,1.75,0,.16-.05.2-.2.19Z"/><path class="cls-1" d="M10.12,28H6.73a1.07,1.07,0,1,1,.06-2.14h6.75c.16,0,.21,0,.21.2,0,.59,0,1.17,0,1.75,0,.19-.06.21-.22.21-1.14,0-2.28,0-3.41,0Z"/><path class="cls-1" d="M37.51,23.4a3.13,3.13,0,0,0-.12-.86,3.69,3.69,0,0,0-3.63-2.76H31.57c-.13,0-.18,0-.17-.17s0-.34,0-.51a1.09,1.09,0,0,0-2.17,0c0,.18,0,.37,0,.55s0,.15-.15.15H23.69c-.12,0-.15,0-.14-.15s0-.34,0-.51a1.08,1.08,0,0,0-1-1.06,1.1,1.1,0,0,0-1.17.85,2.36,2.36,0,0,0,0,.65c0,.17,0,.22-.21.22-.87,0-1.74,0-2.6,0a3.63,3.63,0,0,0-3.27,3.35c0,1.38,0,2.76,0,4.13,0,3,0,6,0,8.93a4,4,0,0,0,.13,1.08A3.68,3.68,0,0,0,19,40h8.33c2.23,0,4.45,0,6.68,0a3.62,3.62,0,0,0,3.49-3.61Q37.52,29.89,37.51,23.4ZM17.44,25.56c0-.66,0-1.33,0-2a1.53,1.53,0,0,1,1.63-1.63h2.12c.14,0,.18,0,.18.18a2.51,2.51,0,0,0,0,.67,1.11,1.11,0,0,0,1.17.87,1.08,1.08,0,0,0,1-1.07c0-.16,0-.32,0-.48s0-.17.17-.17H29c.18,0,.23,0,.21.22a4.21,4.21,0,0,0,0,.5,1.08,1.08,0,0,0,2.16,0c0-.19,0-.37,0-.55s0-.17.15-.17c.77,0,1.54,0,2.32,0a1.48,1.48,0,0,1,1.45,1.52c0,.72,0,1.43,0,2.15,0,.17-.06.19-.21.19H17.69C17.49,25.81,17.43,25.76,17.44,25.56ZM35.32,36.22a1.51,1.51,0,0,1-1.62,1.62H19.09a1.52,1.52,0,0,1-1.65-1.65v-8c0-.2,0-.26.24-.26H35.07c.19,0,.26,0,.26.24Q35.32,32.21,35.32,36.22Z"/><path class="cls-1" d="M18.88,3.15c-.13,0-.17,0-.19-.17A3.63,3.63,0,0,0,16.23.2,5.85,5.85,0,0,0,14.15,0a3.66,3.66,0,0,0-3.61,3,.19.19,0,0,1-.21.18A3.39,3.39,0,0,0,7.45,7.51,3.43,3.43,0,0,0,10.82,9.9H18.3a4.43,4.43,0,0,0,.63,0,3.38,3.38,0,0,0-.05-6.72Zm-.63,4.6H10.71A1.22,1.22,0,0,1,9.5,6.34a1.24,1.24,0,0,1,1.14-1h.81a1.1,1.1,0,0,0,1.2-1.19,3.05,3.05,0,0,1,0-.8A1.49,1.49,0,0,1,14,2.18a7.62,7.62,0,0,1,1.17,0,1.47,1.47,0,0,1,1.37,1.38c0,.2,0,.41,0,.61A1.09,1.09,0,0,0,17.7,5.28h.54c.91,0,1.49.48,1.49,1.23S19.16,7.75,18.25,7.75Z"/></g></g></svg>