<svg version="1.1" xmlns="http://www.w3.org/2000/svg" xmlns:xlink="http://www.w3.org/1999/xlink" x="0px" y="0px"
	 viewBox="0 0 800 600" style="enable-background:new 0 0 800 600;" xml:space="preserve">
<path d="M521.3,75.4c1.6,0.6,3.4,1.1,4.9,2c3.8,2.2,5.7,5.7,6.2,10c0.1,1.1,0.1,2.2,0.1,3.2c0,65.6,0,131.3,0,196.9
	c0,7.6-3.5,12.6-9.9,14.3c-8,2.1-16.1-3.8-16.5-12.1c-0.1-1.2,0-2.3,0-3.5c0-60.4,0-120.8,0-181.2c0-1,0-2,0-3.1
	c-82,0-163.9,0-246,0c0,1,0,1.9,0,2.8c0,15,0,30.1,0,45.1c0,1.8,0,3.6-0.3,5.3c-1.1,6.4-5.6,10.5-12.2,10.9
	c-3.6,0.2-7.2,0.2-10.9,0.2c-14.3,0-28.5,0-42.8,0c-0.9,0-1.8,0-2.8,0c0,111,0,221.8,0,332.8c105,0,209.9,0,315,0c0-1,0-1.9,0-2.8
	c0-17.4,0-34.9,0-52.3c0-7.5,5.3-13.2,12.4-13.6c7.6-0.4,13.9,5.1,14,12.8c0.2,14,0.1,27.9,0.1,41.9c0,8-0.2,16,0.1,24.1
	c0.3,8.2-2.5,14.1-10.8,16.5c-115.5,0-231.1,0-346.6,0c-2.3-1.1-4.7-2-6.8-3.5c-2.7-1.9-3.5-5.1-4.3-8.1c0-120.6,0-241.2,0-361.9
	c1.6-2.7,2.8-5.9,5-8.1c20.5-20.5,41.1-40.9,61.7-61.3c3.1-3.1,6.3-6.1,10.6-7.4C334.7,75.4,428,75.4,521.3,75.4z M233.2,119.6
	c-6.6,6.6-13.5,13.5-20,20c6.2,0,13.1,0,20,0C233.2,132.6,233.2,125.8,233.2,119.6z"/>
<path d="M637.9,275.7c-1.5,9.1-7.1,15.7-13.2,22.2c-41.1,43.6-82.1,87.3-123.1,130.9c-3,3.2-6.4,5.7-10.3,7.6
	c-12.5,6.1-24.8,12.3-37.2,18.5c-5.9,2.9-11.2,2.2-15.6-1.9c-3.7-3.4-5-7.7-3.8-12.4c3.3-13.8,6.8-27.5,10.5-41.2
	c0.8-2.9,2.8-5.7,4.9-7.9c27.1-29,54.3-57.9,81.5-86.9c16.6-17.7,33.3-35.4,49.9-53.1c5.7-6.1,12.5-10.1,21-11.1
	c15.8-1.8,28.7,6.3,33.8,21.5c0.7,2.1,1.2,4.2,1.8,6.4C637.9,270.8,637.9,273.3,637.9,275.7z M468.2,418.5c2-1,3.7-1.6,5.2-2.6
	c3.3-2,7.2-3.6,9.8-6.4c36.5-38.6,72.9-77.3,109.3-116c5.5-5.8,11-11.7,16.5-17.5c2.7-2.9,2.8-6,0.5-8.1c-2.3-2.1-5.2-1.8-7.9,1
	c-1.1,1.1-2.1,2.2-3.2,3.4c-41.4,44-82.8,88.1-124.3,132C470.2,408.3,468.7,412.9,468.2,418.5z"/>
<path class="st0" d="M164.1,514.1c0.9,3,1.7,6.2,4.3,8.1c2.1,1.5,4.5,2.4,6.8,3.5c-3.7,0-7.4,0-11.1,0
	C164.1,521.8,164.1,517.9,164.1,514.1z"/>
<path d="M345.7,288.4c-35.1,0-70.2,0-105.3,0c-6.7,0-11.4-3.2-12.6-9c-0.6-2.9-0.5-6.1,0.1-8.9c1.1-4.7,4.5-7.4,9.2-8.3
	c1.4-0.2,2.8-0.3,4.1-0.3c69.7,0,139.4,0,209.1,0c3.1,0,6,0.3,8.6,2.1c5.2,3.5,6.3,9.6,4.7,16c-1.3,5.2-6,8.4-11.9,8.4
	c-22.1,0-44.1,0-66.2,0C372.4,288.4,359.1,288.4,345.7,288.4z"/>
<path d="M345.9,350.7c-35,0-70-0.1-105,0.1c-11.9,0.1-15.9-10.3-12.3-19.5c1.7-4.4,5.4-6.6,10.1-6.9c0.6,0,1.2,0,1.9,0
	c70.3,0,140.5,0,210.8-0.1c7.5,0,12.2,4.8,12.9,9.9c0.6,4.5,0.5,9-2.8,12.6c-2.7,2.9-6.1,4-10,4C416.2,350.6,381,350.7,345.9,350.7z
	"/>
<path d="M345.7,226.2c-35.2,0-70.3,0-105.5,0c-6.5,0-11.3-3.4-12.4-9.2c-1.5-8.1,0.8-14.8,9-16.9c1-0.3,2.1-0.3,3.2-0.3
	c70.6,0,141.3,0,211.9,0c6.7,0,11.7,4.4,12.4,10.7c0.9,8.2-2.6,14-9.4,15.5c-1.3,0.3-2.6,0.3-3.9,0.3
	C415.9,226.2,380.8,226.2,345.7,226.2z"/>
</svg>
