<svg xmlns="http://www.w3.org/2000/svg" viewBox="0 0 33.04 40"><g data-name="Layer 2"><g><path class="cls-1" d="M15.83,3.68,14,1.92A1.08,1.08,0,0,1,13.67.85a1,1,0,0,1,.77-.8,1.06,1.06,0,0,1,1.09.3l2.71,2.76.56.57a1.11,1.11,0,0,1,0,1.59Q17.15,7,15.49,8.62a1.06,1.06,0,0,1-1.51,0,1.12,1.12,0,0,1-.06-1.55c.27-.29.55-.56.82-.84,0,0,.11-.08.13-.17A13,13,0,0,0,11.22,7,14,14,0,0,0,2.5,17.65a14.22,14.22,0,0,0,4.77,14,13.45,13.45,0,0,0,5.31,2.89,1.11,1.11,0,0,1,.83,1.09,1.08,1.08,0,0,1-.78,1,1.09,1.09,0,0,1-.67,0,16.22,16.22,0,0,1-7.28-4.44,16.48,16.48,0,0,1-4.46-9A16.81,16.81,0,0,1,10.42,5a16.55,16.55,0,0,1,5.24-1.17h.1Z"/><path class="cls-1" d="M19.44,37.07l1.24.9a1.12,1.12,0,0,1,.39,1.37,1.08,1.08,0,0,1-1.66.44l-2.78-2-1-.7a1.11,1.11,0,0,1-.27-1.61l2.68-3.81a1.08,1.08,0,0,1,1.52-.3,1.11,1.11,0,0,1,.29,1.54c-.44.64-.89,1.27-1.33,1.9l-.13.19a8.71,8.71,0,0,0,1.31-.23A14.35,14.35,0,0,0,30.52,23.57,14.35,14.35,0,0,0,26,9.63,13.37,13.37,0,0,0,21.26,6.8a1.13,1.13,0,0,1-.8-1.44,1.08,1.08,0,0,1,1.43-.68,15.92,15.92,0,0,1,5,2.81,16.5,16.5,0,0,1,5.8,9.64,16.81,16.81,0,0,1-10.11,19A16,16,0,0,1,19.44,37.07Z"/><path class="cls-1" d="M16.51,19.92a8.14,8.14,0,0,1,7.92,6.42,8.25,8.25,0,0,1,.2,1.85,1.11,1.11,0,0,1-1,1.07,1.07,1.07,0,0,1-1.17-.83,6,6,0,0,1-.06-.74,5.91,5.91,0,0,0-11.73-.61,11.11,11.11,0,0,0-.11,1.16,1.09,1.09,0,0,1-.95,1,1.11,1.11,0,0,1-1.17-.76A1.45,1.45,0,0,1,8.41,28a8.13,8.13,0,0,1,4-6.87A7.58,7.58,0,0,1,16.51,19.92Z"/><path class="cls-1" d="M16.54,10.74a4.37,4.37,0,1,0,4.28,4.39A4.33,4.33,0,0,0,16.54,10.74Zm0,6.52a2.15,2.15,0,1,1,2.14-2.14A2.14,2.14,0,0,1,16.5,17.26Z"/></g></g></svg>