<svg id="Layer_1" data-name="Layer 1" xmlns="http://www.w3.org/2000/svg" viewBox="0 0 128 128">
  <g>
    <path d="M80,280V152H208V280Zm56.20844-84.42687c-8.47058-8.48872-16.51252-16.65691-24.76462-24.607-.64786-.62416-3.17343-.2255-4.11507.55543-2.8076,2.32844-5.2611,5.08393-7.8524,7.67314-7.81915,7.81287-8.30006,10.47848-3.39407,20.36147a58.75253,58.75253,0,0,0,4.25616,7.29407c12.11789,17.51912,26.96075,32.55676,43.53448,45.75018,6.89606,5.48958,15.03148,9.51331,22.88731,13.66642,3.73354,1.97377,7.62286,1.1493,10.75179-2.401,3.18636-3.61545,6.69022-6.96837,10.22468-10.25374,2.41956-2.249,2.85481-3.97341.19369-6.51928-6.97681-6.67463-13.77812-13.53795-20.49986-20.471-2.22734-2.29739-3.97858-2.57429-6.13137-.08635-2.15033,2.48511-4.446,4.84447-6.56224,7.13375l-28.32827-27.78866Zm49.74182-8.836H172.76347V174.263H154.93015v12.81443H142.23836V205.079h12.85972v12.645h18.01311V204.89629h12.83907Z" transform="translate(-80 -152)" style="fill: #fff"/>
    <path d="M136.20844,195.57313l-9.79979,10.30743,28.32827,27.78866c2.11623-2.28928,4.41191-4.64864,6.56224-7.13375,2.15279-2.48794,3.904-2.211,6.13137.08635,6.72174,6.93307,13.523,13.79639,20.49986,20.471,2.66112,2.54587,2.22587,4.27024-.19369,6.51928-3.53446,3.28537-7.03832,6.63829-10.22468,10.25374-3.12893,3.55032-7.01825,4.37479-10.75179,2.401-7.85583-4.15311-15.99125-8.17684-22.88731-13.66642-16.57373-13.19342-31.41659-28.23106-43.53448-45.75018a58.75253,58.75253,0,0,1-4.25616-7.29407c-4.906-9.883-4.42508-12.5486,3.39407-20.36147,2.5913-2.58921,5.0448-5.3447,7.8524-7.67314.94164-.78093,3.46721-1.17959,4.11507-.55543C119.69592,178.91622,127.73786,187.08441,136.20844,195.57313Zm-26.819-20.18455c-14.73962,13.7559-15.18384,15.86428-4.39018,30.90183a215.04428,215.04428,0,0,0,42.24147,43.62374c6.28881,4.939,13.70712,8.48579,20.80257,12.31137a5.91972,5.91972,0,0,0,5.35065-.48292c4.12878-3.479,7.828-7.46765,11.29179-10.87219l-20.73885-20.85c-3.09358,2.90223-6.42365,6.02633-10.404,9.76054l-34.74648-34.894,11.69112-8.37772Z" transform="translate(-80 -152)"/>
    <path d="M185.95026,186.73712v18.15917H173.11119v12.82762H155.09808V205.079H142.23836V187.07742h12.69179V174.263h17.83332v12.47413ZM158.99993,178.099a65.92717,65.92717,0,0,0,.04679,7.27532c.50134,4.28869-.95134,6.24192-5.49251,5.678a57.73647,57.73647,0,0,0-7.16183-.05249v9.66c4.17486.327,9.24446-.72431,11.35074,1.30305,2.03881,1.96243,1.02,7.09345,1.374,10.82992.02741.28929.29061.55625.45991.862h9.42323c0-2.8216.17981-5.31648-.0425-7.775-.32653-3.61121.87985-5.29892,4.72975-4.92716,2.59423.25051,5.23223.04773,8.01213.04773V190.99827c-3.09649,0-5.90533-.1351-8.69535.03625-3.071.18862-4.20776-1.09906-4.03834-4.10022.16427-2.91015.03563-5.83683.03563-8.8353Z" transform="translate(-80 -152)"/>
    <path d="M109.38946,175.38858l21.098,21.12058-11.69112,8.37772,34.74648,34.894c3.98039-3.73421,7.31046-6.85831,10.404-9.76054l20.73885,20.85c-3.46374,3.40454-7.163,7.39323-11.29179,10.87219a5.91972,5.91972,0,0,1-5.35065.48292c-7.09545-3.82558-14.51376-7.37239-20.80257-12.31137a215.04428,215.04428,0,0,1-42.24147-43.62374C94.20562,191.25286,94.64984,189.14448,109.38946,175.38858Zm-.58239,3.4129-1.68477,1.69861c2.68412,2.65672,5.35169,5.33177,8.15169,7.86015.06714.06064,1.61342-1.51677,2.4698-2.33017C115.01528,183.27766,113.26989,179.179,108.80707,178.80148Z" transform="translate(-80 -152)" style="fill: #fff"/>
    <path d="M158.99993,178.099h10.00169c0,2.99847.12864,5.92515-.03563,8.8353-.16942,3.00116.96734,4.28884,4.03834,4.10022,2.79-.17135,5.59886-.03625,8.69535-.03625V201.0004c-2.7799,0-5.4179.20278-8.01213-.04773-3.8499-.37176-5.05628,1.31595-4.72975,4.92716.22231,2.45852.0425,4.9534.0425,7.775h-9.42323c-.1693-.3057-.4325-.57266-.45991-.862-.354-3.73647.66477-8.86749-1.374-10.82992-2.10628-2.02736-7.17588-.97608-11.35074-1.30305v-9.66a57.73647,57.73647,0,0,1,7.16183.05249c4.54117.56387,5.99385-1.38936,5.49251-5.678A65.92717,65.92717,0,0,1,158.99993,178.099Z" transform="translate(-80 -152)" style="fill: #fff"/>
    <path d="M108.80707,178.80148c4.46282.37749,6.20821,4.47618,8.93672,7.22859-.85638.8134-2.40266,2.39081-2.4698,2.33017-2.8-2.52838-5.46757-5.20343-8.15169-7.86015Z" transform="translate(-80 -152)"/>
  </g>
</svg>
