<svg preserveAspectRatio="xMidYMid meet" viewBox="0 0 128 128" xmlns="http://www.w3.org/2000/svg"><g transform="matrix(.1 0 0 -.1 0 128)"><path d="m240 1230c-11-11-20-28-20-39 0-15-10-20-55-26-42-5-62-13-85-36l-30-31v-378-378l31-31 31-31h189 190l-3 23c-3 22-5 22-177 25-145 2-178 5-193 19-17 15-18 42-18 373 0 403-3 386 79 397 37 5 41 3 41-15 0-34 27-52 79-52 50 0 66 10 73 45 2 11 10 20 18 20s16-9 18-20c7-35 23-45 73-45 51 0 79 18 79 51 0 31 25 22 35-13 10-31 13-33 63-36 58-3 79 7 84 41 3 19 9 22 51 21 35 0 53-6 70-22 20-21 22-34 25-160 2-75 7-141 12-146 6-5 16-4 25 4 24 20 18 283-7 318-27 39-56 54-119 59-53 5-59 8-59 29 0 35-26 54-74 54s-76-22-76-58c0-13-6-22-15-22s-15 9-15 23c0 34-30 57-74 57-53 0-76-15-76-50 0-23-4-30-20-30s-20 7-20 30c0 35-23 50-74 50-23 0-43-7-56-20zm80-80c0-47-2-50-25-50s-25 4-25 43c0 48 5 57 32 57 15 0 18-8 18-50zm188-2c3-46 2-48-22-48s-26 3-26 51c0 47 2 50 23 47 19-3 22-10 25-50zm182 2c0-47-2-50-25-50s-25 4-25 43c0 48 5 57 32 57 15 0 18-8 18-50z"/><path d="m255 915c-60-59-2-161 80-141 97 24 79 166-20 166-25 0-44-8-60-25zm89-47c8-14 7-21-6-34-30-30-75 9-48 42 16 18 39 15 54-8z"/><path d="m510 915c-51-55-13-145 61-145 72 0 109 105 53 149-37 29-85 27-114-4zm88-57c2-20-2-28-19-33-30-10-53 19-38 47 15 29 53 20 57-14z"/><path d="m753 756c-107-35-193-118-234-224-29-77-24-214 11-285 112-235 433-286 603-97 75 84 92 128 92 250 0 93-3 111-27 162-34 72-98 137-173 173-48 24-74 30-144 32-54 2-102-2-128-11zm252-68c239-124 232-464-12-575-160-73-361 9-422 173-67 176 26 365 209 425 14 5 59 7 100 5 57-2 87-9 125-28z"/><path d="m842 628c-7-7-12-40-12-80 0-55-4-72-20-88-27-27-27-90 0-115 29-26 84-24 112 3 19 17 38 22 98 24 69 3 75 5 78 26s1 22-76 22c-74 0-80 2-90 24-6 13-20 27-31 31-18 5-21 16-23 82-3 76-12 95-36 71zm46-222c4-21-14-37-35-29-14 5-18 35-6 47s38 1 41-18z"/><path d="m256 674c-55-55-18-144 59-144s114 89 59 144c-36 35-82 35-118 0zm88-46c8-14 7-21-6-34-30-30-75 9-48 42 16 18 39 15 54-8z"/></g></svg>