<svg xmlns="http://www.w3.org/2000/svg" viewBox="0 0 37.42 40"><g data-name="Layer 2"><g><path class="cls-1" d="M3.75,14c0,.11.1.14.15.2l9.78,9.76a1.11,1.11,0,1,1-1.56,1.56L1,14.41l-.68-.68a1.09,1.09,0,0,1,0-1.61L12.13.37a1.11,1.11,0,1,1,1.55,1.57L4,11.56l-.18.19h.37c2.74-.07,5.49-.11,8.23,0a61.06,61.06,0,0,1,8.33.71,24.31,24.31,0,0,1,6.41,1.92,14.69,14.69,0,0,1,7.12,7.25,27.6,27.6,0,0,1,2,6.41,58.56,58.56,0,0,1,.88,7c.1,1.29.17,2.59.21,3.88a1.1,1.1,0,0,1-2.19.16c0-.77-.08-1.53-.12-2.29-.1-1.91-.26-3.81-.52-5.7A34.46,34.46,0,0,0,33.27,25a16.1,16.1,0,0,0-2.69-5.22,12.68,12.68,0,0,0-5.73-4,25.34,25.34,0,0,0-5.22-1.27,69.14,69.14,0,0,0-9.54-.59c-2,0-4.08,0-6.12.08Z"/></g></g></svg>