<svg id="Layer_1" data-name="Layer 1" xmlns="http://www.w3.org/2000/svg" viewBox="0 0 128 128">
  <g>
    <path d="M80,280V152H208V280Zm9.18242-63.32015c0,16.66447.13184,33.33072-.09146,49.9922-.05677,4.23567,1.3269,5.35281,5.41371,5.30773,17.66218-.19475,35.32774-.08407,52.99206-.084,9.49876.00006,18.99756-.01293,28.49624.01293,2.11454.00576,4.41454.03264,3.93436-2.94559-.62785-3.89417,1.71053-4.96944,4.61736-6.38265,9.08382-4.4163,14.35153-11.90308,15.23979-21.916.92711-10.45074-2.79738-19.893-12.07166-24.5513-7.39895-3.71638-8.53332-8.43753-7.74088-15.25385a11.86435,11.86435,0,0,0-.04141-4.476c-.686-2.40835-1.28534-5.15716-2.85389-6.9446q-11.20632-12.77025-23.02355-24.99581a10.70626,10.70626,0,0,0-6.75011-3.12336c-17.66066-.25441-35.32835-.00541-52.98978-.2311-4.41855-.05646-5.2406,1.68615-5.20176,5.59866C89.27683,183.35,89.18175,200.01537,89.18242,216.67985Z" transform="translate(-80 -152)" style="fill: #fff"/>
    <path d="M89.18209,216.67985c-.00034-16.66448.09474-33.3299-.07065-49.99273-.03884-3.91251.78321-5.65512,5.20176-5.59866,17.66143.22569,35.32912-.02331,52.98978.2311a10.70626,10.70626,0,0,1,6.75011,3.12336q11.82315,12.20031,23.02355,24.99581c1.56855,1.78744,2.1679,4.53625,2.85389,6.9446a11.86435,11.86435,0,0,1,.04141,4.476c-.79244,6.81632.34193,11.53747,7.74088,15.25385,9.27428,4.65833,12.99877,14.10056,12.07166,24.5513-.88826,10.013-6.156,17.49974-15.23979,21.916-2.90683,1.41321-5.24521,2.48848-4.61736,6.38265.48018,2.97823-1.81982,2.95135-3.93436,2.94559-9.49868-.02586-18.99748-.01287-28.49624-.01293-17.66432-.0001-35.32988-.11078-52.99206.084-4.08681.04508-5.47048-1.07206-5.41371-5.30773C89.31426,250.01057,89.18242,233.34432,89.18209,216.67985Zm63.24707,2.74358c-9.16857-.8589-18.10417.70616-26.76282-1.84611a8.59814,8.59814,0,0,1,5.4358-1.56c15.51939,1.49617,30.45-1.64591,45.26569-5.95185V194.95224c-7.38158,0-14.38282-.3279-21.33608.10861-5.131.3221-6.68936-1.38318-6.4342-6.444.39878-7.90943.10564-15.85375.10564-24.25491-2.55388,0-4.3471,0-6.1403,0-14.82089.00009-29.64505.17453-44.46071-.10387-4.562-.08573-5.87909,1.16719-5.84823,5.80292.20612,30.97263.10352,61.94728.1187,92.92126.00087,1.77268.15607,3.54527.261,5.77681,11.93614,0,23.39184-.0003,34.84753.00007,14.98747.00048,29.97513.03511,44.96211-.04932,1.51142-.00852,3.01879-.73529,4.528-1.12874-5.61025-2.145-11.43166-2.19817-15.61629-4.842-6.27179-3.9625-12.61257-4.36248-19.43661-4.1611-3.99321.11784-7.99588.11917-11.98746-.02135a20.50076,20.50076,0,0,1-4.20875-1.03762l.13212-1.83132h25.03636c-4.13459-10.31573-4.13459-10.3162-13.49921-10.32389-2.33137-.00192-4.667.08567-6.99257-.03025a40.83233,40.83233,0,0,1-4.42775-.685l.018-1.99925h19.63027V231.59287H125.89014l.02877-1.8564a38.99153,38.99153,0,0,1,4.51511-.583c4.49477-.07541,8.99442.06433,13.486-.077,1.17631-.037,2.79623-.44781,3.40675-1.27884C149.15489,225.3092,150.58425,222.52776,152.42916,219.42343Zm21.13149-4.78852a23.84291,23.84291,0,1,0-1.2285,47.6689c12.83966.24763,24.00444-10.15363,24.4508-22.77866A23.918,23.918,0,0,0,173.56065,214.63491Zm1.0454-23.1936-22.39834-24.0556v24.0556Z" transform="translate(-80 -152)"/>
    <path d="M152.42916,219.42343c-1.84491,3.10433-3.27427,5.88577-5.10243,8.37423-.61052.831-2.23044,1.24183-3.40675,1.27884-4.49154.14131-8.99119.00157-13.486.077a38.99153,38.99153,0,0,0-4.51511.583l-.02877,1.8564h19.72928v11.05642H125.98915l-.018,1.99925a40.83233,40.83233,0,0,0,4.42775.685c2.32558.11592,4.6612.02833,6.99257.03025,9.36462.00769,9.36462.00816,13.49921,10.32389H125.85435l-.13212,1.83132a20.50076,20.50076,0,0,0,4.20875,1.03762c3.99158.14052,7.99425.13919,11.98746.02135,6.824-.20138,13.16482.1986,19.43661,4.1611,4.18463,2.64383,10.006,2.697,15.61629,4.842-1.50924.39345-3.01661,1.12022-4.528,1.12874-14.987.08443-29.97464.0498-44.96211.04932-11.45569-.00037-22.91139-.00007-34.84753-.00007-.10495-2.23154-.26015-4.00413-.261-5.77681-.01518-30.974.08742-61.94863-.1187-92.92126-.03086-4.63573,1.28618-5.88865,5.84823-5.80292,14.81566.2784,29.63982.104,44.46071.10387,1.7932,0,3.58642,0,6.1403,0,0,8.40116.29314,16.34548-.10564,24.25491-.25516,5.06079,1.30324,6.76607,6.4342,6.444,6.95326-.43651,13.9545-.10861,21.33608-.10861v15.11324c-14.81566,4.30594-29.7463,7.448-45.26569,5.95185a8.59814,8.59814,0,0,0-5.4358,1.56C134.325,220.12959,143.26059,218.56453,152.42916,219.42343Zm-32.43452-25.35678c6.1541,0,12.31265-.1398,18.4605.05621,3.30744.10546,4.41954-1.153,4.29647-4.36279-.18465-4.81647-.1173-9.64637-.02647-14.4681.048-2.54772-.99764-3.56369-3.5454-3.552q-18.7112.08617-37.4228-.01569c-2.80923-.01984-3.83991,1.05152-3.76008,3.82927.13852,4.81937.1494,9.6496-.01162,14.46775-.10033,3.00238.98892,4.17256,4.04737,4.08986C108.016,193.94942,114.00687,194.0637,119.99464,194.06665Zm-.34805,43.17427-.02058-2.64233c-7.1242,0-14.25037-.06549-21.36818.14769-.47337.01419-1.23278,2.13646-1.26293,3.29375-.13833,5.3104.022,10.62836-.10218,15.93945-.06523,2.78959,1.037,3.893,3.81572,3.81361,4.314-.12324,8.6341-.02507,12.95161-.03212,6.64644-.01086,8.33419-3.43843,4.21261-10.69158l-1.69964,6.905H100.23891V237.24092Zm-.035-31.788.04731-1.60661c-.52465-.30444-1.04539-.866-1.57455-.87406-6.16205-.09366-12.33109-.24233-18.48223.01194-.93051.03847-2.48893,2.02038-2.5452,3.163-.27017,5.48606-.24365,10.99732-.02762,16.488.04459,1.13309,1.31121,3.14893,2.07338,3.17728,6.75177.25111,13.5168.14588,20.89767.14588l-.78646-9.59116-1.87994.06547-1.11476,6.00136H100.36167V205.45293Zm6.41221-1.94333c4.55144,3.42076,37.29411,2.92769,40.26983,0Zm-19.12882,49.54007c4.9381-3.61982,8.97848-6.50183,12.89481-9.54356.54932-.42663.49077-1.63589.71359-2.48289-.87218.00164-1.97277-.34024-2.5783.06241-3.17577,2.1117-6.22618,4.41192-9.41339,6.714l-3.91565-5.4692-1.71951.869Zm-2.2071-42.39325-1.7424.86305,4.09,9.74826,14.28247-10.72311-1.32016-2.05858L108.296,215.86017Z" transform="translate(-80 -152)" style="fill: #fff"/>
    <path d="M173.56065,214.63491a23.918,23.918,0,0,1,23.2223,24.89024c-.44636,12.625-11.61114,23.02629-24.4508,22.77866a23.84291,23.84291,0,1,1,1.2285-47.6689Zm.10324,8.46695-1.56125.28381a7.67753,7.67753,0,0,0-.86781,2.14109c-.29979,3.827.40061,7.58083-2.78972,11.05587-1.87033,2.03723-.23574,5.84735,2.80316,6.05507,4.34044.29666,6.733,2.84,9.441,5.4383.63672.61094,1.78388.68993,2.69622,1.01365l1.33323-1.08289C176.927,241.47271,174.65118,232.56459,173.66389,223.10186Z" transform="translate(-80 -152)" style="fill: #fff"/>
    <path d="M174.60605,191.44131H152.20771v-24.0556Z" transform="translate(-80 -152)" style="fill: #fff"/>
    <path d="M119.99464,194.06518c-5.98777-.00148-11.97863-.11576-17.962.046-3.05845.0827-4.1477-1.08748-4.04737-4.08986.161-4.81815.15014-9.64838.01162-14.46775-.07983-2.77775.95085-3.84911,3.76008-3.82927q18.71067.13213,37.4228.01569c2.54776-.01173,3.59338,1.00424,3.5454,3.552-.09083,4.82173-.15818,9.65163.02647,14.4681.12307,3.20976-.989,4.46825-4.29647,4.36279C132.30729,193.92685,126.14874,194.06665,119.99464,194.06518ZM101.38551,190.456h37.736V175.44837h-37.736Z" transform="translate(-80 -152)"/>
    <path d="M119.64659,237.24092H100.23891V253.9744H116.173l1.69964-6.905c4.12158,7.25315,2.43383,10.68072-4.21261,10.69158-4.31751.007-8.63764-.09112-12.95161.03212-2.77876.07939-3.88095-1.024-3.81572-3.81361.12421-5.31109-.03615-10.62905.10218-15.93945.03015-1.15729.78956-3.27956,1.26293-3.29375,7.11781-.21318,14.244-.14769,21.36818-.14769Z" transform="translate(-80 -152)"/>
    <path d="M119.61155,205.45293H100.36167v16.98114h15.85748l1.11476-6.00136,1.87994-.06547.78646,9.59116c-7.38087,0-14.1459.10523-20.89767-.14588-.76217-.02835-2.02879-2.04419-2.07338-3.17728-.216-5.49071-.24255-11.002.02762-16.488.05627-1.14263,1.61469-3.12454,2.5452-3.163,6.15114-.25427,12.32018-.1056,18.48223-.01194.52916.008,1.0499.56962,1.57455.87406Z" transform="translate(-80 -152)"/>
    <path d="M126.02376,203.5096h40.26983C163.31787,206.43729,130.5752,206.93036,126.02376,203.5096Z" transform="translate(-80 -152)"/>
    <path d="M106.89494,253.04967l-4.01845-9.85028,1.71951-.869,3.91565,5.4692c3.18721-2.30205,6.23762-4.60227,9.41339-6.714.60553-.40265,1.70612-.06077,2.5783-.06241-.22282.847-.16427,2.05626-.71359,2.48289C115.87342,246.54784,111.833,249.42985,106.89494,253.04967Z" transform="translate(-80 -152)"/>
    <path d="M104.68784,210.65642l3.60811,5.20375,11.70177-7.37413,1.32016,2.05858-14.28247,10.72311-4.09-9.74826Z" transform="translate(-80 -152)"/>
    <path d="M173.66389,223.10186c.98729,9.46273,3.26314,18.37085,11.05478,24.9049l-1.33323,1.08289c-.91234-.32372-2.0595-.40271-2.69622-1.01365-2.70793-2.59832-5.10051-5.14164-9.441-5.4383-3.0389-.20772-4.67349-4.01784-2.80316-6.05507,3.19033-3.475,2.48993-7.22883,2.78972-11.05587a7.67753,7.67753,0,0,1,.86781-2.14109Z" transform="translate(-80 -152)"/>
    <path d="M101.38551,190.456V175.44837h37.736V190.456Z" transform="translate(-80 -152)" style="fill: #fff"/>
  </g>
</svg>
