<svg xmlns="http://www.w3.org/2000/svg" viewBox="0 0 38.66 40"><g data-name="Layer 2"><g><path d="M37.48,2.34H29.76V1.18a1.18,1.18,0,1,0-2.36,0V2.34H20.51V1.18a1.18,1.18,0,1,0-2.36,0V2.34H11.56V1.18a1.18,1.18,0,0,0-2.36,0V2.34h-8A1.18,1.18,0,0,0,0,3.52V30.16a1.18,1.18,0,0,0,1.18,1.18H8.42a11.21,11.21,0,0,0,21.83,0h7.23a1.18,1.18,0,0,0,1.18-1.18V3.52a1.18,1.18,0,0,0-1.18-1.18ZM9.2,4.7V5.77a1.18,1.18,0,0,0,2.36,0V4.7h6.59V5.77a1.18,1.18,0,0,0,2.36,0V4.7H27.4V5.77a1.18,1.18,0,0,0,2.36,0V4.7H36.3V9.52H2.36V4.7ZM19.33,37.64a8.86,8.86,0,1,1,8.85-8.85A8.86,8.86,0,0,1,19.33,37.64ZM30.54,29v-.19a11.21,11.21,0,0,0-22.42,0V29H2.36V11.88H36.3V29Z"/><path d="M20.51,29.09V23.38a1.18,1.18,0,0,0-2.36,0v6.19a1.19,1.19,0,0,0,.35.84l2.71,2.71a1.18,1.18,0,0,0,1.66-1.67l-2.36-2.36Z"/></g></g></svg>