<svg xmlns="http://www.w3.org/2000/svg" viewBox="0 0 40 38.1"><g data-name="Layer 2"><g><path d="M8.64,13.31H11v2.37H8.64Zm4.45,0h2.34v2.37H13.09V13.31ZM8.64,17.69H11v2.38H8.64Zm4.45,0h2.34v2.38H13.09V17.69ZM8.64,22.08H11v2.37H8.64Zm4.45,0h2.34v2.37H13.09V22.08Zm11.79-8.77h2.34v2.37H24.88Zm4.45,0h2.35v2.37H29.33V13.31Zm-4.45,4.38h2.34v2.38H24.88Zm4.45,0h2.35v2.38H29.33V17.69Zm-4.45,4.39h2.34v2.37H24.88Zm4.45,0h2.35v2.37H29.33V22.08Zm6.86-10.36H40L35.1,0H4.9L0,11.72H3.81v24H1.18V38.1H38.82V35.76H36.19v-24ZM3.52,9.38l2.94-7H33.53l2.93,7H24.72L20,3.44,15.27,9.38H3.52Zm30.33,2.34v14H6.14v-14H16.4L20,7.2l3.6,4.53H33.85ZM21.43,35.77H18.57v-3a1.42,1.42,0,0,1,1.35-1.5,1.44,1.44,0,0,1,1.51,1.35v3.15Zm12.42,0H23.77v-3a3.77,3.77,0,1,0-7.54,0v3H6.15V28.11h27.7v7.66Zm-25-4.29h4.61v2.35H8.83Zm17.69,0h4.6v2.35h-4.6Z"/></g></g></svg>