<svg  preserveAspectRatio="xMidYMid meet" viewBox="0 0 77 79" xmlns="http://www.w3.org/2000/svg"><g transform="matrix(.1 0 0 -.1 0 79)"><path d="m220 717c-19-23-33-50-32-63 1-16-3-21-16-18-12 3-36-20-79-74-80-101-93-126-93-188 0-41 6-59 30-92 31-43 47-54 36-26-12 32 13 89 61 136l48 47 81-67c224-185 384-312 392-312 11 0 62 57 62 70 0 4-106 94-236 200-218 178-234 193-220 209 12 13 13 20 4 29-11 11-2 17 24 13 3 0 23 20 43 45 41 50 41 52-27 101l-44 31z"/><path d="m530 681c-58-31-75-63-75-141 0-58-4-72-23-93l-23-25 38-31c21-17 41-31 45-31s15 11 24 25c14 22 21 24 54 19 52-8 103 11 140 52 26 31 30 42 30 97v61l-53-52c-53-53-73-60-108-42-33 18-25 67 21 116 22 24 40 48 40 54 0 17-73 11-110-9z"/><path d="m211 210c-69-77-80-94-71-110 14-27 51-50 66-42 7 4 47 44 89 90 84 90 84 90 24 132l-27 20zm-1-85c0-8-4-15-10-15-5 0-10 7-10 15s5 15 10 15c6 0 10-7 10-15z"/></g></svg>