<svg id="Layer_1" data-name="Layer 1" xmlns="http://www.w3.org/2000/svg" viewBox="0 0 128 128">
  <g>
    <path d="M208,280H80V152H208Zm-1.38534-63.52765c-.27829-33.2233-25.90338-61.86533-62.02032-61.88234-34.82587-.0164-61.901,26.82893-62.00849,61.84679-.11046,35.9823,28.49291,62.12831,62.22624,62.15425C178.93924,278.6173,206.64137,250.68256,206.61466,216.47235Z" transform="translate(-80 -152)" style="fill: #fff"/>
    <path d="M206.61466,216.47235c.02671,34.21021-27.67542,62.145-61.80257,62.1187-33.73333-.02594-62.3367-26.172-62.22624-62.15425.10749-35.01786,27.18262-61.86319,62.00849-61.84679C180.71128,154.607,206.33637,183.24905,206.61466,216.47235Zm-61.61416,30.3458c13.33457,0,26.6695.05627,40.00357-.02557,5.97305-.03666,6.90762-1.80078,3.73623-6.93664q-19.96243-32.328-40.0195-64.59754c-2.7855-4.48622-4.94729-4.59537-7.66751-.2263q-20.082,32.25447-40.01977,64.59861c-3.33463,5.41073-2.36956,7.12962,3.96337,7.16579C118.331,246.87265,131.66592,246.81964,145.0005,246.81815Z" transform="translate(-80 -152)"/>
    <path d="M145.0005,246.8189c-13.33458.00074-26.66946.05375-40.00361-.0224-6.33293-.03617-7.298-1.75506-3.96337-7.16579q19.93467-32.34573,40.01977-64.59861c2.72022-4.36907,4.882-4.25992,7.66751.2263q20.042,32.27879,40.0195,64.59754c3.17139,5.13586,2.23682,6.9-3.73623,6.93664C171.67,246.87442,158.33507,246.81815,145.0005,246.8189Zm4.25377-43.74853c0-.83228.02394-1.66537-.00422-2.49671-.10983-3.24223-.0706-6.90019-4.6548-6.66992-4.21887.21191-4.734,3.59114-4.56311,6.96414.28627,5.6503.45276,11.32779,1.20522,16.92179.26021,1.93453,2.11482,3.6546,3.24115,5.47263,1.1884-1.75457,3.10264-3.3866,3.42357-5.28763C148.72993,213.0709,148.85338,208.04821,149.25427,203.07037Zm-4.61477,35.355c2.07758-2.77736,4.36419-4.4988,4.2816-6.09785-.08324-1.61121-2.52-3.10085-3.92556-4.64375-1.64039,1.49458-4.2377,2.78506-4.61393,4.54923C140.08837,233.608,142.558,235.57211,144.6395,238.4254Z" transform="translate(-80 -152)" style="fill: #fff"/>
    <path d="M149.25624,203.0717c-.40286,4.97651-.52631,9.9992-1.35416,14.903-.32093,1.901-2.23517,3.53306-3.42357,5.28763-1.12633-1.818-2.98094-3.5381-3.24115-5.47263-.75246-5.594-.91895-11.27149-1.20522-16.92179-.1709-3.373.34424-6.75223,4.56311-6.96414,4.5842-.23027,4.545,3.42769,4.6548,6.66992C149.27821,201.405,149.25427,202.23809,149.25624,203.0717Z" transform="translate(-80 -152)"/>
    <path d="M144.6395,238.4254c-2.08146-2.85329-4.55113-4.81744-4.25789-6.19237.37623-1.76417,2.97354-3.05465,4.61393-4.54923,1.40555,1.5429,3.84232,3.03254,3.92556,4.64375C149.00369,233.9266,146.71708,235.648,144.6395,238.4254Z" transform="translate(-80 -152)"/>
  </g>
</svg>
