<svg id="Layer_1" data-name="Layer 1" xmlns="http://www.w3.org/2000/svg" viewBox="0 0 102.4 102.4">
  <g>
    <path d="M146.1845,165H195.4V267.4H93V165h48.42171c-4.08428,2.034-7.26039,4.76009-7.69249,9.71517a13.477,13.477,0,0,0,4.6779,12.10691c-9.54962.86639-10.73016,1.81275-12.69831,10.14516-4.11337,0-8.34465-.25652-12.51567.13269-1.55739.14532-4.123,1.66561-4.25146,2.78573a94.3079,94.3079,0,0,0-.12419,13.05365,2.47711,2.47711,0,0,0,1.12022,1.92592c2.61215.8622,2.17068,2.92345,2.17094,4.84928q.00282,20.82347.00931,41.64694c.00737,4.61089.64747,5.23167,5.3209,5.23562q26.17807.0221,52.35617.00259c5.22026-.00263,5.69233-.46762,5.69709-5.65916.01273-13.8823-.02592-27.76481.05566-41.64665a10.51733,10.51733,0,0,1,1.14729-3.79274c.66171-1.56027,1.978-2.98849,2.16465-4.57341.35313-2.9993-.02472-6.0764.13454-9.10892.19164-3.64938-1.51176-4.98582-4.99061-4.8836-4.17825.12278-8.36285.029-12.58567.029-.12382-8.45247-5.32439-10.2576-12.30141-9.97972C156.70572,178.74893,155.34546,170.16144,146.1845,165Z" transform="translate(-93 -165)" style="fill: #fff"/>
    <path d="M146.1845,165c9.161,5.16144,10.52122,13.74893,2.93207,21.98448,6.977-.27788,12.17759,1.52725,12.30141,9.97972,4.22282,0,8.40742.09376,12.58567-.029,3.47885-.10222,5.18225,1.23422,4.99061,4.8836-.15926,3.03252.21859,6.10962-.13454,9.10892-.18661,1.58492-1.50294,3.01314-2.16465,4.57341a10.51733,10.51733,0,0,0-1.14729,3.79274c-.08158,13.88184-.04293,27.76435-.05566,41.64665-.00476,5.19154-.47683,5.65653-5.69709,5.65916q-26.17809.0132-52.35617-.00259c-4.67343-.00395-5.31353-.62473-5.3209-5.23562q-.03328-20.82342-.00931-41.64694c-.00026-1.92583.44121-3.98708-2.17094-4.84928a2.47711,2.47711,0,0,1-1.12022-1.92592,94.3079,94.3079,0,0,1,.12419-13.05365c.12845-1.12012,2.69407-2.64041,4.25146-2.78573,4.171-.38921,8.4023-.13269,12.51567-.13269,1.96815-8.33241,3.14869-9.27877,12.69831-10.14516a13.477,13.477,0,0,1-4.6779-12.10691c.4321-4.95508,3.60821-7.68113,7.69249-9.71517Zm22.98219,95.53086V215.98622H118.50957v44.54464Zm3.78-57.19025h-58.156v6.01183h58.156ZM131.767,195.556l.66182,1.04034h22.86367l.57934-1.10718c-1.16375-.85315-2.29581-2.38742-3.49665-2.44328-5.64286-.2625-11.31211-.27392-16.95381-.00062C134.1656,193.10609,132.98314,194.67918,131.767,195.556Zm7.98362-19.22378c-.12539,2.89249.45013,5.45458,3.96619,5.54078,3.2089.07867,4.1416-2.09869,4.16393-4.96828.0234-3.00645-.38042-5.75917-4.18411-5.72462C140.451,171.20958,139.65146,173.53116,139.75057,176.33222Z" transform="translate(-93 -165)"/>
    <path d="M169.16669,260.53086H118.50957V215.98622h50.65712Zm-25.44052-41.69742a18.33357,18.33357,0,1,0,18.39962,18.32418A18.175,18.175,0,0,0,143.72617,218.83344Z" transform="translate(-93 -165)" style="fill: #fff"/>
    <path d="M172.94671,203.34061v6.01183h-58.156v-6.01183Z" transform="translate(-93 -165)" style="fill: #fff"/>
    <path d="M131.767,195.556c1.21619-.87682,2.39865-2.44991,3.65437-2.51074,5.6417-.2733,11.31095-.26188,16.95381.00062,1.20084.05586,2.3329,1.59013,3.49665,2.44328l-.57934,1.10718H132.42877Z" transform="translate(-93 -165)" style="fill: #fff"/>
    <path d="M139.74834,176.33545c-.09688-2.80429.70264-5.12587,3.94824-5.15535,3.80369-.03455,4.20751,2.71817,4.18411,5.72462-.02233,2.86959-.955,5.047-4.16393,4.96828C140.2007,181.7868,139.62518,179.22471,139.74834,176.33545Z" transform="translate(-93 -165)" style="fill: #fff"/>
    <path d="M143.72617,218.83344a18.33369,18.33369,0,1,1-18.24447,18.478A18.183,18.183,0,0,1,143.72617,218.83344Zm.2225,30.74329a12.46542,12.46542,0,1,0-12.63122-12.2117A12.63424,12.63424,0,0,0,143.94867,249.57673Z" transform="translate(-93 -165)"/>
    <path d="M143.94867,249.57673A12.465,12.465,0,1,1,156.29353,237.074,12.6138,12.6138,0,0,1,143.94867,249.57673Zm-3.24093-8.93294c.07085,1.17081-.18414,2.50637.30176,3.4673.513,1.01462,1.82143,2.40486,2.62181,2.30775a4.05453,4.05453,0,0,0,2.93588-2.37976,16.86726,16.86726,0,0,0-.07149-6.57611,3.55477,3.55477,0,0,0-2.73439-2.11364c-.95121.01711-2.13611,1.23505-2.73421,2.22084C140.54483,238.36507,140.784,239.5977,140.70774,240.64379Zm-1.14049-9.77256c1.90857,1.46217,3.08532,3.05527,4.12194,2.96878,1.09786-.0916,3.002-1.93691,2.86893-2.73551a4.75962,4.75962,0,0,0-2.91038-3.18411C142.82342,227.69765,141.47449,229.41641,139.56725,230.87123Z" transform="translate(-93 -165)" style="fill: #fff"/>
    <path d="M140.70544,240.64c.07858-1.04226-.16061-2.27489.32166-3.06979.5981-.98579,1.783-2.20373,2.73421-2.22084a3.55477,3.55477,0,0,1,2.73439,2.11364,16.86726,16.86726,0,0,1,.07149,6.57611,4.05453,4.05453,0,0,1-2.93588,2.37976c-.80038.09711-2.10876-1.29313-2.62181-2.30775C140.5236,243.15016,140.77859,241.8146,140.70544,240.64Z" transform="translate(-93 -165)"/>
    <path d="M139.56725,230.87123c1.90724-1.45482,3.25617-3.17358,4.08049-2.95084a4.75962,4.75962,0,0,1,2.91038,3.18411c.13306.7986-1.77107,2.64391-2.86893,2.73551C142.65257,233.9265,141.47582,232.3334,139.56725,230.87123Z" transform="translate(-93 -165)"/>
  </g>
</svg>
