<svg id="Layer_1" data-name="Layer 1" xmlns="http://www.w3.org/2000/svg" viewBox="0 0 128 128">
  <g>
    <path d="M208,280H80V152H208Zm-49.02168-71.54167c7.55166.98083,15.06034-8.4673,12.0779-15.20592-1.49071-3.36815-.77263-5.41922,1.0447-8.02561,4.28563-6.14638,8.50516-12.35129,12.41079-18.74075.89318-1.46122.40975-3.76389.5599-5.6793-1.68411.80059-3.98976,1.1525-4.94665,2.47806-4.57828,6.34218-8.86852,12.89856-13.09177,19.48737-1.4791,2.30758-2.92457,3.57691-5.96829,3.14721-3.89853-.55038-6.56608,1.74471-8.44357,5.0376-2.29427,4.0239-4.63831,8.01942-7.0121,12.11569-2.03794-.77064-3.72251-1.4572-5.44-2.04815-5.94407-2.04527-11.77117-5.02907-17.88316-5.83676-7.69807-1.01729-15.63412-.34687-23.46441-.21742-7.25735.12-11.93506,4.61147-12.05308,11.85758-.18725,11.49569-.00193,22.997-.093,34.495-.02728,3.44338,1.40862,4.67908,4.81534,4.64679,12.66412-.12005,25.33156-.15481,37.99439.02095,3.59238.04986,4.48047-1.27361,4.50553-4.66789.048-6.50737-1.071-13.4777,5.06529-18.3806.25891-.20688.153-.87043.22648-1.38819-1.02461-.4022-1.9353-.79784-2.871-1.12091-6.8193-2.3544-7.402-1.93454-7.414,5.331-.00763,4.61794-.00143,9.2359-.00143,14.07265H92.2843c0-11.25479-.16217-22.21329.0829-33.16266.093-4.15572,2.96114-5.96872,7.10094-6.07761,14.3495-.37744,28.68813-.84256,41.68277,6.93237a32.23968,32.23968,0,0,0,3.22545,1.332c2.577,1.17782,4.36645.558,5.73637-2.01226,2.19145-4.11162,4.61583-8.09846,6.90032-12.16133,1.47324-2.62011,3.11692-4.33132,6.331-2.24071,3.048,1.9826,3.32667,4.17076,1.27565,7.08807C162.63248,202.36106,160.91152,205.3748,158.97832,208.45833Zm25.11625,54.6999c4.5544,3.76838,8.78507,7.54531,13.34342,10.87342,1.3818,1.00888,3.66973.77667,5.54263,1.11292-.609-1.77223-.71087-4.08587-1.91946-5.21809-4.09923-3.8402-8.5899-7.26253-12.85166-10.779,8.75063-15.5639,6.698-29.85474-5.23523-38.73611A26.84913,26.84913,0,0,0,145.708,258.34659C154.69486,270.05046,169.0252,271.9656,184.09457,263.15823ZM92.79592,174.95756a16.13712,16.13712,0,0,0,16.3809,16.427,16.36922,16.36922,0,0,0,.09739-32.73811A16.11463,16.11463,0,0,0,92.79592,174.95756Z" transform="translate(-80 -152)" style="fill: #fff"/>
    <path d="M158.97832,208.45833c1.9332-3.08353,3.65416-6.09727,5.64138-8.92382,2.051-2.91731,1.7724-5.10547-1.27565-7.08807-3.21408-2.09061-4.85776-.3794-6.331,2.24071-2.28449,4.06287-4.70887,8.04971-6.90032,12.16133-1.36992,2.57025-3.1594,3.19008-5.73637,2.01226a32.23968,32.23968,0,0,1-3.22545-1.332c-12.99464-7.77493-27.33327-7.30981-41.68277-6.93237-4.1398.10889-7.00793,1.92189-7.10094,6.07761-.24507,10.94937-.0829,21.90787-.0829,33.16266h36.71182c0-4.83675-.0062-9.45471.00143-14.07265.012-7.2655.5947-7.68536,7.414-5.331.93574.32307,1.84643.71871,2.871,1.12091-.07353.51776.03243,1.18131-.22648,1.38819-6.13625,4.9029-5.01726,11.87323-5.06529,18.3806-.02506,3.39428-.91315,4.71775-4.50553,4.66789-12.66283-.17576-25.33027-.141-37.99439-.02095-3.40672.03229-4.84262-1.20341-4.81534-4.64679.0911-11.498-.09422-22.99927.093-34.495.118-7.24611,4.79573-11.7376,12.05308-11.85758,7.83029-.12945,15.76634-.79987,23.46441.21742,6.112.80769,11.93909,3.79149,17.88316,5.83676,1.71748.59095,3.40205,1.27751,5.44,2.04815,2.37379-4.09627,4.71783-8.09179,7.0121-12.11569,1.87749-3.29289,4.545-5.588,8.44357-5.0376,3.04372.4297,4.48919-.83963,5.96829-3.14721,4.22325-6.58881,8.51349-13.14519,13.09177-19.48737.95689-1.32556,3.26254-1.67747,4.94665-2.47806-.15015,1.91541.33328,4.21808-.5599,5.6793-3.90563,6.38946-8.12516,12.59437-12.41079,18.74075-1.81733,2.60639-2.53541,4.65746-1.0447,8.02561C174.03866,199.991,166.53,209.43916,158.97832,208.45833Z" transform="translate(-80 -152)"/>
    <path d="M184.09457,263.15823c-15.06937,8.80737-29.39971,6.89223-38.38655-4.81164a26.84913,26.84913,0,0,1,37.26625-37.93523c11.93323,8.88137,13.98586,23.17221,5.23523,38.73611,4.26176,3.51648,8.75243,6.93881,12.85166,10.779,1.20859,1.13222,1.31043,3.44586,1.91946,5.21809-1.8729-.33625-4.16083-.104-5.54263-1.11292C192.87964,270.70354,188.649,266.92661,184.09457,263.15823Zm4.00941-21.18248A21.09084,21.09084,0,1,0,167.322,263.106,21.10263,21.10263,0,0,0,188.104,241.97575Z" transform="translate(-80 -152)"/>
    <path d="M92.79592,174.95756a16.11463,16.11463,0,0,1,16.47829-16.31111,16.36922,16.36922,0,0,1-.09739,32.73811A16.13712,16.13712,0,0,1,92.79592,174.95756Zm27.0921.11749a10.76871,10.76871,0,1,0-10.96978,10.717A11.04794,11.04794,0,0,0,119.888,175.07505Z" transform="translate(-80 -152)"/>
    <path d="M188.104,241.97575a21.09084,21.09084,0,1,1-21.38714-21.05042A21.044,21.044,0,0,1,188.104,241.97575Z" transform="translate(-80 -152)" style="fill: #fff"/>
    <path d="M119.888,175.07505a10.76871,10.76871,0,1,1-21.532-.38775,10.7683,10.7683,0,0,1,21.532.38775Z" transform="translate(-80 -152)" style="fill: #fff"/>
  </g>
</svg>
