<svg xmlns="http://www.w3.org/2000/svg" viewBox="0 0 40 40"><g data-name="Layer 2"><g><path d="M39.62,16.8a2.65,2.65,0,0,0-1.8-1.08l-2.4-.4a.34.34,0,0,1-.31-.28,14.72,14.72,0,0,0-.92-2.21.36.36,0,0,1,0-.44c.5-.69,1-1.38,1.47-2.06a2.52,2.52,0,0,0-.19-3.19c-.87-.88-1.73-1.74-2.61-2.6a2.44,2.44,0,0,0-1.73-.71,2.67,2.67,0,0,0-1.6.57c-.66.48-1.33.95-2,1.42a.26.26,0,0,1-.32,0,13.39,13.39,0,0,0-2.38-1,.36.36,0,0,1-.28-.33c-.12-.77-.26-1.55-.38-2.32A2.75,2.75,0,0,0,23.75,1,2.35,2.35,0,0,0,22,0H17.78a2.74,2.74,0,0,0-.55.13A2.49,2.49,0,0,0,15.68,2c-.16.84-.29,1.69-.43,2.54a.41.41,0,0,1-.33.38,12.27,12.27,0,0,0-2.15.91.36.36,0,0,1-.45,0l-2-1.46a2.42,2.42,0,0,0-1.55-.5A2.51,2.51,0,0,0,7,4.66L4.55,7.08a2.53,2.53,0,0,0-.27,3.35c.51.7,1,1.4,1.5,2.1a.29.29,0,0,1,0,.34,14.65,14.65,0,0,0-.93,2.29.33.33,0,0,1-.29.25c-.83.14-1.67.27-2.5.42a2.47,2.47,0,0,0-1.7,1.09,2.19,2.19,0,0,0-.38,1v4.36a3.13,3.13,0,0,0,.16.6,2.55,2.55,0,0,0,2.05,1.5c.81.13,1.62.29,2.44.41a.32.32,0,0,1,.29.25,14.79,14.79,0,0,0,1,2.29.29.29,0,0,1,0,.33c-.48.67-1,1.36-1.45,2A2.56,2.56,0,0,0,4.65,33l2.44,2.44a2.5,2.5,0,0,0,1.19.68,2.45,2.45,0,0,0,2.05-.37c.72-.49,1.43-1,2.13-1.51a.36.36,0,0,1,.42-.06,15.5,15.5,0,0,0,2.19.9.33.33,0,0,1,.25.31c.14.85.28,1.69.43,2.54a2.51,2.51,0,0,0,.69,1.35,2.3,2.3,0,0,0,1.38.7H22.1c.14,0,.3,0,.44-.07a2.48,2.48,0,0,0,1.7-2c.16-.85.3-1.71.44-2.57a.32.32,0,0,1,.25-.31,14.79,14.79,0,0,0,2.25-.93.36.36,0,0,1,.42,0c.73.53,1.46,1.07,2.21,1.57a2.41,2.41,0,0,0,1.33.4A2.5,2.5,0,0,0,33,35.4c.82-.8,1.63-1.61,2.43-2.44a2.49,2.49,0,0,0,.29-3.27q-.7-1-1.44-2a.44.44,0,0,1-.06-.53,13.6,13.6,0,0,0,.91-2.2.33.33,0,0,1,.29-.25L38,24.25A2.5,2.5,0,0,0,39,23.78a2.34,2.34,0,0,0,1-1.64V17.86A2.13,2.13,0,0,0,39.62,16.8Zm-1.85,4.83c0,.26-.05.32-.29.36l-3.41.58a1.06,1.06,0,0,0-.91.83,13.69,13.69,0,0,1-1.44,3.47,1.11,1.11,0,0,0,.08,1.3l1.94,2.74c.18.25.17.29,0,.5l-2.3,2.3c-.21.21-.24.21-.48,0l-2.71-1.93a1.16,1.16,0,0,0-1.38-.07,13.65,13.65,0,0,1-3.4,1.41,1.07,1.07,0,0,0-.86.93c-.19,1.13-.39,2.27-.58,3.41,0,.2-.13.26-.32.26H18.33c-.19,0-.29-.06-.32-.26-.19-1.15-.38-2.29-.58-3.44a1.05,1.05,0,0,0-.81-.89,14.81,14.81,0,0,1-3.45-1.41,1.09,1.09,0,0,0-1.22.07l-2.79,2c-.25.17-.29.17-.5,0L6.35,31.47c-.07-.07-.15-.13-.14-.23a.33.33,0,0,1,.1-.23C7,30.1,7.59,29.2,8.24,28.3a1.17,1.17,0,0,0,.06-1.4,12.94,12.94,0,0,1-1.41-3.37,1.15,1.15,0,0,0-1-.88l-3.39-.58a.27.27,0,0,1-.26-.3c0-1.12,0-2.25,0-3.37,0-.2.09-.28.28-.31l3.31-.55a1.15,1.15,0,0,0,1-.92,13.07,13.07,0,0,1,1.38-3.37,1.14,1.14,0,0,0-.07-1.35l-2-2.76c-.16-.23-.16-.28,0-.48C7,7.88,7.78,7.11,8.56,6.34c.19-.19.24-.2.46,0l2.69,1.91a1.19,1.19,0,0,0,1.42.07,13.07,13.07,0,0,1,3.34-1.4,1.16,1.16,0,0,0,.91-1L18,2.53c0-.24.09-.28.34-.28h3.3c.26,0,.31,0,.35.3.18,1.12.37,2.24.56,3.35a1.08,1.08,0,0,0,.82.92A14.37,14.37,0,0,1,26.93,8.3a1.12,1.12,0,0,0,1.28-.09l2.68-1.93c.29-.21.3-.21.56,0L33.7,8.58c.22.22.22.27,0,.51-.64.91-1.29,1.81-1.94,2.72a1.16,1.16,0,0,0-.06,1.35,12.57,12.57,0,0,1,1.39,3.32,1.23,1.23,0,0,0,1.11,1c1.09.17,2.17.36,3.26.54a.28.28,0,0,1,.27.32C37.77,19.43,37.77,20.53,37.77,21.63Z"/><path d="M20,11.36A8.64,8.64,0,1,0,28.63,20,8.65,8.65,0,0,0,20,11.36Zm0,15A6.38,6.38,0,1,1,26.38,20,6.38,6.38,0,0,1,20,26.37Z"/></g></g></svg>