<svg id="Layer_1" data-name="Layer 1" xmlns="http://www.w3.org/2000/svg" viewBox="0 0 128 128">
  <g>
    <path d="M80,280V152H208V280Zm27.96451-79.56113a30.02136,30.02136,0,0,1-4.63563,2.13486c-10.15176,2.671-10.16137,2.63451-10.16138,13.22421v.49984c0,10.47474-.0254,10.58018,10.27713,13.06166,3.64922.879,4.85411,1.91883,2.5646,5.623-5.70224,9.22545-5.564,9.31089,1.968,16.84306l.35344.35345c7.44371,7.44367,7.497,7.52973,16.46315,1.9802,3.16069-1.95628,4.75372-2.19082,5.7931,2.12291,2.55257,10.59386,2.73267,10.55047,13.836,10.55047.16661,0,.33324.00127.49984-.00019,12.27487-.10762,9.63869,1.28214,12.38813-9.904,1.2573-5.11529,1.62487-5.23,6.15887-2.53852,10.28,6.10245,6.96692,6.73207,15.737-1.749.2395-.2316.47157-.47092.7072-.70655,7.67888-7.67889,7.78578-7.745,2.16655-16.82651-2.09491-3.38565-1.72317-4.7557,2.323-5.724,10.46643-2.50462,10.429-2.661,10.429-13.432,0-.33323.003-.66649-.00044-.99969-.12144-11.86284,1.34882-9.5446-9.53895-12.17743-5.55468-1.34322-5.64477-1.61306-2.83569-6.34959,6.04343-10.19014,6.70652-6.92274-1.9202-15.70545-8.01623-8.1612-8.10719-8.16308-17.98339-2.50547-2.6103,1.49532-3.92931,1.68252-4.913-1.77817-3.213-11.30373-3.33665-11.26863-15.31369-11.26847-1.66615,0-3.34433.129-4.9959-.02607-3.26811-.30679-4.69185,1.09759-5.44,4.31459-2.52677,10.8657-2.712,10.94247-12.2,5.06313-2.77541-1.7198-4.64818-1.742-6.87893.7347a130.48644,130.48644,0,0,1-9.538,9.53929c-2.45828,2.21778-2.71078,4.19219-.75124,6.8677C104.3798,194.19593,105.86172,197.00541,107.96451,200.43887Z" transform="translate(-80 -152)" style="fill: #fff"/>
    <path d="M107.96451,200.43887c-2.10279-3.43346-3.58471-6.24294-5.44137-8.778-1.95954-2.67551-1.707-4.64992.75124-6.8677a130.48644,130.48644,0,0,0,9.538-9.53929c2.23075-2.4767,4.10352-2.4545,6.87893-.7347,9.48808,5.87934,9.67326,5.80257,12.2-5.06313.74811-3.217,2.17185-4.62138,5.44-4.31459,1.65157.155,3.32975.0261,4.9959.02607,11.977-.00016,12.1007-.03526,15.31369,11.26847.98367,3.46069,2.30268,3.27349,4.913,1.77817,9.8762-5.65761,9.96716-5.65573,17.98339,2.50547,8.62672,8.78271,7.96363,5.51531,1.9202,15.70545-2.80908,4.73653-2.719,5.00637,2.83569,6.34959,10.88777,2.63283,9.41751.31459,9.539,12.17743.00341.3332.00044.66646.00044.99969,0,10.771.03742,10.92738-10.429,13.432-4.04617.96825-4.41791,2.3383-2.323,5.724,5.61923,9.08148,5.51233,9.14762-2.16655,16.82651-.23563.23563-.4677.475-.7072.70655-8.77007,8.48106-5.457,7.85144-15.737,1.749-4.534-2.69151-4.90157-2.57677-6.15887,2.53852-2.74944,11.18611-.11326,9.79635-12.38813,9.904-.1666.00146-.33323.00019-.49984.00019-11.10329,0-11.28339.04339-13.836-10.55047-1.03938-4.31373-2.63241-4.07919-5.7931-2.12291-8.96618,5.54953-9.01944,5.46347-16.46315-1.9802l-.35344-.35345c-7.532-7.53217-7.67027-7.61761-1.968-16.84306,2.28951-3.70414,1.08462-4.744-2.5646-5.623C93.1421,226.878,93.1675,226.77252,93.1675,216.29778v-.49984c0-10.5897.00962-10.55319,10.16138-13.22421A30.02136,30.02136,0,0,0,107.96451,200.43887Zm8.8452,52.37841c2.6188-1.606,5.26275-3.31969,7.994-4.88063a6.805,6.805,0,0,1,10.15326,4.122,55.64708,55.64708,0,0,0,1.6972,6.76219,4.5845,4.5845,0,0,0,2.87218,2.55365c10.37844,1.58,10.94783,1.14379,13.42906-8.84362,1.276-5.13617,6.04158-7.09,10.69189-4.339,2.56186,1.51557,5.07066,3.12083,6.88852,4.244l10.03869-9.678c-1.53734-2.50044-3.28072-5.13626-4.81779-7.88735-1.85367-3.31777-.1464-8.496,3.208-9.5764,2.36541-.76185,4.95175-.87822,7.26386-1.749,1.26657-.477,2.91449-1.79061,3.11812-2.95036,1.74077-9.91432.83251-11.19238-8.69087-13.5261-5.14267-1.26023-7.20491-6.03661-4.527-10.60526,1.50782-2.57236,3.12026-5.08339,4.64772-7.56068l-9.58142-9.74377c-2.83229,1.74181-5.47377,3.46885-8.213,5.02368-3.09686,1.75781-8.29843.44285-9.44528-2.57139-.9375-2.46408-1.10542-5.21287-1.93771-7.72851-.4063-1.2281-1.3467-2.88622-2.391-3.20021-8.09876-2.43516-12.08767-.04858-14.01775,8.04656-1.45462,6.101-6.02835,7.96127-11.46575,4.66249-2.36774-1.43646-4.734-2.87535-6.73949-4.09356l-9.89036,9.376c1.83917,3.006,3.669,5.77984,5.27218,8.679,1.55123,2.80525.12592,7.99615-2.648,9.06621-2.45849.94838-5.2285,1.07517-7.71561,1.96911-1.31264.4718-3.08548,1.63828-3.33546,2.77924-2.01171,9.18171-.43626,11.57878,8.43666,13.71645,5.573,1.34265,7.56236,5.9657,4.63932,10.8744-1.5118,2.5388-3.10669,5.02812-4.714,7.62042Z" transform="translate(-80 -152)"/>
    <path d="M116.80971,252.81728l-9.77977-9.4385c1.60734-2.5923,3.20223-5.08162,4.714-7.62042,2.923-4.9087.9337-9.53175-4.63932-10.8744-8.87292-2.13767-10.44837-4.53474-8.43666-13.71645.25-1.141,2.02282-2.30744,3.33546-2.77924,2.48711-.89394,5.25712-1.02073,7.71561-1.96911,2.77393-1.07006,4.19924-6.261,2.648-9.06621-1.60318-2.89917-3.433-5.673-5.27218-8.679l9.89036-9.376c2.00548,1.21821,4.37175,2.6571,6.73949,4.09356,5.4374,3.29878,10.01113,1.43846,11.46575-4.66249,1.93008-8.09514,5.919-10.48172,14.01775-8.04656,1.04428.314,1.98468,1.97211,2.391,3.20021.83229,2.51564,1.00021,5.26443,1.93771,7.72851,1.14685,3.01424,6.34842,4.3292,9.44528,2.57139,2.73923-1.55483,5.38071-3.28187,8.213-5.02368l9.58142,9.74377c-1.52746,2.47729-3.1399,4.98832-4.64772,7.56068-2.67794,4.56865-.6157,9.345,4.527,10.60526,9.52338,2.33372,10.43164,3.61178,8.69087,13.5261-.20363,1.15975-1.85155,2.47335-3.11812,2.95036-2.31211.8708-4.89845.98717-7.26386,1.749-3.35445,1.0804-5.06172,6.25863-3.208,9.5764,1.53707,2.75109,3.28045,5.38691,4.81779,7.88735l-10.03869,9.678c-1.81786-1.12314-4.32666-2.7284-6.88852-4.244-4.65031-2.751-9.41589-.79716-10.69189,4.339-2.48123,9.98741-3.05062,10.42357-13.42906,8.84362a4.5845,4.5845,0,0,1-2.87218-2.55365,55.64708,55.64708,0,0,1-1.6972-6.76219,6.805,6.805,0,0,0-10.15326-4.122C122.07246,249.49759,119.42851,251.21131,116.80971,252.81728Zm27.51864-61.81668a25.00159,25.00159,0,1,0,24.67105,25.33A24.85622,24.85622,0,0,0,144.32835,191.0006Z" transform="translate(-80 -152)" style="fill: #fff"/>
    <path d="M144.32835,191.0006a25.00159,25.00159,0,1,1-25.32776,24.67A24.867,24.867,0,0,1,144.32835,191.0006Zm-.73869,44.82474c10.48433.29755,19.84057-8.62307,20.23254-19.29052.38453-10.46424-8.46979-19.86881-19.16291-20.35381-10.62346-.48185-20.2712,8.71777-20.48461,19.53315C123.96745,226.21644,132.95228,235.52345,143.58966,235.82534Z" transform="translate(-80 -152)"/>
    <path d="M143.58966,235.82534c-10.63738-.30189-19.62221-9.6089-19.415-20.11118.21341-10.81538,9.86115-20.015,20.48461-19.53315,10.69312.485,19.54744,9.88957,19.16291,20.35381C163.43023,227.20227,154.074,236.12289,143.58966,235.82534Z" transform="translate(-80 -152)" style="fill: #fff"/>
  </g>
</svg>
