<svg xmlns="http://www.w3.org/2000/svg" viewBox="0 0 40 40"><g data-name="Layer 2"><g><path d="M38,15.8l-2.81-.48A15.72,15.72,0,0,0,34,12.6l1.65-2.31A2.47,2.47,0,0,0,35.4,7.1L32.91,4.61a2.41,2.41,0,0,0-1.74-.72,2.37,2.37,0,0,0-1.43.46L27.42,6a15.45,15.45,0,0,0-2.83-1.16l-.47-2.78A2.46,2.46,0,0,0,21.68,0H18.17a2.46,2.46,0,0,0-2.44,2.06L15.24,4.9a15.75,15.75,0,0,0-2.71,1.15L10.23,4.4a2.4,2.4,0,0,0-1.44-.46A2.43,2.43,0,0,0,7,4.66L4.55,7.15a2.47,2.47,0,0,0-.27,3.19L6,12.68a15.12,15.12,0,0,0-1.11,2.74l-2.78.46A2.48,2.48,0,0,0,0,18.32v3.52a2.47,2.47,0,0,0,2.06,2.44l2.84.49a16.09,16.09,0,0,0,1.15,2.71L4.4,29.77A2.48,2.48,0,0,0,4.67,33l2.49,2.49a2.49,2.49,0,0,0,1.75.72,2.44,2.44,0,0,0,1.43-.46L12.68,34a16.86,16.86,0,0,0,2.64,1.09l.47,2.81A2.47,2.47,0,0,0,18.23,40h3.53a2.47,2.47,0,0,0,2.44-2.06l.48-2.81A15.76,15.76,0,0,0,27.4,34l2.31,1.65a2.4,2.4,0,0,0,1.44.46h0a2.45,2.45,0,0,0,1.75-.72l2.49-2.49a2.47,2.47,0,0,0,.26-3.19L34,27.39a16.45,16.45,0,0,0,1.13-2.72l2.81-.47A2.47,2.47,0,0,0,40,21.76V18.24A2.43,2.43,0,0,0,38,15.8Zm-.19,6a.22.22,0,0,1-.18.22l-3.51.58a1.13,1.13,0,0,0-.91.83,13.22,13.22,0,0,1-1.45,3.5,1.14,1.14,0,0,0,.05,1.23L33.82,31a.23.23,0,0,1,0,.28L31.31,33.8a.22.22,0,0,1-.16.07.17.17,0,0,1-.12,0l-2.9-2.06a1.14,1.14,0,0,0-1.23-.05,13.36,13.36,0,0,1-3.5,1.45,1.11,1.11,0,0,0-.83.91L22,37.58a.22.22,0,0,1-.22.18H18.24a.22.22,0,0,1-.22-.18l-.58-3.51a1.13,1.13,0,0,0-.83-.91,13.39,13.39,0,0,1-3.42-1.4,1.18,1.18,0,0,0-.57-.15,1.1,1.1,0,0,0-.65.21L9,33.9a.19.19,0,0,1-.12,0,.22.22,0,0,1-.16-.07L6.27,31.38a.21.21,0,0,1,0-.28L8.3,28.22a1.16,1.16,0,0,0,0-1.24,13.07,13.07,0,0,1-1.47-3.49A1.16,1.16,0,0,0,6,22.66l-3.53-.6a.22.22,0,0,1-.18-.22V18.32a.21.21,0,0,1,.18-.21l3.48-.59a1.13,1.13,0,0,0,.92-.83,13.07,13.07,0,0,1,1.42-3.51,1.12,1.12,0,0,0,0-1.22L6.12,9a.23.23,0,0,1,0-.28L8.64,6.26a.22.22,0,0,1,.16-.07.21.21,0,0,1,.12,0l2.89,2.06A1.14,1.14,0,0,0,13,8.34a13.47,13.47,0,0,1,3.5-1.47,1.14,1.14,0,0,0,.82-.9L18,2.43a.2.2,0,0,1,.21-.18H21.7a.22.22,0,0,1,.22.18l.58,3.49a1.14,1.14,0,0,0,.84.91A13.32,13.32,0,0,1,26.92,8.3a1.14,1.14,0,0,0,1.23-.05L31,6.18a.27.27,0,0,1,.13,0,.23.23,0,0,1,.16.07l2.49,2.49a.23.23,0,0,1,0,.28l-2.06,2.9a1.12,1.12,0,0,0-.05,1.23,13.22,13.22,0,0,1,1.45,3.5,1.11,1.11,0,0,0,.91.83l3.5.59a.22.22,0,0,1,.19.22v3.52Z"/><path d="M20,11.36A8.64,8.64,0,1,0,28.64,20,8.64,8.64,0,0,0,20,11.36Zm0,15A6.38,6.38,0,1,1,26.38,20,6.38,6.38,0,0,1,20,26.37Z"/></g></g></svg>