<svg xmlns="http://www.w3.org/2000/svg" viewBox="0 0 40 40"><g data-name="Layer 2"><g><path d="M40,.16A.3.3,0,0,0,40,0H.18C0,0,0,0,0,.18V40a.55.55,0,0,0,.22,0h17c.26,0,.27,0,.27-.27v-2c0-.27,0-.3-.31-.3H15.36c-.08,0-.17,0-.24-.06a.58.58,0,0,1,0-.32V15.47c0-.39,0-.39.39-.39H34.71c.29,0,.34-.05.34-.35V12.87c0-.43,0-.45-.46-.45H27.88c-.31,0-.32,0-.32-.31V2.88c0-.31,0-.32.31-.32h9.25c.29,0,.29,0,.3.31V7.21c0,.3,0,.34.34.35h2A.34.34,0,0,0,40,7.49a.3.3,0,0,0,0-.13ZM2.69,2.5h9.6c.17,0,.21,0,.21.2,0,1.6,0,3.19,0,4.79s0,3.21,0,4.81c0,.17,0,.2-.21.2H2.69c-.15,0-.19,0-.19-.19V2.69C2.5,2.53,2.54,2.5,2.69,2.5ZM2.7,15h9.59c.18,0,.21.05.21.22v9.56c0,.17,0,.22-.21.22H2.7c-.18,0-.2-.05-.2-.22V15.2C2.5,15,2.55,15,2.7,15Zm9.58,22.5H2.7c-.17,0-.2,0-.2-.21V27.68c0-.16,0-.19.19-.19,3.2,0,6.41,0,9.61,0,.17,0,.2,0,.2.21v9.58C12.5,37.46,12.45,37.5,12.28,37.5Zm12.51-25H15.21c-.17,0-.21,0-.21-.21V2.7c0-.18.06-.2.22-.2H24.8c.16,0,.2,0,.2.2v9.6C25,12.47,25,12.5,24.79,12.5Z"/><path d="M37.49,10l.18,0h2.14c.14,0,.17,0,.17.18,0,.76,0,1.53,0,2.29-.55,0-1.11,0-1.66,0h-.65c-.14,0-.19,0-.18-.17Z"/><path d="M40,15c0,.76,0,1.51,0,2.27,0,.16,0,.2-.2.2H37.49v-2.3c0-.1,0-.17.14-.17h2.29Z"/><path d="M37.89,24.52a.47.47,0,0,1-.27-.23l-.9-1.55a.52.52,0,0,1-.07-.38c.14-.67.27-1.34.41-2a.18.18,0,0,0-.11-.24q-2.58-1.48-5.15-3a.2.2,0,0,0-.27,0c-.52.47-1.05.92-1.58,1.39a.4.4,0,0,1-.28.1H27.83a.41.41,0,0,1-.3-.11c-.53-.46-1.06-.92-1.58-1.39a.18.18,0,0,0-.24,0l-5.2,3a.16.16,0,0,0-.09.2c.15.69.28,1.37.42,2.06a.48.48,0,0,1-.06.35c-.32.53-.62,1.06-.92,1.59a.39.39,0,0,1-.22.18l-2,.67a.19.19,0,0,0-.16.22v5.94c0,.15.05.19.17.23l1.95.66a.41.41,0,0,1,.25.2c.3.54.6,1.07.92,1.59a.5.5,0,0,1,.05.34c-.14.67-.26,1.34-.41,2a.22.22,0,0,0,.13.28l5.12,3a.19.19,0,0,0,.28,0c.51-.46,1-.91,1.55-1.36a.42.42,0,0,1,.35-.13h1.78a.42.42,0,0,1,.34.12l1.56,1.37a.17.17,0,0,0,.25,0l5.17-3a.17.17,0,0,0,.1-.23c-.14-.68-.27-1.36-.4-2a.46.46,0,0,1,.05-.36q.47-.77.9-1.56a.47.47,0,0,1,.3-.23L40,31.5V25.24C39.29,25,38.59,24.75,37.89,24.52Zm-.4,5.07c0,.11,0,.14-.14.17l-1.17.4a.36.36,0,0,0-.24.18c-.62,1.09-1.25,2.18-1.88,3.27a.29.29,0,0,0,0,.24c.09.41.16.82.25,1.22a.23.23,0,0,1-.13.3c-.68.38-1.35.77-2,1.16-.12.07-.19.08-.29,0-.31-.29-.63-.56-.95-.84a.37.37,0,0,0-.25-.09H26.85a.32.32,0,0,0-.23.08l-1,.87a.18.18,0,0,1-.24,0c-.68-.41-1.38-.8-2.06-1.2-.06,0-.15-.05-.13-.12.09-.47.17-.91.27-1.35a.39.39,0,0,0-.05-.28c-.63-1.08-1.25-2.17-1.87-3.25a.38.38,0,0,0-.24-.19l-1.18-.4a.16.16,0,0,1-.14-.19V27.16c0-.12,0-.16.15-.19l1.19-.41a.34.34,0,0,0,.21-.16c.62-1.09,1.25-2.19,1.88-3.27a.4.4,0,0,0,.05-.28c-.09-.41-.17-.83-.26-1.24a.2.2,0,0,1,.11-.24c.7-.39,1.39-.79,2.07-1.19.11-.07.17,0,.26,0l.95.84a.37.37,0,0,0,.26.1h3.75A.43.43,0,0,0,30.9,21l1-.84a.17.17,0,0,1,.24,0q1,.61,2.07,1.2a.19.19,0,0,1,.1.25c-.08.42-.15.83-.24,1.24a.34.34,0,0,0,0,.26l1.87,3.25a.41.41,0,0,0,.23.2l1.2.4a.16.16,0,0,1,.13.18C37.49,28,37.49,28.77,37.49,29.59Z"/><path d="M28.74,23.37a5,5,0,1,0,5,5A5,5,0,0,0,28.74,23.37Zm0,7.5a2.5,2.5,0,1,1,2.51-2.5A2.51,2.51,0,0,1,28.74,30.87Z"/></g></g></svg>