<svg xmlns="http://www.w3.org/2000/svg" viewBox="0 0 33.8 40"><g data-name="Layer 2"><g><path d="M31.57,34.15c0,.34,0,.66,0,1,0,.77,0,1.54,0,2.31A2.85,2.85,0,0,1,28.78,40H26.36a2.88,2.88,0,0,1-2.77-2.73c0-.95,0-1.9,0-2.86v-.24H10.43c-.17,0-.22,0-.22.21,0,.91,0,1.82,0,2.74a2.89,2.89,0,0,1-2.33,2.84,3.66,3.66,0,0,1-.57.05H5.16a2.91,2.91,0,0,1-2.94-2.91c0-.9,0-1.8,0-2.7v-.23H1.35a2.63,2.63,0,0,1-.49,0A1.12,1.12,0,0,1,0,33.06V6.53A6.48,6.48,0,0,1,5.17.13,6.33,6.33,0,0,1,6.4,0h21a6.46,6.46,0,0,1,6.25,5.11,7.26,7.26,0,0,1,.15,1.47q0,13.19,0,26.36a1.12,1.12,0,0,1-.91,1.19c-.26,0-.52,0-.79,0ZM2.23,8.54V22H31.56V8.54Zm25,15.73H6.62m-.84,0H2.23v7.61H31.57V24.27H28m3.61-18V6.14a4.22,4.22,0,0,0-4.19-3.89H6.44a4.19,4.19,0,0,0-4,3,8.88,8.88,0,0,0-.22,1ZM8,34.18H4.45s0,.06,0,.08c0,.93,0,1.87,0,2.8a.66.66,0,0,0,.72.69H7.25A.67.67,0,0,0,8,37V34.18Zm17.8,0c0,.07,0,.12,0,.17V37a.68.68,0,0,0,.74.73h2a.69.69,0,0,0,.78-.77V34.35c0-.05,0-.11,0-.18Z"/><path d="M16.9,3.08c1.11,0,2.22,0,3.34,0a1.09,1.09,0,0,1,1,.73A1.14,1.14,0,0,1,21,5a1.17,1.17,0,0,1-.78.28H13.61a1.12,1.12,0,0,1-.28-2.21,1.88,1.88,0,0,1,.34,0c1.07,0,2.15,0,3.23,0Z"/><path d="M6.44,24.75a3.31,3.31,0,1,0,3.3,3.3A3.31,3.31,0,0,0,6.44,24.75Zm0,4.59a1.29,1.29,0,1,1,0-2.57,1.29,1.29,0,0,1,0,2.57Z"/><path d="M27.36,24.75a3.31,3.31,0,1,0,3.3,3.3A3.31,3.31,0,0,0,27.36,24.75Zm0,4.59a1.29,1.29,0,1,1,0-2.57,1.29,1.29,0,0,1,0,2.57Z"/></g></g></svg>