<svg xmlns="http://www.w3.org/2000/svg" viewBox="0 0 40.19 40"><g data-name="Layer 2"><g><path d="M11.22.07a2.49,2.49,0,0,1,1.91,2.58V37.24a2.51,2.51,0,0,1-2,2.71l-.06,0H2a.54.54,0,0,0-.13-.07A2.5,2.5,0,0,1,0,37.35V2.81A2.53,2.53,0,0,1,2,.05S2,0,2,0h9.06C11.14,0,11.18.06,11.22.07ZM10.63,4A1.28,1.28,0,0,0,9.19,2.5H3.88A1.26,1.26,0,0,0,2.5,3.88V36.09A1.27,1.27,0,0,0,3.9,37.5H9.25a1.25,1.25,0,0,0,1.38-1.38V4Z"/><path d="M38.29.07a2.49,2.49,0,0,1,1.9,2.58V37.2a2.52,2.52,0,0,1-2,2.75.12.12,0,0,0-.05,0H19.48a6.24,6.24,0,0,1-.72-.27,2.48,2.48,0,0,1-1.38-2.36c0-3.8,0-7.6,0-11.4,0-7.6,0-15.21,0-22.81,0-1.57.49-2.67,2.05-3.16H38.16A.54.54,0,0,0,38.29.07ZM37.69,4A1.28,1.28,0,0,0,36.26,2.5h-15a1.26,1.26,0,0,0-1.38,1.39V36.11a1.26,1.26,0,0,0,1.38,1.39h15a1.26,1.26,0,0,0,1.4-1.41V4Z"/></g></g></svg>