<svg xmlns="http://www.w3.org/2000/svg" viewBox="0 0 40 40"><g data-name="Layer 2"><g><path d="M36.48,9.53H25.94v-6A3.53,3.53,0,0,0,22.42,0H3.52A3.53,3.53,0,0,0,0,3.52v33A3.53,3.53,0,0,0,3.52,40h18.9a3.53,3.53,0,0,0,3.52-3.52V29.94l4-4h6.54A3.53,3.53,0,0,0,40,22.42V13.05A3.53,3.53,0,0,0,36.48,9.53Zm-34.14-6A1.18,1.18,0,0,1,3.52,2.34h18.9a1.17,1.17,0,0,1,1.17,1.18V4.69H2.34Zm21.25,33a1.17,1.17,0,0,1-1.17,1.18H3.52a1.18,1.18,0,0,1-1.18-1.18V33H23.59Zm0-5.85H2.34V7H23.59v2.5H22.42a3.52,3.52,0,0,0-3.51,3.52v9.37a3.52,3.52,0,0,0,3.51,3.52h1.17Zm14.07-8.21a1.17,1.17,0,0,1-1.18,1.17h-7a1.18,1.18,0,0,0-.83.35l-2.68,2.68V24.77h0a1.18,1.18,0,0,0-1.17-1.18H22.42a1.17,1.17,0,0,1-1.17-1.17V13.05a1.17,1.17,0,0,1,1.17-1.17H36.48a1.17,1.17,0,0,1,1.18,1.17Z"/><path d="M34.14,14.22H24.77a1.17,1.17,0,1,0,0,2.34h9.37a1.17,1.17,0,1,0,0-2.34Z"/><path d="M29.45,18.91H24.77a1.17,1.17,0,1,0,0,2.34h4.68a1.17,1.17,0,1,0,0-2.34Z"/><path d="M36.48,9.53H25.94v-6A3.53,3.53,0,0,0,22.42,0H3.52A3.53,3.53,0,0,0,0,3.52v33A3.53,3.53,0,0,0,3.52,40h18.9a3.53,3.53,0,0,0,3.52-3.52V29.94l4-4h6.54A3.53,3.53,0,0,0,40,22.42V13.05A3.53,3.53,0,0,0,36.48,9.53Zm-34.14-6A1.18,1.18,0,0,1,3.52,2.34h18.9a1.17,1.17,0,0,1,1.17,1.18V4.69H2.34Zm21.25,33a1.17,1.17,0,0,1-1.17,1.18H3.52a1.18,1.18,0,0,1-1.18-1.18V33H23.59Zm0-5.85H2.34V7H23.59v2.5H22.42a3.52,3.52,0,0,0-3.51,3.52v9.37a3.52,3.52,0,0,0,3.51,3.52h1.17Zm14.07-8.21a1.17,1.17,0,0,1-1.18,1.17h-7a1.18,1.18,0,0,0-.83.35l-2.68,2.68V24.77h0a1.18,1.18,0,0,0-1.17-1.18H22.42a1.17,1.17,0,0,1-1.17-1.17V13.05a1.17,1.17,0,0,1,1.17-1.17H36.48a1.17,1.17,0,0,1,1.18,1.17Z"/><path d="M34.14,14.22H24.77a1.17,1.17,0,1,0,0,2.34h9.37a1.17,1.17,0,1,0,0-2.34Z"/><path d="M29.45,18.91H24.77a1.17,1.17,0,1,0,0,2.34h4.68a1.17,1.17,0,1,0,0-2.34Z"/></g></g></svg>