<svg id="Layer_1" data-name="Layer 1" xmlns="http://www.w3.org/2000/svg" viewBox="0 0 128 128">
  <g>
    <path d="M80,152H208V280H80Zm91.15858,106.267c-.06484.04317-.855.62722-1.6977,1.12194-19.72687,11.58144-44.46583,6.2587-59.42326-12.5912-1.05323-1.32732-3.34257-1.67379-5.05711-2.47635.301,1.89634-.00159,4.22037.99365,5.62467,14.28537,20.157,42.87866,26.74011,64.6814,14.78877,3.69664-2.02635,6.63829-2.89785,10.96825-1.51188,7.9455,2.54325,16.40073-3.12873,18.23483-11.28492a15.46013,15.46013,0,0,0-12.29255-18.68248c-8.08076-1.60555-16.62693,4.05027-17.5809,12.32561C169.533,249.50379,170.67358,253.61,171.15858,258.267Zm-68.979-47.03963c4.35524-20.01669,18.10886-32.9471,38.3791-36.70952,1.79543-.33326,3.30673-2.19727,4.95-3.35032-1.98151-.60339-4.10319-2.00695-5.92313-1.68811-21.50049,3.76666-35.56114,16.13962-41.78142,37.12877-.89253,3.01168-1.85268,4.98614-5.28238,6.154-6.49986,2.21338-10.24532,9.50984-9.142,16.02373,1.22444,7.2289,6.75626,12.57139,13.65263,13.18538a15.17939,15.17939,0,0,0,16.01136-10.10591C116.09684,223.393,112.4038,216.28256,102.17953,211.22737Zm75.99071-24.37889c10.79994,8.89963,16.17457,24.67332,13.72673,41.58076-.22173,1.53163.93165,3.26234,1.44644,4.9006,1.19461-1.2592,3.20521-2.373,3.45953-3.79976,3.06385-17.18952-1.23463-32.36487-13.31013-45.07955-2.39906-2.526-3.79206-4.75356-3.64209-8.53839.34941-8.81867-6.62149-15.19541-15.637-15.07715a15.11649,15.11649,0,0,0-15.03711,15.39642c.16417,8.48317,6.935,15.38659,15.49305,14.75818C168.87439,190.68084,172.94326,188.52138,178.17024,186.84848Z" transform="translate(-80 -152)" style="fill: #fff"/>
    <path d="M171.15858,258.267c-.485-4.657-1.62559-8.76321-1.17339-12.68584.954-8.27534,9.50014-13.93116,17.5809-12.32561A15.46013,15.46013,0,0,1,199.85864,251.938c-1.8341,8.15619-10.28933,13.82817-18.23483,11.28492-4.33-1.386-7.27161-.51447-10.96825,1.51188-21.80274,11.95134-50.396,5.36822-64.6814-14.78877-.99524-1.4043-.6927-3.72833-.99365-5.62467,1.71454.80256,4.00388,1.149,5.05711,2.47635,14.95743,18.8499,39.69639,24.17264,59.42326,12.5912C170.30354,258.89422,171.09374,258.31017,171.15858,258.267Zm13.89919.17858a10.18583,10.18583,0,0,0,9.91452-10.33138,10.58732,10.58732,0,0,0-10.03271-9.86993,10.36909,10.36909,0,0,0-10.08987,10.23528A9.99305,9.99305,0,0,0,185.05777,258.44558Z" transform="translate(-80 -152)"/>
    <path d="M102.17953,211.22737c10.22427,5.05519,13.91731,12.16561,10.86418,20.63806a15.17939,15.17939,0,0,1-16.01136,10.10591c-6.89637-.614-12.42819-5.95648-13.65263-13.18538-1.10334-6.51389,2.64212-13.81035,9.142-16.02373,3.4297-1.1679,4.38985-3.14236,5.28238-6.154,6.22028-20.98915,20.28093-33.36211,41.78142-37.12877,1.81994-.31884,3.94162,1.08472,5.92313,1.68811-1.64327,1.15305-3.15457,3.01706-4.95,3.35032C120.28839,178.28027,106.53477,191.21068,102.17953,211.22737Zm-3.43591,25.58545a10.5481,10.5481,0,0,0,10.06128-10.35106,10.43994,10.43994,0,0,0-10.50681-9.8482,10.27225,10.27225,0,0,0-9.739,10.04723A10.43456,10.43456,0,0,0,98.74362,236.81282Z" transform="translate(-80 -152)"/>
    <path d="M178.17024,186.84848c-5.227,1.6729-9.29585,3.83236-13.50062,4.14111-8.55805.62841-15.32888-6.275-15.49305-14.75818A15.11649,15.11649,0,0,1,164.21368,160.835c9.01555-.11826,15.98645,6.25848,15.637,15.07715-.15,3.78483,1.243,6.01234,3.64209,8.53839,12.0755,12.71468,16.374,27.89,13.31013,45.07955-.25432,1.42681-2.26492,2.54056-3.45953,3.79975-.51479-1.63825-1.66817-3.369-1.44644-4.90059C194.34481,211.5218,188.97018,195.74811,178.17024,186.84848Zm-3.3781-10.99842a10.29524,10.29524,0,0,0-10.44143-9.8452,9.99682,9.99682,0,0,0,.30015,19.99111A10.2762,10.2762,0,0,0,174.79214,175.85006Z" transform="translate(-80 -152)"/>
    <path d="M185.05777,258.44558a9.99305,9.99305,0,0,1-10.20806-9.966,10.36909,10.36909,0,0,1,10.08987-10.23528,10.58732,10.58732,0,0,1,10.03271,9.86993A10.18583,10.18583,0,0,1,185.05777,258.44558Z" transform="translate(-80 -152)" style="fill: #fff"/>
    <path d="M98.74362,236.81282a10.43456,10.43456,0,0,1-10.18454-10.152,10.27225,10.27225,0,0,1,9.739-10.04723,10.43994,10.43994,0,0,1,10.50681,9.8482A10.5481,10.5481,0,0,1,98.74362,236.81282Z" transform="translate(-80 -152)" style="fill: #fff"/>
    <path d="M174.79214,175.85006A10.2762,10.2762,0,0,1,164.65086,185.996a9.99682,9.99682,0,0,1-.30015-19.99111A10.29524,10.29524,0,0,1,174.79214,175.85006Z" transform="translate(-80 -152)" style="fill: #fff"/>
  </g>
</svg>
