<svg xmlns="http://www.w3.org/2000/svg" viewBox="0 0 39.97 40"><g data-name="Layer 2"><g><path d="M34.81,24.41a14.47,14.47,0,0,0,.2-2.64A15,15,0,0,0,28,9.25a1.55,1.55,0,0,1-.81-1.19,1.47,1.47,0,0,1,1-1.57,1.63,1.63,0,0,1,1.39.24A17.65,17.65,0,0,1,37.29,17,17.24,17.24,0,0,1,38,22.89c0,.79-.19,1.58-.3,2.37a.26.26,0,0,0,.12.29A5.26,5.26,0,0,1,40,30a5.37,5.37,0,0,1-4.15,5.25,5.26,5.26,0,0,1-5.39-1.7,5.09,5.09,0,0,1-1.17-4.92,5.21,5.21,0,0,1,4.16-4C33.87,24.49,34.33,24.47,34.81,24.41Zm-2.75,5.5a2.51,2.51,0,0,0,2.44,2.48,2.48,2.48,0,1,0,0-4.95A2.5,2.5,0,0,0,32.06,29.91Z"/><path d="M15.05,7.79A15,15,0,0,0,5.36,18.51,16.85,16.85,0,0,0,5,20.64a1.7,1.7,0,0,1-.71,1.41,1.47,1.47,0,0,1-2.23-.87,3.75,3.75,0,0,1,0-1.11A17.91,17.91,0,0,1,14.34,4.89a.33.33,0,0,0,.27-.3,5.18,5.18,0,0,1,1.7-3.16,5.23,5.23,0,0,1,5-1.24,5.13,5.13,0,0,1,4,4.17,5.21,5.21,0,0,1-2,5.41,5,5,0,0,1-3.42,1.14A5.35,5.35,0,0,1,15.14,8,.65.65,0,0,1,15.05,7.79ZM20,7.93a2.52,2.52,0,0,0,2.48-2.45,2.48,2.48,0,1,0-4.95,0A2.51,2.51,0,0,0,20,7.93Z"/><path d="M9.89,33.09a12.88,12.88,0,0,0,2,1.57A15,15,0,0,0,25.47,36a1.85,1.85,0,0,1,1.25-.15,1.5,1.5,0,0,1,1,1.68,1.54,1.54,0,0,1-1,1.18A18.1,18.1,0,0,1,19.48,40a17.86,17.86,0,0,1-10.1-3.47c-.6-.45-1.17-1-1.75-1.44A.26.26,0,0,0,7.34,35a5.24,5.24,0,0,1-4.13-.14A5.16,5.16,0,0,1,.12,31a5.27,5.27,0,0,1,2-5.41A5.13,5.13,0,0,1,5.6,24.46,5.46,5.46,0,0,1,9.92,33,.16.16,0,0,0,9.89,33.09ZM5.44,27.45A2.5,2.5,0,0,0,3,29.92a2.56,2.56,0,0,0,2.47,2.47,2.56,2.56,0,0,0,2.48-2.47A2.5,2.5,0,0,0,5.44,27.45Z"/></g></g></svg>