<svg id="Layer_1" data-name="Layer 1" xmlns="http://www.w3.org/2000/svg" viewBox="0 0 204.8 204.8">
  <g>
    <path d="M246.8,222.37665V318.8H42Q42,216.4,42,114l204.8,0q0,46.61789,0,93.23579a13.70765,13.70765,0,0,1-.72169-2.18874c-4.55517-29.304-20.56711-49.67419-47.81442-61.22915-2.70043-1.14518-5.85635-3.01757-8.00778.852-1.42233,2.55819.26772,4.36666,5.12234,6.42549,25.74631,10.91892,40.85545,30.3718,43.135,58.115,2.30827,28.09348-9.62427,49.93058-33.69274,64.81-3.68963,2.281-7.85914,3.80074-11.85216,5.57-2.25807,1.00055-3.54874,2.55962-2.729,4.97962.89036,2.62838,3.03685,3.07164,5.51355,2.307.50455-.15576.982-.39781,1.47593-.58971,21.485-8.347,36.482-23.27958,44.6115-44.79938C244.153,235.36661,245.18227,228.76048,246.8,222.37665Zm-86.30777-5.5331q0-38.03463-.00005-76.06928c0-5.727-1.82125-10.50536-7.36813-13.00051-5.40891-2.4331-9.916-.57565-14.19979,3.08751q-23.75706,20.31529-47.76575,40.334a11.54752,11.54752,0,0,1-6.68,2.40782c-11.94345.23459-23.894.09273-35.842.11918-4.73258.01046-5.82422,1.109-5.8279,5.88911q-.0271,35.24675.00092,70.49351c.00407,4.77628,1.07043,5.82727,5.88087,5.8367,11.68249.02292,23.36753.13039,35.04605-.089a10.64766,10.64766,0,0,1,8.0685,3.24154q24.07948,22.3526,48.37122,44.47627c6.56016,5.99081,16.717,3.505,19.4037-4.79246a24.73466,24.73466,0,0,0,.878-7.45821Q160.54886,254.0818,160.49223,216.84355Zm50.96963.84417c-.29873-17.77287-5.75886-30.387-16.163-40.76157a51.72794,51.72794,0,0,0-20.97308-12.523c-2.34329-.75583-4.64806-.68025-5.61324,2.06947-.921,2.62382.43622,4.3027,2.88023,5.2395,1.48362.56868,2.9666,1.13933,4.44336,1.72551,24.76311,9.82927,35.2403,41.67494,21.2419,64.27792a46.04756,46.04756,0,0,1-25.26779,20.09334c-2.54956.85374-4.30561,2.48007-3.313,5.358,1.02811,2.98087,3.46854,2.80785,5.94831,1.9815C197.09829,257.66632,211.0372,237.75208,211.46186,217.68772Z" transform="translate(-42 -114)" style="fill: #fff"/>
    <path d="M246.8,222.37665c-1.61773,6.38383-2.647,12.99-4.95949,19.11134-8.12955,21.5198-23.12648,36.45238-44.6115,44.79938-.49395.1919-.97138.43395-1.47593.58971-2.4767.76462-4.62319.32136-5.51355-2.307-.81977-2.42.4709-3.97907,2.729-4.97962,3.993-1.76927,8.16253-3.289,11.85216-5.57,24.06847-14.87938,36.001-36.71648,33.69274-64.81-2.2795-27.74324-17.38864-47.19612-43.135-58.115-4.85462-2.05883-6.54467-3.8673-5.12234-6.42549,2.15143-3.86961,5.30735-1.99722,8.00778-.852,27.24731,11.555,43.25925,31.92518,47.81442,61.22915a13.70765,13.70765,0,0,0,.72169,2.18874Z" transform="translate(-42 -114)"/>
    <path d="M160.49343,216.84355q.00182,37.23811-.03559,74.47614a24.73466,24.73466,0,0,1-.878,7.45821c-2.68667,8.2975-12.84354,10.78327-19.4037,4.79246q-24.26124-22.1557-48.37122-44.47627a10.64766,10.64766,0,0,0-8.0685-3.24154c-11.67852.2194-23.36356.11193-35.046.089-4.81044-.00943-5.8768-1.06042-5.88087-5.8367q-.03-35.24673-.00092-70.49351c.00368-4.78015,1.09532-5.87865,5.8279-5.88911,11.948-.02645,23.89855.11541,35.842-.11918a11.54752,11.54752,0,0,0,6.68-2.40782q24.0397-19.97874,47.76575-40.334c4.28378-3.66316,8.79088-5.52061,14.19979-3.08751,5.54688,2.49515,7.36809,7.27352,7.36813,13.00051Q160.49239,178.80892,160.49343,216.84355ZM85.89017,247.89708c0-4.8189-.00448-9.42737.00166-14.03586.00374-2.81678.794-5.20354,4.13854-5.09539,3.0994.10019,3.76521,2.412,3.75589,5.05818-.01589,4.51326-.17666,9.03686.08907,13.53451a7.60274,7.60274,0,0,0,1.9672,4.74992q24.04311,22.3875,48.37133,44.467c1.36924,1.24182,4.44928,2.594,5.31711,1.95871a8.20841,8.20841,0,0,0,3.00151-5.78968q.23826-75.86258.007-151.72591c-.00611-2.044-1.26-4.8964-2.84751-5.85189-1.15077-.69261-4.21785.64677-5.74321,1.90991-12.67509,10.49615-25.19725,21.17718-37.7498,31.821-4.04527,3.43014-9.55837,6.19756-11.63584,10.57883-2.06721,4.35964-.66222,10.36572-.77933,15.64986-.00294.13269-.0029.26552-.00059.39822.04771,2.74112-.42888,5.31353-3.82915,5.3597-3.65863.04966-4.07523-2.68317-4.06858-5.55061.01036-4.46924.00274-8.93854.00274-13.49563H51.0124v66.05917Z" transform="translate(-42 -114)"/>
    <path d="M211.46186,217.68772c-.42466,20.06436-14.36357,39.9786-36.81631,47.46061-2.47977.82635-4.9202.99937-5.94831-1.9815-.99259-2.87788.76346-4.50421,3.313-5.358a46.04756,46.04756,0,0,0,25.26779-20.09334c13.9984-22.603,3.52121-54.44865-21.2419-64.27792-1.47676-.58618-2.95974-1.15683-4.44336-1.72551-2.444-.9368-3.8012-2.61568-2.88023-5.2395.96518-2.74972,3.26995-2.8253,5.61324-2.06947a51.72794,51.72794,0,0,1,20.97308,12.523C205.703,187.30074,211.16313,199.91485,211.46186,217.68772Z" transform="translate(-42 -114)"/>
    <path d="M85.89017,247.89708H51.0124V181.83791H85.88818c0,4.55709.00762,9.02639-.00274,13.49563-.00665,2.86744.40995,5.60027,4.06858,5.55061,3.40027-.04617,3.87686-2.61858,3.82915-5.3597-.00231-.1327-.00235-.26553.00059-.39822.11711-5.28414-1.28788-11.29022.77933-15.64986,2.07747-4.38127,7.59057-7.14869,11.63584-10.57883,12.55255-10.64382,25.07471-21.32485,37.7498-31.821,1.52536-1.26314,4.59244-2.60252,5.74321-1.90991,1.58753.95549,2.8414,3.80787,2.84751,5.85189q.22637,75.86265-.007,151.72591a8.20841,8.20841,0,0,1-3.00151,5.78968c-.86783.6353-3.94787-.71689-5.31711-1.95871q-24.3348-22.07-48.37133-44.467a7.60274,7.60274,0,0,1-1.9672-4.74992c-.26573-4.49765-.105-9.02125-.08907-13.53451.00932-2.64613-.65649-4.958-3.75589-5.05818-3.34458-.10815-4.1348,2.27861-4.13854,5.09539C85.88569,238.46971,85.89017,243.07818,85.89017,247.89708Z" transform="translate(-42 -114)" style="fill: #fff"/>
  </g>
</svg>
