<svg id="Layer_1" data-name="Layer 1" xmlns="http://www.w3.org/2000/svg" viewBox="0 0 128 128">
  <g>
    <path d="M80,152H208V280H80Zm18.13084,15.90908c5.05936,0,9.56219.22583,14.024-.10349,1.97544-.14581,5.54861-1.48451,5.52064-2.16323-.16075-3.902-3.5661-2.36022-5.75195-2.48884-3.81744-.22461-7.65788-.089-11.48826-.056-5.8895.05079-7.332,1.46722-7.33526,7.38893q-.02746,49.96524-.001,99.93052c.00307,6.14838,1.39135,7.48249,7.73748,7.48564q43.46971.02161,86.93945-.00191c6.23587-.00392,7.37671-1.10695,7.404-7.22224.04683-10.49249.0148-20.98534.01466-31.478q-.00044-34.476-.01612-68.952c-.00911-5.93589-1.18725-7.08838-6.97735-7.14791-4.32984-.04451-8.6715-.17876-12.98438.096-1.34614.08574-2.61561,1.375-3.92018,2.11339,1.33917.86532,2.63744,2.391,4.02488,2.47695,4.92542.305,9.88126.119,14.78272.119V272.68437H98.13084Zm46.155,6.00009q6.49164,0,12.98327,0c10.86789-.0001,10.7294.0002,10.70463-10.6895-.01049-4.52943-1.82263-6.25092-6.28044-6.1787-9.98449.16176-19.97342.05-29.96055.0499-10.94-.00008-11.06739.13414-10.64027,11.19146.00642.16625.00672.33294.00375.49931-.06329,3.5405,1.70838,5.15933,5.21288,5.13419C132.30106,173.87285,138.29355,173.904,144.28582,173.90917Zm.45524,69.99883c10.47577,0,20.95364.10263,31.425-.11192,1.55-.03176,3.06931-1.56207,4.60281-2.39908-1.43956-.768-2.87466-2.19525-4.31935-2.205q-31.92469-.21573-63.851-.00163c-1.4524.00968-2.89549,1.4158-4.34291,2.17249,1.51975.84836,3.02527,2.40073,4.56155,2.43178C123.4549,244.00961,134.099,243.90794,144.74106,243.908Zm-.75446,10.18355c-6.97781,0-13.96065-.14166-20.92971.10523-1.62712.05765-3.20752,1.434-4.80942,2.2036,1.53355.83589,3.05776,2.37716,4.60212,2.39762q21.17892.28071,42.36231-.002c1.529-.02054,3.03726-1.58817,4.55514-2.43817-1.61567-.75543-3.21057-2.1057-4.85062-2.163C157.94711,253.95155,150.96441,254.09154,143.9866,254.09155Zm-1.51378-53.01227c-9.14432-.01439-17.35146,7.07641-18.14262,15.95134-.11364,1.27472,1.06931,2.665,1.65221,4.00184.8168-1.01329,2.07247-1.90912,2.3801-3.05866,2.21552-8.27873,7.27272-12.88606,14.29837-12.7439,6.9611.14086,11.74506,4.65289,13.78729,12.69783.29593,1.16581,1.5587,2.08619,2.37407,3.12014.60722-1.31787,1.83662-2.69277,1.7219-3.94448C159.7255,208.1712,151.59882,201.09363,142.47282,201.07928Zm9.753-11.89013a9.81335,9.81335,0,0,0-9.60693-10.07269,9.88639,9.88639,0,0,0-.36315,19.76941A9.77917,9.77917,0,0,0,152.22582,189.18915Zm7.172,39.88023c-2.1483-2.0199-3.2199-3.37238-4.60355-4.20834-.93819-.56684-2.31465-.40828-3.49511-.57414.21417,1.17883.09749,2.58573.71732,3.48494,1.01964,1.47924,2.61029,2.54966,3.79109,3.93644,2.05228,2.41027,3.81411,2.55635,6.10741.11437,4.43389-4.72135,9.19525-9.13558,13.61725-13.86741.88665-.94877.86595-2.74549,1.2636-4.15125-1.38269.41057-3.17446.40741-4.07893,1.30166C168.24966,219.52242,164.01727,224.17667,159.3978,229.06938Z" transform="translate(-80 -152)" style="fill: #fff"/>
    <path d="M98.13084,167.90908V272.68437h91.97339V167.90589c-4.90146,0-9.8573.186-14.78272-.119-1.38744-.08593-2.68571-1.61163-4.02488-2.47695,1.30457-.73835,2.574-2.02765,3.92018-2.11339,4.31288-.27472,8.65454-.14047,12.98438-.096,5.7901.05953,6.96824,1.212,6.97735,7.14791q.05285,34.47591.01612,68.952c.00014,10.49269.03217,20.98554-.01466,31.478-.0273,6.11529-1.16814,7.21832-7.404,7.22224q-43.46972.02733-86.93945.00191c-6.34613-.00315-7.73441-1.33726-7.73748-7.48564q-.02493-49.96526.001-99.93052c.00325-5.92171,1.44576-7.33814,7.33526-7.38893,3.83038-.033,7.67082-.16862,11.48826.056,2.18585.12862,5.5912-1.4132,5.75195,2.48884.028.67872-3.5452,2.01742-5.52064,2.16323C107.693,168.13491,103.1902,167.90908,98.13084,167.90908Z" transform="translate(-80 -152)"/>
    <path d="M144.28582,173.90657c-5.99227-.0026-11.98476-.03372-17.97673.00926-3.5045.02514-5.27617-1.59369-5.21288-5.13419.003-.16637.00267-.33306-.00375-.49931-.42712-11.05732-.29974-11.19154,10.64027-11.19146,9.98713.00007,19.97606.11186,29.96055-.0499,4.45781-.07222,6.27,1.64927,6.28044,6.1787.02477,10.6897.16326,10.6894-10.70463,10.6895Q150.77745,173.90923,144.28582,173.90657Zm-18.21174-5.15281h36.66276v-6.50752H126.07408Z" transform="translate(-80 -152)"/>
    <path d="M144.74106,243.908c-10.64205,0-21.28616.10164-31.92387-.11334-1.53628-.03105-3.0418-1.58342-4.56155-2.43178,1.44742-.75669,2.89051-2.16281,4.34291-2.17249q31.92474-.21273,63.851.00163c1.44469.00976,2.87979,1.437,4.31935,2.205-1.5335.837-3.0528,2.36732-4.60281,2.39908C165.6947,244.01063,155.21683,243.908,144.74106,243.908Z" transform="translate(-80 -152)"/>
    <path d="M143.9866,254.09155c6.97781,0,13.96051-.14,20.92982.10331,1.64005.05726,3.23495,1.40753,4.85062,2.163-1.51788.85-3.02612,2.41763-4.55514,2.43817q-21.1788.28446-42.36231.002c-1.54436-.02046-3.06857-1.56173-4.60212-2.39762,1.6019-.76961,3.1823-2.14595,4.80942-2.2036C130.026,253.94989,137.00879,254.09155,143.9866,254.09155Z" transform="translate(-80 -152)"/>
    <path d="M142.47282,201.07928c9.126.01435,17.25268,7.09192,18.07132,16.02411.11472,1.25171-1.11468,2.62661-1.7219,3.94448-.81537-1.03395-2.07814-1.95433-2.37407-3.12014-2.04223-8.04494-6.82619-12.557-13.78729-12.69783-7.02565-.14216-12.08285,4.46517-14.29837,12.7439-.30763,1.14954-1.5633,2.04537-2.3801,3.05866-.5829-1.33682-1.76585-2.72712-1.65221-4.00184C125.12136,208.15569,133.3285,201.06489,142.47282,201.07928Z" transform="translate(-80 -152)"/>
    <path d="M152.22582,189.18915a9.77917,9.77917,0,0,1-9.97008,9.69672,9.88639,9.88639,0,0,1,.36315-19.76941A9.81335,9.81335,0,0,1,152.22582,189.18915ZM136.051,187.67041l-.03638,2.4771c2.15764,1.49654,4.18524,3.944,6.50417,4.26111,3.27087.44731,5.56768-1.9676,5.49537-5.56848-.06711-3.34258-2.29438-5.66154-5.33049-5.23039C140.32806,183.94426,138.25155,186.24414,136.051,187.67041Z" transform="translate(-80 -152)"/>
    <path d="M159.3978,229.06938c4.61947-4.89271,8.85186-9.547,13.31908-13.96373.90447-.89425,2.69624-.89109,4.07894-1.30166-.39766,1.40576-.377,3.20248-1.26361,4.15125-4.422,4.73183-9.18336,9.14606-13.61725,13.86741-2.2933,2.442-4.05513,2.2959-6.10741-.11437-1.1808-1.38678-2.77145-2.4572-3.79109-3.93644-.61983-.89921-.50315-2.30611-.71732-3.48494,1.18046.16586,2.55692.0073,3.49511.57414C156.1779,225.697,157.2495,227.04948,159.3978,229.06938Z" transform="translate(-80 -152)"/>
    <path d="M126.07408,168.75376v-6.50752h36.66276v6.50752Z" transform="translate(-80 -152)" style="fill: #fff"/>
    <path d="M136.051,187.67041c2.20056-1.42627,4.27707-3.72615,6.63267-4.06066,3.03611-.43115,5.26338,1.88781,5.33049,5.23039.07231,3.60088-2.2245,6.01579-5.49537,5.56848-2.31893-.31713-4.34653-2.76457-6.50417-4.26111Z" transform="translate(-80 -152)" style="fill: #fff"/>
  </g>
</svg>
