<svg preserveAspectRatio="xMidYMid meet" viewBox="0 0 512 512" xmlns="http://www.w3.org/2000/svg"><g transform="matrix(.1 0 0 -.1 0 512)"><path d="m2 4634 3-489 165-6c567-23 1099-155 1608-400 209-100 310-158 502-285 1116-739 1803-1958 1857-3292l6-162h489 488v63c0 99-19 369-36 522-154 1379-887 2657-2006 3501-280 211-519 357-843 515-661 322-1310 484-2063 515l-172 7z"/><path d="m0 2891v-491h73c87 0 292-23 402-46 466-94 888-324 1231-670 345-347 575-798 659-1291 14-83 34-295 35-365v-28h490 490v33c0 17-5 100-10 182-77 1132-698 2131-1683 2709-460 270-980 421-1559 452l-128 6z"/><path d="m525 1341c-237-58-418-227-491-456-54-170-40-335 41-502 78-160 214-278 390-340 72-25 93-28 215-28 126 0 141 2 221 31 232 83 398 275 445 514 48 243-53 507-250 657-164 124-380 171-571 124z"/></g></svg>