<svg id="Layer_1" data-name="Layer 1" xmlns="http://www.w3.org/2000/svg" viewBox="0 0 128 128">
  <g>
    <path d="M80,152H208V280H80Zm115.10643,96.78552.36165,1.11469c-14.56,7.1017-29.09526,14.2548-43.69194,21.2803a20.19127,20.19127,0,0,1-18.17238-.00616c-9.59559-4.4549-19.385-8.49237-29.23167-12.7674L103.516,262.79c-7.00278.20808-15.19923-18.34808-12.73159-28.377H102.5786l.7846,4.45177c13.32719-4.41386,18.03535-3.74625,28.894,4.49133a29.10672,29.10672,0,0,0,21.49829,5.92673,107.33806,107.33806,0,0,1,11.019-.064l.12117,1.66337c-4.49628,3.77067-10.34,3.41962-15.68184,3.99532-5.63107.60688-11.37829.136-17.07476.136l-.50835,1.81359c1.30828.73,2.55956,1.92554,3.93658,2.09415a41.01287,41.01287,0,0,0,8.98592.18852,189.14282,189.14282,0,0,0,19.14982-2.57023c3.13922-.64219,6.31411-3.28725,4.99735-6.78633-.793-2.10725-4.10847-3.78584-6.629-4.57305-2.42291-.75674-5.32546-.41529-7.94126-.03444-7.72376,1.12456-14.12449-1.291-20.45676-5.71458a48.18008,48.18008,0,0,0-14.73286-6.44063c-3.4876-.95777-8.19792,1.24928-11.09746-.30977-7.361-3.9579-14.54688-.37045-21.95747-1.81926.40565,10.866,2.7355,20.40089,7.46889,29.34129,4.28979,8.10252,8.06195,9.09013,15.83436,3.99686,7.066,3.15977,14.33341,6.01585,21.228,9.59088,8.91453,4.62239,17.47039,4.03529,26.18136-.24352,14.0084-6.88088,28.09017-13.61456,42.02148-20.64712,1.54038-.77758,2.30158-3.09874,3.42415-4.704-1.65516-1.07865-3.40507-3.19873-4.94928-3.05822-7.228.65771-14.41053,1.87287-21.57362,3.09759-.71218.12178-1.18251,1.65807-1.7651,2.53784.78632.43453,1.55047,1.17458,2.364,1.2336a16.09665,16.09665,0,0,0,3.92886-.4452C185.07175,250.65719,190.08779,249.71414,195.10643,248.78552Zm-40.452-11.64863c13.15883.1803,21.3102-4.84563,26.40648-14.38772,5.07756-9.50707,5.76723-19.20387-.66458-28.63216-7.18061-10.52595-14.23748-21.13657-21.46912-31.627a4.11427,4.11427,0,0,0-3.23465-1.59072c-.98335.14094-2.00637,1.438-2.62111,2.46227-2.286,3.80876-4.15522,7.88909-6.65435,11.5437-4.12874,6.03766-8.71478,11.76037-12.94573,17.73087-6.66954,9.41172-7.13829,19.42168-1.86327,29.50487C136.84993,232.16081,145.55386,236.84831,154.65441,237.13689Z" transform="translate(-80 -152)" style="fill: #fff"/>
    <path d="M195.10643,248.78552c-5.01864.92862-10.03468,1.87167-15.05769,2.776a16.09665,16.09665,0,0,1-3.92886.4452c-.81355-.059-1.5777-.79907-2.364-1.2336.58259-.87977,1.05292-2.41606,1.7651-2.53784,7.16309-1.22472,14.34559-2.43988,21.57362-3.09759,1.54421-.14051,3.29412,1.97957,4.94928,3.05822-1.12257,1.60527-1.88377,3.92643-3.42415,4.704-13.93131,7.03256-28.01308,13.76624-42.02148,20.64712-8.711,4.27881-17.26683,4.86591-26.18136.24352-6.89459-3.575-14.162-6.43111-21.228-9.59088-7.77241,5.09327-11.54457,4.10566-15.83436-3.99686-4.73339-8.9404-7.06324-18.47533-7.46889-29.34129,7.41059,1.44881,14.59651-2.13864,21.95747,1.81926,2.89954,1.559,7.60986-.648,11.09746.30977a48.18008,48.18008,0,0,1,14.73286,6.44063c6.33227,4.42357,12.733,6.83914,20.45676,5.71458,2.6158-.38085,5.51835-.7223,7.94126.03444,2.52051.78721,5.836,2.4658,6.629,4.57305,1.31676,3.49908-1.85813,6.14414-4.99735,6.78633a189.14282,189.14282,0,0,1-19.14982,2.57023,41.01287,41.01287,0,0,1-8.98592-.18852c-1.377-.16861-2.6283-1.36415-3.93658-2.09415l.50835-1.81359c5.69647,0,11.44369.47086,17.07476-.136,5.34182-.5757,11.18556-.22465,15.68184-3.99532l-.12117-1.66337a107.33806,107.33806,0,0,0-11.019.064,29.10672,29.10672,0,0,1-21.49829-5.92673c-10.85864-8.23758-15.5668-8.90519-28.894-4.49133l-.7846-4.45177H90.78442c-2.46764,10.02889,5.72881,28.58505,12.73159,28.377l.85608-4.38307c9.84669,4.275,19.63608,8.3125,29.23167,12.7674a20.19127,20.19127,0,0,0,18.17238.00616c14.59668-7.0255,29.13194-14.1786,43.69194-21.2803Z" transform="translate(-80 -152)"/>
    <path d="M154.65441,237.13689c-9.10055-.28858-17.80448-4.97608-23.04633-14.99588-5.275-10.08319-4.80627-20.09315,1.86327-29.50487,4.231-5.9705,8.817-11.69321,12.94573-17.73087,2.49913-3.65461,4.36833-7.73494,6.65435-11.5437.61474-1.02422,1.63776-2.32133,2.62111-2.46227a4.11427,4.11427,0,0,1,3.23465,1.59072c7.23164,10.49042,14.28851,21.101,21.46912,31.627,6.43181,9.42829,5.74214,19.12509.66458,28.63216C175.96461,232.29126,167.81324,237.31719,154.65441,237.13689Zm1.63326-68.43835C149.882,177.51039,143.5555,186.183,137.264,194.8809a23.33275,23.33275,0,0,0-4.33637,14.9514A23.9696,23.9696,0,0,0,149.12686,231.503a23.33659,23.33659,0,0,0,25.89844-7.54537c5.62256-6.86773,7.0336-20.05345,1.77275-26.90407C169.74541,187.86974,163.1954,178.29991,156.28767,168.69854Z" transform="translate(-80 -152)"/>
    <path d="M156.28767,168.69854c6.90773,9.60137,13.45774,19.1712,20.51038,28.35506,5.26085,6.85062,3.84981,20.03634-1.77275,26.90407a23.33659,23.33659,0,0,1-25.89844,7.54537,23.9696,23.9696,0,0,1-16.19928-21.67074,23.33275,23.33275,0,0,1,4.33637-14.9514C143.5555,186.183,149.882,177.51039,156.28767,168.69854Zm2.71677,43.36023c4.38242,0,8.03462.174,11.65222-.10336,1.12228-.086,2.1506-1.39739,3.22194-2.14776-1.033-.63051-2.03751-1.74157-3.10411-1.80477-3.76274-.22295-7.54675-.08674-11.76451-.08674,0-3.40365.18389-6.21154-.0589-8.982-.19-2.16871,1.46308-5.6944-2.51961-5.64211-.8341.011-2.0061,3.79232-2.32711,5.94014-.40528,2.7116-.09783,5.52972-.09783,8.68628-4.086,0-7.56655-.20089-11.00216.10424-1.27715.11343-2.44906,1.41189-3.66895,2.17,1.18465.629,2.3381,1.71752,3.55984,1.8005,3.58233.24332,7.19181.08664,11.12432.08664,0,4.29165-.22613,7.95289.12813,11.55709.117,1.18971,1.73214,2.23215,2.66228,3.34194.73148-1.10422,2.00625-2.16723,2.09368-3.32027C159.17774,220.04392,159.00444,216.39541,159.00444,212.05877Z" transform="translate(-80 -152)" style="fill: #fff"/>
    <path d="M159.00444,212.05877c0,4.33664.1733,7.98515-.10077,11.59974-.08743,1.153-1.3622,2.216-2.09368,3.32026-.93014-1.10978-2.54533-2.15222-2.66228-3.34193-.35426-3.6042-.12813-7.26544-.12813-11.55709-3.93251,0-7.542.15668-11.12432-.08664-1.22174-.083-2.37519-1.17146-3.55984-1.80051,1.21989-.75806,2.3918-2.05652,3.66895-2.16995,3.43561-.30513,6.91616-.10424,11.00216-.10424,0-3.15656-.30745-5.97468.09783-8.68628.321-2.14782,1.493-5.92919,2.32711-5.94014,3.98269-.05229,2.32957,3.4734,2.51961,5.64211.24279,2.7705.0589,5.57839.0589,8.982,4.21776,0,8.00177-.13621,11.76451.08674,1.0666.0632,2.07111,1.17426,3.10411,1.80476-1.07134.75038-2.09966,2.06173-3.22194,2.14777C167.03906,212.2328,163.38686,212.05877,159.00444,212.05877Z" transform="translate(-80 -152)"/>
  </g>
</svg>
