<svg id="Layer_1" data-name="Layer 1" xmlns="http://www.w3.org/2000/svg" viewBox="0 0 1024 1024">
  <g>
    <path d="M122-296h45c2.12238.3013,4.236.76417,6.36847.88013a490.68062,490.68062,0,0,1,136.74841,26.7977Q482.3166-207.791,579.55756-53.12616C620.65356,12.34381,644.906,83.86,653.1087,160.762c1.07386,10.0676,1.9328,20.15812,2.8913,30.238v49c-.29456,1.78125-.64465,3.5553-.875,5.34479-3.12061,24.24341-4.5119,48.85589-9.61493,72.67346C615.77979,456.77966,541.4278,565.75879,423.4433,644.45313c-68.48731,45.68029-144.27966,72.01226-226.15857,80.69158C186.543,726.28339,175.76251,727.05713,165,728H122c-1.454-.26379-2.898-.61853-4.36337-.77759-19.01969-2.06518-38.15464-3.37451-57.04291-6.28619A482.49587,482.49587,0,0,1-89.42,671.5105q-133.418-69.44788-209.54529-199.37616a501.87705,501.87705,0,0,1-66.11792-201.9317C-366.1535,260.14551-367.03248,250.06805-368,240V190a40.5468,40.5468,0,0,0,.85157-4.86328c2.47169-44.45038,10.24689-87.9823,25.02091-129.95346,52.86894-150.19411,153.44675-255.43082,300.48635-316.0964,42.36923-17.4807,86.73657-27.72425,132.38092-32.2228C101.15277-294.16221,111.57956-295.049,122-296ZM634.97852,215.265C634.993-54.78128,414.733-274.79581,144.24353-274.923c-269.6795-.12684-491.24392,220.92839-491.224,490.09515.02,270.478,220.20851,491.73682,489.41324,491.79217C414.39941,707.0202,634.964,486.83478,634.97852,215.265Z" transform="translate(368 296)"/>
    <path d="M165,728c10.76251-.94287,21.543-1.71661,32.28473-2.85529,81.87891-8.67932,157.67126-35.01129,226.15857-80.69158,117.9845-78.69434,192.33649-187.67347,222.06677-326.43488,5.103-23.81757,6.49432-48.43005,9.61493-72.67346.23035-1.78949.58044-3.56354.875-5.34479V728Z" transform="translate(368 296)" style="fill: #fff"/>
    <path d="M122-296c-10.42044.951-20.84723,1.83779-31.26025,2.86406C45.0954-288.63739.72806-278.39384-41.64117-260.91314c-147.0396,60.66558-247.61741,165.90229-300.48635,316.0964-14.774,41.97116-22.54922,85.50308-25.02091,129.95346A40.5468,40.5468,0,0,1-368,190V-296Z" transform="translate(368 296)" style="fill: #fff"/>
    <path d="M-368,240c.96752,10.06805,1.8465,20.14551,2.91675,30.20264a501.87705,501.87705,0,0,0,66.11792,201.9317Q-223.1388,602.13538-89.42,671.5105A482.49587,482.49587,0,0,0,60.59372,720.93622c18.88827,2.91168,38.02322,4.221,57.04291,6.28619,1.46533.15906,2.90942.5138,4.36337.77759H-368Z" transform="translate(368 296)" style="fill: #fff"/>
    <path d="M656,191c-.9585-10.07989-1.81744-20.17041-2.8913-30.238C644.906,83.86,620.65356,12.34381,579.55756-53.12616q-97.00836-154.54379-269.44068-215.196a490.68062,490.68062,0,0,0-136.74841-26.7977c-2.13245-.116-4.24609-.57883-6.36847-.88013H656Z" transform="translate(368 296)" style="fill: #fff"/>
    <path d="M634.97852,215.265C634.964,486.83478,414.39941,707.0202,142.43274,706.96429-126.772,706.90894-346.96052,485.65015-346.9805,215.17212c-.01989-269.16676,221.54453-490.222,491.224-490.09515C414.733-274.79581,634.993-54.78128,634.97852,215.265ZM226.84528-225.25018c-5.52936,13.17068,5.44336,17.22908,12.8554,24.45188-4.71716,1.49122-8.64825,3.32875-12.756,3.90353-7.57635,1.06014-15.24994,1.47743-22.89526,1.97448a36.54621,36.54621,0,0,0-16.05274,4.6221c-16.09356,9.0685-32.43518,17.69626-48.665,26.52362-7.84363,4.26613-15.652,8.59706-23.44712,12.88259,2.56555,11.83871,5.01377,23.13592,7.46335,34.43951-2.747.92557-4.80713,1.56186-6.82538,2.31088-5.29852,1.96642-7.10089,7.404-4.01352,12.01136,6.95328,10.37664,13.81534,20.81625,20.90451,31.09929,3.56382,5.16946,2.95685,10.8619,3.52011,16.47569-5.83438,1.2241-10.99435,2.66618-16.25164,3.296-4.20679.50392-5.00785,2.46756-4.8497,6.24589.28436,6.79465.08026,13.60974.08026,20.28983-4.19077,1.31134-9.67816,1.41345-11.23325,3.93793-1.80423,2.92889-.56937,8.0523.09641,12.09976.8565,5.207-.68216,8.357-5.18488,11.43194C67.96164,24.34561,36.57129,46.29462,5.04114,68.03992,2.444,69.83105,1.27661,71.54059,1.64423,74.9227c1.00753,9.26956,1.96371,18.58939,2.0552,27.898.061,6.19882,2.37418,10.6539,6.50653,14.9129,19.72626,20.33084,39.26419,40.84449,59.00873,61.15738a9.61163,9.61163,0,0,0,6.00775,2.6434c10.82328.33777,21.68488.80075,32.484.25211,17.36133-.88211,35.10651.34906,51.4419-7.73111,3.20465-1.58511,5.04968-.41415,4.92126,3.4516-.11462,3.44977-.47772,7.03216.25568,10.33707,1.17389,5.29025,3.36871,10.34524,4.75744,15.59869,1.78186,6.7406,2.05744,14.15054,5.10327,20.20486,2.70459,5.37592,3.30646,10.5434,3.86658,16.1294a60.87285,60.87285,0,0,0,2.49524,11.05884c.92731,3.13293,3.14594,6.0733,3.3598,9.197,1.42139,20.75848,2.38575,41.548,3.70075,62.31451a21.54844,21.54844,0,0,0,2.33917,8.41583c7.1933,13.70276,14.9801,27.10254,21.89532,40.94013,6.36756,12.74176,13.3772,25.41278,12.50055,40.51617-.23608,4.06653,2.48066,6.08808,6.46076,5.85663,11.459-.66656,23.03827-.65387,34.3316-2.42755,13.912-2.18494,25.49823-9.6842,32.28327-22.063,8.13311-14.83826,15.01385-30.39093,21.92773-45.86175,7.2815-16.2934,18.718-27.73987,35.18878-34.96015,9.19336-4.03,17.64362-9.91357,26.04132-15.54016,4.957-3.32135,7.527-8.57123,8.68055-14.64178a75.51832,75.51832,0,0,1,19.94372-38.4704q29.06113-30.6579,58.02124-61.41138a24.48825,24.48825,0,0,0,2.57678-4.104q.39992.5652.79975,1.13043c-.7312,14.23779-1.46234,28.47562-2.23163,43.45584,6.03534-2.17316,11.2616-4.22748,16.60614-5.90478,2.58008-.80976,3.31042-2.13727,3.17486-4.70331-.45721-8.6521-1.00506-17.3158-.9616-25.97226.02966-5.88907-.41791-11.23685-5.6214-15.03784a4.38659,4.38659,0,0,1-1.37989-1.99369c-2.86889-7.99667-6.92535-10.47876-14.96527-9.07684-11.31347,1.97272-22.622,3.97427-33.942,5.90909-10.59931,1.81164-11.58594,1.6203-16.23059-8.16587-7.91651-16.67993-15.32306-33.60134-23.02826-50.38253A94.21306,94.21306,0,0,0,385.436,94.98364c-9.45794-14.279-19.21374-28.36062-28.83258-42.53341a24.77168,24.77168,0,0,1-1.44122-2.81858q.70295-.46628,1.406-.93258c17.6159,23.99621,35.61609,47.72375,52.66894,72.11364,7.3877,10.56617,13.23779,22.291,19.00427,33.87879,4.11573,8.27072,8.54035,11.08368,17.00672,7.11682a101.12358,101.12358,0,0,0,17.25079-10.83408c5.12854-3.82977,9.66144-8.45712,14.736-12.98318,1.80677,4.1383,3.44251,7.88507,5.14722,11.78967l11.87518-2.86655c-.42681-5.01834-.801-9.41748-1.21814-14.32315,3.9665,0,7.43952-.15316,10.88282.09946.95141.06986,2.6242,1.38327,2.59424,2.066-.36109,8.22888,1.04248,16.41165-1.71387,24.71289-2.46668,7.42868-2.86646,15.55145-4.04669,23.38779a3.59588,3.59588,0,0,0,1.036,2.62243c3.46594,3.44623,7.05316,6.77042,10.6441,10.17923,16.11188-22.10083,32.73114-35.31289,49.32385-39.3526.94037,1.70044,1.86963,3.45838,2.8689,5.1756,8.37939,14.399,7.41956,35.11469-8.6474,46.06992-2.27881,1.55383-4.04364,4.84591-4.68341,7.645-2.4845,10.87-4.41895,21.86584-6.57373,32.89465a69.34921,69.34921,0,0,0-7.1228-4.29877c-4.16-1.93908-5.56873-4.97436-5.58484-9.47772-.02478-6.94238-.68115-13.88245-1.08374-21.07776-5.98285.40219-11.466.54071-16.86621,1.28278a6.31281,6.31281,0,0,0-4.00354,3.42523c-2.541,5.96283-4.85639,12.04285-6.81366,18.21948a7.92077,7.92077,0,0,0,.85907,5.76959,165.0973,165.0973,0,0,0,9.82739,14.45026,8.92181,8.92181,0,0,0,5.05756,3.30206c8.54241,1.38422,17.1405,2.46949,25.75024,3.35517a7.53128,7.53128,0,0,0,5.24036-1.6344c7.41223-6.706,14.66137-13.5976,21.79754-20.5979a7.97748,7.97748,0,0,0,2.10456-4.72766c.86138-11.46222,2.23394-22.95694,1.9931-34.41077-.22717-10.808,6.41919-17.16241,12.4433-24.78638,8.72107,20.84857,12.927,42.113,14.31054,64.19757,4.48749-4.74585,6.08838-10.286,6.38227-16.04065a391.65171,391.65171,0,0,0-8.398-102.8211C572.79364-6.7727,504.66126-108.17078,392.437-178.86852c-31.73517-19.99214-64.57849-37.8583-100.52124-49.40634-4.25958-1.36855-7.63293-1.48255-11.68695.78894-10.82446,6.065-21.94342,11.6044-32.63715,17.19163-3.012-3.726-5.15472-7.78293-8.49817-10.12771C235.56207-222.89854,230.88623-223.743,226.84528-225.25018Zm-409.5066,739.88849c-1.01059-1.87018-1.71417-3.18213-2.42663-4.48914-11.07341-20.3139-22.24532-40.57544-33.09755-61.00684-1.33725-2.51751-2.16884-6.407-1.209-8.872,10.573-27.15252,24.56289-52.36749,43.20574-74.93383,8.37788-10.14112,17.97826-12.478,30.117-7.45331,9.2816,3.842,16.42287.89831,20.87342-8.34973,3.23225-6.71656,5.63807-13.84619,8.18158-20.87525,4.4107-12.18908,8.505-24.49383,13.00927-36.64734,2.16834-5.85052,6.45078-9.56012,12.33231-12.269a75.85417,75.85417,0,0,0,18.47433-11.53222c8.01294-7.081,7.81345-15.94617.48041-23.64563a61.35861,61.35861,0,0,0-10.14975-8.84357c-11.907-7.93836-23.618-16.33057-36.21551-23.02054-9.28673-4.93173-12.02632-11.58221-10.82308-21.08514a18.43649,18.43649,0,0,1,.33948-3.47138c1.25147-3.73523-.22665-5.51819-3.66656-7.21234-45.7499-22.53168-92.6336-42.20132-141.57392-56.76449-5.93591-1.76633-8.32087-4.13749-7.2132-10.0496a50.77929,50.77929,0,0,1,6.44445-16.8739c2.01142-3.28137,2.87292-5.93164,2.30611-9.54654-.95215-6.07245-2.95355-12.38107-2.133-18.258a114.1603,114.1603,0,0,1,22.70395-54.70194,25.80874,25.80874,0,0,1,8.86251-7.05124c5.90118-2.89553,9.96173.23612,8.3869,6.58152a106.58145,106.58145,0,0,1-6.59086,18.22177c-1.20156,2.64609-3.696,4.97522-6.12144,6.73483-4.08681,2.965-8.5861,5.36142-14.43664,8.926,7.93259,7.39593,15.11359,14.08419,22.286,20.78161,2.97818,2.78092,5.94559,2.76328,8.71869-.19189,2.7156-2.894,5.281-5.92887,8.256-9.29016-7.48646-5.11774-14.532-9.93409-22.13959-15.13465,5.435-2.38,10.07018-4.64572,14.881-6.44052,3.73244-1.39252,6.30469-3.29895,6.45426-7.62668a5.25825,5.25825,0,0,1,1.34183-2.97329c1.90265-2.17795,4.35009-3.952,5.94348-6.3162C-207.55228,7.14853-198.55775-6.873-189.13051-20.598a19.21,19.21,0,0,1,7.75913-6.33438c17.96394-7.894,36.56829-14.48213,54.01466-23.36141,18.80069-9.56854,36.52463-21.24325,54.82016-31.823a27.44978,27.44978,0,0,1,10.10162-3.85111c7.08045-.82049,14.26288-.81813,21.40711-1.01593,7.98611-.2211,13.34427-3.76393,15.89828-11.27945,1.1131-3.27545,1.39994-6.8251,2.168-10.2263a66.39376,66.39376,0,0,1,2.49341-9.61952c1.17392-2.99915,3.147-5.92435,7.09567-4.7661,3.95426,1.15988,4.34177,4.17236,3.92218,7.98757-.24832,2.25788.6174,6.22569,2.05356,6.81541,7.49588,3.078,15.20807,5.9865,23.12305,7.49538,2.82654.53883,7.30374-2.29,9.46344-4.88395,2.69748-3.23982-.55383-6.45356-2.803-9.12156-1.39319-1.65257-2.97247-3.14824-5.0665-5.34073h6.61038c25.33249-.00005,50.66513.03274,75.9972-.073,1.71585-.00715,4.53808-.617,4.96411-1.6922,3.22653-8.14238,5.98285-16.47108,9.2211-25.69671L18.08225-157.42451c-.18671-2.96853-.35712-5.678-.53541-8.51273l-5.63229.42372c2.16074-12.60763,8.13129-22.5011,17.1846-30.6304,4.33612-3.89361,9.01911-7.41221,13.23059-11.43018,3.91495-3.735,4.1908-7.439.629-11.45743-3.26422-3.68281-7.2059-6.76516-11.38772-10.607-5.90561,8.02058-11.17209,15.48341-16.7678,22.69061C8.477-198.79973,2.05161-190.70732-4.77692-182.98528a10.85373,10.85373,0,0,1-7.735,3.24625c-11.86716-.73974-23.69245-2.0865-35.336,1.89163l-.88516-1.1049L-25.037-205.94449c.19834.1542.083-.014-.03253-.01413-9.16235-.01037-18.33282-.22848-27.48276.10964a24.19313,24.19313,0,0,0-9.98227,2.49353C-188.143-138.02035-270.26034-37.44739-307.43948,99.42944c-2.82764,10.41013-2.69472,10.44626,6.35583,16.62888,11.6784,7.97775,12.24082,10.85818,4.26651,22.42593-6.52022,9.45832-13.30915,18.74234-19.50232,28.409a25.46516,25.46516,0,0,0-3.76511,11.10959,434.44209,434.44209,0,0,0,2.3251,94.26657A464.4,464.4,0,0,0-204.03766,521.03827c1.11382,1.248,3.81145,2.53644,4.99315,2.021C-193.5822,520.677-188.39552,517.66278-182.66132,514.63831ZM590.10114,316.9256c-5.99109,2.25372-11.92353,4.02191-17.43543,6.6665-8.46838,4.063-16.92853,5.15039-26.02484,2.55048-2.456-.702-3.629-1.35175-3.9223-4.02136-.72034-6.5564-1.7945-13.07386-2.71888-19.554H520.413c-.60779,5.67151-1.18628,11.06964-1.8053,16.84638-2.7995-.38025-5.26087-1.077-7.69043-.9798-8.81922.353-12.74506-4.04828-13.12372-12.52686-.31445-7.04175-4.58521-10.96869-11.41235-13.14557a28.48244,28.48244,0,0,0-2.07544,2.44776c-4.45032,6.48181-9.117,12.38141-18.26679,7.68213-.09845-.05048-.29431.0885-.95984.31207-.78418,2.79224-1.64947,5.87353-2.55566,9.10028,2.1944.60541,3.76221,1.33,5.36828,1.42786,5.46613.333,6.77869,3.06872,6.706,8.39959-.3244,23.8089-.14093,47.62464-.14087,71.43793v15.17816c14.4245,3.52521,28.54858,6.97705,42.71466,10.43915-3.28564,9.40045-.62933,14.09076,8.80988,15.44513a20.017,20.017,0,0,0,9.8103-.70471,172.04654,172.04654,0,0,0,20.15137-9.68793,15.63328,15.63328,0,0,0,5.861-6.42456c13.12976-26.24475,23.16662-53.66571,31.35785-81.84064C595.23145,328.85535,594.37244,323.08984,590.10114,316.9256ZM-44.68655,638.36053a459.84447,459.84447,0,0,0,157.8233,39.43488,448.27946,448.27946,0,0,0,160.35452-17.955c-13.12646-1.60211-26.22638-2.48584-39.27637-3.848-2.82751-.2951-5.62567-2.06152-8.16363-3.60132-2.497-1.51483-4.39093-4.52105-7.00159-5.24725-5.37469-1.49506-11.05084-1.90594-16.6416-2.769-1.28717,3.12414-2.39838,5.821-3.516,8.53369-6.029-.68549-11.62775-1.59552-17.258-1.88043-5.01959-.254-8.24029-1.55652-7.83923-7.44959.10675-1.56775-1.18439-4.64392-1.77588-4.62964-6.71435.16193-14.82776-1.4378-19.84241,1.737-12.01425,7.60627-24.25885,10.91938-38.15368,9.39124a34.49893,34.49893,0,0,0-7.9841.01837c-4.47257.55957-7.16971-.712-8.18259-5.49414a5.61443,5.61443,0,0,0-3.91189-3.39612c-15.86966-1.88031-31.78116-3.40381-47.66343-5.18371-4.07531-.45673-7.5552-.04462-10.09311,3.58245-3.006,4.296-6.95993,5.03516-11.64834,2.985a16.73085,16.73085,0,0,0-2.90457-.68768c-12.80835-2.9925-12.81021-2.9925-15.042-15.90155-.22669-1.31128-.49784-2.62329-.59638-3.94635-.17523-2.35144-.64291-4.34876-3.657-4.19349-3.134.16138-6.76431-3.11169-9.239,1.5575-2.80471,5.29187-5.934,10.41418-8.65942,15.74451-1.32391,2.58935-2.91632,3.41143-5.857,3.29376C-28.66714,638.16553-35.93781,638.36053-44.68655,638.36053ZM147.267-240.75636c-11.03049-.8119-20.58454-.63831-29.77448-2.38277C100.81458-246.305,87.68283-240.073,76.26114-229.1467c-8.28418,7.92485-15.656,16.79521-23.62894,25.05654-5.14154,5.32748-6.39917,11.42237-4.81048,18.401,2.01641,8.85765,6.07858,10.87708,13.72079,6.05256,15.62213-9.86223,31.19977-19.814,46.47342-30.20269,10.728-7.29686,20.976-15.30739,31.31866-23.15693C141.86911-234.91978,143.93524-237.46043,147.267-240.75636ZM373.12378,318.123c-11.80963,7.39764-23.67615,14.70733-35.37958,22.26941a20.87289,20.87289,0,0,0-5.72394,5.9331c-8.10357,12.15656-12.90667,26.39649-23.3825,37.071,4.00726,4.3938,7.11218,5.04358,11.59936,1.97461a48.97612,48.97612,0,0,0,7.24927-6.07177C345.41882,361.04065,359.38678,339.74811,373.12378,318.123Zm50.96594,66.466c-2.30389,9.67-4.97009,18.945-6.6167,28.39758-1.24707,7.15857-4.03937,12.73676-10.28949,16.5943-1.246.769-2.73919,2.51331-2.6983,3.76142.21551,6.56848.88654,13.12207,1.38873,19.54394h13.67853c0-5.24274-.19244-10.05762.09155-14.84418.11933-2.01056.67047-4.56457,2.00836-5.84185,9.01636-8.60822,11.87543-19.04,10.2649-31.11121a64.68467,64.68467,0,0,1-.05481-8.476C431.86151,385.53613,431.86139,385.53613,424.08972,384.589ZM117.06485-200.54964c1.1315,7.31861,2.15347,13.929,3.14578,20.34731h19.00064c.4632-7.3872.90338-14.40734,1.36835-21.82258ZM212.71637-231.355l.08112-1.27431L172.30383-246.772c2.90149,8.77758,5.33857,16.15007,7.8725,23.81558ZM502.27026,257.90411c-4.12121-1.51666-7.00476-2.799-10.01867-3.57507-1.1604-.29883-3.20233.10687-3.84839.95178-6.29559,8.23322-12.38049,16.62757-18.77814,25.31952,3.71509,1.73346,6.53137,3.04755,9.86932,4.605C486.97369,276.24,494.29529,267.46356,502.27026,257.90411Z" transform="translate(368 296)" style="fill: #fff"/>
    <path d="M226.84528-225.25018c4.041,1.50713,8.71679,2.35164,12.24816,4.82818,3.34345,2.34478,5.48615,6.40169,8.49817,10.12771,10.69373-5.58723,21.81269-11.12659,32.63715-17.19163,4.054-2.27149,7.42737-2.15749,11.68695-.78894,35.94275,11.548,68.78607,29.4142,100.52124,49.40634C504.66126-108.17078,572.79364-6.7727,600.61713,122.2204a391.65171,391.65171,0,0,1,8.398,102.8211c-.29389,5.7547-1.89478,11.2948-6.38227,16.04065-1.38354-22.08459-5.58947-43.349-14.31054-64.19757-6.02411,7.624-12.67047,13.97834-12.4433,24.78638.24084,11.45383-1.13172,22.94855-1.9931,34.41077a7.97748,7.97748,0,0,1-2.10456,4.72766c-7.13617,7.0003-14.38531,13.8919-21.79754,20.5979a7.53128,7.53128,0,0,1-5.24036,1.6344c-8.60974-.88568-17.20783-1.971-25.75024-3.35517a8.92181,8.92181,0,0,1-5.05756-3.30206,165.0973,165.0973,0,0,1-9.82739-14.45026,7.92077,7.92077,0,0,1-.85907-5.76959c1.95727-6.17663,4.27264-12.25665,6.81366-18.21948a6.31281,6.31281,0,0,1,4.00354-3.42523c5.4002-.74207,10.88336-.88059,16.86621-1.28278.40259,7.19531,1.059,14.13538,1.08374,21.07776.01611,4.50336,1.4248,7.53864,5.58484,9.47772a69.34921,69.34921,0,0,1,7.1228,4.29877c2.15478-11.02881,4.08923-22.0246,6.57373-32.89465.63977-2.79908,2.4046-6.09116,4.68341-7.645,16.067-10.95523,17.02679-31.671,8.6474-46.06992-.99927-1.71722-1.92853-3.47516-2.8689-5.1756-16.59271,4.03971-33.212,17.25177-49.32385,39.3526-3.59094-3.40881-7.17816-6.733-10.6441-10.17923a3.59588,3.59588,0,0,1-1.036-2.62243c1.18023-7.83634,1.58-15.95911,4.04669-23.38779,2.75635-8.30124,1.35278-16.484,1.71387-24.71289.03-.68271-1.64283-1.99612-2.59424-2.066-3.4433-.25262-6.91632-.09946-10.88282-.09946.41718,4.90567.79133,9.30481,1.21814,14.32315l-11.87518,2.86655c-1.70471-3.9046-3.34045-7.65137-5.14722-11.78967-5.07458,4.52606-9.60748,9.15341-14.736,12.98318a101.12358,101.12358,0,0,1-17.25079,10.83408c-8.46637,3.96686-12.891,1.1539-17.00672-7.11682-5.76648-11.58777-11.61657-23.31262-19.00427-33.87879-17.05285-24.38989-35.053-48.11743-52.66894-72.11364q-.703.46632-1.406.93258a24.77168,24.77168,0,0,0,1.44122,2.81858C366.22223,66.623,375.978,80.70462,385.436,94.98364a94.21306,94.21306,0,0,1,6.58332,12.87052c7.7052,16.78119,15.11175,33.7026,23.02826,50.38253,4.64465,9.78617,5.63128,9.97751,16.23059,8.16587,11.31994-1.93482,22.62848-3.93637,33.942-5.90909,8.03992-1.40192,12.09638,1.08017,14.96527,9.07684a4.38659,4.38659,0,0,0,1.37989,1.99369c5.20349,3.801,5.65106,9.14877,5.6214,15.03784-.04346,8.65646.50439,17.32016.9616,25.97226.13556,2.566-.59478,3.89355-3.17486,4.70331-5.34454,1.6773-10.5708,3.73162-16.60614,5.90478.76929-14.98022,1.50043-29.21805,2.23163-43.45584q-.39981-.5652-.79975-1.13043a24.48825,24.48825,0,0,1-2.57678,4.104q-28.95867,30.75457-58.02124,61.41138a75.51832,75.51832,0,0,0-19.94372,38.4704c-1.15357,6.07055-3.72358,11.32043-8.68055,14.64178-8.3977,5.62659-16.848,11.51013-26.04132,15.54016-16.47076,7.22028-27.90728,18.66675-35.18878,34.96015-6.91388,15.47082-13.79462,31.02349-21.92773,45.86175-6.785,12.37879-18.37128,19.878-32.28327,22.063-11.29333,1.77368-22.87262,1.761-34.3316,2.42755-3.9801.23145-6.69684-1.7901-6.46076-5.85663.87665-15.10339-6.133-27.77441-12.50055-40.51617-6.91522-13.83759-14.702-27.23737-21.89532-40.94013a21.54844,21.54844,0,0,1-2.33917-8.41583c-1.315-20.76654-2.27936-41.556-3.70075-62.31451-.21386-3.12366-2.43249-6.064-3.3598-9.197a60.87285,60.87285,0,0,1-2.49524-11.05884c-.56012-5.586-1.162-10.75348-3.86658-16.1294-3.04583-6.05432-3.32141-13.46426-5.10327-20.20486-1.38873-5.25345-3.58355-10.30844-4.75744-15.59869-.7334-3.30491-.3703-6.8873-.25568-10.33707.12842-3.86575-1.71661-5.03671-4.92126-3.4516-16.33539,8.08017-34.08057,6.849-51.4419,7.73111-10.7991.54864-21.6607.08566-32.484-.25211a9.61163,9.61163,0,0,1-6.00775-2.6434C49.47015,158.57813,29.93222,138.06448,10.206,117.73364c-4.13235-4.259-6.44558-8.71408-6.50653-14.9129-.09149-9.30865-1.04767-18.62848-2.0552-27.898-.36762-3.38211.7998-5.09165,3.39691-6.88278,31.53015-21.7453,62.9205-43.69431,94.54968-65.29386,4.50272-3.07495,6.04138-6.225,5.18488-11.43194-.66578-4.04746-1.90064-9.17087-.09641-12.09976,1.55509-2.52448,7.04248-2.62659,11.23325-3.93793,0-6.68009.2041-13.49518-.08026-20.28983-.15815-3.77833.64291-5.742,4.8497-6.24589,5.25729-.62978,10.41726-2.07186,16.25164-3.296-.56326-5.61379.04371-11.30623-3.52011-16.47569-7.08917-10.283-13.95123-20.72265-20.90451-31.09929-3.08737-4.60739-1.285-10.04494,4.01352-12.01136,2.01825-.749,4.07834-1.38531,6.82538-2.31088-2.44958-11.30359-4.8978-22.6008-7.46335-34.43951,7.79514-4.28553,15.60349-8.61646,23.44712-12.88259,16.22979-8.82736,32.57141-17.45512,48.665-26.52362a36.54621,36.54621,0,0,1,16.05274-4.6221c7.64532-.49705,15.31891-.91434,22.89526-1.97448,4.10779-.57478,8.03888-2.41231,12.756-3.90353C232.28864-208.0211,221.31592-212.0795,226.84528-225.25018ZM268.82916,26.228c-.89514-7.545,3.82337-8.01062,8.97681-8.39508,4.40289-.32843,8.76172-1.248,13.30743-1.93125-.89038-2.98739-1.62921-5.46643-2.59082-8.69262H323.317c0-2.89811.30218-5.23935-.063-7.47141-.75781-4.632,1.57239-6.15594,5.64618-6.55868,2.42-.2392,4.80139-.8685,7.20013-1.32239-13.47278-3.32724-26.88086-5.66471-40.2301-8.29962-3.1181-.61545-5.444-.51267-7.33923,2.28253-5.31855,7.84414-12.5799,10.912-22.21235,11.098-7.03063.13574-12.29608-.115-14.42346-7.83621a11.15847,11.15847,0,0,0-1.77533-2.75791C239.54645-4.80728,228.9024,9.41843,226.638,17.70142Zm-46.776-21.83133c1.50788-7.2963.86945-12.60477-6.16107-16.373-6.69531-3.58856-12.56622-8.68823-18.98145-12.84262a18.0259,18.0259,0,0,0-6.80346-2.3063c-10.35358-1.67841-19.18152,1.12121-26.27063,9.14261-1.84748,2.09039-4.33588,3.61108-6.513,5.41387C152.0072-8.1665,146.70068-3.75232,140.27429,1.58365,168.36273,2.54984,195.01624,3.46664,222.05316,4.39667ZM308.09375-21.925c14.31329-.35592,26.82825-5.09558,39.71954-11.49884-5.94452-5.48034-11.40649-10.51582-16.95666-15.63266-.563,2.20746-1.39295,4.72954-1.81867,7.31807-.51977,3.16042-1.69061,4.80644-5.34155,5.01824-6.064.35174-12.08386,1.46566-18.57184,2.31762C306.21118-29.83615,307.15247-25.88068,308.09375-21.925Z" transform="translate(368 296)"/>
    <path d="M-182.66132,514.63831c-5.7342,3.02447-10.92088,6.03869-16.38319,8.421-1.1817.51544-3.87933-.773-4.99315-2.021A464.4,464.4,0,0,1-317.75947,272.26941a434.44209,434.44209,0,0,1-2.3251-94.26657,25.46516,25.46516,0,0,1,3.76511-11.10959c6.19317-9.66666,12.9821-18.95068,19.50232-28.409,7.97431-11.56775,7.41189-14.44818-4.26651-22.42593-9.05055-6.18262-9.18347-6.21875-6.35583-16.62888C-270.26034-37.44739-188.143-138.02035-62.53452-203.35545a24.19313,24.19313,0,0,1,9.98227-2.49353c9.14994-.33812,18.32041-.12,27.48276-.10964.11551.00014.23087.16833.03253.01413L-48.73309-178.9523l.88516,1.1049c11.64355-3.97813,23.46884-2.63137,35.336-1.89163a10.85373,10.85373,0,0,0,7.735-3.24625c6.82853-7.722,13.25391-15.81445,19.58017-23.9626,5.59571-7.2072,10.86219-14.67,16.7678-22.69061,4.18182,3.8418,8.1235,6.92415,11.38772,10.607,3.56177,4.01848,3.28592,7.72241-.629,11.45743-4.21148,4.018-8.89447,7.53657-13.23059,11.43018-9.05331,8.1293-15.02386,18.02277-17.1846,30.6304l5.63229-.42372c.17829,2.83472.3487,5.5442.53541,8.51273L114.113-147.385c-3.23825,9.22563-5.99457,17.55433-9.2211,25.69671-.426,1.07518-3.24826,1.68505-4.96411,1.6922-25.33207.10571-50.66471.07292-75.9972.073H17.32025c2.094,2.19249,3.67331,3.68816,5.0665,5.34073,2.24921,2.668,5.50052,5.88174,2.803,9.12156-2.1597,2.59394-6.6369,5.42278-9.46344,4.88395-7.915-1.50888-15.62717-4.41742-23.123-7.49538-1.43616-.58972-2.30188-4.55753-2.05356-6.81541.41959-3.81521.03208-6.82769-3.92218-7.98757-3.94867-1.15825-5.92175,1.767-7.09567,4.7661a66.39376,66.39376,0,0,0-2.49341,9.61952c-.76809,3.4012-1.05493,6.95085-2.168,10.2263-2.554,7.51552-7.91217,11.05835-15.89828,11.27945-7.14423.1978-14.32666.19544-21.40711,1.01593a27.44978,27.44978,0,0,0-10.10162,3.85111c-18.29553,10.57979-36.01947,22.2545-54.82016,31.823-17.44637,8.87928-36.05072,15.46739-54.01466,23.36141a19.21,19.21,0,0,0-7.75913,6.33438c-9.42724,13.725-18.42177,27.74652-27.72871,41.55572-1.59339,2.36417-4.04083,4.13825-5.94348,6.3162a5.25825,5.25825,0,0,0-1.34183,2.97329c-.14957,4.32773-2.72182,6.23416-6.45426,7.62668-4.8108,1.7948-9.446,4.06049-14.881,6.44052,7.60759,5.20056,14.65313,10.01691,22.13959,15.13465-2.975,3.36129-5.54044,6.39618-8.256,9.29016-2.7731,2.95517-5.74051,2.97281-8.71869.19189-7.17245-6.69742-14.35345-13.38568-22.286-20.78161,5.85054-3.56458,10.34983-5.961,14.43664-8.926,2.4254-1.75961,4.91988-4.08874,6.12144-6.73483A106.58145,106.58145,0,0,0-235.452,14.26691c1.57483-6.3454-2.48572-9.477-8.3869-6.58152a25.80874,25.80874,0,0,0-8.86251,7.05124,114.1603,114.1603,0,0,0-22.70395,54.70194c-.82056,5.87689,1.18084,12.18551,2.133,18.258.56681,3.6149-.29469,6.26517-2.30611,9.54654a50.77929,50.77929,0,0,0-6.44445,16.8739c-1.10767,5.91211,1.27729,8.28327,7.2132,10.0496,48.94032,14.56317,95.824,34.23281,141.57392,56.76449,3.43991,1.69415,4.918,3.47711,3.66656,7.21234a18.43649,18.43649,0,0,0-.33948,3.47138c-1.20324,9.50293,1.53635,16.15341,10.82308,21.08514,12.59756,6.69,24.3085,15.08218,36.21551,23.02054A61.35861,61.35861,0,0,1-72.7204,244.564c7.333,7.69946,7.53253,16.56463-.48041,23.64563a75.85417,75.85417,0,0,1-18.47433,11.53222c-5.88153,2.70886-10.164,6.41846-12.33231,12.269-4.5043,12.15351-8.59857,24.45826-13.00927,36.64734-2.54351,7.02906-4.94933,14.15869-8.18158,20.87525-4.45055,9.248-11.59182,12.19171-20.87342,8.34973-12.13877-5.02472-21.73915-2.68781-30.117,7.45331-18.64285,22.56634-32.63275,47.78131-43.20574,74.93383-.95985,2.465-.12826,6.3545,1.209,8.872,10.85223,20.4314,22.02414,40.69294,33.09755,61.00684C-184.37549,511.45618-183.67191,512.76813-182.66132,514.63831Z" transform="translate(368 296)"/>
    <path d="M590.10114,316.9256c4.2713,6.16424,5.13031,11.92975,3.06079,19.048-8.19123,28.17493-18.22809,55.59589-31.35785,81.84064a15.63328,15.63328,0,0,1-5.861,6.42456,172.04654,172.04654,0,0,1-20.15137,9.68793,20.017,20.017,0,0,1-9.8103.70471c-9.43921-1.35437-12.09552-6.04468-8.80988-15.44513-14.16608-3.4621-28.29016-6.91394-42.71466-10.43915V393.569c-.00006-23.81329-.18353-47.629.14087-71.43793.07269-5.33087-1.23987-8.06659-6.706-8.39959-1.60607-.09784-3.17388-.82245-5.36828-1.42786.90619-3.22675,1.77148-6.308,2.55566-9.10028.66553-.22357.86139-.36255.95984-.31207,9.14978,4.69928,13.81647-1.20032,18.26679-7.68213a28.48244,28.48244,0,0,1,2.07544-2.44776c6.82714,2.17688,11.0979,6.10382,11.41235,13.14557.37866,8.47858,4.3045,12.87982,13.12372,12.52686,2.42956-.09717,4.89093.59955,7.69043.9798.619-5.77674,1.19751-11.17487,1.8053-16.84638h19.58666c.92438,6.4801,1.99854,12.99756,2.71888,19.554.29333,2.66961,1.46631,3.31939,3.9223,4.02136,9.09631,2.59991,17.55646,1.51257,26.02484-2.55048C578.17761,320.94751,584.11005,319.17932,590.10114,316.9256Z" transform="translate(368 296)"/>
    <path d="M-44.68655,638.36053c8.74874,0,16.01941-.195,23.27063.09516,2.94067.11767,4.53308-.70441,5.857-3.29376,2.72537-5.33033,5.85471-10.45264,8.65942-15.74451,2.47474-4.66919,6.105-1.39612,9.23905-1.5575,3.01407-.15527,3.48175,1.842,3.657,4.19349.09854,1.32306.36969,2.63507.59638,3.94635,2.23175,12.909,2.23361,12.909,15.042,15.90155a16.73085,16.73085,0,0,1,2.90457.68768c4.68841,2.05017,8.64236,1.311,11.64834-2.985,2.53791-3.62707,6.0178-4.03918,10.09311-3.58245,15.88227,1.7799,31.79377,3.3034,47.66343,5.18371a5.61443,5.61443,0,0,1,3.91189,3.39612c1.01288,4.7821,3.71,6.05371,8.18259,5.49414a34.49893,34.49893,0,0,1,7.9841-.01837c13.89483,1.52814,26.13943-1.785,38.15368-9.39124,5.01465-3.1748,13.12806-1.57507,19.84241-1.737.59149-.01428,1.88263,3.06189,1.77588,4.62964-.40106,5.89307,2.81964,7.19562,7.83923,7.44959,5.63025.28491,11.229,1.19494,17.258,1.88043,1.11761-2.71265,2.22882-5.40955,3.516-8.53369,5.59076.863,11.26691,1.27392,16.6416,2.769,2.61066.7262,4.50458,3.73242,7.00159,5.24725,2.538,1.5398,5.33612,3.30622,8.16363,3.60132,13.05,1.36212,26.14991,2.24585,39.27637,3.848a448.27946,448.27946,0,0,1-160.35452,17.955A459.84447,459.84447,0,0,1-44.68655,638.36053Z" transform="translate(368 296)"/>
    <path d="M147.267-240.75636c-3.33173,3.29593-5.39786,5.83658-7.93238,7.76011-10.34268,7.84954-20.59069,15.86007-31.31866,23.15693-15.27365,10.38874-30.85129,20.34046-46.47342,30.20269-7.64221,4.82452-11.70438,2.80509-13.72079-6.05256-1.58869-6.9786-.33106-13.07349,4.81048-18.401,7.9729-8.26133,15.34476-17.13169,23.62894-25.05654,11.42169-10.92628,24.55344-17.1583,41.23135-13.99243C126.68243-241.39467,136.23648-241.56826,147.267-240.75636Z" transform="translate(368 296)"/>
    <path d="M373.12378,318.123c-13.737,21.62512-27.705,42.91766-45.63739,61.17633a48.97612,48.97612,0,0,1-7.24927,6.07177c-4.48718,3.069-7.5921,2.41919-11.59936-1.97461,10.47583-10.67449,15.27893-24.91442,23.3825-37.071a20.87289,20.87289,0,0,1,5.72394-5.9331C349.44763,332.83032,361.31415,325.52063,373.12378,318.123Z" transform="translate(368 296)"/>
    <path d="M424.08972,384.589c7.77167.94714,7.77179.94714,7.77277,8.024a64.68467,64.68467,0,0,0,.05481,8.476c1.61053,12.07123-1.24854,22.503-10.2649,31.11121-1.33789,1.27728-1.889,3.83129-2.00836,5.84185-.284,4.78656-.09155,9.60144-.09155,14.84418H405.874c-.50219-6.42187-1.17322-12.97546-1.38873-19.54394-.04089-1.24811,1.45233-2.99244,2.6983-3.76142,6.25012-3.85754,9.04242-9.43573,10.28949-16.5943C419.11963,403.534,421.78583,394.259,424.08972,384.589Z" transform="translate(368 296)"/>
    <path d="M117.06485-200.54964l23.51477-1.47527c-.465,7.41524-.90515,14.43538-1.36835,21.82258H120.21063C119.21832-186.62068,118.19635-193.231,117.06485-200.54964Z" transform="translate(368 296)"/>
    <path d="M212.71637-231.355l-32.54,8.39851c-2.53393-7.66551-4.971-15.038-7.8725-23.81558l40.49366,14.14276Z" transform="translate(368 296)"/>
    <path d="M502.27026,257.90411c-7.975,9.55945-15.29657,18.33588-22.77588,27.30121-3.33795-1.55743-6.15423-2.87152-9.86932-4.605,6.39765-8.692,12.48255-17.0863,18.77814-25.31952.64606-.84491,2.688-1.25061,3.84839-.95178C495.2655,255.1051,498.14905,256.38745,502.27026,257.90411Z" transform="translate(368 296)"/>
    <path d="M268.82916,26.228,226.638,17.70142c2.2644-8.283,12.90845-22.5087,23.48187-31.3581a11.15847,11.15847,0,0,1,1.77533,2.75791c2.12738,7.72119,7.39283,7.972,14.42346,7.83621,9.63245-.186,16.8938-3.25382,22.21235-11.098,1.8952-2.7952,4.22113-2.898,7.33923-2.28253,13.34924,2.63491,26.75732,4.97238,40.2301,8.29962-2.39874.45389-4.78015,1.08319-7.20013,1.32239-4.07379.40274-6.404,1.92672-5.64618,6.55868.36517,2.23206.063,4.5733.063,7.47141H288.52258c.96161,3.22619,1.70044,5.70523,2.59082,8.69262-4.54571.68326-8.90454,1.60282-13.30743,1.93125C272.65253,18.21738,267.934,18.683,268.82916,26.228Z" transform="translate(368 296)" style="fill: #fff"/>
    <path d="M222.05316,4.39667c-27.03692-.93-53.69043-1.84683-81.77887-2.813,6.42639-5.336,11.73291-9.75015,17.04926-14.15238,2.17712-1.80279,4.66552-3.32348,6.513-5.41387,7.08911-8.0214,15.91705-10.821,26.27063-9.14261a18.0259,18.0259,0,0,1,6.80346,2.3063c6.41523,4.15439,12.28614,9.25406,18.98145,12.84262C222.92261-8.2081,223.561-2.89963,222.05316,4.39667Z" transform="translate(368 296)" style="fill: #fff"/>
    <path d="M308.09375-21.925c-.94128-3.95572-1.88257-7.91119-2.96918-12.47757,6.488-.852,12.50782-1.96588,18.57184-2.31762,3.65094-.2118,4.82178-1.85782,5.34155-5.01824.42572-2.58853,1.25568-5.11061,1.81867-7.31807,5.55017,5.11684,11.01214,10.15232,16.95666,15.63266C334.922-27.02054,322.407-22.28088,308.09375-21.925Z" transform="translate(368 296)" style="fill: #fff"/>
  </g>
</svg>
