<svg id="Layer_1" data-name="Layer 1" xmlns="http://www.w3.org/2000/svg" viewBox="0 0 128 128">
  <g>
    <path d="M80,280V152H208V280Zm110.07641-37.28326c4.48891-5.43175,5.18792-8.6688,1.66377-11.78476-2.34692-2.07509-2.80449-4.1758-2.694-6.92235a61.91413,61.91413,0,0,0-.03651-8.9855c-.38886-3.66214.72458-5.94779,4.32434-7.23213,1.379-.492,2.39394-2.00453,3.57478-3.052-1.22675-1.18828-2.25527-2.76839-3.71068-3.50468-15.88561-8.03648-31.79326-16.03391-47.83235-23.75652a9.07821,9.07821,0,0,0-6.83117.05707c-8.32129,3.793-16.42908,8.05424-24.61708,12.14-8.03974,4.01182-16.10243,7.97867-24.10036,12.07211-1.072.54868-2.67643,1.90256-2.53635,2.56847.24876,1.18255,1.55374,2.22927,2.59279,3.12982a6.77694,6.77694,0,0,0,2.65332,1.35281c11.13477,2.91047,15.22744,9.91812,13.22858,21.23526-1.17347,6.64393,2.52164,11.40113,7.90944,14.97053,14.27239,9.45541,42.73474,9.39308,56.86039-.12367,5.19983-3.50324,8.23114-8.06385,7.8582-14.60029-.19889-3.48605.23392-7.01889-.10245-10.48361-.41458-4.2703,1.595-6.02937,5.883-6.626,0,2.99194-.00941,5.789.00236,8.58606.01511,3.58876.29289,6.92428-3.0826,9.828-2.57729,2.21705-1.831,5.61377.0044,8.69439a7.42163,7.42163,0,0,1,.87527,5.5355c-5.10279,13.99182-6.12788,12.022,9.47711,12.134,2.91585.02093,3.92839-1.27075,2.802-4.12391C192.7812,250.12345,191.44147,246.37353,190.07641,242.71674Z" transform="translate(-80 -152)" style="fill: #fff"/>
    <path d="M190.07641,242.71674c1.36506,3.65679,2.70479,7.40671,4.1662,11.10861,1.12635,2.85316.11381,4.14484-2.802,4.12391-15.605-.112-14.5799,1.85778-9.47711-12.134a7.42163,7.42163,0,0,0-.87527-5.5355c-1.83537-3.08062-2.58169-6.47734-.0044-8.69439,3.37549-2.90369,3.09771-6.23921,3.0826-9.828-.01177-2.797-.00236-5.59412-.00236-8.58606-4.28795.59665-6.29755,2.35572-5.883,6.626.33637,3.46472-.09644,6.99756.10245,10.48361.37294,6.53644-2.65837,11.097-7.8582,14.60029-14.12565,9.51675-42.588,9.57908-56.86039.12367-5.3878-3.5694-9.08291-8.3266-7.90944-14.97053,1.99886-11.31714-2.09381-18.32479-13.22858-21.23526a6.77694,6.77694,0,0,1-2.65332-1.35281c-1.03905-.90055-2.344-1.94727-2.59279-3.12982-.14008-.66591,1.46432-2.01979,2.53635-2.56847,7.99793-4.09344,16.06062-8.06029,24.10036-12.07211,8.188-4.0858,16.29579-8.347,24.61708-12.14a9.07821,9.07821,0,0,1,6.83117-.05707c16.03909,7.72261,31.94674,15.72,47.83235,23.75652,1.45541.73629,2.48393,2.3164,3.71068,3.50468-1.18084,1.04749-2.19577,2.56-3.57478,3.052-3.59976,1.28434-4.7132,3.57-4.32434,7.23213a61.91413,61.91413,0,0,1,.03651,8.9855c-.11048,2.74655.34709,4.84726,2.694,6.92235C195.26433,234.04794,194.56532,237.285,190.07641,242.71674Zm-95.46094-38.149c10.72648,5.35895,20.66664,10.35186,30.63231,15.29332,5.50743,2.73085,11.07719,7.51772,16.58314,7.46745,5.71663-.05219,11.41483-4.77222,17.0758-7.54339,5.874-2.87543,11.69367-5.86173,17.5371-8.79953a50.84574,50.84574,0,0,0-11.09542-1.93115c-7.29166-.6822-14.597-1.24778-21.86522-2.12335-1.29652-.15619-2.44085-1.57584-3.65546-2.41211,1.42285-.72279,2.82295-1.49782,4.2835-2.13405.39788-.17332.97719.07763,1.47422.123,12.26428,1.12021,24.52526,2.27949,36.79656,3.31665a48.26563,48.26563,0,0,0,6.54923-.38066c-.82707-1.09491-.9643-1.46074-1.22064-1.58958C173.141,196.53169,158.58,189.19122,143.94619,181.999a5.29315,5.29315,0,0,0-4.09087.07768C125.06886,189.32643,110.3505,196.7151,94.61547,204.56772Zm15.71193,13.13959c0,3.76969.00007,6.5591,0,9.34851-.00029,9.96213,2.07388,13.30346,11.424,16.78312a57.99173,57.99173,0,0,0,38.19863.83455c13.2785-4.11068,17.2856-12.67954,12.73671-26.47755-8.94675,4.46126-17.77434,9.10936-26.84968,13.209a10.47555,10.47555,0,0,1-7.715-.01967C129.054,227.28656,120.23156,222.64447,110.3274,217.70731Z" transform="translate(-80 -152)"/>
    <path d="M94.61547,204.56772c15.735-7.85262,30.45339-15.24129,45.23985-22.49106a5.29315,5.29315,0,0,1,4.09087-.07768c14.63383,7.19224,29.19485,14.53271,43.7644,21.85536.25634.12884.39357.49467,1.22064,1.58958a48.26563,48.26563,0,0,1-6.54923.38066c-12.2713-1.03716-24.53228-2.19644-36.79656-3.31665-.497-.04539-1.07634-.29634-1.47422-.123-1.46055.63623-2.86065,1.41126-4.2835,2.13406,1.21461.83626,2.35894,2.25591,3.65546,2.4121,7.26818.87557,14.57356,1.44115,21.86522,2.12335a50.84574,50.84574,0,0,1,11.09542,1.93115c-5.84343,2.9378-11.66313,5.9241-17.5371,8.79953-5.661,2.77117-11.35917,7.4912-17.0758,7.54339-5.50595.05027-11.07571-4.7366-16.58314-7.46745C115.28211,214.91958,105.342,209.92667,94.61547,204.56772Z" transform="translate(-80 -152)" style="fill: #fff"/>
    <path d="M110.3274,217.70731c9.90416,4.93716,18.72663,9.57925,27.79471,13.678a10.47555,10.47555,0,0,0,7.715.01967c9.07534-4.09965,17.90293-8.74775,26.84968-13.209,4.54889,13.798.54179,22.36687-12.73671,26.47755a57.99173,57.99173,0,0,1-38.19863-.83455c-9.35017-3.47966-11.42434-6.821-11.424-16.78312C110.32747,224.26641,110.3274,221.477,110.3274,217.70731Z" transform="translate(-80 -152)" style="fill: #fff"/>
  </g>
</svg>
