<svg id="Layer_1" data-name="Layer 1" xmlns="http://www.w3.org/2000/svg" viewBox="0 0 128 128">
  <g>
    <path d="M195,280H94c-.63636-2.12406-1.82157-4.24654-1.82768-6.37242q-.16724-58.17668-.04284-116.354A32.14125,32.14125,0,0,1,93,152h79c7.31392,7.25,14.72937,14.40244,21.86133,21.82721a10.32853,10.32853,0,0,1,2.91985,6.31937q.27766,47.23641.046,94.475C196.82074,276.41656,195.63622,278.2073,195,280Zm-4.48579-98.28436c-6.43993,0-12.561.01871-18.682-.00526-6.14233-.024-6.63062-.5-6.654-6.47086-.02323-5.92931-.00508-11.85878-.00508-17.93468H98.57726V273.69048h91.937Zm-18.70014-21.2203v14.91912h13.47936Z" transform="translate(-80 -152)"/>
    <path d="M195,280c.63622-1.7927,1.82074-3.58344,1.82716-5.37839q.16913-47.23741-.046-94.475a10.32853,10.32853,0,0,0-2.91985-6.31937C186.72937,166.40244,179.31392,159.25,172,152h36V280Z" transform="translate(-80 -152)" style="fill: #fff"/>
    <path d="M93,152a32.14125,32.14125,0,0,0-.87052,5.27356q-.07566,58.177.04284,116.354C92.17843,275.75346,93.36364,277.87594,94,280H80V152Z" transform="translate(-80 -152)" style="fill: #fff"/>
    <path d="M190.51421,181.71564v91.97484H98.57726V157.30484H165.1731c0,6.0759-.01815,12.00537.00508,17.93468.0234,5.97081.51169,6.44681,6.654,6.47086C177.95316,181.73435,184.07428,181.71564,190.51421,181.71564Zm-26.74585,46.26153c-11.55811-.02173-20.69319,8.72956-20.71547,19.84514-.02214,11.04639,9.20644,20.03769,20.602,20.07225,11.42975.03466,20.66671-8.873,20.69477-19.9569C184.37787,236.77282,175.33108,227.99889,163.76836,227.97717ZM141.18911,184.955c-11.30668,0-22.61348-.02944-33.91989.0255-2.19147.01064-5.406-.67109-5.11292,2.78887.09869,1.1651,3.20787,2.95251,4.95421,2.96787q34.16676.30056,68.33655.00668c1.81432-.01537,5.01215-1.65657,5.15462-2.8341.41047-3.39249-2.744-2.93119-4.99379-2.93818C164.13506,184.936,152.66205,184.95519,141.18911,184.955Zm-12.18,24.19708c7.14039,0,14.28806.17286,21.41582-.12714,1.685-.07093,3.30318-1.73145,4.9521-2.66074-1.57709-1.04541-3.14006-2.97311-4.73349-2.99863q-21.91374-.351-43.83458-.00982c-1.64847.0249-3.27023,1.81782-4.90437,2.79088,1.56233,1.00088,3.09172,2.80023,4.69262,2.86627C114.057,209.32063,121.53656,209.14928,129.00907,209.15208Zm-6.44058,9.63143c-5.48067,0-10.9741-.20452-16.43351.13624-1.46095.09119-2.818,1.8472-4.22272,2.83893,1.29508.97894,2.57292,2.77975,3.888,2.80735,10.95648.23,21.92271.252,32.87745-.0143,1.37937-.03353,2.70921-2.10384,4.062-3.23046-1.40916-.84544-2.78233-2.33957-4.23391-2.4201C133.20751,218.60722,127.88307,218.78494,122.56849,218.78351Z" transform="translate(-80 -152)" style="fill: #fff"/>
    <path d="M171.81407,160.49534l13.47936,14.91912H171.81407Z" transform="translate(-80 -152)" style="fill: #fff"/>
    <path d="M163.76836,227.97717c11.56272.02172,20.60951,8.79565,20.58126,19.96049-.02806,11.08394-9.265,19.99156-20.69477,19.9569-11.39552-.03456-20.6241-9.02586-20.602-20.07225C143.07517,236.70673,152.21025,227.95544,163.76836,227.97717Zm-.1031,5.93614c-7.94773.0168-14.5473,6.38382-14.52453,14.01272.02245,7.517,6.82508,14.04116,14.61537,14.017a14.33287,14.33287,0,0,0,14.39209-14.10825A14.13312,14.13312,0,0,0,163.66526,233.91331Z" transform="translate(-80 -152)"/>
    <path d="M141.18911,184.95509c11.47294.0001,22.946-.01908,34.41878.01655,2.24982.007,5.40426-.45431,4.99379,2.93818-.14247,1.17753-3.3403,2.81873-5.15462,2.8341q-34.16694.28946-68.33655-.00668c-1.74634-.01536-4.85552-1.80277-4.95421-2.96787-.29309-3.46,2.92145-2.77823,5.11292-2.78887C118.57563,184.92556,129.88243,184.955,141.18911,184.95509Z" transform="translate(-80 -152)"/>
    <path d="M129.00907,209.15068c-7.47251-.0014-14.95209.17-22.4119-.13778-1.6009-.066-3.13029-1.86539-4.69262-2.86627,1.63414-.97306,3.2559-2.766,4.90437-2.79088q21.91436-.33094,43.83458.00982c1.59343.02552,3.1564,1.95322,4.73349,2.99863-1.64892.92929-3.26706,2.58981-4.9521,2.66074C143.29713,209.32494,136.14946,209.15208,129.00907,209.15068Z" transform="translate(-80 -152)"/>
    <path d="M122.56849,218.78423c5.31458.00071,10.639-.177,15.93729.11694,1.45158.08053,2.82475,1.57466,4.2339,2.4201-1.35279,1.12662-2.68263,3.19693-4.062,3.23046-10.95474.26635-21.921.24428-32.87745.0143-1.315-.0276-2.59289-1.82841-3.888-2.80735,1.40474-.99173,2.76177-2.74774,4.22272-2.83893C111.59439,218.579,117.08782,218.78351,122.56849,218.78423Z" transform="translate(-80 -152)"/>
    <path d="M163.66526,233.91331a14.13312,14.13312,0,0,1,14.48293,13.92144A14.33287,14.33287,0,0,1,163.7561,261.943c-7.79029.02419-14.59292-6.49995-14.61537-14.017C149.118,240.29713,155.71753,233.93011,163.66526,233.91331Z" transform="translate(-80 -152)" style="fill: #fff"/>
  </g>
</svg>
