<svg id="Layer_1" data-name="Layer 1" xmlns="http://www.w3.org/2000/svg" viewBox="0 0 128 128">
  <g>
    <path d="M80,231.99776V152H208v90.00587c-3.19806-6.63919-8.35184-10.279-15.739-11.458-7.79679-1.24436-16.09411-1.78059-22.43724-7.21538-12.15621-10.41543-26.11625-14.08085-41.77561-12.34237a31.72737,31.72737,0,0,1-4.4969.01528c-8.56228-.27537-15.82606,2.59806-22.43855,8.11763a34.66549,34.66549,0,0,1-11.68442,6.27219C85.36766,226.65682,82.13138,228.33333,80,231.99776Zm72.96383-48.90555c-4.04417-9.54643-18.3292-14.18994-29.91107-10.76983-5.73526,1.69362-11.31714,3.99691-13.73332,10.279a6.00094,6.00094,0,0,0,4.08809-1.26272c11.96447-8.859,23.62007-8.8129,35.6334.08615A17.9981,17.9981,0,0,0,152.96383,183.09221ZM131.32971,180.393c-4.90092,2.33739-9.32137,4.3388-13.60667,6.5971-.69509.3663-.79075,1.87189-1.16348,2.85087,1.13861-.05874,2.597.31969,3.36627-.244,7.55674-5.5371,14.96527-5.61549,22.48551.05146.73414.55321,2.013.38235,3.039.54759-.28553-1.107-.22627-2.83855-.9132-3.21835C140.438,184.71135,136.1667,182.75686,131.32971,180.393Zm-8.01758,15.63442,1.14792.95112h14.98041c-2.85159-3.66908-5.89794-5.26328-9.56375-4.36775C127.54942,193.17937,125.49109,194.85068,123.31213,196.02745Z" transform="translate(-80 -152)" style="fill: #fff"/>
    <path d="M208,257.018V280H80V254.01559c2.29837,1.55358,4.66893,3.01236,6.871,4.69235,1.60512,1.22457,3.4715,2.47835,4.38911,4.171,4.8179,8.88739,15.83115,9.39731,21.61662,1.00835a6.54892,6.54892,0,0,1,4.50448-2.63243q26.93573-.2729,53.87488-.01205a6.05446,6.05446,0,0,1,4.19549,2.35458c5.90595,8.4353,15.542,8.46308,21.35859-.0117a9.32127,9.32127,0,0,1,3.23485-2.42112C202.65612,259.70947,205.34364,258.39175,208,257.018Z" transform="translate(-80 -152)" style="fill: #fff"/>
    <path d="M208,257.018c-2.65636,1.37373-5.34388,2.69145-7.955,4.14659a9.32127,9.32127,0,0,0-3.23485,2.42112c-5.81663,8.47478-15.45264,8.447-21.35859.0117a6.05446,6.05446,0,0,0-4.19549-2.35458q-26.93638-.238-53.87488.01205a6.54892,6.54892,0,0,0-4.50448,2.63243c-5.78547,8.389-16.79872,7.879-21.61662-1.00835-.91761-1.69269-2.784-2.94647-4.38911-4.171-2.20209-1.68-4.57265-3.13877-6.871-4.69235V231.99776c2.13138-3.66443,5.36766-5.34094,9.42827-6.60257a34.66549,34.66549,0,0,0,11.68442-6.27219c6.61249-5.51957,13.87627-8.393,22.43855-8.11763a31.72737,31.72737,0,0,0,4.4969-.01528c15.65936-1.73848,29.6194,1.92694,41.77561,12.34237,6.34313,5.43479,14.64045,5.971,22.43724,7.21538,7.38717,1.179,12.541,4.81884,15.739,11.458Zm-34.24633.55312c1.54648-6.55893,4.76135-11.20326,11.63936-11.565,7.85919-.41336,11.47046,4.67069,13.65983,13.01638,2.24176-2.12192,4.59836-3.269,4.96244-4.87,2.71118-11.92226-1.52372-17.55221-13.57848-20.26292-7.36581-1.65633-15.78845-2.78032-21.42119-7.13976-13.0062-10.06606-26.97888-13.69263-42.87031-11.98173a43.62188,43.62188,0,0,1-4.99071.04166c-6.2689-.04941-11.392,2.53295-16.48863,6.07666a88.30148,88.30148,0,0,1-16.05716,8.47587c-3.22382,1.36353-4.98907,2.90514-4.88522,6.46806a83.46608,83.46608,0,0,1-.0631,11.4845c-.56861,5.18017,1.49948,7.77086,6.5248,8.28662,2.995-6.69239,6.94652-9.85632,12.52066-9.60046,6.05661.278,9.64607,3.651,11.43984,9.41516.31227,1.00345,2.40438,2.05493,3.68175,2.0641C136.29667,257.61293,154.767,257.57114,173.75367,257.57114Zm-71.58373,8.6182a8.4458,8.4458,0,0,0,8.534-8.01378,8.32207,8.32207,0,0,0-8.01727-8.51543,8.27039,8.27039,0,1,0-.51676,16.52921Zm92.251-7.99435a8.26345,8.26345,0,1,0-8.42315,7.9866A8.18857,8.18857,0,0,0,194.42091,258.195Z" transform="translate(-80 -152)"/>
    <path d="M152.96383,183.09221a17.9981,17.9981,0,0,1-3.9229-1.66739c-12.01333-8.89905-23.66893-8.94515-35.6334-.08615a6.00094,6.00094,0,0,1-4.08809,1.26272c2.41618-6.2821,7.99806-8.58539,13.73332-10.279C134.63463,168.90227,148.91966,173.54578,152.96383,183.09221Z" transform="translate(-80 -152)"/>
    <path d="M131.32971,180.393c4.837,2.36383,9.1083,4.31832,13.20746,6.58471.68693.3798.62767,2.11138.9132,3.21835-1.026-.16524-2.30489.00562-3.039-.54759-7.52024-5.667-14.92877-5.58856-22.48551-.05146-.76924.56365-2.22766.18522-3.36627.244.37273-.979.46839-2.48457,1.16348-2.85087C122.00834,184.73183,126.42879,182.73042,131.32971,180.393Z" transform="translate(-80 -152)"/>
    <path d="M123.31213,196.02745c2.179-1.17677,4.23729-2.84808,6.56458-3.41663,3.66581-.89553,6.71216.69867,9.56375,4.36775H124.46005Z" transform="translate(-80 -152)"/>
    <path d="M173.75367,257.57114c-18.98663,0-37.457.04179-55.92612-.09084-1.27737-.00917-3.36948-1.06065-3.68175-2.0641-1.79377-5.76413-5.38323-9.13717-11.43984-9.41516-5.57414-.25586-9.52563,2.90807-12.52066,9.60046-5.02532-.51576-7.09341-3.10645-6.5248-8.28662a83.46608,83.46608,0,0,0,.0631-11.4845c-.10385-3.56292,1.6614-5.10453,4.88522-6.46806a88.30148,88.30148,0,0,0,16.05716-8.47587c5.09668-3.54371,10.21973-6.12607,16.48863-6.07666a43.62188,43.62188,0,0,0,4.99071-.04166c15.89143-1.7109,29.86411,1.91567,42.87031,11.98173,5.63274,4.35944,14.05538,5.48343,21.42119,7.13976,12.05476,2.71071,16.28966,8.34066,13.57848,20.26292-.36408,1.60094-2.72068,2.74805-4.96244,4.87-2.18937-8.34569-5.80064-13.42974-13.65983-13.01638C178.515,246.36788,175.30015,251.01221,173.75367,257.57114ZM118.072,235.3395l.03754,1.94339a23.47365,23.47365,0,0,0,4.06429.71906c15.14693.05124,30.29472.09255,45.44022-.06372,1.50495-.01553,3.99337-1.10741,4.24589-2.13692a5.438,5.438,0,0,0-1.88715-4.59652,190.86422,190.86422,0,0,0-17.11537-11.14858c-7.66078-4.3004-16.3122-1.87975-24.46465-2.89254C115.60464,215.575,106.471,222.15393,97.596,229.665c-2.86013,2.42059-2.52082,6.96687.74358,7.69278,3.45828.769,7.21968.17269,10.84869.17269l.23581-2.10567L98.63486,233.523c8.8081-6.02366,15.152-14.90445,26.98893-11.97871v12.28306Zm17.8698,5.7598-8.68836.47453.15435,2.31127c2.64549-.20873,5.29122-.41465,7.93482-.64513A16.6252,16.6252,0,0,0,135.94176,241.0993Z" transform="translate(-80 -152)" style="fill: #fff"/>
    <path d="M102.16994,266.18934a8.27039,8.27039,0,1,1,.51676-16.52921,8.32207,8.32207,0,0,1,8.01727,8.51543A8.4458,8.4458,0,0,1,102.16994,266.18934Zm-.95922-2.09685,2.35633-.01828c1.40751-2.07818,3.71377-4.038,4.00628-6.263.4115-3.13-2.02835-5.3044-5.3308-5.227-3.23251.07571-5.73859,2.06386-5.09921,5.367C97.57429,260.17757,99.79219,262.05754,101.21072,264.09249Z" transform="translate(-80 -152)" style="fill: #fff"/>
    <path d="M194.42091,258.195a8.18857,8.18857,0,0,1-8.42315,7.9866,8.2543,8.2543,0,1,1,8.42315-7.9866Zm-9.24378,5.90938,2.37556-.0683c1.34494-2.104,3.58156-4.112,3.82032-6.33495.336-3.12833-2.08846-5.25257-5.424-5.10175-3.2699.14786-5.64679,2.21374-4.94352,5.47381C181.48177,260.28112,183.72446,262.10739,185.17713,264.10437Z" transform="translate(-80 -152)" style="fill: #fff"/>
    <path d="M118.072,235.3395l7.55183-1.51215V221.54429c-11.83694-2.92574-18.18083,5.95505-26.98893,11.97871l10.78925,1.90182-.23581,2.10567c-3.629,0-7.39041.59632-10.84869-.17269-3.2644-.72591-3.60371-5.27219-.74358-7.69278,8.875-7.51109,18.00861-14.09,30.7967-12.50135,8.15245,1.01279,16.80387-1.40786,24.46465,2.89254a190.86422,190.86422,0,0,1,17.11537,11.14858,5.438,5.438,0,0,1,1.88715,4.59652c-.25252,1.02951-2.74094,2.12139-4.24589,2.13692-15.1455.15627-30.29329.115-45.44022.06372a23.47365,23.47365,0,0,1-4.06429-.71906Zm48.971-1.25119c-11.03114-9.753-22.477-15.90871-37.30966-12.39065v12.39065Z" transform="translate(-80 -152)"/>
    <path d="M135.94176,241.0993a16.6252,16.6252,0,0,1-.59919,2.14067c-2.6436.23048-5.28933.4364-7.93482.64513l-.15435-2.31127Z" transform="translate(-80 -152)"/>
    <path d="M101.21072,264.09249c-1.41853-2.03495-3.63643-3.91492-4.0674-6.14134-.63938-3.30312,1.8667-5.29127,5.09921-5.367,3.30245-.07736,5.7423,2.097,5.3308,5.227-.29251,2.225-2.59877,4.18482-4.00628,6.263Z" transform="translate(-80 -152)"/>
    <path d="M185.17713,264.10437c-1.45267-1.997-3.69536-3.82325-4.17166-6.03119-.70327-3.26007,1.67362-5.32595,4.94352-5.47381,3.33556-.15082,5.76,1.97342,5.424,5.10175-.23876,2.22295-2.47538,4.231-3.82032,6.33495Z" transform="translate(-80 -152)"/>
    <path d="M167.04294,234.08831H129.73328V221.69766C144.56591,218.1796,156.0118,224.33527,167.04294,234.08831Z" transform="translate(-80 -152)" style="fill: #fff"/>
  </g>
</svg>
