<svg id="Layer_1" data-name="Layer 1" xmlns="http://www.w3.org/2000/svg" viewBox="0 0 128 128">
  <g>
    <path d="M208,280H80V152H208Zm-96.23456-46.98793c5.83585,3.66229,9.00472,8.33077,10.28878,14.32264.94058,4.389,1.64179,8.8522,2.9549,13.12714.50748,1.65213,2.53259,4.11851,3.64623,4.00744,1.72106-.17166,3.53846-2.01529,4.76481-3.58083.81666-1.04254.8236-2.8235.9399-4.294.89713-11.3431-.28857-21.72112-9.969-29.87122-5.39016-4.53808-5.1405-7.93606-2.001-14.15831a68.228,68.228,0,0,0,6.6726,4.3,35.3267,35.3267,0,0,0,7.48661,2.73482c9.76113,2.34472,12.04465,1.03407,14.62394-8.57038,1.33316-4.96423,4.07-8.51448,9.47071-11.07451-.47875,3.04494-.729,5.46136-1.2537,7.81663-1.4775,6.63188-2.69956,13.355-4.74089,19.81509a58.759,58.759,0,0,1-6.16441,12.68673c-1.97565,3.22835-5.05979,5.77047-7.10157,8.96855-1.89857,2.97378-2.323,6.41023,1.01462,8.95445,3.276,2.4972,5.99261.7762,8.33874-1.647,7.69656-7.94944,16.51286-15.15229,18.15138-27.23365,6.031,3.861,8.45393,6.99118,10.01591,13.35679.99021,4.03547,1.29565,8.274,2.62412,12.17785.75631,2.22249,2.9527,3.95491,4.5006,5.908,1.76819-2.16061,4.86071-4.195,5.08074-6.50315,1.08945-11.42836,1.32223-22.8856-9.33348-30.9081a11.35916,11.35916,0,0,1-2.1944-2.71078c-3.12975-4.50474-3.08367-7.08885-.6691-10.75464,6.38932,2.14477,12.33785,4.46409,18.48583,5.96809,1.45352.35557,4.46223-1.67357,5.10456-3.27.48709-1.21061-1.37752-3.722-2.71-5.18666-.90268-.99224-2.92278-.88577-4.05047-1.77093-3.33954-2.62134-6.92225-5.13125-9.57884-8.367-2.52194-3.07178-3.99484-7.00483-5.93458-10.56934,7.63586-4.49265,10.12486-10.7795,6.68523-17.15514-3.029-5.61454-9.97732-8.04836-15.388-4.78641-2.37955,1.43458-5.21478,4.08751-5.54892,6.50444-.58484,4.23029.60089,8.70536,1.06689,13.29561-9.95475,6.12673-24.55369,8.87785-25.112,25.67413-12.14446-1.28294-13.1025-12.666-19.1713-19.33317,7.98955-4.56086,10.48122-10.54686,7.305-16.962-2.8458-5.74779-9.68432-8.44993-15.19874-5.38744-2.42838,1.34863-5.38528,3.93191-5.75766,6.32019-.67891,4.35428.38986,8.98106.74287,13.67146-3.63276,2.0309-8.13188,4.90262-12.92418,7.14881-9.11252,4.2711-12.01713,12.03835-12.14477,21.18214-.03324,2.3813,1.31729,6.25551,2.98835,6.87818,3.40937,1.27041,4.50313-2.28589,5.38832-5.02487.56281-1.74148,1.09543-3.49575,1.55708-5.26632,1.17478-4.50566,4.27483-7.1435,9.17055-9.66457-.825,3.83389-1.4136,6.71623-2.06894,9.58333-1.25547,5.49268-2.98307,10.92-3.70944,16.4796a25.13712,25.13712,0,0,1-7.31334,15.41031,30.6762,30.6762,0,0,0-6.89158,9.60493c-.80074,1.94276.239,5.7702,1.83529,7.20557,1.19843,1.07758,5.50074.6119,6.8849-.73985C100.76112,253.37885,110.05283,246.07946,111.76544,233.01207Z" transform="translate(-80 -152)" style="fill: #fff"/>
    <path d="M111.76544,233.01207c-1.71261,13.06739-11.00432,20.36678-19.14074,28.31267-1.38416,1.35175-5.68647,1.81743-6.8849.73985-1.59632-1.43537-2.636-5.26281-1.83529-7.20557a30.6762,30.6762,0,0,1,6.89158-9.60493,25.13712,25.13712,0,0,0,7.31334-15.41031c.72637-5.55964,2.454-10.98692,3.70944-16.4796.65534-2.8671,1.244-5.74944,2.06894-9.58333-4.89572,2.52107-7.99577,5.15891-9.17055,9.66457-.46165,1.77057-.99427,3.52484-1.55708,5.26632-.88519,2.739-1.97895,6.29528-5.38832,5.02487-1.67106-.62267-3.02159-4.49688-2.98835-6.87818.12764-9.14379,3.03225-16.911,12.14477-21.18214,4.7923-2.24619,9.29142-5.11791,12.92418-7.14881-.353-4.6904-1.42178-9.31718-.74287-13.67146.37238-2.38828,3.32928-4.97156,5.75766-6.32019,5.51442-3.06249,12.35294-.36035,15.19874,5.38744,3.17619,6.41512.68452,12.40112-7.305,16.962,6.0688,6.66719,7.02684,18.05023,19.1713,19.33317.55831-16.79628,15.15725-19.5474,25.112-25.67413-.466-4.59025-1.65173-9.06532-1.06689-13.29561.33414-2.41693,3.16937-5.06986,5.54892-6.50444,5.41063-3.26195,12.35892-.82813,15.388,4.78641,3.43963,6.37564.95063,12.66249-6.68523,17.15514,1.93974,3.56451,3.41264,7.49756,5.93458,10.56934,2.65659,3.23577,6.2393,5.74568,9.57884,8.367,1.12769.88516,3.14779.77869,4.05047,1.77093,1.33245,1.46467,3.19706,3.97605,2.71,5.18666-.64233,1.59642-3.651,3.62556-5.10456,3.27-6.148-1.504-12.09651-3.82332-18.48583-5.96809-2.41457,3.66579-2.46065,6.2499.6691,10.75464a11.35916,11.35916,0,0,0,2.1944,2.71078c10.65571,8.0225,10.42293,19.47974,9.33348,30.9081-.22,2.30818-3.31255,4.34254-5.08074,6.50315-1.5479-1.95311-3.74429-3.68553-4.5006-5.908-1.32847-3.90384-1.63391-8.14238-2.62412-12.17785-1.562-6.36561-3.98486-9.4958-10.01591-13.35679-1.63852,12.08136-10.45482,19.28421-18.15138,27.23365-2.34613,2.42322-5.06278,4.14422-8.33874,1.647-3.33762-2.54422-2.91319-5.98067-1.01462-8.95445,2.04178-3.19808,5.12592-5.7402,7.10157-8.96855a58.759,58.759,0,0,0,6.16441-12.68673c2.04133-6.46009,3.26339-13.18321,4.74089-19.81509.52473-2.35527.77495-4.77169,1.2537-7.81663-5.40074,2.56-8.13755,6.11028-9.47071,11.07451-2.57929,9.60445-4.86281,10.9151-14.62394,8.57038a35.3267,35.3267,0,0,1-7.48661-2.73482,68.228,68.228,0,0,1-6.6726-4.3c-3.13947,6.22225-3.38913,9.62023,2.001,14.15831,9.6804,8.1501,10.8661,18.52812,9.969,29.87122-.1163,1.47048-.12324,3.25144-.9399,4.294-1.22635,1.56554-3.04375,3.40917-4.76481,3.58083-1.11364.11107-3.13875-2.35531-3.64623-4.00744-1.31311-4.27494-2.01432-8.73809-2.9549-13.12714C120.77016,241.34284,117.60129,236.67436,111.76544,233.01207Zm-2.96188-5.5221c15.62823,6.48964,16.70256,20.75723,19.77492,34.56461,1.321-1.60509,2.03145-2.065,2.07688-2.5832.84006-9.58382,2.60269-19.33514-5.56688-27.139a39.31874,39.31874,0,0,1-6.04472-7.26555c-3.56679-5.62636-1.78717-14.13534,3.7267-18.32779,4.32819,6.98021,10.86156,9.72286,18.92949,9.50607a4.76474,4.76474,0,0,0-2.39949-2.83894c-7.47939-2.507-12.1711-7.57877-15.15173-14.8195a11.34359,11.34359,0,0,0-15.52251-5.63345,138.03351,138.03351,0,0,0-14.15345,8.39014c-5.31125,3.46671-7.83233,12.40412-5.21062,19.55892,2.146-10.25335,5.70865-18.65717,18.06963-21.60155-.86909,5.55287-1.41575,10.0411-2.30142,14.46141-1.20289,6.00352-2.98047,11.90578-3.92434,17.94326-.88268,5.64609-2.85018,10.49857-6.88791,14.596a52.78751,52.78751,0,0,0-6.70137,8.016c-.817,1.25107-.35067,3.34025-.46732,5.0487,1.5426-.4507,3.54891-.432,4.55486-1.42591C100.0989,249.54778,109.51862,241.63116,108.80356,227.49Zm91.76818-15.36768c-2.10275-1.4022-3.01118-2.32545-4.10512-2.68628-7.47155-2.46441-12.24871-7.45079-15.21993-14.722a11.40623,11.40623,0,0,0-15.91186-5.62989,140.07223,140.07223,0,0,0-15.3346,9.32268c-4.127,2.84393-5.88043,12.20535-3.38277,16.98061.58363-2.02,1.192-3.7301,1.56572-5.49,1.36866-6.4447,5.81316-10.2652,11.19985-13.29007,2.80031-1.57251,4.614-.99725,4.35394,2.50743a75.51762,75.51762,0,0,1-1.34032,9.82811c-1.38625,6.63882-2.57057,13.36832-4.65027,19.79776a66.29954,66.29954,0,0,1-6.69776,13.54464c-1.78128,2.94781-4.67415,5.21319-6.55147,8.11874-.8017,1.24079-.28219,3.33525-.363,5.04179,1.548-.49967,3.54367-.54824,4.57334-1.57016,8.4624-8.39868,17.85311-16.31607,17.16829-29.82681,1.23854,0,1.82084-.17129,2.19623.03462.85941.47141,1.59361,1.1642,2.42082,1.70226,9.07285,5.90128,12.0214,15.0596,13.48171,25.07213a61.55249,61.55249,0,0,0,1.89207,6.91459c4.03973-6.32179,3.03891-21.21544-1.21959-26.43328-2.62756-3.21949-5.7104-6.098-8.09663-9.47714-4.18749-5.93-2.57324-14.86529,3.0688-18.9263C186.01294,210.34817,192.32127,213.43171,200.57174,212.12229Zm-15.4799-37.04123a8.463,8.463,0,0,0-16.92509-.12205,8.9937,8.9937,0,0,0,8.44111,8.8516A8.68433,8.68433,0,0,0,185.09184,175.08106ZM119.78278,187.7979a8.67013,8.67013,0,0,0,8.27466-8.918,8.41888,8.41888,0,0,0-8.83415-8.24408,8.51568,8.51568,0,0,0-8.08566,8.52851C111.1486,183.71071,115.33853,187.895,119.78278,187.7979Z" transform="translate(-80 -152)"/>
    <path d="M108.80356,227.49c.71506,14.14119-8.70466,22.05781-17.19928,30.4503-1.00595.99388-3.01226.97521-4.55487,1.42591.11666-1.70845-.34968-3.79763.46733-5.0487a52.78751,52.78751,0,0,1,6.70137-8.016c4.03773-4.09748,6.00523-8.95,6.88791-14.596.94387-6.03748,2.72145-11.93974,3.92434-17.94326.88567-4.42031,1.43233-8.90854,2.30142-14.46141-12.361,2.94438-15.92363,11.3482-18.06963,21.60155-2.62171-7.1548-.10063-16.09221,5.21062-19.55892a138.03351,138.03351,0,0,1,14.15345-8.39014,11.34359,11.34359,0,0,1,15.52251,5.63345c2.98063,7.24073,7.67234,12.31246,15.15173,14.8195A4.76474,4.76474,0,0,1,141.7,216.24513c-8.06793.21679-14.6013-2.52586-18.92949-9.50607-5.51387,4.19245-7.29349,12.70143-3.7267,18.32779a39.31874,39.31874,0,0,0,6.04472,7.26555c8.16957,7.80384,6.40694,17.55516,5.56688,27.139-.04543.51821-.75583.97811-2.07688,2.5832C125.50612,248.2472,124.43179,233.97961,108.80356,227.49Z" transform="translate(-80 -152)" style="fill: #fff"/>
    <path d="M200.57174,212.12229c-8.25047,1.30942-14.5588-1.77412-20.95259-9.18654-5.642,4.061-7.25629,12.99634-3.0688,18.9263,2.38623,3.37916,5.46907,6.25765,8.09663,9.47714,4.2585,5.21784,5.25932,20.11149,1.21959,26.43328a61.55249,61.55249,0,0,1-1.89207-6.91459c-1.46031-10.01253-4.40886-19.17085-13.48171-25.07213-.82721-.53806-1.56141-1.23085-2.42082-1.70226-.37539-.20591-.95769-.03462-2.19623-.03462.68482,13.51074-8.70589,21.42813-17.16829,29.82681-1.02967,1.02192-3.02535,1.07049-4.57334,1.57016.08085-1.70654-.43866-3.801.363-5.04179,1.87732-2.90555,4.77019-5.17093,6.55147-8.11874a66.29954,66.29954,0,0,0,6.69776-13.54464c2.0797-6.42944,3.264-13.15894,4.65027-19.79776a75.51762,75.51762,0,0,0,1.34032-9.82811c.26-3.50468-1.55363-4.07994-4.35394-2.50743-5.38669,3.02487-9.83119,6.84537-11.19985,13.29007-.37375,1.75989-.98209,3.47-1.56572,5.49-2.49766-4.77526-.74421-14.13668,3.38277-16.98061a140.07223,140.07223,0,0,1,15.3346-9.32268,11.40623,11.40623,0,0,1,15.91186,5.62989c2.97122,7.27119,7.74838,12.25757,15.21993,14.722C197.56056,209.79684,198.469,210.72009,200.57174,212.12229Z" transform="translate(-80 -152)" style="fill: #fff"/>
    <path d="M185.09184,175.08106a8.68433,8.68433,0,0,1-8.484,8.72955,8.9937,8.9937,0,0,1-8.44111-8.8516,8.463,8.463,0,0,1,16.92509.12205Z" transform="translate(-80 -152)" style="fill: #fff"/>
    <path d="M119.78278,187.7979c-4.44425.09712-8.63418-4.08719-8.64515-8.63357a8.51568,8.51568,0,0,1,8.08566-8.52851,8.41888,8.41888,0,0,1,8.83415,8.24408A8.67013,8.67013,0,0,1,119.78278,187.7979Z" transform="translate(-80 -152)" style="fill: #fff"/>
  </g>
</svg>
