<svg xmlns="http://www.w3.org/2000/svg" viewBox="0 0 40 40"><g data-name="Layer 2"><g><path d="M38.33,20V30.83a2.5,2.5,0,0,1-2.5,2.5H4.17a2.5,2.5,0,0,1-2.5-2.5v-20a2.5,2.5,0,0,1,2.5-2.5H15V6.67H4.17A4.17,4.17,0,0,0,0,10.83v20A4.17,4.17,0,0,0,4.17,35H35.83A4.17,4.17,0,0,0,40,30.83V20Z"/><path d="M11.67,38.33H28.33V40H11.67Z"/><path d="M14.17,34.17h1.66v5H14.17Z"/><path d="M24.17,34.17h1.66v5H24.17Z"/><path d="M39.17,8.33h-2.3c0-.11-.09-.23-.14-.34l1.62-1.63a.82.82,0,0,0,0-1.17L34.81,1.65a.82.82,0,0,0-1.17,0L32,3.27l-.34-.14V.83A.84.84,0,0,0,30.83,0h-5A.83.83,0,0,0,25,.83v2.3l-.35.14L23,1.65a.83.83,0,0,0-1.18,0L18.32,5.19a.82.82,0,0,0,0,1.17L19.94,8l-.15.34H17.5a.84.84,0,0,0-.83.84v5a.83.83,0,0,0,.83.83h2.29l.15.35L18.32,17a.83.83,0,0,0,0,1.18l3.53,3.53a.83.83,0,0,0,1.18,0l1.62-1.62.35.15V22.5a.83.83,0,0,0,.83.83h5a.84.84,0,0,0,.84-.83V20.21l.34-.15,1.63,1.62a.83.83,0,0,0,1.18,0l3.53-3.53a.83.83,0,0,0,0-1.18l-1.62-1.62c.05-.12.1-.23.14-.35h2.3a.83.83,0,0,0,.83-.83v-5A.84.84,0,0,0,39.17,8.33Zm-.84,5h-2a.83.83,0,0,0-.79.59A6.75,6.75,0,0,1,35,15.13a.84.84,0,0,0,.15,1l1.45,1.45-2.35,2.36-1.46-1.46a.85.85,0,0,0-1-.15,6.84,6.84,0,0,1-1.22.51.84.84,0,0,0-.58.8v2.05H26.67V19.62a.84.84,0,0,0-.59-.8,7.52,7.52,0,0,1-1.21-.5.85.85,0,0,0-1,.14l-1.45,1.46-2.36-2.36,1.46-1.45a.87.87,0,0,0,.15-1,6.75,6.75,0,0,1-.51-1.21.84.84,0,0,0-.8-.59H18.33V10h2.05a.84.84,0,0,0,.8-.58,7.62,7.62,0,0,1,.5-1.22.83.83,0,0,0-.14-1L20.08,5.77l2.36-2.35,1.45,1.45a.84.84,0,0,0,1,.15,6.75,6.75,0,0,1,1.21-.51.83.83,0,0,0,.59-.79V1.67H30V3.72a.84.84,0,0,0,.58.79A6.84,6.84,0,0,1,31.8,5a.82.82,0,0,0,1-.15l1.46-1.45,2.35,2.35L35.13,7.23a.82.82,0,0,0-.15,1,6.84,6.84,0,0,1,.51,1.22.84.84,0,0,0,.79.58h2Z"/><path d="M28.33,7.5a4.17,4.17,0,1,0,4.17,4.17A4.17,4.17,0,0,0,28.33,7.5Zm0,6.67a2.5,2.5,0,1,1,2.5-2.5A2.5,2.5,0,0,1,28.33,14.17Z"/></g></g></svg>