<svg xmlns="http://www.w3.org/2000/svg" viewBox="0 0 40 40"><g data-name="Layer 2"><g><path d="M0,5.55,1.63,3.93c.12-.11.17-.14.3,0L4.55,6.55c.08.09.13.12.24,0L11.24.11s.08,0,.08-.11h0L13,1.66c.11.11.1.15,0,.25Q8.9,6,4.81,10.12c-.11.11-.16.1-.27,0L.12,5.69S.06,5.6,0,5.59Z"/><path d="M0,34.57c.55-.55,1.1-1.08,1.63-1.63.13-.14.19-.11.31,0l2.61,2.62c.1.11.15.1.25,0l6.41-6.42c.11-.11.16-.12.27,0,.51.53,1,1,1.55,1.55.08.08.09.12,0,.21L4.78,39.15c-.12.12-.16,0-.24,0L.16,34.74c0-.05-.08-.12-.16-.14Z"/><path d="M0,19.43l1.66-1.65c.11-.11.15-.1.25,0l2.64,2.65c.1.11.15.1.25,0L11.2,14c.11-.12.17-.14.3,0,.49.52,1,1,1.51,1.52.1.09.11.14,0,.24L4.8,24c-.12.12-.17.08-.26,0L.16,19.6s-.08-.11-.16-.13Z"/><path d="M40,27.06a14.7,14.7,0,0,0-.33-2.56,12.62,12.62,0,0,0-24.81,4.37,12.64,12.64,0,0,0,11,11,3.08,3.08,0,0,1,.74.11h.39a.93.93,0,0,1,.29,0h.29a.88.88,0,0,1,.28,0h.31c.06,0,.13,0,.19,0a8.47,8.47,0,0,0,.88-.07,12.7,12.7,0,0,0,4.23-1.4,12.63,12.63,0,0,0,5.54-6,11.71,11.71,0,0,0,1-4.84C40,27.47,40,27.26,40,27.06Zm-12.6,10.4A10.09,10.09,0,1,1,37.47,27.37,10.07,10.07,0,0,1,27.39,37.46Z"/><path d="M26.12,24.23c0-1.41,0-2.82,0-4.24,0-.15,0-.18.18-.18q1.08,0,2.16,0c.15,0,.19,0,.19.19,0,2,0,3.94,0,5.91,0,.16,0,.21.21.21h3.4c.15,0,.19,0,.18.19,0,.72,0,1.44,0,2.16,0,.16,0,.18-.19.18H26.31c-.18,0-.2-.05-.2-.2C26.12,27,26.12,25.63,26.12,24.23Z"/><rect x="17.28" y="4.67" width="22.7" height="2.53"/></g></g></svg>