<svg id="Layer_1" data-name="Layer 1" xmlns="http://www.w3.org/2000/svg" viewBox="0 0 225 225">
  <g>
    <path d="M32,328V103H257V328ZM63.3987,210.45326q0,39.25036.00731,78.50074c.00594,7.96833,4.312,12.71727,12.12291,12.73179q69.52452.12918,139.04939.00629c6.80509-.01067,11.07675-4.5461,11.26762-11.40908.09266-3.33088.02351-6.66629.02356-9.99966.0004-41.00037-.05738-82.00094.075-123.00089.016-4.94173-1.04287-8.71641-4.89728-12.24421-7.85865-7.19274-15.03285-15.12949-22.818-22.40808a12.48358,12.48358,0,0,0-7.70723-3.17291c-38.0126-.20042-76.02658-.1432-114.04024-.13328-8.99213.00235-13.07531,4.10376-13.07925,13.12856Q63.38547,171.45289,63.3987,210.45326Z" transform="translate(-32 -103)" style="fill: #fff"/>
    <path d="M63.3986,210.45326q-.00015-39.00037.00391-78.00073c.00394-9.0248,4.08712-13.12621,13.07925-13.12856,38.01366-.00992,76.02764-.06714,114.04024.13328a12.48358,12.48358,0,0,1,7.70723,3.17291c7.78516,7.27859,14.95936,15.21534,22.818,22.40808,3.85441,3.5278,4.91324,7.30248,4.89728,12.24421-.13241,40.99995-.07463,82.00052-.075,123.00089-.00005,3.33337.0691,6.66878-.02356,9.99966-.19087,6.863-4.46253,11.39841-11.26762,11.40908q-69.52458.109-139.04939-.00629c-7.811-.01452-12.117-4.76346-12.12291-12.73179Q63.3768,249.70365,63.3986,210.45326Zm130.0909-88.91762c-2.478,0-4.12252,0-5.767,0q-55.03218-.00009-110.06436.00315c-9.06365.002-12.038,2.93762-12.03938,11.89605q-.0115,77.01808,0,154.03615c.00134,8.90337,3.03826,11.90363,12.08482,11.906q66.78906.01707,133.57812.00105c9.11781-.00192,12.223-3.1422,12.22471-12.34688q.01207-64.76522.00357-129.53044v-5.95525c-6.37586,0-12.162.01707-17.948-.00415-7.97929-.02925-12.04156-4.0268-12.06856-11.87385C193.47346,133.86772,193.4895,128.06789,193.4895,121.53564Z" transform="translate(-32 -103)"/>
    <path d="M193.4895,121.53564c0,6.53225-.016,12.33208.00392,18.13178.027,7.847,4.08927,11.8446,12.06856,11.87385,5.786.02122,11.57215.00415,17.948.00415v5.95525q0,64.76521-.00357,129.53044c-.00173,9.20468-3.1069,12.345-12.22471,12.34688q-66.789.014-133.57812-.00105c-9.04656-.00232-12.08348-3.00258-12.08482-11.906q-.01159-77.01807,0-154.03615c.00134-8.95843,2.97573-11.89407,12.03938-11.89605q55.03218-.012,110.06436-.00315C189.367,121.53565,191.01148,121.53564,193.4895,121.53564ZM87.00624,178.785l.01467,1.09449H202.11349l-.006-1.09449ZM202.0857,204.09328l.05137-1.10791H86.98163l.00262,1.10791Zm.00742,24.01728.03644-1.1079H86.98837l.00335,1.1079Zm.0235,24.02825-.01042-1.09961H87.00955l.00575,1.09961Zm-115.18,22.81268.002,1.06026H192.18049l-.002-1.06026Zm48.44052-126.66244a2.43472,2.43472,0,0,0-1.26537,1.26848c-.67217,2.22053-1.97723,5.05782-1.14785,6.70018.85289,1.68889,3.90653,3.06361,6.04091,3.12809,3.451.10426,6.93781-.976,10.16379-1.515l-1.25385-6.73924-5.26248-1.23a26.87854,26.87854,0,0,1,1.50412-4.84871c1.49708-2.8548.50611-5.55467-2.74572-5.773-1.97368-.13251-4.8696.18589-5.80388,1.44713C134.59366,142.09479,135.37717,144.79255,135.37717,148.28905Zm34.75816-4.82556c-.85294-3.50737-3.15675-4.87218-8.21413-4.35246-4.73788.48687-7.37891,3.48292-7.7149,8.75193-.42075,6.598,2.08166,10.59768,7.7189,11.37742,4.24129.58665,7.738-.86832,9.42949-6.17744-3.60786,1.26819-6.61893,3.095-9.688,3.19817-3.34388.1124-5.64676-4.80778-4.61181-9.00724.41121-1.6685,1.56117-4.3874,2.54052-4.46229C163.12664,142.52158,166.72847,143.17386,170.13533,143.46349Zm-56.24674-3.69137-.16746,1.131,5.20449,1.22334c1.75324,5.76265-1.179,11.97727,1.71084,17.31724l1.88332-.05958V142.33556l5.91393-1.45561-.14015-1.10783Z" transform="translate(-32 -103)" style="fill: #fff"/>
    <path d="M87.00624,178.785h115.1013l.006,1.09449H87.02091Z" transform="translate(-32 -103)"/>
    <path d="M202.0857,204.09328H86.98425l-.00262-1.10791H202.13707Z" transform="translate(-32 -103)"/>
    <path d="M202.09312,228.11056H86.99172l-.00335-1.1079H202.12956Z" transform="translate(-32 -103)"/>
    <path d="M202.11662,252.13881H87.0153l-.00575-1.09961H202.1062Z" transform="translate(-32 -103)"/>
    <ellipse cx="107.55857" cy="172.48162" rx="74.41695" ry="0.74972"/>
    <path d="M135.37717,148.28905c0-3.4965-.78351-6.19426.22967-7.562.93428-1.26124,3.8302-1.57964,5.80388-1.44713,3.25183.21831,4.2428,2.91818,2.74572,5.773a26.87854,26.87854,0,0,0-1.50412,4.84871l5.26248,1.23,1.25385,6.73924c-3.226.539-6.71279,1.61923-10.16379,1.515-2.13438-.06448-5.188-1.4392-6.04091-3.12809-.82938-1.64236.47568-4.47965,1.14785-6.70018A2.43472,2.43472,0,0,1,135.37717,148.28905Zm2.95463,1.00881c-3.072,2.074-4.67514,4.211-2.15458,6.4461,1.12408.99678,3.70686.34973,5.6276.44875l.39052-1.6234Z" transform="translate(-32 -103)"/>
    <path d="M170.13533,143.46349c-3.40686-.28963-7.00869-.94191-10.53992-.67191-.97935.07489-2.12931,2.79379-2.54052,4.46229-1.035,4.19946,1.26793,9.11964,4.61181,9.00724,3.06906-.10316,6.08013-1.93,9.688-3.19817-1.69154,5.30912-5.1882,6.76409-9.42949,6.17744-5.63724-.77974-8.13965-4.77941-7.7189-11.37742.336-5.269,2.977-8.26506,7.7149-8.75193C166.97858,138.59131,169.28239,139.95612,170.13533,143.46349Z" transform="translate(-32 -103)"/>
    <path d="M113.88859,139.77212h14.405l.14015,1.10783-5.91393,1.45561v17.04857l-1.88332.05958c-2.88984-5.34.0424-11.55459-1.71084-17.31724l-5.20449-1.22334Z" transform="translate(-32 -103)"/>
    <path d="M138.3318,149.29786l3.86354,5.27145-.39052,1.6234c-1.92074-.099-4.50352.548-5.6276-.44875C133.65666,153.50881,135.25982,151.37187,138.3318,149.29786Z" transform="translate(-32 -103)" style="fill: #fff"/>
  </g>
</svg>
