<svg xmlns="http://www.w3.org/2000/svg" viewBox="0 0 40 38.2"><g data-name="Layer 2"><g><path class="cls-1" d="M40,4a3.93,3.93,0,0,0-4-4H3.94A3.93,3.93,0,0,0,0,3.94V34.27A3.92,3.92,0,0,0,3.94,38.2H36.07a3.26,3.26,0,0,0,.7-.06A3.93,3.93,0,0,0,40,34.22ZM35.94,36H4a1.69,1.69,0,0,1-1.74-1.32,2,2,0,0,1,0-.48q0-15,0-30.1A1.69,1.69,0,0,1,4.05,2.26H35.94a1.69,1.69,0,0,1,1.82,1.82q0,15,0,30A1.7,1.7,0,0,1,35.94,36Z"/><path class="cls-1" d="M29,26.48q-3.53-8.86-7.07-17.72a.22.22,0,0,0-.24-.16H19.33a.29.29,0,0,0-.34.22Q15.77,16.94,12.54,25l-.64,1.62c.8,0,1.57,0,2.34,0a.26.26,0,0,0,.29-.19c.47-1.21,1-2.42,1.42-3.64a.24.24,0,0,1,.27-.18h8.5a.25.25,0,0,1,.28.19c.47,1.22,1,2.44,1.44,3.66,0,.09.06.16.19.16.8,0,1.59,0,2.41,0A.91.91,0,0,0,29,26.48Zm-5-5.85H16.67l3.8-9.7,1.23,3.15q1.25,3.17,2.47,6.33C24.25,20.63,24.25,20.63,24,20.63Z"/></g></g></svg>