<svg xmlns="http://www.w3.org/2000/svg" viewBox="0 0 40 39.99"><g data-name="Layer 2"><g><path d="M30.71,27.63a7.48,7.48,0,0,0-7.84,0A3.83,3.83,0,0,0,21,30.74a3.84,3.84,0,0,0,1.85,3.12,7.53,7.53,0,0,0,7.84,0,3.83,3.83,0,0,0,1.86-3.12A3.81,3.81,0,0,0,30.71,27.63Zm-3.92,5c-1.95,0-3.32-1-3.32-1.88s1.37-1.88,3.32-1.88,3.32,1,3.32,1.88S28.75,32.62,26.79,32.62Z"/><path d="M39.06.9A3.29,3.29,0,0,0,34.63.82L25.5,8.94H11.85C5.32,8.94,0,14,0,20.25v8.42A11.61,11.61,0,0,0,11.85,40H27A11.6,11.6,0,0,0,38.8,28.67V20.25a11.17,11.17,0,0,0-5.26-9.39l5.6-5.74A2.92,2.92,0,0,0,39.06.9ZM36.35,20.25v8.42a9.2,9.2,0,0,1-9.4,9H11.85a9.2,9.2,0,0,1-9.4-9V20.25a9.21,9.21,0,0,1,9.4-9h11l-9.29,8.26A5.25,5.25,0,0,0,9.75,22l-.06.13L6.76,28.66a2.26,2.26,0,0,0,.52,2.57,2.53,2.53,0,0,0,2.69.49l6.85-2.79.13-.06a5,5,0,0,0,2.57-3.65L31.84,12.6A8.89,8.89,0,0,1,36.35,20.25ZM16.65,20,19,18l2.22,2.12L19,22.29A4.85,4.85,0,0,0,18,21,5.15,5.15,0,0,0,16.65,20Zm.45,4.85a2.66,2.66,0,0,1-1.32,1.94L9,29.56l2.88-6.44a2.81,2.81,0,0,1,2-1.26,2.88,2.88,0,0,1,2.35.76A2.63,2.63,0,0,1,17.1,24.87ZM37.34,3.53,22.86,18.37l-2.1-2L36.31,2.54a.75.75,0,0,1,1,0A.69.69,0,0,1,37.34,3.53Z"/></g></g></svg>