<svg xmlns="http://www.w3.org/2000/svg" viewBox="0 0 40 40"><g data-name="Layer 2"><g><path d="M36.67,23.77V6.67a3.35,3.35,0,0,0-3.34-3.34h-5V.83a.83.83,0,1,0-1.66,0v2.5h-15V.83A.84.84,0,0,0,10.83,0,.83.83,0,0,0,10,.83v2.5H3.33A3.34,3.34,0,0,0,0,6.67V33.33a3.34,3.34,0,0,0,3.33,3.34H23.77a9.16,9.16,0,1,0,12.9-12.9Zm-35-17.1A1.66,1.66,0,0,1,3.33,5H10V6.67a1.67,1.67,0,1,0,1.67,1.66V5h15V6.67a1.67,1.67,0,1,0,1.66,1.66V5h5A1.67,1.67,0,0,1,35,6.67v5H1.67ZM3.33,35a1.66,1.66,0,0,1-1.66-1.67v-20H35v9.35A9.15,9.15,0,0,0,22.68,35Zm27.5,3.33a7.5,7.5,0,1,1,7.5-7.5A7.51,7.51,0,0,1,30.83,38.33Z"/><path d="M31.67,30.49V25.83a.84.84,0,0,0-.84-.83.83.83,0,0,0-.83.83v5a.85.85,0,0,0,.24.59l2.5,2.5a.83.83,0,0,0,.59.25.79.79,0,0,0,.59-.25.83.83,0,0,0,0-1.18Z"/></g></g></svg>