<svg data-name="Layer 1" xmlns="http://www.w3.org/2000/svg" viewBox="0 0 200 200"><path d="M63,146.36a12.77,12.77,0,1,1,12.77-12.77A12.78,12.78,0,0,1,63,146.36Zm0-17a4.26,4.26,0,1,0,4.26,4.25A4.26,4.26,0,0,0,63,129.34Z"/><path d="M139.61,146.36a12.77,12.77,0,1,1,12.77-12.77A12.78,12.78,0,0,1,139.61,146.36Zm0-17a4.26,4.26,0,1,0,4.26,4.25A4.25,4.25,0,0,0,139.61,129.34Z"/><path d="M131.1,51.55H71.53a4.26,4.26,0,0,1,0-8.51H131.1a4.26,4.26,0,1,1,0,8.51Z"/><path d="M148.12,61.26H54.51a4.26,4.26,0,0,0-4.25,4.26v42.54a4.26,4.26,0,0,0,4.25,4.26h93.61a4.26,4.26,0,0,0,4.26-4.26V65.52A4.26,4.26,0,0,0,148.12,61.26ZM58.77,69.77h85.1v34h-3L116.44,87.5a4.26,4.26,0,0,0-4.71,7.09l13.83,9.22H98.36L73.9,87.5a4.26,4.26,0,0,0-4.71,7.09L83,103.81H58.78v-34Z"/><path d="M152.7,19.8c-12.47-4.75-29.76-7.17-51.38-7.17S62.41,15,49.93,19.8c-18,6.87-21.81,17.31-21.81,24.86V145.3a22.92,22.92,0,0,0,18.3,22.42v9.61a9.17,9.17,0,0,0,9.15,9.15h9.15a9.17,9.17,0,0,0,9.15-9.15v-9.15h54.9v9.15a9.17,9.17,0,0,0,9.15,9.15h9.15a9.17,9.17,0,0,0,9.15-9.15v-9.61a22.9,22.9,0,0,0,18.3-22.42V44.66C174.52,37.11,170.73,26.67,152.7,19.8Zm-88,157.53H55.57v-9.15h9.15Zm73.2,0v-9.15h9.15v9.15Zm27.45-32A13.75,13.75,0,0,1,151.64,159H51A13.74,13.74,0,0,1,37.27,145.3V44.66c0-6.8,5.36-12.29,15.93-16.32,11.27-4.29,27.91-6.56,48.12-6.56s36.85,2.27,48.12,6.56c10.57,4,15.93,9.52,15.93,16.32Z"/></svg>