<svg xmlns="http://www.w3.org/2000/svg" viewBox="0 0 40 34.01"><g data-name="Layer 2"><g><path d="M39.08,4.28a2.7,2.7,0,0,0,.13-.85A2.7,2.7,0,0,0,36.57.72h-.22A2.69,2.69,0,0,0,35.22,1a2,2,0,0,0-.29.16l-.14.06-2.16.81a11.9,11.9,0,0,0-4.45-2A3.12,3.12,0,0,0,27.57,0H25.66a3.34,3.34,0,0,0-.7.14A11.42,11.42,0,0,0,20.43,2.3a9.94,9.94,0,0,0-3.55,6.16,17.07,17.07,0,0,1-9.9-6,2.63,2.63,0,0,0-2.07-.9h0a2.71,2.71,0,0,0-2.08.92A7.91,7.91,0,0,0,1.26,9.18a11.09,11.09,0,0,0,.61,2.1,2.59,2.59,0,0,0-.66,1.44,8.34,8.34,0,0,0,2.59,7,2.48,2.48,0,0,0,0,1.15A7.63,7.63,0,0,0,6.4,25.3a12.81,12.81,0,0,1-2.69.3,7.31,7.31,0,0,1-.81,0H2.7a2.71,2.71,0,0,0-1.38,5c.09,0,.18.12.27.16l.77.45a23.14,23.14,0,0,0,11,2.8,24.5,24.5,0,0,0,4.24-.39,22.58,22.58,0,0,0,12-6.06,23.44,23.44,0,0,0,6.43-11.95,21.22,21.22,0,0,0,.38-3.16c0-.38,0-.75.09-1.11a18.63,18.63,0,0,0,3.07-3.4A2.72,2.72,0,0,0,40,6.36,2.79,2.79,0,0,0,39.08,4.28ZM34.23,9.65a1.61,1.61,0,0,0-.45.9c-.18,1.49-.18,3-.5,4.47C31.45,23.5,25.36,29.48,17.06,31a21,21,0,0,1-3.76.34,20.3,20.3,0,0,1-9.68-2.48c-.31-.16-.6-.36-.92-.54.34,0,.68,0,1,0,4,0,7.72-1.72,9.09-3.12-3.54-.54-5.88-2.37-6.36-4.82.93-.05,1.85-.12,2.8-.16-3.77-1.81-5.66-4.33-5.32-7.17l2.73.67c-3-3.18-3.75-7.14-1.74-9.51a20.17,20.17,0,0,0,14.68,7.35,4,4,0,0,1,0-.41,7.3,7.3,0,0,1,2.63-6.81,10.82,10.82,0,0,1,3.5-1.64H27.6a10.08,10.08,0,0,1,4.33,2.23.56.56,0,0,0,.49.09c1.13-.41,2.26-.81,3.38-1.24.21-.09.41-.2.73-.36a7.75,7.75,0,0,1-3,3.76.37.37,0,0,0,.09.16c1.2-.34,2.41-.67,3.68-1A17,17,0,0,1,34.23,9.65Z"/></g></g></svg>