<svg id="Layer_1" data-name="Layer 1" xmlns="http://www.w3.org/2000/svg" viewBox="0 0 128 128">
  <g>
    <path d="M80,280q0-64,0-128l128,0q0,64,0,128Q144,280,80,280Zm1.87465-26.98015c2.2814,1.35266,4.5382,2.74893,6.84783,4.05153A70.26168,70.26168,0,0,0,194.10334,197.5197a7.80877,7.80877,0,0,1,2.74011-5.11779c5.02232-4.0496,8.28876-9.02918,10.45965-15.78842l-8.03356,3.31388c1.77577-4.527,3.3341-8.49978,5.27653-13.45169-4.78927,2.50473-8.28895,4.40677-11.85307,6.17925-3.71343,1.84673-6.72125,2.12677-10.8079-.75158-15.36674-10.82326-36.352-1.90763-40.01062,16.52208-.47613,2.39843-.72108,4.84276-1.11594,7.56068-19.20462-1.75255-34.04087-10.758-45.65656-26.14044-7.18544,10.68109-6.88393,21.11448-1.08074,31.88767l-4.36762-.64324a27.46529,27.46529,0,0,0,6.68435,19.645c.74231.87662,2.174,1.978,2.01356,2.68769-1.99713,8.836,4.55244,12.98415,9.70981,17.75094,1.94142,1.79438,4.61686,2.79459,7.248,4.32581C104.66269,251.53591,93.52833,252.58457,81.87468,253.01985Z" transform="translate(-80 -152)" style="fill: #fff"/>
    <path d="M81.87468,253.01985c11.65365-.43528,22.788-1.48394,33.43465-7.52031-2.63113-1.53122-5.30657-2.53143-7.248-4.32581-5.15737-4.76679-11.70694-8.9149-9.70981-17.75094.1604-.70967-1.27125-1.81107-2.01356-2.68769a27.46529,27.46529,0,0,1-6.68435-19.645l4.36762.64324c-5.80319-10.77319-6.1047-21.20658,1.08074-31.88767,11.61569,15.38241,26.45194,24.38789,45.65656,26.14044.39486-2.71792.63981-5.16225,1.11594-7.56068,3.65862-18.42971,24.64388-27.34534,40.01062-16.52208,4.08665,2.87835,7.09447,2.59831,10.8079.75158,3.56412-1.77248,7.0638-3.67452,11.85307-6.17925-1.94243,4.95191-3.50076,8.92466-5.27653,13.45169l8.03356-3.31388c-2.17089,6.75924-5.43733,11.73882-10.45965,15.78842a7.80877,7.80877,0,0,0-2.74011,5.11779A70.26168,70.26168,0,0,1,88.72251,257.07138C86.41288,255.76878,84.15608,254.37251,81.87468,253.01985Zm17.67079,3.2035-.1284,1.44288c6.58338,1.27461,13.11469,3.05473,19.75887,3.73906,34.51008,3.55446,68.09-25.12109,69.70139-59.57862.27933-5.97312-.43513-11.81912,6.29621-14.81526.07986-.03555.065-.28394.11879-.55712a14.06293,14.06293,0,0,1-3.9386.43323,18.54813,18.54813,0,0,1-4.03-1.68495,22.103,22.103,0,0,1,2.10939-3.375,46.46613,46.46613,0,0,1,4.18887-3.63274c-7.97939,1.50484-7.97939,1.50484-14.57167-2.66761a21.09639,21.09639,0,0,0-32.08714,12.71671c-.94724,3.90439-.4744,8.15329-.673,12.69559-19.56627.29765-36.28053-7.47324-50.52506-22.325-3.72678,13.48933,2.11041,22.24294,12.9159,30.1667l-13.60734-.62886c3.68965,12.54736,13.17964,16.6391,24.675,18.136l-.45186,1.38868-14.54953,3.11859c5.3597,8.68812,13.84415,10.96105,24.247,11.00333A61.52086,61.52086,0,0,1,99.54547,256.22335Z" transform="translate(-80 -152)"/>
    <path d="M99.54547,256.22335A61.52086,61.52086,0,0,0,128.9942,241.799c-10.40283-.04228-18.88728-2.31521-24.247-11.00333l14.54953-3.11859.45186-1.38868c-11.49532-1.49693-20.98531-5.58867-24.675-18.136l13.60734.62886c-10.80549-7.92376-16.64268-16.67737-12.9159-30.1667,14.24453,14.85175,30.95879,22.62264,50.52506,22.325.19861-4.5423-.27423-8.7912.673-12.69559a21.09639,21.09639,0,0,1,32.08714-12.71671c6.59228,4.17245,6.59228,4.17245,14.57167,2.66761a46.46613,46.46613,0,0,0-4.18887,3.63274,22.103,22.103,0,0,0-2.10939,3.375,18.54813,18.54813,0,0,0,4.03,1.68495,14.06293,14.06293,0,0,0,3.9386-.43323c-.0538.27318-.03893.52157-.11879.55712-6.73134,2.99614-6.01688,8.84214-6.29621,14.81526-1.61143,34.45753-35.19131,63.13308-69.70139,59.57862-6.64418-.68433-13.17549-2.46445-19.75887-3.73906Z" transform="translate(-80 -152)" style="fill: #fff"/>
  </g>
</svg>
