<svg id="Layer_1" data-name="Layer 1" xmlns="http://www.w3.org/2000/svg" viewBox="0 0 102.4 102.4">
  <g>
    <path d="M93,201.51473V165H195.4V267.4H93V208.65892c2.7848,8.798,7.9463,15.34418,16.99982,18.42768.79764.27167,1.21357,1.99685,1.58408,3.12037.76348,2.31513.66763,5.84328,2.20145,6.77771,3.024,1.84228,2.914,4.1581,3.13642,6.87138,1.08232,13.20307,13.209,22.553,25.42948,19.69185,9.681-2.26656,16.3899-10.99742,16.56782-21.99744.16683-10.31409.00491-20.63316.0908-30.94918a20.09724,20.09724,0,0,1,.82982-6.24107c1.46906-4.30224,4.42906-7.17682,9.16435-7.66966,4.57318-.476,8.22335,1.45762,10.17056,5.43074,1.37359,2.80268,1.65574,6.14027,2.40215,9.14631-7.7864,2.70126-11.38344,7.5449-10.60781,13.39765A11.77465,11.77465,0,0,0,181.406,234.99012a11.56938,11.56938,0,0,0,12.68224-8.48988c1.82873-6.21529-.91581-10.64316-9.6273-15.438-.02827-.60293-.06468-1.2584-.08892-1.91432-.34951-9.45431-6.47377-16.17158-14.57046-15.97925-8.16156.19385-14.04906,7.05332-14.10642,16.5023-.03854,6.34853.053,12.69825-.02668,19.046-.06963,5.54492.28337,11.18038-.58207,16.61143-1.55829,9.779-9.8928,16.24326-18.62779,15.27225-9.549-1.06151-16.78239-9.69817-16.362-19.66405.0376-.89153.53627-2.29673,1.17456-2.54172,3.64827-1.4003,3.85365-4.53959,3.82933-7.54985-.02067-2.55729.94854-3.6006,3.267-4.52006,10.46722-4.15116,15.94863-13.06237,15.23995-24.63277-2.95037.12517-3.27312-1.72678-3.20067-4.26358.15851-5.55021.05787-11.10913-.00242-16.66378-.03579-3.29775-.89861-6.26652-3.7569-8.32763-1.67233-1.20591-3.31166-2.45785-4.958-3.69947-2.22933-1.6813-4.52374-1.63856-6.47918.23841a4.60553,4.60553,0,0,0-.33026,6.768,4.48435,4.48435,0,0,0,6.39141.89333,35.44352,35.44352,0,0,0,3.19655-2.81795c.95408,2.622,2.21413,4.62713,2.33507,6.6988.32329,5.53789.056,11.10752.23074,16.658.08272,2.62805-.23066,4.6699-3.32534,4.7301-.58878,10.33956-5.40272,15.85159-13.95027,16.24588-8.74576.40344-13.43471-4.62387-15.31149-16.58751l-4.46255-.41375c0-7.6826-.14552-15.17813.128-22.65833.052-1.42316,1.76186-2.7857,2.82828-4.355.91917.98879,1.25042,1.39365,1.63038,1.746,2.43909,2.26169,4.95736,2.39814,7.35086.0228a4.82683,4.82683,0,0,0-.32962-7.06932c-2.63066-2.18907-5.09018-1.62387-7.3401.73047a6.5577,6.5577,0,0,1-2.00548,1.76145c-4.53179,1.75618-5.899,5.34716-5.9094,9.781-.01333,5.6874-.14518,11.37984.056,17.06012C96.48819,200.85621,95.426,201.71188,93,201.51473Z" transform="translate(-93 -165)" style="fill: #fff"/>
    <path d="M93,201.51473c2.426.19715,3.48819-.65852,3.39307-3.3445-.20115-5.68028-.0693-11.37272-.056-17.06012.0104-4.43386,1.37761-8.02484,5.9094-9.781a6.5577,6.5577,0,0,0,2.00548-1.76145c2.24992-2.35434,4.70944-2.91954,7.3401-.73047a4.82683,4.82683,0,0,1,.32962,7.06932c-2.3935,2.37534-4.91177,2.23889-7.35086-.0228-.38-.35232-.71121-.75718-1.63038-1.746-1.06642,1.56926-2.77624,2.9318-2.82828,4.355-.27355,7.4802-.128,14.97573-.128,22.65833l4.46255.41375c1.87678,11.96364,6.56573,16.99095,15.31149,16.58751,8.54755-.39429,13.36149-5.90632,13.95027-16.24588,3.09468-.0602,3.40806-2.102,3.32534-4.7301-.17472-5.55049.09255-11.12012-.23074-16.658-.12094-2.07167-1.381-4.07684-2.33507-6.6988a35.44352,35.44352,0,0,1-3.19655,2.81795,4.48435,4.48435,0,0,1-6.39141-.89333,4.60553,4.60553,0,0,1,.33026-6.768c1.95544-1.877,4.24985-1.91971,6.47918-.23841,1.64635,1.24162,3.28568,2.49356,4.958,3.69947,2.85829,2.06111,3.72111,5.02988,3.7569,8.32763.06029,5.55465.16093,11.11357.00242,16.66378-.07245,2.5368.2503,4.38875,3.20067,4.26358.70868,11.5704-4.77273,20.48161-15.23995,24.63277-2.31848.91946-3.28769,1.96277-3.267,4.52006.02432,3.01026-.18106,6.14955-3.82933,7.54985-.63829.245-1.137,1.65019-1.17456,2.54172-.4204,9.96588,6.813,18.60254,16.362,19.66405,8.735.971,17.0695-5.49326,18.62779-15.27225.86544-5.431.51244-11.06651.58207-16.61143.07971-6.34777-.01186-12.69749.02668-19.046.05736-9.449,5.94486-16.30845,14.10642-16.5023,8.09669-.19233,14.221,6.52494,14.57046,15.97925.02424.65592.06065,1.31139.08892,1.91432,8.71149,4.79487,11.456,9.22274,9.6273,15.438a11.56938,11.56938,0,0,1-12.68224,8.48988,11.77465,11.77465,0,0,1-10.43706-10.32486c-.77563-5.85275,2.82141-10.69639,10.60781-13.39765-.74641-3.006-1.02856-6.34363-2.40215-9.14631-1.94721-3.97312-5.59738-5.90671-10.17056-5.43074-4.73529.49284-7.69529,3.36742-9.16435,7.66966a20.09724,20.09724,0,0,0-.82982,6.24107c-.08589,10.316.076,20.63509-.0908,30.94918-.17792,11-6.88681,19.73088-16.56782,21.99744-12.22046,2.86112-24.34716-6.48878-25.42948-19.69185-.22242-2.71328-.11246-5.0291-3.13642-6.87138-1.53382-.93443-1.438-4.46258-2.20145-6.77771-.37051-1.12352-.78644-2.8487-1.58408-3.12037C100.9463,224.0031,95.7848,217.4569,93,208.65892Zm47.10117,3.46087c-2.3219-.7988-3.05851.06485-3.46735,2.47376-1.13631,6.695-5.16295,11.11481-11.62883,13.18078-11.431,3.65243-20.80519-2.49755-23.85779-15.7211H96.64376c.33274,11.61669,10.00856,20.28047,22.17152,20.06695C130.6985,224.76739,139.99451,216.09711,140.10117,204.9756Zm42.73,10.00737a8.35124,8.35124,0,0,0-.35369,16.69743,8.6294,8.6294,0,0,0,8.6931-8.38288A8.541,8.541,0,0,0,182.83116,214.983Zm-60.80637,13.66848h-7.40136c.59482,2.29272.69084,4.47474,1.75478,5.96633.49959.70038,3.74865.63658,4.20094-.0715C121.56962,232.99571,121.57017,230.81282,122.02479,228.65145Z" transform="translate(-93 -165)"/>
    <path d="M140.10117,204.9756c-.10666,11.12151-9.40267,19.79179-21.28589,20.00039-12.163.21352-21.83878-8.45026-22.17152-20.06695h4.50344c3.0526,13.22355,12.4268,19.37353,23.85779,15.7211,6.46588-2.066,10.49252-6.48573,11.62883-13.18078C137.04266,205.04045,137.77927,204.1768,140.10117,204.9756Z" transform="translate(-93 -165)" style="fill: #fff"/>
    <path d="M182.83116,214.983a8.541,8.541,0,0,1,8.33941,8.31455,8.6294,8.6294,0,0,1-8.6931,8.38288,8.35124,8.35124,0,0,1,.35369-16.69743Zm4.84737,8.31366a5.019,5.019,0,0,0-5.05521-5.00376,4.93951,4.93951,0,0,0-4.78032,5.24568c.16948,3.01074,1.99976,4.54555,4.82874,4.7755A4.89554,4.89554,0,0,0,187.67853,223.29663Z" transform="translate(-93 -165)" style="fill: #fff"/>
    <path d="M122.02479,228.65145c-.45462,2.16137-.45517,4.34426-1.44564,5.89483-.45229.70808-3.70135.77188-4.20094.0715-1.06394-1.49159-1.16-3.67361-1.75478-5.96633Z" transform="translate(-93 -165)" style="fill: #fff"/>
    <path d="M187.67853,223.29663a4.89554,4.89554,0,0,1-5.00679,5.01742c-2.829-.23-4.65926-1.76476-4.82874-4.7755a4.93951,4.93951,0,0,1,4.78032-5.24568A5.019,5.019,0,0,1,187.67853,223.29663Z" transform="translate(-93 -165)"/>
  </g>
</svg>
