<svg xmlns="http://www.w3.org/2000/svg" viewBox="0 0 40 40"><g data-name="Layer 2"><g><path d="M38.65,40A1.34,1.34,0,0,0,40,38.67h0v-22a1.33,1.33,0,0,0-1.35-1.33H30.31v-.87a1.35,1.35,0,0,0-.74-1.19L21.43,9.25V6.69l5.74-1.9A1.33,1.33,0,0,0,28,3.12a1.35,1.35,0,0,0-.86-.85L20.51.07a1.34,1.34,0,0,0-1.77,1.26V9.25L10.6,13.32a1.31,1.31,0,0,0-.74,1.19v.86H1.34A1.34,1.34,0,0,0,0,16.7H0v22A1.33,1.33,0,0,0,1.34,40H38.65ZM21.43,4.22V2.82l2.94.71ZM2.69,18H9.86v19.3H2.69Zm9.86-2.71,7.53-3.76,7.54,3.76v22H12.55v-22Zm24.76,22h-7V18h7ZM18,17.57H15.78a1.33,1.33,0,1,0,0,2.66H18a1.33,1.33,0,0,0,.18-2.66ZM5.38,22.42H7.59a1.33,1.33,0,1,0,.11-2.66H5.37a1.34,1.34,0,0,0,0,2.67ZM7.6,24.15H5.38a1.33,1.33,0,0,0,0,2.66H7.59a1.33,1.33,0,1,0,.18-2.65.54.54,0,0,0-.18,0Zm0,4.4H5.38a1.33,1.33,0,0,0,0,2.66H7.59a1.33,1.33,0,1,0,.11-2.66H7.6Zm25.23-6.12h2.22a1.35,1.35,0,0,0,1.39-1.28,1.33,1.33,0,0,0-1.28-1.38H32.83a1.33,1.33,0,0,0,0,2.66Zm0,4.39h2.22a1.33,1.33,0,0,0,0-2.66H32.83a1.33,1.33,0,0,0-.1,2.66Zm2.22,1.73H32.83a1.34,1.34,0,0,0,0,2.67h2.22a1.34,1.34,0,1,0,0-2.67Zm-10.39-11H22.44a1.34,1.34,0,0,0,0,2.67h2.22a1.34,1.34,0,0,0,0-2.67ZM18,22H15.78a1.33,1.33,0,0,0,0,2.66H18A1.34,1.34,0,0,0,18,22h0Zm6.66,0H22.44a1.33,1.33,0,0,0,0,2.66h2.22A1.32,1.32,0,0,0,26,23.3,1.34,1.34,0,0,0,24.66,22h0ZM18,26.37H15.78a1.33,1.33,0,1,0,0,2.66H18a1.34,1.34,0,1,0,0-2.67h0Zm6.66,0H22.44a1.33,1.33,0,1,0,0,2.66h2.22A1.34,1.34,0,0,0,26,27.69a1.33,1.33,0,0,0-1.34-1.33h0Z"/></g></g></svg>