<svg id="Layer_1" data-name="Layer 1" xmlns="http://www.w3.org/2000/svg" viewBox="0 0 102.4 102.4">
  <g>
    <path d="M93,234.06047V165H195.4V267.4H93V238.02946a7.98035,7.98035,0,0,0,7.58912,3.20246,16.65644,16.65644,0,0,1,5.13555.05687,5.97667,5.97667,0,0,1,3.5401,2.10579c3.83488,5.96323,11.08171,5.9454,14.97224-.00484a5.4284,5.4284,0,0,1,3.87248-2.09467c12.69377-.15622,25.3904-.06219,38.08578-.12549,2.00965-.01,3.20506.37621,4.32773,2.39847,3.00408,5.41134,10.58752,5.85656,13.83365.80444a6.37814,6.37814,0,0,1,5.40405-3.42691c1.6496-.1767,3.7235-2.07078,4.40924-3.69855.51164-1.21448-.44179-4.21234-1.5302-4.71668-3.30362-1.5308-3.05085-4.03157-3.11371-6.81323-.12915-5.715-2.64434-8.13531-8.33715-8.256-2.90813-.06167-5.88156-.39559-8.71484.06869-5.74927.94213-8.93949-1.38418-11.14652-6.61131-2.16567-5.12922-4.31379-11.038-11.96255-8.51127-1.39945-7.726-3.21334-10.21166-7.1867-10.2644-3.92779-.05215-5.76939,2.406-7.4628,10.14317-3.49914,0-7.06252.12117-10.61288-.04161-2.46267-.1129-3.88266.60758-4.65483,3.12747-1.22592,4.00065-1.74859,9.41362-4.56386,11.39643-2.8592,2.01374-8.14556.81413-12.34958.6141-3.54511-.16869-4.74371,1.21457-4.5325,4.61353C98.29882,226.77518,98.87755,231.79093,93,234.06047Zm50.6259-50.57315c-1.15955.33357-2.67486.39944-2.82493.88621a6.66615,6.66615,0,0,0,.05407,3.80363c.13471.42222,1.70111.38764,2.77086.59142Zm-11.21406,7.90751c3.78076-2.86816.41157-3.777-.97507-5.47326l-2.128,2.3723c.59767.654,1.00962,1.13744,1.45723,1.5853C131.21619,190.32963,131.70187,190.74464,132.41184,191.39483Zm22.70131-2.97954c-2.4228-2.2658-4.34262-1.77349-5.44389,1.03134l2.29841,1.93765Z" transform="translate(-93 -165)" style="fill: #fff"/>
    <path d="M93,234.06047c5.87755-2.26954,5.29882-7.28529,5.00182-12.06457-.21121-3.399.98739-4.78222,4.5325-4.61353,4.204.2,9.49038,1.39964,12.34958-.6141,2.81527-1.98281,3.33794-7.39578,4.56386-11.39643.77217-2.51989,2.19216-3.24037,4.65483-3.12747,3.55036.16278,7.11374.04161,10.61288.04161,1.69341-7.73712,3.535-10.19532,7.4628-10.14317,3.97336.05274,5.78725,2.53835,7.1867,10.2644,7.64876-2.52676,9.79688,3.38205,11.96255,8.51127,2.207,5.22713,5.39725,7.55344,11.14652,6.61131,2.83328-.46428,5.80671-.13036,8.71484-.06869,5.69281.12071,8.208,2.541,8.33715,8.256.06286,2.78166-.18991,5.28243,3.11371,6.81323,1.08841.50434,2.04184,3.5022,1.5302,4.71668-.68574,1.62777-2.75964,3.52185-4.40924,3.69855a6.37814,6.37814,0,0,0-5.40405,3.42691c-3.24613,5.05212-10.82957,4.6069-13.83365-.80444-1.12267-2.02226-2.31808-2.40848-4.32773-2.39847-12.69538.0633-25.392-.03073-38.08578.12549a5.4284,5.4284,0,0,0-3.87248,2.09467c-3.89053,5.95024-11.13736,5.96807-14.97224.00484a5.97667,5.97667,0,0,0-3.5401-2.10579,16.65644,16.65644,0,0,0-5.13555-.05687A7.98035,7.98035,0,0,1,93,238.02946Zm45.5316-28.1571c-14.715-1.696-15.92842-1.02-19.04464,10.38285a4.51407,4.51407,0,0,0-.00822.96642H138.5316Zm23.53129,24.88955v-9.7133H142.379v9.7133Zm-.96736-13.489c-2.118-3.84152-3.8823-7.18622-5.81806-10.42856a3.03676,3.03676,0,0,0-2.161-1.23745c-3.51134-.12936-7.0301-.05741-10.70025-.05741V217.304Zm24.63605,5.78336c-6.13506-3.912-12.98812-1.54628-19.541-2.23489v9.91945h19.57289c1.17949-4.75429-2.99422-2.22584-4.47146-3.6163C180.14651,222.9075,184.14715,225.0296,185.73158,223.08733Zm-84.36736,7.56014h24.0852l.19873-.97756c-2.31227-.68546-5.07074-.81835-6.80538-2.21911-1.58535-1.2802-2.06282-3.93235-3.15264-6.243-6.61844-3.88717-8.72511,4.13609-13.39824,6.15864C101.66858,227.63616,101.68946,229.39436,101.36422,230.64747Zm19.342-9.80713-1.116,1.20166a20.03557,20.03557,0,0,0,2.84627,2.74085c1.97349,1.28191,4.64824,1.86965,6.05465,3.55924,2.96051,3.5566,6.37358,2.68019,10.27277,2.30445a47.93791,47.93791,0,0,0-.11949-7.30495,3.61542,3.61542,0,0,0-2.50277-2.38957C131.00523,220.72106,125.85305,220.84034,120.70623,220.84034ZM142.58079,234.429l-.74581,1.06073c.81533.793,1.60459,2.23869,2.45027,2.27249,5.2749.21078,10.564.16834,15.844.03441.74663-.019,1.469-.99377,2.20262-1.52616-.65675-.61382-1.30132-1.74473-1.97215-1.76053C154.436,234.37039,148.50772,234.429,142.58079,234.429Zm40.08453,5.07278a4.93222,4.93222,0,0,0-5.09842-4.91682c-2.96357.14267-4.59155,1.90114-4.87071,4.744a4.98555,4.98555,0,1,0,9.96913.17278Zm-61.02407.10345a4.77158,4.77158,0,0,0-4.93433-4.993,4.59646,4.59646,0,0,0-4.89954,4.61577,4.92163,4.92163,0,1,0,9.83387.37722Zm-11.9688-3.81673-.66973-1.36516c-3.24948,0-6.50679-.12432-9.74342.07958-.9112.05741-1.76175,1.07761-2.64012,1.6562.90525.56982,1.76714,1.52379,2.72451,1.63185a25.45261,25.45261,0,0,0,6.63825-.0071C107.28343,237.58459,108.44693,236.484,109.67245,235.78846Zm29.26358-33.783h6.47966c-.04157-2.98693.67738-6.441-3.49217-6.28117C138.14141,195.8692,138.78709,199.10665,138.936,202.00544Zm-5.534,31.68181c-.58351,4.29108,1.37753,4.46856,3.41669,4.10357.71848-.1286,1.27717-1.14994,1.90882-1.76366Zm-4.39013,4.6547c.12807-5.34508-2.5762-3.75578-4.71846-3.59028l-.578,1.41924Zm56.1255-4.68463c.16665,4.02249,1.81209,4.65025,4.03045,4.08242.71694-.18352,1.23926-1.12734,1.85061-1.72336Zm-19.96843.9055,2.13873,3.2871,3.30527-2.387-.60826-.90012Z" transform="translate(-93 -165)"/>
    <path d="M143.6259,183.48732v5.28126c-1.06975-.20378-2.63615-.1692-2.77086-.59142a6.66615,6.66615,0,0,1-.05407-3.80363C140.951,183.88676,142.46635,183.82089,143.6259,183.48732Z" transform="translate(-93 -165)"/>
    <path d="M132.41184,191.39483c-.71-.65019-1.19565-1.0652-1.64585-1.51566-.44761-.44786-.85956-.93134-1.45723-1.5853l2.128-2.3723C132.82341,187.61784,136.1926,188.52667,132.41184,191.39483Z" transform="translate(-93 -165)"/>
    <path d="M155.11315,188.41529l-3.14548,2.969-2.29841-1.93765C150.77053,186.6418,152.69035,186.14949,155.11315,188.41529Z" transform="translate(-93 -165)"/>
    <path d="M138.5316,205.90337v11.34927H119.47874a4.51407,4.51407,0,0,1,.00822-.96642C122.60318,204.88341,123.81662,204.20734,138.5316,205.90337Z" transform="translate(-93 -165)" style="fill: #fff"/>
    <path d="M162.06289,230.79292H142.379v-9.7133h19.68389Z" transform="translate(-93 -165)" style="fill: #fff"/>
    <path d="M161.09553,217.304h-18.6793V205.58055c3.67015,0,7.18891-.07195,10.70025.05741a3.03676,3.03676,0,0,1,2.161,1.23745C157.21323,210.11775,158.97757,213.46245,161.09553,217.304Z" transform="translate(-93 -165)" style="fill: #fff"/>
    <path d="M185.73158,223.08733c-1.58443,1.94227-5.58507-.17983-4.43958,4.06826,1.47724,1.39046,5.65095-1.138,4.47146,3.6163H166.19057v-9.91945C172.74346,221.54105,179.59652,219.17536,185.73158,223.08733Z" transform="translate(-93 -165)" style="fill: #fff"/>
    <path d="M101.36422,230.64747c.32524-1.25311.30436-3.01131.92767-3.28107,4.67313-2.02255,6.7798-10.04581,13.39824-6.15864,1.08982,2.31069,1.56729,4.96284,3.15264,6.243,1.73464,1.40076,4.49311,1.53365,6.80538,2.21911l-.19873.97756Z" transform="translate(-93 -165)" style="fill: #fff"/>
    <path d="M120.70623,220.84034c5.14682,0,10.299-.11928,15.43544.11168a3.61542,3.61542,0,0,1,2.50277,2.38957,47.93791,47.93791,0,0,1,.11949,7.30495c-3.89919.37574-7.31226,1.25215-10.27277-2.30445-1.40641-1.68959-4.08116-2.27733-6.05465-3.55924a20.03557,20.03557,0,0,1-2.84627-2.74085Z" transform="translate(-93 -165)" style="fill: #fff"/>
    <path d="M142.58079,234.429c5.92693,0,11.85525-.05857,17.77889.08094.67083.0158,1.3154,1.14671,1.97215,1.76053-.73361.53239-1.456,1.50721-2.20262,1.52616-5.28.13393-10.56906.17637-15.844-.03441-.84568-.0338-1.63494-1.47949-2.45027-2.27249Z" transform="translate(-93 -165)" style="fill: #fff"/>
    <path d="M182.66532,239.50174a4.98555,4.98555,0,1,1-9.96913-.17278c.27916-2.8429,1.90714-4.60137,4.87071-4.744A4.93222,4.93222,0,0,1,182.66532,239.50174Z" transform="translate(-93 -165)" style="fill: #fff"/>
    <path d="M121.64125,239.60519a4.92163,4.92163,0,1,1-9.83387-.37722,4.59646,4.59646,0,0,1,4.89954-4.61577A4.77158,4.77158,0,0,1,121.64125,239.60519Z" transform="translate(-93 -165)" style="fill: #fff"/>
    <path d="M109.67245,235.78846c-1.22552.69551-2.389,1.79613-3.69051,1.99537a25.45261,25.45261,0,0,1-6.63825.0071c-.95737-.10806-1.81926-1.062-2.72451-1.63185.87837-.57859,1.72892-1.59879,2.64012-1.6562,3.23663-.2039,6.49394-.07958,9.74342-.07958Z" transform="translate(-93 -165)" style="fill: #fff"/>
    <path d="M138.936,202.00544c-.14894-2.89879-.79462-6.13624,2.98749-6.28117,4.16955-.15979,3.4506,3.29424,3.49217,6.28117Z" transform="translate(-93 -165)" style="fill: #fff"/>
    <path d="M133.40206,233.68725l5.32551,2.33991c-.63165.61372-1.19034,1.63506-1.90882,1.76366C134.77959,238.15581,132.81855,237.97833,133.40206,233.68725Z" transform="translate(-93 -165)" style="fill: #fff"/>
    <path d="M129.01193,238.342l-5.29649-2.171.578-1.41924C126.43573,234.58617,129.14,232.99687,129.01193,238.342Z" transform="translate(-93 -165)" style="fill: #fff"/>
    <path d="M185.13743,233.65732l5.88105,2.35906c-.61134.596-1.13366,1.53984-1.8506,1.72336C186.94952,238.30757,185.30408,237.67981,185.13743,233.65732Z" transform="translate(-93 -165)" style="fill: #fff"/>
    <path d="M165.169,234.56282h4.83574l.60826.90012-3.30527,2.387Z" transform="translate(-93 -165)" style="fill: #fff"/>
  </g>
</svg>
