<svg xmlns="http://www.w3.org/2000/svg" viewBox="0 0 40 37.49"><g data-name="Layer 2"><g><path d="M40,10.23c-.17.72-.3,1.44-.51,2.15a8.05,8.05,0,0,1-1.57,2.85,1.13,1.13,0,0,0-.27.78q0,8.86,0,17.73a3.45,3.45,0,0,1-2,3.38,4.11,4.11,0,0,1-1.62.36q-15.21,0-30.42,0A3.49,3.49,0,0,1,0,33.88Q0,23.42,0,13A3.51,3.51,0,0,1,3.72,9.37H21.16a24,24,0,0,1,.46-2.52A9,9,0,0,1,29.09.16a9,9,0,0,1,8.62,3.1,9,9,0,0,1,2.21,5c0,.13,0,.25.08.38ZM21.54,11.71H3.75c-1,0-1.4.44-1.4,1.41V33.74c0,1,.43,1.41,1.4,1.41H33.9c1,0,1.41-.44,1.41-1.4V17.49A9.21,9.21,0,0,1,27,18,9.29,9.29,0,0,1,21.54,11.71Zm9.1,4.69a7,7,0,1,0-7-7A7.07,7.07,0,0,0,30.64,16.4Z"/><path d="M7.24,24.44a4.7,4.7,0,1,1,6.69-.08c.53.62,1.1,1.19,1.56,1.84a5.32,5.32,0,0,1,.92,3.05q0,1.16,0,2.31a1.17,1.17,0,0,1-1.25,1.24c-3.07,0-6.15,0-9.22,0A1.15,1.15,0,0,1,4.7,31.56a30.08,30.08,0,0,1,.14-3.43A5.32,5.32,0,0,1,7,24.64Zm6.8,6c.15-1.72-.12-3.23-1.71-4.17a3.31,3.31,0,0,0-3.79.15c-1.42,1-1.63,2.43-1.48,4Zm-3.47-11.7a2.35,2.35,0,0,0-2.36,2.32,2.34,2.34,0,1,0,2.36-2.32Z"/><path d="M27.09,28.12h-4.6a1.17,1.17,0,0,1-1.14-1.63,1.2,1.2,0,0,1,1.2-.71c1.91,0,3.82,0,5.73,0h3.36a1.19,1.19,0,1,1,0,2.35Z"/><path d="M27.11,30.46c1.54,0,3.09,0,4.64,0a1.16,1.16,0,0,1,1.09,1.68,1.19,1.19,0,0,1-1.18.67H23.19c-.26,0-.52,0-.78,0a1.17,1.17,0,1,1,0-2.34c1.56,0,3.12,0,4.68,0Z"/><path d="M22.44,21.09a1.17,1.17,0,1,1-.05,2.34,1.17,1.17,0,0,1,.05-2.34Z"/><path d="M27.08,23.43a1.17,1.17,0,1,1,1.2-1.14A1.18,1.18,0,0,1,27.08,23.43Z"/><path d="M33,22.28a1.17,1.17,0,1,1-1.14-1.19A1.18,1.18,0,0,1,33,22.28Z"/><path d="M29.43,10.08l3.65-3.65a3.92,3.92,0,0,1,.37-.34A1.14,1.14,0,0,1,35,6.22a1.15,1.15,0,0,1,.1,1.5c-.09.11-.19.21-.29.31l-4.33,4.34a1.23,1.23,0,0,1-2,0c-.71-.71-1.42-1.41-2.12-2.13a1.17,1.17,0,0,1,.53-2A1.18,1.18,0,0,1,28,8.61Z"/></g></g></svg>