<svg xmlns="http://www.w3.org/2000/svg" viewBox="0 0 40 40"><g data-name="Layer 2"><g data-name="video"><path d="M32.69,0H7.31A7.32,7.32,0,0,0,0,7.31V32.69A7.32,7.32,0,0,0,7.31,40H32.69A7.32,7.32,0,0,0,40,32.69V7.31A7.32,7.32,0,0,0,32.69,0Zm4.78,32.69a4.78,4.78,0,0,1-4.78,4.78H7.31a4.78,4.78,0,0,1-4.78-4.78V7.31A4.78,4.78,0,0,1,7.31,2.53H32.69a4.78,4.78,0,0,1,4.78,4.78V32.69Z"/><path d="M28.75,19,15.87,8.69a1.28,1.28,0,0,0-1.34-.15,1.26,1.26,0,0,0-.72,1.14V30.32a1.26,1.26,0,0,0,.72,1.14,1.2,1.2,0,0,0,.55.13,1.29,1.29,0,0,0,.79-.28L28.75,21a1.28,1.28,0,0,0,0-2Zm-12.4,8.67V12.32L25.93,20Z"/></g></g></svg>