<svg xmlns="http://www.w3.org/2000/svg" viewBox="0 0 40 33.8"><g data-name="Layer 2"><g><path class="cls-1" d="M40,7.76a4,4,0,0,0-3.53-3.44c-.41,0-.82,0-1.25,0,0-.12,0-.23,0-.33a4,4,0,0,0-4-4H4A4,4,0,0,0,0,4.06V29.74A4,4,0,0,0,4,33.8H36a3.91,3.91,0,0,0,.76-.07,4,4,0,0,0,3.29-4V8.38A4.3,4.3,0,0,0,40,7.76ZM35.83,31.55c-5.28,0-10.56,0-15.83,0H4.11a1.75,1.75,0,0,1-1.79-1.35,1.8,1.8,0,0,1,0-.46V4.08A1.74,1.74,0,0,1,4.09,2.26h27a1.74,1.74,0,0,1,1.82,1.67c0,.37,0,.37-.35.37h-24a1.14,1.14,0,0,0-1.24.94,1.12,1.12,0,0,0,.91,1.3l.42,0H35.86a1.75,1.75,0,0,1,1.78,1.19,1.81,1.81,0,0,1,.09.61c0,1.44,0,2.89,0,4.33,0,.17,0,.21-.21.21H30.43a3.76,3.76,0,0,0-3.81,3.14,6.76,6.76,0,0,0,.07,3,3.83,3.83,0,0,0,3.77,2.81h7c.19,0,.24,0,.24.24,0,2.52,0,5,0,7.56A1.84,1.84,0,0,1,35.83,31.55Zm-7-14.76a1.6,1.6,0,0,1,1.62-1.63h6.48c.15,0,.18.05.18.19,0,1.35,0,2.7,0,4.06,0,.15,0,.18-.19.18H33.59c-1,0-2,0-3.06,0a1.63,1.63,0,0,1-1.72-1.73C28.83,17.51,28.81,17.15,28.81,16.79Z"/></g></g></svg>