<svg preserveAspectRatio="xMidYMid meet" viewBox="0 0 128 128" xmlns="http://www.w3.org/2000/svg"><g transform="matrix(.1 0 0 -.1 0 128)"><path d="m585 1164c-92-14-176-38-222-64-44-25-52-35-55-62-2-25-8-34-26-36-13-2-25 3-28 12-8 22-70 22-78 0-8-20-8-168 0-188 8-22 70-22 78 0 3 9 6 49 6 91 0 71 1 74 23 71l22-3-4-207-4-207 39-8c51-10 627-10 678 0l39 8-4 207-4 207 23 3c21 3 22 0 22-71 0-97 4-107 45-107 21 0 35 6 39 16 8 20 8 168 0 188-8 21-72 22-80 1-7-18-43-20-48-2-3 6-7 24-10 38-7 33-79 73-167 94-66 15-232 27-284 19zm75-333v-210l-115-3c-63-2-115-1-115 2 1 3 32 39 70 80l70 75v-47c0-27 5-48 10-48 6 0 10 48 10 125s-4 125-10 125-10-30-10-69v-68l-92-91c-61-61-101-92-115-92h-23v203c0 145 3 206 12 215 8 8 58 12 160 12h148zm348 197c9-9 12-70 12-215 0-112-2-203-5-203-22 0-101 53-162 108l-73 65v68c0 37-4 71-10 74-6 4-10-38-10-120s4-124 10-120c6 3 10 25 10 48v42l49-55 49-55-54-7c-29-4-67-14-83-23-17-8-35-15-41-15-11 0-15 402-3 413 12 13 298 8 311-5z"/><path d="m305 424c7-143 12-173 27-191 6-8 11-32 9-53-3-50 18-70 74-70 69 0 75 5 75 66v54h180 180v-44c0-57 19-76 75-76 67 0 75 6 75 56 0 25 7 56 17 71 13 19 19 58 23 157 4 72 6 132 6 133-1 1-41-3-91-9-95-11-594-5-632 7l-23 7zm223-36c17-17 15-55-4-66s-114-3-131 10c-14 11-18 50-6 61 11 12 128 8 141-5zm440-19c4-34-13-46-76-51-57-6-82 7-82 41 0 32 22 42 90 39 62-3 65-4 68-29z"/></g></svg>