<svg preserveAspectRatio="xMidYMid meet" viewBox="0 0 129 128" xmlns="http://www.w3.org/2000/svg"><g transform="matrix(.1 0 0 -.1 0 128)"><path d="m545 1006c-187-45-325-219-325-411 0-203 149-379 352-416 227-42 456 125 487 357 41 293-229 539-514 470zm271-60c292-145 292-557 1-701-98-48-186-57-285-26-112 34-189 100-244 209-81 162-30 369 120 482 120 90 272 103 408 36z"/><path d="m423 905c-50-33-93-82-93-104 0-20 18-12 39 18 11 15 45 45 75 66 31 21 53 42 50 46-8 14-16 11-71-26z"/><path d="m545 868c-197-70-255-328-108-475 56-56 105-77 196-81 68-4 84-1 132 22 218 107 220 412 3 520-42 21-66 26-122 25-39 0-84-5-101-11zm200-32c50-21 106-77 131-131 93-198-92-421-299-361-74 21-127 63-162 127-25 45-30 65-30 124s5 79 30 124c65 118 207 168 330 117z"/><path d="m1142 593 3-398h30 30l5 110c5 104 6 110 27 113 18 3 23 12 29 59 4 31 4 115 2 187-6 140-25 212-80 291-48 71-48 65-46-362zm69 259c21-51 23-74 23-232l1-175-32-3-33-3v241c0 147 4 239 9 235 5-3 20-31 32-63zm-34-584c-2-29-3-6-3 52s1 81 3 53c2-29 2-77 0-105z"/><path d="m20 856c0-118 1-126 25-154l25-30v-241-241h35 35v243 244l25 23c24 23 25 28 25 153 0 98-3 128-12 125s-14-36-16-106c-4-136-22-133-22 3 0 63-4 105-10 105s-10-42-10-105c0-136-18-139-22-3-2 70-7 103-15 106-10 3-13-22-13-102 0-64-4-106-10-106s-10 42-10 105c0 87-3 105-15 105-13 0-15-20-15-124zm130-131c-18-21-46-28-70-15-34 18-22 30 31 30 44 0 50-2 39-15zm-43-392c-1-65-3-14-3 112 0 127 2 180 3 118 2-62 2-165 0-230z"/></g></svg>