<svg preserveAspectRatio="xMidYMid meet" viewBox="0 0 256 256" xmlns="http://www.w3.org/2000/svg"><g transform="matrix(.1 0 0 -.1 0 256)"><path d="m283 2540c-18-10-40-31-50-47-17-26-18-87-18-1213s1-1187 18-1213c10-16 32-37 50-47 31-19 58-20 997-20s966 1 997 20c18 10 40 31 50 47 17 26 18 87 18 1213s-1 1187-18 1213c-10 16-32 37-50 47-31 19-58 20-997 20s-966-1-997-20zm1967-80c5-8 10-104 10-212v-198h-980-980v198c0 108 4 202 8 208s14 14 22 17 442 5 963 4c830-2 949-4 957-17zm10-1355v-855h-980-980v855 855h980 980zm0-962c0-62 72-58-980-58s-980-4-980 58v27h980 980z"/><path d="m485 2415c-73-40-99-85-93-165 5-69 35-115 92-141 52-23 90-23 142 0 55 25 87 71 92 135 5 66-15 115-63 151-46 35-124 44-170 20zm133-101c48-54 10-134-63-134-69 0-108 73-69 128 33 48 92 50 132 6z"/><path d="m1295 2415c-72-39-101-93-93-175 6-60 39-107 92-131 52-23 90-23 142 0 57 26 87 72 92 141 5 68-12 107-64 146-45 34-124 43-169 19zm133-101c48-54 10-134-63-134-69 0-108 73-69 128 33 48 92 50 132 6z"/><path d="m798 2343c-27-7-35-53-13-70 23-16 187-18 216-3 29 16 25 58-7 70-25 10-163 12-196 3z"/><path d="m1608 2343c-27-7-35-53-13-70 23-16 187-18 216-3 29 16 25 58-7 70-25 10-163 12-196 3z"/><path d="m1942 2334c-26-18-28-37-6-58 20-20 203-23 222-4 18 18 14 56-7 68-32 16-183 13-209-6z"/><path d="m785 2207c-24-18-14-62 17-71 36-9 164-7 192 4 32 12 36 54 7 70-29 15-193 13-216-3z"/><path d="m1595 2207c-24-18-14-62 17-71 36-9 164-7 192 4 32 12 36 54 7 70-29 15-193 13-216-3z"/><path d="m1936 2204c-45-44 1-74 112-74 93 0 122 10 122 43 0 40-18 47-121 47-75 0-101-4-113-16z"/><path d="m1187 1869c-124-14-249-64-362-144-138-97-242-253-291-435-25-93-23-270 4-371 145-541 792-753 1227-402 121 98 224 262 261 418 22 93 22 259-1 350-79 318-340 548-665 585-47 5-89 9-95 9-5-1-40-5-78-10zm257-99c232-59 407-223 487-456 21-60 24-86 23-209 0-125-3-148-26-213-38-106-83-176-168-262-84-84-153-129-262-168-67-24-86-27-218-27s-151 3-218 27c-108 39-178 84-262 168s-129 154-168 262c-24 66-27 86-27 213 0 160 16 226 86 346 152 262 462 394 753 319z"/><path d="m1210 1699c-239-26-446-206-506-440-22-85-22-227 1-304 86-299 376-484 675-431 389 69 606 485 437 839-110 232-348 363-607 336zm193-94c111-29 233-108 283-185l27-40-43-46c-64-70-84-123-85-224 0-73 4-93 27-140 15-30 43-72 63-94 19-21 35-43 35-48 0-20-139-145-190-170-211-104-443-69-600 91-100 103-150 224-150 366 0 135 50 254 145 350 131 131 318 184 488 140zm371-363c20-72 21-189 2-261-8-29-17-55-20-58-10-10-32 15-61 69-36 65-40 161-10 218 24 48 55 90 64 90 5 0 16-26 25-58z"/><path d="m1144 1510c-171-61-291-224-282-383 3-46 6-52 27-55 33-5 43 9 52 72 22 162 143 283 305 305 64 9 79 20 70 55-6 24-10 26-64 25-31 0-80-9-108-19z"/></g></svg>