<svg preserveAspectRatio="xMidYMid meet" viewBox="0 0 128 128" xmlns="http://www.w3.org/2000/svg"><g transform="matrix(.1 0 0 -.1 0 128)"><path d="m377 932c-142-119-252-219-245-221 18-6 28-22 28-48 0-14 6-23 15-23 13 0 15-24 15-155s-2-155-15-155c-9 0-15-9-15-24 0-14-7-31-15-40-8-8-15-26-15-40s-4-26-10-26c-5 0-10-20-10-45v-45h535 535v45c0 25-4 45-10 45-5 0-10 14-10 30 0 17-4 30-9 30s-12 16-15 35c-4 21-13 35-21 35-13 0-15 26-15 155s2 155 15 155c8 0 17 14 21 34 3 20 13 36 22 38 16 3-486 431-510 435-7 1-129-95-271-215zm512-17 203-170-220-3c-122-1-322-1-446 0l-226 3 222 186c215 180 224 186 244 170 11-9 111-92 223-186zm-561-222c-3-15-15-18-73-18s-70 3-73 18 6 17 73 17 76-2 73-17zm86-18c4-19 11-35 16-35 6 0 10-63 10-155s-4-155-10-155c-5 0-12-16-16-35-5-28-11-35-30-35s-24 7-30 35c-3 20-12 35-20 35-11 0-14 29-14 155s3 155 14 155c8 0 17 15 20 35 6 28 11 35 30 35s25-7 30-35zm166 15c0-18-7-20-70-20s-70 2-70 20 7 20 70 20 70-2 70-20zm100-10c0-18 6-33 15-36 12-5 15-32 15-159s-3-154-15-159c-9-3-15-18-15-36 0-29-2-31-32-28-29 3-33 7-36 36-2 20-9 32-18 32-12 0-14 27-14 155 0 131 2 155 15 155 10 0 15 10 15 28 0 36 6 42 42 42 25 0 28-4 28-30zm170 10c0-18-7-20-70-20s-70 2-70 20 7 20 70 20 70-2 70-20zm88-17c2-21 9-33 18-33 12 0 14-27 14-155s-2-155-14-155c-9 0-16-12-18-32-2-28-8-34-30-36-25-3-28 0-28 28 0 18-6 33-15 36-12 5-15 32-15 159s3 154 15 159c9 3 15 18 15 36 0 28 3 31 28 28 22-2 28-8 30-35zm170 20c-3-15-16-19-67-21-61-3-80 5-81 31 0 4 34 7 76 7 66 0 75-2 72-17zm-818-208v-155h-35-35v155 155h35 35zm260 0v-155h-40-40v155 155h40 40zm270 0v-155h-40-40v155 155h40 40zm255 0v-150l-37-3-38-3v156 156l38-3 37-3zm-745-205c0-18-7-20-75-20-56 0-75 3-75 13 0 23 11 27 82 27 61 0 68-2 68-20zm250 0c0-18-7-20-70-20s-70 2-70 20 7 20 70 20 70-2 70-20zm270 0c0-18-7-20-70-20s-70 2-70 20 7 20 70 20 70-2 70-20zm260 0c0-18-7-20-75-20-41 0-75 2-75 4 0 29 16 36 81 36 62 0 69-2 69-20zm20-65c0-13-61-15-485-15s-485 2-485 15 61 15 485 15 485-2 485-15zm20-60c0-13-63-15-505-15s-505 2-505 15 63 15 505 15 505-2 505-15z"/><path d="m608 1046c-24-19-35-36-30-43 6-9 16-6 37 12l30 23 32-24c20-15 34-20 38-14 8 13-8 34-44 59-26 19-26 19-63-13z"/><path d="m527 973c-13-13-7-73 7-73 8 0 16-16 19-42 7-54 43-88 93-88 46 0 94 45 94 89 0 17 7 34 16 39 10 6 14 20 12 43-3 34-3 34-53 34h-50l-3-62c-2-47-7-63-17-63-12 0-15 15-15 65v65h-48c-27 0-52-3-55-7zm73-75c0-51 15-78 43-78 34 0 47 19 47 71 0 38 4 48 20 52 11 3 23 1 26-4s-2-9-10-9c-12 0-16-11-16-43 0-58-22-87-65-87s-65 29-65 87c0 32-4 43-16 43-8 0-13 4-10 9s15 7 26 4c16-4 20-14 20-45z"/><path d="m415 887c-33-29-78-67-100-84l-40-33h138c115 0 137 2 137 15 0 12-17 15-96 15h-96l70 58c67 54 88 83 60 81-7 0-40-23-73-52z"/><path d="m795 931c-3-6 26-36 64-68l69-58-94-3c-75-2-94-6-94-17 0-13 23-15 137-15 116 0 135 2 123 13-39 36-188 157-193 157-3 0-8-4-12-9z"/><path d="m247 604c-8-8 1-24 14-24 5 0 9 7 9 15 0 15-12 20-23 9z"/><path d="m247 553c-12-11-8-23 8-23 8 0 15 7 15 15 0 16-12 20-23 8z"/><path d="m240 430c0-56 3-70 15-70s15 14 15 70-3 70-15 70-15-14-15-70z"/><path d="m500 595c0-8 7-15 15-15s15 7 15 15-7 15-15 15-15-7-15-15z"/><path d="m500 545c0-8 7-15 15-15s15 7 15 15-7 15-15 15-15-7-15-15z"/><path d="m500 430c0-56 3-70 15-70s15 14 15 70-3 70-15 70-15-14-15-70z"/><path d="m770 595c0-8 7-15 15-15s15 7 15 15-7 15-15 15-15-7-15-15z"/><path d="m770 545c0-8 7-15 15-15s15 7 15 15-7 15-15 15-15-7-15-15z"/><path d="m770 430c0-56 3-70 15-70s15 14 15 70-3 70-15 70-15-14-15-70z"/><path d="m1030 595c0-9 5-15 11-13s11 8 11 13-5 11-11 13-11-4-11-13z"/><path d="m1030 546c0-9 7-16 16-16s14 5 12 12c-6 18-28 21-28 4z"/><path d="m1030 430c0-56 3-70 15-70s15 14 15 70-3 70-15 70-15-14-15-70z"/></g></svg>