<svg preserveAspectRatio="xMidYMid meet" viewBox="0 0 480 480" xmlns="http://www.w3.org/2000/svg"><g transform="matrix(.1 0 0 -.1 0 480)"><path d="m0 2400v-1830h935c653 0 950 3 987 11 59 13 142 51 175 81l22 20 33-25c49-37 107-63 166-76 37-8 334-11 987-11h935l2 505 3 505 168-205c150-184 170-204 186-193 9 7 58 47 109 88 78 64 89 77 78 90-19 23-508 623-518 636-6 8 11 38 47 85 74 97 149 252 177 364 33 130 32 353 0 475-41 151-115 295-204 395l-48 53v431 431h-935c-653 0-950-3-987-11-59-13-117-39-166-76l-33-25-22 20c-33 30-116 68-175 81-37 8-334 11-987 11h-935zm1917 1524c15-11 36-36 45-55 17-32 18-112 18-1258 0-1161-1-1223-17-1215-10 5-393 10-850 12l-833 2v1270 1270l804-2c796-3 805-3 833-24zm2043-163v-189l-72 28c-111 43-217 61-353 61-274 0-500-95-695-290-92-93-161-193-210-308-168-398-49-873 287-1143 176-142 349-207 578-217 170-7 291 15 448 82 16 7 17-6 17-184v-191l-832-2c-458-2-841-7-851-12-16-8-17 50-15 1227 3 1232 3 1236 24 1264 11 15 36 36 55 45 32 17 92 18 827 18h792zm-334-382c244-34 447-183 549-404 176-379-17-824-417-962-100-34-264-43-372-19-172 39-341 156-437 304-284 434-14 1015 501 1082 82 11 92 11 176-1zm-1711-2269c91-56 82-193-16-242-32-17-92-18-826-18h-793v140 140h801c786 0 802 0 834-20zm2045-120v-140h-792c-735 0-795 1-827 18-74 37-100 120-61 189 43 78-20 72 878 73h802z"/><path d="m567 3663c-4-3-7-66-7-140v-133h570 571l-3 138-3 137-561 3c-308 1-564-1-567-5z"/><path d="m562 2963 3-138 568-3 567-2v140 140h-570-571z"/><path d="m560 2400v-140h570 570v140 140h-570-570z"/><path d="m567 1973c-4-3-7-66-7-140v-133h570 570v140 140h-563c-310 0-567-3-570-7z"/></g></svg>