<svg id="Layer_1" data-name="Layer 1" xmlns="http://www.w3.org/2000/svg" viewBox="0 0 320 319">
  <g>
    <path d="M304,375H-16V56H304ZM179.26357,181.21618l-.16415-.164c1.05093,1.02233,2.047,2.109,3.16095,3.05739a40.60951,40.60951,0,0,1,.28221,61.90587c-1.182,1.02812-2.3595,2.06148-4.14686,3.62352,15.1268.9249,28.57423-2.90247,42.17286-6.80393-6.49781,9.48777-14.655,16.34172-26.16836,18.19527-3.86556.62232-6.12063,2.04775-5.82921,6.38507a19.88254,19.88254,0,0,1-4.32116,13.96286c-3.55551,4.50233-6.22556,10.19088-13.83653,11.28253,3.7132-13.22145,8.51435-25.626,7.29015-40.27589-9.70086,10.7554-20.4673,17.2999-34.13783,16.99454-13.35336-.29828-24.87663-5.02414-33.34134-16.29828-.33311,14.26781,2.75755,27.58308,7.67616,40.71362-7.13309-2.67542-11.17709-8.11006-14.85532-13.82151-3.91878-6.085-5.35052-6.83668-12.89252-5.66717,6.58335,21.45657,35.454,41.15929,60.50446,37.36959,22.842-3.45562,38.49906-15.88659,47.88081-36.80266a10.47812,10.47812,0,0,1,5.10278-4.71924c19.78061-8.52422,32.2763-22.92811,36.49226-44.23835.43582-2.203,1.01715-4.37727,1.53092-6.56486l1.22736-.56418c2.67671,9.48224,7.93418,16.61029,17.24382,19.75762,9.55755,3.23113,18.18037,1.18448,25.3756-5.74191a24.14361,24.14361,0,0,0-.552-35.23035,24.57576,24.57576,0,0,0-19.243-6.68c-12.75542,1.0444-19.34592,9.344-23.45917,20.73062a11.77779,11.77779,0,0,1-1.49331-3.98324c-3.92367-22.47514-16.38584-38.08877-37.36782-47.10008a10.083,10.083,0,0,1-4.5749-5.19229c-10.28358-25.30417-38.096-41.646-63.32186-37.21557-13.6996,2.40606-25.66552,7.99007-35.1925,18.25394-5.76583,6.2118-10.35328,13.16-12.62625,21.743l11.91285-.69329c11.49113-16.80146,11.49113-16.80146,16.57808-18.50635-1.9315,6.78658-4.3639,13.47973-5.65205,20.3863-1.26034,6.75751-1.35433,13.73256-1.96028,20.61213l1.55381.20443c.41174-.492.84145-.9702,1.23264-1.47807,17.37667-22.55939,50.1193-20.80217,64.84425.392C176.86186,180.01352,178.22305,180.50346,179.26357,181.21618ZM143.12047,66.01285c-13.21083.06-24.77234,11.66062-24.827,24.911-.05577,13.51571,12.48846,25.73847,26.14471,25.47471,12.72779-.24582,24.4372-12.33732,24.33264-25.12665A25.84726,25.84726,0,0,0,143.12047,66.01285Zm1.3185,297.56063c11.92134.0463,23.8813-11.33507,24.06124-22.89721.18824-12.09734-13.00981-25.82618-25.08687-25.15035-12.86468.72-23.56956,10.63834-23.64561,23.36724C119.68284,353.10391,130.87025,362.09525,144.439,363.57348Z" transform="translate(16 -56)" style="fill: #fff"/>
    <path d="M179.26357,181.21618c-1.04052-.71272-2.40171-1.20266-3.07441-2.17093-14.72495-21.19419-47.46758-22.95141-64.84425-.392-.39119.50787-.8209.986-1.23264,1.47807l-1.55381-.20443c.606-6.87957.69994-13.85462,1.96028-20.61213,1.28815-6.90657,3.72055-13.59972,5.65162-20.38642-5.08652,1.705-5.08652,1.705-16.57765,18.50647l-11.91285.69329c2.273-8.58292,6.86042-15.53116,12.62625-21.743,9.527-10.26387,21.4929-15.84788,35.1925-18.25394,25.22581-4.4304,53.03828,11.9114,63.32186,37.21557a10.083,10.083,0,0,0,4.5749,5.19229c20.982,9.01131,33.44415,24.62494,37.36782,47.10008a11.77779,11.77779,0,0,0,1.49331,3.98324c4.11325-11.38667,10.70375-19.68622,23.45917-20.73062a24.57576,24.57576,0,0,1,19.243,6.68,24.14361,24.14361,0,0,1,.552,35.23035c-7.19523,6.92639-15.818,8.973-25.3756,5.74191-9.30964-3.14733-14.56711-10.27538-17.24382-19.75762l-1.22736.56418c-.51377,2.18759-1.0951,4.36184-1.53092,6.56486-4.216,21.31024-16.71165,35.71413-36.49226,44.23835a10.47812,10.47812,0,0,0-5.10278,4.71924c-9.38175,20.91607-25.03881,33.347-47.88081,36.80266-25.05041,3.7897-53.92111-15.913-60.50446-37.36959,7.542-1.16951,8.97374-.41779,12.89252,5.66717,3.67823,5.71145,7.72223,11.14609,14.85532,13.82151-4.91861-13.13054-8.00927-26.44581-7.67616-40.71362,8.46471,11.27414,19.988,16,33.34134,16.29828,13.67053.30536,24.437-6.23914,34.13783-16.99454,1.2242,14.64992-3.577,27.05444-7.29015,40.27589,7.611-1.09165,10.281-6.7802,13.83653-11.28253a19.88254,19.88254,0,0,0,4.32116-13.96286c-.29142-4.33732,1.96365-5.76275,5.82921-6.38507,11.51335-1.85355,19.67055-8.7075,26.16836-18.19527-13.59863,3.90146-27.04606,7.72883-42.17286,6.80393,1.78736-1.562,2.96483-2.5954,4.14686-3.62352a40.60951,40.60951,0,0,0-.28221-61.90587c-1.1139-.94836-2.11-2.03506-3.16593-3.06135a105.40293,105.40293,0,0,1,42.55711,8.80826c-2.63711-9.31312-16.948-19.95121-25.81062-19.5643-3.83963.16763-6.55086-1.2-6.7671-4.769-.63735-10.519-6.86762-17.70519-13.7263-24.60674-1.299-1.30707-2.97688-2.2375-5.616-4.17628,2.12678,6.47467,4.29793,11.35475,5.284,16.46357C176.8038,162.46937,177.88639,171.87121,179.26357,181.21618Z" transform="translate(16 -56)"/>
    <path d="M143.12047,66.01285a25.84726,25.84726,0,0,1,25.65035,25.25906c.10456,12.78933-11.60485,24.88083-24.33264,25.12665-13.65625.26376-26.20048-11.959-26.14471-25.47471C118.34813,77.67347,129.90964,66.07285,143.12047,66.01285Z" transform="translate(16 -56)"/>
    <path d="M144.439,363.57348c-13.56872-1.47823-24.75613-10.46957-24.67124-24.68032.076-12.7289,10.78093-22.64728,23.64561-23.36724,12.07706-.67583,25.27511,13.053,25.08687,25.15035C168.32027,352.23841,156.36031,363.61978,144.439,363.57348Z" transform="translate(16 -56)"/>
    <path d="M179.26357,181.21618c-1.37718-9.345-2.45977-18.74681-4.24807-28.01243-.986-5.10882-3.15718-9.9889-5.284-16.46357,2.63911,1.93878,4.317,2.86921,5.616,4.17628,6.85868,6.90155,13.08895,14.08777,13.7263,24.60674.21624,3.56894,2.92747,4.93661,6.7671,4.769,8.86265-.38691,23.17351,10.25118,25.81062,19.5643a105.40293,105.40293,0,0,0-42.55711-8.80826C179.09942,181.05218,179.26357,181.21618,179.26357,181.21618Z" transform="translate(16 -56)" style="fill: #fff"/>
  </g>
</svg>
