<svg id="Layer_1" data-name="Layer 1" xmlns="http://www.w3.org/2000/svg" viewBox="0 0 128 128">
  <g>
    <path d="M80,280V152H208V280Zm83.95387-4.33832c2.99151-.15322,5.99366-.1958,8.97232-.48242,6.41594-.61737,9.47336-4.065,9.21056-10.591-.14707-3.65214-.66294-7.29391-1.1092-10.9285-.71969-5.86147-4.01-8.86577-9.886-9.14257-4.15382-.19568-8.5145.34388-12.41278-.75615-5.72252-1.61479-9.28828.26907-12.20861,4.84751-.802,1.25742-1.89777,2.32346-2.77166,3.5399-1.99116,2.77164-4.53841,3.47417-7.33319,1.547-6.28059-4.33083-12.86354-8.3631-18.53551-13.40352-8.3158-7.3899-8.13633-8.078-1.11741-16.43347,3.26443-3.886,3.95284-7.63254,1.84552-12.37976-1.66853-3.75875-2.50838-7.90674-3.517-11.93181-1.35366-5.40193-4.86164-8.21768-10.45416-7.85036-3.48539.22891-6.95113.757-10.42564,1.15125-8.155.92537-11.32309,5.18215-9.921,13.32978A83.727,83.727,0,0,0,163.95387,275.66168ZM150.509,236.17375c6.1521,0,12.30574-.08078,18.45563.03593,2.84318.054,4.30079-.7452,4.2561-3.91662-.1312-9.30942.17733-18.62941-.12567-27.93095-.37949-11.64976-10.46115-20.59051-22.6551-20.544-12.01383.04585-22.10876,9.30231-22.39754,20.88426-.22788,9.13936.03743,18.29014-.09574,27.43323-.04453,3.05747,1.1352,4.135,4.10676,4.07491C138.203,236.08613,144.35684,236.173,150.509,236.17375Zm45.15716-23.68915,0-.02168a44.52978,44.52978,0,0,0,6.46428-.09277c1.05637-.15629,1.96888-1.285,2.94646-1.97382-.8459-1.03515-1.63675-2.90411-2.547-2.96423a105.26792,105.26792,0,0,0-13.41537.02984c-.87611.05422-1.65689,1.64845-2.48164,2.53243,1.01766.83007,1.93459,2.14407,3.07558,2.38154A29.72707,29.72707,0,0,0,195.66611,212.4846Zm-82.87766-39.811c.49843,1.76141.48621,2.37088.7849,2.67412,3.46789,3.52078,6.91543,7.06915,10.5643,10.39527.49507.45128,2.65742.06361,2.992-.53034.50656-.89922.583-2.76394-.02466-3.44509a92.2872,92.2872,0,0,0-9.47183-9.41792C116.78988,171.64353,114.63341,172.50573,112.78845,172.6736Zm64.38885,13.85516c1.50492-.52576,2.28751-.56986,2.70884-.98268,3.32912-3.26179,6.67381-6.51783,9.78966-9.97742a3.22258,3.22258,0,0,0-.15186-3.15233c-.56383-.62946-2.583-.94867-3.0954-.47146a141.353,141.353,0,0,0-10.405,10.659C175.56036,183.13686,176.71885,185.07907,177.1773,186.52876Zm-23.03837-20.48964.01968,0a45.54369,45.54369,0,0,0-.09105-6.44761c-.1492-1.035-1.258-1.93178-1.9326-2.89111-1.024.84415-2.87208,1.63347-2.93253,2.54174a105.797,105.797,0,0,0,.01554,13.39536c.05184.85617,1.62075,2.17875,2.56112,2.243.72894.04984,2.0935-1.44037,2.25237-2.399A39.80388,39.80388,0,0,0,154.13893,166.03912Z" transform="translate(-80 -152)" style="fill: #fff"/>
    <path d="M163.95387,275.66168a83.727,83.727,0,0,1-79.66376-69.48416c-1.40208-8.14763,1.766-12.40441,9.921-13.32978,3.47451-.39427,6.94025-.92234,10.42564-1.15125,5.59252-.36732,9.1005,2.44843,10.45416,7.85036,1.00863,4.02507,1.84848,8.17306,3.517,11.93181,2.10732,4.74722,1.41891,8.49372-1.84552,12.37976-7.01892,8.35543-7.19839,9.04357,1.11741,16.43347,5.672,5.04042,12.25492,9.07269,18.53551,13.40352,2.79478,1.92717,5.342,1.22464,7.33319-1.547.87389-1.21644,1.96963-2.28248,2.77166-3.5399,2.92033-4.57844,6.48609-6.4623,12.20861-4.84751,3.89828,1.1,8.259.56047,12.41278.75615,5.876.2768,9.16629,3.2811,9.886,9.14257.44626,3.63459.96213,7.27636,1.1092,10.9285.2628,6.52609-2.79462,9.97367-9.21056,10.591C169.94753,275.46588,166.94538,275.50846,163.95387,275.66168Zm.92444-5.57328q3.24951,0,6.499-.00035c3.56544-.00317,6.5022-1.68867,5.44066-5.2937-1.48467-5.042,2.59173-12.34758-5.47965-14.86105-1.21891-.37958-2.65456-.01812-3.98425-.09634-2.822-.166-5.71923-.05325-8.44091-.6816-3.86872-.89317-6.74691-.24091-8.72178,3.42111a19.07168,19.07168,0,0,1-2.46348,3.14339c-3.94054,4.60573-8.32943,6.11266-13.23746,2.86605-8.13579-5.38175-16.24581-11.05337-23.32664-17.70932-7.26962-6.83343-6.93021-10.81341-.17131-18.3629,3.1731-3.54425,4.38912-6.772,1.87183-11.01488a13.50521,13.50521,0,0,1-.98161-2.82146c-4.108-12.89765-4.10648-12.89515-17.69778-10.61826-3.78179.63354-5.3718,2.54641-4.75516,6.61108C94.97772,241.24054,127.81225,269.81107,164.87831,270.0884Z" transform="translate(-80 -152)"/>
    <path d="M150.509,236.17339c-6.15211-.00036-12.306-.08726-18.45556.03716-2.97156.06012-4.15129-1.01744-4.10676-4.07491.13317-9.14309-.13214-18.29387.09574-27.43323.28878-11.58195,10.38371-20.83841,22.39754-20.88426,12.194-.04655,22.27561,8.8942,22.6551,20.544.303,9.30154-.00553,18.62153.12567,27.93095.04469,3.17142-1.41292,3.97058-4.2561,3.91662C162.81469,236.093,156.66105,236.17375,150.509,236.17339Zm17.50233-5.30724c0-2.12037.003-3.75768-.00052-5.395-.0152-6.99664.27357-14.01094-.129-20.9853-.46584-8.071-7.75872-14.92314-15.76532-15.48678-8.66381-.6099-17.06014,4.57393-18.06322,13.06688-1.114,9.43243-.255,19.09789-.255,28.80018Z" transform="translate(-80 -152)"/>
    <path d="M195.66611,212.4846a29.72707,29.72707,0,0,1-5.95771-.10869c-1.141-.23747-2.05792-1.55147-3.07558-2.38154.82475-.884,1.60553-2.47821,2.48164-2.53243a105.26792,105.26792,0,0,1,13.41537-.02984c.9103.06012,1.70115,1.92908,2.547,2.96423-.97757.68886-1.89008,1.81753-2.94645,1.97382a44.52978,44.52978,0,0,1-6.46428.09277Z" transform="translate(-80 -152)"/>
    <path d="M112.78845,172.6736c1.845-.16787,4.00143-1.03007,4.84473-.324a92.2872,92.2872,0,0,1,9.47183,9.41792c.60766.68115.53122,2.54587.02466,3.44509-.3346.594-2.49695.98162-2.992.53034-3.64887-3.32612-7.09641-6.87449-10.5643-10.39527C113.27466,175.04448,113.28688,174.435,112.78845,172.6736Z" transform="translate(-80 -152)"/>
    <path d="M177.1773,186.52876c-.45845-1.44969-1.61694-3.3919-1.15379-3.92487a141.353,141.353,0,0,1,10.405-10.659c.51245-.47721,2.53157-.158,3.0954.47146a3.22258,3.22258,0,0,1,.15186,3.15233c-3.11585,3.45959-6.46054,6.71563-9.78966,9.97742C179.46481,185.9589,178.68222,186.003,177.1773,186.52876Z" transform="translate(-80 -152)"/>
    <path d="M154.13893,166.03912a39.80388,39.80388,0,0,1-.10747,6.44241c-.15887.95862-1.52343,2.44883-2.25237,2.399-.94037-.06429-2.50928-1.38687-2.56112-2.243a105.797,105.797,0,0,1-.01554-13.39536c.06045-.90827,1.90851-1.69759,2.93253-2.54174.67455.95933,1.7834,1.85606,1.9326,2.89111a45.54369,45.54369,0,0,1,.09105,6.44761Z" transform="translate(-80 -152)"/>
    <path d="M164.87831,270.0884c-37.06606-.27733-69.90059-28.84786-75.44854-65.41823-.61664-4.06467.97337-5.97754,4.75516-6.61108,13.5913-2.27689,13.58976-2.27939,17.69778,10.61826a13.50521,13.50521,0,0,0,.98161,2.82146c2.51729,4.24292,1.30127,7.47063-1.87183,11.01488-6.7589,7.54949-7.09831,11.52947.17131,18.3629,7.08083,6.656,15.19085,12.32757,23.32664,17.70932,4.908,3.24661,9.29692,1.73968,13.23746-2.86605a19.07168,19.07168,0,0,0,2.46348-3.14339c1.97487-3.662,4.85306-4.31428,8.72178-3.42111,2.72168.62835,5.619.51559,8.44091.6816,1.32969.07822,2.76534-.28324,3.98425.09634,8.07138,2.51347,3.995,9.81908,5.47965,14.86105,1.06154,3.605-1.87522,5.29053-5.44066,5.2937Q168.1278,270.09095,164.87831,270.0884Z" transform="translate(-80 -152)" style="fill: #fff"/>
    <path d="M168.01128,230.86615h-34.213c0-9.70229-.85907-19.36775.255-28.80018,1.00308-8.49295,9.39941-13.67678,18.06322-13.06688,8.0066.56364,15.29948,7.41574,15.76532,15.48678.40254,6.97436.11377,13.98866.129,20.9853C168.01432,227.10847,168.01128,228.74578,168.01128,230.86615Zm-29.40493-18.44677c0,1.99386-.321,4.06305.12248,5.95281.2589,1.10312,1.74021,1.91936,2.67156,2.86466.806-1.05433,2.04505-2.009,2.316-3.1865a19.91693,19.91693,0,0,0,.0998-5.46374c-.33774-6.12169.37092-11.4677,8.01051-12.59054.75207-.11054,1.99114-1.83,1.79825-2.379-.35467-1.00928-1.65446-2.43758-2.47586-2.38448a15.27388,15.27388,0,0,0-6.14722,1.625C138.75136,200.23939,138.31369,206.24236,138.60635,212.41938Z" transform="translate(-80 -152)" style="fill: #fff"/>
    <path d="M138.60635,212.41938c-.29266-6.177.145-12.18,6.39553-15.56173a15.27388,15.27388,0,0,1,6.14722-1.625c.8214-.0531,2.12119,1.3752,2.47586,2.38448.19289.54892-1.04618,2.26841-1.79825,2.379-7.63959,1.12284-8.34825,6.46885-8.01051,12.59054a19.91693,19.91693,0,0,1-.0998,5.46374c-.271,1.17747-1.51,2.13217-2.316,3.1865-.93135-.9453-2.41266-1.76154-2.67156-2.86466C138.28532,216.48243,138.60635,214.41324,138.60635,212.41938Z" transform="translate(-80 -152)"/>
  </g>
</svg>
