<svg preserveAspectRatio="xMidYMid meet" viewBox="0 0 256 256" xmlns="http://www.w3.org/2000/svg"><g transform="matrix(.1 0 0 -.1 0 256)"><path d="m14 2434c-13-19-15-32-8-52 8-22 34-37 159-92l150-66 152-740c83-406 159-753 168-770 36-67-11-64 854-64 768 0 781 0 801 20 25 25 25 55 0 80-20 20-33 20-785 20-421 0-765 3-765 8 0 4-9 44-19 89l-19 82 797 3 796 3 33 24c18 13 38 35 43 49 24 63 189 899 184 929-7 41-54 88-96 97-17 3-471 6-1008 6h-976l-23 108c-12 59-30 118-40 132-22 29-311 159-354 160-19 0-33-8-44-26zm2416-517c0-13-139-697-161-790l-11-47-791 2-791 3-83 400c-45 220-85 410-88 423l-5 22h965c783 0 965-2 965-13z"/><path d="m977 1712c-21-23-22-66-1-86 14-14 72-16 493-16 450 0 479 1 494 18 23 25 21 58-3 82-19 19-33 20-493 20-446 0-475-1-490-18z"/><path d="m1026 1384c-22-21-20-67 2-87 17-15 62-17 440-17 409 0 423 1 442 20 25 25 26 62 2 83-17 15-62 17-445 17-374 0-427-2-441-16z"/><path d="m990 529c-86-35-146-131-138-224 7-78 48-141 117-177 98-51 202-31 274 52 94 110 58 273-75 341-41 21-135 25-178 8zm130-124c103-53 33-214-76-178-71 24-90 116-35 165 35 31 68 35 111 13z"/><path d="m1780 529c-86-35-146-131-138-224 13-152 176-249 314-186 57 26 110 92 123 152 31 143-72 270-216 268-32 0-69-5-83-10zm130-124c103-53 33-214-76-178-71 24-90 116-35 165 35 31 68 35 111 13z"/></g></svg>