<svg xmlns="http://www.w3.org/2000/svg" viewBox="0 0 40 30.23"><g data-name="Layer 2"><g><path d="M26.07,0l.06,0A1.11,1.11,0,0,1,27,1.15V7.67l.3.09A4.31,4.31,0,0,1,27.15,16c-.11,0-.14.07-.14.18v6.38a1.11,1.11,0,0,1-1.16,1.15,1.55,1.55,0,0,1-.51-.14l-9.59-4.12-4.63-2a.87.87,0,0,0-.32-.06H10v.21c0,3.57,0,7.15,0,10.72A1.83,1.83,0,0,1,8.76,30.1a4,4,0,0,1-.46.13H4.9l-.05,0a1.84,1.84,0,0,1-1.6-1.93V17.38c-.22,0-.42,0-.62,0a2.68,2.68,0,0,1-2.56-2c0-.11,0-.23-.07-.34V8.38a6.48,6.48,0,0,1,.17-.63A2.67,2.67,0,0,1,2.77,6H10.7a1.32,1.32,0,0,0,.55-.11L25.71,0ZM12.47,7.79a.2.2,0,0,0-.15.22q0,3.69,0,7.38c0,.12,0,.18.14.22l12.15,5.22.15.06V2.78l-.16.06M10.06,8.22H2.79c-.39,0-.55.16-.55.55v5.85c0,.39.17.55.55.55l3.09,0,4,0h.19ZM5.5,17.39V28H7.7V17.39ZM27,13.64a2.07,2.07,0,0,0,1-1.94,2,2,0,0,0-1-1.63Z"/><path d="M40,12c0,.31,0,.61-.09.91a13.26,13.26,0,0,1-1.64,5.13,14.15,14.15,0,0,1-1.83,2.51,1.13,1.13,0,0,1-1.6.1,1.08,1.08,0,0,1-.06-1.58,10.9,10.9,0,0,0,2.56-4.61,11.1,11.1,0,0,0-2.81-10.9,1.37,1.37,0,0,1-.4-.66,1.1,1.1,0,0,1,.55-1.2A1.12,1.12,0,0,1,36,1.9,13.57,13.57,0,0,1,37.72,4,13.17,13.17,0,0,1,39.84,9.4c.06.42.09.84.13,1.26l0,.2Z"/><path d="M35.14,11.5a8.67,8.67,0,0,1-3.31,6.75,1.11,1.11,0,1,1-1.41-1.72,6.25,6.25,0,0,0,2.32-3.75,6.34,6.34,0,0,0-2.66-6.66,1.19,1.19,0,0,1-.57-1,1,1,0,0,1,.6-.94,1.07,1.07,0,0,1,1.15.07A8.37,8.37,0,0,1,33,5.81a8.59,8.59,0,0,1,2,4.57,1.84,1.84,0,0,1,0,.33C35.11,11,35.12,11.21,35.14,11.5Z"/></g></g></svg>