<svg xmlns="http://www.w3.org/2000/svg" viewBox="0 0 40 33.65"><g data-name="Layer 2"><path d="M26.05,7.86v-7a.89.89,0,0,0-.42-.76.9.9,0,0,0-.87,0L12.07,6.49h-10A2.12,2.12,0,0,0,0,8.6v9.71a2.12,2.12,0,0,0,2.11,2.11H3.34V31.53a2.12,2.12,0,0,0,2.12,2.12h2a2.12,2.12,0,0,0,2.11-2.12V20.42h2.52l12.69,6.39a.79.79,0,0,0,.4.1,1,1,0,0,0,.47-.13.91.91,0,0,0,.42-.76V18.89a5.59,5.59,0,0,0,0-11ZM1.78,18.31V8.6a.33.33,0,0,1,.33-.33h9.28V18.64H2.11A.34.34,0,0,1,1.78,18.31Zm6,13.22a.33.33,0,0,1-.33.33h-2a.33.33,0,0,1-.33-.33V20.42H7.77Zm16.5-7L13.17,19v-11l11.1-5.59Zm1.78-7.5V9.67a3.81,3.81,0,0,1,0,7.4Z"/><path d="M35,9.34a.91.91,0,0,0-1.27,0,.9.9,0,0,0,0,1.26,4.09,4.09,0,0,1,0,5.56.9.9,0,0,0,0,1.26.91.91,0,0,0,.63.26A.9.9,0,0,0,35,17.4a5.88,5.88,0,0,0,0-8.06Z"/><path d="M37.57,7.25A.89.89,0,1,0,36.3,8.5a7,7,0,0,1,1.92,4.87,7,7,0,0,1-1.92,4.87.9.9,0,0,0,.64,1.52.86.86,0,0,0,.63-.27,8.92,8.92,0,0,0,0-12.24Z"/></g></svg>