<svg data-name="Layer 1" xmlns="http://www.w3.org/2000/svg" viewBox="0 0 200 200"><path d="M124.46,23.72c-17.71,0-31.66,11.56-45.16,22.75C67.64,56.13,56.62,65.25,44.85,65.25H24.08A18.5,18.5,0,0,0,5.61,83.72V97.57A18.6,18.6,0,0,0,22.92,116v30A18.48,18.48,0,0,0,41.39,164.5h6.92A18.48,18.48,0,0,0,66.78,146V124.94c4.17,3,8.39,6.47,12.54,9.91,13.5,11.17,27.45,22.73,45.15,22.73,16.45,0,28.85-28.77,28.85-66.93S140.92,23.72,124.46,23.72Zm-19.6,66.93c0-15.83,2.3-30.68,6.48-41.82C115.07,38.89,120,33,124.46,33s9.39,5.93,13.12,15.87c4.19,11.14,6.49,26,6.49,41.82s-2.3,30.68-6.49,41.81c-3.73,9.94-8.63,15.87-13.12,15.87s-9.39-5.93-13.12-15.87C107.16,121.33,104.86,106.48,104.86,90.65Zm-60,16.14H24.08a9.24,9.24,0,0,1-9.22-9.22V83.72a9.24,9.24,0,0,1,9.22-9.22H44.85c15.1,0,27.94-10.63,40.36-20.92,6.72-5.56,13.64-11.3,20.91-15.29C99.51,50.72,95.61,70.07,95.61,90.65s3.9,39.92,10.51,52.35c-7.25-4-14.17-9.7-20.88-15.26l0,0-.4.48h0l.39-.49C72.78,117.42,60,106.79,44.85,106.79ZM32.17,116H44.85a28.86,28.86,0,0,1,12.68,3.26V146a9.22,9.22,0,0,1-9.22,9.22H41.39A9.22,9.22,0,0,1,32.17,146Z"/><path d="M164.37,95.34h24.4a4.69,4.69,0,0,0,0-9.38h-24.4a4.69,4.69,0,1,0,0,9.38Z"/><path d="M164.69,52.54a4.85,4.85,0,0,0,1.06-.12l23.77-5.52a4.69,4.69,0,1,0-2.12-9.13l-23.77,5.51a4.69,4.69,0,0,0,1.06,9.26Z"/><path d="M189.52,134.29l-23.77-5.51a4.68,4.68,0,0,0-5,7,4.62,4.62,0,0,0,2.92,2.09l23.77,5.52a4.79,4.79,0,0,0,1.06.12,4.69,4.69,0,0,0,1.06-9.26Z"/></svg>