<svg xmlns="http://www.w3.org/2000/svg" viewBox="0 0 40 31.99"><g data-name="Layer 2"><g><path d="M36.88,4.6H28.44V3.13A3.18,3.18,0,0,0,25.22,0H14.79a3.19,3.19,0,0,0-3.23,3.13V4.6H3.13A3.08,3.08,0,0,0,0,7.63H0V29a3.08,3.08,0,0,0,3.12,3H36.88A3.08,3.08,0,0,0,40,29V7.63A3.07,3.07,0,0,0,36.88,4.6ZM14.28,3.13a.49.49,0,0,1,.5-.48H25.22a.49.49,0,0,1,.5.48V4.6H14.28ZM3.12,7.25H36.88a.4.4,0,0,1,.4.38v7a63,63,0,0,1-34.55,0v-7a.4.4,0,0,1,.39-.38ZM36.88,29.34H3.12a.4.4,0,0,1-.4-.38V17.39a55.65,55.65,0,0,0,14.5,2.2v.63a2,2,0,0,0,2,2h1.48a2,2,0,0,0,2-2V19.6a55.52,55.52,0,0,0,14.49-2.21V29a.4.4,0,0,1-.39.38Z"/></g></g></svg>