<svg data-name="Layer 1" xmlns="http://www.w3.org/2000/svg" viewBox="0 0 200 200"><path d="M149.16,131.84a30.75,30.75,0,0,0,5-16.85,31.23,31.23,0,1,0-12.5,24.94l21.16,21a5.51,5.51,0,0,0,7.88,0,5.54,5.54,0,0,0,0-7.72Zm-6-16.68A20.15,20.15,0,1,1,123,95,20.17,20.17,0,0,1,143.12,115.16Z"/><path d="M154.76,48.7H124.57V36.33a11.44,11.44,0,0,0-11.26-11.58H79.15A11.44,11.44,0,0,0,67.89,36.33V48.7H39.49c-10.59,0-19.2,9-19.2,20.17v77.22c0,11.12,8.61,20.17,19.2,20.17h62a5.76,5.76,0,0,0,5.76-5.76,5.93,5.93,0,0,0-5.92-5.92H39.49c-4.15,0-7.52-3.8-7.52-8.49V68.87c0-4.68,3.37-8.49,7.52-8.49H154.92c4.15,0,7.52,3.81,7.52,8.49V94.76a5.76,5.76,0,0,0,5.76,5.76A5.83,5.83,0,0,0,174,94.76V68.87C174,57.75,165.34,48.7,154.76,48.7ZM112.9,36.5V48.7H79.57V36.5a.22.22,0,0,1,0-.08h33.31A.22.22,0,0,1,112.9,36.5Z"/></svg>