<svg id="Layer_1" data-name="Layer 1" xmlns="http://www.w3.org/2000/svg" viewBox="0 0 128 128">
  <g>
    <path d="M208,280H80q0-64,0-128l128,0Q208,216,208,280ZM143.28181,158.00016q-23.48891,0-46.97778.00784-12.26464.02112-12.29341,12.285-.04019,43.22952-.00248,86.4591c.00588,8.24395,3.89875,12.65129,11.98245,12.68687q46.97683.20681,93.955.00409c8.11054-.034,12.03927-4.42035,12.04559-12.62711q.03327-43.22953-.001-86.45911c-.007-8.21062-4.104-12.33276-12.23039-12.34813Q166.52089,157.96471,143.28181,158.00016Z" transform="translate(-80 -152)" style="fill: #fff"/>
    <path d="M143.28181,158.00016q23.239,0,46.478.00852c8.12635.01537,12.22335,4.13751,12.23039,12.34813q.0371,43.22954.001,86.45911c-.00632,8.20676-3.935,12.59314-12.04559,12.62711q-46.97692.1968-93.955-.00409c-8.0837-.03558-11.97657-4.44292-11.98245-12.68687q-.03084-43.22953.00248-86.4591Q84.022,158.01379,96.304,158.008,119.79285,157.96755,143.28181,158.00016Zm-.36816,5.16742q-22.48183,0-44.96366.00407c-7.08579.00631-8.77443,1.70126-8.77752,8.85291q-.01794,41.4665-.00141,82.933c.00242,7.59409,1.54041,9.19792,8.949,9.20226q44.96364.02638,89.92731-.00128c7.16156-.00484,8.77618-1.65455,8.77963-8.86873q.01995-41.71629-.00086-83.43256c-.00384-7.01263-1.74406-8.68166-8.94879-8.68659Q165.39549,163.15528,142.91365,163.16758Z" transform="translate(-80 -152)"/>
    <path d="M142.91365,163.16758q22.48182,0,44.96366.00309c7.20473.00493,8.945,1.674,8.94879,8.68659q.02283,41.71626.00086,83.43256c-.00345,7.21418-1.61807,8.86389-8.77963,8.86873q-44.96364.03035-89.92731.00128c-7.40855-.00434-8.94654-1.60817-8.949-9.20226q-.01323-41.46649.00141-82.933c.00309-7.15165,1.69173-8.8466,8.77752-8.85291Q120.4318,163.15163,142.91365,163.16758Zm-16.74436,43.2296c0,7.32288-.18382,14.65335.11817,21.96375.08457,2.04709,1.09955,4.76658,2.62387,5.80987,1.14139.78121,4.13425-.107,5.70281-1.15222,10.93118-7.284,21.73658-14.75886,32.5153-22.26867,4.28056-2.98239,4.23663-5.9306-.08442-8.93178-10.78984-7.49409-21.587-14.98112-32.52568-22.25358-1.569-1.0431-4.41486-1.77245-5.80453-1.02919-1.40734.7527-2.36584,3.49044-2.43461,5.39787C126.01056,191.41282,126.16992,198.90787,126.16929,206.39718Zm34.76016,51.60144c7.81881,0,15.64244.14222,23.45231-.122,1.53178-.05182,3.01036-1.676,4.51349-2.575-1.38862-.82182-2.76976-2.34343-4.167-2.35838q-23.70325-.25359-47.40973-.00408c-1.41514.01466-2.81526,1.48055-4.22235,2.27246,1.459.92892,2.892,2.60954,4.38119,2.66088C145.28688,258.14174,153.11064,257.9984,160.92945,257.99862Zm-43.89073-.0887c1.22358,3.27527,4.1644,5.67124,8.81587,4.72977,3.6768-.7442,6.30078-3.551,5.70078-7.08384-.4501-2.65022-2.63048-6.106-4.94815-7.1119-4.90036-2.12678-8.32745,1.0221-9.74116,4.44731-5.71968,0-10.65507-.09338-15.57983.09336-.806.03055-2.27526,1.39921-2.19232,1.96766.15417,1.05656,1.18607,2.79062,1.92232,2.8269C106.06844,258.02815,111.13876,257.90992,117.03872,257.90992Z" transform="translate(-80 -152)" style="fill: #fff"/>
    <path d="M126.1696,206.39718c.00032-7.48931-.159-14.98436.1106-22.46395.06877-1.90743,1.02727-4.64517,2.43461-5.39787,1.38967-.74326,4.23557-.01391,5.80453,1.02919,10.93873,7.27246,21.73584,14.75949,32.52568,22.25358,4.32105,3.00118,4.365,5.94939.08442,8.93178-10.77872,7.50981-21.58412,14.98463-32.5153,22.26867-1.56856,1.04521-4.56142,1.93343-5.70281,1.15222-1.52432-1.04329-2.5393-3.76278-2.62387-5.80987C125.98547,221.05053,126.16929,213.72006,126.1696,206.39718Zm38.03531-.07-32.30348-22.21609v44.3668Z" transform="translate(-80 -152)"/>
    <path d="M160.92945,257.99851c-7.81881-.00011-15.64257.14323-23.4521-.126-1.4892-.05134-2.92224-1.732-4.38119-2.66088,1.40709-.79191,2.80721-2.2578,4.22235-2.27246q23.70344-.24532,47.40973.00408c1.39725.01495,2.77839,1.53656,4.167,2.35838-1.50313.899-2.98171,2.52315-4.51349,2.575C176.57189,258.14084,168.74826,257.99862,160.92945,257.99851Z" transform="translate(-80 -152)"/>
    <path d="M117.03872,257.90992c-5.9,0-10.97028.11823-16.02249-.13074-.73625-.03628-1.76815-1.77034-1.92232-2.8269-.08294-.56845,1.38635-1.93711,2.19232-1.96766,4.92476-.18674,9.86015-.09336,15.57983-.09336,1.41371-3.42521,4.8408-6.57409,9.74116-4.44731,2.31767,1.00588,4.498,4.46168,4.94815,7.1119.6,3.53285-2.024,6.33964-5.70078,7.08384C121.20312,263.58116,118.2623,261.18519,117.03872,257.90992Z" transform="translate(-80 -152)"/>
    <path d="M164.20491,206.32716l-32.30348,22.15071v-44.3668Z" transform="translate(-80 -152)" style="fill: #fff"/>
  </g>
</svg>
