<svg preserveAspectRatio="xMidYMid meet" viewBox="0 0 128 128" xmlns="http://www.w3.org/2000/svg"><g transform="matrix(.1 0 0 -.1 0 128)"><path d="m115 1241c-11-5-29-19-40-31-19-22-20-36-20-566v-544l28-27 27-28h530 530l27 28 28 27v545 545l-28 27-27 28-518 2c-284 1-526-2-537-6zm1043-63c17-17 17-1049 0-1066s-1019-17-1036 0-17 1049 0 1066 1019 17 1036 0z"/><path d="m480 970c-7-14-10-106-8-276 3-269 5-281 50-270 9 2 100 61 203 132 166 114 186 131 183 153-2 20-40 50-188 153-102 70-195 127-207 128-12 0-27-9-33-20zm211-151c88-61 157-115 152-119-25-22-306-210-314-210-5 0-9 91-9 220 0 121 2 220 5 220s77-50 166-111z"/><path d="m402 270c-32-30-30-82 4-109 15-12 33-21 40-21 28 0 63 24 74 49 30 73-61 134-118 81zm71-44c8-20-20-43-35-28-14 14-3 42 16 42 7 0 16-6 19-14z"/><path d="m202 218c3-22 7-23 83-23 73 0 80 2 80 20s-8 20-83 23c-82 3-83 2-80-20z"/><path d="m543 224c-3-8-1-20 4-25s118-8 279-7c261 3 269 4 269 23s-8 20-273 23c-241 2-273 0-279-14z"/></g></svg>