<svg xmlns="http://www.w3.org/2000/svg" viewBox="0 0 40 29.09"><g data-name="Layer 2"><g><path d="M18.8,29.09c-1.87-.06-4.92-.11-8-.24-1.58-.07-3.16-.23-4.73-.4a5.92,5.92,0,0,1-4.5-2.65,7,7,0,0,1-1-2.73,37.23,37.23,0,0,1-.49-4.71C0,16.39,0,14.42,0,12.44A46.26,46.26,0,0,1,.61,6a6.67,6.67,0,0,1,1.3-3.14A5.93,5.93,0,0,1,5.83.66,49.86,49.86,0,0,1,11.28.2C14.86,0,18.44,0,22,0c2.37,0,4.73.11,7.1.2a43.81,43.81,0,0,1,5,.43,6,6,0,0,1,5.2,4.95,30.27,30.27,0,0,1,.49,3.91c.15,2,.23,4,.19,6a55.66,55.66,0,0,1-.37,5.92,15.71,15.71,0,0,1-.52,2.75,5.71,5.71,0,0,1-4.7,4.16,31.3,31.3,0,0,1-4.1.42C26.86,29,23.42,29.05,18.8,29.09Zm-.11-2.32c4.92,0,8.53-.07,12.14-.33a29.38,29.38,0,0,0,3.25-.37,3.45,3.45,0,0,0,2.9-2.7,13.35,13.35,0,0,0,.32-1.65,47.2,47.2,0,0,0,.4-6.06c0-1.71-.05-3.42-.11-5.13a29.08,29.08,0,0,0-.49-4.37,4.11,4.11,0,0,0-1-2.14A3.84,3.84,0,0,0,33.6,2.91c-1.62-.15-3.25-.33-4.87-.4q-4.25-.17-8.5-.19c-3.48,0-7,0-10.45.27A38.25,38.25,0,0,0,5.92,3,3.43,3.43,0,0,0,3,5.7,15.46,15.46,0,0,0,2.7,7.35a46.47,46.47,0,0,0-.4,6.12c0,1.65.05,3.3.11,5a29.17,29.17,0,0,0,.45,4.27,4.45,4.45,0,0,0,.82,2.07,3.74,3.74,0,0,0,2.72,1.4c1.62.16,3.23.33,4.85.4C14.16,26.68,17.08,26.73,18.69,26.77Z"/><path d="M15.09,14.54V9a1.83,1.83,0,0,1,0-.47,1.12,1.12,0,0,1,1.69-.68c1.27.73,2.52,1.47,3.78,2.21l5.95,3.48A1.13,1.13,0,0,1,27.06,15a1.3,1.3,0,0,1-.48.53q-4.87,2.88-9.77,5.73a1.12,1.12,0,0,1-1.71-.91,2.81,2.81,0,0,1,0-.29Zm8.66,0-6.37-3.73v7.45Z"/></g></g></svg>