<svg id="acf73f60-e533-494f-ada5-63f990099564" data-name="Layer 1" xmlns="http://www.w3.org/2000/svg" viewBox="0 0 118.02222 122.58236"><path d="M116.03214,163.59009c-.07975-4.90593,1.701-7.68141,7.01654-7.65358,7.87325.04122,8.46021.27657,10.092,7.896h23.48191c2.39616-7.96092,3.08383-8.30353,11.33617-7.87035,4.9836.26159,5.90954,3.47059,6.07831,8.03805,5.99205,0,11.92952-.028,17.86662.00691,7.84023.046,12.07122,4.1887,12.08169,12.00147.03688,27.49777.06939,54.996-.09974,82.49275-.01234,2.00635-1.32469,4.23948-2.58355,5.96532-8.24769,11.3073-19.19531,14.59191-33.21394,13.86041-23.10193-1.20548-46.3126-.31693-69.47743-.33251-8.51542-.00572-12.59666-4.03619-12.60254-12.498q-.0309-44.49639,0-88.99283c.00589-8.46953,4.07592-12.46766,12.59292-12.50244,5.3325-.02177,10.66507-.0273,15.99751-.05682A8.44389,8.44389,0,0,0,116.03214,163.59009Zm82.54856,32.4055H91.168v4.41354q-.00009,31.99308.00842,63.98613c.00721,6.65776,1.85907,8.42974,8.7078,8.43273q37.99176.01657,75.98353-.00506c1.6174-.00086,3.23472-.137,5.30058-.23052,0-4.67868.17492-8.98674-.0508-13.2737-.2118-4.02272,1.13418-5.86318,5.41132-5.547,3.92147.28985,7.88123.06154,12.05185.06154Zm-82.5745-26.809c-6.648,0-12.7955-.10917-18.93656.04218a5.55655,5.55655,0,0,0-5.79828,5.68981c-.25254,4.94426-.06477,9.911-.06477,15.21774h107.586c0-5.30666.47135-10.33107-.222-15.18926-.29513-2.068-2.88223-5.22819-4.67718-5.40845-6.51893-.65468-13.14343-.25823-19.62821-.25823-.98072,7.39038-1.9127,8.42982-7.2039,8.55128-8.3364.19137-8.51593.041-10.14856-8.652H133.09413c-1.65106,8.68376-1.84544,8.625-10.15993,8.72666C117.08626,177.97785,115.991,174.49828,116.0062,169.18659Zm70.81105,101.66773,12.322-11.55963h-12.322Zm-64.54743-109.4104c-2.14643,9.38972-1.1948,11.50814,4.54349,10.2874v-10.2874Zm40.85246.01087v10.61085H168.06V161.45479Z" transform="translate(-85.99268 -155.84181)"/><path d="M135.29458,241.31389c6.18757-6.266,11.52439-11.69217,16.88648-17.09321,3.7469-3.77411,7.417-7.639,11.38228-11.17036.86115-.76691,2.8363-.28294,4.29837-.3751-.23621,1.337.00276,3.13842-.781,3.94037-9.52585,9.74734-19.13748,19.41471-28.94732,28.8742-.9044.8721-3.93329.90808-4.92591.07759a95.34706,95.34706,0,0,1-10.23936-10.17748c-.81641-.927-.48629-2.86372-.68289-4.33658,1.45672.15968,3.435-.22639,4.27609.57745C129.53983,234.4773,132.12968,237.73048,135.29458,241.31389Z" transform="translate(-85.99268 -155.84181)"/></svg>