<svg id="a37423ec-84b7-469c-858e-46ed2ed38896" data-name="Layer 1" xmlns="http://www.w3.org/2000/svg" viewBox="0 0 109.87271 108.20708"><path d="M90.37143,257.64747c.59738-2.02142.579-4.979,1.89194-5.79525,3.062-1.9037,1.86169-4.2414,1.54723-6.43533-.63485-4.42939-1.62981-8.80587-2.3961-13.21808-.75114-4.32494-.00808-8.31606,3.10654-11.602,3.54729-3.74243,6.97588-7.62912,10.81089-11.056a9.67829,9.67829,0,0,0,3.63153-8.16351c-.21595-9.155-.102-18.3186-.05885-27.47849.018-3.81913.08785-3.90007,3.84711-3.9048q32.72646-.04111,65.453.00026c3.77718.00486,3.84973.08752,3.86783,3.90253.04424,9.32643.18125,18.65777-.07367,27.97743a9.29886,9.29886,0,0,0,3.43462,7.73664c3.54634,3.26215,6.895,6.74863,10.20532,10.25526,3.26424,3.45779,4.76115,7.432,3.59891,12.32879a101.45726,101.45726,0,0,0-2.07521,12.25652c-.29268,2.64632-2.17959,5.59822,1.55792,7.86416,1.156.70082,1.03132,3.51391,1.52371,5.48271-.951.04278-1.4739.18259-1.55247.053-2.6157-4.31421-2.612-4.32571-7.50181-2.71764-4.88921,1.60788-9.74679,3.31879-14.6715,4.80847-1.92643.58273-2.21906,1.41626-1.58944,3.22055.89859,2.575,1.51007,5.2503,2.28829,8.04093-.95957,0-1.50679.08433-1.5408-.01217-1.30353-3.6997-4.16368-3.87815-7.53939-3.84587q-22.48181.215-44.96654.00107c-3.60755-.03493-6.88926-.1363-8.21149,4.71751-2.00879-3.02651-.2366-5.04975.30847-7.05157,1.18718-4.36008,1.3152-4.35767-3.16671-5.82437-4.41675-1.44537-8.8534-2.83028-13.28626-4.226-3.94751-1.24292-3.94423-1.22955-6.19982,2.4103a1.338,1.338,0,0,1-.773.54283A5.33687,5.33687,0,0,1,90.37143,257.64747Zm88.45748-30.7124.9289.04067c.04961-.82115.1412-1.64224.1426-2.46346q.04046-23.73537.05589-47.47076c.00072-4.85317-.03227-4.88322-4.96112-4.88644q-29.483-.01923-58.96606-.00013c-4.95214.00315-4.98052.03239-4.98625,4.86228q-.02758,23.23656-.00885,46.47315c.00062,1.04671.13385,2.09335.2054,3.14a14.40513,14.40513,0,0,0,1.71266-5.16644,27.3053,27.3053,0,0,1,1.12717-4.29424c1.059-2.71219,3.25557-3.63662,6.02566-3.35871a4.99846,4.99846,0,0,1,4.67679,4.49075,31.37633,31.37633,0,0,1-.16842,7.433c-.25482,2.64088-1.224,5.27462-1.11071,7.878.38088,8.75605-.93357,16.90239-7.87989,23.83079,5.03966,1.4366,2.63384,4.73377,2.54522,7.3958H172.215c.137-2.221-.463-4.85387.5184-5.74477,1.8494-1.67886,1.1648-2.69622.29681-4.18744-1.74752-3.00229-4.45756-5.88458-4.94575-9.09394-1.27-8.3488-1.70134-16.8395-2.16723-25.29013-.22884-4.15084,1.46065-6.20951,4.485-6.6867,3.43379-.54179,5.66232.9554,6.80638,4.985C177.9594,221.46606,178.303,224.22646,178.82891,226.93507Zm-69.94739-16.13174-1.11965-.56183q-5.76758,6-11.53427,12.00076a9.5646,9.5646,0,0,0-2.5588,8.27015c.49969,3.77569,1.024,7.553,1.70818,11.29849,2.04377,11.1876,2.07642,11.18117,13.12991,13.81574.322.07676.66423.32217.94718.26045.76018-.16584,1.89357-.231,2.17453-.7315,2.49235-4.43979,5.68026-8.73975,6.95573-13.535,1.07639-4.04682,1.21615-8.35116,2.749-12.4607a27.22973,27.22973,0,0,0,1.261-9.73618c-.01623-1.14949-1.869-3.05037-3.04159-3.18043-1.10074-.1221-2.73826,1.4253-3.53415,2.63607-.762,1.15921-.77725,2.82406-1.06254,4.27809-.35053,1.78649-.50451,3.62276-.99087,5.36858-.63335,2.27342-1.80437,4.16555-5.08362,4.64107Zm73.04367,22.85287c-4.38652-1.77691-5.28726-4.66933-5.80262-7.87668a36.13,36.13,0,0,0-1.51021-7.2681c-.42236-1.09531-2.38208-2.52326-3.25945-2.29782a4.98555,4.98555,0,0,0-3.117,3.15315,15.18619,15.18619,0,0,0,.38218,6.38014c.85419,3.52032,3.13187,6.997,2.964,10.40086-.35173,7.13175,3.20539,12.32747,6.66157,17.8,1.02523,1.62335,2.01672,2.43836,4.02169,1.70485,2.96025-1.083,5.99627-1.95849,8.99806-2.92843a3.793,3.793,0,0,0,2.82854-3.58363c.46226-3.78741,1.32677-7.52362,1.9185-11.29769,1.9002-12.11941,3.35475-11.01063-7.61254-22.21539-1.76233-1.80049-3.68727-3.4418-5.537-5.1567l-.93569.6199Z" transform="translate(-90.37143 -163.85707)"/><path d="M126.26484,164.77637c5.77494-1.35,34.248-1.12395,37.54864.09781C160.77327,166.43514,131.26678,166.602,126.26484,164.77637Z" transform="translate(-90.37143 -163.85707)"/><path d="M116.08888,194.73922c0-4.78574-.10937-9.576.08666-14.35368a4.123,4.123,0,0,1,1.8934-2.8935c.60149-.33659,2.207.28354,2.8304.96351,3.324,3.62579,6.48,7.40551,10.42041,11.97394-2.17813,0-3.60261.3777-4.6853-.07041-3.32516-1.37623-5.27023-.69485-6.73568,2.43025-.49643,1.05866-1.67581,1.79706-2.54309,2.68181Z" transform="translate(-90.37143 -163.85707)"/><path d="M131.39519,228.84227c9.54513-.72887,18.20653-.27565,28.03455-.3921-1.22027,1.35653-1.64051,2.23184-2.06293,2.2329-8.13.02031-16.26029-.05659-24.39009-.15184C132.761,230.5287,132.55023,230.09715,131.39519,228.84227Z" transform="translate(-90.37143 -163.85707)"/><path d="M158.46778,193.67082c-4.48661,1.83225-22.675,1.69554-26.17205.07736C141.01072,192.55389,149.74521,193.06025,158.46778,193.67082Z" transform="translate(-90.37143 -163.85707)"/><path d="M131.57586,216.167c3.85832-1.50521,21.10024-1.80706,26.94842-.732-1.753,1.59407-1.75422,1.69012-12.897,1.5468C141.16994,216.92439,136.599,217.75728,131.57586,216.167Z" transform="translate(-90.37143 -163.85707)"/><path d="M158.51547,238.91528c-3.37625,1.53253-22.3651,1.62188-26.25842.12355C135.6503,237.56813,154.53618,237.47927,158.51547,238.91528Z" transform="translate(-90.37143 -163.85707)"/><path d="M158.49114,207.62239c-2.79248,1.793-21.904,2.04007-26.12156.33764C135.311,206.48042,153.83292,206.241,158.49114,207.62239Z" transform="translate(-90.37143 -163.85707)"/><path d="M132.32135,252.14268h26.5575c-.64027.75322-.99624,1.54123-1.35872,1.54423-8.38506.06946-16.77082.05365-25.15646.05365Z" transform="translate(-90.37143 -163.85707)"/><path d="M145.62288,201.27128c-4.98692,1.23813-9.14254.81278-14.19817.41622C135.072,199.49,140.89365,199.38434,145.62288,201.27128Z" transform="translate(-90.37143 -163.85707)"/><path d="M145.40334,223.11378c-4.76466,1.49674-8.90314.76742-13.9749.56952C135.10239,221.29093,140.86161,221.17346,145.40334,223.11378Z" transform="translate(-90.37143 -163.85707)"/><path d="M144.75042,246.0976c-4.15927,1.14916-8.3061,1.10509-13.52911.46384C135.1906,244.59332,139.69069,244.41311,144.75042,246.0976Z" transform="translate(-90.37143 -163.85707)"/><path d="M144.76713,184.92023H132.31492C134.65527,182.55478,140.63629,182.27705,144.76713,184.92023Z" transform="translate(-90.37143 -163.85707)"/><path d="M157.17107,184.83784h-9.77949c3.135-2.55763,6.40983-1.96389,9.68818-1.3Z" transform="translate(-90.37143 -163.85707)"/><path d="M147.28361,200.3447h9.63455c-3.158,2.23232-6.36426,1.939-9.58588,1.07913Z" transform="translate(-90.37143 -163.85707)"/><path d="M147.30145,222.80315c3.24559-1.35132,5.01625-1.42643,9.57447-.40616C154.70151,224.4639,150.97572,224.622,147.30145,222.80315Z" transform="translate(-90.37143 -163.85707)"/><path d="M147.06976,245.29465c3.426-.50333,6.65072-.79556,10.375.28772C153.28836,247.64157,149.59415,247.48437,147.06976,245.29465Z" transform="translate(-90.37143 -163.85707)"/></svg>