<svg id="a9653c00-08db-42bf-bf2e-035cc19774e7" data-name="Layer 1" xmlns="http://www.w3.org/2000/svg" viewBox="0 0 120.28141 119.47249"><path d="M99.46226,196.33118c-1.42558,5.26757.97915,10.05665,1.91973,14.99926a73.38191,73.38191,0,0,0,2.96562,11.41891c.75859,2.08014-.185,2.71983-1.48478,3.50524-2.81045,1.69823-8.901,1.406-11.43964-.461-2.01517-1.482-1.61064-3.49674-1.135-5.42071,1.06474-4.30643,2.25984-8.58072,3.41272-12.86518a21.65852,21.65852,0,0,0,1.03812-3.80626,69.56194,69.56194,0,0,0,.20976-8.46673c-.17412-3.7496-4.12636-3.11771-6.06019-4.86624a9.61272,9.61272,0,0,0-1.31041-.69241c-3.90844-2.50865-3.79951-5.07494.41791-7.24477q19.92573-10.25163,39.90071-20.40749c2.33193-1.19045,4.65928-2.39571,7.03684-3.48959,3.28993-1.51365,6.61625-1.86458,9.99212-.13168,15.96474,8.19506,31.96368,16.32389,47.89649,24.5804,3.36922,1.746,3.14092,5.20759-.36553,7.045-5.24961,2.75079-10.48705,5.54986-15.88693,7.97874-2.91886,1.3129-3.91812,3.171-3.60076,6.17716.17382,1.64662-.13372,3.34611.06021,4.98817.72944,6.176-2.52848,10.0013-7.42168,12.88117-8.83162,5.19782-18.43376,6.82806-28.555,6.233a49.77852,49.77852,0,0,1-20.36216-5.34738,31.47792,31.47792,0,0,1-3.68935-2.44076c-5.09-3.64339-6.48262-8.62266-6.104-14.73442C107.33758,198.65449,106.99938,198.63354,99.46226,196.33118Zm90.45628-9.99531c-.56184-.59592-.74232-.91942-1.01649-1.05924-15.24924-7.777-30.5232-15.50589-45.74377-23.33853-2.197-1.13057-3.96111-.85371-6.05425.22755-14.047,7.25624-28.14913,14.40567-42.22868,21.599-1.5722.80324-3.11483,1.66436-4.92931,2.637,3.96473,1.87579,7.13545,4.49357,11.51184,3.42779,4.44435-1.08233,8.97832-1.79359,13.43134-2.84412,7.45746-1.75934,15.341-1.72312,22.32966-5.588,1.392-.76982,3.6217-.43817,5.3506-.07271,1.8335.38757,3.43205,2.01025,2.96429,3.824a4.81012,4.81012,0,0,1-3.53532,2.69637c-2.38319.201-4.9519-1.10288-7.24868-.69189-10.09534,1.80649-20.12112,4.0017-30.98666,6.22249,11.46511,5.86449,22.20376,11.3064,32.88588,16.85709,2.68646,1.39595,5.11787.87581,7.54963-.37231C159.38867,202.06387,174.56461,194.23993,189.91854,186.33587Zm-78.13147,15.53057a27.35449,27.35449,0,0,1-.02334,3.87957c-1.44993,8.08165,2.99388,12.34935,9.71564,15.18072,11.2314,4.731,22.66743,5.49189,34.09814,1.05919,11.489-4.45533,14.91591-9.25818,12.86127-19.68143-7.28783,3.7184-14.49884,7.333-21.64653,11.06868a12.79039,12.79039,0,0,1-12.76481-.008C126.89849,209.56814,119.68158,205.93631,111.78707,201.86644ZM97.71576,214.58767l-.67893.12643c-.662,2.152-1.46523,4.27543-1.90863,6.47155a3.13793,3.13793,0,0,0,.9892,2.47862A2.31725,2.31725,0,0,0,98.397,223.627a3.00755,3.00755,0,0,0,.72018-2.3703C98.78719,219.01352,98.20133,216.808,97.71576,214.58767Z" transform="translate(-84.7368 -157.24419)"/><path d="M179.2935,256.87709l3.41925,5.70628a16.53345,16.53345,0,0,1-3.47083.39555c-2.875-.41221-4.47737.64467-5.51953,3.45021-1.05389,2.8371-4.84968,3.8783-6.91586,1.664-2.374-2.54425-4.139-1.92382-6.33445-.28446a1.89115,1.89115,0,0,1-.9413.27811c-1.51532.12534-3.03338.21758-4.55047.32163l.21277-4.64309c-5.40048,1.97957-10.896,3.92245-16.33645,6.00879-5.20884,1.99751-10.28538,4.36368-15.557,6.16754A14.8098,14.8098,0,0,1,106.696,270.642c-1.11343-1.47939-1.76059-2.83847-4.28652-1.89018-2.54991.95729-4.10538-1.21454-4.28838-3.50888a52.33388,52.33388,0,0,1,.036-10.96158c.66611-5.0212,5.59857-9.376,10.73113-10.27971,7.41238-1.30513,14.80712-2.713,22.22808-3.96633a458.868,458.868,0,0,0,51.4513-12.19044,36.58067,36.58067,0,0,1,9.083-1.76c8.33133-.21167,14.87536,8.42854,13.06412,16.52205-1.51961,6.79044-5.47955,10.47887-12.38293,11.44854C188.12466,254.64641,184.00152,255.83558,179.2935,256.87709Zm-55.20428,13.21982c4.346-3.97761,5.09658-7.21853,2.84-13.16786-1.99295-5.25428-9.8004-11.981-16.98591-9.0525-5.66486,2.30873-8.597,7.78159-7.33443,15.40642.24066-1.09826.05163-2.33121.474-3.29666,1.03179-2.35837,1.8392-5.17682,3.6545-6.75394,3.6009-3.12846,10.72033-2.47726,14.60934.64169a11.7527,11.7527,0,0,1,3.39927,14.18047,13.08283,13.08283,0,0,0-.5395,2.18082c-.467-.07332-.98688-.31883-1.39308-.19411-5.9297,1.82063-9.72879.46618-12.86626-4.64564-2.12631-3.46437-1.11033-6.6935,2.61384-8.29928,1.01729-.43863,2.03833-.86853,3.72261-1.58549-4.2457-1.27284-6.47911.38788-7.905,3.00912-1.90228,3.497.06234,9.54385,3.98627,12.218C116.71373,273.70173,120.7122,274.26143,124.08922,270.09691Zm7.79339-2.42558c2.07171-.66555,3.76959-1.1717,5.44056-1.755,5.69093-1.98649,11.35342-4.0563,17.06386-5.98443,4.04817-1.36687,6.56939-5.36985,5.25687-9.62593a7.28145,7.28145,0,0,1,.38453-5.647c1.38483-3.05106.8358-4.20752-2.41072-4.58426a23.90568,23.90568,0,0,0-6.97112.056c-9.29862,1.70811-18.55624,3.63939-28.282,5.579C130.48443,250.85193,133.23936,258.29608,131.88261,267.67133Zm31.80775-30.34861c2.915,2.231,5.6365,3.6544,7.4,5.848,1.7864,2.222,2.67256,5.18461,3.86579,7.86171,1.08427,2.43264,3.17418,2.21045,5.09364,1.827,4.142-.82735,8.23292-1.90921,12.34812-2.87246,5.87357-1.37481,9.13753-7.45358,7.52081-14.02778-1.22-4.96117-5.94755-7.15524-11.94043-5.54685-2.04483.54879-4.10337,1.04911-6.13771,1.63394C176.049,233.71121,170.26659,235.40826,163.69036,237.32272Zm-.60976,11.3829c1.44225,1.61774,2.542,3.73122,3.40672,3.63908,1.832-.19522,2.68781-1.96463,2.54118-4.04926-.1295-1.841-.66484-3.55366-2.69482-3.06089C165.19162,245.51178,164.39843,247.22614,163.0806,248.70562Zm-1.14406,12.7676c2.58107.91968,4.29732.881,4.11675-2.20156-.0601-1.02592-.041-2.85352-.393-2.93924-2.82106-.687-2.3,2.02045-3.10571,3.40308A11.7479,11.7479,0,0,0,161.93654,261.47322Zm-41.33184,4.92149.3659-1.98407c-4.37286,2.5177-4.46842-2.13388-7.03424-3.35285-.66147,2.84783.5508,4.59922,2.425,5.48069C117.50111,267.07455,119.17225,266.48089,120.6047,266.39471Z" transform="translate(-84.7368 -157.24419)"/></svg>