<svg id="a1497897-2bf8-436d-8c36-893772948706" data-name="Layer 1" xmlns="http://www.w3.org/2000/svg" viewBox="0 0 88.47588 103.34089"><path d="M102.27615,218.14224c-.00087-10.99343-.02654-21.98694.00926-32.98026.01982-6.08594,2.602-8.81067,8.78656-8.825,4.81738-.01115,8.72437-.66878,13.04659-3.97133,11.3202-8.6496,32.53644-6.80072,43.06747,2.61419,2.73572,2.44578,6.03546,1.1596,9.05668,1.23419,8.16027.20146,9.4849,1.38968,9.49268,9.63118.01289,13.65851.0311,27.31719-.037,40.97537-.00811,1.62689.81634,4.35995-1.94191,4.21419-2.17493-.11494-1.45551-2.63-1.46084-4.16366-.04807-13.82491-.17633-27.65266.06277-41.47363.07646-4.419-1.408-6.1-5.74814-5.662-2.308.23294-4.66007.0044-6.99147.038-2.68723.03876-5.19838.32234-6.06519-3.42091-.49966-2.15778-3.08363-2.8869-5.096-3.65885a38.22758,38.22758,0,0,0-30.98,1.22885c-1.157.53931-2.76692,1.412-2.99669,2.40174-.83933,3.61542-3.3448,3.48652-6.11161,3.46236-14.49752-.12662-12.57552-.50526-12.61662,12.62607-.06047,19.32159.11015,38.64471-.084,57.96451-.05295,5.26964,1.99655,7.06307,7.10456,6.95958,11.15541-.226,22.31873-.09216,33.47849-.0386,1.52923.00733,3.94314-.6789,4.06042,1.62285.12616,2.47573-2.33489,1.77444-3.82306,1.78131-11.82592.05455-23.65259.08295-35.47823.0019-5.82355-.03992-8.69307-3.07623-8.71974-9.08216C102.24166,240.4624,102.277,229.30224,102.27615,218.14224Z" transform="translate(-102.26473 -166.79586)"/><path d="M190.74041,251.67382a18.749,18.749,0,1,1-18.4678-18.80989A18.494,18.494,0,0,1,190.74041,251.67382Zm-3.47406.0303A15.65953,15.65953,0,0,0,171.89953,235.964a15.45075,15.45075,0,0,0-15.176,15.34538c-.05379,8.688,6.84923,15.82948,15.27205,15.79966C180.11469,267.08028,187.20126,259.93145,187.26635,251.70412Z" transform="translate(-102.26473 -166.79586)"/><path d="M154.00093,217.69365c-5.48144.00613-10.96293.01737-16.44431-.0017-1.38872-.00484-2.92648-.23249-2.75324-2.01912.13854-1.42882,1.608-1.43183,2.781-1.43236q16.69332-.00741,33.38662.01744c1.1356.00271,2.56564-.0387,2.49075,1.64825-.06495,1.463-1.26241,1.77861-2.51844,1.77953Q162.47213,217.692,154.00093,217.69365Z" transform="translate(-102.26473 -166.79586)"/><path d="M114.376,233.72314c-1.1224-5.14591,1.93517-5.408,5.98189-5.56174,4.66336-.17712,5.38145,1.93137,5.47624,5.93572.115,4.8579-2.14615,5.65541-6.34594,5.744C114.76869,239.94066,113.68681,237.80422,114.376,233.72314Z" transform="translate(-102.26473 -166.79586)"/><path d="M119.89506,221.63888c-4.551.94513-5.75255-1.18018-5.74126-5.48068.0108-4.11425.89686-6.05326,5.53136-6.00712,4.55646.04536,6.13445,1.57307,6.15823,6.1392C125.86694,220.81421,124.20425,222.44739,119.89506,221.63888Z" transform="translate(-102.26473 -166.79586)"/><path d="M120.00391,193.259c4.79053-.89429,5.72051,1.40822,5.84532,5.58018.154,5.1494-2.80472,4.89748-6.35961,5.08743-4.27527.22844-5.26878-1.57983-5.34424-5.56453C114.05631,193.65862,116.02666,192.38959,120.00391,193.259Z" transform="translate(-102.26473 -166.79586)"/><path d="M153.99272,197.06121c5.47878.00548,10.95777-.01832,16.4362.02552,1.09836.00879,2.72563-.19453,2.73724,1.37535.01173,1.58668-1.60734,1.37784-2.70977,1.38143q-16.18737.05263-32.37484.00975c-1.18087-.00485-3.09521.41865-2.90232-1.65.14648-1.57091,1.83281-1.10185,2.87551-1.1155C143.36663,197.0183,148.67993,197.05573,153.99272,197.06121Z" transform="translate(-102.26473 -166.79586)"/><path d="M146.32775,235.68575c-2.80645.00249-5.61317.02548-8.41921-.008-1.24326-.01485-2.4002-.39287-2.36842-1.89283.02728-1.2876,1.13224-1.47825,2.14863-1.48175q8.66714-.0299,17.33444-.00186c1.05287.00232,2.12785.31718,2.15435,1.51088.03315,1.49293-1.23967,1.82519-2.43061,1.85135C151.94176,235.72511,149.13429,235.68325,146.32775,235.68575Z" transform="translate(-102.26473 -166.79586)"/><path d="M164.75341,252.25222c.28063.17538.85.33,1.0609.69292,3.71779,6.39908,5.25359,1.30016,7.13344-1.38459,1.51867-2.16893,2.83427-4.479,4.29665-6.68888.64076-.9683,1.40652-2.07083,2.7591-1.00848,1.01395.79638.55656,1.77562.00412,2.65032-3.09464,4.89993-6.18426,9.80319-9.31245,14.68167-.69475,1.08348-1.83245,1.88241-2.78774.56887a67.91093,67.91093,0,0,1-4.70485-7.5424C162.68427,253.26718,163.16835,252.2538,164.75341,252.25222Z" transform="translate(-102.26473 -166.79586)"/></svg>