<svg id="ae69b119-f141-4d50-a3c8-5790e4d904f8" data-name="Layer 1" xmlns="http://www.w3.org/2000/svg" viewBox="0 0 120.14424 116.54992"><path d="M84.83255,213.29975a54.87713,54.87713,0,0,1,54.78388-55.12523c29.83743-.16693,55.12351,24.41559,54.96138,54.46565-.0416,7.7115.80159,13.68831,5.77384,20.12655,7.8938,10.22115,5.18268,25.7702-4.33785,34.51965a27.33251,27.33251,0,0,1-35.30046,1.83436,10.042,10.042,0,0,0-9.40018-2.06661C116.73415,274.637,84.834,248.74763,84.83255,213.29975Zm103.80968,8.26511c3.25215-23.66323-8.45262-44.90382-29.19065-53.8011a49.72307,49.72307,0,0,0-59.99019,74.85476c5.703,7.85052,5.70348,7.85146,13.967,3.41158,1.172-.62969,2.338-1.27054,3.50375-1.91178,6.95145-3.82386,7.6166-7.34224,3.91895-14.55147-3.49548-6.81506-8.08835-13.37448-7.05294-21.77451.86755-7.03817,1.1837-14.14955,2.198-21.16284.91871-6.35216,4.99417-11.16277,11.02072-12.234a61.092,61.092,0,0,1,21.0637-.38583c9.02821,1.62034,12.97159,8.3099,13.07562,17.48047.04787,4.2199,1.22416,8.41581,1.47871,12.64726.35052,5.82687,1.92166,11.75473-3.57747,16.73105-2.479,2.24333-3.34243,6.272-4.93888,9.49062C163.75242,219.67413,175.20682,217.2813,188.64223,221.56486Zm-36.36736,39.58806c-1.11313-5.56707-.98464-11.36913-3.40272-15.77288-6.47235-11.78729,2.3825-19.65032,6.06356-28.88027.89919-2.25462,2.79312-4.483,2.72908-6.67967-.17076-5.85789-1.54591-11.68-1.72619-17.53845-.245-7.961-3.4817-12.96489-11.30573-13.88952a51.80668,51.80668,0,0,0-15.76187.929c-4.30216.84148-7.24373,4.21813-7.8329,8.78031-.85965,6.65672-1.55146,13.34634-1.99094,20.04319-.51553,7.85562,4.1888,13.97388,7.42179,20.54619,2.895,5.88516,2.572,16.25127-4.64433,18.98276-3.694,1.39824-7.03188,3.7373-10.56995,5.67263C119.67388,262.04351,139.517,265.71091,152.27487,261.15292Zm2.57113-14.45268a22.3124,22.3124,0,1,0,22.5332-21.86339A22.24032,22.24032,0,0,0,154.846,246.70024Z" transform="translate(-84.83255 -158.17367)"/><path d="M172.73,252.3147c4.78569-5.98608,8.47563-10.90024,12.5466-15.47534.97-1.09017,3.21321-1.0475,4.87081-1.52588-.25357,1.59122.00452,3.563-.84778,4.7089-4.0587,5.45673-8.46747,10.65132-12.65241,16.01661-2.1147,2.71115-4.05991,3.00922-6.46448.34207-2.22056-2.463-4.81742-4.59954-6.91438-7.15415-.701-.854-.37081-2.55436-.512-3.86784,1.35221.03277,3.17382-.4789,3.9657.2038C168.8181,247.37,170.46855,249.69391,172.73,252.3147Z" transform="translate(-84.83255 -158.17367)"/></svg>