<svg id="f0df79f6-6c1f-4fbe-a179-ac5476681b6d" data-name="Layer 1" xmlns="http://www.w3.org/2000/svg" viewBox="0 0 105.6479 111.55556"><path d="M133.22289,221.728c-3.0784-5.26715-5.90982-10.11016-8.73972-14.95406-3.41-5.83684-5.36493-11.66709-1.83089-18.37414,1.05485-2.00194.53191-4.88364.57012-7.36475.201-13.04737,8.2435-21.4868,21.36545-22.20718a73.52179,73.52179,0,0,1,8.98339.1246c11.10965.75374,17.06668,9.54139,18.51529,19.53394.51061,3.52213,2.03211,6.9958,1.98415,10.47633-.06185,4.488-.37553,9.33547-2.12587,13.35536-2.893,6.64426-7.02194,12.75041-10.68925,19.18724l7.29386,5.0683c-2.54426.31055-3.73867.83816-4.23549.45685-4.156-3.18962-7.96228-2.1531-12.24918.02671-4.50966,2.29306-9.0076.543-13.3861-1.43344a7.55094,7.55094,0,0,0-5.33571-.3526c-6.62843,2.68233-13.017,5.95675-19.64291,8.64608-10.99371,4.46214-14.01167,13.95571-15.52675,24.29629-.15811,1.07916,2.06536,3.38262,3.48053,3.67322,8.44927,1.73505,16.93671,3.6601,25.50525,4.343,10.60186.84491,21.29581.51773,31.94854.76013a33.81232,33.81232,0,0,1,4.38085.65863l.07411,1.28247a9.49532,9.49532,0,0,1-2.86117,1.09689c-19.34176.59737-38.65331.58265-57.60444-4.156-9.0911-2.27319-9.53083-3.24607-7.46016-12.33858,2.6513-11.64212,8.401-20.379,20.43779-24.27975C121.87925,227.37231,127.31781,224.36143,133.22289,221.728Zm14.583-59.93691c-14.10184.012-21.12653,6.91945-21.50211,21.07007-.0704,2.65234.63995,5.90247-.61418,7.83647-3.54589,5.46816-.92327,9.75845,1.50769,14.27611,1.55575,2.89118,3.34055,5.66313,4.81612,8.59256,2.66391,5.28863,6.25571,9.42406,12.3521,10.67873,7.36159,1.515,14.07929-2.67045,18.46845-11.3323,2.009-3.96464,4.53719-7.703,6.18111-11.80413,1.31409-3.27827,3.26193-7.76709,2.0099-10.2423a19.77017,19.77017,0,0,1-2.094-9.19617c-.178-11.54742-7.26343-20.33116-19.12714-19.8823C149.13877,161.813,148.47191,161.79106,147.80588,161.79106Z" transform="translate(-94.61677 -158.74179)"/><path d="M200.26466,248.23267a19.92586,19.92586,0,0,1-19.85381,20.0732,20.1862,20.1862,0,1,1,.13036-40.36766A20.20227,20.20227,0,0,1,200.26466,248.23267Zm-20.63841,16.94a17.01607,17.01607,0,1,0,.78885-34.02144,16.41322,16.41322,0,0,0-16.86244,15.63084C163.15522,257.21667,169.78873,264.80639,179.62625,265.17269Z" transform="translate(-94.61677 -158.74179)"/><path d="M179.28148,260.66V240.71253C182.575,243.399,182.92224,256.90359,179.28148,260.66Z" transform="translate(-94.61677 -158.74179)"/></svg>