<svg id="a570c6ef-5180-4277-baf6-e75db9e44a45" data-name="Layer 1" xmlns="http://www.w3.org/2000/svg" viewBox="0 0 107.89372 113.77446"><path d="M130.71535,222.5528c-3.00933-5.15384-5.59856-9.54586-8.14623-13.96186-3.36237-5.82817-5.20639-11.72821-2.05828-18.4217.92325-1.963.646-4.55569.67672-6.863.22265-16.69736,11.82361-25.79323,28.71864-24.97011,9.31887.454,17.62067,3.45527,20.15414,13.14394,2.58842,9.89881,7.816,20.0171,2.69221,30.56273-3.24346,6.67556-7.2666,12.97229-11.04071,19.61612.94017.552,2.2051.91573,2.83831,1.75569a23.82035,23.82035,0,0,1,2.10509,4.26126c-1.65978.35673-3.99337,1.58785-4.86225.91826-3.68718-2.8414-6.69456-1.7074-10.31382.145-4.958,2.53765-9.89586,1.18619-14.69282-1.27092a6.50864,6.50864,0,0,0-4.83233-.32042c-6.419,2.629-12.58867,5.8826-19.05259,8.38255-10.68731,4.13336-12.79053,13.51975-14.544,23.07722-.16217.88393,2.05583,2.95592,3.428,3.24492,7.46564,1.57238,14.9676,3.39095,22.54212,3.93039,11.60467.82647,23.28094.61489,34.92035,1.02677,1.50981.05343,2.98116,1.19384,4.47033,1.83076-1.43475,1.11453-2.84838,3.16918-4.30743,3.202-20.45194.45937-40.88778.69086-60.92387-4.747-4.65874-1.26441-6.33536-3.49192-5.49289-8.06076,2.31413-12.54978,6.58305-23.664,19.79728-28.77734C118.64464,227.99226,124.33676,225.31051,130.71535,222.5528Zm15.89407-58.81833c-11.532-.48608-20.27656,4.84189-19.87153,19.01979.08,2.80129.47594,6.14723-.81643,8.32771-3.53153,5.95842-.73843,10.38327,2.31981,15.0388a31.36239,31.36239,0,0,1,3.24572,5.46448c3.30383,8.38395,8.29748,12.54564,15.48883,12.60647,6.42713.05437,11.81-4.52835,15.07569-12.47292,1.11165-2.70438,3.04248-5.07445,4.13152-7.7851,1.4452-3.59716,4.54708-8.88967,3.196-10.78016-3.27043-4.57626-1.95492-9.04507-2.35122-13.55824-.643-7.323-7.095-14.38228-14.44631-15.45394C150.6129,163.85437,148.6013,163.86206,146.60942,163.73447Z" transform="translate(-92.78478 -158.28472)"/><path d="M178.46258,270.07255c-10.861.52891-20.25608-8.61925-20.3918-20.50836-.132-11.56695,10.45169-21.66857,22.13773-21.66154a20.5575,20.5575,0,0,1,20.46777,20.66048C200.50014,260.37249,190.462,270.09242,178.46258,270.07255Zm-14.513-21.84987c-.02766,9.73213,6.5058,16.60322,15.90206,16.72384,8.84585.11355,15.1834-6.04226,15.28706-14.84867.11272-9.57637-7.00946-16.99385-16.39142-17.07108C170.03815,232.95509,163.97526,239.18114,163.94957,248.22268Z" transform="translate(-92.78478 -158.28472)"/><path d="M177.50044,262.659c0-6.81078.01232-13.62161-.01385-20.43229a22.436,22.436,0,0,1-.25334-2.913,10.693,10.693,0,0,1,1.12893-3.99225c.30086-.50642,1.73191-.34142,2.64978-.48128a37.31968,37.31968,0,0,0,.12765,3.84352,47.32664,47.32664,0,0,1,.89034,4.81752c.11795,4.97079.26444,9.96256-.09,14.91109-.12283,1.7149-1.67962,3.32711-2.58144,4.98622Z" transform="translate(-92.78478 -158.28472)"/></svg>