<svg id="fb27c824-29ee-41f3-90dc-9032a915f70d" data-name="Layer 1" xmlns="http://www.w3.org/2000/svg" viewBox="0 0 124.06312 63.45481"><path d="M130.60025,215.854a101.43557,101.43557,0,0,1-11.36356-.151c-1.20718-.13947-2.21068-2.04182-3.30729-3.13825,1.11952-.8312,2.22528-1.68187,3.36392-2.486.63894-.45123,1.33224-.82547,1.74236-1.07622-6.21228-4.337-12.321-8.59037-18.41749-12.86135-5.00636-3.50731-10.3542-5.91405-16.65951-5.7864-1.00485.02035-2.0311-1.01636-3.04746-1.56438.95766-.70772,1.85251-1.91281,2.88312-2.043,7.03427-.88841,13.524,1.11675,19.61868,4.41439,4.82217,2.60911,9.47928,5.52266,14.21864,8.28565,4.55294,2.65433,9.17489,2.24608,14.35763,1.727,8.22454-.82369,16.63279.31327,24.96527.38156,3.53732.029,7.40453.248,10.54346-1.03472,4.70773-1.92374,8.99859-4.95274,13.299-7.76791,6.32854-4.14283,13.11985-6.46251,20.71607-5.7642,1.20318.1106,2.30991,1.27067,3.46123,1.94553-1.09939.68674-2.19422,1.9577-3.29889,1.96632-7.72673.06024-14.11557,3.113-19.94385,7.95306-4.30106,3.57175-8.89108,6.79553-13.4239,10.22853a1.3236,1.3236,0,0,0,.278.55993c1.35482,1.424,2.73848,2.82059,4.11274,4.22611-2.122,1.03813-4.19046,2.76212-6.38028,2.93332-2.49641.19517-5.101-.994-7.38247-1.51806-2.1137,4.60409-4.65486,9.21242-6.32236,14.11774a20.23347,20.23347,0,0,0-.75863,9.56922c.70952,4.128.90043,8.53595-2.89944,10.116a15.38283,15.38283,0,0,1-11.225-.3311c-3.54939-1.66053-3.74794-5.8899-2.87221-10.08538a19.86985,19.86985,0,0,0-.79239-9.53363C134.6036,224.438,132.34392,219.9874,130.60025,215.854Z" transform="translate(-82.91122 -186.53665)"/></svg>