<svg id="be409c9f-c38a-4e4b-a7d7-c498c3b270ce" data-name="Layer 1" xmlns="http://www.w3.org/2000/svg" viewBox="0 0 114.92323 114.9216"><path d="M201.962,216.58793a57.46167,57.46167,0,0,1-114.92322-.01778,57.46166,57.46166,0,1,1,114.92322.01778Zm-36.01929,36.369c-.3412.86956-.43047,2.05893-1.06372,2.55774-4.76782,3.75572-3.12254,7.48939-.18368,11.551,14.79137-6.44591,25.13545-16.78711,31.26557-33.28008-3.39984.51888-5.64146.52815-7.63494,1.23609a107.87892,107.87892,0,0,0-11.3832,4.81969,12.53252,12.53252,0,0,0-4.12627,3.47525c-2.48379,3.159-4.70993,6.52047-7.04082,9.79964,6.70207-8.4381,7.74781-16.66888.31889-25.573-2.29577-2.75165-3.76069-4.296-7.45057-3.54647a20.14016,20.14016,0,0,1-8.91954.10915c-8.639-2.33033-12.887,2.145-17.97191,8.41737-5.75007,7.09283-5.29619,12.8013-.74835,19.47519a47.22358,47.22358,0,0,0,3.46441,4.85761c.82571.93131,2.083,2.06208,3.17081,2.088C147.52056,259.17939,158.24088,263.07345,165.94269,252.95689Zm-14.03042-30.279c7.7533,1.315,13.17587-1.2998,16.16779-8.50418a24.45133,24.45133,0,0,1,2.9547-5.18309c3.04268-4.08113,2.47072-7.91.53751-12.43145-4.58058-10.71312-11.09885-16.50786-23.91321-15.28938-7.61379.724-11.96921,3.10185-15.5263,9.61316-4.21423,7.71421-4.31762,13.905.69216,21.78136C137.78593,220.4639,143.345,223.94887,151.91227,222.67784Zm-45.884-16.10121c5.95362-1.54223,11.17722-3.22608,16.53209-4.14508,2.74016-.47026,3.83088-1.56659,4.86494-3.96826,1.96239-4.55772,3.821-9.407,6.90354-13.16717,3.18068-3.87988,1.957-6.22849-.07266-9.866-3.06176-5.48712-7.033-6.41192-12.4148-4.49614-2.81037,1.00042-5.711,1.78548-8.43973,2.96987-8.13577,3.53125-11.90453,11.19258-13.52655,18.68489-.87,4.01844,3.84534,9.24741,6.05443,13.92343C105.986,206.63176,106.20765,206.67331,106.02822,206.57663Zm28.337,54.2811c-3.134-6.33364-5.939-12.10741-8.86326-17.82014a6.36521,6.36521,0,0,0-2.43139-2.83669c-5.50645-2.65641-11.11663-5.0978-17.0578-7.77922-.93264,1.02659-2.07093,2.23375-3.1588,3.48473-5.5029,6.3279-5.8357,9.411-.14737,15.46948,4.17148,4.44293,8.77349,8.86663,14.01108,11.84258C127.27333,269.21609,125.418,270.03152,134.36521,260.85773Zm29.30293-80.62737c3.76831,6.93065,7.17479,13.34625,10.76324,19.65839a6.76346,6.76346,0,0,0,3.12971,2.73212c4.29774,1.72486,8.70524,3.17626,13.4652,4.8719,2.27207-7.37372,3.76492-14.69982-1.79948-21.84543-5.877-7.547-11.71823-14.87979-22.30037-14.62655ZM97.97823,240.17344c2.55464-3.75294,6.29973-6.98206,6.97573-10.76031,1.12012-6.2605.30962-12.87526.19715-19.33876a6.85151,6.85151,0,0,0-.9905-3.175c-2.24511-3.83069-4.61215-7.58992-6.94071-11.386C87.42007,200.9259,87.33508,233.08534,97.97823,240.17344Zm98.15988-7.1501c3.86673-12.18665,3.63025-23.73591-.77917-35.09828l-1.405.00127-2.73717,34.38044Zm-80.63076-63.808.8099,2.17624,24.41667-7.69677-.76237-2.38952Z" transform="translate(-87.03875 -159.03909)"/></svg>