<svg id="ba21d7ea-4b65-4f89-b3a8-400f02b608ba" data-name="Layer 1" xmlns="http://www.w3.org/2000/svg" viewBox="0 0 86.35854 104.67422"><path d="M140.9981,266.93622c-4.5809-.41494-10.648.75735-13.29589-1.722-2.32713-2.179-.61467-8.46872-1.06875-12.90378-.54944-5.36653,1.45039-11.5201-4.28583-15.47186.42718-10.71689-9.22756-16.56-12.37075-25.63826a32.03675,32.03675,0,0,1,11.893-36.27192,32.57523,32.57523,0,0,1,39.47409,1.363c10.97251,9.01871,14.88516,24.15606,9.26229,36.4914a45.475,45.475,0,0,1-5.01007,8.61278,52.632,52.632,0,0,0-10.89742,35.8192c.52211,10.28,1.65245,9.24541-9.17137,9.31981-1.49881.01031-2.99774.00142-4.49661.00142Zm-2.07079-19.0147c0-5.93769-.13341-11.25265.08577-16.553.06135-1.48386,1.16154-2.92477,1.78519-4.38538.57688,1.53023,1.59247,3.04382,1.65127,4.59371.20511,5.40762.07937,10.8278.07937,16.30128h8.10247c1.71218-5.76452,2.78063-11.3766,5.05139-16.4506,2.357-5.26671,6.04413-9.92167,8.83006-15.01879a40.64356,40.64356,0,0,0,4.451-10.47123c2.5845-11.86447-3.69968-24.25566-14.75284-30.06535a29.04109,29.04109,0,0,0-34.08394,5.23609c-8.94377,9.022-11.04366,22.15167-4.55547,33.01245,6.37233,10.66686,14.15212,20.60573,14.307,33.80085Zm11.90445,14.99042V252.21931H130.415l-.638,1.51393c1.18169.66779,2.32443,1.811,3.5526,1.91163,3.30007.27038,6.64853-.06945,9.95349.16929,1.55132.11206,3.04675.99785,4.56751,1.533-1.59855.62975-3.16333,1.66923-4.80264,1.80434-3.46514.28558-6.97621-.01754-10.45214.19164-.81275.04891-1.56052,1.17741-2.33818,1.8092.805.58654,1.59814,1.6614,2.41706,1.68145C138.61358,262.97927,144.55768,262.91194,150.83176,262.91194Z" transform="translate(-108.29995 -168.92531)"/><path d="M163.63879,245.19086c1.19654-3.22495,1.45936-5.63531,2.78852-7.02795,1.28081-1.342,3.66317-1.63265,5.87179-2.3856,2.06037-.90745,4.08751-2.41742,6.19152-2.53344,1.71115-.09433,3.51442,1.48191,5.46593,2.32857,2.17033.976,4.69747,1.55353,6.387,3.06645,1.14845,1.0284,1.12306,3.36766,1.62847,5.12319.96865,2.05036,2.6381,4.082,2.68567,6.15093.04329,1.8824-1.67534,3.80533-2.47838,5.85432-.74836,1.9516-1.02808,4.3703-2.37681,5.72353-1.35063,1.35513-3.769,1.6461-6.08762,2.54653-1.86522.77031-3.94316,2.25628-6.05341,2.3037-1.72533.03876-3.48922-1.63858-5.49277-2.32658-2.11951-.974-4.56988-1.57407-6.2422-3.05356-1.11465-.98614-1.12019-3.22593-1.1536-5.13455C159.83134,251.85668,159.76319,247.21546,163.63879,245.19086Zm22.67934,12.86759,3.43461-7.786-3.08923-8.646-8.19977-3.45688c-3.19374,1.178-6.14981,2.26833-8.503,3.13629-1.24959,2.91374-2.53833,5.91874-3.61466,8.42845,1.18068,2.82445,2.44506,5.84917,3.425,8.1934l8.14464,3.61539Z" transform="translate(-108.29995 -168.92531)"/><path d="M130.00661,270.09182q4.458,0,8.916.00072c3.32762.00379,6.65978-.07888,9.97957.0856.813.04028,1.58564.89688,2.37684,1.37816-.54925.71254-1.098,2.04274-1.6478,2.04314-6.28346.00465-12.56756-.17844-18.84906-.3853-.28327-.00933-.54335-.723-.81423-1.10859Z" transform="translate(-108.29995 -168.92531)"/><path d="M128.24771,219.78715l-6.00188-6.48425c.89058-2.52837,5.26826-6.00466-1.63949-6.81719-.733-.08621-1.42668-3.64155-1.45451-5.59723-.02236-1.57091.84132-4.44859,1.56945-4.53335,6.41-.74617,3.07927-3.78684.24165-7.88973,2.19817-1.49033,4.63045-4.47691,6.54849-4.1768,4.81749.75377,7.24229-1.95835,10.66863-4.10723,1.706-1.06992,7.6148-2.9606,8.23463,3.44436.03822.39492,2.89774,1.23582,3.46237.74327,3.47627-3.03253,4.68285.55735,6.38525,2.07919,1.56334,1.39753,4.136,2.73,1.64654,5.68785-.4479.5322.75528,3.62734,1.3605,3.68086,3.75184.33177,3.08286,3.00408,2.96069,5.166-.13173,2.331,1.403,5.62264-3.04016,6.10961-.67394.07386-1.88561,3.00409-1.54384,3.35991,2.848,2.965.292,4.50572-1.4625,6.07084-1.73365,1.54654-3.007,5.01394-6.41437,1.94455-.44132-.39753-3.451.82561-3.48372,1.4-.25876,4.53531-3.5794,3.07854-5.926,3.19224-2.18114.10568-4.483.69161-5.25046-2.86619C133.9512,214.82688,131.25548,219.57088,128.24771,219.78715Zm4.57979-6.73408a76.16475,76.16475,0,0,0,6.15641,4.84531c.87654.56878,3.12648.74192,3.34473.33705,2.09475-3.886,4.97786-5.05325,9.18445-3.69321.4817.15574,2.38973-1.78352,2.22518-2.312-1.32068-4.24121-.02237-7.09617,3.78118-9.228.46782-.2622.459-2.82788-.02176-3.09935-3.80815-2.15053-5.0665-5.03286-3.76368-9.26586.16-.5198-1.758-2.4407-2.25551-2.28161-4.24114,1.35607-7.10084.09923-9.201-3.76613-.26-.47857-2.89961-.47961-3.129-.0319-2.03917,3.97925-5.0088,5.00273-9.19494,3.848-.47984-.13235-2.32016,1.94788-2.12411,2.52343,1.33607,3.92217-.317,6.70823-3.30969,8.62081-2.20956,1.41208-2.63443,2.19027-.2768,3.65086,3.34611,2.073,4.9994,4.75928,3.49479,8.87718-.17509.4792,1.43012,1.82912,2.42542,2.39916C130.52337,214.68323,131.51523,213.78663,132.8275,213.05307Z" transform="translate(-108.29995 -168.92531)"/><path d="M178.00127,243.84514c3.80417.48841,6.0309,2.40592,5.96457,6.12885a5.42122,5.42122,0,0,1-5.62773,5.68758,5.50095,5.50095,0,0,1-6.05173-5.78477C172.22819,246.22926,174.606,244.31509,178.00127,243.84514Z" transform="translate(-108.29995 -168.92531)"/><path d="M140.48233,210.40785a8.88419,8.88419,0,0,1-8.7032-9.08022,9.03663,9.03663,0,0,1,8.92028-8.92572,9.26758,9.26758,0,0,1,9.04961,9.392A9.12986,9.12986,0,0,1,140.48233,210.40785Zm6.34885-7.72.036-2.287c-2.02667-1.44468-3.90106-3.73293-6.11634-4.13284-3.18339-.5747-5.30553,1.89914-5.36752,5.09431-.06245,3.21817,2.05409,5.71774,5.2018,5.28235C142.80706,206.3373,144.7588,204.07652,146.83118,202.68786Z" transform="translate(-108.29995 -168.92531)"/></svg>