<svg id="a5b8cbfb-f040-45d0-a211-3827f212ffd3" data-name="Layer 1" xmlns="http://www.w3.org/2000/svg" viewBox="0 0 46.76811 45.74771"><path d="M169.48588,202.13482c-1.77751,3.16635-2.64186,5.51584-4.18051,7.27582-3.061,3.50129-6.07542,7.29692-9.86335,9.8533-6.73991,4.5486-10.49132,11.7928-16.59461,16.88026-5.00152,4.16909-9.84957,4.94947-13.64249,1.16468-3.7184-3.71042-3.24048-9.03724,1.2528-13.60809,2.8-2.84835,5.28476-6.1765,8.52651-8.3864,7.42589-5.06222,11.59338-13.19728,18.49948-18.70368,3.0489-2.431,6.41171-3.60119,9.6177-1.55194C165.59476,196.65251,167.24616,199.56346,169.48588,202.13482Zm-18.82165,17.82746c4.51582-4.53292,8.67184-8.602,12.70476-12.78959,2.61884-2.71927,2.662-5.79878-.00593-8.39734-2.558-2.4915-5.47826-2.12837-8.00261.30953a125.83346,125.83346,0,0,0-9.45651,9.60845c-1.37416,1.64725-1.75344,4.12446-3.03882,7.37917C149.06,212.82283,149.2384,216.91642,150.66423,219.96228Zm-10.48553-6.20114c-4.547,4.72034-8.60191,8.87809-12.595,13.09441-2.42763,2.56335-2.59583,5.51071-.268,8.04256,2.5602,2.78459,5.619,2.61914,8.34178-.00091,3.234-3.11191,6.54651-6.17708,9.4489-9.583,1.33591-1.56767,1.77651-3.89828,3.0448-6.87161C142.11061,221.33474,141.7961,217.29627,140.1787,213.76114Z" transform="translate(-122.71777 -194.00586)"/></svg>