<svg id="a99cde57-f8f7-4724-97e9-29ff98bad11b" data-name="Layer 1" xmlns="http://www.w3.org/2000/svg" viewBox="0 0 101.48267 101.60854"><path d="M93.7938,262.63721c.90242-3.14468,1.86683-6.27313,2.69464-9.43733,1.84369-7.04725,1.81586-7.05453,9.3469-8.01369,0-3.04034-.00556-6.16093.0012-9.28151.01249-5.7656.10469-5.85323,6.00754-6.24a15.32516,15.32516,0,0,0,1.64632-.29588c.26082-5.44438.27214-10.85479.82356-16.20959a30.47991,30.47991,0,0,1,60.5788.12862c.5476,5.22958.53816,10.51748.78287,15.76879.22943.16413.42275.42049.63445.43669,6.07937.46529,7.2492-.87068,7.05671,8.12721-.05329,2.49111-.00811,4.98434-.00811,8.02011,7.96635-1.87124,8.57961,3.67315,9.66052,8.83971.56713,2.71077,1.29741,5.38876,1.99988,8.06954.849,3.24014-.40561,4.83063-3.71616,4.84066-4.36271.01322-8.7255.00619-13.08824.00624-26.17652.0003-52.35317.03408-78.52929-.06825-1.96581-.00768-3.92782-.988-5.89159-1.51611Zm47.76183-33.18295c0-2.57505-.10246-4.929.03079-7.26951a3.98324,3.98324,0,0,0-2.46327-4.31523,10.46536,10.46536,0,0,1-4.9126-12.24267,10.77787,10.77787,0,0,1,20.817.189c1.30731,4.74111-.672,9.41346-5.06233,12.25832-.8934.57892-2.12065,1.48428-2.19744,2.32967-.26971,2.96906-.1047,5.97761-.1047,8.99854H169.2157c0-5.02338.29729-9.7798-.06182-14.48613-.74974-9.82561-5.89011-16.90971-14.84461-20.79877-8.84094-3.83973-17.36123-2.57722-25.01675,3.31858-10.84589,8.3528-9.77329,20.14594-9.212,32.01816Zm46.86043,31.73255a47.875,47.875,0,0,1-1.16741-5.442c-.32027-3.46565-2.05934-4.36824-5.46519-4.3102-12.6901.21627-25.38609.08632-38.07987.08634-12.42935,0-24.859-.03789-37.2876.059-1.23818.00966-3.22987.53058-3.56291,1.3477-1.01886,2.49978-1.39913,5.25984-2.10831,8.25914ZM177.08657,235.872H112.2359v9.42206h64.85067Zm-28.15284-25.08995c.99163-1.5121,1.01038-3.78974-1.15183-5.72531a4.40578,4.40578,0,0,0-6.39722.03713c-2.03633,1.91092-2.3399,4.17361-.93413,5.82729l4.1632-5.16107C145.964,207.32976,147.31426,208.89942,148.93373,210.78206Z" transform="translate(-93.7938 -165.7938)"/><path d="M146.1845,165.7938c.39856,4.60964.92287,9.21567,1.05531,13.83294.0191.66562-1.81276,1.85367-2.85149,1.92936-.807.0588-2.47586-1.2662-2.452-1.929.16635-4.618.67441-9.22369,1.073-13.83333Z" transform="translate(-93.7938 -165.7938)"/><path d="M123.19311,186.982c.10915,2.36164-2.26958,4.17964-3.9228,2.852a68.362,68.362,0,0,1-8.38679-8.24891c-.517-.58813-.10582-2.61285.556-3.41593a3.166,3.166,0,0,1,3.10591-.39427c2.94118,2.58729,5.63852,5.45344,8.38449,8.25807C123.16617,186.27427,123.1401,186.7724,123.19311,186.982Z" transform="translate(-93.7938 -165.7938)"/><path d="M169.04185,190.2393c-2.41846.063-4.06182-2.64592-2.54957-4.48177a63.27075,63.27075,0,0,1,7.78955-7.77431,3.55,3.55,0,0,1,3.45739.19421c.70319.62246,1.09851,2.80065.5875,3.38342-2.58266,2.94533-5.496,5.60214-8.32337,8.329C169.74935,190.13486,169.281,190.15761,169.04185,190.2393Z" transform="translate(-93.7938 -165.7938)"/></svg>