<svg id="f9c1f46e-9405-4367-9ae1-75066627dc11" data-name="Layer 1" xmlns="http://www.w3.org/2000/svg" viewBox="0 0 100.66004 106.49518"><path d="M111.004,182.98026l-3.44667-.28241a5.21944,5.21944,0,0,0-.64147,1.52484c-.07362,3.663-.16807,7.32906-.08895,10.99059.068,3.148-.81554,5.129-4.45347,5.1063-3.785-.0236-4.2755-2.30748-4.21722-5.30476.07772-3.99684-.17965-8.01069.10849-11.98814.12816-1.76912.83754-4.49817,1.99815-4.94843,1.61719-.62739,3.93117.37072,5.89816.86662,1.736.43767,3.40515,1.14055,5.98829,2.03133-1.16357-6.9334,2.63482-9.49944,7.18022-11.267,19.46749-7.57028,38.97739-7.61939,58.41959.08515,4.356,1.72618,8.13821,4.1556,6.9671,11.08341,2.57724-.88028,4.3424-1.64159,6.185-2.06948,1.97574-.4588,4.21833-1.21135,5.96662-.65287,1.011.323,1.69125,2.95335,1.79528,4.59132.25292,3.98229.01728,7.99288.10306,11.9894.06841,3.18719-.412,5.63142-4.4946,5.54433-3.75956-.08021-4.28295-2.33623-4.2259-5.3329.07264-3.81443.0176-7.63129.0176-11.80161-3.24507-.91666-5.07528-.86627-4.92809,3.28563.39533,11.15066.42677,22.31419.81843,33.465.119,3.38834-1.08947,5.04067-4.42694,5.04387q-32.93622.03167-65.87247.0175c-3.48785-.00228-4.79449-1.66667-4.73-5.31041C111.1363,207.666,111.004,195.6783,111.004,182.98026Zm35.86043-5.574c-9.66221,0-19.1168-.16245-28.5509.20335-1.19388.04629-3.1556,2.80584-3.26049,4.40669-.39126,5.97167-.15741,11.98432-.15767,17.9816-.00029,6.43417-.00007,12.86836-.00007,19.18027,6.82211,1.45294,8.8756-4.07487,12.3632-6.97816,3.69723-3.0778,8.0696-6.16224,10.04173-10.25763,1.85822-3.85884.9756-9.03753,1.29873-13.63558l1.14844.08179v24.24484l-1.29433.07911-.59342-8.96276L124.11384,218.764h22.75059Zm10.0699,10.84586,1.3294.00905a5.92265,5.92265,0,0,1,.47547,2.21767c-1.91642,9.27189,2.74358,15.42363,9.58224,20.61766,1.18474.89982,2.02151,2.3128,3.27551,3.05583,3.40783,2.01924,6.95325,3.80624,11.21907,6.10243,0-13.8108.12541-26.1241-.15985-38.42788-.03537-1.5258-2.20437-4.25091-3.46753-4.30027-9.40107-.36733-18.823-.19939-28.33075-.19939V218.2138l17.5835-4.164-9.25259-9.91333c-.3648,3.52669-.63781,6.16585-.91082,8.805l-1.34365-.107Z" transform="translate(-98.12422 -164.02371)"/><path d="M185.75568,229.07505c-.391,7.7923-.50782,15.94635-1.31651,24.03119-.47827,4.78146-1.9264,9.48821-3.23,14.147-.27753.9918-1.70839,1.9047-2.81136,2.35a9.87849,9.87849,0,0,1-3.463.16165c-8.46856.04926-8.46367.04661-8.70744-8.44774-.02357-.82147-.15646-1.63981-.27383-2.81127H130.94548a20.70211,20.70211,0,0,0-.48294,2.83777c-.27292,7.8319-5.03321,10.9981-12.57814,8.13855a4.29294,4.29294,0,0,1-2.38558-2.78547c-1.53549-11.18439-2.8925-22.39362-4.24041-33.603a30.99042,30.99042,0,0,1-.024-4.01865Zm-58.647,20.095c6.49837.34674,8.1638-.74316,7.506-4.61949-.68054-4.01057-3.93527-3.72649-6.62962-3.42013-3.10682.35326-8.26818-3.0069-8.73543,3.05868C118.79135,250.1392,124.11613,248.64138,127.1087,249.17009Zm40.50245.1645c2.93065-.18911,5.07236.25641,6.46163-.56724,1.67222-.99143,2.70479-3.06173,4.01426-4.665-1.49746-1.09514-2.85815-2.5859-4.53392-3.16528-1.4456-.49979-3.2492.05744-4.89568.11245-3.03744.10147-6.30775-.01971-6.25732,4.35283C162.45223,249.92253,165.61826,249.60111,167.61115,249.33459Z" transform="translate(-98.12422 -164.02371)"/></svg>