<svg id="ba38510e-08b5-46b8-9bf4-8d49df5156ca" data-name="Layer 1" xmlns="http://www.w3.org/2000/svg" viewBox="0 0 170.06039 159.68298"><path d="M70.45393,202.55468c-1.76135,1.03181-2.51513,1.85891-3.14055,1.77116-2.36275-.33148-4.68383-.96-7.0205-1.47744.69982-2.31134.67053-5.53387,2.22472-6.77748,7.0102-5.60939,14.31136-10.89962,21.83171-15.80841,3.8305-2.50028,5.10895-5.33906,4.93635-9.78748-.33569-8.65153-.13321-17.32549-.08507-25.98979.03221-5.79723,1.57-7.27088,7.49028-7.31471,4.83187-.03577,9.66433-.02089,14.49637.00334,4.38607.022,6.25907,2.3446,6.14959,6.62834-.0969,3.791-.02031,7.58644-.02031,12.601,5.08722-3.6543,9.46143-6.79743,13.83675-9.939,3.38205-2.42841,6.85458-4.74174,10.12279-7.31468,3.14624-2.47692,5.794-2.14326,8.96221.186q37.4343,27.5223,75.02514,54.8317c2.96817,2.1665,6.80481,4.28926,4.25662,8.7079-2.42213,4.2001-6.004,1.92978-9.73283.05107-.10455,2.1691-.2587,3.89366-.26,5.61834q-.0249,32.742-.01494,65.484c-.00993,15.27156-7.47233,22.79662-22.58572,22.79882q-52.23728.00757-104.47453-.0018c-14.16518-.00414-21.96825-7.75217-21.98866-21.892q-.04764-32.99186-.00941-65.98384C70.4539,207.14452,70.45393,205.3393,70.45393,202.55468Zm46.83855,84.39454c.0963-2.08426.2479-3.87171.25051-5.65936.02021-13.83178.15684-27.666-.07055-41.494a14.61716,14.61716,0,0,1,4.523-11.12343c12.64032-12.98044,32.37416-12.34,43.94626,1.7866a14.04778,14.04778,0,0,1,2.93173,8.04535c.2862,14.32614.12558,28.661.14559,42.99286.00245,1.75109.15757,3.502.25358,5.4943,10.10279,0,19.59145.015,29.08005-.00437,8.86762-.01806,11.37972-2.447,11.392-11.24522.03566-25.49713.09411-50.99506-.12843-76.4903a9.29946,9.29946,0,0,0-3.22418-6.48446c-18.96654-14.13257-38.17362-27.94191-57.18692-42.01259-2.8037-2.07485-4.651-1.94156-7.38622.05035q-28.88167,21.033-58.02423,41.70561c-2.86751,2.02892-3.64269,4.2357-3.62563,7.49211.10474,19.99724.05044,39.99532.05337,59.99311.00089,5.99925-.13844,12.00383.06828,17.99623.19564,5.6709,2.86136,8.75148,8.08867,8.8874C97.85663,287.12581,107.34491,286.94922,117.29248,286.94922Zm10.0368-.27878h31.84139c0-15.0844-.16219-29.85341.099-44.61493.0782-4.4207-1.48688-7.55382-5.13922-9.35713a31.07518,31.07518,0,0,0-10.24444-3.38164c-7.40823-.75505-16.34163,4.65138-16.44783,10.03774C127.13058,254.95493,127.32928,270.56537,127.32928,286.67044ZM99.18121,168.71514c8.62329-4.33984,10.63658-10.63648,7.33767-21.28547H99.18121Z" transform="translate(-60.29288 -137.1492)"/></svg>