<svg id="aa6f16c4-2885-47d7-8669-a8a2159b461e" data-name="Layer 1" xmlns="http://www.w3.org/2000/svg" viewBox="0 0 240 240"><path d="M151,97c6.524,1.09086,13.06061,2.11328,19.56546,3.30845,2.38335.4379,4.69147,1.28519,6.94818,1.92156a32.9019,32.9019,0,0,1-65.10523-.53429L139,97Z" transform="translate(-25 -97)"/><path d="M25,211c1.0906-6.52227,2.11309-13.05705,3.30756-19.56024.43723-2.38051,1.28237-4.68609,1.92-6.94982a32.897,32.897,0,0,1-.53535,65.09755Q27.354,236.33838,25,223Z" transform="translate(-25 -97)"/><path d="M265,223c-1.09058,6.52205-2.113,13.05659-3.30745,19.55957-.43724,2.38055-1.28226,4.68622-1.91983,6.95a32.89675,32.89675,0,0,1,.53505-65.09724Q262.646,197.66153,265,211Z" transform="translate(-25 -97)"/><path d="M139,337c-6.5242-1.0909-13.061-2.11331-19.566-3.30853-2.38328-.43788-4.69132-1.28528-6.948-1.92169a32.90245,32.90245,0,0,1,65.10617.53471L151,337Z" transform="translate(-25 -97)"/><path d="M93.576,129.70295c-.29782,27.35893-26.94741,43.356-48.70182,31.99411-3.23716-1.6907-4.39962-3.10431-2.08963-6.78044a125.158,125.158,0,0,1,40.2856-40.20655c3.33224-2.07817,5.23374-1.51176,6.39505,1.90662C91.21164,121.7574,92.7275,126.97644,93.576,129.70295Z" transform="translate(-25 -97)"/><path d="M232.4693,165.54949c-27.51991-.03934-43.72618-27.25055-32.00879-48.99578,1.72577-3.20269,3.19936-3.8792,6.49419-1.82539a124.08958,124.08958,0,0,1,40.25386,40.22729c1.97383,3.16731,1.92379,5.21656-1.7,6.448C240.36774,163.1507,235.15987,164.70058,232.4693,165.54949Z" transform="translate(-25 -97)"/><path d="M94.4753,301.96153c-1.83441,5.44968-3.59848,10.92449-5.53364,16.33815-.93286,2.60971-2.57518,2.95085-5.049,1.45A122.479,122.479,0,0,1,42.2656,278.16017c-1.749-2.86812-.59192-4.01477,1.78822-5.39371C63.487,261.50777,89.53958,274.005,92.8176,296.21489c.26684,1.808.54406,3.61446.81646,5.42163Z" transform="translate(-25 -97)"/><path d="M196.33026,304.18922c.81465-14.79777,5.99884-24.77165,17.01172-31.09648,10.61588-6.0968,21.481-5.94227,32.40076-.45387,3.15645,1.58647,3.44757,3.19289,1.601,6.1754a123.55039,123.55039,0,0,1-40.59288,40.57426c-3.07478,1.90377-4.95108,1.49964-6.0762-1.7454C198.896,312.51324,197.32953,307.3098,196.33026,304.18922Z" transform="translate(-25 -97)"/><path d="M144.81641,163.81959a10.5817,10.5817,0,0,1-10.52507-10.90436,11.21617,11.21617,0,0,1,10.64334-10.55568c5.65433-.05058,10.78842,5.15254,10.77821,10.92312A10.58919,10.58919,0,0,1,144.81641,163.81959Z" transform="translate(-25 -97)"/><path d="M91.81944,217.39973a10.59783,10.59783,0,0,1-10.62216,10.31214c-5.77006-.03922-10.95214-5.23326-10.83748-10.86251a11.179,11.179,0,0,1,11.13868-10.56231A10.61486,10.61486,0,0,1,91.81944,217.39973Z" transform="translate(-25 -97)"/><path d="M198.18042,217.1733a10.58962,10.58962,0,0,1,10.54745-10.88645c5.7699-.0061,10.97057,5.136,10.91169,10.78887a11.21635,11.21635,0,0,1-10.56536,10.633A10.58107,10.58107,0,0,1,198.18042,217.1733Z" transform="translate(-25 -97)"/><path d="M145.2283,270.18042a10.58064,10.58064,0,0,1,10.47986,10.94876,11.20081,11.20081,0,0,1-10.68735,10.51051c-5.67144.01632-10.77311-5.19584-10.7343-10.96676A10.59516,10.59516,0,0,1,145.2283,270.18042Z" transform="translate(-25 -97)"/><path d="M100.11547,161.26894a10.71989,10.71989,0,0,1,10.51729,10.96344A10.878,10.878,0,0,1,99.48186,182.631,10.72866,10.72866,0,0,1,89.2687,171.862,10.61564,10.61564,0,0,1,100.11547,161.26894Z" transform="translate(-25 -97)"/><path d="M200.73164,171.73109a10.71337,10.71337,0,0,1-10.57966,10.9031A10.86574,10.86574,0,0,1,179.36591,171.866a10.68414,10.68414,0,0,1,21.36573-.13491Z" transform="translate(-25 -97)"/><path d="M110.63368,262.01378a10.68534,10.68534,0,1,1-10.90574-10.64856A10.87484,10.87484,0,0,1,110.63368,262.01378Z" transform="translate(-25 -97)"/><path d="M190.01382,251.36636A10.68534,10.68534,0,1,1,179.36523,262.272,10.875,10.875,0,0,1,190.01382,251.36636Z" transform="translate(-25 -97)"/></svg>