<svg id="bda44a0c-e59d-451a-b137-6825a7d3c961" data-name="Layer 1" xmlns="http://www.w3.org/2000/svg" viewBox="0 0 100.4721 117.97386"><path d="M101.19083,258.795c-6.38251.718-6.46277-3.11593-6.43226-7.75429.15879-24.13868.05774-48.279.08051-72.41869.01261-13.35766,7.30024-20.60955,20.675-20.61851q29.71682-.01992,59.43366.00305c12.72315.01563,20.1873,7.40766,20.20793,20.08648.03952,24.30615-.01136,48.61245.03327,72.91857.008,4.3377.79989,9.05046-5.1797,7.78089-1.58123,5.48664-2.02951,11.07306-4.79892,15.03839-1.50058,2.1486-6.98255,2.18453-10.62555,2.04566-11.6763-.44511-7.84645-9.95914-9.076-16.90824H124.71958c-1.83649,4.96338,1.9115,11.72145-3.77965,15.15744-2.83768,1.71324-6.93258,1.56568-10.48961,1.8087-4.25855.29094-7.68805-1.50135-8.52584-5.95068C101.25984,266.45394,101.41833,262.76913,101.19083,258.795ZM189.8364,182.3618H100.34977v41.47071c10.64844,0,20.96133-.26333,31.25114.1099,5.23025.18972,9.08318-1.155,12.63437-5.13992,5.313-5.96185,11.15209-11.46728,16.96484-16.95784.88017-.83139,2.82647-.53409,4.27962-.75887-.16834,1.45454-.03041,3.04469-.59646,4.32314-.50381,1.13784-1.78054,1.93729-2.72782,2.87429-4.90087,4.84768-9.80549,9.69158-15.37117,15.19131H189.8364Zm-89.46246-5.93424h89.43015c-1.00361-8.13042-5.80427-13.12174-13.29149-13.18681q-31.44711-.2733-62.8979-.0052C105.741,163.30143,100.68192,168.65342,100.37394,176.42756Zm.02523,52.79417V252.9321h89.20059V229.22173Zm5.77341,29.517c.76236,4.33464.4839,8.56331,2.38813,11.23811,1.02183,1.43534,7.52352,1.37292,8.50923-.07928,1.93873-2.85626,1.75349-7.1542,2.50373-11.15883Zm63.80423-.0186c1.14677,4.45723,1.30381,8.63968,3.346,11.45432.9783,1.34833,7.33747,1.14576,8.093-.17113,1.75238-3.05454,1.57851-7.21417,2.244-11.28319Z" transform="translate(-94.75557 -157.99085)"/><path d="M141.15405,171.14981c-3.31677-.00035-6.6466.1634-9.94238-.09964-.9951-.07943-1.89571-1.34282-2.8396-2.06387.89639-.98048,1.763-2.77665,2.69394-2.81062,6.62355-.24172,13.26337-.22074,19.88913-.00727.92048.02965,1.79216,1.574,2.68643,2.41721-1.01157.85485-1.95653,2.3296-3.04739,2.44684A88.60032,88.60032,0,0,1,141.15405,171.14981Z" transform="translate(-94.75557 -157.99085)"/><path d="M145.90846,246.491c-4.98359-.00044-9.968-.058-14.95052.016-4.86846.07229-3.86444-3.41992-3.96016-6.28912-.09676-2.89988-.43981-5.79152,3.9761-5.74291,9.79989.10788,19.60215.0844,29.40268.012,4.7734-.03525,4.053,3.36738,4.10988,6.27015.05667,2.89087.21365,5.86181-4.12614,5.76017C155.54546,246.40451,150.72594,246.49149,145.90846,246.491Zm-13.00231-6.31353-.00259.64485h25.431l.00259-.64485Z" transform="translate(-94.75557 -157.99085)"/><path d="M102.85675,240.49812a9.98089,9.98089,0,0,1,19.96175-.02716,9.98089,9.98089,0,0,1-19.96175.02716Zm15.26043.8859-.08126-2.14144c-1.86634-1.11589-3.81234-3.2031-5.57533-3.05854-1.579.12949-4.34549,3.00949-4.10472,4.15323.38287,1.8188,2.70146,4.249,4.44321,4.46433C114.40633,245.00034,116.33184,242.62538,118.11718,241.384Z" transform="translate(-94.75557 -157.99085)"/><path d="M187.14284,240.5037a9.98059,9.98059,0,1,1-9.677-9.98489A9.88928,9.88928,0,0,1,187.14284,240.5037Zm-4.51512,1.17178.05346-2.11911c-1.80942-1.2232-3.63193-3.4041-5.42429-3.37961-1.55389.02124-4.44312,2.71849-4.28858,3.91648.23382,1.81263,2.42156,4.422,4.1069,4.69914C178.711,245.06137,180.76012,242.81643,182.62772,241.67548Z" transform="translate(-94.75557 -157.99085)"/></svg>