<svg id="aefeb31f-0095-4558-ba88-7b38e51003b4" data-name="Layer 1" xmlns="http://www.w3.org/2000/svg" viewBox="0 0 119.32685 108.42547"><path d="M106.48218,194.87474c10.3321,3.454,11.69443,5.38466,11.69576,16.58138.00092,7.66113-.15384,15.32638.05164,22.982.14926,5.56124-.55235,10.61867-5.98137,14.32044,6.51035,6.03936,14.10121,7.97035,22.13474,8.65535.764.06515,1.92447-1.03155,2.41664-1.87233,2.0945-3.578,5.19159-4.912,9.19851-4.74017,2.82636.1212,5.67306-.11607,8.48963.09178a8.86589,8.86589,0,0,1,8.15838,9.09467c-.00933,4.5186-3.34607,8.876-7.82831,8.83457-6.47062-.05985-13.92447,2.67953-18.47585-5.11225-.5124-.87722-2.72987-.85444-4.18319-1.07049-9.38314-1.39488-18.21925-3.86855-24.83559-11.39417-.82681-.94043-2.585-1.19259-3.97043-1.49051-10.42178-2.24116-16.81754-8.81639-17.80912-19.39952a89.91242,89.91242,0,0,1,.22952-16.91576c.68785-7.13348,4.89519-12.08323,10.99925-15.72462a10.37931,10.37931,0,0,0,4.18424-4.90892c7.45825-20.39863,24.99864-32.31594,47.45763-31.98314,19.46462.28843,36.94616,13.77518,43.47766,33.32346a11.2283,11.2283,0,0,0,3.59054,4.89166c4.78111,3.786,8.40309,8.33186,8.75814,14.5061a105.47413,105.47413,0,0,1-.23342,19.37544c-1.23249,9.5985-10.30478,16.886-19.96107,17.04588-6.75283.1118-12.02484-4.51177-12.15392-11.22895-.20474-10.6549-.18149-21.3188-.00223-31.97465.10461-6.21777,3.91624-10.17639,10.064-11.12884,1.2787-.19811,2.56948-.31833,3.86806-.47607-2.72913-15.06052-20.61127-28.51893-37.6266-29.22362C125.37659,164.98842,109.05474,182.04489,106.48218,194.87474Zm70.52231,27.58048c0,4.98088-.111,9.9649.0305,14.94176.14815,5.21194,3.41127,7.82653,8.50954,7.08141,7.00852-1.02433,12.77679-6.30438,13.44445-13.35753a88.33679,88.33679,0,0,0-.07557-17.36361c-.71186-6.84064-7.19849-12.411-13.87725-12.87208-5.14043-.35487-7.87413,1.986-8.00729,7.12618C176.90423,212.823,177.00219,217.64037,177.00449,222.45522Zm-64.0111.18952c0-4.99978.12469-10.00359-.03645-14.99817-.14944-4.63172-2.78668-6.91289-7.40692-6.79839-6.9027.17107-13.69549,5.79088-14.45784,12.89064a88.33548,88.33548,0,0,0-.07548,17.42882c.61822,6.71059,6.27227,12.13257,12.58006,13.13971,6.14518.98118,9.294-1.54884,9.388-7.66342C113.05653,231.97856,112.99906,227.31121,112.99339,222.64474Zm36.455,41.23208c2.60384-.66179,7.53416,1.55806,7.52711-3.94471-.00685-5.368-4.76844-3.79573-7.91828-3.86425-3.2418-.07052-7.969-1.22255-7.80667,4.03692C141.39687,264.84354,145.8899,263.60592,149.44841,263.87682Z" transform="translate(-85.24269 -160.81625)"/></svg>