<svg id="e86c4788-0517-42e1-bd81-b5cdcb935ce0" data-name="Layer 1" xmlns="http://www.w3.org/2000/svg" viewBox="0 0 118.36808 118.20937"><path d="M144.89338,276.04454c-32.57195.621-59.07477-26.72456-59.09947-58.98485a59.18409,59.18409,0,1,1,118.36786.16657C204.07765,249.6479,177.33,276.7562,144.89338,276.04454ZM89.01364,216.84373c-.0308,30.50776,25.51071,56.29616,56.04313,56.07923a56.22138,56.22138,0,0,0,55.84921-55.7441c.30222-30.47371-25.61619-56.17823-56.01674-56.15525C114.73871,161.04641,89.044,186.71556,89.01364,216.84373Z" transform="translate(-85.79389 -157.84887)"/><path d="M144.88927,207.791l-5.71409-1.70383.01232-1.95412c2.02908-.0644,4.69626-.94709,5.92684.01251,1.56212,1.21813,2.97357,4.09713,2.66763,5.96861-.926,5.66472-2.6887,11.19513-4.17132,16.76564-1.22836,4.61519-2.31234,9.28512-3.86287,13.79231-.97538,2.83527-.88048,5.39495,2.0486,5.97514,1.4232.28192,3.44186-1.97062,5.03974-3.26281a8.45984,8.45984,0,0,0,1.46789-2.4013l1.65983.22475c-.24474,1.767-.06768,3.74422-.82167,5.25752-1.59111,3.19347-4.25566,5.16825-8.06388,4.0229-4.63-1.3925-6.20179-5.78954-4.52131-11.97585C139.31166,228.3718,142.0587,218.229,144.88927,207.791Z" transform="translate(-85.79389 -157.84887)"/><path d="M152.56793,183.999c.12265.91012.60488,1.97225.2971,2.70044a50.80179,50.80179,0,0,1-2.87663,5.20417c-.62922-.61905-1.90541-1.45676-1.78214-1.8215.77175-2.2836,1.85568-4.46169,2.83628-6.6747Z" transform="translate(-85.79389 -157.84887)"/></svg>