<svg id="a6ac4d45-2538-4909-ac2f-5059f2c5f517" data-name="Layer 1" xmlns="http://www.w3.org/2000/svg" viewBox="0 0 101.02201 101.40134"><path d="M143.29518,261.2598c-1.9611-1.06835-3.89909-3.00153-5.8873-3.05462-8.403-.22443-16.82817-.05394-25.22983.31926-3.55807.158-7.07812,1.172-11.14065,1.88966-.17954-2.39055-.42688-4.16665-.429-5.94305-.02651-21.99468.08566-43.99029-.10494-65.98335-.03771-4.35171,1.27831-6.00842,5.68858-6.7338,11.66177-1.91806,23.20878-4.114,34.95389-.61076,3.62955,1.08258,5.21726,2.7989,5.14908,7.00458-.29164,17.99094-.12408,35.98933-.124,53.985,0,1.80533,0,3.61066,0,6.32042,2.31674-1.14391,4.00546-1.99092,5.70546-2.81464,4.90821-2.37819,9.60839-5.53731,14.78312-6.92911,7.25964-1.95254,8.57793-6.051,8.346-12.93489-.54943-16.3109-.17665-32.65286-.17665-48.98227v-6.842c-7.40143,3.79264-13.90455,7.22415-20.50982,10.44625a36.46681,36.46681,0,0,1-6.05027,1.781c1.46637-1.69912,2.61378-3.97751,4.45691-4.9924,6.38317-3.51482,12.98524-6.63817,19.55819-9.79778a43.9654,43.9654,0,0,1,5.62336-1.77905c.10777,2.23767.25192,3.85118.25311,5.46479.0153,20.66169-.08214,41.32418.09473,61.98437.03207,3.74551-1.12957,5.4381-4.661,6.90087-8.40326,3.48073-16.52578,7.64024-24.75369,11.54246-1.57621.74755-3.11561,1.57272-5.51277,2.78851-.21019-2.75663-.47665-4.64777-.47971-6.53934-.03109-19.162-.14478-38.3256.08692-57.48486.04624-3.82371-1.38639-5.36487-4.75475-6.15326-10.66406-2.496-21.12864-.48267-31.5746,1.39911a3.97443,3.97443,0,0,0-2.39809,2.951c-.13826,22.30708-.10532,44.61522-.10532,67.26442,6.02438-.65643,11.67737-1.48487,17.35959-1.82487,4.61241-.276,9.43476-.73623,13.85079.26572,6.59085,1.49541,12.7789.79191,19.374.14033,9.76064-.96431,19.7259.1426,30.22041.38171v-4.23263q0-28.49314-.00955-56.98629c-.00391-3.6224,1.07651-7.7015-4.20546-9.35378l.52256-1.51875c1.6362,0,3.616-.56643,4.81211.1591a5.746,5.746,0,0,1,2.27645,4.197c.18252,11.661.10531,23.32614.10623,34.99.00086,10.83073.01722,21.66152-.01757,32.49214-.00572,1.78206-.23965,3.56341-.39966,5.78268-6.16106-.94561-11.826-2.41643-17.51923-2.536-7.04737-.148-14.13069.70393-21.16749,1.42589-1.25806.12906-2.36568,1.72436-3.54276,2.64265l.68878,1.6985q4.40082,0,8.80164,0c9.33109-.00033,18.66233.0321,27.99322-.01176,7.14149-.03356,8.12759-.99914,8.13887-8.06669.03114-19.49527-.01223-38.99068.04916-58.4858a42.20715,42.20715,0,0,1,.81018-5.82826l1.73153-.04822a18.84257,18.84257,0,0,1,.97937,4.18785q.09522,31.49212.02613,62.98468c-.0122,5.67487-3.23,8.7965-9.03717,8.80337q-41.49.04913-82.98-.00119c-5.58334-.007-8.91889-3.0843-8.93559-8.39479q-.09978-31.74206.0032-63.48458a23.84124,23.84124,0,0,1,.69467-4.04338l1.8983-.1271A39.652,39.652,0,0,1,97.56,196.978c.07192,19.32843.0295,38.65723.05094,57.9859.00834,7.51469.90841,8.45089,8.23527,8.47429,12.12713.03874,24.25448.01054,36.38174.01054Z" transform="translate(-93.98812 -165.60833)"/><path d="M125.76116,195.71808c2.76181.4331,5.569.76058,8.31029,1.37966.71726.162,1.22989,1.23006,1.8365,1.882-.84573.54553-1.6729,1.5297-2.54014,1.56637-6.263.26484-12.5342.41255-18.80259.40585-1.18412-.00127-2.36732-.8581-3.55094-1.32016.94279-.7335,1.79753-1.91494,2.84406-2.12062C117.75646,196.74506,121.71756,196.29932,125.76116,195.71808Z" transform="translate(-93.98812 -165.60833)"/><path d="M136.79652,209.01177c-1.43674.83543-2.26963,1.7265-3.13285,1.75692q-9.81592.346-19.6418.34368c-.99375-.00131-1.98639-.852-2.97953-1.30986.7596-.66223,1.48758-1.85588,2.28377-1.90325,6.84946-.40757,13.71024-.65569,20.57083-.80069C134.62283,207.08323,135.36918,208.0361,136.79652,209.01177Z" transform="translate(-93.98812 -165.60833)"/><path d="M137.44553,219.26493c-2.28711.84565-3.30371,1.521-4.34206,1.55631q-9.32344.31673-18.65541.34879a14.39543,14.39543,0,0,1-3.31567-.77459c.90089-.86324,1.7523-2.41013,2.71065-2.47949,6.5326-.47281,13.08649-.6953,19.63695-.82527C134.36058,217.07322,135.26046,218.02776,137.44553,219.26493Z" transform="translate(-93.98812 -165.60833)"/><path d="M126.33646,226.44277a68.08242,68.08242,0,0,1,7.40654.73144c.83643.16566,1.45586,1.42688,2.17441,2.18767-.87327.53152-1.72336,1.47787-2.62353,1.5282q-9.78379.54693-19.5858.7232c-.87677.016-1.76989-.8641-2.65544-1.32922.68016-.7576,1.26252-2.03727,2.05672-2.18605,4.37006-.81858,8.79193-1.36064,13.196-1.99758Z" transform="translate(-93.98812 -165.60833)"/><path d="M124.07251,236.5778c4.11793.231,6.95111.22384,9.71807.64837.80894.12412,1.42934,1.477,2.13617,2.26673-.89075.49809-1.75813,1.37685-2.676,1.43321q-9.77717.60035-19.5734.84563c-.86563.02034-1.75424-.937-2.6322-1.44158.69066-.767,1.28466-2.06528,2.08827-2.21148C117.1748,237.38339,121.2709,236.94894,124.07251,236.5778Z" transform="translate(-93.98812 -165.60833)"/><path d="M170.32389,217.11336c-5.70306,2.64982-11.24981,5.27375-16.86188,7.7496-.4708.2077-1.52915-.43842-2.028-.96126-.2754-.28863-.15088-1.26651.13106-1.72685,1.33971-2.18735,15.31394-7.26561,17.89577-6.57031C169.57005,215.634,169.62323,215.87136,170.32389,217.11336Z" transform="translate(-93.98812 -165.60833)"/><path d="M170.14423,186.93156c-5.43612,2.51589-10.85041,5.08175-16.33906,7.47727-.60884.26573-1.71646-.32-2.43325-.7668-.221-.13773-.09109-1.54657.1804-1.6619q8.65739-3.67774,17.41029-7.12764c.308-.122.87113.40013,1.3155.6224Z" transform="translate(-93.98812 -165.60833)"/><path d="M170.21645,207c-5.5609,2.62478-11.10466,5.28775-16.71352,7.8057-.47593.21366-1.534-.39466-2.03954-.90215a1.91147,1.91147,0,0,1,.00927-1.7356C152.775,209.792,166.81655,204.94563,170.21645,207Z" transform="translate(-93.98812 -165.60833)"/><path d="M171.18967,196.2619c-2.96061,1.51433-4.96877,2.6028-7.02914,3.58133-3.28442,1.55986-6.56342,3.14778-9.93854,4.48743-.76842.305-1.92026-.356-2.89562-.57231.189-.72033.1732-1.90275.59791-2.0909,5.3994-2.392,10.85174-4.66676,16.33127-6.87025C168.62931,194.6469,169.32777,195.30405,171.18967,196.2619Z" transform="translate(-93.98812 -165.60833)"/><path d="M170.14154,226.44039c-5.06855,4.58795-16.4547,8.6727-19.01908,7.00266C155.09056,228.8306,166.21906,224.54978,170.14154,226.44039Z" transform="translate(-93.98812 -165.60833)"/></svg>