<svg id="ac7a3e8b-83ba-4c48-954e-9f039ea9cdc4" data-name="Layer 1" xmlns="http://www.w3.org/2000/svg" viewBox="0 0 104.90502 118.11266"><path d="M144.44855,212.83233q-22.96259-.00024-45.92517-.00731c-5.725-.00784-6.24011-.61535-5.759-6.371,2.19027-26.2048,22.17259-46.629,47.34937-48.39647,26.578-1.86583,49.18621,14.63362,55.36971,40.40875,3.3059,13.78022,2.8532,14.36615-11.09989,14.36616Q164.416,212.8325,144.44855,212.83233Zm46.94363-5.54322c-1.69046-17.40553-9.60671-30.25786-24.35414-38.22347-17.04592-9.20711-34.03528-8.02559-49.84221,3.21594-11.8296,8.41294-18.08337,20.1663-19.24805,35.00753Z" transform="translate(-92.62588 -157.9142)"/><path d="M145.41348,252.83347c15.64794-.00017,31.29786.13744,46.94255-.08805,4.41866-.06368,5.4521,1.69993,5.11644,5.63809-.87825,10.30413-8.425,17.57451-18.73143,17.59941q-33.45978.08082-66.91983-.0047A18.61009,18.61009,0,0,1,93.13362,257.76c-.1231-3.581,1.036-5.03359,4.83732-4.99458C113.78369,252.92772,129.59906,252.83364,145.41348,252.83347Zm46.40447,5.34011H99.126c.04752,6.81765,4.75165,12.42141,11.66586,12.50823q34.45707.43266,68.92247.0416C186.50289,270.65639,191.08976,265.49377,191.818,258.17358Z" transform="translate(-92.62588 -157.9142)"/><path d="M168.86874,225.16129a49.07,49.07,0,0,1-6.98353-.0412c-10.7256-1.52749-19.51068.67667-24.50379,11.4992-1.46234,3.16964-4.357,3.47546-6.27129.52785-7.68977-11.84082-19.03386-13.39555-31.70752-12.09131-2.242.23072-6.37551,1.6463-6.48482-2.28988-.12539-4.51539,4.191-2.67471,6.58-2.68493,29.12566-.12468,58.252-.0811,87.37823-.08073,1.165,0,2.46107-.31922,3.46267.0865a18.61915,18.61915,0,0,1,3.5861,2.49825c-1.19533.85668-2.3676,2.41437-3.5898,2.4546C183.18606,225.27492,176.02543,225.15508,168.86874,225.16129Zm-29.72164.25451h-11.68l6.94783,6.27582C135.60561,230.11253,137.058,228.18634,139.1471,225.4158Z" transform="translate(-92.62588 -157.9142)"/><path d="M175.885,251.623c-2.86607-1.18481-5.98283-1.98254-8.54258-3.64033-4.42778-2.86761-8.45576-3.30558-12.90388-.14374-6.14844,4.37047-12.3773,4.20981-18.50615-.24942-3.81166-2.7733-7.67469-2.63338-11.63016-.154a19.10777,19.10777,0,0,1-26.83644-6.55561c-.46315-.8259-.45412-2.7885.03391-3.089a4.056,4.056,0,0,1,3.52818-.32164,81.63,81.63,0,0,1,6.68867,5.21443c4.92738,3.85347,8.06632,4.09435,13.12369.65312,6.27344-4.26869,12.40528-4.24088,18.5261.17139,4.02468,2.90124,7.98745,2.85165,11.98591-.03307,6.13953-4.4294,12.26567-4.33665,18.53728-.13677,5.1716,3.46323,8.2019,3.216,13.10323-.67719,1.956-1.55369,3.72172-3.42067,5.86211-4.639,1.16414-.66264,2.93227-.26421,4.428-.34436-.31286,1.4272-.13349,3.4696-1.02044,4.17931C187.4042,245.74431,183.26368,251.06163,175.885,251.623Z" transform="translate(-92.62588 -157.9142)"/></svg>