<svg id="b1b2e438-108a-4972-989d-d4e6f13b8036" data-name="Layer 1" xmlns="http://www.w3.org/2000/svg" viewBox="0 0 215.61224 215.42524"><path d="M49.86173,188.06891c1.12146-6.12868,1.75035-12.1191,3.34976-17.83808,5.26363-18.821,16.83445-33.17361,32.77405-44.05793,19.30621-13.18321,40.86092-18.65862,64.092-17.49806,25.17836,1.25785,47.41812,9.87014,65.65645,27.59609,14.26225,13.8616,22.3486,30.70834,23.2401,50.77.01038.23369.07056.46517.14148.91155.92979.14777,1.92357.25679,2.89507.46822,5.52429,1.20231,10.04909,5.92361,10.25023,11.58024.29135,8.19383.18659,16.40886-.02154,24.60793a10.8279,10.8279,0,0,1-1.95515,5.45814c-1.07007,1.57311-.90832,2.697-.24946,4.26528a31.52053,31.52053,0,0,1-9.66363,37.06547,4.4794,4.4794,0,0,0-1.46582,2.88163c-.99229,13.21535-5.9418,24.42825-16.45664,32.82981-8.44286,6.746-18.30559,10.39176-28.693,12.80321-16.0368,3.72293-32.36486,4.03374-48.70983,4.03616-14.12844.00208-28.25363-.17391-42.23067-2.61355-12.21794-2.13261-23.97267-5.53744-34.17053-12.97735-11.40519-8.32075-16.98991-19.7991-17.98088-33.67644a4.54638,4.54638,0,0,0-1.93532-3.69652c-10.97288-8.46961-14.784-23.84868-9.18512-36.924a4.05641,4.05641,0,0,0-.26076-3.82567,21.49032,21.49032,0,0,1-2.20765-7.81015c-.30931-6.37787-.13713-12.78112-.09151-19.17365C37.04872,194.09282,41.09459,189.42592,49.86173,188.06891Zm175.8522,1.077c-.2283-2.74721-.29958-5.19831-.65351-7.60789-2.44972-16.67691-10.8516-29.95669-23.77329-40.402-29.27722-23.66642-74.34844-25.82635-105.98723-5.1879-15.63154,10.19669-26.53851,23.86681-30.35617,42.502-.71427,3.48659-.86491,7.08864-1.2824,10.69576Zm-80.98972,40.45329q-39.05935,0-78.11867-.01713a15.11829,15.11829,0,0,0-10.46876,3.61149c-5.32669,4.6684-7.23626,12.97784-4.565,19.98545,2.58471,6.78052,7.87883,10.2633,15.6308,10.26479q22.60741.00434,45.21483-.00232,55.039.00044,110.078-.05857a19.06427,19.06427,0,0,0,7.55738-1.45056c6.84942-3.06777,10.3945-11.63968,8.53267-19.69588-1.82729-7.90669-7.70684-12.63581-15.742-12.63713Q183.78384,229.593,144.72421,229.59919ZM63.87483,270.22082c.06288,13.42625,5.25581,23.65627,16.87933,30.20754,9.61053,5.41673,20.22546,7.37176,31.00482,8.62731,14.858,1.73065,29.784,1.67436,44.70036,1.36693,12.55263-.25873,25.08069-1.06906,37.3142-4.21462,8.73367-2.24566,16.96266-5.54785,23.31923-12.30363,6.23322-6.62467,8.454-14.68206,8.4445-23.68353ZM50.5119,222.83746c.7707.043,1.38513.087,2.00035.11013a107.95862,107.95862,0,0,0,28.65792-2.76647,85.1983,85.1983,0,0,1,39.36918-.34554,145.4158,145.4158,0,0,0,20.33638,2.96242c9.68579.8518,19.18379-1.04309,28.61679-3.00054,9.48512-1.96827,18.97919-3.20036,28.64445-1.4474,7.13541,1.29414,14.242,2.84252,21.4292,3.72719,6.36863.78394,12.8307.80882,19.35286,1.17446V201.49406c-.91548,0-1.68779-.03044-2.4571.00465a93.625,93.625,0,0,1-24.86626-2.68152c-15.2315-3.42405-30.49972-4.03736-45.73167-.25959a86.89788,86.89788,0,0,1-42.363-.00316,94.61514,94.61514,0,0,0-43.404-.15381c-9.2593,2.0393-18.58895,3.62113-28.141,3.10246a10.42549,10.42549,0,0,0-1.4441.12873Z" transform="translate(-36.8944 -108.52332)"/></svg>