<svg id="aed5ffb2-0c51-4101-9760-31153b6c79b5" data-name="Layer 1" xmlns="http://www.w3.org/2000/svg" viewBox="0 0 64.99253 128"><path d="M127,281V223.67611H112.23534v-26.3989h14.87248c0-4.82468-.02313-9.09721.0041-13.36942.10466-16.41858,8.09841-26.37612,24.11362-30.10359A9.74987,9.74987,0,0,0,153,153h18l5.50124,1.37581v24.45076c-5.59406,0-10.694.13944-15.78228-.04309-4.24839-.1524-6.12758,1.57571-5.94252,5.869.17038,3.9531.03624,7.91933.03624,12.40538h22.41519c-.42764,9.07518-.82857,17.5835-1.25526,26.63856H155V281Zm5.85432-6.11328h16.28211V217.7816h21.55466V202.96791H149.04418c0-6.80441-.164-13.09777.0436-19.37885.233-7.05163,3.58711-10.26987,10.63475-10.52018,3.60846-.12816,7.22524-.02247,10.98995-.02247V158.88312c-4.87291,0-9.355-.14743-13.82455.02686-15.13487.59018-23.89924,9.73578-23.95034,24.86491-.02119,6.27049-.00352,12.54112-.00352,19.34522H118.07v14.89965h14.78428Z" transform="translate(-112.23534 -153)"/></svg>