<svg id="a295521b-eaa5-43f2-894d-5e934d321607" data-name="Layer 1" xmlns="http://www.w3.org/2000/svg" viewBox="0 0 101.7471 101.57143"><path d="M117.60775,165.7938c8.84346,4.71423,14.8728,12.54808,21.30828,19.80007,3.40214,3.83378,2.36871,9.74652-1.4403,13.77562-2.16477,2.28985-4.71269,4.21748-6.73987,6.00176l25.25145,25.228a69.72385,69.72385,0,0,1,5.28987-6.40757c5.26939-5.17182,11.55081-5.12867,16.887.01428q6.71439,6.47128,13.205,13.17392c5.35613,5.50693,5.36313,11.64041.19208,17.20242-10.24078,11.015-22.43442,15.90992-37.12448,10.685-4.57516-1.62727-8.77715-4.80495-12.586-7.9548a134.34491,134.34491,0,0,1-12.36549-12.30869c-.84643-.90974-.816-2.63532-1.18951-3.98505,1.32911.438,2.99736.50992,3.931,1.37483,5.1396,4.76138,9.86485,9.99006,15.17195,14.54627a27.49942,27.49942,0,0,0,34.48637.9054L157.7508,233.72c-2.45667,2.82714-4.66036,1.18429-7.177-1.41881q-11.03278-11.41183-22.45016-22.44875c-2.6374-2.54753-2.71845-4.41025.082-6.75737a62.88882,62.88882,0,0,0,5.90149-5.87716c3.61464-3.95679,3.61838-7.67117-.09429-11.56543-3.6504-3.82893-7.46166-7.5046-11.206-11.24383-6.4788-6.46991-10.41544-6.18053-16.36774,1.53865,4.386,4.29244,8.91265,8.53541,13.17434,13.02964,1.01972,1.07535,1.157,2.98753,1.70007,4.51483-1.43635-.558-3.20841-.7581-4.25092-1.736-4.50789-4.22845-8.80237-8.68439-13.2039-13.087-8.26541,10.89208-8.07992,25.41632.59189,35.38252,4.41975,5.07947,9.46079,9.61429,14.02249,14.57774.91534.996.93271,2.81721,1.36411,4.25793-1.34117-.48346-3.10313-.58125-3.95624-1.512-6.22439-6.79123-12.58248-13.50518-18.20766-20.77777-2.2053-2.85115-2.639-7.07263-3.87947-10.67v-7.938c2.33369-11.34689,8.31644-20.15048,18.25736-26.19535Zm68.27719,88.43393c7.00558-5.13552,7.37114-9.35791,1.01062-15.73119q-4.89-4.89975-9.78987-9.78953c-6.13045-6.11139-10.35225-5.73226-15.5092,1.12373C169.69824,237.96868,177.76672,246.07323,185.88494,254.22773Z" transform="translate(-93.7938 -165.7938)"/><path d="M188.25582,165.7938c5.73961,2.962,7.662,7.70217,7.22563,14.02509-.3991,5.78229-.04322,11.61416-.09712,17.42346-.061,6.57925-3.96574,11.12566-10.40789,10.84325-5.39117-.23634-9.02165,1.37491-11.57416,6.05562-1.63281,2.99416-3.778,3.25774-5.54731.08915-2.65447-4.75372-6.36661-6.47777-11.93723-6.17353-5.95173.32506-9.86882-3.91881-10.03952-9.91082-.21048-7.38794-.05919-14.7864-.05074-22.1803.006-5.22216,3.28832-8.044,7.5012-10.17192Zm-17.30317,45.634c2.46924-7.14059,8.02568-7.45065,14.13227-7.28233,4.2579.11736,6.27137-2.42945,6.32589-6.92133.0801-6.60012.05708-13.20217.01185-19.80294-.0379-5.52994-2.14356-7.62416-7.71147-7.65024q-13.06986-.06122-26.14021-.00127c-5.625.02344-7.69878,1.99212-7.78742,7.558-.0988,6.20348-.06244,12.41-.01668,18.61466.048,6.50577,1.81919,8.57394,8.22192,8.247,5.0783-.2593,9.05364.73024,11.41512,5.58521C169.61466,210.20783,170.08333,210.51564,170.95265,211.42782Z" transform="translate(-93.7938 -165.7938)"/><path d="M171.95908,173.64227c1.18174,1.04415,3.59277,2.36644,4.74879,4.40161,1.42677,2.51185.64924,5.27765-1.47173,7.60346-1.19134,1.3064-1.83591,3.09795-2.83679,4.59753-.45494.68165-1.17433,1.64164-1.778,1.6447a2.47842,2.47842,0,0,1-1.84284-1.55105c-.49354-2.65618-.46392-5.16639,2.33127-6.92538a5.00781,5.00781,0,0,0,1.95225-3.352c.07082-.659-1.66946-2.24088-2.24143-2.08828-1.16967.31207-2.07916,1.54453-3.13882,2.3407-.89129.66968-1.84351,1.25828-2.76875,1.88277-.25806-1.1653-.94939-2.43734-.69351-3.476C165.00943,175.51385,167.44818,174.10269,171.95908,173.64227Z" transform="translate(-93.7938 -165.7938)"/></svg>