<svg id="b52dbbae-28de-4f01-a839-7960cea15f9a" data-name="Layer 1" xmlns="http://www.w3.org/2000/svg" viewBox="0 0 104.06459 104.08884"><path d="M157.37158,264.6614c0-2.62623,0-4.591,0-6.55578q.00041-40.98711.00685-81.97421c.00469-8.00025.898-8.85143,8.94895-8.8586,1.66615-.00148,3.33261-.02082,4.99837.0044,4.98661.07549,6.98594,1.85664,7.175,6.82174.16958,4.45256.03571,8.91668.03571,14.08412a87.46344,87.46344,0,0,1,8.83986.10225c.95918.1018,1.7932,1.383,2.68438,2.12562-.89938.51242-1.77035,1.39517-2.70354,1.46674-2.63187.20184-5.28929.07054-8.459.07054-.12776,1.83833-.33142,3.41752-.33306,4.99692-.02163,20.82676.08907,41.65452-.10343,62.47952-.03815,4.12666,1.10492,5.44132,5.301,5.32555,13.4993-.37243,11.738,1.57325,11.77729-11.64327.06381-21.49305.01721-42.98642.01721-64.47966v-6.22469l-14.00215-1.3781.0523-1.95211c3.98209-3.15195,8.80826-1.831,13.19889-1.17427,3.74558.56024,4.26811,3.846,4.25264,7.37006-.11045,25.15827-.05179,50.31725-.06414,75.476-.003,6.13783-1.11547,7.24834-7.26606,7.25065q-44.73592.01682-89.47185-.00011c-6.14736-.00235-7.24885-1.1071-7.2516-7.26509q-.0177-39.7375.005-79.475c.00529-6.05978,7.37076-10.11375,12.5921-6.92148.57487.35147,1.22533,1.62953,1.01181,1.99969a3.85618,3.85618,0,0,1-2.2136,1.67368c-2.5.59628-6.474.13315-7.27877,1.55352-1.30858,2.30952-.65934,5.78478-.663,8.76823q-.04317,34.739-.01479,69.47813c.001,6.85608.00784,6.856,6.998,6.85566,1.96414-.00011,3.92828,0,6.2113,0V189.27964l-9.95141-1.60457.03394-2.35657,10.25589-1.386c0-4.16029-.06457-8.4311.01633-12.69916.10129-5.3442,1.97116-7.19684,7.16439-7.22686,4.99825-.0289,10.01522-.2513,14.98571.12149,1.85509.13913,4.97783,1.50949,5.158,2.68177.7454,4.85105,4.061,3.84946,7.09084,4.00438,2.56284.131,5.1157.4571,7.673.69685l.0188,2.37422a66.947,66.947,0,0,1-8.71275.74148c-3.658-.14028-5.32862.6554-5.2995,4.89375q.27645,40.23535.011,80.47341c-.022,3.82762,1.22052,4.9825,4.88042,4.7291C148.9137,264.45044,152.88316,264.6614,157.37158,264.6614Zm-21.07-.26693c0-2.20633,0-4.15119,0-6.096q0-38.20794-.00006-76.41586c0-14.51363-.00134-14.36436-14.68657-14.48973-4.754-.04058-6.47861,1.45922-4.91283,6.65747,3.79542,0,7.75959-.17577,11.69421.08839,1.52769.10256,2.98864,1.19894,4.48,1.8426-1.42831.72134-2.81992,1.96042-4.292,2.06476-4.05322.28729-8.14013.09925-12.04675.09925v86.24917Zm25.01359-82.61991V264.3382h13.01225v-5.738q0-39.92107-.0002-79.84214c-.00015-7.85853-.00119-7.85853-7.801-7.77413-5.68724.06153-5.92168.34109-4.901,6.45219a57.53561,57.53561,0,0,1,6.7794.08789c.91263.10778,1.70968,1.19438,2.55933,1.83551-.85376.805-1.62339,2.15857-2.57815,2.305A47.97207,47.97207,0,0,1,161.31517,181.77456Z" transform="translate(-94.99459 -163.91442)"/><path d="M154.18765,205.4972c.00117,3.14617-.19238,6.30731.04938,9.4348.31342,4.05454-1.549,5.12725-5.29539,5.0754-3.65722-.05061-6.09465-.53982-5.91618-5.085.24668-6.28268.23907-12.58882.00585-18.87249-.1761-4.7445,2.89419-4.266,5.93243-4.36069,3.12707-.09746,5.63977.12383,5.27526,4.374C153.97115,199.18639,154.18648,202.351,154.18765,205.4972Zm-6.06207,9.9095,1.33611-.15355V195.457l-1.33611.02353Z" transform="translate(-94.99459 -163.91442)"/><path d="M183.10774,205.28348c3.59326,3.49293,3.49353,18.26664.10889,21.15665C180.61765,223.23606,180.397,209.64664,183.10774,205.28348Z" transform="translate(-94.99459 -163.91442)"/><path d="M189.0947,227.46861V205.64915l1.4363-.40161c.55622,1.10148,1.47072,2.15926,1.61124,3.31144C193.14873,216.81129,192.238,224.3385,189.0947,227.46861Z" transform="translate(-94.99459 -163.91442)"/><path d="M154.30553,249.006c-4.04441,3.03239-7.82191,2.89286-10.87155-.15094C146.56172,246.03985,150.67041,245.99821,154.30553,249.006Z" transform="translate(-94.99459 -163.91442)"/><path d="M142.588,254.80675h11.67442C151.76821,258.85283,146.40334,259.05128,142.588,254.80675Z" transform="translate(-94.99459 -163.91442)"/><path d="M186.69433,252.04434l-4.97233-3.32171c1.697-.62768,3.42181-1.8135,5.0836-1.731,1.77287.088,3.48625,1.3744,5.2256,2.13763Z" transform="translate(-94.99459 -163.91442)"/><path d="M187.04214,258.86993l-5.22767-2.76513c1.73067-.75091,3.4375-2.0203,5.199-2.10131,1.63618-.07526,3.33067,1.11729,4.99949,1.75164Z" transform="translate(-94.99459 -163.91442)"/><path d="M105.09882,209.8901l-3.1303-2.30145c1.21235-.75857,2.38518-2.01519,3.64975-2.11551.98226-.07794,2.079,1.2867,3.12481,2.01016Z" transform="translate(-94.99459 -163.91442)"/><path d="M105.30621,211.21838l3.39692,2.96663c-1.10151.74237-2.19714,2.05619-3.30618,2.06761-1.12647.01161-2.26617-1.26151-3.40007-1.972Z" transform="translate(-94.99459 -163.91442)"/><path d="M133.10479,191.7193c0,8.92038.13348,16.88087-.14762,24.82669-.04095,1.15757-2.05668,2.25049-3.17739,3.35428-.0858.08452-.32221.00844-.48755.021-10.19832.77482-10.19882.775-10.1974-9.60123.00065-4.81666.08314-9.63509-.02395-14.44933-.06464-2.906.99405-4.31857,4.05431-4.182C126.23071,191.82727,129.34724,191.7193,133.10479,191.7193Zm-9.82007,3.82023v19.78H129.474v-19.78Z" transform="translate(-94.99459 -163.91442)"/><path d="M126.12532,245.75105l6.78186,3.26606c-2.30147.69241-4.59609,1.89669-6.90641,1.9276-2.14189.02866-4.30055-1.19654-6.45183-1.86963Z" transform="translate(-94.99459 -163.91442)"/><path d="M126.002,258.83224l-6.46953-2.74439c2.23039-.74549,4.45939-2.06817,6.69155-2.07353,2.21578-.00532,4.43474,1.3152,6.6523,2.05428Z" transform="translate(-94.99459 -163.91442)"/><path d="M164.39252,254.41575l6.21894.36759a11.30912,11.30912,0,0,1-.28868,2.4988c-1.95861.178-3.93927.11341-5.91405.11341Z" transform="translate(-94.99459 -163.91442)"/><path d="M164.23938,206.22374c2.06582-.11073,4.13226-.264,6.196-.23412a10.98592,10.98592,0,0,1,.37047,2.16679l-6.396.75322Z" transform="translate(-94.99459 -163.91442)"/><path d="M171.35835,249.36706c-.98792.5688-2.04406,1.69-2.94793,1.57837-1.3943-.17223-2.68431-1.18867-4.01855-1.847,1.06133-.74953,2.05193-1.93849,3.20406-2.12394,1.13313-.18239,2.43017.65349,3.65528,1.04254Z" transform="translate(-94.99459 -163.91442)"/></svg>