<svg id="f1829429-fe56-4ced-a630-b12bb4558a1e" data-name="Layer 1" xmlns="http://www.w3.org/2000/svg" viewBox="0 0 109.397 107.45477"><path d="M116.29926,260.59343l-21.73414-6.99871-2.77349,4.59638-1.42937-.51225c.60671-2.02678.59907-5.02854,1.94749-5.8782,2.84228-1.79095,1.83952-3.88368,1.55508-5.97769a58.33867,58.33867,0,0,0-1.62488-8.2987c-2.53041-8.77913-.68662-16.40474,6.73535-21.76446,8.63838-6.23814,11.23967-14.24842,10.06064-24.51947-.77294-6.7335-.146-13.62771-.146-20.85394h73.19756c0,7.20359.5602,14.5199-.13765,21.71417-.934,9.62841,1.12624,17.24181,9.42151,23.245,7.56305,5.47328,9.74776,13.11206,7.09866,22.55477-1.41436,5.04146-4.07136,10.86037.81525,16.01371.77507.81739.55168,2.58155-.32256,4.23488l-2.727-4.58485-21.86358,7.0879c.9837,3.81025,1.83954,7.12527,2.69539,10.4403l-1.07442.83643c-1.59211-5.18082-5.45663-4.56529-9.24151-4.54465-14.49946.07906-29.00179-.09947-43.49767.14182-2.92857.04874-5.83367,1.50812-9.23341,2.4514Zm2.53032,4.295h53.02674c.5475-2.86831,1.044-5.46952,1.65342-8.6622-1.61249-3.02316-4.71963-6.62178-5.427-10.6426-1.43215-8.14013-1.63055-16.50452-2.199-24.78595-.23582-3.43536.67993-6.45416,4.74885-6.9665,4.1681-.52482,6.06465,1.99975,6.83524,5.6738.512,2.44094.91235,4.90528,1.36268,7.35915l.76361-.15487V172.49194h-68.308v53.86729c1.12522-1.93091,1.31641-4.01018,1.753-6.03658.77987-3.62,2.13178-6.92409,6.71124-6.49745,4.57494.42623,6.03806,3.95433,5.2,7.56906-2.78969,12.03244,1.62927,25.78656-9.17809,35.91014l1.92443.04359Zm-10.03093-53.96152-2.02228-1.33413c-2.41765,2.96088-4.50715,6.28908-7.32275,8.80452-5.491,4.90562-6.83916,10.712-5.205,17.58369.45995,1.93411.7496,3.9087,1.11756,5.86469,2.039,10.83875,2.01837,10.925,12.78671,13.50135a5.05535,5.05535,0,0,0,4.30669-1.562c3.70262-5.29107,7.50928-10.60564,6.73236-17.7238-.16148-1.47946,1.11773-3.0648,1.45388-4.66015a79.03346,79.03346,0,0,0,1.99766-11.68331c.06653-1.17335-1.92955-3.04335-3.3328-3.49149-.77668-.248-2.8921,1.57253-3.33454,2.83536-.97463,2.78182-.95175,5.91612-1.94825,8.68632-.75235,2.09152-2.45431,3.84144-3.73362,5.7434l-1.49562-.79931Zm73.27163,21.86333-2.10763.85456a69.4835,69.4835,0,0,1-3.67629-7.27338c-.68373-1.81866-.21978-4.13267-1.08549-5.80154-.91524-1.76441-2.79933-3.02625-4.26022-4.50761-.97578,1.876-2.99848,3.90677-2.74809,5.60168,1.15037,7.78693,2.90308,15.487,4.53624,23.19774a9.35006,9.35006,0,0,0,1.49223,2.5745c6.01964,9.83236,6.85327,10.1111,17.29057,5.09569a4.602,4.602,0,0,0,2.3489-2.72238c1.22175-6.349,2.31547-12.73019,3.16387-19.13879.24745-1.8692.21834-4.38957-.82562-5.70639-4.03011-5.0835-8.522-9.80094-12.84174-14.6548l-1.28673.78438Z" transform="translate(-90.36226 -164.47391)"/><path d="M163.78766,165.54563H127.0911l.00477-1.07172h36.695Z" transform="translate(-90.36226 -164.47391)"/><path d="M116.08869,194.67933c0-4.78578-.11079-9.57618.08878-14.35363a4.04658,4.04658,0,0,1,1.93582-2.84636c.61755-.32505,2.19273.32581,2.82469,1.01326,3.23848,3.5229,6.30993,7.19935,10.36278,11.89054-2.17976,0-3.71992.4599-4.70928-.08334-3.42821-1.88235-5.31005-.8095-6.7067,2.55512-.43339,1.04406-1.7089,1.73855-2.59888,2.59309Z" transform="translate(-90.36226 -164.47391)"/><path d="M158.53381,230.20018H132.26207l.00053-1.198H158.428Z" transform="translate(-90.36226 -164.47391)"/><path d="M158.45721,194.488H132.31546l-.01109-.96123h26.14076Z" transform="translate(-90.36226 -164.47391)"/><path d="M132.27214,215.352h26.25967l.02532,1.4939c-8.74775.37953-17.50368.15337-26.25724.10288Z" transform="translate(-90.36226 -164.47391)"/><path d="M132.2486,238.4613h26.22615c-8.662,2.23761-17.44564,1.34681-26.19143,1.49089Z" transform="translate(-90.36226 -164.47391)"/><path d="M158.38637,208.34013H132.34606l.00218-1.10193h26.13823Z" transform="translate(-90.36226 -164.47391)"/><path d="M132.34347,252.08476h26.3763C155.85645,254.27319,137.44537,254.70378,132.34347,252.08476Z" transform="translate(-90.36226 -164.47391)"/><path d="M144.74374,201.52853H132.31709V200.465H144.765Z" transform="translate(-90.36226 -164.47391)"/><path d="M132.31347,222.13953H144.735l-.007,1.03918H132.30821Z" transform="translate(-90.36226 -164.47391)"/><path d="M144.74088,246.48H132.31956l-.05682-.98635H144.73Z" transform="translate(-90.36226 -164.47391)"/><path d="M132.44292,183.74385H144.692l.0783.83448H132.4949Z" transform="translate(-90.36226 -164.47391)"/></svg>