<svg id="f9d7263c-ffdc-42a6-8735-d3ee324d0f4d" data-name="Layer 1" xmlns="http://www.w3.org/2000/svg" viewBox="0 0 123.64655 122.29731"><path d="M94.68538,210.482c-2.43567,1.78322-3.75783,3.36908-5.36933,3.759-1.64374.39767-4.2795.22671-5.1737-.81616-.87041-1.01512-.36191-3.52181.08237-5.23308.24653-.94958,1.58157-1.63279,2.45724-2.40041q26.67409-23.38259,53.36255-46.74879c4.98461-4.35851,5.764-4.33462,10.90324.15954q26.514,23.18587,52.99579,46.40858c1.00014.87644,2.42057,1.65427,2.79921,2.76617.51808,1.52128.92067,4.05533.11113,4.82051a6.55433,6.55433,0,0,1-5.19164,1.11675c-1.58836-.33887-2.89629-1.99216-5.23129-3.74754,0,2.61976.00005,4.37505,0,6.13034q-.00073,26.981-.01081,53.96194c-.01041,6.73837-.72221,7.42909-7.44809,7.43179q-43.4694.01754-86.93879-.00039c-6.68561-.00289-7.32987-.65242-7.339-7.51928q-.0356-26.7311-.00887-53.46229C94.68535,215.31173,94.68538,213.51485,94.68538,210.482ZM145.5406,165.6435c-13.84623,12.02374-27.4691,23.75154-40.90183,35.69322-1.199,1.0659-1.62085,3.51756-1.63134,5.3301-.11273,19.48623-.07794,38.97335-.05394,58.4602.00174,1.41964.23365,2.839.35557,4.2247h23.59482c0-2.21444-.00007-4.01893,0-5.82341.00048-10.32638-.029-20.65289.01318-30.9791.024-5.86063.75331-6.55638,6.7268-6.58607,7.32822-.03641,14.65676-.01612,21.98515-.00736,7.68023.00918,8.19025.52056,8.196,8.26566.00865,11.62568.00225,23.25138.00225,35.171h24.12629v-5.75935c0-16.98857-.37081-33.98907.17591-50.96.23057-7.15729-1.756-11.96549-7.38354-16.517C168.7352,186.4419,157.348,175.95672,145.5406,165.6435Zm-10.16174,68.6668c0,11.253-.05326,22.17379.11091,33.09125.01189.79073,1.58192,2.19871,2.46752,2.23127,5.59842.20581,11.20813.1044,17.03761.1044V234.3103Z" transform="translate(-83.66737 -155.80216)"/><path d="M145.731,200.014c-1.83189.00354-3.87663.51465-5.43772-.13551-1.67032-.69565-3.93218-2.43307-4.00156-3.813-.06835-1.35957,2.11881-3.81835,3.611-4.0738a33.21492,33.21492,0,0,1,10.91919-.01675c1.53989.25757,3.79383,2.60859,3.78017,3.98942-.01347,1.36137-2.28107,3.12065-3.93849,3.91412C149.30885,200.527,147.39631,200.01041,145.731,200.014Z" transform="translate(-83.66737 -155.80216)"/></svg>