<svg id="aa74b180-9bf0-4fa0-b016-5195d355da40" data-name="Layer 1" xmlns="http://www.w3.org/2000/svg" viewBox="0 0 123.45662 102.50374"><path d="M98.7478,198.05689c-3.91485-1.43778-8.18009-2.83393-12.28073-4.61009-1.29495-.5609-2.14947-2.13861-3.20556-3.251,1.02569-.96192,1.886-2.35343,3.10181-2.82144q28.15789-10.8392,56.43132-21.37485a8.89405,8.89405,0,0,1,5.686.20343q27.36652,10.13687,54.60366,20.6208c1.38351.53093,2.43047,1.93882,3.63387,2.93908-1.21934,1.164-2.24228,2.777-3.69319,3.41162-5.32721,2.33-10.73469,4.517-16.23772,6.388-2.88115.97954-3.71358,2.49061-3.68517,5.43765.143,14.82852-.01085,29.65984.12094,44.48857.03061,3.444-.93675,5.36438-4.40558,6.66131-9.49611,3.55041-18.76682,7.70211-28.25052,11.28853a10.68392,10.68392,0,0,1-7.02251.1715c-9.29473-3.61824-18.37039-7.79529-27.6249-11.52293-3.11242-1.25366-4.19988-3.00939-4.15926-6.3569.17182-14.1613.07144-28.32589.0728-42.48928.00024-2.48805.50629-5.42156-3.396-5.21873-3.08742.16047-5.44454,1.18349-5.01121,5.13036a79.67,79.67,0,0,1,.05482,8.34752c5.79895,1.04356,6.3887,5.17146,6.04772,10.04166-.25542,3.64814-.0834,7.32837-.05116,10.99386.034,3.86962-1.75788,5.74922-5.70733,5.96821-9.39781.52111-10.58378-.53738-10.58424-10.1477-.00016-3.33255-.07954-6.66818.04489-9.99613.04792-1.28164.15687-3.27241.92817-3.70254,5.9209-3.302,3.62049-8.83922,4.02544-13.63489C98.36124,202.92543,98.52416,200.82718,98.7478,198.05689ZM117,204.75578c0,10.50323-.03323,20.14261.01316,29.78161.02556,5.31032-1.66185,11.83332.80483,15.58773,2.45248,3.73281,9.40252,4.24436,13.91862,6.94153,10.32014,6.16354,20.22717,6.3122,30.61568.08273,4.77479-2.86321,12.24161-3.25116,14.83461-7.1754,2.62214-3.9683.77912-10.92024.80194-16.56556.04-9.89688.01116-19.794.01116-30.34555-9.65813,3.782-18.52058,7.48578-27.57214,10.64829a14.29543,14.29543,0,0,1-8.495.114C133.74764,211.20741,125.75327,207.99291,117,204.75578ZM94.09845,190.19036c8.70312,4.81215,16.99557,7,26.19354,2.38949,4.24747-2.12908,9.20916-2.78745,13.66818-4.562a10.59446,10.59446,0,0,0,4.82682-4.094c2.77561-4.6007,7.865-6.43,12.3347-3.93272a8.66022,8.66022,0,0,1,3.20988,12.442,9.079,9.079,0,0,1-13.12473,2.19174c-1.02947-.73991-2.34667-2.17261-3.16019-1.9471-6.57457,1.82246-13.06046,3.96482-20.84668,6.40931,8.04029,2.99378,14.71238,5.10522,21.0537,7.95319,5.40961,2.42953,10.20233,2.27032,15.59863-.14067,8.32753-3.72063,16.97889-6.71448,25.48056-10.04806,5.32771-2.089,10.63282-4.23571,17.15409-6.83773-12.942-4.92144-24.94413-8.76726-36.29774-14.01589-10.23569-4.73183-19.4193-4.83751-29.69451-.01916C118.82563,181.45073,106.46152,185.44054,94.09845,190.19036Zm4.88243,31.61333v15.44585l5.14948-.37763V221.80369Zm52.94886-33.90784c-2.36419-1.76235-3.75719-3.59962-4.95938-3.48226-1.32.12888-2.46427,2.05855-3.6851,3.20357,1.15456,1.17383,2.195,3.10411,3.497,3.30046C147.99041,191.09983,149.47777,189.4306,151.92974,187.89585Z" transform="translate(-83.26151 -165.62192)"/><path d="M144.06657,252.56609c-1.99714-1.26659-5.76815-2.67884-5.67821-3.77406.35176-4.28379,4.28129-2.03672,6.73779-2.59136a7.34775,7.34775,0,0,1,1.492-.01745c2.87708-.03542,6.32766.09939,6.1721-3.87874-.14147-3.61764-3.44659-3.25213-6.13454-3.32617-5.35823-.14761-8.78633-2.65006-9.64936-6.88555-.93-4.564,1.02248-7.89494,5.73375-10.33691,1.132-.58676,1.91558-1.86726,2.81134-2.87157.19657-.22039.0927-.80944.29051-.91118,1.03667-.5332,2.69951-1.65551,3.10447-1.31947,2.79028,2.31538,5.32168,4.94273,7.93634,7.46975-1.45108.78278-2.82562,1.932-4.3727,2.25514-1.91254.39946-4.13244-.35994-5.91512.25865-1.70616.592-3.02231,2.308-4.50989,3.53a34.31624,34.31624,0,0,0,4.63475,3.5655c.90144.49111,2.28147.07,3.44251.12446a7.84955,7.84955,0,0,1,7.61927,6.07188c1.12313,3.82073-.01422,7.123-3.13594,9.81952-1.56368,1.35069-2.6435,3.24686-4.1022,4.74-.72844.74563-2.33656,1.81631-2.65091,1.57465a23.18836,23.18836,0,0,1-3.28445-3.693Z" transform="translate(-83.26151 -165.62192)"/></svg>