<svg id="ac056c9a-e3b8-4774-96c4-150e77adf064" data-name="Layer 1" xmlns="http://www.w3.org/2000/svg" viewBox="0 0 99.41181 99.36305"><path d="M94.77527,209.415c.74069-2.41519,1.46186-4.83656,2.22512-7.2446a49.67058,49.67058,0,0,1,52.60441-34.50335c22.917,2.22743,41.62106,20.78146,44.25713,43.90205,2.90076,25.44219-13.88374,48.64026-39.30778,54.35457a20.26892,20.26892,0,0,0-2.40906.86115H136.63973a14.33272,14.33272,0,0,0-2.01436-.80017c-19.06564-4.48377-31.75349-15.94808-37.88739-34.58611-.70516-2.14264-1.31088-4.318-1.96271-6.47818Zm49.64515,52.322a44.56945,44.56945,0,0,0,.13768-89.13859c-24.4244-.16284-44.66365,19.97087-44.735,44.50171A44.76823,44.76823,0,0,0,144.42042,261.737Z" transform="translate(-94.77527 -167.42177)"/><path d="M144.6151,176.46146c22.68675.03831,40.53978,18.13061,40.48353,41.0261-.05563,22.64319-18.19738,40.45993-41.123,40.38627a40.70756,40.70756,0,0,1,.63945-81.41237Zm37.87611,40.80893a38.09894,38.09894,0,1,0-38.39528,37.99608A38.23941,38.23941,0,0,0,182.49121,217.27039Z" transform="translate(-94.77527 -167.42177)"/><path d="M137.888,200.47045c.53527.65191,1.48239,1.28153,1.57451,2.01808.25327,2.02521.79066,4.4207-.029,6.0394-.60128,1.18739-3.46852,2.25138-4.7849,1.79837a7.49122,7.49122,0,0,1-4.13132-4.27168c-.54853-1.71419.01512-4.13473.85468-5.8771,2.543-5.27751,7.25922-7.48495,12.86894-7.77811,5.82537-.30442,11.08021,1.16826,14.548,6.28761,3.58948,5.29892,2.31561,11.73248-3.4523,16.88505-3.75973,3.35861-7.73832,6.34085-8.87915,11.76751-.17873.85021-2.805,1.18586-4.79739,1.95048a21.11459,21.11459,0,0,1,4.97838-14.24822,52.05965,52.05965,0,0,0,4.81033-6.01c2.50529-4.13516,1.7014-8.84908-1.56538-11.10932C146.29528,195.44,140.96,196.52778,137.888,200.47045Z" transform="translate(-94.77527 -167.42177)"/><path d="M144.02559,243.89589a4.858,4.858,0,0,1-4.85038-4.93333,4.95371,4.95371,0,0,1,5.242-4.56663c2.80868.27419,4.46327,1.896,4.59149,4.75511A4.73514,4.73514,0,0,1,144.02559,243.89589Z" transform="translate(-94.77527 -167.42177)"/></svg>