<svg id="ae05e7ed-a9ca-4d82-bdc7-170fceceb3de" data-name="Layer 1" xmlns="http://www.w3.org/2000/svg" viewBox="0 0 73.79427 99.23683"><path d="M126.56125,266.78482c-.83166-.3024-1.64944-.6523-2.49709-.9-10.224-2.98754-16.29874-10.23143-16.41486-20.88554-.24076-22.09032-.14859-44.18545-.033-66.27776.0353-6.74442,4.837-11.23876,11.29082-11.17024,6.33952.0673,10.79055,4.772,10.87477,11.56694.04956,3.999.00905,7.99906.00905,12.59219,5.419-2.246,10.28461-1.8942,14.55352,2.33191,4.23727-4.04233,9.05987-4.72255,14.65-2.30182,0-4.594-.04992-8.69807.0114-12.80049.098-6.55569,4.53311-11.25391,10.66245-11.38862,6.50754-.143,11.42836,4.22388,11.4757,10.96441.15607,22.22089.247,44.44594-.028,66.66456-.13251,10.70873-6.14713,17.73767-16.49854,20.79714a10.10129,10.10129,0,0,0-1.61871.80731Zm-13.45333-46.96236c-1.05648,7.99728.13664,10.07222,7.09368,12.67385a14.3533,14.3533,0,0,0,3.32731.99268c9.84308,1.10051,19.70028,2.07744,29.53637,3.23495,1.60195.18852,3.12082,1.083,4.67809,1.65112a35.81841,35.81841,0,0,1-2.88384,4.44163c-1.345,1.54739-3.1189,2.7176-4.49844,4.24016-3.61408,3.98872-6.21444,8.45864-6.23185,15.25051,7.19028-.67991,14.16136-.71456,20.82689-2.15911,5.743-1.24463,10.05426-5.6283,10.43593-11.67312.5967-9.45025.1581-18.96587.1581-28.65267Zm-.36447,14.99921c0,3.9689-.13735,7.199.02652,10.41375a16.64229,16.64229,0,0,0,14.96021,16.11282c2.03989.267,4.12194.19685,6.17146.40878,3.21218.33215,4.97752-.15831,5.47753-4.22178.44976-3.65506,2.67848-7.14359,4.39595-10.56845.87445-1.74376,2.35026-3.186,3.88321-5.1958C135.49376,241.02848,123.89516,240.43764,112.74345,234.82167Zm11.76383-20.335c0-12.41789.14188-24.61874-.09545-36.81222-.06272-3.22241-2.63456-4.93881-5.87018-4.98845a5.86546,5.86546,0,0,0-5.75885,6.0695c-.07221,11.59271.01541,23.18647.07065,34.77968.00157.32859.32819.65563.48621.95149Zm51.5408.0026c0-11.71471.0197-23.14925-.01009-34.58366-.0113-4.33453-2.31788-7.14609-5.80452-7.25143-3.67942-.11116-6.03744,2.67532-6.054,7.34148-.03668,10.30716-.019,20.61456-.00095,30.92182.002,1.12357.15186,2.24687.24771,3.57179Zm-34.15675.00849c0-4.56.18745-8.79291-.05732-13.0007-.20842-3.58273-2.80474-6.075-5.88972-5.99446-3.45616.09029-5.71714,2.09176-5.9812,5.40706-.3532,4.43457-.08738,8.91844-.08738,13.5881Zm17.06335.00323c0-4.7245.19233-8.977-.06132-13.20271-.20016-3.33457-2.23547-5.5759-5.66033-5.76136a5.41592,5.41592,0,0,0-6.09231,5.20186c-.38921,4.53654-.09736,9.13152-.09736,13.76221Z" transform="translate(-107.49827 -167.54799)"/></svg>