<svg id="aaa408c4-5e4e-49df-a258-3b77765e38e9" data-name="Layer 1" xmlns="http://www.w3.org/2000/svg" viewBox="0 0 118.56145 77.89803"><path d="M103.826,217.67561a38.22734,38.22734,0,0,1,38.58844-38.6746,38.49938,38.49938,0,1,1-.19254,76.99851A38.14846,38.14846,0,0,1,103.826,217.67561Zm5.17534-.68455A33.55993,33.55993,0,0,0,141.941,250.8213c18.02471.28357,33.50206-15.082,33.517-33.27494.01474-17.98744-14.87685-33.05364-32.97827-33.36493C124.66929,183.87514,109.243,198.99323,109.00131,216.99106Z" transform="translate(-85.72127 -178.63129)"/><path d="M191.00012,190.5815c0-2.09947-.33373-4.27016.09477-6.2782.42038-1.96991,1.48225-5.29163,2.49508-5.38085,3.77259-.33232,2.29867,3.05511,2.558,5.094.28847,2.26811.37269,4.5622.54583,6.845l1.88318-.06525a44.94611,44.94611,0,0,1,.51989-7.26938c.393-1.73581,1.67224-3.271,2.55669-4.8955.84008,1.68619,2.33164,3.34462,2.4049,5.0635.28322,6.64523.31238,13.3189.0058,19.9621-.10711,2.32073-.78452,5.487-2.38457,6.67891-2.99845,2.23358-2.93571,4.85444-2.85189,7.81869.3008,10.63756.57484,21.276.9248,31.912.14313,4.34978-1.72786,6.48412-6.19237,6.46266-5.19642-.025-6.76926-1.23239-6.69992-6.264.15813-11.47362.53416-22.94419.70412-34.41774.01955-1.31887-.28452-3.28-1.15948-3.86493-3.90782-2.6125-4.3968-6.282-4.26932-10.48257.17157-5.65353-.0523-11.31855.08984-16.97372.056-2.22741-1.17981-5.71948,2.69355-5.55524.94264.04,1.89411,3.71954,2.524,5.8208.36783,1.22713-.14927,2.71816.213,3.94877.26877.91294,1.31208,1.59784,2.01037,2.38431Zm-4.45481,5.64173c1.10973,4.15842,1.33164,8.04975,3.15634,10.9233,1.65663,2.60887,6.02411,1.772,7.27788-.22853,1.78762-2.85238,1.85954-6.78,2.76791-10.69477Zm7.21689,25.42982-1.05595.00141v29.209l1.05595-.00386Z" transform="translate(-85.72127 -178.63129)"/><path d="M98.99958,217.90973c-.00038,10.65849.12121,21.31982-.12676,31.97254-.0388,1.66668-1.7583,3.29424-2.70065,4.93989-.78195-1.56925-2.20172-3.123-2.24031-4.71033-.21856-8.98781.05264-17.98876-.23542-26.97265a8.1286,8.1286,0,0,0-2.80122-5.46116c-3.30385-2.57-5.1052-5.55244-5.07569-9.71827.0401-5.66205-.33741-11.35612.16691-16.97337a13.39939,13.39939,0,0,1,3.37414-7.84862c1.74278-1.72116,4.98723-1.92179,7.57-2.79237.68978,2.196,1.93,4.38074,1.97537,6.59C99.11778,197.25646,99,207.5843,98.99958,217.90973ZM93.53427,186.3606c-3.58754,5.207-3.32408,22.28683,0,25.84675Z" transform="translate(-85.72127 -178.63129)"/><path d="M134.21278,229.492c3.55058-10.33376,9.80172-10.34216,18.08735-5.86819,2.4319,1.31315,6.46595-.60341,9.74537-.48355,1.57594.05761,3.10455,1.40937,4.6546,2.17507-1.29345.94662-2.46443,2.41215-3.90126,2.75128-6.71454,1.58479-13.43473,2.166-19.45892-2.33721-.77224.86274-1.19242,1.34758-1.62891,1.81726-2.416,2.5997-5.529,7.75657-7.12774,7.32393-5.28623-1.43051-10.07007-4.80471-14.91641-7.65457-.55643-.3272-.68275-2.80855-.33613-2.9873,1.13036-.58292,2.829-1.12979,3.8476-.6695C126.64156,225.1241,129.90707,227.12659,134.21278,229.492Z" transform="translate(-85.72127 -178.63129)"/><path d="M144.76011,205.50187a9.56571,9.56571,0,0,1-9.25133,9.30881,9.31011,9.31011,0,1,1-.02363-18.61861A9.6203,9.6203,0,0,1,144.76011,205.50187Zm-9.45768-5.56971c-1.80631,2.61128-3.70531,4.15415-3.56952,5.4902.14274,1.40432,2.23328,2.61066,3.47267,3.90352,1.33037-1.3333,3.41681-2.50745,3.742-4.05234C139.18967,204.1234,137.15154,202.49329,135.30243,199.93216Z" transform="translate(-85.72127 -178.63129)"/></svg>