<svg id="fa69825a-6d59-4c7d-8e72-96dc05e8d6be" data-name="Layer 1" xmlns="http://www.w3.org/2000/svg" viewBox="0 0 101.74843 101.59787"><path d="M93.7938,180.08217c1.9042-2.70574,4.4978-3.64643,7.7955-3.6149,12.03305.11509,24.06786.04393,36.102.04835a6.07786,6.07786,0,0,1,2.35238.12628,10.8192,10.8192,0,0,1,2.20727,1.7678c-.67491.65829-1.24435,1.6-2.05236,1.90071a9.37793,9.37793,0,0,1-3.14237.163c-11.50518.00682-23.013.14613-34.514-.07352-3.89065-.07431-4.92091,1.25223-4.86286,5.01523.206,13.35341.08038,26.71193.08039,40.06851v3.96989h6.638c-.425-9.53463,2.466-16.89712,11.78469-19.18538-.33517-4.82752-.92153-9.34386-.89075-13.856.03589-5.26117,3.1216-8.18381,8.38481-8.67186,12.21271-1.13247,12.29178-1.13164,12.16334,11.063-.03815,3.62266-.65714,7.23921-1.05692,11.34,9.12483,2.38147,12.60832,9.486,11.7797,19.29957h34.18764a74.96,74.96,0,0,1,.087-7.64627c.0974-.9262,1.1786-1.74894,1.81138-2.61885.665.83624,1.88895,1.66124,1.906,2.51049.1301,6.47395.18625,12.959-.067,19.42751-.15657,3.99928-3.07824,5.219-6.63334,5.23066-7.80227.02563-15.60467.01364-23.407.01676-1.576.00062-3.15208.00009-5.459.00009a51.94914,51.94914,0,0,0,.12158,7.54487c.1378.91049,1.52779,1.8564,2.5555,2.36583a10.03216,10.03216,0,0,1,5.961,7.81843c.357,2.26368-.56907,3.28272-2.72493,3.28684q-15.67071.02991-31.34152.00593c-2.59209-.00129-3.1075-1.5384-2.673-3.71368.907-4.541,3.95415-6.9778,8.40017-8.18219v-9.12612c-5.84921,0-11.61206.00017-17.37491-.00008-3.43833-.00015-6.88181-.11835-10.31351.0322a8.33882,8.33882,0,0,1-7.80486-3.60306Zm4.44863,53.78013c-1.48541,8.20886-1.22229,8.534,6.72246,8.53409q34.29276.00051,68.58552,0c7.76606-.00013,7.77274-.0052,6.96413-7.71325-.02333-.22244-.27421-.421-.55025-.82081Zm44.08258-4.35653c.73964-5.89265-.08366-10.73893-5.11455-13.9555-2.18357-1.3961-4.047-1.58279-6.18391.69977-5.82665,6.22386-5.13994,6.1956-11.04447-.07058-1.97951-2.10074-3.72288-1.97175-5.865-.79523-4.63377,2.545-6.66855,8.35529-4.88066,14.12154Zm10.54516,33.814.24882-1.32019c-6.96975-5.01951-15.18532-1.71833-22.78107-2.36327-1.6654-.14141-3.49761,1.68183-5.253,2.60031l.56385,1.08315Zm-19.15735-16.74031v8.60732h10.9881v-8.60732Zm-14.0129-45.01058-1.31274,1.075c1.36368,2.14342,2.28775,4.98521,4.23076,6.20827,1.54186.97056,4.62926.57836,6.49624-.31952,2.71237-1.30445,3.14236-4.17073,2.6265-6.96377Zm-.29687-3.9652c2.73176,0,5.20644.02371,7.68051-.00514,4.58877-.0535,5.40119-1.164,4.22893-5.70784C122.838,191.147,118.84729,191.413,119.40305,197.60365Z" transform="translate(-93.7938 -165.7938)"/><path d="M188.25582,165.7938c5.78829,2.94582,7.677,7.72266,7.22135,14.044-.38888,5.39527-.02769,10.8414-.09595,16.26379-.08169,6.48824-4.12315,10.61662-10.63368,10.80471a107.78872,107.78872,0,0,1-12.69048-.04957c-4.6109-.41309-8.13091.88137-11.01975,4.52552-.862,1.08741-2.55024,1.51987-3.85992,2.25242a34.0472,34.0472,0,0,0-1.464-4.1516c-.59608-1.20361-1.27287-2.74321-2.34086-3.27056-4.11943-2.03409-6.27136-5.23316-6.34718-9.71453-.11633-6.87625-.02139-13.7559-.03746-20.63407-.01183-5.0617,3.40492-7.67129,7.13458-10.07011Zm-27.2875,40.02348c1.66973-2.90357,5.02373-2.98217,8.57072-2.87945,4.87746.14124,9.76423.12164,14.64316.007,5.03435-.11831,7.18038-2.32892,7.23437-7.36289q.09975-9.30036-.00151-18.60247c-.05685-4.87835-2.19685-7.1432-6.94345-7.191q-13.25811-.13365-26.51841-.00173c-4.77369.04586-6.93042,2.28856-6.98867,7.14627-.07593,6.332-.011,12.66553-.01979,18.99839-.00531,3.84527,1.80717,6.06574,5.60209,7.01737C157.98679,203.3098,159.18806,204.62269,160.96832,205.81728Z" transform="translate(-93.7938 -165.7938)"/><path d="M171.198,183.9404c3.56727.00019,7.1418-.12227,10.69662.0881.866.05125,1.66726,1.19584,2.49829,1.83771-.837.665-1.66194,1.88855-2.51288,1.90691q-10.69655.23076-21.39927-.00291c-.84454-.01847-1.66251-1.25148-2.49279-1.9215.83606-.63617,1.64284-1.77017,2.51331-1.82136C164.05626,183.81831,167.63071,183.9402,171.198,183.9404Z" transform="translate(-93.7938 -165.7938)"/><path d="M171.18163,196.60426c-3.43517-.00019-6.881.14982-10.29892-.093-1.0056-.07143-1.93215-1.25538-2.89494-1.92947.96778-.63946,1.92309-1.81,2.90535-1.833q10.29987-.24182,20.60707.00095c.97818.02313,1.929,1.20266,2.89253,1.847-.96853.66925-1.90131,1.84416-2.9121,1.91563C178.06254,196.754,174.6168,196.60445,171.18163,196.60426Z" transform="translate(-93.7938 -165.7938)"/><path d="M175.519,175.2393a62.41563,62.41563,0,0,1,6.7338.08565c.76749.08364,1.427,1.15831,2.13583,1.78029-.69581.65643-1.37013,1.85279-2.09094,1.88149-4.62017.184-9.25475.21463-13.87359.02617-.80539-.03286-1.55863-1.34386-2.33595-2.06453.89536-.58078,1.74653-1.557,2.695-1.663a60.903,60.903,0,0,1,6.73584-.07936Z" transform="translate(-93.7938 -165.7938)"/></svg>