<svg id="f2116e0f-042c-40b7-9933-f0f978697c7b" data-name="Layer 1" xmlns="http://www.w3.org/2000/svg" viewBox="0 0 115.95549 113.95954"><path d="M160.186,240.69736l-4.15485,1.14593v31.96143h-8.209c-.68672-5.33554-1.39777-10.86006-2.10881-16.38457l-.81548-.14634c-.71908,5.34828-1.43817,10.69657-2.20968,16.43477h-8.21567v-32.1685l-4.25633-.892c0-7.85586-.19116-15.4914.1229-23.10611a11.28169,11.28169,0,0,1,2.64041-6.232c3.633-4.35191,7.12036-3.9005,9.98325.8687.67222,1.11981,1.40493,2.20331,2.40839,3.76955.96774-1.54773,1.76052-2.70544,2.442-3.9253,2.51007-4.49281,5.16414-5.17,8.77343-1.43a12.63027,12.63027,0,0,1,3.43923,7.321C160.47516,225.3597,160.186,232.85008,160.186,240.69736Zm-15.96,1.52117,1.92009.07915c.29927,1.52163.68488,3.03213.883,4.56683.89446,6.92841,1.64606,13.877,2.676,20.78458.194,1.301,1.42092,2.44806,2.17121,3.66614.56-1.32223,1.62234-2.65238,1.60168-3.96548-.19367-12.31087-.58984-24.61843-.87468-36.92816a34.74156,34.74156,0,0,1,.40021-4.2197l1.70656-.00122.89456,11.97661,1.325-.1c0-7.34906.3205-14.72149-.21249-22.03169-.14348-1.96791-2.88058-3.74672-4.23606-5.38186-3.12164,3.175-5.4212,5.51388-7.72077,7.85274l-6.69759-7.34735c-4.353,1.81091-5.27773,2.83889-5.37164,7.10629-.1281,5.82161-.07269,11.64855.00106,17.472a9.77426,9.77426,0,0,0,.83374,2.6693l.9985-.15806.90926-12.04892,1.86763.05648c.12919,1.80229.40958,3.60848.36313,5.40622-.3094,11.975-.733,23.94722-.97822,35.92325-.02518,1.23022.88066,2.47951,1.35449,3.71995.83892-1.15154,2.23911-2.22015,2.42356-3.4684,1.02094-6.90883,1.70844-13.86622,2.5998-20.79544A44.13429,44.13429,0,0,1,144.22594,242.21853Z" transform="translate(-87.0441 -159.84518)"/><path d="M163.46719,216.989a17.97341,17.97341,0,0,1,3.45537-.83956c3.15112-.1075,6.31432-.1639,9.46135-.00875,3.60574.17777,6.384.04328,8.19308-4.22707,1.83864-4.34022,7.15822-5.74278,11.56612-4.313,4.72176,1.53159,6.73748,4.77158,6.85327,10.23966.10842,5.12-2.53148,8.08529-7.03216,9.63224-4.312,1.48211-9.623-.19852-11.52234-4.49623-1.71478-3.88-4.22127-4.23592-7.71346-4.1384-4.11945.115-8.25134-.1914-12.37582-.36352C164.184,218.46735,164.036,217.96646,163.46719,216.989Zm29.70156,8.06484a7.60854,7.60854,0,0,0,7.61538-7.54033,7.69711,7.69711,0,1,0-7.61538,7.54033Z" transform="translate(-87.0441 -159.84518)"/><path d="M171.58673,192.8521l-13.04659,13.78114a2.8552,2.8552,0,0,1,.64371-1.4426c2.74314-2.88582,5.51026-5.7583,8.42043-8.47312,2.71522-2.533,4.72356-4.5522,2.88148-9.09944-1.76316-4.35245.83936-8.39712,5.01215-10.79411a10.25448,10.25448,0,0,1,12.34763,1.91469c3.27841,3.53561,3.97941,7.53556,1.66078,11.89615a10.14719,10.14719,0,0,1-11.32736,5.2664,34.574,34.574,0,0,1-4.15853-1.46267Zm8.78723-14.88855a7.78636,7.78636,0,0,0,.08916,15.57164,7.7861,7.7861,0,0,0-.08916-15.57164Z" transform="translate(-87.0441 -159.84518)"/><path d="M129.71093,208.5605c-3.59542-3.91224-7.22084-7.7975-10.77242-11.74914-1.56073-1.73653-2.83831-2.51111-5.49523-1.42349a9.8238,9.8238,0,0,1-12.46785-4.43059,10.35365,10.35365,0,0,1,1.66036-12.42969,10.5603,10.5603,0,0,1,12.895-1.31406c4.15039,2.65986,5.992,7.33922,3.93679,12.20624-1.13507,2.688-.21375,3.90771,1.44292,5.49721,3.12269,2.99609,6.19,6.05438,9.16949,9.19212a13.61233,13.61233,0,0,1,1.68178,3.03939Zm-11.80659-22.60825a7.96262,7.96262,0,0,0-7.359-7.96684,7.76875,7.76875,0,1,0-.93817,15.50742A7.95852,7.95852,0,0,0,117.90434,185.95225Z" transform="translate(-87.0441 -159.84518)"/><path d="M126.29933,218.24555c-4.67124,0-9.3467.12-14.01216-.0442-2.88285-.10148-4.77721.28759-6.14153,3.47441C104.134,226.3746,99.23613,228.236,94.511,227.0409c-4.65307-1.17683-7.43658-4.85484-7.46664-9.86613-.03-5.00382,2.74194-8.847,7.25387-10.05717,4.7031-1.26144,9.698.569,11.708,5.22856,1.37846,3.19561,3.30006,3.53075,6.159,3.43689,4.70284-.15441,9.41445-.04187,14.12237-.04187Zm-21.54176-1.2707a7.58734,7.58734,0,0,0-7.85322-7.29355,7.68606,7.68606,0,0,0-7.58172,7.595,7.71975,7.71975,0,1,0,15.43494-.30149Z" transform="translate(-87.0441 -159.84518)"/><path d="M144.3543,191.42208a13.02091,13.02091,0,0,1-.46367-3.16477c.44507-4.5035-.22625-7.73575-5.04816-10.27221-5.16424-2.71655-5.24339-10.3932-1.19029-14.8122a10.31131,10.31131,0,0,1,15.07766-.10171c4.11431,4.395,4.12017,11.99359-1.06618,14.81346-4.94158,2.68679-5.49265,6.14142-5.16229,10.74451a9.46176,9.46176,0,0,1-.80253,2.96836Zm.892-28.87394a7.34585,7.34585,0,0,0-7.538,7.4835,7.5796,7.5796,0,0,0,7.319,7.79575,7.80884,7.80884,0,0,0,7.90986-7.8135A7.64179,7.64179,0,0,0,145.24628,162.54814Z" transform="translate(-87.0441 -159.84518)"/><path d="M145.26916,207.26118a6.30621,6.30621,0,0,1-6.49266-6.69566c.27115-3.93428,2.65614-6.05069,6.46978-6.277,3.48525-.20684,6.75573,3.31434,6.61817,6.76471A6.63624,6.63624,0,0,1,145.26916,207.26118Zm5.50709-6.72195c-2.63987-1.684-4.2477-3.52-5.56926-3.333-1.42511.20166-2.58226,2.29691-3.85631,3.56608,1.40538,1.31924,2.66323,3.38493,4.26671,3.70185C146.73274,204.6946,148.32286,202.5129,150.77625,200.53923Z" transform="translate(-87.0441 -159.84518)"/></svg>