<svg id="f30a66ff-17f9-41a7-b06f-d8b99115c15c" data-name="Layer 1" xmlns="http://www.w3.org/2000/svg" viewBox="0 0 101.58296 77.98977"><path d="M93.7938,247.555c2.50895-4.77923,5.10729-9.51506,7.46431-14.36809a10.09145,10.09145,0,0,0,.56382-4.23984c.03685-15.19865.01567-30.39742.02722-45.59615.004-5.25119.47138-5.73247,5.58215-5.73426q37.26995-.013,74.53989.00137c4.8433.00221,5.36455.54326,5.372,5.5451.01726,11.63031.42826,23.28081-.12492,34.88477-.46142,9.679,1.09518,18.5081,6.394,26.70929,1.134,1.75513,1.48083,4.16055,1.71986,6.3185.34508,3.11556-1.3232,4.52781-4.501,4.52392-30.7939-.03774-61.58795.0021-92.38161-.093-1.55353-.0048-3.10386-1.04378-4.65568-1.60123ZM184.092,230.72493V180.8465H105.09746v49.87843Zm7.29443,16.17065c-2.1285-4.26676-3.83876-7.95719-5.83285-11.48729a3.795,3.795,0,0,0-2.86712-1.38056q-38.09271-.11172-76.18573.00026a3.792,3.792,0,0,0-2.86369,1.38607c-1.99354,3.53-3.70386,7.21989-5.82976,11.48127,10.1069,0,19.57276-.10185,29.03394.06389,2.73336.04789,4.15131-.6267,4.54823-3.48821.36942-2.66328,1.58944-4.674,4.87862-4.602,5.55257.12153,11.10988.05675,16.6649.02263,2.44346-.015,4.2625.91316,4.49224,3.45783.38422,4.25574,2.8854,4.84879,6.52436,4.6126,4.34652-.28211,8.72534-.06653,13.09017-.06653ZM144.18,252.62839q21.81527,0,43.63055-.00317a16.75547,16.75547,0,0,0,3.15939-.12332c.48627-.09438.86342-.751,1.29-1.15292-.47808-.46577-.88286-1.15249-1.45273-1.34153a7.79541,7.79541,0,0,0-2.3611-.0733q-43.82886-.00136-87.65773-.00066a4.36574,4.36574,0,0,0-1.57246.03607,18.27345,18.27345,0,0,0-2.28822,1.33926,11.55307,11.55307,0,0,0,2.44389,1.26324,11.5639,11.5639,0,0,0,2.76437.05608Q123.158,252.62894,144.18,252.62839Zm-10.22437-5.90226h21.27893c.18971-3.54254-1.06646-5.13653-4.75528-4.83826a74.12225,74.12225,0,0,1-11.42035.00345C135.646,241.638,133.73217,242.59008,133.95559,246.72613Z" transform="translate(-93.7938 -177.60989)"/><path d="M178.09786,224.465c0-4.47211-.10858-8.6777.07777-12.87018.04553-1.02422,1.05773-2.00547,1.62548-3.00648.43911.966,1.223,1.91992,1.25724,2.9.143,4.09048.0121,8.18962.07854,12.284.04162,2.565-.88745,3.97507-3.66172,3.97149q-32.89578-.04248-65.79165-.00454c-2.48339.00224-3.63244-1.13324-3.61421-3.60553.03214-4.35944-.061-8.72138.06959-13.07715.025-.83429.8389-1.64493,1.28885-2.46648.55475.88,1.55379,1.7427,1.58877,2.64288.168,4.32351.07549,8.65714.07549,13.23192Z" transform="translate(-93.7938 -177.60989)"/><path d="M178.10354,186.82431H111.09813c0,4.38334.12208,8.57325-.079,12.7476-.05585,1.15957-1.06962,2.273-1.64391,3.40762-.43386-1.11762-1.19279-2.22117-1.24184-3.35543-.15972-3.69309.12294-7.409-.11158-11.09411-.23477-3.68906,1.31649-4.84828,4.85567-4.82974,19.16012.10038,38.32105.04665,57.48171.04666,2.24641,0,4.49481.06429,6.73874-.00931,2.80264-.09193,4.13135,1.06245,4.05017,3.98616-.11733,4.22531.03941,8.45845-.09046,12.683-.02674.86993-.79928,1.71694-1.22807,2.57451-.57536-.86705-1.61382-1.71633-1.64791-2.60416C178.011,195.93263,178.10354,191.478,178.10354,186.82431Z" transform="translate(-93.7938 -177.60989)"/></svg>