<svg id="fe52303d-17bb-4c18-ba30-0012b1918d28" data-name="Layer 1" xmlns="http://www.w3.org/2000/svg" viewBox="0 0 107.14695 107.57232"><path d="M90.98538,216.50043c0-8.157-.10874-16.31572.02269-24.47059.27146-16.84183,11.89981-28.42559,28.81165-28.5726,16.3127-.14181,32.62784-.1137,48.94126-.03219,16.485.08237,28.63946,11.53075,29.00431,27.9658.38414,17.304.41766,34.63195-.02548,51.93332-.41031,16.02024-12.30089,27.29653-28.34661,27.46705q-24.96736.26535-49.93942.00018c-16.78524-.19364-28.34344-12.01218-28.49907-28.82159-.07859-8.4891-.01372-16.97955-.01372-25.46938Zm53.27471,51.10911c8.65909,0,17.31964.10194,25.97692-.023,14.29714-.20633,24.44552-10.40793,24.53006-24.7239q.15194-25.72671.00688-51.45478c-.102-14.37757-10.69-24.78458-25.08419-24.83559q-24.97706-.0885-49.95454-.01815c-15.41771.0577-25.70689,10.28193-25.78255,25.65462q-.12418,25.22682.00407,50.4547c.07422,14.60064,10.16717,24.7202,24.826,24.93011C127.27356,267.71513,135.76754,267.61564,144.26009,267.60954Z" transform="translate(-90.91583 -163.35739)"/><path d="M144.51465,261.20683c-8.15439-.002-16.30926.05342-24.46306-.01541-11.45134-.09666-19.57557-8.00553-19.668-19.40381q-.1983-24.46161-.01436-48.926c.06906-11.72429,8.16332-19.68451,19.86633-19.71073q24.21347-.05427,48.42712.003c11.564.0346,19.45591,7.87634,19.49715,19.407q.08838,24.7125-.00342,49.42551c-.046,11.24509-7.92062,19.10234-19.17885,19.20763C160.82394,261.27026,152.669,261.20888,144.51465,261.20683ZM103.75723,217.2402c0,8.49109-.09241,16.98346.02533,25.4729.12407,8.94618,5.05108,14.80594,13.93411,15.01885q26.70266.64,53.42981.015c8.51716-.19423,13.71747-6.111,13.80147-14.67883q.2522-25.72039.00023-51.44471c-.09877-9.52412-5.8418-15.0967-15.44286-15.17245q-24.9722-.197-49.94686-.00506c-10.2464.08237-15.66378,5.61759-15.782,15.82074C103.68,200.59015,103.75681,208.91562,103.75723,217.2402Z" transform="translate(-90.91583 -163.35739)"/><path d="M120.11229,216.8936c.06966-12.86669,11.57709-24.21142,24.40228-24.05726,13.00846.15636,24.14913,11.41521,24.12787,24.38383-.02122,12.95024-11.29732,24.31625-24.19672,24.38964C131.38272,241.68414,120.04045,230.16344,120.11229,216.8936ZM144.254,238.21737c12.25665.01211,21.05805-8.73895,21.06186-20.94141.00381-12.20538-8.88323-21.31124-20.85349-21.36693a20.94577,20.94577,0,0,0-21.18687,21.155C123.25265,229.20909,132.17465,238.20544,144.254,238.21737Z" transform="translate(-90.91583 -163.35739)"/><path d="M170.47429,197.50719c-3.00891.08468-7.38226-3.66134-6.38647-6.283a12.34634,12.34634,0,0,1,5.91631-6.22377c2.571-1.17324,6.60721,2.82071,6.78991,5.83947C176.97083,193.76077,173.50041,197.422,170.47429,197.50719Zm-.31411-10.73008c-1.4578,1.94133-3.23663,3.34776-3.00473,4.219.38142,1.43292,2.06541,2.51911,3.20023,3.75148,1.04137-1.29024,2.64073-2.47158,2.92152-3.91026C173.45468,189.92791,171.66406,188.63441,170.16018,186.77711Z" transform="translate(-90.91583 -163.35739)"/><path d="M158.935,217.285c-.09124,7.69855-7.26927,14.60546-14.98508,14.41909-7.47874-.18064-14.27828-7.243-14.167-14.71466.1085-7.28412,7.31418-14.58011,14.48129-14.66279C151.565,202.24237,159.02316,209.84673,158.935,217.285Zm-14.41476,11.2717a11.25325,11.25325,0,0,0,11.34634-11.39972,11.47289,11.47289,0,0,0-11.89614-11.4521,11.30736,11.30736,0,0,0-11.01619,11.73882A11.094,11.094,0,0,0,144.52025,228.55666Z" transform="translate(-90.91583 -163.35739)"/></svg>