<svg id="b8a9b430-1e4d-4111-8d98-938edc96eddd" data-name="Layer 1" xmlns="http://www.w3.org/2000/svg" viewBox="0 0 280.7891 280.73323"><path d="M3.27415,202.78341c.26357-2.6735.51022-5.3488.79342-8.02023a135.027,135.027,0,0,1,17.71826-54.36832,141.42584,141.42584,0,0,1,62.47129-57.597,135.076,135.076,0,0,1,40.101-11.91878A140.20467,140.20467,0,0,1,161.51282,70.68,137.60827,137.60827,0,0,1,220.1991,92.29991,139.31252,139.31252,0,0,1,273.146,155.6725a135.392,135.392,0,0,1,10.4799,64.25047c-2.88434,36.52-17.77848,67.43044-44.41664,92.57248a139.48411,139.48411,0,0,1-88.4726,37.57322,12.34719,12.34719,0,0,0-1.34255.20548h-11.7883c-.3986-.07232-.7945-.16957-1.19622-.21318-5.21418-.56618-10.46-.92511-15.63811-1.72333A132.27452,132.27452,0,0,1,79.6458,334.78777a140.08949,140.08949,0,0,1-57.446-54.65829,137.58764,137.58764,0,0,1-18.126-55.35881c-.2934-2.75712-.53437-5.51982-.79961-8.27994Zm274.96292,6.99671c.06034-73.95975-60.21958-134.29693-134.326-134.45363C69.98695,75.17018,9.14464,135.65894,9.04424,209.47661,8.943,283.88042,69.11341,344.197,142.86348,344.468A134.76752,134.76752,0,0,0,278.23707,209.78012Z" transform="translate(-3.27415 -69.54092)"/><path d="M265.47466,199.25757c-2.25721,2.24216-3.61618,4.60842-3.48386,7.82606a68.98006,68.98006,0,0,1-.50231,8.33645,2.20076,2.20076,0,0,1-.5792,1.29525c-1.95653,1.91893-3.94376,3.80835-5.976,5.64657a2.06506,2.06506,0,0,1-1.43755.44541c-2.36029-.24313-4.71747-.54048-7.05928-.92028a2.4461,2.4461,0,0,1-1.385-.90754,45.2635,45.2635,0,0,1-2.69381-3.9617,2.17114,2.17114,0,0,1-.23271-1.582c.53681-1.69323,1.17118-3.36018,1.86805-4.99474a1.72975,1.72975,0,0,1,1.1-.93615c1.47993-.20286,2.98246-.24067,4.62077-.35051.11033,1.97517.291,3.87805.2964,5.78146a2.52121,2.52121,0,0,0,1.53429,2.59648,19.21716,19.21716,0,0,1,1.95005,1.17583c.59091-3.025,1.12115-6.04012,1.80255-9.02071a3.69656,3.69656,0,0,1,1.28584-2.09487c4.41111-3.01842,4.62542-8.63929,2.43211-12.51057-.291-.5136-.57248-1.03256-.88182-1.59137A26.04845,26.04845,0,0,0,244.64979,204.342c-.99331-.94312-1.98282-1.84981-2.92428-2.80392a1.225,1.225,0,0,1-.278-.85482,30.29737,30.29737,0,0,1,1.04214-6.57793c.6011-2.03413.42626-4.30231.52922-6.47047.00876-.185-.45232-.54378-.71407-.56293-.94371-.069-1.89553-.0271-2.98115-.0271.11525,1.34761.21839,2.55386.33585,3.92742l-3.25706.78378-1.4103-3.23037c-1.393,1.24233-2.636,2.51128-4.04247,3.56128a27.7,27.7,0,0,1-4.72991,2.969c-2.31986,1.08619-3.53119.314-4.66046-1.95546a72.12834,72.12834,0,0,0-5.21049-9.28742c-4.67424-6.685-9.60808-13.18857-14.43662-19.76573l-.386.25831a9.01585,9.01585,0,0,0,.47179.887c2.61191,3.84726,5.26233,7.66885,7.83,11.5453a25.827,25.827,0,0,1,1.80395,3.52888c2.11229,4.60053,4.14278,9.23947,6.31337,13.81207,1.27383,2.68351,1.53844,2.73393,4.45143,2.23429,3.193-.54767,6.38006-1.12985,9.57415-1.67076a3.18733,3.18733,0,0,1,3.83139,2.40759,1.365,1.365,0,0,0,.38253.67789c1.42208,1.0501,1.54292,2.51421,1.53549,4.12752-.01092,2.37318.13811,4.74829.264,7.12018a1.07608,1.07608,0,0,1-.87408,1.28678c-1.46417.45981-2.89614,1.02211-4.5483,1.61677l.61478-12.04065c-1.80142,1.89353-3.5825,3.75711-5.35412,5.62962q-5.7927,6.12253-11.57643,12.25357a19.50414,19.50414,0,0,0-5.2275,9.9165,7.868,7.868,0,0,1-3.69178,5.49936,44.34446,44.34446,0,0,1-6.09269,3.37556,17.52837,17.52837,0,0,0-9.4584,9.395c-1.91392,4.28265-3.83,8.58243-6.0806,12.69094a11.87257,11.87257,0,0,1-8.85265,6.04568c-3.09584.48687-6.27044.48243-9.41191.6647-1.09264.06338-1.83265-.49508-1.76822-1.6088.2366-4.09006-1.63887-7.53054-3.37189-10.982-1.92353-3.8309-4.06834-7.55018-6.05868-11.34853a5.91708,5.91708,0,0,1-.63984-2.30757c-.36052-5.693-.625-11.3924-1.01494-17.08323a13.17735,13.17735,0,0,0-.92227-2.52087,16.682,16.682,0,0,1-.68256-3.0322,11.87711,11.87711,0,0,0-1.06107-4.42163c-.83518-1.65957-.91-3.69129-1.39844-5.53921-.3807-1.4402-.97588-2.82688-1.30655-4.27594a10.24172,10.24172,0,0,1-.06919-2.69712c.04694-1.03873-.321-1.587-1.34946-1.07735-4.347,2.15405-9.06833,1.87281-13.69261,2.10488-3.05207.15317-6.12085.03544-9.17939-.05465a2.81918,2.81918,0,0,1-1.78-.73255c-5.41786-5.56381-10.7719-11.18971-16.18-16.76315a5.60041,5.60041,0,0,1-1.78141-4.0893c-.02571-2.552-.287-5.107-.56383-7.64812a1.77317,1.77317,0,0,1,.9348-1.885c8.64353-5.96188,17.2491-11.97907,25.92007-17.90057a2.79709,2.79709,0,0,0,1.41834-3.13536c-.18148-1.10952-.51925-2.5142-.024-3.31625.42693-.69146,1.93129-.71767,3.07752-1.07485,0-1.83672.0568-3.70522-.02232-5.568-.04415-1.03965.18394-1.57106,1.33313-1.70943,1.44107-.17352,2.85547-.56832,4.45257-.90355-.15454-1.54125.00939-3.10214-.96748-4.519-1.94353-2.819-3.8247-5.681-5.73092-8.52574a2.11812,2.11812,0,0,1,1.10537-3.29129c.55318-.205,1.1175-.38,1.8676-.63306-.67182-3.10061-1.34291-6.19792-2.04527-9.43958,2.09923-1.1551,4.19938-2.3218,6.3098-3.46963,4.48948-2.44177,9.01227-4.82424,13.46094-7.338a10.2655,10.2655,0,0,1,4.53916-1.27078c1.91374-.12357,3.83512-.22207,5.73156-.48654a36.645,36.645,0,0,0,4.02052-1.04957,16.90519,16.90519,0,0,0-2.13935-1.78941c-2.01769-1.1353-2.03441-2.90168-1.6694-4.91475,2.46611.53149,4.73441,1.29071,5.59978,4.16529,3.18752-1.66557,6.23621-3.18425,9.20382-4.84757a3.62365,3.62365,0,0,1,3.20423-.213c10.25037,3.29974,19.59332,8.43463,28.59452,14.21091,30.20736,19.38476,48.51409,46.979,56.0326,81.87786a107.44723,107.44723,0,0,1,2.30115,28.18811A6.58563,6.58563,0,0,1,269.369,216.787,53.426,53.426,0,0,0,265.47466,199.25757ZM166.209,155.52779l11.66381,2.362c-.27223-2.147,1.09938-2.17833,2.47507-2.30439,1.199-.10986,2.38623-.34731,3.61053-.53322-.243-.8404-.43919-1.51909-.69461-2.40248h9.53291c0-.93076.04643-1.70292-.01279-2.46689-.06194-.79922.23779-1.15137,1.03742-1.24194.84953-.09623,1.68521-.31452,2.695-.51245a3.24057,3.24057,0,0,0-.52689-.241c-3.7605-.70514-7.51756-1.43135-11.29-2.0662a1.6863,1.6863,0,0,0-1.33471.63437,7.22911,7.22911,0,0,1-6.35926,3.1139c-1.84882.0327-3.15812-.12654-3.746-2.06217a3.79635,3.79635,0,0,0-.55514-.86428A23.04379,23.04379,0,0,0,166.209,155.52779Zm-23.59894-4.39556,22.41594.76438c.442-2.01463.22922-3.46163-1.689-4.48879-1.796-.96171-3.35983-2.34775-5.09566-3.43561a6.42667,6.42667,0,0,0-2.248-.71393,7.096,7.096,0,0,0-6.72673,2.32664,43.06855,43.06855,0,0,1-3.66961,3.06815C144.70272,149.39221,143.81138,150.13491,142.6101,151.13223ZM194.863,137.24076c-.15694.6183-.38422,1.31016-.49957,2.02021a1.36322,1.36322,0,0,1-1.47051,1.3685c-1.66148.0974-3.31084.40179-5.08417.63465.29924,1.25782.55721,2.34217.81342,3.41906A25.43768,25.43768,0,0,0,199.4577,141.562Z" transform="translate(-3.27415 -69.54092)"/><path d="M97.29677,94.23093q-3.26493,3.727-6.50862,7.4297l.26274.29343c3.05788-1.10166,6.19477-.84638,9.309-.50261a2.65181,2.65181,0,0,0,2.55071-.92532c1.78063-2.13866,3.5493-4.28937,5.25352-6.48893,1.53446-1.98048,2.9773-4.032,4.65582-6.31808,1.19566,1.1388,2.33687,2.08668,3.30157,3.189a1.84614,1.84614,0,0,1-.20028,2.71386c-.95421.91426-1.98154,1.75441-3.00087,2.59807a15.04508,15.04508,0,0,0-5.344,8.234,3.68551,3.68551,0,0,0-.09636.5362,1.13522,1.13522,0,0,0,.10215.32653l1.38372-.11683.16223,2.33337,26.3131,2.766c-.86146,2.45679-1.584,4.66624-2.44359,6.821a1.72348,1.72348,0,0,1-1.34975.66953c-6.99023.04224-13.9808.02927-20.97129.02929H108.904c.58691.61332,1.033,1.03143,1.42208,1.49714.61334.73417,1.3704,1.49871.75954,2.545a2.65573,2.65573,0,0,1-2.809,1.31676,19.2855,19.2855,0,0,1-2.885-.82079c-.69525-.21908-1.37134-.4984-2.06452-.72468-1.83227-.59812-1.99247-.80955-1.72705-2.7473.12435-.90787-.17808-1.69514-1.01866-1.805a2.13514,2.13514,0,0,0-1.7545.81931,11.41747,11.41747,0,0,0-.9453,2.96315c-.17555.70591-.18451,1.453-.35695,2.16a4.51725,4.51725,0,0,1-4.93032,3.81985c-.91364-.00352-1.82745-.00382-2.74085-.02205a11.80768,11.80768,0,0,0-6.90726,2.16154,125.83967,125.83967,0,0,1-26.55143,13.44605,9.56822,9.56822,0,0,0-5.3168,4.32242c-2.05908,3.44526-4.37491,6.73809-6.61764,10.07151a13.0528,13.0528,0,0,1-1.29839,1.31065,1.36514,1.36514,0,0,0-.43128.76206c.012,1.35906-.87595,1.8269-1.96,2.24023-1.27237.48513-2.49722,1.09488-3.90217,1.72174l5.84067,3.97745c-.01444.17972.00955.28629-.03254.347-2.62216,3.77986-3.10594,3.8377-6.33764.6126-1.28956-1.28693-2.51037-2.64274-3.85509-4.06516,1.03783-.64749,1.92062-1.28669,2.8786-1.77981,3.24769-1.67173,3.68287-4.87661,4.28989-7.931a1.16649,1.16649,0,0,0-1.71921-1.364,8.771,8.771,0,0,0-3.1517,2.236c-2.35222,2.73971-3.6128,6.09266-4.88524,9.42785a16.76147,16.76147,0,0,0-.68687,10.3314,2.6465,2.6465,0,0,1-.66264,2.72819,6.87325,6.87325,0,0,0-1.767,4.77269,2.38957,2.38957,0,0,0,1.94724,2.58019A229.3958,229.3958,0,0,1,61.00667,197.129c2.31689,1.07479,4.58947,2.24507,6.90644,3.31967.69089.32044,1.01638.69273.78334,1.46263a6.14057,6.14057,0,0,0-.13.94856c-.37822,2.7815.30625,4.80431,3.096,6.25189a104.71144,104.71144,0,0,1,9.81279,6.23461,16.77731,16.77731,0,0,1,2.86644,2.53326c1.8438,1.97919,1.92378,4.34878-.092,6.17786a19.9779,19.9779,0,0,1-5.13945,3.285,6.16867,6.16867,0,0,0-3.53994,3.57066c-1.38673,3.81073-2.66422,7.66109-4.028,11.48038a35.69177,35.69177,0,0,1-1.71541,4.1689c-1.26584,2.49359-3.179,3.29987-5.75382,2.23224-3.3471-1.38783-5.961-.67949-8.24381,2.08967a73.88384,73.88384,0,0,0-11.7784,20.42447,3.50222,3.50222,0,0,0,.3185,2.55478c2.92288,5.52544,5.944,10.999,8.93423,16.48877.23835.43757.47412.87655.77527,1.43358-1.53574.80888-2.99686,1.6426-4.52459,2.32783a1.48928,1.48928,0,0,1-1.26748-.50648c-3.58459-4.55455-7.37277-8.97569-10.62527-13.75982a124.37087,124.37087,0,0,1-19.74929-48.8693,122.05432,122.05432,0,0,1-1.47363-31.80049,6.61625,6.61625,0,0,1,1.093-2.886c1.69172-2.60056,3.52086-5.11142,5.28284-7.66664,2.14663-3.113,1.98975-3.93567-1.11587-6.06389-2.5465-1.745-2.592-1.75744-1.76836-4.78,10.2102-37.47047,32.739-64.97506,67.12459-82.85625a6.61362,6.61362,0,0,1,2.7422-.66327C92.3287,94.17258,94.86559,94.23093,97.29677,94.23093Z" transform="translate(-3.27415 -69.54092)"/><path d="M246.34184,238.27519l.47716-4.61156h5.38909c.25553,1.80636.46338,3.61636.80265,5.40137a1.62266,1.62266,0,0,0,.96179.97439,9.20163,9.20163,0,0,0,7.24657-.66134c1.505-.73031,3.13573-1.20158,4.72047-1.79288a5.55493,5.55493,0,0,1,.88025,5.01909,130.99485,130.99485,0,0,1-8.61874,22.57226,4.8921,4.8921,0,0,1-1.69121,1.86473,27.87553,27.87553,0,0,1-4.36093,2.25992,8.33587,8.33587,0,0,1-3.18591.59665c-2.92475-.05231-3.91251-1.48226-3.0503-4.29967-3.45529-.83755-6.89363-1.73028-10.36336-2.47706-1.08837-.23427-1.34652-.684-1.34075-1.725.04133-7.44116-.01711-14.883.05524-22.32369.01435-1.47683-.27847-2.3455-1.90208-2.38914a6.4206,6.4206,0,0,1-1.41032-.39186l.69842-2.45234c.18058-.05954.28636-.13441.34235-.10714,2.24521,1.09449,3.60675-.03484,4.72621-1.84182a7.078,7.078,0,0,1,.80571-.91522,3.87024,3.87024,0,0,1,3.12261,3.65355c.14449,2.20847,1.09664,3.50161,3.51523,3.35443A11.81846,11.81846,0,0,1,246.34184,238.27519Z" transform="translate(-3.27415 -69.54092)"/><path d="M158.7179,329.6792l.91378-2.3316a39.77152,39.77152,0,0,1,4.57177.75883c.71594.19858,1.23711,1.019,1.92147,1.43429a5.86107,5.86107,0,0,0,2.23584.992c3.57916.374,7.17211.616,10.77289,1.05511a122.85257,122.85257,0,0,1-43.95059,4.92344,120.83194,120.83194,0,0,1-42.89065-10.86807,33.08921,33.08921,0,0,1,4.61488.0436c1.857.26388,2.983-.276,3.666-2.04789a33.29562,33.29562,0,0,1,1.692-3.12525c.66664-1.29264,1.66994-.39023,2.52847-.43508.82037-.04283.96086.49276,1.01046,1.14292a8.73664,8.73664,0,0,1,.17445,1.21581c-.19694,2.765,1.237,3.99351,3.83862,4.17144a2.11546,2.11546,0,0,1,.80052.16627c1.56681.79835,2.69143.21535,3.794-.977a2.59269,2.59269,0,0,1,1.87589-.71162c4.5463.39138,9.08624.86581,13.61832,1.398a1.67906,1.67906,0,0,1,1.1178,1.05133,1.62023,1.62023,0,0,0,2.061,1.38038,11.04711,11.04711,0,0,1,2.32618-.00361,15.63324,15.63324,0,0,0,10.461-2.571c1.373-.872,3.59812-.44037,5.4382-.47565.16982-.00327.51662.91175.50591,1.39427-.02965,1.33606.57225,1.81988,1.857,1.88857C155.34727,329.23815,157.01272,329.49207,158.7179,329.6792Z" transform="translate(-3.27415 -69.54092)"/><path d="M144.39206,85.17718c-.69431.569-1.37991,1.149-2.08428,1.70524a199.22293,199.22293,0,0,1-21.701,14.80468c-1.56949.93356-2.55569.54572-3.13424-1.18425a5.2183,5.2183,0,0,1,1.07773-5.71244c2.21546-2.29953,4.264-4.76951,6.57652-6.96353,3.1003-2.94136,6.65368-4.66258,11.18435-3.79213a67.144,67.144,0,0,0,7.74455.62135Z" transform="translate(-3.27415 -69.54092)"/><path d="M206.75793,238.17373c-2.87054,3.91207-5.64545,7.89952-8.64788,11.70762a76.91177,76.91177,0,0,1-5.8797,6.27036,2.12922,2.12922,0,0,1-2.87728.27932c-.629-.40834-.86844-.76764-.08549-1.312a4.09535,4.09535,0,0,0,1.175-1.24295c1.61142-2.75356,3.1475-5.5514,4.77362-8.296a4.81548,4.81548,0,0,1,1.47735-1.52922c2.869-1.859,5.78-3.65309,8.67873-5.46612.3686-.23054.75188-.43764,1.12836-.65558Z" transform="translate(-3.27415 -69.54092)"/><path d="M215.42516,274.89364c-.14115-1.82858-.34045-3.59014-.3661-5.35422-.006-.4095.49742-.95745.90824-1.2186a5.64516,5.64516,0,0,0,2.57151-4.09633c.48452-2.68205,1.22084-5.31863,1.88591-8.1255l2.12363.37635c0,2.93639.04926,5.79487-.043,8.64879a2.82517,2.82517,0,0,1-.92427,1.602,7.74651,7.74651,0,0,0-2.41476,7.02327,5.315,5.315,0,0,1-.07982,1.14426Z" transform="translate(-3.27415 -69.54092)"/><path d="M136.25325,95.71513l6.44657-.40346c-.12781,2.0342-.24877,3.95918-.37595,5.98335h-5.20842C136.84309,99.53241,136.56308,97.72021,136.25325,95.71513Z" transform="translate(-3.27415 -69.54092)"/><path d="M162.48932,87.2622l-8.93355,2.31646L151.399,83.03034l11.11975,3.911Z" transform="translate(-3.27415 -69.54092)"/><path d="M241.90341,221.41407c-2.12965,2.47468-4.06549,4.75956-6.0645,6.98772-.18342.20442-.80149.14614-1.16306.03383a13.4556,13.4556,0,0,1-1.75607-.83992c1.707-2.32024,3.32791-4.57291,5.0236-6.7678a1.49362,1.49362,0,0,1,1.248-.36782A21.72742,21.72742,0,0,1,241.90341,221.41407Z" transform="translate(-3.27415 -69.54092)"/></svg>