<svg id="ebfe4d9c-d9dc-4192-b918-15ff212bd7a8" data-name="Layer 1" xmlns="http://www.w3.org/2000/svg" viewBox="0 0 110.889 117.97771"><path d="M179.5282,210.53479c-3.58861,1.53376-4.23355-.138-4.21626-3.07373q.10011-16.99356.01059-33.98809c-.038-7.935-3.301-11.2139-11.28641-11.23522q-29.23976-.078-58.47979.00263c-7.8989.02327-11.2596,3.42212-11.26789,11.3007q-.04578,43.485.00336,86.97006c.01025,7.88476,3.39506,11.27084,11.28469,11.29075,19.49317.04918,38.98662-.011,58.47979.03645,4.28719.01044,7.73162-1.19445,10.24763-4.97682.71284-1.0716,2.67828-1.31,4.78035-2.24772-1.83887,7.30389-6.08033,11.20368-12.1963,11.24573q-31.98736.21992-63.97687-.00431a12.80913,12.80913,0,0,1-12.76342-12.8628q-.2348-45.98292-.00867-91.96755a12.86755,12.86755,0,0,1,12.78429-12.87261q31.98569-.30836,63.97587.00364a12.43482,12.43482,0,0,1,12.492,12.02518C179.85763,183.62985,179.5282,197.10623,179.5282,210.53479Z" transform="translate(-90.03015 -157.99973)"/><path d="M125.785,191.244h4.08343l.20884-4.46164c3.75848-.37219,7.3213-.86488,10.9-1.04881,6.45246-.33163,7.35413-1.03838,9.13953-8.013l-.02562-.00308c1.61592-1.5664,3.1142-2.22986,4.89138-.036a43.27758,43.27758,0,0,0,4.28275,4.07526l4.90265-2.87129c2.70887,8.74566,2.433,32.96043-1.14595,36.48044,0-9.58087-.106-18.3834.05671-27.181.05806-3.13749-.818-4.78147-4.16606-4.39913l-1.93891-1.79549-4.25994-4.60844v45.02h-9.73571c0-10.67112.0518-21.26751-.06885-31.86192-.01428-1.25336-.97312-2.496-1.49411-3.74355l-1.756.49693v35.10492h-9.77626c0-8.69059.06631-17.291-.0721-25.88819-.02057-1.27724-1.006-2.53894-1.545-3.80782l-1.705.56642v29.09621h-9.5061V202.11044c-3.60931-.43114-6.27307,2.47579-5.68205,5.20961,1.053,4.87086,1.78232,9.81171,2.63516,14.656-9.75444,1.65644-11.713-1.60936-9.67305-14.19567l4.67606.34968a46.46123,46.46123,0,0,1,2.079-5.56163c.52692-1.02613,1.8312-2.57163,2.52765-2.44654,5.47555.98346,7.665-2.75541,10.035-6.43063a22.43779,22.43779,0,0,1,2.29039-2.60151Zm24.15844-6.05069-1.30822-.52765c-.96312,1.79552-2.698,3.56557-2.7583,5.39089-.2902,8.79182-.213,17.60034-.02513,26.39779.02448,1.14646,1.443,2.26316,2.21575,3.39365.6253-1.10525,1.77891-2.20351,1.79368-3.31687C149.99976,206.08663,149.94344,195.63958,149.94344,185.19328Zm-12.96088,6.17987-1.20419-.51505c-.99691,1.5992-2.77926,3.16248-2.85433,4.80384-.3194,6.98338-.21919,13.99206-.04148,20.98565.02755,1.08421,1.25463,2.13794,1.927,3.20577.72434-1.00832,2.05681-2.00451,2.07719-3.02686C137.05587,208.34478,136.98256,199.85823,136.98256,191.37315ZM123.62363,198.018l-1.04185-.543c-1.05085,1.9345-2.80655,3.79856-3.00838,5.81792-.44381,4.44042-.04394,8.96008-.10157,13.44594-.03977,3.09593,1.27962,3.78962,4.1518,2.56035Zm-14.032,13.1902-2.85627,8.22387C111.012,219.44535,111.012,219.44535,109.59162,211.20821Z" transform="translate(-90.03015 -157.99973)"/><path d="M154.05249,237.91024a23.43611,23.43611,0,1,1,23.2781,23.74084A23.38442,23.38442,0,0,1,154.05249,237.91024Zm23.61-18.89019a19.17163,19.17163,0,1,0,19.08137,19.59547A19.44735,19.44735,0,0,0,177.66252,219.02005Z" transform="translate(-90.03015 -157.99973)"/><path d="M152.98127,227.9952c-1.42638.83792-2.83982,2.37573-4.28122,2.40239-10.94863.20256-21.90353.16941-32.854.02325-1.20191-.016-2.3881-1.20981-3.58159-1.85733,1.05816-.77279,2.10783-2.20394,3.17576-2.21771,12.25538-.158,24.51353-.10066,36.77094-.10066Z" transform="translate(-90.03015 -157.99973)"/><path d="M152.8329,251.35986c-12.55791,0-25.11633.04569-37.67276-.09113-.9523-.01038-1.89048-1.31665-2.83522-2.02054.95563-.704,1.904-2.00894,2.868-2.02065,11.60022-.14092,23.20426-.17363,34.8024.03641,1.18342.02144,2.335,1.79966,3.50139,2.76264Z" transform="translate(-90.03015 -157.99973)"/><path d="M149.85323,240.9167c-11.37754,0-22.83671.06079-34.29283-.098-1.09522-.01518-2.17146-1.40014-3.25651-2.1492,1.16935-.64985,2.33088-1.84711,3.50927-1.86393,10.475-.14957,20.95364-.02861,31.42981-.1302C150.3999,236.64479,151.07437,237.88447,149.85323,240.9167Z" transform="translate(-90.03015 -157.99973)"/><path d="M128.01485,261.82178c-4.1646-.00313-8.33947.15688-12.487-.10907-1.11841-.07173-2.15392-1.43617-3.22748-2.20723,1.02811-.62487,2.04733-1.7744,3.08572-1.792,8.65984-.14675,17.32477-.16262,25.98351.01241,1.07712.02178,2.127,1.38986,3.18954,2.13411-1.18355.655-2.34039,1.8099-3.55546,1.87482C136.68478,261.96556,132.34606,261.82492,128.01485,261.82178Z" transform="translate(-90.03015 -157.99973)"/><path d="M156.97373,181.99023l1.93891,1.79549c-.00324,10.432.0523,20.86468-.06556,31.29539-.02047,1.81113-.77369,3.614-1.18845,5.42068l-1.49786-.289q0-18.51991.03416-37.03971C156.19627,182.7779,156.70274,182.38446,156.97373,181.99023Z" transform="translate(-90.03015 -157.99973)"/><path d="M150.11678,177.7205V169.411c-3.03157-1.19582-4.40048-.61354-4.29638,2.51349.10465,3.1436.08488,6.29568-.018,9.43955a18.48067,18.48067,0,0,1-.72974,3.367l-1.39753-.09631V166.22057h8.63772a11.66367,11.66367,0,0,1-2.21807,11.497Z" transform="translate(-90.03015 -157.99973)"/><path d="M125.94281,191.08977c-.70327-1.05413-1.97079-2.09094-2.0038-3.16565-.09827-3.2-1.45213-3.67995-4.22049-2.53847l-.58541,13.40294-1.59792.0075V182.32928h9.21014c-.31551,2.94869-.63422,5.92723-.95663,8.91023C125.785,191.244,125.94281,191.08977,125.94281,191.08977Z" transform="translate(-90.03015 -157.99973)"/><path d="M175.09127,233.30008c-1.74915,1.49553-2.40965,2.39392-3.28229,2.71408a9.64357,9.64357,0,0,1-3.03137.11753c.07507-1.0382-.24634-2.41124.29669-3.05423a38.93656,38.93656,0,0,1,6.34246-6.30674c.89318-.66114,3.18137-.42881,4.20663.29018a26.02189,26.02189,0,0,1,5.25729,5.27341c.67284.8525.60841,2.28689.87875,3.45706a27.74756,27.74756,0,0,1-3.83465-.65718c-.69481-.21372-1.23705-.92347-2.67266-2.06621,0,5.24064.15167,9.64485-.09161,14.02711-.07382,1.32971-1.23895,2.59883-1.90424,3.89569-.72166-1.261-1.98434-2.48815-2.0656-3.78911C174.92548,242.95633,175.09127,238.68408,175.09127,233.30008Z" transform="translate(-90.03015 -157.99973)"/></svg>