<svg id="a683ef1e-a304-47e9-a9f9-e484e29eaab5" data-name="Layer 1" xmlns="http://www.w3.org/2000/svg" viewBox="0 0 101.62091 101.5907"><path d="M143.8031,165.7938h1.5876c.96488,1.56272,2.25856,3.01577,2.82421,4.71165,1.08009,3.23821,3.178,3.87219,6.31964,3.81882,10.30525-.17508,20.6161-.13693,30.92337-.03556,6.7938.06682,9.90532,3.2545,9.92227,10.06452q.06951,27.95106.00042,55.90239c-.01635,6.75276-3.14425,9.98191-9.88207,10.16578-5.2824.14417-10.57178.03353-15.858.03489-4.0479.001-8.09579.00022-12.41855.00022.41348,2.72489.3295,4.98209,1.15229,6.83711.89995,2.029,2.572,3.74168,4.03557,5.4848a33.7726,33.7726,0,0,0,3.04561,2.86576c-1.329.57575-2.65233,1.63522-3.988,1.65111-11.23177.13367-22.46582.08244-33.69914.06444a6.82124,6.82124,0,0,1-2.70538-.32531,2.45233,2.45233,0,0,1-1.27253-1.73688,2.21957,2.21957,0,0,1,1.11405-1.79681c6.8806-1.84026,6.10484-7.5338,6.95835-13.04473-9.282,0-18.11034-.09411-26.93535.0353-5.29345.07763-9.26-1.63765-11.13358-6.90525V180.876c1.99415-4.87726,5.62516-6.79175,10.86537-6.67571,9.351.20706,18.72356-.24265,28.05974.18288,4.75885.21689,7.77039-.93844,9.14956-5.65525A11.94963,11.94963,0,0,1,143.8031,165.7938ZM191.169,229.14347c0-15.65413.04676-30.9635-.04653-46.272a4.02757,4.02757,0,0,0-4.236-4.343c-11.32876-.06625-22.65814-.02793-34.41058-.02793.76631,1.69581,1.30934,3.01008,1.942,4.27967,4.77081,9.57342,9.57578,19.12985,14.33445,28.70928,2.05077,4.1283,1.44987,5.06349-3.2662,5.071q-21.02879.03345-42.05763-.00411c-4.37159-.01-4.99621-1.04008-3.04608-4.96528,4.81786-9.69735,9.68788-19.36878,14.52242-29.05787.6069-1.21632,1.12655-2.47617,1.84514-4.06673-10.92574,0-21.23714-.00481-31.54854.00182-6.13846.00394-7.22157,1.04519-7.229,7.06083q-.02463,19.83849-.00519,39.677c0,1.27,0,2.54,0,3.93726Zm-.38128,4.56658H98.19545c-.08835,1.30859-.20571,2.34173-.22044,3.37633-.12147,8.534.37386,9.03813,8.78725,9.03829,24.71382.00048,49.42778-.04957,74.14138.0252,9.60313.02906,10.716.6797,10.26815-11.10261A6.71792,6.71792,0,0,0,190.78768,233.71005Zm-65.92219-21.66117H164.339c-6.61878-13.21184-12.99585-25.94121-19.75353-39.4303C137.78875,186.20872,131.447,198.88908,124.86549,212.04888Zm30.43025,50.9775c-.7176-3.735-1.27475-7.07812-2.05307-10.36894-.19056-.8057-1.08538-2.0396-1.68942-2.0592-5.09555-.16532-10.19876-.09428-15.02188-.09428-.98338,4.54592-1.83067,8.4627-2.70889,12.52242Z" transform="translate(-93.7938 -165.7938)"/><path d="M145.66679,235.11409c.99909,1.6714,2.8787,3.425,2.73264,4.98949-.12845,1.3759-2.55036,3.549-3.91078,3.51334-1.35281-.03542-3.64605-2.346-3.699-3.72893-.06013-1.56931,1.90881-3.21636,2.99562-4.82961Z" transform="translate(-93.7938 -165.7938)"/><path d="M142.46056,188.86639a59.426,59.426,0,0,1,.10373-7.49261c.12613-.98645,1.40918-1.825,2.16565-2.73083.66545.86291,1.87425,1.70589,1.90676,2.592.18817,5.129.20929,10.27255.00111,15.3996-.03708.91338-1.41494,1.77234-2.17369,2.65643-.67281-.97274-1.80651-1.89218-1.9264-2.92886a65.5652,65.5652,0,0,1-.092-7.49573Z" transform="translate(-93.7938 -165.7938)"/></svg>