<svg id="f332aafe-0eaf-4b6b-81ee-6d88c5d43c6d" data-name="Layer 1" xmlns="http://www.w3.org/2000/svg" viewBox="0 0 113.3652 113.98948"><path d="M126.84945,274V196.42909H152.832c.21533,1.369.433,2.75279.73924,4.69989,7.94936-6.15615,16.48565-7.72551,25.78419-6.22889,10.17895,1.63832,17.026,7.13475,20.15839,16.97524a30.57735,30.57735,0,0,1,1.76284,8.772c.16251,17.59916.0806,35.20057.0806,53.07792H174.27249c0-7.11377.02356-14.06056-.00638-21.00711-.0323-7.49328.04068-14.99174-.219-22.478-.25846-7.45241-2.7866-10.54537-8.317-10.922-6.35871-.43307-10.31394,2.70134-11.01674,10.15467-.732,7.763-.50053,15.62137-.59011,23.43918-.078,6.80572-.01622,13.61305-.01622,21.08807H126.84945Zm69.258-5.17265c0-16.7601.42589-33.04068-.16458-49.28432-.3378-9.29314-4.915-16.51563-14.715-19.11025-11.26772-2.98323-20.86285.04072-27.35605,8.29742-1.07763,1.3703-3.12871,1.97505-5.45605,3.36824-.2379-4.40159-.40383-7.4719-.57144-10.57291H132.05653v67.16476h16.43953a4.28747,4.28747,0,0,0,.45934-1.14753c.0506-8.98892-.01708-17.97976.15011-26.96627a100.90929,100.90929,0,0,1,.98326-14.39569c.8874-5.41849,3.99291-9.44572,9.52557-11.12407,10.445-3.16849,18.6621,2.0192,19.29145,12.9885.66674,11.62063.38914,23.29506.54563,34.94569.02574,1.91559.16287,3.82968.25263,5.83643Z" transform="translate(-88.0127 -160.01052)"/><path d="M117.14463,196.43028v77.25041H90.146V196.43028ZM95.22627,268.65646H112.0297V201.4649H95.22627Z" transform="translate(-88.0127 -160.01052)"/><path d="M119.13741,175.40557a15.26091,15.26091,0,0,1-15.14865,15.76472,15.49425,15.49425,0,0,1-15.976-15.53558A15.73532,15.73532,0,0,1,103.50936,160.011,15.53211,15.53211,0,0,1,119.13741,175.40557Zm-5.05039.03722a10.55831,10.55831,0,0,0-10.53049-10.36071A10.73913,10.73913,0,0,0,93.07943,176.085a10.54607,10.54607,0,0,0,10.86724,10.01A10.32949,10.32949,0,0,0,114.087,175.44279Z" transform="translate(-88.0127 -160.01052)"/></svg>