<svg id="b61892e3-78fd-435a-8c68-8cc0b5d1a5b2" data-name="Layer 1" xmlns="http://www.w3.org/2000/svg" viewBox="0 0 295.5979 262.69642"><path d="M28.92724,166.12837C6.54642,160.84865.18364,143.211-2.73856,123.68613c-1.3129-8.77226-.39077-17.88485-.37992-26.8429a6.77743,6.77743,0,0,1,.97292-3.80894c1.162-1.578,2.68216-3.60371,4.31458-3.87948,1.133-.1914,3.34024,1.98336,3.96882,3.5436,1.92234,4.7715,3.1761,9.80717,4.94374,14.64738,2.73263,7.48259,5.41131,15.00436,8.60985,22.29137,2.71751,6.19113,8.06721,8.495,14.71332,9.53891,8.219,1.29089,13.92746-.6803,20.0378-6.87378,46.33028-46.96071,123.60875-49.45487,173.31632-6.09075,2.884,2.516,6.35594,4.75376,8.27821,7.90052,5.28822,8.65677,13.0452,4.98962,20.09189,4.713a14.42677,14.42677,0,0,0,13.23492-9.212c3.51441-8.23313,6.4339-16.72293,9.51584-25.13671,1.428-3.89869,2.39734-7.98419,4.07236-11.76446.677-1.528,2.7557-3.48664,4.06546-3.39409,1.37622.09724,3.5762,2.319,3.71951,3.77886.76022,7.74361,1.95075,15.64005,1.1535,23.292a133.29,133.29,0,0,1-5.98745,28.15184c-4.05008,12.15123-11.96405,21.06887-26.11081,22.86155,14.99786,32.95821,17.04745,66.405,4.896,100.27446-9.27569,25.854-25.63737,46.51058-48.30777,62.02112C171.12279,360.66183,110.89,358.88016,66.72671,326.04474,28.37274,297.52852-2.79155,234.6105,28.92724,166.12837ZM196.1264,186.2901a23.04908,23.04908,0,0,0-.98039,2.78q-8.0937,36.916-16.128,73.84491c-1.26226,5.8203-3.07423,11.65187-3.31164,17.53162-.31162,7.717.77252,15.48341,1.0845,23.2355.15254,3.791-1.9387,6.07277-5.73723,6.09163q-26.74119.1328-53.48326.00553c-3.48728-.01686-5.57067-1.92839-5.56713-5.65033.00635-6.66468-.03272-13.32965.02443-19.99385.02353-2.74482.81316-5.60151.28912-8.2137-3.97727-19.82616-8.175-39.60826-12.3438-59.39574-2.1352-10.13492-4.352-20.25264-6.50088-30.23359-6.50982,1.46821-12.48037,2.74669-18.4071,4.20339-1.34164.32975-3.2215.96607-3.68545,1.99039C65.7766,204.85606,58.5203,216.694,57.84983,230.77989c-1.31876,27.70589,1.5843,55.20961,4.25365,82.71411a7.11249,7.11249,0,0,0,2.40825,4.06807c43.38163,38.37082,113.449,38.98944,157.67073,1.3487a8.709,8.709,0,0,0,2.83521-5.34049c1.51665-19.08272,2.61691-38.19887,4.17191-57.2781,1.70593-20.93117-.61719-41.19936-9.03261-60.56374-.76581-1.76218-2.20778-4.01949-3.79965-4.49548C209.88014,189.29624,203.2222,187.96411,196.1264,186.2901Zm-39.56375-35.97956c-3.38737,4.05235-6.29693,7.924-9.64221,11.373-1.71718,1.77043-4.21231,2.78631-6.35588,4.14318-1.27519-2.23328-2.84848-4.35353-3.7491-6.72884a92.91785,92.91785,0,0,1-2.52432-9.52152c-4.43086,3.79709-5.967,1.87453-7.03639-2.65388-.61431-2.60146-1.47971-6.12106-5.75209-5.49452-6.24.91508-12.53482,1.5478-18.7,2.8171-1.494.30759-3.26969,2.44473-3.71041,4.06789a70.90571,70.90571,0,0,0-2.77308,14.6142c-.2556,4.79449-2.6922,5.14742-6.44843,5.10311-11.77332-.13891-23.54933-.05108-36.71485-.05108,2.34842,3.56,3.704,5.5978,5.04246,7.64686,5.76131,8.82018,13.49433,11.63454,23.5852,8.10144,5.07409-1.77657,10.32-3.06246,15.69355-4.63016,4.02214,18.85687,7.947,37.25738,11.97625,56.14782,23.6518-5.40027,46.94645-5.01162,70.24258-.58893l12.268-55.68861c8.2355,2.33518,15.80763,4.7395,23.52214,6.53073,2.71521.63044,6.444.76828,8.55492-.62231,5.57119-3.67,9.31866-9.16275,12.29425-16.13335H194.29388c-1.3849-7.37837-2.534-14.25453-4.06779-21.04375-.31175-1.37984-1.9216-3.26407-3.19225-3.49607-6.663-1.21651-13.40944-1.97641-20.06488-2.88649C162.5377,153.22164,161.11459,153.901,156.56265,150.31054ZM54.84153,139.4373l.303,1.9c18.67812-1.3,37.50839-1.5337,55.99559-4.17164,22.786-3.25134,45.31066-4.064,67.89113.36924,17.9675,3.52761,36.08086,2.58691,54.18329,2.42009.16882-.00156.33316-.48943.492-.75509C183.163,84.67968,98.23453,90.10633,54.84153,139.4373ZM230.72888,310.74785a15.56841,15.56841,0,0,0,1.9834-1.38483q53.08521-59.06759,25.14246-133.41375c-3.12641-8.2714-3.34345-8.28377-12.1035-7.69423-1.45078.09763-3.59732,1.05368-4.1043,2.19731-3.86456,8.71771-9.34555,16.013-17.11213,20.95623,2.87887,9.65528,7.09539,18.89609,8.15,28.48467,1.57393,14.31007,1.44766,28.879,1.07024,43.31235C233.34691,278.814,231.81915,294.39313,230.72888,310.74785ZM47.48005,167.2561c-3.25407-.1464-6.27477-.05293-9.22008-.47966-2.91613-.42251-4.06881.96852-5.20594,3.32987A123.556,123.556,0,0,0,51.54385,304.92664a35.53988,35.53988,0,0,1,3.08583,4.88995l1.39-1.35709c-1.13-18.22018-2.40945-36.43268-3.34639-54.66278-.86631-16.85585-.76444-33.6165,7.33734-49.19859,2.35282-4.52516,4.23136-9.29692,6.35068-14.00758C57.8747,184.47882,51.06926,177.37487,47.48005,167.2561ZM286.00632,99.09951c-.33487.91845-.68576,1.8314-1.002,2.75619-3.00879,8.79711-5.70343,17.71722-9.09713,26.363-3.92719,10.00486-11.13355,15.83381-22.42615,15.949-16.97287.17313-33.94312.59962-50.91471.90678-2.10359.03807-4.20846.00519-6.411.00519.66267,4.7476,1.34593,9.00313,1.82123,13.28177.29689,2.67266,1.19439,4.28868,4.25514,4.2704,18.30328-.10936,36.60776-.05194,54.91052-.20642,11.2085-.09461,18.207-6.6296,22.64841-16.11847C286.79782,131.33652,288.3064,115.45189,286.00632,99.09951ZM93.80511,145.08572c-2.822,0-5.14339.03115-7.46368-.005-16.15218-.25169-32.30751-.84539-48.45514-.67928-14.02138.14425-21.85352-7.2193-26.25288-19.55418-1.62016-4.5426-3.16973-9.11146-4.67936-13.69211-1.44675-4.38986-2.8-8.81055-4.47341-14.09985A16.50167,16.50167,0,0,0,1.375,100.14506c-1.27979,15.70993.38613,30.95706,7.77056,45.14213,5.062,9.72374,12.93127,15.41295,24.1983,15.91376,5.98269.26593,11.95042,1.05519,17.93131,1.13638,13.10612.17791,26.21632.05511,39.36034.05511C91.75549,156.27713,92.73581,150.92431,93.80511,145.08572Zm21.267,117.07534c1.00426,4.61464,2.14781,8.78508,2.75074,13.03227.38286,2.697,1.36889,3.69678,4.10422,3.68022,14.98786-.09073,29.97714.01138,44.96394-.14532,1.2408-.013,3.272-1.23468,3.561-2.27634,1.302-4.69125,2.1079-9.52016,3.089-14.28154A141.87141,141.87141,0,0,0,115.07214,262.16106Zm56.425,42.4521V285.21663H117.39513v19.39653ZM110.00464,238.287c1.50545,6.9728,2.93175,13.57895,4.36935,20.23751,10.19989-.911,20.09827-2.48334,29.99721-2.48688,10.02243-.0036,20.04544,1.54457,30.15678,2.42073,1.54232-7.13274,3.00019-13.875,4.45823-20.618A158.92333,158.92333,0,0,0,110.00464,238.287Zm30.60911-76.12924,2.01925.69111,14.3563-19.80469c.70453,1.43376,1.69222,3.44381,3.21834,6.54958,1.34046-3.394,2.255-5.7096,3.32668-8.42312a87.05813,87.05813,0,0,0-35.42211-.2861c1.16,2.38618,2.11425,4.34908,3.18933,6.56057l4.99355-4.17092C137.815,149.92,139.21437,156.03888,140.61375,162.15773Z" transform="translate(3.44322 -89.143)"/><path d="M180.18593,200.97c-.2496,3.90863-2.09375,6.07928-5.89272,6.15338-3.81779.07449-5.96013-2.09751-6.03557-5.74558a5.557,5.557,0,0,1,5.83115-6.08027C177.73779,195.213,179.75449,197.52081,180.18593,200.97Z" transform="translate(3.44322 -89.143)"/><path d="M119.64032,201.54054c-.61884,3.44649-2.34183,5.75431-6.24,5.60478-3.87393-.14859-5.74627-2.47491-5.68683-6.0811.06192-3.75462,2.52176-5.85145,6.11055-5.74388C117.45487,195.4292,119.41181,197.81117,119.64032,201.54054Z" transform="translate(3.44322 -89.143)"/><path d="M121.68806,290.649c2.68967-1.89237,5.03539-.35028,6.932,1.69709,1.82216,1.96712,3.6967,4.2764,1.39757,6.99392C127.295,296.49919,124.66711,293.75729,121.68806,290.649Z" transform="translate(3.44322 -89.143)"/><path d="M165.12125,289.94893q-3.56305,4.019-7.12612,8.038c-.59865-1.52458-.41531-3.47511,2.04663-5.78189C162.08377,290.2917,164.35031,288.95676,165.12125,289.94893Z" transform="translate(3.44322 -89.143)"/><path d="M134.91417,248.20818l7.23436,1.6148-.27358,1.88282-10.27751.961c-.41192-4.7628-.80107-9.26218-1.217-14.07066,3.87022-.52755,7.44919-1.72992,10.60765-.03412l-.20126,2.00027-6.49726,1.28955c2.25536,1.14365,3.6677,1.85983,5.08,2.576Z" transform="translate(3.44322 -89.143)"/><path d="M165.63686,254.46718c-3.25438-.22963-5.6514-1.7366-5.62246-5.71575.02614-3.5946,1.60808-6.23194,5.36153-6.46493,3.61319-.22426,5.957,1.85983,6.364,5.51179A6.02022,6.02022,0,0,1,165.63686,254.46718Z" transform="translate(3.44322 -89.143)"/><path d="M158.61705,238.34912c-1.71184,4.251-3.21436,8.23563-4.95738,12.11212-.38144.84835-1.72133,1.92456-2.44037,1.80614a4.01628,4.01628,0,0,1-2.795-2.10126c-1.29674-4.04808-2.23677-8.21042-3.40443-12.70651,6.6541-.48181,3.95813,5.6378,6.42617,7.79076C154.31546,243.77429,152.11559,237.10333,158.61705,238.34912Z" transform="translate(3.44322 -89.143)"/><path d="M118.45,254.96533c-.775-4.9488-1.32564-8.46524-2.0424-13.04234,3.38426.19452,7.27654-.69251,8.66834.78151,1.7107,1.81174,2.49717,6.10586,1.50206,8.36723C125.74147,252.97284,121.78049,253.49907,118.45,254.96533Z" transform="translate(3.44322 -89.143)"/></svg>