<svg id="e46216c2-efb9-41c9-9ab5-d06a5380ab3f" data-name="Layer 1" xmlns="http://www.w3.org/2000/svg" viewBox="0 0 103.01447 101.85961"><path d="M93.00541,267.64522c5.8425-12.42375,11.41012-24.41891,17.194-36.30889a5.34858,5.34858,0,0,1,3.7391-2.26478,91.61988,91.61988,0,0,1,9.84085-.10521c-2.13609-3.17786-3.87057-5.70413-5.55053-8.26614-12.53235-19.11231-4.75351-48.675,19.8351-54.19754,18.68158-4.19585,37.97345,10.57345,39.059,29.90722.68513,12.203-3.2516,22.41815-11.29592,31.91373,1.16721.32427,1.75989.69975,2.24634.59265,8.11369-1.78638,11.57074,2.46978,14.327,9.51822,3.84254,9.82629,8.87614,19.18681,13.61961,29.21074Zm51.77005-14.78694c7.47613-10.93,14.2626-21.33,21.55411-31.363,6.01619-8.27817,8.06607-17.157,6.72875-27.21956-2.22723-16.75856-19.24412-28.25243-35.51649-23.68679-18.9181,5.308-27.95618,28.433-17.31731,45.98841C127.6111,228.76608,136.17579,240.24091,144.77546,252.85828Zm45.40366,11.14662c-4.82191-10.20143-9.42878-20.04932-14.1867-29.82368a3.92263,3.92263,0,0,0-2.75238-1.546c-5.97106-.71555-11.58963-.60675-14.48121,6.207-.89031,2.09793-2.53755,3.878-3.8599,5.78854-3.32406,4.80276-6.6605,9.59694-10.16979,14.65062-5.32121-7.77487-10.19014-14.89759-15.06867-22.01373-2.94209-4.29151-10.49914-6.52974-15.24907-4.439a3.63206,3.63206,0,0,0-1.59888,1.68234c-4.62906,9.66091-9.2041,19.3477-14.01279,29.49387Z" transform="translate(-93.00541 -165.78561)"/><path d="M145.29485,210.155a12.01774,12.01774,0,0,1-12.289-11.69319,12.73573,12.73573,0,0,1,11.85965-12.40929c6.20977-.17626,12.037,5.599,12.13287,12.02458A11.53567,11.53567,0,0,1,145.29485,210.155Zm7.76269-11.36834c.19106-4.92291-2.8475-8.496-7.46518-8.77831a7.99886,7.99886,0,0,0-8.58878,7.75319,8.39441,8.39441,0,0,0,8.09547,8.90285A7.96533,7.96533,0,0,0,153.05754,198.78661Z" transform="translate(-93.00541 -165.78561)"/></svg>