<svg id="b9a1085a-9b54-467e-bd27-ba4a419ae9bb" data-name="Layer 1" xmlns="http://www.w3.org/2000/svg" viewBox="0 0 120.40702 116.34751"><path d="M84.83255,213.2706c-.00033-30.068,22.14919-53.57443,53.32684-54.86435,30.574-1.26493,53.11929,22.03283,56.03215,47.80736a7.97058,7.97058,0,0,1,.14693.98638c-.16059,10.268.85949,19.47272,7.46871,28.7835,7.16207,10.08962,2.3392,25.02776-7.30775,32.63174a27.36313,27.36313,0,0,1-34.19216.17921c-2.83361-2.285-5.19886-2.52084-8.51989-1.79507C116.78472,274.64879,84.83293,248.94692,84.83255,213.2706Zm104.31249,8.562c0-4.96141.30937-9.27373-.05254-13.529-1.74244-20.487-17.15469-38.1991-37.35955-43.19252A49.77375,49.77375,0,0,0,98.39739,185.635c-11.77533,17.837-11.19122,40.99326,1.4509,57.51877,5.5289,7.22726,5.52937,7.22813,13.72573,2.80635q1.756-.94733,3.50058-1.91572c6.71622-3.71676,7.49488-7.33236,3.89943-14.17407-3.96911-7.55277-8.59929-14.98754-7.14421-24.23752A133.2517,133.2517,0,0,0,115.472,190.925c.41178-9.21439,4.58535-15.6138,13.58994-17.19359a51.8447,51.8447,0,0,1,19.15927.29931c9.05127,1.89636,12.81577,8.27074,12.914,17.60921.04437,4.21913,1.26423,8.41385,1.52475,12.64587.31031,5.04075,1.57505,10.19587-1.96438,14.89759-2.60179,3.45617-4.645,7.33281-6.93714,11.02208C163.6408,219.90787,174.97045,217.12669,189.145,221.83257Zm-36.97376,39.22621c-.98715-5.27546-.69575-11.14959-3.15737-15.44659-6.7385-11.76268,1.51686-20.0254,6.108-28.73495,1.51451-2.87306,2.86876-5.27928,2.64889-8.29734-.4872-6.688-1.10673-13.38063-2.08584-20.0103a12.54486,12.54486,0,0,0-3.00339-6.13133c-5.70276-6.38-22.7297-6.47718-28.60268-.19241A11.15332,11.15332,0,0,0,121.133,187.86c-.95981,6.978-1.695,14.0068-2.06823,21.04005-.3963,7.46828,3.90555,13.46635,7.33783,19.546,3.843,6.80724,1.97167,15.48146-4.83221,19.26389-3.43566,1.91-6.88974,3.78685-10.44352,5.738C121.27086,262.43471,140.92829,265.85166,152.17128,261.05878Zm2.67811-14.006a22.327,22.327,0,1,0,22.17908-22.216A22.23664,22.23664,0,0,0,154.84939,247.05283Z" transform="translate(-84.83255 -158.35701)"/><path d="M172.64516,252.362c4.74137-5.90077,8.43544-10.78177,12.48887-15.34344,1.01379-1.14089,3.18418-1.254,4.823-1.83954-.25435,1.70574.046,3.82079-.85857,5.04675-4.02926,5.46072-8.43781,10.63986-12.63714,15.97753-1.97426,2.50941-3.85918,2.785-6.11983.36013-2.37232-2.54467-5.00156-4.86-7.248-7.50534-.64044-.75413-.339-2.30812-.46951-3.49532,1.35161-.09654,3.23446-.8023,3.95442-.17448C168.67042,247.21258,170.29639,249.57133,172.64516,252.362Z" transform="translate(-84.83255 -158.35701)"/></svg>