<svg id="f9a7a63f-7198-47b3-b12f-c0f505fd1633" data-name="Layer 1" xmlns="http://www.w3.org/2000/svg" viewBox="0 0 119.05928 122.0967"><path d="M130.5606,249.403c.06646,2.80276-.989,4.19457-4.105,4.14895-9.82241-.14382-19.651.08726-29.47172-.10706-6.7499-.13356-11.37742-4.66315-11.42263-11.4007Q85.34,209.07525,85.549,176.10405c.03439-6.35064,3.92452-10.51573,10.25654-11.58187,2.26423-.38124,4.58769-.41069,6.82627-.59592,1.384-7.33073,4.31612-9.46433,11.476-7.49849,1.78368.48974,2.93288,3.34341,4.33661,5.13954.61954.79272,1.14647,1.65782,1.71545,2.49006.55611-.82967,1.57057-1.64773,1.59192-2.49094.11515-4.54788,2.87814-5.4363,6.68447-5.4315,4.19714.00529,8.29084-.16422,8.46693,5.75646.022.73812.87495,1.45153,1.34288,2.17639.62986-.55491,1.62372-.99847,1.83285-1.68209,1.93013-6.30928,2.37746-6.48465,9.43431-6.26653,5.09565.15749,5.90114,3.35913,5.742,8.08105,2.5336,0,4.81351-.14079,7.07079.02557,7.74.57044,12.23,5.09025,12.45425,12.86952.20625,7.15432.21412,14.3263-.08854,21.47366-.0634,1.49706-1.86524,2.92051-2.866,4.37787-.7752-1.44419-2.1499-2.86023-2.21927-4.33757-.26525-5.64922-.10969-11.31816-.11293-16.97975-.00626-10.96107-2.41845-13.06089-13.49559-11.75041-2.09588,5.77163-7.03717,8.2538-12.65329,5.91537-1.37432-.57224-2.1325-2.63185-3.16489-4.0144-.52266-.69993-1.02507-1.415-1.53664-2.12318-.6.6122-1.62953,1.16115-1.73051,1.84685-.67217,4.56421-3.8983,4.73636-7.44054,4.68535-3.58262-.0516-7.2584.28676-7.73128-4.8061a2.20344,2.20344,0,0,0-1.43269-1.57582,2.15943,2.15943,0,0,0-1.69075,1.29309c-1.03971,6.51012-6.16163,5.49-10.11917,4.81593-2.44269-.41608-4.48979-3.15464-6.35765-5.35709-8.55079-1.86429-11.30446.40847-11.30645,9.12117q-.00681,29.9731.00687,59.9462c.00748,6.68568,1.88069,8.51447,8.65174,8.53479,8.32579.025,16.65331-.08208,24.97645.06873,2.06972.0375,4.12544.84759,6.1876,1.30257Zm-17.208-79.04121c-1.46136-2.94334,2.43645-7.07-2.6917-8.51129-.20857-.05862-1.73153,3.3597-2.0768,5.26075C108.02773,170.17434,109.208,171.82026,113.35255,170.36176ZM127.155,171.371c1.749-.63993,3.88147-.93542,3.97249-1.53885a23.42329,23.42329,0,0,0-.12139-7.31911c-.08151-.48115-2.31-.59859-3.8511-.95336Zm22.6697-10.45285c-1.8922.957-3.88872,1.40551-3.989,2.12008a23.2291,23.2291,0,0,0,.26424,7.27912c.07424.40946,2.3816.414,3.72475.61572Z" transform="translate(-85.45515 -155.7352)"/><path d="M130.65666,249.53256c-.00295-1.783.13362-3.579-.03016-5.34711-1.88868-20.39031,13.41966-39.0704,33.06615-40.29571,22.56287-1.40721,40.27127,14.06913,40.80953,35.66567a37.05958,37.05958,0,0,1-71.56364,14.68923c-.66291-1.65419-1.56557-3.21229-2.3675-4.8283C130.5606,249.403,130.65666,249.53256,130.65666,249.53256Zm68.51005-8.53766a31.668,31.668,0,1,0-31.94993,31.49125A31.5505,31.5505,0,0,0,199.16671,240.9949Z" transform="translate(-85.45515 -155.7352)"/><path d="M112.38237,203.9941a8.503,8.503,0,0,1-8.503-8.609,8.62455,8.62455,0,1,1,17.247.255A8.48039,8.48039,0,0,1,112.38237,203.9941Zm4.82854-8.12938c-1.97476-1.768-3.20622-3.679-4.19519-3.56085-1.38137.16508-2.58173,1.845-3.85954,2.87672.96451,1.172,1.8574,3.212,2.91143,3.29891C113.41955,198.59105,114.90107,197.13214,117.21091,195.86472Z" transform="translate(-85.45515 -155.7352)"/><path d="M137.81841,203.99463a8.62931,8.62931,0,0,1-8.63577-8.53649,8.53016,8.53016,0,0,1,9.01789-8.61149,8.29786,8.29786,0,0,1,8.27932,8.7415A8.40034,8.40034,0,0,1,137.81841,203.99463Zm4.93842-8.58022c-2.42367-1.61273-3.75129-3.17355-5.0361-3.13907-1.04852.02813-2.84687,1.96325-2.84576,3.05135.00117,1.13963,1.7091,3.14389,2.7491,3.19545C138.90671,198.58572,140.26994,197.02362,142.75683,195.41441Z" transform="translate(-85.45515 -155.7352)"/><path d="M121.13333,219.62149a8.61754,8.61754,0,1,1-8.42721-8.6171A8.44182,8.44182,0,0,1,121.13333,219.62149Zm-8.99639,4.80822c1.78305-2.29119,3.4777-3.536,3.56725-4.88711.06826-1.03-1.83251-2.97741-2.9799-3.075-1.09971-.09352-3.23514,1.59408-3.32614,2.6375C109.28122,220.44575,110.75014,221.92467,112.13694,224.42971Z" transform="translate(-85.45515 -155.7352)"/><path d="M166.52622,249.39186c-1.905-1.51324-4.87648-2.7891-5.87267-4.968-1.00892-2.20679-1.16473-6.49811.23331-7.78924,3.99773-3.692,3.19362-7.99073,3.27845-12.33714.01623-.83179-.26773-1.79569.05895-2.46984a49.35758,49.35758,0,0,1,2.75-4.51039,26.06781,26.06781,0,0,1,2.44614,4.698c.40762,1.37742.085,2.97093.086,4.4687.00535,7.928,4.4934,12.344,12.54118,12.35063a38.42712,38.42712,0,0,1,6.47051.15171c.95879.1662,2.43484,1.54878,2.38258,2.28821a3.92371,3.92371,0,0,1-2.3112,2.5504c-1.16015.45706-2.62115.15727-3.95164.17383-4.67646.05819-9.57817-1.01426-13.13888,3.59567C170.74676,248.56813,168.79867,248.61816,166.52622,249.39186Z" transform="translate(-85.45515 -155.7352)"/></svg>