<svg id="bd67908b-3a5b-4690-a72d-3be44a300afa" data-name="Layer 1" xmlns="http://www.w3.org/2000/svg" viewBox="0 0 77.57266 118.86736"><path d="M117.12955,276.39142v-9.04034l-10.50621-.62747c-.11851-1.71128-.32535-3.322-.32714-4.93288-.02236-20.15211-.108-40.30527.11085-60.455a11.08364,11.08364,0,0,1,2.84144-6.86481c5.38882-5.66364,11.208-10.91815,16.87368-16.31749.59866-.57052,1.26619-1.51386,1.91182-1.52237,7.97642-.10514,15.9547-.06861,23.9325-.06861l.06494,1.74507H130.09871c0,5.86861-.25257,10.82037.07822,15.73284.27519,4.087-1.28025,5.22866-5.15744,5.0064-5.11245-.29307-10.25436-.07206-15.70806-.07206v64.97289h61.94723v-84.7053l-8.99561-.9982.075-1.4426h11.75276c0,4.02528-.22591,8.28906.10023,12.51019a10.20165,10.20165,0,0,0,2.19586,5.67694,28.00569,28.00569,0,0,1,7.36686,19.11524c.07183,19.31915-.03269,38.63906.0795,57.95781.01941,3.3416-.86248,4.77289-4.48209,4.74862-19.818-.13284-39.63742-.06326-59.45632-.08189A25.26819,25.26819,0,0,1,117.12955,276.39142Zm2.99434-2.73367h60.82175c0-21.1857.1193-41.98111-.0866-62.77329-.04948-4.99733-2.12856-9.51565-6.86482-13.88731v70.18254H120.12389Zm7.025-77.61169V180.20967l-14.55041,15.83639Z" transform="translate(-106.26093 -157.94319)"/><path d="M155.67262,207.62056c-.51536-3.37058-1.41819-6.73464-1.47509-10.113-.18776-11.15076-.11515-22.30693-.05034-33.46049.03336-5.74134,1.36424-6.71662,7.79162-5.8068v14.44376l-.98944.03346V159.66282l-1.30371.0393q0,5.89862.00066,11.79725c.00964,9.48918.15747,18.98135-.05335,28.46559-.05812,2.61461-1.18176,5.20553-1.81649,7.80732Zm1.51534-42.02712-.39125.01332v32.838l.39125-.01321Z" transform="translate(-106.26093 -157.94319)"/><path d="M120.89284,201.415c3.37508-.14953,7.1051.70912,9.40422-.72545,2.00864-1.25333,2.40655-5.08808,3.81825-8.51615,1.44183-.54953,3.23834-.61589,3.21046,2.78337-.042,5.11586-.01093,10.23232-.01093,15.73508h-16.422Z" transform="translate(-106.26093 -157.94319)"/><ellipse cx="35.10193" cy="59.7158" rx="34.08123" ry="0.95166"/><path d="M165.30319,231.37212H117.31608l.00169-1.71916c16.0344-.88484,32.07546-.19993,48.11263-.42855Z" transform="translate(-106.26093 -157.94319)"/><path d="M117.3094,242.30253c16.01157.00458,32.02423-.18862,48.034.13348l-.00294,1.96157H117.39586Z" transform="translate(-106.26093 -157.94319)"/></svg>