<svg id="a5f58934-4bb3-4a6a-8b63-d4d23903895e" data-name="Layer 1" xmlns="http://www.w3.org/2000/svg" viewBox="0 0 123.10819 113.67767"><path d="M107.8331,201.16788c0-10.28881-.03412-19.75844.01029-29.22771.03874-8.259,3.60538-11.76163,11.94833-11.76687q37.47482-.02354,74.94966.00284c7.99116.0073,11.72254,3.57,11.7381,11.49233q.0888,45.21947.005,90.43919c-.01349,8.21863-3.68,11.715-12.01891,11.71878q-47.96773.02178-95.93547-.00039c-9.74323-.00508-14.97637-5.03493-15.01463-14.60155-.07-17.488.094-34.9777-.09983-52.46381-.04931-4.44682,1.5497-5.8675,5.84734-5.66375C95.219,201.37931,101.19845,201.16788,107.8331,201.16788ZM113,268.49342h4.551q37.7314,0,75.46281-.00457c7.29585-.0034,8.147-.83567,8.1494-7.95185q.015-43.47858.00053-86.95715c-.00221-7.25975-.79553-8.06389-8.03308-8.068q-35.98225-.02043-71.96453-.00005c-7.17056.004-8.1593.9799-8.16193,8.01185q-.01516,40.48-.00416,80.96ZM89.09371,206.74658c-.102,1.6731-.24865,2.97173-.24994,4.27051q-.02382,23.97042.00249,47.94086c.0171,6.73194,2.95337,9.50914,9.84155,9.5341,6.99931.02537,9.12774-2.10373,9.13771-9.29288q.03288-23.72073.00676-47.44154v-5.01105Z" transform="translate(-83.41457 -160.16028)"/><path d="M154.1591,187.88483c.00185,4.15748-.072,8.31673.02751,12.47183.06772,2.82656-.9553,4.463-3.96257,4.46168q-12.72177-.00564-25.44356-.00315c-2.629-.00164-3.95793-1.23615-3.94544-3.96331.03883-8.481.06114-16.96282-.017-25.44333-.02753-2.98791,1.381-4.23211,4.21594-4.22993q12.47241.0096,24.94483.00235c2.8218-.00007,4.286,1.22367,4.20608,4.23217C154.0746,179.56768,154.15725,183.72735,154.1591,187.88483Zm-27.98617,11.20124h22.5318V176.914h-22.5318Z" transform="translate(-83.41457 -160.16028)"/><path d="M156.50819,219.50253c-10.32042.00019-20.643.10263-30.95892-.11131-1.53089-.03174-3.03085-1.55571-4.54511-2.38931,1.51013-.83486,3.01486-2.38531,4.53119-2.39672q31.7085-.23863,63.41884.01046c1.44485.01174,2.876,1.71255,4.31346,2.62783-1.43336.75295-2.856,2.13409-4.3018,2.1587C178.14919,219.58629,167.328,219.50233,156.50819,219.50253Z" transform="translate(-83.41457 -160.16028)"/><path d="M156.4954,236.5027c-10.16058.00141-20.32408.12384-30.47882-.11944-1.68716-.04042-3.33612-1.67553-5.00273-2.57372,1.66925-.88043,3.3322-2.513,5.00872-2.527q31.22915-.26176,62.46058.01257c1.58934.0145,3.16237,1.81767,4.743,2.78942-1.58327.8056-3.15355,2.27781-4.75194,2.309C177.818,236.60127,167.15569,236.50128,156.4954,236.5027Z" transform="translate(-83.41457 -160.16028)"/><path d="M176.68179,187.82619c-4.30688-.00315-8.62737.18575-12.91207-.12255-1.226-.08822-2.34838-1.61623-3.51827-2.484,1.16562-.89652,2.31138-2.53857,3.5-2.57024,8.60767-.22936,17.22745-.254,25.8339-.00935,1.27553.03626,2.50112,1.82949,3.74983,2.80986-1.24424.79316-2.44824,2.18315-3.74008,2.27024C185.30772,188.00916,180.9887,187.82933,176.68179,187.82619Z" transform="translate(-83.41457 -160.16028)"/><path d="M176.51274,176.49176c-4.15808.00453-8.32887.18674-12.46677-.10222-1.30688-.09126-2.52575-1.44308-3.7849-2.218,1.1124-.98569,2.20235-2.79521,3.34075-2.82623q13.212-.36,26.43621-.00537c1.10162.02957,2.15436,1.88036,3.22975,2.8873-1.09434.75333-2.1557,2.093-3.28881,2.15667C185.50244,176.63564,181.00342,176.48723,176.51274,176.49176Z" transform="translate(-83.41457 -160.16028)"/><path d="M176.7515,198.99512c-4.33111-.0011-8.67568.18715-12.98477-.12089-1.22232-.08738-2.34119-1.62184-3.50751-2.49266,1.19315-.84671,2.36914-2.39762,3.58223-2.4272q12.98557-.31656,25.98093.00538c1.1917.03,2.34381,1.63516,3.51425,2.51106-1.19726.8418-2.34991,2.32224-3.59987,2.40955C185.42667,199.18142,181.08262,198.99621,176.7515,198.99512Z" transform="translate(-83.41457 -160.16028)"/></svg>