<svg id="a88f89d0-4ea6-446c-9860-e7350433fd8e" data-name="Layer 1" xmlns="http://www.w3.org/2000/svg" viewBox="0 0 109.93386 108.88377"><path d="M141.48943,195.075l-5.44052-3.26927,3.81277-2.94985c-3.023-3.35253-6.63424-6.948-9.74848-10.932-2.82726-3.61687-6.62892-7.91578-2.70957-12.43334,3.75685-4.33026,8.33108-.83241,12.341.87844a70.17961,70.17961,0,0,1,6.50958,3.58235c10.47788-9.45039,10.47788-9.45039,20.14587-.11356,3.71852-1.80963,7.2893-4.16517,11.21048-5.22809,2.48475-.67355,6.37195-.32421,7.9861,1.251,1.29764,1.26638.82865,5.35144-.124,7.66358-1.23031,2.98616-3.55947,5.59281-5.71871,8.1019-2.05214,2.38463-4.49488,4.4331-6.76945,6.63285l3.92066,3.8901-5.5323,3.01936c2.78091,3.83244,6.03425,7.98573,8.92362,12.37842,3.93014,5.975,7.9031,11.96378,11.229,18.27781a31.431,31.431,0,0,1,3.53654,11.80293c.33284,4.14817-.10032,8.01389,3.53951,11.18174,2.26222,1.96887,1.51543,4.098-1.372,5.33037-12.39626,5.29078-24.7465,10.6902-37.16727,15.92242-5.61694,2.36613-11.24442,2.08128-17.03655.01191-10.96379-3.91705-22.06164-7.45883-33.03034-11.13194-2.82378,3.33788-14.48538,5.70217-18.22078,3.5203-.96778-.56529-1.65556-2.41714-1.66793-3.68587-.12185-12.49537-.02125-24.9928-.11273-37.48869-.02178-2.97384,1.044-4.52219,4.077-4.0867,5.75278.826,11.49811,1.71852,17.22341,2.71606,3.70753.646,6.64176,2.22088,5.95919,7.85148,1.781-1.08393,3.07028-1.44354,3.65619-2.29,6.9011-9.97015,13.69919-20.01164,20.50636-30.04657C141.57843,195.19289,141.532,194.812,141.48943,195.075Zm12.10215,39.741c1.64894-3.90022-.851-4.43978-2.93334-5.95616-2.30947-1.68181-5.08946-4.51895-5.17992-6.94567-.09261-2.48446,2.43482-5.491,4.54827-7.49693,1.64514-1.5614,4.63423-1.681,4.68475-4.92709a23.87808,23.87808,0,0,1,3.37808-.38454c-.05355,3.93512,3.74592,3.95233,5.76281,5.80665a17.53176,17.53176,0,0,1,3.63088,5.13894c.31377.635-.63455,1.89365-1.00616,2.86733a8.85477,8.85477,0,0,1-2.76246-1.24291c-1.36654-1.3404-2.47579-2.94311-4.54171-5.48355-.81769,6.33352-1.76891,10.63979,4.48582,12.74141,3.6525,1.22726,4.6674,4.67352,3.78119,8.68548-.57782,2.61581-.34419,5.41085-.49539,8.57179l24.56666-4.93267c-.92312-3.65963-1.15306-8.137-3.11525-11.64573a294.36007,294.36007,0,0,0-15.897-25.26353c-7.78743-11.10653-8.01681-11.01515-21.50855-10.22067a6.73073,6.73073,0,0,0-4.51728,2.239c-6.6306,8.93141-13.05665,18.0158-19.46591,27.10924a36.32082,36.32082,0,0,0-2.42761,4.93319Zm-43.10114,19.50359c12.39067,4.21784,24.29468,8.37715,36.28871,12.25829,2.27445.736,5.20188,1.16745,7.32437.38069,13.44528-4.98386,26.7489-10.34987,40.78176-15.85771-4.66505-5.12537-9.17993-5.079-13.78-3.55593-15.11374,5.0043-30.31111,7.32047-45.79176,1.80017-1.40453-.50084-2.46665-1.96188-3.68779-2.977,1.573-.40687,3.22081-1.33474,4.705-1.12184,4.26706.61209,8.43253,1.97319,12.70451,2.4991,4.56948.56253,9.21486.50856,14.03336.73329.06273-5.56124-2.56433-7.49034-5.98441-8.28766-13.40514-3.1251-26.85256-6.06888-40.49626-9.12754Zm20.73744-86.84482-1.0988,1.67121c3.21928,8.1009,9.59619,13.82253,16.30853,18.7707,2.74157,2.021,7.47892,1.64343,11.3257,1.75441,2.84516.08207,6.52331.14585,8.42447-1.45346,5.1747-4.35312,9.69774-9.50754,14.26208-14.54113,1.16352-1.28314,1.52029-3.29782,2.24772-4.97638l-1.26241-1.34676c-4.28711,2.25895-8.7399,4.2596-12.80391,6.86637-2.7753,1.78016-4.26975,1.476-6.06915-1.16415-1.632-2.39458-3.80166-4.42277-6.36592-7.32818-1.94241,2.308-3.83143,3.86566-4.824,5.86772-2.45234,4.94652-5.17463,4.0829-8.99061,1.48677C138.97079,170.76151,134.96893,169.30986,131.22788,167.47485ZM94.58773,258.434c2.92433,0,5.27675.25751,7.52744-.10925a4.28722,4.28722,0,0,0,2.95989-2.34969q3.95412-14.13349,7.3978-28.40552c.22611-.93934-.89977-3.07541-1.70356-3.25-5.23133-1.13637-10.54711-1.884-16.18157-2.8161Zm58.01575-32.92756,1.26128-.72276v-6.66431l-1.15058-.64305c-.98933,1.3939-2.66526,2.74462-2.75649,4.195C149.88107,222.88942,151.651,224.22365,152.60348,225.50645Z" transform="translate(-89.99367 -162.84929)"/></svg>