<svg id="b29dff10-2786-482f-8ed8-2a7d1f09147b" data-name="Layer 1" xmlns="http://www.w3.org/2000/svg" viewBox="0 0 128 109.65925"><path d="M81,186c3.55777-1.00384,7.24111-3.182,10.65254-2.8172,19.30226,2.06394,36.78408-2.39254,53.01018-12.84485a117.94012,117.94012,0,0,1,14.19389-7.27049c3.97724-1.85435,6.09663-.541,6.2223,3.81962.163,5.657-.1002,11.32874.15853,16.97865.06626,1.44684,1.06114,3.61564,2.21571,4.12579,8.35048,3.6897,13.049,9.76993,12.56593,19.006-.48435,9.25969-5.97555,14.77842-14.887,17.51321q0,8.25794-.0003,16.46962c-.00325,10.21448-1.08395,10.90032-10.00451,6.39609-10.83952-5.47317-21.618-11.075-32.575-16.30239-2.796-1.33391-6.16611-1.46428-10.05784-2.32039,0,11.68241.05155,22.13445-.01664,32.5857-.05266,8.0723-2.54312,10.53608-10.37922,10.56964-9.04546.03875-11.16912-2.06366-11.17673-11.1064-.00866-10.2781-.002-20.55622-.002-29.828L81,226Zm76.66748-14.08273c-11.00225,5.56591-21.25768,10.64472-31.36084,16.01025-1.19636.63536-2.17479,2.82662-2.20772,4.31973-.20154,9.13772.03543,18.2853-.17878,27.42244-.0708,3.01947,1.15412,4.38782,3.687,5.57843,5.69528,2.6772,11.256,5.64085,16.8698,8.49115,4.21434,2.13974,8.42609,4.28456,13.19057,6.70764Zm-41.35839,18.91325h-28.321V221.7196h28.321ZM98.51734,229.59981v34.40127h6.12143V229.59981Zm66.89739-13.19435c5.1731-2.34288,7.4782-5.97868,7.34562-10.81742-.12609-4.602-2.40355-8.05666-7.34562-9.93763Z" transform="translate(-81 -162.25027)"/><path d="M209,215c-1.94386,3.21662-3.51469,6.77052-5.98916,9.50741-1.23472,1.36565-4.1222,1.237-6.26209,1.78429.15442-2.07309-.43733-4.66417.584-6.13549,6.77588-9.76117,6.7695-18.791-.01407-28.46544-1.0154-1.44811-.38965-4.047-.52309-6.11347,2.01755.45691,4.80645.24559,5.89755,1.50507,2.53737,2.929,4.25627,6.567,6.30686,9.91763Z" transform="translate(-81 -162.25027)"/><path d="M200.244,205.9459c-2.28238,4.71148-4.00472,8.94492-6.40358,12.7521-.61586.9774-3.36534.6104-5.13462.861-.18747-1.751-1.18921-4.07685-.42657-5.15692,4.0957-5.80045,4.09373-11.17253-.02648-16.96419-.80007-1.12463.14956-3.494.29211-5.28922,1.76724.26987,4.50527-.0732,5.13078.91752C196.15551,196.994,197.97468,201.33881,200.244,205.9459Z" transform="translate(-81 -162.25027)"/></svg>