<svg id="a8bd4562-25dd-4426-8f0a-e09e82f7d9c6" data-name="Layer 1" xmlns="http://www.w3.org/2000/svg" viewBox="0 0 115.99153 117.68619"><path d="M160.72072,262c-2.91133,8.56819-7.6367,12.6214-14.458,12.68394-6.71079.06152-11.55492-4.00838-14.68235-12.684-12.25051,0-24.68773.002-37.12494-.00293a14.99655,14.99655,0,0,1-3.97771-.12171c-2.41908-.68652-3.49475-2.54491-1.43861-4.37727,10.56929-9.419,10.74057-22.32325,11.91668-34.8636.65133-6.945.17976-14.06245,1.46125-20.86736,2.824-14.99582,11.92174-25.31434,25.89289-31.28895,2.52787-1.081,4.34953-2.08994,5.21709-5.18336,1.51523-5.40284,6.251-8.19952,12.293-8.29368,6.36528-.0992,11.21892,2.56809,12.94945,8.09664.98529,3.14772,2.80069,4.34132,5.53192,5.55633,16.99451,7.56018,25.62756,20.82113,26.77065,39.34477.64356,10.42875,1.21648,20.95891,3.22641,31.1667,1.05735,5.37,5.161,10.13208,7.83522,15.19709.70606,1.33724,1.21225,2.78,1.8102,4.17433-1.321.487-2.63779,1.38275-3.96375,1.39655-10.98848.11444-21.97866.06582-32.96832.06647C165.01978,262.00011,163.02776,262,160.72072,262Zm26.92746-20.0967c-.66066-11.40247-.81571-22.68946-2.06833-33.85329-2.39373-21.33371-16.67766-34.29189-37.61173-35.4011-21.681-1.14879-38.43815,13.335-40.75062,32.32842-1.47945,12.1514-1.76512,24.44815-2.60249,36.926ZM98.33473,256.44808H194.2335c-3.78561-8.92645-3.78561-8.92663-12.44232-8.92667q-35.69142-.00017-71.38281,0C101.5949,247.52145,101.5949,247.52167,98.33473,256.44808Zm39.30133,5.79631c1.22132,4.8076,4.22035,6.91476,8.62378,6.92683,4.46193.01223,7.22454-2.39793,8.6949-6.92683Zm.89663-94.91789h15.0081l.61955-1.61891c-2.58435-1.17905-5.07842-2.99269-7.77593-3.3765C143.0139,161.85152,139.95734,163.29282,138.53269,167.3265Z" transform="translate(-87.95234 -156.99843)"/></svg>