<svg id="ae45514a-b3fa-466f-9df7-61b373164ccc" data-name="Layer 1" xmlns="http://www.w3.org/2000/svg" viewBox="0 0 102.27923 85.69699"><path d="M93.7938,229.29768c1.69734-2.89844,4.26205-4.23285,7.48487-5.23237a27.49532,27.49532,0,0,0,9.27318-4.97334,25.58421,25.58421,0,0,1,17.80665-6.44179,27.245,27.245,0,0,0,3.96518-.01447,41.47354,41.47354,0,0,1,32.79121,9.74644c2.3968,2.00685,5.67,2.96706,9.20128,4.74017V209.16888c-3.28339,0-6.41766-.01049-9.55183.00289-3.27411.014-4.92387-1.61838-4.853-4.87329.05939-2.72631.241-5.45.36853-8.17479l2.0451-.02727c.27024,3.18092.54048,6.36183.83762,9.85936h28.95048V176.94722H163.084c-.189,4.2242-.37124,8.29675-.55347,12.36931l-1.31316.20309a8.61855,8.61855,0,0,1-1.26237-2.42838c-1.78375-11.73349-.38405-13.35652,11.34715-13.35627,6.34834.00014,12.69741.059,19.04472-.02144,3.49524-.04428,5.08475,1.49442,5.05813,5.00716-.06412,8.464-.08177,16.92939.00841,25.39288.03794,3.5615-1.65341,5.07731-5.05234,5.06107-2.61482-.0125-5.22976-.00249-8.30038-.00249,0,6.08185-.08311,11.73443.10736,17.37777.02326.68943,1.41646,1.67882,2.34063,1.93816,9.34805,2.62319,13.76783,10.75015,10.488,20.03358-.5262,1.48939-2.35029,3.35432-3.75609,3.522-2.76446.32966-4.24109,1.50443-5.85006,3.67463-3.94443,5.32032-11.78131,4.7967-15.39673-.97125a4.41556,4.41556,0,0,0-4.39471-2.37861q-20.82991.10864-41.66055-.0007a4.3567,4.3567,0,0,0-4.37495,2.39795c-3.70662,6.00249-12.401,6.25948-15.82264.29923a11.94229,11.94229,0,0,0-6.2356-5.48751c-1.38726-.57953-2.48369-1.85524-3.71164-2.81612Zm8.15423,18.80195c.44552-1.04234.77481-2.04507,1.27766-2.95153,3.29084-5.93215,13.11428-6.77616,15.72556-.72261,2.38881,5.5378,5.92665,5.35652,10.41782,5.20772,5.41191-.17931,10.83429-.04244,16.25213-.04244h22.59529c1.23056-5.20489,3.77879-8.89139,9.24062-9.17939,6.24363-.32922,9.1,3.71487,10.83824,10.33178,1.77923-1.68358,3.65444-2.59634,3.94531-3.87071,2.15745-9.45218-1.20964-13.92743-10.77628-16.07688-5.84779-1.3139-12.53473-2.20493-17.00668-5.66294-10.3257-7.98452-21.418-10.86055-34.03484-9.50646a43.39845,43.39845,0,0,1-4.35819.04982c-4.68246.02738-8.5338,1.96392-12.37535,4.56837a78.70161,78.70161,0,0,1-13.06838,6.958c-2.549,1.09684-3.9574,2.31029-3.87584,5.135a65.89038,65.89038,0,0,1-.05214,9.10994C96.26363,245.3245,97.71475,247.45628,101.948,248.09963Zm16.21146,1.65354a6.59139,6.59139,0,0,0-6.66254-6.46248,6.4665,6.4665,0,0,0-6.60257,6.86438,6.54849,6.54849,0,0,0,6.805,6.27275A6.69317,6.69317,0,0,0,118.15949,249.75317Zm60.01291,6.66789a6.47921,6.47921,0,0,0,6.44538-6.58226,6.56261,6.56261,0,1,0-6.44538,6.58226ZM177.82,227.05277l.82791-.1115V209.54839l-.82791.044Z" transform="translate(-93.7938 -173.7126)"/><path d="M175.65833,193.69013a26.75408,26.75408,0,0,1-.06981,4.32967c-.113.6744-.96371,1.2252-1.48047,1.83194-.51609-.4972-1.46816-.98381-1.48054-1.49324-.11836-4.8729-.10881-9.75013-.03721-14.62466.00754-.51381.68078-1.47758.99049-1.45577,2.94274.2072,6.14952-.01277,8.68969,1.16454,1.24.57472,1.8482,3.90576,1.64811,5.87819-.325,3.20328-3.195,3.79-5.96374,4.01274C177.31552,193.385,176.68353,193.52766,175.65833,193.69013Zm.25321-2.542c1.88733-.66672,3.61469-.85616,4.64078-1.80441.57366-.53014.4493-2.907-.18584-3.41041-1.08485-.8598-2.8188-.90063-4.45494-1.33148Z" transform="translate(-93.7938 -173.7126)"/><path d="M151.70373,190.50843a14.55582,14.55582,0,0,1-3.12312-1.3429c-9.5651-7.09583-18.55112-7.09036-28.39558.05069a24.18459,24.18459,0,0,1-3.1596,1.60792c.431-4.215,5.75042-7.90838,12.34428-9.224C138.53993,179.77044,148.67534,183.30538,151.70373,190.50843Z" transform="translate(-93.7938 -173.7126)"/><path d="M134.5578,188.3721c3.83619,1.8779,7.22356,3.43133,10.4745,5.23118.53849.29813.48085,1.673.69869,2.55032-.81408-.14089-1.82393-.02116-2.412-.46292-5.97183-4.48611-11.85083-4.41341-17.8424-.0211-.60549.44387-1.76321.13445-2.66465.17461.30285-.77438.388-1.9634.94415-2.2553C127.15849,191.80294,130.66763,190.22037,134.5578,188.3721Z" transform="translate(-93.7938 -173.7126)"/><path d="M140.06989,202.23251c-1.8001-.50027-3.6055-1.41009-5.39883-1.38687-1.833.02372-3.65415.96275-5.48049,1.5011l-.844-1.05441c1.243-1.00685,2.33748-2.423,3.75873-2.939,3.41924-1.24151,6.2628-.16328,8.34084,2.57756Z" transform="translate(-93.7938 -173.7126)"/><path d="M124.05857,231.894l5.95112-1.16565v-9.7273c-7.65178-1.17893-13.05088,1.3-21.115,9.886,2.32214.13546,4.20714.12022,6.04234.415.71952.11558,1.32744.92588,1.98619,1.41978-.6742.44937-1.38177,1.32466-2.01688,1.27491-2.85928-.224-6.59382,1.51037-8.20613-2.08167-1.76977-3.94284,2.2315-4.88184,4.37515-6.81575,12.51629-11.29167,26.88285-8.68573,40.9838-4.88247,4.72365,1.274,8.777,5.25024,12.92841,8.27694,1.04168.75946,1.27855,2.62279,1.8853,3.97879-1.21685.53638-2.42929,1.52692-3.65122,1.53879-12.02124.11672-24.04413.08712-36.06633.04208a15.96941,15.96941,0,0,1-3.12948-.63553Zm38.86174-.91618c-8.79495-7.772-17.8958-12.64912-29.64389-9.8527v9.8527Z" transform="translate(-93.7938 -173.7126)"/><path d="M138.19387,236.51811a13.14509,13.14509,0,0,1-.47426,1.69452c-2.09563.1829-4.193.34633-6.2901.512l-.12221-1.83015Z" transform="translate(-93.7938 -173.7126)"/><path d="M110.76937,254.76656c-1.17049-1.5792-2.97606-3.01859-3.36175-4.77057-.57036-2.59081,1.34518-4.22566,3.92723-4.35837,2.64154-.13579,4.58709,1.55557,4.34374,4.023-.174,1.76367-1.965,3.36785-3.03442,5.04319Z" transform="translate(-93.7938 -173.7126)"/><path d="M176.91121,254.696c-1.03054-1.66078-2.68884-3.2312-2.944-5.0036-.37932-2.6352,1.66063-4.11949,4.22216-4.05723,2.61385.06353,4.45966,1.85,3.99885,4.3349-.3232,1.74279-2.186,3.20007-3.36128,4.78484Z" transform="translate(-93.7938 -173.7126)"/></svg>