<svg id="f204b18b-f165-419f-9495-a2d486ca5196" data-name="Layer 1" xmlns="http://www.w3.org/2000/svg" viewBox="0 0 89.07368 104.42284"><path d="M165.32535,178.47674c-2.85295-2.04043-5.432-4.87957-8.61082-5.96972a36.72625,36.72625,0,0,0-27.28547,1.012c-2.41217,1.057-4.289,3.33575-6.4115,5.05376l.66429,1.55762q-6.44394,0-12.88788-.00144c-3.22087-.00437-4.80129,1.30091-4.786,4.81459q.14577,33.49311.02686,66.98718c-.01054,4.04468,2.13541,5.09141,5.69515,5.06946,11.66419-.07194,23.33005-.09828,34.99252.06013,1.49807.02034,2.98,1.23295,4.46933,1.89325-1.398.69575-2.78836,1.97712-4.19506,1.99526-11.99569.15469-23.99458.12307-35.992.05624-6.17039-.03436-8.99868-2.97824-9.00553-9.264q-.03622-33.24378-.00323-66.48761c.00593-6.68239,2.548-9.15847,9.38949-9.248,4.3593-.05705,7.98747-.35932,12.04125-3.63127,11.47323-9.26047,33.23581-7.39841,44.29576,2.562a5.28163,5.28163,0,0,0,3.05707,1.01549c2.49118.14484,4.99658.03112,7.496.05176,5.87231.04847,7.729,1.83487,7.74825,7.75926.04705,14.49728.07211,28.99535-.06609,43.49146-.01468,1.5392-1.1703,3.06754-1.79662,4.60092-.73165-1.58676-2.08-3.16644-2.09831-4.76137-.16053-13.99551-.22795-27.99621.01294-41.9896.06952-4.03872-1.19825-5.33653-5.13659-5.04705-4.127.30335-8.29354.06783-12.4428.06783Z" transform="translate(-101.98117 -166.35251)"/><path d="M191.05483,251.6465a19.07634,19.07634,0,1,1-19.17278-19.42488C182.2707,232.06836,191.07067,240.984,191.05483,251.6465Zm-4.07571-.40041a15.15675,15.15675,0,0,0-15.05026-14.79393,14.95345,14.95345,0,0,0-14.92777,15.32769,15.25552,15.25552,0,0,0,14.95632,14.923C180.10047,266.71339,187.0534,259.55909,186.97912,251.24609Z" transform="translate(-101.98117 -166.35251)"/><path d="M174.91721,216.3927c-1.48458.53451-2.96368,1.514-4.45461,1.53231q-16.212.1995-32.42661-.01829c-1.31812-.01957-2.61782-1.27979-3.92605-1.965,1.26027-.69387,2.51224-1.972,3.7821-1.99,11.13945-.15821,22.2822-.1126,33.42363-.05744a13.92373,13.92373,0,0,1,3.139.75232Z" transform="translate(-101.98117 -166.35251)"/><path d="M174.64437,199.383a13.92934,13.92934,0,0,1-3.47369.94967c-10.9912.08215-21.98388.12364-32.974-.00623-1.381-.01632-2.74955-1.09075-4.12386-1.67493,1.40488-.73227,2.7994-2.07546,4.21628-2.09948,10.6563-.18062,21.3176-.15725,31.97561-.04007,1.50424.01654,2.99909.88722,4.4983,1.36255Z" transform="translate(-101.98117 -166.35251)"/><path d="M114.14755,215.74115c-1.30765-5.47158,1.82379-5.65648,5.88341-5.86234,5.11887-.25957,5.9253,1.992,6.13627,6.50648.25606,5.47942-2.46878,5.55316-6.626,5.814C114.05235,222.54366,113.28486,219.90534,114.14755,215.74115Z" transform="translate(-101.98117 -166.35251)"/><path d="M114.1572,233.83024c-1.49329-5.346,1.491-5.86308,5.92415-5.96564,4.51571-.10448,6.15113,1.101,6.07036,5.84853-.078,4.58617-1.07724,6.556-6.155,6.44922C115.2855,240.06326,112.908,238.98835,114.1572,233.83024Z" transform="translate(-101.98117 -166.35251)"/><path d="M119.7326,192.80874c5.49867-1.236,6.25818,1.59165,6.43042,6.2932.2042,5.5737-3.04957,4.92845-6.63436,5.28484-5.469.54372-5.52982-2.46726-5.68119-6.60227C113.67252,193.0058,115.63541,191.83158,119.7326,192.80874Z" transform="translate(-101.98117 -166.35251)"/><path d="M146.49783,231.95059c2.80584.00211,5.62685-.16472,8.4097.08824,1.04161.09468,1.99437,1.16693,2.98764,1.79346-.92332.72118-1.82722,2.03581-2.77313,2.06677q-8.90284.29141-17.818.00452c-.89862-.02916-1.75345-1.40759-2.62853-2.1619.97-.59774,1.9057-1.6316,2.91632-1.71086C140.54445,231.79921,143.527,231.94849,146.49783,231.95059Z" transform="translate(-101.98117 -166.35251)"/><path d="M169.1686,264.27628c-2.54827-3.73983-4.44286-6.23793-5.97942-8.93966-.4898-.86122-.02883-2.26317-.0029-3.4177a10.49662,10.49662,0,0,1,3.205,1.1414c.96759.76361,1.55115,2.01385,2.70013,3.6045,2.68371-4.1159,4.98662-7.884,7.56641-11.45191.71916-.99462,2.25684-1.3974,3.419-2.07169.03207,1.304.57668,2.91338.01174,3.86177C176.80524,252.51482,173.261,257.87125,169.1686,264.27628Z" transform="translate(-101.98117 -166.35251)"/></svg>