<svg id="aef76a51-b5f9-4264-a156-903f64eb5e80" data-name="Layer 1" xmlns="http://www.w3.org/2000/svg" viewBox="0 0 89.8859 101.28102"><path d="M174.76124,165.7938c4.36144,4.40163,8.6494,8.87981,13.11821,13.16958,1.96007,1.88153,2.28574,3.50771.77242,5.83614-5.49986,8.46222-5.95807,17.385-2.82365,26.91348,1.75014,5.32035,3.47783,11.0053,3.39463,16.49837-.18231,12.036-8.3922,19.24955-17.87064,24.83539-5.3022,3.12469-11.32013,5.01042-16.8663,7.75594a39.1492,39.1492,0,0,0-7.72817,5.223c-1.68557,1.42179-2.61033,1.37315-4.325.00787a42.647,42.647,0,0,0-8.81354-5.69774c-8.52639-3.83858-17.38291-6.88266-24.39879-13.56283-8.86291-8.43883-11.66666-18.18122-7.66409-29.82431,1.07154-3.117,2.06809-6.26736,2.92346-9.4496a26.57642,26.57642,0,0,0-3.57456-21.99276c-1.8707-2.91866-1.52513-4.81959.955-7.12051,4.345-4.031,8.39738-8.37762,12.57234-12.592h1.5876c8.08528,6.62452,17.02566,6.91668,26.5201,3.7295a6.9117,6.9117,0,0,1,4.11342,0c9.4942,3.18588,18.43408,2.89024,26.52-3.72954Zm-1.12682,5.28192c-7.88111,4.68538-16.70285,5.99519-26.89354,2.88874a9.42747,9.42747,0,0,0-4.95637.22531c-8.34767,2.30332-16.3966,2.066-24.23-2.00644a4.03274,4.03274,0,0,0-3.61118.29481c-3.529,2.94644-6.81674,6.18191-9.95537,9.09439,7.1275,15.62255,7.304,19.51473,1.999,35.40429-.50094,1.50043-.92055,3.0311-1.31133,4.5647-1.75331,6.88065-.83532,13.51629,4.2764,18.42207a88.48456,88.48456,0,0,0,16.01,11.98174c5.85058,3.47949,12.31408,5.93341,18.54011,8.76859a2.86914,2.86914,0,0,0,2.11827.0487c6.58458-3.00193,13.40969-5.61684,19.60584-9.28815a78.91662,78.91662,0,0,0,15.22112-11.738c4.91721-4.87749,5.84421-11.39668,4.074-18.10565-1.00927-3.82509-2.25336-7.58953-3.43762-11.36688a31.47711,31.47711,0,0,1,2.37862-24.9374c.53727-1.02532,1.00473-2.08722,1.39432-2.90177Z" transform="translate(-99.71473 -165.7938)"/><path d="M153.57867,232.75409c-1.49052-.54017-1.99687-.69341-2.47869-.903-4.4198-1.92274-8.77181-2.32255-13.25326.00868-2.959,1.53924-4.66646.37351-4.34069-2.976.49684-5.10823-.53708-9.54443-4.36971-13.27047-2.01746-1.96135-1.57753-3.95411,1.33641-4.602,5.27852-1.17363,9.34778-3.71637,11.90659-8.68853,1.25595-2.44051,3.27609-2.1372,4.56792.11335,2.70507,4.71264,6.44434,7.72529,11.92975,8.65983,2.6979.45963,3.10654,2.43347,1.33918,4.356a16.72614,16.72614,0,0,0-4.63967,14.04421C155.70215,230.546,154.204,231.79013,153.57867,232.75409ZM134.842,214.74375l3.64247,11.469h11.91394c1.42543-3.90142,2.88615-7.89946,4.028-11.02458l-9.60257-7.32824Z" transform="translate(-99.71473 -165.7938)"/><path d="M146.75128,188.12161a19.68473,19.68473,0,0,1-4.17647,1.43582c-10.59807,1.16195-18.17474,6.51324-22.73437,16.12285-.6166,1.29952-.78413,2.83579-1.51138,4.0521a16.63977,16.63977,0,0,1-2.71182,2.81958c-.41625-1.31418-1.45358-2.79495-1.15267-3.91675,3.00308-11.19568,10.226-18.52729,21.22022-22.01542A35.56865,35.56865,0,0,1,143.86368,185.4c.89881-.06434,1.86334.78926,2.79782,1.22307Z" transform="translate(-99.71473 -165.7938)"/><path d="M144.96752,247.83357l-2.17635-1.81114c1.00577-.79534,1.95176-2.18745,3.02641-2.29508,12.82581-1.28457,21.08407-8.01772,25.059-20.24864.36228-1.11473,1.77456-1.88821,2.69925-2.82016.41619,1.31,1.41912,2.75189,1.15867,3.90961C171.83388,237.462,159.38782,247.47968,144.96752,247.83357Z" transform="translate(-99.71473 -165.7938)"/></svg>