<svg id="b98a0552-d1ff-445f-baad-e4ca89ee4bed" data-name="Layer 1" xmlns="http://www.w3.org/2000/svg" viewBox="0 0 111.50093 119.65721"><path d="M184.2448,157.132c6.74613.16293,11.8939,3.17671,14.78334,9.25319,3.06438,6.44437,2.34258,12.79569-2.54439,18.11969-8.8872,9.682-17.99937,19.15769-27.0351,28.703-15.555,16.43223-31.06223,32.91066-46.7496,49.21567a35.26589,35.26589,0,0,1-8.72468,6.34858c-5.11878,2.74638-10.4483,5.13435-15.81152,7.38076-4.98332,2.08728-9.68277-1.24552-8.65816-6.37291,1.6272-8.14284,3.22336-16.41515,6.16785-24.12259,1.61645-4.2312,5.83418-7.54078,9.10425-11.05641q32.29267-34.71768,64.67106-69.35563C173.51,160.88015,177.71562,156.97239,184.2448,157.132ZM117.41709,258.98679l65.84472-69.57891-14.26374-14.34095-65.26234,69.99341Zm56.90721-89.43454,13.53353,14.62707c4.18427-3.41185,7.41832-6.99091,6.28389-12.70011a9.32794,9.32794,0,0,0-7.49028-7.71721C180.91183,162.418,177.26492,165.579,174.3243,169.55225Zm-73.9539,81.82936L95.64151,270.4145l16.58188-7.72785Z" transform="translate(-89.36296 -157.1273)"/></svg>