<svg id="a38c4add-6c4e-442c-8ee9-a488539835be" data-name="Layer 1" xmlns="http://www.w3.org/2000/svg" viewBox="0 0 127.17664 203.90801"><path d="M108.93852,319.59689c-5.4262-2.38869-11.368-4.02534-16.17326-7.3197-10.61525-7.27747-13.466-19.96161-8.04951-32.64431,7.34183-17.19093,14.82375-34.32224,22.29809-51.45622,3.073-7.04459,6.0956-14.12173,9.48928-21.01259,2.74256-5.56874,7.46639-9.09912,13.182-11.532,1.72186-.73291,3.02367-2.56884,4.35717-4.04472.59009-.6531.68833-1.7235,1.16647-2.50914,3.75322-6.16719,3.545-11.4505-.0322-18.41487-11.90992-23.18715,4.42319-52.057,30.20769-54.91679,5.13671-.56972,7.8963,3.14708,5.85325,8.17364-2.49543,6.13951-5.08979,12.24766-7.91657,18.23955-1.24277,2.6343-1.20085,4.74465.75751,6.842a4.99809,4.99809,0,0,1,.46267.64708c5.41732,8.08632,5.44262,8.18255,14.851,5.694a6.76739,6.76739,0,0,0,3.87121-3.24168c2.92229-6.09222,5.31513-12.44114,8.309-18.49467.94472-1.91016,3.10683-4.36915,4.81187-4.44937,1.955-.092,4.69335,1.71318,5.93762,3.49834,16.28174,23.35934,2.14882,55.86091-26.01485,60.37456-1.47128.2358-2.97386,1.75123-3.973,3.04768-1.01906,1.32235-1.33154,3.16425-2.13285,4.68406-2.52377,4.78669-3.72289,9.28943-1.41679,14.91157,2.43864,5.94533.88063,12.28755-1.66622,18.17313-9.89858,22.87485-19.8762,45.71592-29.6679,68.63642-3.97439,9.30326-11.06355,14.5691-20.54281,17.114Zm50.80365-97.44995c-.38426-8.70017-6.54127-15.04947-17.21691-17.45369-7.71272-1.737-14.82655,2.13913-18.41407,10.3621q-15.0255,34.44-29.78913,68.99318a19.64473,19.64473,0,0,0-1.57707,9.22015c.86588,8.67022,7.31973,13.39178,18.18257,15.60933,6.92209,1.41308,13.5811-3.09169,17.00735-10.95872q14.84474-34.08522,29.54024-68.23521A66.63774,66.63774,0,0,0,159.74217,222.14694Zm37.27443-74.97929c-1.90388,4.37234-3.7683,8.42684-5.43535,12.56092a7.90729,7.90729,0,0,1-6.06886,5.12012c-5.04383,1.09816-10.12016,2.09595-15.08882,3.47472-3.86165,1.07159-6.3041-.22628-8.34031-3.429-2.91343-4.58246-5.91315-9.12213-9.11737-13.50359a8.61973,8.61973,0,0,1-.87137-9.64075c1.78767-3.748,3.34416-7.60626,5.21855-11.91552-12.45183,4.3741-18.8366,21.60541-13.63447,34.97519a28.66224,28.66224,0,0,0,38.13793,15.7113C194.71577,174.816,202.44105,158.31654,197.0166,147.16765ZM144.59016,193.747l14.51826,6.25434c1.09045-2.579,1.996-4.7207,2.88194-6.816l-14.42166-6.29316C146.66036,188.98268,145.72946,191.125,144.59016,193.747Z" transform="translate(-82.03625 -115.68888)"/><path d="M112.2655,281.14884a6.90945,6.90945,0,0,1,7.00762,6.61986,7.05786,7.05786,0,0,1-6.99072,7.10555,6.853,6.853,0,0,1-6.74246-6.87638A6.73461,6.73461,0,0,1,112.2655,281.14884Z" transform="translate(-82.03625 -115.68888)"/></svg>