<svg id="a9a8481b-abba-461e-9cee-116094e58a5e" data-name="Layer 1" xmlns="http://www.w3.org/2000/svg" viewBox="0 0 101.23907 97.17663"><path d="M141.17062,195.615a26.81437,26.81437,0,0,0-4.04927,2.71422c-3.11889,3.00306-6.04858,6.20147-9.10355,9.27242-2.59494,2.60851-5.52536,3.17338-8.36176.56331-2.98243-2.74442-2.78628-6.261-.28372-8.89347,4.92708-5.18279,10.28209-9.96665,15.59183-14.76988.869-.78613,2.3884-.98267,3.64911-1.17073,1.30433-.19456,2.68556.1229,3.98868-.07561,11.16065-1.70015,20.25195,1.69387,27.07447,10.81761,2.63875,3.5288,5.08495,3.48828,7.84519-.06506a49.45234,49.45234,0,0,1,6.33246-6.37391c2.8466-2.53275,5.97659-2.21354,8.4666.34242,2.52108,2.58785,2.60778,5.75541-.0167,8.45286q-7.31845,7.52193-14.88843,14.79766c-2.88465,2.77238-6.02349,2.57241-8.82025-.178-2.37157-2.33223-4.52247-4.88883-6.88723-7.47316l-10.998,12.37879c3.00055,2.95505,7.23342,6.68392,10.87284,10.92238a9.77962,9.77962,0,0,1,2.26422,6.846c-1.21662,8.49869-2.89308,16.94473-4.74229,25.33462-1.07558,4.87992-4.53415,6.916-8.70566,5.83655-3.83-.99105-5.96063-5.01875-5.13253-9.52325.92776-5.04655,2.1264-10.08259,2.49549-15.17479a11.80756,11.80756,0,0,0-2.281-7.00616c-1.88863-2.68-4.59121-4.7864-7.51159-7.70459-3.2989,3.56016-6.31049,7.271-9.82957,10.41349a11.91732,11.91732,0,0,1-6.71568,2.9632c-6.97762.38163-13.99011.19366-20.98779.117-4.66522-.05112-7.44154-2.671-7.43356-6.7656.00786-4.02867,2.938-6.92743,7.2894-7.209a1.92353,1.92353,0,0,1,.499.00106c11.81834,2.40672,20.13673-2.41051,26.8664-11.98469,4.148-5.90131,9.54373-10.92561,14.37925-16.34367Zm20.19909,2.85389a121.01377,121.01377,0,0,0,8.85377,8.92375c1.12265.9376,4.1062,1.37521,4.96925.60913,4.84811-4.30338,9.37434-8.98149,13.82829-13.70351.65535-.69479.33972-2.30543.47335-3.49233-1.2874.17174-2.935-.09854-3.79275.60045a88.75144,88.75144,0,0,0-6.39419,6.30994c-4.67741,4.67955-6.20393,4.68647-11.14946.08557-11.83912-11.01408-11.84024-11.04856-27.56911-10.538a7.62375,7.62375,0,0,0-4.51984,1.38879c-4.61654,4.0739-9.06516,8.34924-13.38446,12.73863-.78756.80033-.6858,2.47577-.99457,3.74724,1.40858-.17764,3.27642.15556,4.14371-.62417,3.21208-2.88775,6.09194-6.14472,9.10077-9.259,3.48232-3.60433,9.05728-4.17647,14.12326-1.27024a14.46332,14.46332,0,0,1-1.44918,2.44216c-9.20008,10.30934-18.377,20.64112-27.7442,30.79707-1.0366,1.12389-3.18882,1.60951-4.85629,1.68686-4.82082.22361-9.67371-.12059-14.47876.23473-1.2482.0923-2.36737,1.92939-3.54581,2.96506,1.04021,1.00524,2.04486,2.8427,3.126,2.88892,12.945.5532,26.55431,2.81027,34.68971-11.374.08034-.14006.24646-.22859.34034-.36356,2.18593-3.14255,4.11843-2.36406,6.2863.16558a62.21966,62.21966,0,0,0,7.62888,7.89578c3.23952,2.64328,3.371,5.7921,2.72726,9.37263-.90754,5.04754-2.04927,10.07592-2.52211,15.16532-.1508,1.62308,1.50789,3.41426,2.33862,5.12853,1.45517-1.23671,3.86789-2.25711,4.20435-3.74654,1.70952-7.56765,3.03949-15.23458,4.11964-22.92053a7.41767,7.41767,0,0,0-1.71662-5.43706c-4.44678-4.66037-9.27055-8.961-13.84744-13.29712C150.351,209.55814,155.49444,204.38177,161.36971,198.46891Z" transform="translate(-93.00292 -167.99941)"/><path d="M162.65411,178.48444A10.10694,10.10694,0,0,1,172.83725,168.001c5.90356-.10125,11.07445,4.71225,11.10879,10.341.0337,5.525-5.3146,10.73458-10.937,10.6534A10.6543,10.6543,0,0,1,162.65411,178.48444Zm10.41356,6.51138a6.82129,6.82129,0,0,0,6.91721-6.37077c.153-3.864-2.85705-6.75979-6.97191-6.707a6.74118,6.74118,0,0,0-6.75308,6.51623A7.09819,7.09819,0,0,0,173.06767,184.99582Z" transform="translate(-93.00292 -167.99941)"/></svg>