<svg id="ff60cb5b-e572-4659-bdef-3887a6fab2ec" data-name="Layer 1" xmlns="http://www.w3.org/2000/svg" viewBox="0 0 89.82519 99.80392"><path d="M177.30506,208.46087c0,11.89756-.26161,23.80341.11488,35.68905.17737,5.59939-1.82366,9.34952-5.45574,13.56681-6.56,7.61693-13.87642,10.47628-23.9186,9.72671-12.25542-.91475-24.6315-.2-36.95535-.21633-6.66-.00886-8.05323-1.326-8.05793-7.76069q-.03068-41.97689,0-83.9538c.00445-6.25263,1.42056-7.714,7.574-7.72565q29.732-.05631,59.4641-.01093c5.705.00924,7.067,1.37855,7.15721,7.05167.07945,4.994.27109,10.00632-.06733,14.97785-.15823,2.32456-1.4503,4.57194-2.22848,6.8543l-1.75417-.381V172.42476H107.66377V262.737c1.931.09358,3.69012.25023,5.44948.25277,13.99217.02017,27.986-.104,41.97547.08978,3.614.05007,6.03209-1.231,8.79541-3.48026,7.13719-5.80953,10.35965-12.57306,9.27328-22.00212-.871-7.56007-.35433-15.31021-.03515-22.95854.09361-2.24328,1.61714-4.42688,2.48531-6.63784Z" transform="translate(-103.01719 -167.75503)"/><path d="M154.67242,220.46456c10.31782-10.497,20.21284-20.57262,30.121-30.63528a53.17946,53.17946,0,0,1,5.0435-4.81592c.66383-.5165,1.96459-.21436,2.97475-.28572-.04489,1.03118.19581,2.19665-.20939,3.05841a10.52642,10.52642,0,0,1-2.30395,2.58613c-10.70612,10.69567-21.50713,21.29849-32.07859,32.12548-3.09806,3.17293-5.255,3.40628-7.81032-.39836-1.75474-2.61262-4.08248-4.84168-5.82235-7.46243-.76357-1.15016-.70057-2.84908-1.0129-4.29883,1.47035.62414,3.28822.8991,4.339,1.94483C150.13,214.48886,151.94521,217.0983,154.67242,220.46456Z" transform="translate(-103.01719 -167.75503)"/><path d="M140.00513,236.83112c-7.98342-.00081-15.9686.08322-23.94846-.08541-1.29555-.02736-2.56744-1.17447-3.85027-1.804,1.3399-.57351,2.67616-1.63593,4.02024-1.64592q23.69964-.1761,47.40079-.00675c1.37106.00962,2.735,1.02581,4.10231,1.57445-1.42443.65614-2.8361,1.84523-4.2754,1.87967C155.6417,236.93009,147.82224,236.83191,140.00513,236.83112Z" transform="translate(-103.01719 -167.75503)"/><path d="M139.73191,250.66921c-7.82294.00107-15.64752.08184-23.46729-.07567-1.35826-.02736-2.69624-1.0614-4.04358-1.63047,1.26711-.63712,2.52994-1.81868,3.802-1.8287q23.97079-.18879,47.94327.00028c1.26229.00991,2.51539,1.18973,3.77276,1.82584-1.346.56922-2.68284,1.6045-4.03939,1.631C155.713,250.74731,147.72166,250.66814,139.73191,250.66921Z" transform="translate(-103.01719 -167.75503)"/><path d="M112.20039,207.96362c.94645-4.136,1.11385-7.70339,2.615-10.573,1.313-2.50992,3.98962-4.56207,7.48418-2.4599a3.82233,3.82233,0,0,0,2.3479.38169c7.35087-1.06736,10.12542,1.25648,10.14975,8.64217.0037,1.12467-.15527,2.24988-.28621,4.00905H112.20039Zm18.76017-4.071c-.071-3.68375-.31572-6.51517-5.03224-5.04193a9.28027,9.28027,0,0,1-3.9368.02392c-4.39426-.63571-5.26894.27455-4.47691,5.018Z" transform="translate(-103.01719 -167.75503)"/><path d="M124.09609,192.42041a6.61519,6.61519,0,0,1-7.10882-6.65835,6.48149,6.48149,0,0,1,6.72786-6.96453,6.81837,6.81837,0,1,1,.381,13.62288Zm4.17052-6.88185c-2.01763-1.44661-3.32213-3.09446-4.37926-2.94867-1.16421.16055-2.90737,1.97062-2.90557,3.05964.00173,1.0455,1.8388,2.79658,3.01,2.92176C125.05157,188.68457,126.30122,187.02156,128.26661,185.53856Z" transform="translate(-103.01719 -167.75503)"/><path d="M155.51658,186.70471c3.3212,0,6.65-.12052,9.958.08848.78373.04951,1.4976,1.20486,2.2436,1.85154-.70576.50233-1.40459,1.42936-2.11836,1.441-6.80645.11108-13.61667.12626-20.42194-.016-.75175-.01572-1.47938-1.18618-2.2182-1.82109.86441-.52234,1.707-1.4469,2.59712-1.49525,3.31145-.17989,6.63856-.07177,9.95979-.07177Z" transform="translate(-103.01719 -167.75503)"/></svg>