<svg id="fc70517c-f7be-4515-8f47-7091503654d9" data-name="Layer 1" xmlns="http://www.w3.org/2000/svg" viewBox="0 0 19.01914 30.47722"><path d="M135.66791,231.95814a5.87532,5.87532,0,0,1-.44442-1.52691c-.0387-3.64821-.02126-7.297-.02037-10.94564.00044-1.78018.03381-1.81156,1.77974-1.83485.30981-.00413.61935-.02854,1.07782-.0508,0-.98335-.00172-1.92186.00039-2.86036.00365-1.62626.07644-1.69783,1.75316-1.7834.15512-.00792.3087-.0459.58268-.08855,0-2.05676.05755-4.11252-.03243-6.1618a16.25459,16.25459,0,0,0-.65437-2.02242c-.21053-1.1136.13964-1.90185,1.54811-1.79491-.02146-1.23795.70658-1.45313,1.72419-1.4004,1.147.05944,2.30076.04688,3.44924.00364.98916-.03725,1.79986.07606,1.70055,1.31633a2.05732,2.05732,0,0,1,1.34184,3.22726c-.16747.24736-.42771.51449-.43242.77632-.03621,2.01362-.01992,4.02817-.01992,6.02205,2.32761.34811,2.32761.34811,2.32758,2.73495v2.08473c.60128,0,1.13753.01235,1.673-.00294.77306-.02207,1.19634.296,1.19531,1.1123-.00515,4.04519.009,8.09048-.02157,12.13545a3.212,3.212,0,0,1-.4295,1.05995Zm.81513-9.94253h16.42449v-3.02183H136.483Zm2.951.943h-2.91274v7.67761H139.434Zm13.44626,7.68595v-7.70232H149.9924v7.70232Zm-6.99281-7.739v7.70857h1.80341v-7.70857Zm-2.38364,7.74922v-7.69555h-1.78525v7.69555Zm4.11958-12.5525V214.336c-.56331,1.35742-1.22661,2.50921-2.81885,2.57079-1.73747.0672-2.3971-1.20106-3.0348-2.5814v3.7769Zm-1.1699-3.65533a1.74686,1.74686,0,1,0-3.49289-.03261,1.74656,1.74656,0,0,0,3.49289.03261Zm-4.80592-1.09474.42919.22315c.15783-.30495.44631-.60734.45237-.91529.04056-2.06242.03481-4.12625.001-6.18893-.00365-.22334-.28243-.44219-.4336-.66312-.14967.22156-.42629.44134-.42941.66494C141.63518,208.76572,141.64757,211.05906,141.64757,213.35224Zm6.11227-3.661c0-1.10871.0208-2.21818-.01993-3.32539-.007-.19038-.27584-.37113-.42373-.55633-.14675.18187-.41854.362-.42113.54589-.03014,2.13781-.03424,4.27643.00069,6.41408.00385.23612.29246.46759.449.70122.13934-.2303.38881-.45585.399-.69172C147.78805,211.75133,147.76277,210.72072,147.75984,209.6912Zm.6225-4.62711.177-.37553c-.22664-.16408-.451-.46679-.68028-.47065-2.1338-.03585-4.26863-.03148-6.40256.00068-.17853.00269-.35272.29277-.52893.44934.19286.132.38441.3767.57879.379C143.81143,205.07367,146.09694,205.06409,148.38234,205.06409Zm-8.98668,9.24833v3.7599h1.467v-3.7599Zm10.61538,3.78179v-3.758h-1.45621v3.758Zm-3.9129-12.187c-.77079-.28606-1.04486-.03124-1.02927.72967q.046,2.24347-.001,4.48842c-.01753.77757.33584,1.00949,1.03022.96328Zm-2.80925,6.20158.32067.16175c.24089-.34681.67255-.68443.68976-1.042.07585-1.57508.05519-3.15662.00688-4.73391-.00722-.23566-.34751-.46112-.53371-.6913-.1612.21189-.45816.42113-.46234.63607C143.27344,208.32859,143.28889,210.21883,143.28889,212.10877Zm-2.47969,10.70367c-.82707.66365-.81717,7.31478,0,7.93324Zm7.80377-.16556v8.12862C149.3612,230.10275,149.42333,223.68777,148.613,222.64688Zm-4.0874,7.98682.50924.04712c.02384-2.591.02989-5.182-.00028-7.77327l-.509-.00163Zm2.61455-27.30641c-1.15442-.80394-3.99119-.73883-4.62961,0Z" transform="translate(-135.19844 -201.48092)"/></svg>