<svg id="fcc52cf4-9a44-4a8d-9283-7aa7ba511c6d" data-name="Layer 1" xmlns="http://www.w3.org/2000/svg" viewBox="0 0 96.85018 96.65519"><path d="M137.20844,196.57313l-9.79979,10.30743,28.32827,27.78866c2.11623-2.28928,4.41191-4.64864,6.56224-7.13375,2.15279-2.48794,3.904-2.211,6.13137.08635,6.72174,6.93307,13.523,13.79639,20.49986,20.471,2.66112,2.54587,2.22587,4.27024-.19369,6.51928-3.53446,3.28537-7.03832,6.63829-10.22468,10.25374-3.12893,3.55032-7.01825,4.37479-10.75179,2.401-7.85583-4.15311-15.99125-8.17684-22.88731-13.66642-16.57373-13.19342-31.41659-28.23106-43.53448-45.75018a58.75253,58.75253,0,0,1-4.25616-7.29407c-4.906-9.883-4.42508-12.5486,3.39407-20.36147,2.5913-2.58921,5.0448-5.3447,7.8524-7.67314.94164-.78093,3.46721-1.17959,4.11507-.55543C120.69592,179.91622,128.73786,188.08441,137.20844,196.57313Zm-26.819-20.18455c-14.73962,13.7559-15.18384,15.86428-4.39018,30.90183a215.04428,215.04428,0,0,0,42.24147,43.62374c6.28881,4.939,13.70712,8.48579,20.80257,12.31137a5.91972,5.91972,0,0,0,5.35065-.48292c4.12878-3.479,7.828-7.46765,11.29179-10.87219l-20.73885-20.85c-3.09358,2.90223-6.42365,6.02633-10.404,9.76054l-34.74648-34.894,11.69112-8.37772Z" transform="translate(-93.89589 -171.65906)"/><path d="M186.95026,187.73712v18.15917H174.11119v12.82762H156.09808V206.079H143.23836V188.07742h12.69179V175.263h17.83332v12.47413ZM159.99993,179.099a65.92717,65.92717,0,0,0,.04679,7.27532c.50134,4.28869-.95134,6.24192-5.49251,5.678a57.73647,57.73647,0,0,0-7.16183-.05249v9.66c4.17486.327,9.24446-.72431,11.35074,1.30305,2.03881,1.96243,1.02,7.09345,1.374,10.82992.02741.28929.29061.55625.45991.862h9.42323c0-2.8216.17981-5.31648-.0425-7.775-.32653-3.61121.87985-5.29892,4.72975-4.92716,2.59423.25051,5.23223.04773,8.01213.04773V191.99827c-3.09649,0-5.90533-.1351-8.69535.03625-3.071.18862-4.20776-1.09906-4.03834-4.10022.16427-2.91015.03563-5.83683.03563-8.8353Z" transform="translate(-93.89589 -171.65906)"/><path d="M109.80707,179.80148c4.46282.37749,6.20821,4.47618,8.93672,7.22859-.85638.8134-2.40266,2.39081-2.4698,2.33017-2.8-2.52838-5.46757-5.20343-8.15169-7.86015Z" transform="translate(-93.89589 -171.65906)"/></svg>