<svg id="ab0b7d3d-17a8-4e2f-869e-9c0d8f4cecf4" data-name="Layer 1" xmlns="http://www.w3.org/2000/svg" viewBox="0 0 110.8329 110.89395"><path d="M90.18209,217.67985c-.00034-16.66448.09474-33.3299-.07065-49.99273-.03884-3.91251.78321-5.65512,5.20176-5.59866,17.66143.22569,35.32912-.02331,52.98978.2311a10.70626,10.70626,0,0,1,6.75011,3.12336q11.82315,12.20031,23.02355,24.99581c1.56855,1.78744,2.1679,4.53625,2.85389,6.9446a11.86435,11.86435,0,0,1,.04141,4.476c-.79244,6.81632.34193,11.53747,7.74088,15.25385,9.27428,4.65833,12.99877,14.10056,12.07166,24.5513-.88826,10.013-6.156,17.49974-15.23979,21.916-2.90683,1.41321-5.24521,2.48848-4.61736,6.38265.48018,2.97823-1.81982,2.95135-3.93436,2.94559-9.49868-.02586-18.99748-.01287-28.49624-.01293-17.66432-.0001-35.32988-.11078-52.99206.084-4.08681.04508-5.47048-1.07206-5.41371-5.30773C90.31426,251.01057,90.18242,234.34432,90.18209,217.67985Zm63.24707,2.74358c-9.16857-.8589-18.10417.70616-26.76282-1.84611a8.59814,8.59814,0,0,1,5.4358-1.56c15.51939,1.49617,30.45-1.64591,45.26569-5.95185V195.95224c-7.38158,0-14.38282-.3279-21.33608.10861-5.131.3221-6.68936-1.38318-6.4342-6.444.39878-7.90943.10564-15.85375.10564-24.25491-2.55388,0-4.3471,0-6.1403,0-14.82089.00009-29.64505.17453-44.46071-.10387-4.562-.08573-5.87909,1.16719-5.84823,5.80292.20612,30.97263.10352,61.94728.1187,92.92126.00087,1.77268.15607,3.54527.261,5.77681,11.93614,0,23.39184-.0003,34.84753.00007,14.98747.00048,29.97513.03511,44.96211-.04932,1.51142-.00852,3.01879-.73529,4.528-1.12874-5.61025-2.145-11.43166-2.19817-15.61629-4.842-6.27179-3.9625-12.61257-4.36248-19.43661-4.1611-3.99321.11784-7.99588.11917-11.98746-.02135a20.50076,20.50076,0,0,1-4.20875-1.03762l.13212-1.83132h25.03636c-4.13459-10.31573-4.13459-10.3162-13.49921-10.32389-2.33137-.00192-4.667.08567-6.99257-.03025a40.83233,40.83233,0,0,1-4.42775-.685l.018-1.99925h19.63027V232.59287H126.89014l.02877-1.8564a38.99153,38.99153,0,0,1,4.51511-.583c4.49477-.07541,8.99442.06433,13.486-.077,1.17631-.037,2.79623-.44781,3.40675-1.27884C150.15489,226.3092,151.58425,223.52776,153.42916,220.42343Zm21.13149-4.78852a23.84291,23.84291,0,1,0-1.2285,47.6689c12.83966.24763,24.00444-10.15363,24.4508-22.77866A23.918,23.918,0,0,0,174.56065,215.63491Zm1.0454-23.1936-22.39834-24.0556v24.0556Z" transform="translate(-90.08929 -162.08713)"/><path d="M120.99464,195.06518c-5.98777-.00148-11.97863-.11576-17.962.046-3.05845.0827-4.1477-1.08748-4.04737-4.08986.161-4.81815.15014-9.64838.01162-14.46775-.07983-2.77775.95085-3.84911,3.76008-3.82927q18.71067.13213,37.4228.01569c2.54776-.01173,3.59338,1.00424,3.5454,3.552-.09083,4.82173-.15818,9.65163.02647,14.4681.12307,3.20976-.989,4.46825-4.29647,4.36279C133.30729,194.92685,127.14874,195.06665,120.99464,195.06518ZM102.38551,191.456h37.736V176.44837h-37.736Z" transform="translate(-90.08929 -162.08713)"/><path d="M120.64659,238.24092H101.23891V254.9744H117.173l1.69964-6.905c4.12158,7.25315,2.43383,10.68072-4.21261,10.69158-4.31751.007-8.63764-.09112-12.95161.03212-2.77876.07939-3.88095-1.024-3.81572-3.81361.12421-5.31109-.03615-10.62905.10218-15.93945.03015-1.15729.78956-3.27956,1.26293-3.29375,7.11781-.21318,14.244-.14769,21.36818-.14769Z" transform="translate(-90.08929 -162.08713)"/><path d="M120.61155,206.45293H101.36167v16.98114h15.85748l1.11476-6.00136,1.87994-.06547.78646,9.59116c-7.38087,0-14.1459.10523-20.89767-.14588-.76217-.02835-2.02879-2.04419-2.07338-3.17728-.216-5.49071-.24255-11.002.02762-16.488.05627-1.14263,1.61469-3.12454,2.5452-3.163,6.15114-.25427,12.32018-.1056,18.48223-.01194.52916.008,1.0499.56962,1.57455.87406Z" transform="translate(-90.08929 -162.08713)"/><path d="M127.02376,204.5096h40.26983C164.31787,207.43729,131.5752,207.93036,127.02376,204.5096Z" transform="translate(-90.08929 -162.08713)"/><path d="M107.89494,254.04967l-4.01845-9.85028,1.71951-.869,3.91565,5.4692c3.18721-2.30205,6.23762-4.60227,9.41339-6.714.60553-.40265,1.70612-.06077,2.5783-.06241-.22282.847-.16427,2.05626-.71359,2.48289C116.87342,247.54784,112.833,250.42985,107.89494,254.04967Z" transform="translate(-90.08929 -162.08713)"/><path d="M105.68784,211.65642l3.60811,5.20375,11.70177-7.37413,1.32016,2.05858-14.28247,10.72311-4.09-9.74826Z" transform="translate(-90.08929 -162.08713)"/><path d="M174.66389,224.10186c.98729,9.46273,3.26314,18.37085,11.05478,24.9049l-1.33323,1.08289c-.91234-.32372-2.0595-.40271-2.69622-1.01365-2.70793-2.59832-5.10051-5.14164-9.441-5.4383-3.0389-.20772-4.67349-4.01784-2.80316-6.05507,3.19033-3.475,2.48993-7.22883,2.78972-11.05587a7.67753,7.67753,0,0,1,.86781-2.14109Z" transform="translate(-90.08929 -162.08713)"/></svg>