<svg id="a31e0be4-af33-415a-9ee1-62a442f53577" data-name="Layer 1" xmlns="http://www.w3.org/2000/svg" viewBox="0 0 70.36536 101.60719"><path d="M146.9783,165.7938c9.161,5.16144,10.52122,13.74893,2.93207,21.98448,6.977-.27788,12.17759,1.52725,12.3014,9.97972,4.22282,0,8.40743.09376,12.58568-.029,3.47885-.10222,5.18225,1.23422,4.99061,4.8836-.15926,3.03252.21859,6.10962-.13455,9.10892-.1866,1.58492-1.50293,3.01314-2.16465,4.57341a10.51731,10.51731,0,0,0-1.14728,3.79274c-.08158,13.88183-.04293,27.76434-.05566,41.64665-.00477,5.19154-.47683,5.65653-5.69709,5.65916q-26.17809.01318-52.35617-.00259c-4.67343-.004-5.31353-.62473-5.3209-5.23562q-.03328-20.82342-.00931-41.647c-.00026-1.92582.44121-3.98707-2.17094-4.84928a2.477,2.477,0,0,1-1.12022-1.92591,94.30788,94.30788,0,0,1,.12419-13.05365c.12845-1.12012,2.69407-2.64041,4.25146-2.78573,4.171-.38921,8.4023-.13269,12.51567-.13269,1.96815-8.33241,3.14869-9.27877,12.69831-10.14516A13.477,13.477,0,0,1,134.523,175.509c.4321-4.95507,3.60821-7.68112,7.69248-9.71516Zm22.98218,95.53086V216.78H119.30337v44.54464Zm3.78-57.19025h-58.156v6.01183h58.156Zm-41.17977-7.78462.66183,1.04035h22.86367l.57934-1.10718c-1.16375-.85315-2.29581-2.38743-3.49665-2.44329-5.64286-.2625-11.31211-.27391-16.95381-.00062C134.9594,193.89989,133.77694,195.473,132.56074,196.34979Zm7.98363-19.22377c-.12539,2.89249.45013,5.45458,3.96619,5.54078,3.2089.07867,4.1416-2.09869,4.16393-4.96828.0234-3.00645-.38042-5.75917-4.18411-5.72462C141.24477,172.00338,140.44526,174.325,140.54437,177.126Z" transform="translate(-109.44471 -165.7938)"/><path d="M144.52,219.62724a18.33368,18.33368,0,1,1-18.24448,18.478A18.183,18.183,0,0,1,144.52,219.62724Zm.2225,30.74329a12.46542,12.46542,0,1,0-12.63122-12.21171A12.63424,12.63424,0,0,0,144.74247,250.37053Z" transform="translate(-109.44471 -165.7938)"/><path d="M141.49923,241.43376c.07859-1.04226-.16061-2.27489.32167-3.06979.5981-.98579,1.783-2.20373,2.73421-2.22084a3.55477,3.55477,0,0,1,2.73439,2.11364,16.86726,16.86726,0,0,1,.07149,6.57611,4.05449,4.05449,0,0,1-2.93588,2.37975c-.80038.09712-2.10876-1.29312-2.62181-2.30774C141.3174,243.944,141.57238,242.6084,141.49923,241.43376Z" transform="translate(-109.44471 -165.7938)"/><path d="M140.36105,231.665c1.90724-1.45482,3.25617-3.17358,4.08049-2.95084a4.75962,4.75962,0,0,1,2.91038,3.18411c.13306.79859-1.77107,2.64391-2.86893,2.73551C143.44637,234.7203,142.26961,233.1272,140.36105,231.665Z" transform="translate(-109.44471 -165.7938)"/></svg>