<svg id="ecdabe77-6fd9-45c2-a522-82558f1b6e6f" data-name="Layer 1" xmlns="http://www.w3.org/2000/svg" viewBox="0 0 116.2485 116.44218"><path d="M159.971,209.462c1.93225-3.082,3.65237-6.09428,5.63862-8.91945,2.05-2.91588,1.77153-5.103-1.275-7.08461-3.21251-2.08958-4.85538-.37921-6.32789,2.23962-2.28338,4.06088-4.70657,8.04577-6.89695,12.15538-1.36925,2.569-3.15786,3.18852-5.73356,2.01128a32.22407,32.22407,0,0,1-3.22388-1.33135c-12.98827-7.77112-27.31988-7.30623-41.66236-6.929-4.13777.10884-7.0045,1.921-7.09746,6.07465-.245,10.944-.08286,21.89714-.08286,33.14642h36.69385c0-4.83438-.0062-9.45008.00142-14.06576.012-7.26195.59442-7.6816,7.41037-5.32836.93529.32292,1.84553.71837,2.86964,1.12037-.07349.51751.03242,1.18073-.22637,1.38751-6.13324,4.9005-5.0148,11.86742-5.06281,18.3716-.025,3.39262-.9127,4.71544-4.50332,4.66561-12.65663-.17568-25.31787-.14093-37.97579-.02094-3.40505.03227-4.84025-1.20283-4.813-4.64451.091-11.49236-.09417-22.988.093-34.47808.118-7.24256,4.79338-11.73185,12.04719-11.85178,7.82644-.12938,15.75862-.79947,23.45291.21732,6.109.8073,11.93325,3.78963,17.87441,5.8339,1.71663.59066,3.40039,1.27688,5.43733,2.04715,2.37262-4.09427,4.71551-8.08783,7.00866-12.10976,1.87658-3.29128,4.54281-5.58525,8.43944-5.03514,3.04222.4295,4.487-.83921,5.96536-3.14567,4.22119-6.58558,8.50933-13.13875,13.08537-19.47783.95642-1.3249,3.26094-1.67664,4.94422-2.47684-.15007,1.91447.33312,4.216-.55962,5.67651-3.90372,6.38634-8.12119,12.58822-12.40472,18.73158-1.81644,2.60512-2.53416,4.65518-1.04419,8.02168C175.02394,200.99886,167.51894,210.44236,159.971,209.462Z" transform="translate(-87.70324 -159.67342)"/><path d="M185.07493,264.13513c-15.062,8.80306-29.38531,6.88886-38.36775-4.80929a26.836,26.836,0,0,1,37.248-37.91665c11.92739,8.877,13.979,23.16086,5.23266,38.71715,4.25968,3.51475,8.74815,6.93541,12.84537,10.77373,1.208,1.13167,1.30979,3.44418,1.91853,5.21553-1.872-.33608-4.15879-.104-5.53992-1.11237C193.8557,271.67675,189.62711,267.90166,185.07493,264.13513Zm4.00744-21.17211a21.08051,21.08051,0,1,0-20.77182,21.1199A21.0923,21.0923,0,0,0,189.08237,242.963Z" transform="translate(-87.70324 -159.67342)"/><path d="M93.821,175.97764a16.10673,16.10673,0,0,1,16.47022-16.30312,16.36121,16.36121,0,0,1-.09734,32.72208A16.12923,16.12923,0,0,1,93.821,175.97764Zm27.07883.11743a10.76343,10.76343,0,1,0-10.9644,10.71177A11.04251,11.04251,0,0,0,120.89981,176.09507Z" transform="translate(-87.70324 -159.67342)"/></svg>