<svg id="fa8b5d37-8d8b-43b5-b902-ccaa82197294" data-name="Layer 1" xmlns="http://www.w3.org/2000/svg" viewBox="0 0 101.67234 101.73783"><path d="M108.96451,201.43887c-2.10279-3.43346-3.58471-6.24294-5.44137-8.778-1.95954-2.67551-1.707-4.64992.75124-6.8677a130.48644,130.48644,0,0,0,9.538-9.53929c2.23075-2.4767,4.10352-2.4545,6.87893-.7347,9.48808,5.87934,9.67326,5.80257,12.2-5.06313.74811-3.217,2.17185-4.62138,5.44-4.31459,1.65157.155,3.32975.0261,4.9959.02607,11.977-.00016,12.1007-.03526,15.31369,11.26847.98367,3.46069,2.30268,3.27349,4.913,1.77817,9.8762-5.65761,9.96716-5.65573,17.98339,2.50547,8.62672,8.78271,7.96363,5.51531,1.9202,15.70545-2.80908,4.73653-2.719,5.00637,2.83569,6.34959,10.88777,2.63283,9.41751.31459,9.539,12.17743.00341.3332.00044.66646.00044.99969,0,10.771.03742,10.92738-10.429,13.432-4.04617.96825-4.41791,2.3383-2.323,5.724,5.61923,9.08148,5.51233,9.14762-2.16655,16.82651-.23563.23563-.4677.475-.7072.70655-8.77007,8.48106-5.457,7.85144-15.737,1.749-4.534-2.69151-4.90157-2.57677-6.15887,2.53852-2.74944,11.18611-.11326,9.79635-12.38813,9.904-.1666.00146-.33323.00019-.49984.00019-11.10329,0-11.28339.04339-13.836-10.55047-1.03938-4.31373-2.63241-4.07919-5.7931-2.12291-8.96618,5.54953-9.01944,5.46347-16.46315-1.9802l-.35344-.35345c-7.532-7.53217-7.67027-7.61761-1.968-16.84306,2.28951-3.70414,1.08462-4.744-2.5646-5.623C94.1421,227.878,94.1675,227.77252,94.1675,217.29778v-.49984c0-10.5897.00962-10.55319,10.16138-13.22421A30.02136,30.02136,0,0,0,108.96451,201.43887Zm8.8452,52.37841c2.6188-1.606,5.26275-3.31969,7.994-4.88063a6.805,6.805,0,0,1,10.15326,4.122,55.64708,55.64708,0,0,0,1.6972,6.76219,4.5845,4.5845,0,0,0,2.87218,2.55365c10.37844,1.58,10.94783,1.14379,13.42906-8.84362,1.276-5.13617,6.04158-7.09,10.69189-4.339,2.56186,1.51557,5.07066,3.12083,6.88852,4.244l10.03869-9.678c-1.53734-2.50044-3.28072-5.13626-4.81779-7.88735-1.85367-3.31777-.1464-8.496,3.208-9.5764,2.36541-.76185,4.95175-.87822,7.26386-1.749,1.26657-.477,2.91449-1.79061,3.11812-2.95036,1.74077-9.91432.83251-11.19238-8.69087-13.5261-5.14267-1.26023-7.20491-6.03661-4.527-10.60526,1.50782-2.57236,3.12026-5.08339,4.64772-7.56068l-9.58142-9.74377c-2.83229,1.74181-5.47377,3.46885-8.213,5.02368-3.09686,1.75781-8.29843.44285-9.44528-2.57139-.9375-2.46408-1.10542-5.21287-1.93771-7.72851-.4063-1.2281-1.3467-2.88622-2.391-3.20021-8.09876-2.43516-12.08767-.04858-14.01775,8.04656-1.45462,6.101-6.02835,7.96127-11.46575,4.66249-2.36774-1.43646-4.734-2.87535-6.73949-4.09356l-9.89036,9.376c1.83917,3.006,3.669,5.77984,5.27218,8.679,1.55123,2.80525.12592,7.99615-2.648,9.06621-2.45849.94838-5.2285,1.07517-7.71561,1.96911-1.31264.4718-3.08548,1.63828-3.33546,2.77924-2.01171,9.18171-.43626,11.57878,8.43666,13.71645,5.573,1.34265,7.56236,5.9657,4.63932,10.8744-1.5118,2.5388-3.10669,5.02812-4.714,7.62042Z" transform="translate(-94.1675 -166.1003)"/><path d="M145.32835,192.0006a25.00159,25.00159,0,1,1-25.32776,24.67A24.867,24.867,0,0,1,145.32835,192.0006Zm-.73869,44.82474c10.48433.29755,19.84057-8.62307,20.23254-19.29052.38453-10.46424-8.46979-19.86881-19.16291-20.35381-10.62346-.48185-20.2712,8.71777-20.48461,19.53315C124.96745,227.21644,133.95228,236.52345,144.58966,236.82534Z" transform="translate(-94.1675 -166.1003)"/></svg>