<svg id="b7305721-e53d-4d38-86b4-a39bb8ec5e3b" data-name="Layer 1" xmlns="http://www.w3.org/2000/svg" viewBox="0 0 117.06363 109.85932"><path d="M172.15858,259.267c-.485-4.657-1.62559-8.76321-1.17339-12.68584.954-8.27534,9.50014-13.93116,17.5809-12.32561A15.46013,15.46013,0,0,1,200.85864,252.938c-1.8341,8.15619-10.28933,13.82817-18.23483,11.28492-4.33-1.386-7.27161-.51447-10.96825,1.51188-21.80274,11.95134-50.396,5.36822-64.6814-14.78877-.99524-1.4043-.6927-3.72833-.99365-5.62467,1.71454.80256,4.00388,1.149,5.05711,2.47635,14.95743,18.8499,39.69639,24.17264,59.42326,12.5912C171.30354,259.89422,172.09374,259.31017,172.15858,259.267Zm13.89919.17858a10.18583,10.18583,0,0,0,9.91452-10.33138,10.58732,10.58732,0,0,0-10.03271-9.86993,10.36909,10.36909,0,0,0-10.08987,10.23528A9.99305,9.99305,0,0,0,186.05777,259.44558Z" transform="translate(-84.18822 -161.83337)"/><path d="M103.17953,212.22737c10.22427,5.05519,13.91731,12.16561,10.86418,20.63806a15.17939,15.17939,0,0,1-16.01136,10.10591c-6.89637-.614-12.42819-5.95648-13.65263-13.18538-1.10334-6.51389,2.64212-13.81035,9.142-16.02373,3.4297-1.1679,4.38985-3.14236,5.28238-6.154,6.22028-20.98915,20.28093-33.36211,41.78142-37.12877,1.81994-.31884,3.94162,1.08472,5.92313,1.68811-1.64327,1.15305-3.15457,3.01706-4.95,3.35032C121.28839,179.28027,107.53477,192.21068,103.17953,212.22737Zm-3.43591,25.58545a10.5481,10.5481,0,0,0,10.06128-10.35106,10.43994,10.43994,0,0,0-10.50681-9.8482,10.27225,10.27225,0,0,0-9.739,10.04723A10.43456,10.43456,0,0,0,99.74362,237.81282Z" transform="translate(-84.18822 -161.83337)"/><path d="M179.17024,187.84848c-5.227,1.6729-9.29585,3.83236-13.50062,4.14111-8.55805.62841-15.32888-6.275-15.49305-14.75818A15.11649,15.11649,0,0,1,165.21368,161.835c9.01555-.11826,15.98645,6.25848,15.637,15.07715-.15,3.78483,1.243,6.01234,3.64209,8.53839,12.0755,12.71468,16.374,27.89,13.31013,45.07955-.25432,1.42681-2.26492,2.54056-3.45953,3.79975-.51479-1.63825-1.66817-3.369-1.44644-4.90059C195.34481,212.5218,189.97018,196.74811,179.17024,187.84848Zm-3.3781-10.99842a10.29524,10.29524,0,0,0-10.44143-9.8452,9.99682,9.99682,0,0,0,.30015,19.99111A10.2762,10.2762,0,0,0,175.79214,176.85006Z" transform="translate(-84.18822 -161.83337)"/></svg>