<svg id="b1f94465-1cae-46ee-bd1e-ab0b422ece19" data-name="Layer 1" xmlns="http://www.w3.org/2000/svg" viewBox="0 0 204.00523 180.20061"><path d="M247.59689,223.17354c-1.61773,6.38383-2.647,12.99-4.9595,19.11134-8.12954,21.5198-23.12647,36.45238-44.61149,44.79938-.494.1919-.97139.434-1.47593.58971-2.47671.76461-4.62319.32136-5.51355-2.307-.81977-2.42.4709-3.97907,2.729-4.97962,3.993-1.76927,8.16254-3.28905,11.85217-5.57,24.06847-14.87938,36.001-36.71648,33.69274-64.81-2.2795-27.74324-17.38864-47.19611-43.135-58.115-4.85462-2.05883-6.54467-3.86731-5.12235-6.4255,2.15144-3.86961,5.30736-1.99722,8.00779-.852C226.30809,156.16975,242.32,176.54,246.8752,205.844a13.70731,13.70731,0,0,0,.72169,2.18874Z" transform="translate(-43.59166 -127.47078)"/><path d="M161.29032,217.64044q.00181,37.23811-.03559,74.47614a24.73456,24.73456,0,0,1-.878,7.4582c-2.68667,8.29751-12.84354,10.78327-19.4037,4.79247Q116.7118,282.21155,92.60182,259.891a10.64766,10.64766,0,0,0-8.0685-3.24154c-11.67852.2194-23.36356.11193-35.046.089-4.81044-.00944-5.8768-1.06042-5.88087-5.8367q-.03-35.24673-.00092-70.49351c.00368-4.78015,1.09533-5.87864,5.82791-5.88911,11.948-.02644,23.89854.11542,35.842-.11918a11.5475,11.5475,0,0,0,6.68-2.40782q24.03971-19.97874,47.76575-40.334c4.28378-3.66316,8.79088-5.52061,14.19979-3.08751,5.54688,2.49516,7.36809,7.27352,7.36813,13.00051Q161.28927,179.60581,161.29032,217.64044ZM86.68706,248.694c0-4.8189-.00448-9.42737.00166-14.03586.00374-2.81678.794-5.20354,4.13854-5.09539,3.0994.1002,3.76521,2.412,3.75589,5.05818-.01589,4.51326-.17666,9.03686.08907,13.53451a7.60274,7.60274,0,0,0,1.9672,4.74992q24.04311,22.3875,48.37133,44.467c1.36924,1.24182,4.44928,2.594,5.31711,1.95871a8.20843,8.20843,0,0,0,3.00151-5.78968q.23826-75.86257.007-151.7259c-.0061-2.044-1.26-4.89641-2.8475-5.85189-1.15077-.69262-4.21785.64676-5.74321,1.9099-12.67509,10.49615-25.19725,21.17718-37.7498,31.821-4.04527,3.43015-9.55837,6.19756-11.63584,10.57883-2.06721,4.35964-.66222,10.36572-.77933,15.64986-.00294.13269-.0029.26552-.00058.39822.0477,2.74112-.42889,5.31353-3.82916,5.3597-3.65863.04966-4.07523-2.68317-4.06858-5.5506.01036-4.46925.00274-8.93855.00274-13.49564H51.80929V248.694Z" transform="translate(-43.59166 -127.47078)"/><path d="M212.25875,218.48461c-.42466,20.06436-14.36358,39.9786-36.81631,47.46061-2.47977.82635-4.9202.99937-5.94831-1.9815-.9926-2.87788.76346-4.50421,3.313-5.358a46.04756,46.04756,0,0,0,25.26779-20.09334c13.9984-22.603,3.52121-54.44865-21.2419-64.27792-1.47676-.58617-2.95974-1.15683-4.44336-1.72551-2.444-.9368-3.80121-2.61568-2.88023-5.2395.96517-2.74972,3.27-2.82529,5.61324-2.06946a51.72792,51.72792,0,0,1,20.97308,12.523C206.49989,188.09764,211.96,200.71174,212.25875,218.48461Z" transform="translate(-43.59166 -127.47078)"/></svg>