<svg id="a6d321f2-83ca-4824-af73-e53022d03675" data-name="Layer 1" xmlns="http://www.w3.org/2000/svg" viewBox="0 0 104.82617 128"><path d="M196,281H95c-.63636-2.12406-1.82157-4.24654-1.82768-6.37242q-.16724-58.17668-.04284-116.354A32.14125,32.14125,0,0,1,94,153h79c7.31392,7.25,14.72937,14.40244,21.86133,21.82721a10.32853,10.32853,0,0,1,2.91985,6.31937q.27766,47.23641.046,94.475C197.82074,277.41656,196.63622,279.2073,196,281Zm-4.48579-98.28436c-6.43993,0-12.561.01871-18.682-.00526-6.14233-.024-6.63062-.5-6.654-6.47086-.02323-5.92931-.00508-11.85878-.00508-17.93468H99.57726V274.69048h91.937Zm-18.70014-21.2203v14.91912h13.47936Z" transform="translate(-93.08982 -153)"/><path d="M164.76836,228.97717c11.56273.02172,20.60951,8.79565,20.58126,19.96049-.02806,11.08394-9.265,19.99156-20.69477,19.9569-11.39552-.03456-20.6241-9.02586-20.602-20.07225C144.07517,237.70673,153.21025,228.95544,164.76836,228.97717Zm-.1031,5.93614c-7.94773.0168-14.5473,6.38382-14.52453,14.01272.02245,7.517,6.82508,14.04116,14.61537,14.017a14.33287,14.33287,0,0,0,14.39209-14.10825A14.13312,14.13312,0,0,0,164.66526,234.91331Z" transform="translate(-93.08982 -153)"/><path d="M142.18911,185.95509c11.47294.0001,22.946-.01908,34.41878.01655,2.24982.007,5.40426-.45431,4.99379,2.93818-.14247,1.17753-3.3403,2.81873-5.15462,2.8341q-34.16694.28946-68.33655-.00668c-1.74634-.01536-4.85552-1.80277-4.95421-2.96787-.29309-3.46,2.92145-2.77823,5.11292-2.78887C119.57563,185.92556,130.88243,185.955,142.18911,185.95509Z" transform="translate(-93.08982 -153)"/><path d="M130.00907,210.15068c-7.47251-.0014-14.95209.17-22.4119-.13778-1.6009-.066-3.13029-1.86539-4.69262-2.86627,1.63414-.97306,3.2559-2.766,4.90437-2.79088q21.91437-.33094,43.83458.00982c1.59343.02552,3.1564,1.95322,4.73349,2.99863-1.64892.92929-3.26706,2.58981-4.9521,2.66074C144.29713,210.32494,137.14946,210.15208,130.00907,210.15068Z" transform="translate(-93.08982 -153)"/><path d="M123.56849,219.78423c5.31458.00071,10.639-.177,15.93729.11694,1.45158.08053,2.82475,1.57466,4.23391,2.4201-1.3528,1.12662-2.68264,3.19693-4.062,3.23046-10.95474.26635-21.921.24428-32.87745.0143-1.315-.0276-2.59289-1.82841-3.888-2.80735,1.40474-.99173,2.76177-2.74774,4.22272-2.83893C112.59439,219.579,118.08782,219.78351,123.56849,219.78423Z" transform="translate(-93.08982 -153)"/></svg>