<svg id="a3f49187-5172-4815-a5f1-f08cd777fb75" data-name="Layer 1" xmlns="http://www.w3.org/2000/svg" viewBox="0 0 116.08302 116.05581"><path d="M196.07334,249.76429c-5.01539.928-10.02819,1.87046-15.04794,2.7742a16.08667,16.08667,0,0,1-3.92632.44492c-.813-.059-1.57668-.79856-2.36248-1.23281.5822-.8792,1.05223-2.41449,1.76395-2.53619,7.15845-1.22393,14.3363-2.4383,21.55965-3.09559,1.54321-.14042,3.292,1.97829,4.94607,3.05624-1.12184,1.60423-1.88254,3.92389-3.42193,4.701-13.92228,7.028-27.99494,13.75733-41.99427,20.63376-8.70533,4.276-17.25564,4.86276-26.1644.24336-6.89013-3.57271-14.1528-6.42695-21.21425-9.58468-7.76738,5.09-11.5371,4.103-15.82411-3.99427-4.73033-8.9346-7.05866-18.46336-7.464-29.32228,7.40578,1.44787,14.58705-2.13726,21.94324,1.81808,2.89766,1.558,7.60494-.64758,11.09028.30957A48.14885,48.14885,0,0,1,134.6801,240.416c6.32817,4.4207,12.72475,6.8347,20.44351,5.71088,2.61411-.38061,5.51478-.72183,7.93612.03442,2.51888.78669,5.83221,2.4642,6.62469,4.57009,1.3159,3.49681-1.85693,6.14016-4.99411,6.78193a189.0207,189.0207,0,0,1-19.13743,2.56856,40.98653,40.98653,0,0,1-8.9801-.18839c-1.37613-.1685-2.6266-1.36327-3.934-2.0928l.508-1.81241c5.69279,0,11.43628.47055,17.0637-.13594,5.33837-.57532,11.17832-.2245,15.67169-3.99273l-.12109-1.66229a107.26726,107.26726,0,0,0-11.0119.064,29.08787,29.08787,0,0,1-21.48438-5.9229c-10.8516-8.23224-15.55671-8.89942-28.87527-4.48842l-.78409-4.44888H91.81888c-2.466,10.02239,5.7251,28.56654,12.72335,28.35859l.85552-4.38023c9.84032,4.27226,19.62336,8.30712,29.21274,12.75913a20.17819,20.17819,0,0,0,18.16061.00616c14.58723-7.021,29.11309-14.16942,43.66365-21.26652Z" transform="translate(-86.92326 -161.91867)"/><path d="M155.64751,238.1232c-9.09465-.28839-17.793-4.97286-23.0314-14.98617-5.2716-10.07665-4.80316-20.08014,1.86206-29.48576,4.22821-5.96663,8.81128-11.68563,12.93734-17.71938,2.49751-3.65225,4.36551-7.72994,6.65-11.53624.61434-1.02355,1.6367-2.31982,2.61941-2.46066a4.1116,4.1116,0,0,1,3.23256,1.58969c7.22695,10.48362,14.27925,21.08737,21.45521,31.6065,6.42764,9.42218,5.73843,19.11271.66415,28.61362C176.94391,233.28071,168.79782,238.30338,155.64751,238.1232Zm1.63221-68.394c-6.4015,8.80614-12.72393,17.47314-19.01141,26.1654a23.31768,23.31768,0,0,0-4.33356,14.94172A23.95409,23.95409,0,0,0,150.12354,232.493a23.32148,23.32148,0,0,0,25.88167-7.54048c5.61892-6.86329,7.029-20.04046,1.7716-26.88665C170.72874,188.888,164.183,179.32433,157.27972,169.72917Z" transform="translate(-86.92326 -161.91867)"/><path d="M159.99472,213.06133c0,4.33383.1732,7.98-.1007,11.59222-.08737,1.1523-1.36131,2.21462-2.09232,3.31811-.92955-1.10906-2.54369-2.15082-2.66056-3.33976-.354-3.60187-.12805-7.26074-.12805-11.54961-3.93,0-7.53711.15658-11.11711-.08659-1.221-.08292-2.37366-1.17069-3.55754-1.79933,1.2191-.75758,2.39025-2.0552,3.66657-2.16855,3.43339-.30493,6.91169-.10418,10.995-.10418,0-3.15451-.30725-5.9708.09777-8.68065.3208-2.14643,1.492-5.92535,2.3256-5.9363,3.98011-.05225,2.32806,3.47115,2.518,5.63846.24263,2.76871.05886,5.57478.05886,8.97623,4.215,0,7.99659-.13613,11.7569.08668,1.06591.06316,2.06977,1.1735,3.10209,1.80359-1.07065.74989-2.0983,2.06039-3.21985,2.14638C168.02415,213.23524,164.37431,213.06133,159.99472,213.06133Z" transform="translate(-86.92326 -161.91867)"/></svg>