<svg id="ba155674-a6d3-4a0e-964c-085210d3383c" data-name="Layer 1" xmlns="http://www.w3.org/2000/svg" viewBox="0 0 271.75682 271.75092"><path d="M279.26537,216.50146c-.25423,2.63113-.48824,5.2644-.76588,7.893a133.14326,133.14326,0,0,1-17.57717,53.73291,135.59148,135.59148,0,0,1-55.53177,52.839,132.75456,132.75456,0,0,1-39.93806,13.21421,135.103,135.103,0,0,1-95.38063-19.75845,135.65293,135.65293,0,0,1-48.87439-55.02532A131.876,131.876,0,0,1,8.82758,228.769a133.47265,133.47265,0,0,1,11.193-75.50526,135.81728,135.81728,0,0,1,36.64768-47.47387,134.17718,134.17718,0,0,1,47.81409-25.83422,131.529,131.529,0,0,1,31.3849-5.46472c.56661-.02906,1.1286-.14831,1.69275-.22557h11.94146c.56321.07995,1.1241.20278,1.69.23355a130.20981,130.20981,0,0,1,36.28836,7.1112Q233.17573,97.673,258.98014,138.7158a131.68105,131.68105,0,0,1,19.518,56.7586c.285,2.6716.51285,5.34928.76721,8.02414Zm-5.57837-6.55894c.00766-71.65993-58.44134-130.048-130.21989-130.084-71.51311-.036-130.27,58.522-130.35848,129.91715C13.01969,281.529,71.466,340.38355,142.84452,340.41786,215.12294,340.4526,273.67927,282.06058,273.687,209.94252Z" transform="translate(-7.50854 -74.26537)"/><path d="M165.14373,93.05756c2.45789.61875,4.68663,1.2849,5.48581,4.08645,2.76481-1.44624,5.43436-2.69688,7.9474-4.20781a5.45287,5.45287,0,0,1,5.05954-.38852c10.46642,3.55212,20.014,8.90267,29.11292,15.02319,27.20617,18.30069,44.01362,43.76229,51.38093,75.57569a113.2553,113.2553,0,0,1,2.77427,27.37419,25.9289,25.9289,0,0,1-.7172,4.68981,3.32928,3.32928,0,0,1-1.05944,1.59226,52.4991,52.4991,0,0,0-3.84071-17.07558c-1.43475,2.00229-3.29432,3.52844-3.26434,6.31153.03371,3.13065-.30985,6.26737-.55007,9.39679a2.312,2.312,0,0,1-.63474,1.35312q-2.78754,2.74561-5.68632,5.37656a1.99858,1.99858,0,0,1-1.38435.45272c-2.28487-.23318-4.56628-.52284-6.83352-.88822a2.30915,2.30915,0,0,1-1.35181-.85918c-1.08725-1.49931-2.69684-2.9855-2.92276-4.63885-.217-1.58815,1.10049-3.35846,1.62337-5.08515a1.8562,1.8562,0,0,1,2.08085-1.53117c1.18344.02421,2.37047-.12695,3.70914-.211.10512,1.83783.286,3.634.28419,5.42993a2.5582,2.5582,0,0,0,1.58223,2.72792,15.80181,15.80181,0,0,1,1.95431,1.19542c.24317-1.79083.46463-3.50119.71362-5.20758.07627-.52276.27755-1.02894.33671-1.5523.26683-2.36048,1.55623-3.94166,3.26392-5.59056a8.55479,8.55479,0,0,0,2.22373-5.28882,9.796,9.796,0,0,0-2.30547-6.85419,25.141,25.141,0,0,0-12.94,10.47254c-.94364-.88766-1.851-1.72512-2.73511-2.58645-.17682-.17227-.39345-.44778-.37382-.655.17006-1.79557.00829-3.74743.68113-5.34235,1.11368-2.63992.80356-5.262.86484-8.04411h-3.5878l.30736,3.68037-3.13867.7828c-.45226-1.0312-.88859-2.026-1.37587-3.13707-1.33159,1.18654-2.52995,2.41613-3.89212,3.42445a27.23681,27.23681,0,0,1-4.69912,2.924c-2.18755,1.009-3.36794.277-4.39245-1.90094a48.46474,48.46474,0,0,0-3.88079-7.21617c-4.93342-7.05774-10.04958-13.98772-15.0951-20.9671l-.41267.26735a3.60569,3.60569,0,0,0,.27348.63293c2.57538,3.79893,5.18725,7.57355,7.722,11.39932a25.00246,25.00246,0,0,1,1.75335,3.41176c2.06394,4.493,4.04861,9.02309,6.167,13.48995,1.17492,2.47741,1.486,2.54666,4.23513,2.07632,3.00386-.51392,6.005-1.044,9.00708-1.56795,2.14805-.37488,3.27919.30533,3.998,2.3767a1.41586,1.41586,0,0,0,.43888.63222,4.05643,4.05643,0,0,1,1.41141,3.62271c-.01191,2.34133.12794,4.685.25978,7.02456.04355.7731-.1309,1.2087-.939,1.45084-1.38474.41491-2.73155.95636-4.30987,1.52192.20661-3.96008.40361-7.73631.60061-11.51254l-.26211-.35719a5.27314,5.27314,0,0,1-.62542,1.10754q-7.68086,8.1648-15.39525,16.298a20.05383,20.05383,0,0,0-5.30411,10.20254,5.72861,5.72861,0,0,1-2.29008,3.89338,45.57639,45.57639,0,0,1-6.90614,4.13059,17.48713,17.48713,0,0,0-9.34865,9.26537c-1.83254,4.10628-3.66781,8.2281-5.81777,12.17085a11.54375,11.54375,0,0,1-8.686,5.89419c-2.9553.45611-5.98252.45467-8.97943.62814-1.04508.06046-1.79845-.44238-1.73679-1.53037.22977-4.05493-1.66051-7.45176-3.36686-10.8737-1.77261-3.55488-3.79066-6.98667-5.62205-10.51347a7.10743,7.10743,0,0,1-.76169-2.7275c-.36109-5.42128-.60511-10.85041-.97917-16.27065a13.1507,13.1507,0,0,0-.87988-2.44547,17.81826,17.81826,0,0,1-.68081-3.0622,11.659,11.659,0,0,0-1.01174-4.14887c-.8111-1.65782-.89817-3.66017-1.3803-5.49186-.35585-1.352-.93477-2.64912-1.23734-4.01a11.20937,11.20937,0,0,1-.07794-2.74089c.03069-.98727-.39541-1.38614-1.28115-.94791-4.29182,2.12334-8.95353,1.82347-13.51761,2.05322-2.866.14427-5.74848.03711-8.61991-.06253a2.92089,2.92089,0,0,1-1.82447-.78078c-5.18551-5.31944-10.30853-10.69971-15.47709-16.03578a5.63413,5.63413,0,0,1-1.8501-4.17845,65.87145,65.87145,0,0,0-.5281-7.27047,1.71961,1.71961,0,0,1,.87423-1.84047c8.40513-5.793,16.77034-11.64423,25.2009-17.39977a2.5383,2.5383,0,0,0,1.29711-2.813c-.164-1.08616-.56113-2.44846-.091-3.22761.4323-.71655,1.8834-.81843,3.03-1.24475v-6.6804l5.61848-1.19432c-.194-1.68921-.14364-3.301-1.23353-4.78653-1.85443-2.52763-3.52047-5.19348-5.26585-7.80112a2.05354,2.05354,0,0,1,1.15122-3.245c.53243-.18852,1.06748-.36963,1.71151-.5922-.591-2.72693-1.11544-5.40588-1.77646-8.05069a1.21171,1.21171,0,0,1,.75388-1.63657c6.49268-3.5,12.94925-7.06746,19.46678-10.52008a8.68052,8.68052,0,0,1,3.07914-.58446c1.93343-.20611,3.88725-.24905,5.80937-.52274a25.92211,25.92211,0,0,0,3.52087-1.0194,22.12642,22.12642,0,0,1-3.544-3.36879C164.75964,95.49712,165.14373,94.22726,165.14373,93.05756Zm25.98342,61.72338c-1.014-3.1544.63878-4.00487,3.14371-4.11468.0322-.00143.06-.10347.13038-.23328-3.63336-.6683-7.2335-1.30057-10.81781-2.01267a1.53485,1.53485,0,0,0-1.81922.62873c-1.43816,2.15381-3.43536,2.921-6.02648,2.95918-1.82834.02694-3.16593-.09617-3.70242-2.07514a3.17011,3.17011,0,0,0-.46924-.75452,22.34254,22.34254,0,0,0-6.32778,8.3141l11.33524,2.29221c-.433-2.29565,1.14873-2.06828,2.45191-2.23778,1.1246-.14627,2.24361-.33548,3.41386-.51311-.23527-.78262-.43319-1.441-.67732-2.253Zm-27.03251-.80208c.45367-2.82942.43953-2.86084-1.661-4.31285a25.97151,25.97151,0,0,1-2.808-1.98342,7.95676,7.95676,0,0,0-6.92322-2.06192,4.25535,4.25535,0,0,0-1.87533.71091c-1.75282,1.33756-3.43032,2.77395-5.13395,4.1758-1.0005.82327-1.99606,1.65253-3.29375,2.72752Zm28.86309-14.09133a8.56785,8.56785,0,0,0-.39074,1.52909c-.09845,1.15439-.61371,1.64433-1.81669,1.6992-1.51156.06895-3.01262.36826-4.60849.58016.308,1.2554.565,2.30342.80785,3.29335,3.816-.08737,7.10666-1.37225,10.46717-2.992Z" transform="translate(-7.50854 -74.26537)"/><path d="M98.46939,98.15723q-2.79181,3.31065-5.58915,6.638a7.3081,7.3081,0,0,0-.53348.90346c3.09025-1.13158,6.08869-.88686,9.06241-.56241a2.67712,2.67712,0,0,0,2.59278-.90778c1.7449-2.10988,3.47761-4.23153,5.15441-6.39557,1.458-1.88167,2.833-3.82766,4.40125-5.95789,1.11716,1.03193,2.18682,1.87364,3.0716,2.87819a1.88267,1.88267,0,0,1-.17314,2.9363c-1.11435,1.06925-2.35287,2.00776-3.50775,3.0364a13.81278,13.81278,0,0,0-4.59811,8.09268h1.50923l.11223,2.21314,25.48739,2.674c-.86069,2.46194-1.60484,4.69777-2.45965,6.89046-.099.25392-.81187.37628-1.24074.37774-6.76652.023-13.53315.01617-20.29975.01618h-1.41958l-.23493.32724c.45942.38089,1.07083.67686,1.3423,1.16275.39728.71109.98505,1.815.706,2.287a2.93158,2.93158,0,0,1-2.305,1.36051,37.807,37.807,0,0,1-6.39073-2.03337c-.35-.13757-.56584-1.14984-.493-1.7126.129-.99711.06985-1.82643-.97377-2.16081-1.11362-.3568-1.68517.47466-1.96467,1.31943a25.54229,25.54229,0,0,0-.76593,3.47962c-.64994,3.58875-2.05224,4.75591-5.66726,4.69675a15.772,15.772,0,0,0-3.04475.04776,11.48558,11.48558,0,0,0-4.13609,1.17988,133.634,133.634,0,0,1-27.19468,13.87638,9.2651,9.2651,0,0,0-5.134,4.202c-1.96512,3.29991-4.18258,6.4507-6.33118,9.639-.35007.51945-.941.87132-1.334,1.369a2.36453,2.36453,0,0,0-.47932,1.14579,1.65942,1.65942,0,0,1-1.23369,1.49835c-1.42639.55223-2.80818,1.21967-4.36285,1.90759l5.6875,3.86916c-.0364.18881-.02745.28883-.0717.351-2.60041,3.65334-2.98051,3.69747-6.14534.53706-1.24735-1.24561-2.42709-2.55893-3.7099-3.918,1.01946-.63128,1.88644-1.24465,2.81932-1.73186,3.12893-1.63412,3.5358-4.73733,4.125-7.69428a1.10182,1.10182,0,0,0-1.57148-1.305,8.68551,8.68551,0,0,0-3.08477,2.10694c-2.319,2.67607-3.5588,5.96177-4.80008,9.235a16.04613,16.04613,0,0,0-.675,9.87135,2.68228,2.68228,0,0,1-.64306,2.76378,6.61508,6.61508,0,0,0-1.68773,4.62751,2.25852,2.25852,0,0,0,1.78982,2.43475A223.47663,223.47663,0,0,1,63.8067,197.94033c2.12181.986,4.19691,2.073,6.324,3.047.70406.32239.92371.72288.71924,1.43506a5.74028,5.74028,0,0,0-.11192.78689c-.38325,2.7354.24612,4.74786,3.0197,6.16929a97.92154,97.92154,0,0,1,9.39329,5.95315,16.55307,16.55307,0,0,1,2.70012,2.33972c2.00313,2.08655,2.0433,4.45175-.1427,6.37345a19.1957,19.1957,0,0,1-4.79949,2.98016,5.78687,5.78687,0,0,0-3.35383,3.34955c-1.3547,3.73086-2.6149,7.49592-3.95081,11.23377a34.33456,34.33456,0,0,1-1.608,3.91434c-1.264,2.5073-3.08165,3.29342-5.64737,2.2385-3.18483-1.30945-5.66983-.65267-7.88389,1.95656a73.18222,73.18222,0,0,0-9.48519,15.11707c-.68569,1.38263-1.24607,2.82706-1.87658,4.2375a3.15037,3.15037,0,0,0,.17172,3.02241c2.95107,5.33312,5.85172,10.69412,8.7681,16.04644.20809.38191.4016.77175.64972,1.25013l-5.00989,2.64688c-2.49258-3.10782-5.04583-6.097-7.38738-9.24366a122.17972,122.17972,0,0,1-22.601-52.3041A117.61271,117.61271,0,0,1,20.23365,200.237a7.333,7.333,0,0,1,1.05783-3.198c1.60317-2.53756,3.391-4.95819,5.09734-7.4309,2.16505-3.13747,2.02224-3.85968-1.16679-6.03687-2.34029-1.59775-2.37547-1.60731-1.6389-4.32022,9.86089-36.3194,31.62669-63.0287,64.9603-80.37135a6.75149,6.75149,0,0,1,2.77336-.69051C93.74248,98.094,96.17439,98.15723,98.46939,98.15723Z" transform="translate(-7.50854 -74.26537)"/><path d="M242.42755,264.03773c-1.981-.47576-3.86682-.92379-5.75008-1.38238-1.83866-.44774-3.67468-.90627-5.58744-1.37873V256.187c0-5.9657-.05266-11.93222.0384-17.89652.02175-1.424-.34635-2.13161-1.78629-2.22422a8.04623,8.04623,0,0,1-1.42079-.37957c.24305-.8581.47471-1.676.68586-2.42148.17593-.05358.22744-.08853.255-.07494,2.31934,1.14369,3.62222-.1833,4.7588-1.94251a8.02988,8.02988,0,0,1,.599-.74283,4.08676,4.08676,0,0,1,3.13347,3.615c.50653,2.72358.60815,2.70823,3.28743,3.1502.68867.11362,1.38247.196,2.16545.30557.16456-1.53834.31778-2.97048.47848-4.47276h5.19755c.24617,1.72548.53227,3.4558.7224,5.19662.07794.71369.39962.87573,1.04626,1.06157a9.357,9.357,0,0,0,6.90547-.6797c1.4628-.70121,3.03694-1.1701,4.63731-1.77167a5.32412,5.32412,0,0,1,.93032,4.55362,125.87232,125.87232,0,0,1-8.40676,22.10677A5.01917,5.01917,0,0,1,252.5965,265.47a22.8128,22.8128,0,0,1-4.22946,2.16591,8.25126,8.25126,0,0,1-3.47888.5146C242.30958,267.92021,241.54605,266.58206,242.42755,264.03773Z" transform="translate(-7.50854 -74.26537)"/><path d="M93.73183,322.21591c1.9405,0,3.88336.05205,5.81986-.03606a2.0272,2.0272,0,0,0,1.41393-.77464,43.63484,43.63484,0,0,0,2.34621-4.14822c.67487-1.3364,1.6762-.44153,2.544-.4777.83675-.03485.84507.57085.92582,1.15552a27.51629,27.51629,0,0,1,.45436,3.14262c.02136,1.04235.55832,1.35977,1.425,1.519a10.60318,10.60318,0,0,1,1.92467.47989c1.87671.72909,3.52731.76143,4.85249-1.0906a1.8173,1.8173,0,0,1,1.41255-.3868c4.44222.41485,8.88229.85927,13.313,1.38007a1.67675,1.67675,0,0,1,1.04624,1.06616,1.52025,1.52025,0,0,0,1.89922,1.28574,11.879,11.879,0,0,1,2.64843-.00529,14.81409,14.81409,0,0,0,9.73478-2.4559c1.35981-.83191,3.48035-.459,5.259-.50926.18338-.00516.57615.8482.55315,1.28645-.07815,1.48773.707,1.87243,1.99794,1.91573a15.97335,15.97335,0,0,1,3.287.36951c1.177.29139,1.72861-.08071,1.93665-1.21075a4.911,4.911,0,0,1,.3859-.91735,29.90775,29.90775,0,0,1,4.31563.73321c.81187.25469,1.41614,1.1176,2.17494,1.6134a4.09121,4.09121,0,0,0,1.71874.7355c3.53823.33973,7.08438.59722,10.61559,1.05031Q134.71428,340.18468,93.73183,322.21591Z" transform="translate(-7.50854 -74.26537)"/><path d="M144.16279,88.91719a11.17509,11.17509,0,0,1-1.21258,1.3513c-3.01518,2.30875-5.976,4.69943-9.09988,6.85258-4.03538,2.7814-8.18319,5.40273-12.32867,8.02-2.03185,1.28281-3.109.75061-3.64478-1.59718a4.96133,4.96133,0,0,1,1.27136-4.88431c2.11524-2.19279,4.07063-4.54768,6.26995-6.64951,3.0307-2.89638,6.51257-4.55871,10.93981-3.71769A71.50068,71.50068,0,0,0,144.16279,88.91719Z" transform="translate(-7.50854 -74.26537)"/><path d="M187.30014,254.767a47.75566,47.75566,0,0,0,3.133-5.17342,18.63252,18.63252,0,0,1,9.21244-9.54059c1.60291-.77574,3.04985-1.87377,4.75241-2.65225-.40231.59938-.77448,1.22178-1.21171,1.79449-3.45244,4.52233-6.88809,9.05814-10.40245,13.532a13.03463,13.03463,0,0,1-2.65757,2.36866A1.837,1.837,0,0,1,187.30014,254.767Z" transform="translate(-7.50854 -74.26537)"/><path d="M217.7208,254.86737c2.06583.25762,2.06585.25762,2.06612,2.14445a16.40546,16.40546,0,0,0,.01333,2.11695,9.13672,9.13672,0,0,1-2.73015,8.38563,2.48174,2.48174,0,0,0-.52589,1.55237c-.07433,1.26984-.024,2.547-.024,3.93258h-3.62973c-.13412-1.7183-.33182-3.45907-.35838-5.20244-.00593-.38889.51591-.90373.92152-1.15973a5.32835,5.32835,0,0,0,2.43175-3.85386C216.37337,260.14887,217.08526,257.5559,217.7208,254.86737Z" transform="translate(-7.50854 -74.26537)"/><path d="M142.51493,99.205c-.14533,2.07588-.27378,3.91082-.40707,5.81472h-5.02754l-.8184-5.42282Z" transform="translate(-7.50854 -74.26537)"/><path d="M161.6278,91.42374l-8.63186,2.2241c-.67516-2.04628-1.32011-4.00106-2.08585-6.32191l10.74879,3.76Z" transform="translate(-7.50854 -74.26537)"/><path d="M238.51736,221.2671c-2.06234,2.39628-3.93634,4.608-5.87156,6.76485-.17732.19762-.77592.1402-1.126.03126a13.037,13.037,0,0,1-1.69865-.81278c1.65267-2.2462,3.2219-4.427,4.86361-6.55178a1.44617,1.44617,0,0,1,1.20837-.35453A21.04731,21.04731,0,0,1,238.51736,221.2671Z" transform="translate(-7.50854 -74.26537)"/></svg>