<svg id="e4b63f17-e57d-4c4d-a943-9118c272a0ca" data-name="Layer 1" xmlns="http://www.w3.org/2000/svg" viewBox="0 0 102.11902 120.8751"><path d="M99.13084,168.90908V273.68437h91.97339V168.90589c-4.90146,0-9.8573.186-14.78272-.119-1.38744-.08593-2.68571-1.61163-4.02488-2.47695,1.30457-.73835,2.574-2.02765,3.92018-2.11339,4.31288-.27472,8.65454-.14047,12.98438-.096,5.7901.05953,6.96824,1.212,6.97735,7.14791q.05285,34.47591.01612,68.952c.00014,10.49269.03217,20.98554-.01466,31.478-.0273,6.11529-1.16814,7.21832-7.404,7.22224q-43.46972.02733-86.93945.00191c-6.34613-.00315-7.73441-1.33726-7.73748-7.48564q-.02493-49.96526.001-99.93052c.00325-5.92171,1.44576-7.33814,7.33526-7.38893,3.83038-.033,7.67082-.16862,11.48826.056,2.18585.12862,5.5912-1.4132,5.75195,2.48884.028.67872-3.5452,2.01742-5.52064,2.16323C108.693,169.13491,104.1902,168.90908,99.13084,168.90908Z" transform="translate(-94.08646 -158.0388)"/><path d="M145.28582,174.90657c-5.99227-.0026-11.98476-.03372-17.97673.00926-3.5045.02514-5.27617-1.59369-5.21288-5.13419.003-.16637.00267-.33306-.00375-.49931-.42712-11.05732-.29974-11.19154,10.64027-11.19146,9.98713.00007,19.97606.11186,29.96055-.0499,4.45781-.07222,6.27,1.64927,6.28044,6.1787.02477,10.6897.16326,10.6894-10.70463,10.6895Q151.77745,174.90923,145.28582,174.90657Zm-18.21174-5.15281h36.66276v-6.50752H127.07408Z" transform="translate(-94.08646 -158.0388)"/><path d="M145.74106,244.908c-10.64205,0-21.28616.10164-31.92387-.11334-1.53628-.03105-3.0418-1.58342-4.56155-2.43178,1.44742-.75669,2.89051-2.16281,4.34291-2.17249q31.92474-.21273,63.851.00163c1.44469.00976,2.87979,1.437,4.31935,2.205-1.5335.837-3.0528,2.36732-4.60281,2.39908C166.6947,245.01063,156.21683,244.908,145.74106,244.908Z" transform="translate(-94.08646 -158.0388)"/><path d="M144.9866,255.09155c6.97781,0,13.96051-.14,20.92982.10331,1.64005.05726,3.23495,1.40753,4.85062,2.163-1.51788.85-3.02612,2.41763-4.55514,2.43817q-21.1788.28446-42.36231.002c-1.54436-.02046-3.06857-1.56173-4.60212-2.39762,1.6019-.76961,3.1823-2.14595,4.80942-2.2036C131.026,254.94989,138.00879,255.09155,144.9866,255.09155Z" transform="translate(-94.08646 -158.0388)"/><path d="M143.47282,202.07928c9.126.01435,17.25268,7.09192,18.07132,16.02411.11472,1.25171-1.11468,2.62661-1.7219,3.94448-.81537-1.03395-2.07814-1.95433-2.37407-3.12014-2.04223-8.04494-6.82619-12.557-13.78729-12.69783-7.02565-.14216-12.08285,4.46517-14.29837,12.7439-.30763,1.14954-1.5633,2.04537-2.3801,3.05866-.5829-1.33682-1.76585-2.72712-1.65221-4.00184C126.12136,209.15569,134.3285,202.06489,143.47282,202.07928Z" transform="translate(-94.08646 -158.0388)"/><path d="M153.22582,190.18915a9.77917,9.77917,0,0,1-9.97008,9.69672,9.88639,9.88639,0,0,1,.36315-19.76941A9.81335,9.81335,0,0,1,153.22582,190.18915ZM137.051,188.67041l-.03638,2.4771c2.15764,1.49654,4.18524,3.944,6.50417,4.26111,3.27087.44731,5.56768-1.9676,5.49537-5.56848-.06711-3.34258-2.29438-5.66154-5.33049-5.23039C141.32806,184.94426,139.25155,187.24414,137.051,188.67041Z" transform="translate(-94.08646 -158.0388)"/><path d="M160.3978,230.06938c4.61947-4.89271,8.85186-9.547,13.31908-13.96373.90447-.89425,2.69624-.89109,4.07894-1.30166-.39766,1.40576-.377,3.20248-1.26361,4.15125-4.422,4.73183-9.18336,9.14606-13.61725,13.86741-2.2933,2.442-4.05513,2.2959-6.10741-.11437-1.1808-1.38678-2.77145-2.4572-3.79109-3.93644-.61983-.89921-.50315-2.30611-.71732-3.48494,1.18046.16586,2.55692.0073,3.49511.57414C157.1779,226.697,158.2495,228.04948,160.3978,230.06938Z" transform="translate(-94.08646 -158.0388)"/></svg>