<svg id="ff058514-caa8-45ce-a87a-7a5ea0814c45" data-name="Layer 1" xmlns="http://www.w3.org/2000/svg" viewBox="0 0 109.63657 81.14846"><path d="M191.07641,243.71674c1.36506,3.65679,2.70479,7.40671,4.1662,11.10861,1.12635,2.85316.11381,4.14484-2.802,4.12391-15.605-.112-14.5799,1.85778-9.47711-12.134a7.42163,7.42163,0,0,0-.87527-5.5355c-1.83537-3.08062-2.58169-6.47734-.0044-8.69439,3.37549-2.90369,3.09771-6.23921,3.0826-9.828-.01177-2.797-.00236-5.59412-.00236-8.58606-4.28795.59665-6.29755,2.35572-5.883,6.626.33637,3.46472-.09644,6.99756.10245,10.48361.37294,6.53644-2.65837,11.097-7.8582,14.60029-14.12565,9.51675-42.588,9.57908-56.86039.12367-5.3878-3.5694-9.08291-8.3266-7.90944-14.97053,1.99886-11.31714-2.09381-18.32479-13.22858-21.23526a6.77694,6.77694,0,0,1-2.65332-1.35281c-1.03905-.90055-2.344-1.94727-2.59279-3.12982-.14008-.66591,1.46432-2.01979,2.53635-2.56847,7.99793-4.09344,16.06062-8.06029,24.10036-12.07211,8.188-4.0858,16.29579-8.347,24.61708-12.14a9.07821,9.07821,0,0,1,6.83117-.05707c16.03909,7.72261,31.94674,15.72,47.83235,23.75652,1.45541.73629,2.48393,2.3164,3.71068,3.50468-1.18084,1.04749-2.19577,2.56-3.57478,3.052-3.59976,1.28434-4.7132,3.57-4.32434,7.23213a61.91413,61.91413,0,0,1,.03651,8.9855c-.11048,2.74655.34709,4.84726,2.694,6.92235C196.26433,235.04794,195.56532,238.285,191.07641,243.71674Zm-95.46094-38.149c10.72648,5.35895,20.66664,10.35186,30.63231,15.29332,5.50743,2.73085,11.07719,7.51772,16.58314,7.46745,5.71663-.05219,11.41483-4.77222,17.0758-7.54339,5.874-2.87543,11.69367-5.86173,17.5371-8.79953a50.84574,50.84574,0,0,0-11.09542-1.93115c-7.29166-.6822-14.597-1.24778-21.86522-2.12335-1.29652-.15619-2.44085-1.57584-3.65546-2.41211,1.42285-.72279,2.82295-1.49782,4.2835-2.13405.39788-.17332.97719.07763,1.47422.123,12.26428,1.12021,24.52526,2.27949,36.79656,3.31665a48.26563,48.26563,0,0,0,6.54923-.38066c-.82707-1.09491-.9643-1.46074-1.22064-1.58958C174.141,197.53169,159.58,190.19122,144.94619,182.999a5.29315,5.29315,0,0,0-4.09087.07768C126.06886,190.32643,111.3505,197.7151,95.61547,205.56772Zm15.71193,13.13959c0,3.76969.00007,6.5591,0,9.34851-.00029,9.96213,2.07388,13.30346,11.424,16.78312a57.99173,57.99173,0,0,0,38.19863.83455c13.2785-4.11068,17.2856-12.67954,12.73671-26.47755-8.94675,4.46126-17.77434,9.10936-26.84968,13.209a10.47555,10.47555,0,0,1-7.715-.01967C130.054,228.28656,121.23156,223.64447,111.3274,218.70731Z" transform="translate(-88.2722 -177.83906)"/></svg>