<svg id="a575ddab-653a-49b9-854d-ab361e99b66b" data-name="Layer 1" xmlns="http://www.w3.org/2000/svg" viewBox="0 0 128 98.65071"><path d="M209,258c-2.65636,1.37262-5.34388,2.68928-7.955,4.14323a9.32067,9.32067,0,0,0-3.23485,2.41916c-5.81663,8.46792-15.45264,8.44017-21.35859.0117a6.05563,6.05563,0,0,0-4.19549-2.35268q-26.93638-.23784-53.87488.012a6.55,6.55,0,0,0-4.50448,2.6303c-5.78547,8.38218-16.79872,7.87266-21.61662-1.00753-.91761-1.69132-2.784-2.94409-4.38911-4.16767C85.66893,258.00993,83.29837,256.55232,81,255V233c2.13138-3.66147,5.36766-5.33662,9.42827-6.59723a34.6744,34.6744,0,0,0,11.68442-6.26711c6.61249-5.5151,13.87627-8.38621,22.43855-8.11106a31.75268,31.75268,0,0,0,4.4969-.01527c15.65936-1.73708,29.6194,1.92538,41.77561,12.33238,6.34313,5.43039,14.64045,5.96619,22.43724,7.20954,7.38717,1.178,12.541,4.81494,15.739,11.44875Zm-34.24633.55267c1.54648-6.55362,4.76135-11.19419,11.63936-11.55565,7.85919-.413,11.47046,4.66691,13.65983,13.00585,2.24176-2.1202,4.59836-3.26638,4.96244-4.866,2.71118-11.9126-1.52372-17.538-13.57848-20.24652-7.36581-1.655-15.78845-2.77807-21.42119-7.134-13.0062-10.05792-26.97888-13.68156-42.87031-11.972a43.65852,43.65852,0,0,1-4.99071.04162c-6.2689-.04937-11.392,2.53089-16.48863,6.07174a88.3263,88.3263,0,0,1-16.05716,8.469c-3.22382,1.36242-4.98907,2.90279-4.88522,6.46282a83.33126,83.33126,0,0,1-.0631,11.47521c-.56861,5.176,1.49948,7.76456,6.5248,8.27991,2.995-6.687,6.94652-9.84834,12.52066-9.59269,6.05661.27777,9.64607,3.64807,11.43984,9.40754.31227,1.00263,2.40438,2.05326,3.68175,2.06243C137.29667,258.59443,155.767,258.55267,174.75367,258.55267Zm-71.58373,8.61122a8.44287,8.44287,0,0,0,8.534-8.00728,8.3182,8.3182,0,0,0-8.01727-8.50854,8.26383,8.26383,0,1,0-.51676,16.51582Zm92.251-7.98787a8.26356,8.26356,0,1,0-8.42315,7.98013A8.18565,8.18565,0,0,0,195.42091,259.176Z" transform="translate(-81 -172.25367)"/><path d="M153.96383,184.134a18.00658,18.00658,0,0,1-3.9229-1.666c-12.01333-8.89185-23.66893-8.93791-35.6334-.08609a6.00422,6.00422,0,0,1-4.08809,1.2617c2.41618-6.277,7.99806-8.57844,13.73332-10.27069C135.63463,169.95558,149.91966,174.59533,153.96383,184.134Z" transform="translate(-81 -172.25367)"/><path d="M132.32971,181.437c4.837,2.36193,9.1083,4.31484,13.20746,6.57939.68693.37949.62767,2.10967.9132,3.21575-1.026-.16511-2.30489.00561-3.039-.54715-7.52024-5.66237-14.92877-5.584-22.48551-.05142-.76924.5632-2.22766.18507-3.36627.24376.37273-.97819.46839-2.48256,1.16348-2.84856C123.00834,185.77233,127.42879,183.77254,132.32971,181.437Z" transform="translate(-81 -172.25367)"/><path d="M124.31213,197.05881c2.179-1.17583,4.23729-2.84578,6.56458-3.41387,3.66581-.89481,6.71216.6981,9.56375,4.36422H125.46005Z" transform="translate(-81 -172.25367)"/><path d="M119.072,236.339l7.55183-1.51092V222.555c-11.83694-2.92338-18.18083,5.95023-26.98893,11.969l10.78925,1.90029-.23581,2.104c-3.629,0-7.39041.59583-10.84869-.17255-3.2644-.72533-3.60371-5.26792-.74358-7.68656,8.875-7.505,18.00861-14.07859,30.7967-12.49122,8.15245,1.012,16.80387-1.40673,24.46465,2.8902a190.878,190.878,0,0,1,17.11537,11.13955,5.43139,5.43139,0,0,1,1.88715,4.5928c-.25252,1.02867-2.74094,2.11967-4.24589,2.13518-15.1455.15615-30.29329.11487-45.44022.06367a23.49,23.49,0,0,1-4.06429-.71847Zm48.971-1.25018c-11.03114-9.74515-22.477-15.89583-37.30966-12.38061v12.38061Z" transform="translate(-81 -172.25367)"/><path d="M136.94176,242.09417a16.60252,16.60252,0,0,1-.59919,2.13894c-2.6436.23029-5.28933.436-7.93482.64461l-.15435-2.30941C131.007,242.41805,133.76067,242.26777,136.94176,242.09417Z" transform="translate(-81 -172.25367)"/><path d="M102.21072,265.06875c-1.41853-2.03331-3.63643-3.91175-4.0674-6.13638-.63938-3.30044,1.8667-5.287,5.09921-5.36263,3.30245-.07729,5.7423,2.09532,5.3308,5.22281-.29251,2.2232-2.59877,4.18143-4.00628,6.25793Z" transform="translate(-81 -172.25367)"/><path d="M186.17713,265.08061c-1.45267-1.99536-3.69536-3.82015-4.17166-6.0263-.70327-3.25743,1.67362-5.32164,4.94352-5.46938,3.33556-.1507,5.76,1.97182,5.424,5.09762-.23876,2.22115-2.47538,4.22756-3.82032,6.32982Z" transform="translate(-81 -172.25367)"/></svg>