<svg id="f0a4bd64-9267-415c-a5f8-99e56b194ef9" data-name="Layer 1" xmlns="http://www.w3.org/2000/svg" viewBox="0 0 118.89563 101.1457"><path d="M112.78122,234.00373c-1.71178,13.061-10.99894,20.35681-19.13137,28.29881-1.38349,1.35109-5.68369,1.81654-6.88153.73949-1.59554-1.43467-2.63474-5.26023-1.83439-7.20205a30.66091,30.66091,0,0,1,6.8882-9.60022A25.12479,25.12479,0,0,0,99.13189,230.837c.726-5.55691,2.45277-10.98154,3.70763-16.47153.655-2.8657,1.24334-5.74663,2.06793-9.57864-4.89333,2.51984-7.99187,5.15639-9.16607,9.65984-.46143,1.7697-.99378,3.52311-1.55632,5.26374-.88475,2.73764-1.978,6.2922-5.38567,5.02241-1.67025-.62237-3.02012-4.49468-2.98689-6.87481.12758-9.13931,3.03076-16.90277,12.13881-21.17177,4.79-2.24509,9.28688-5.1154,12.91786-7.14531-.35283-4.6881-1.42109-9.31262-.7425-13.66477.3722-2.38712,3.32765-4.96913,5.75483-6.31709,5.51173-3.061,12.3469-.36018,15.1913,5.3848,3.17464,6.412.68419,12.395-7.30145,16.95368,6.06583,6.66392,7.0234,18.04139,19.16192,19.3237.558-16.78806,15.14982-19.53783,25.0997-25.66156-.46577-4.588-1.65092-9.06088-1.06637-13.2891.334-2.41575,3.16782-5.06738,5.54621-6.50126,5.408-3.26035,12.35287-.82772,15.38041,4.78406,3.43795,6.37252.95017,12.6563-6.68195,17.14675,1.93878,3.56276,3.411,7.49389,5.93167,10.56417,2.65529,3.23418,6.23624,5.74286,9.57415,8.36292,1.12713.88473,3.14624.77831,4.04848,1.77007,1.3318,1.46394,3.1955,3.97409,2.70865,5.18411-.642,1.59564-3.64925,3.62379-5.10206,3.26839-6.145-1.50326-12.09059-3.82145-18.47678-5.96516-2.41339,3.664-2.45944,6.24683.66877,10.74937a11.35334,11.35334,0,0,0,2.19333,2.70945c10.65049,8.01857,10.41783,19.47021,9.32891,30.893-.21993,2.30705-3.31093,4.34042-5.07826,6.5-1.54714-1.95216-3.74245-3.68373-4.49839-5.90513-1.32782-3.90193-1.63311-8.1384-2.62284-12.17189-1.56122-6.36249-3.9829-9.49115-10.011-13.35025-1.63771,12.07545-10.44969,19.27477-18.14248,27.22032-2.345,2.422-5.06031,4.14219-8.33466,1.64621-3.336-2.543-2.91177-5.97774-1.01413-8.95006,2.04078-3.19651,5.12341-5.73739,7.0981-8.96417a58.73087,58.73087,0,0,0,6.16139-12.68051c2.04033-6.45693,3.26179-13.17676,4.73857-19.8054.52447-2.35411.77457-4.76935,1.25309-7.8128-5.3981,2.55878-8.13357,6.10729-9.46608,11.06909-2.578,9.59975-4.86043,10.90976-14.61678,8.56618a35.3095,35.3095,0,0,1-7.48294-2.73347,68.19456,68.19456,0,0,1-6.66934-4.29789c-3.13793,6.2192-3.38747,9.61552,2,14.15137,9.67567,8.14612,10.86078,18.51906,9.96409,29.85661-.11624,1.46976-.12318,3.24984-.93944,4.29188-1.22575,1.56477-3.04226,3.4075-4.76247,3.57907-1.1131.111-3.13722-2.35416-3.64445-4.00548-1.31247-4.27284-2.01333-8.73381-2.95345-13.12071C121.78152,242.33042,118.61421,237.66423,112.78122,234.00373Zm-2.96044-5.5194c15.62058,6.48646,16.69438,20.74708,19.76525,34.54769,1.32039-1.6043,2.03045-2.064,2.07585-2.58193.83965-9.57913,2.60143-19.32568-5.56415-27.1257a39.29936,39.29936,0,0,1-6.04176-7.262c-3.565-5.62361-1.78629-14.12842,3.72488-18.31882,4.32606,6.9768,10.85624,9.7181,18.92022,9.50142a4.7624,4.7624,0,0,0-2.39832-2.83755c-7.47572-2.50581-12.16514-7.57506-15.14431-14.81225a11.338,11.338,0,0,0-15.51491-5.63069,137.96527,137.96527,0,0,0-14.14652,8.386c-5.30865,3.465-7.8285,12.39805-5.20807,19.54935,2.145-10.24833,5.70586-18.648,18.06078-21.591-.86866,5.55015-1.41505,10.03619-2.30029,14.45433-1.2023,6.00058-2.979,11.89995-3.92241,17.93448-.88225,5.64332-2.84879,10.49343-6.88454,14.5889a52.76139,52.76139,0,0,0-6.69809,8.01209c-.81662,1.25046-.35051,3.33861-.4671,5.04623,1.54185-.45048,3.54717-.43182,4.55264-1.42521C101.12038,250.53135,110.53549,242.6186,109.82078,228.48433ZM201.544,213.12418c-2.10173-1.40152-3.00972-2.32431-4.10311-2.685-7.46789-2.46321-12.24272-7.44715-15.21248-14.71478a11.40065,11.40065,0,0,0-15.90407-5.62714,140.00316,140.00316,0,0,0-15.3271,9.31812c-4.12495,2.84254-5.87754,12.19937-3.38111,16.9723.58335-2.019,1.19139-3.72828,1.56495-5.48731,1.368-6.44154,5.81032-10.26017,11.19438-13.28356,2.79893-1.57173,4.61169-.99676,4.3518,2.5062a75.479,75.479,0,0,1-1.33967,9.82331c-1.38557,6.63556-2.5693,13.36177-4.648,19.78806a66.26789,66.26789,0,0,1-6.69449,13.538c-1.7804,2.94637-4.67186,5.21064-6.54827,8.11477-.8013,1.24018-.282,3.33361-.36286,5.03931,1.54724-.49942,3.54194-.548,4.57111-1.56938,8.45826-8.39457,17.84437-16.30808,17.15988-29.81221,1.23794,0,1.82-.17121,2.19516.0346.859.47118,1.59283,1.16364,2.41963,1.70142,9.06841,5.8984,12.01552,15.05224,13.47512,25.05987a61.52079,61.52079,0,0,0,1.89113,6.9112c4.03776-6.3187,3.03743-21.205-1.219-26.42034-2.62628-3.21792-5.7076-6.095-8.09266-9.4725-4.18544-5.92706-2.572-14.858,3.0673-18.917C186.99236,211.35093,193.2976,214.433,201.544,213.12418Zm-15.47232-37.0231a8.4589,8.4589,0,0,0-16.91681-.122,8.98931,8.98931,0,0,0,8.437,8.84727A8.68009,8.68009,0,0,0,186.07172,176.10108Zm-65.2771,12.71061a8.66589,8.66589,0,0,0,8.27062-8.91363,8.41476,8.41476,0,0,0-8.82982-8.24,8.51149,8.51149,0,0,0-8.08171,8.52433C112.16468,184.7265,116.35256,188.90877,120.79462,188.81169Z" transform="translate(-84.65777 -164.30348)"/></svg>