<svg id="b6d64ea1-3387-427d-9d93-ac3ca87b0499" data-name="Layer 1" xmlns="http://www.w3.org/2000/svg" viewBox="0 0 125.42839 100.02446"><path d="M82.87469,254.01984c11.65365-.43528,22.788-1.48394,33.43464-7.52031-2.63112-1.53121-5.30656-2.53143-7.248-4.32581-5.15737-4.76678-11.70694-8.91489-9.70981-17.75093.1604-.70967-1.27125-1.81107-2.01356-2.68769a27.46528,27.46528,0,0,1-6.68435-19.645l4.36762.64324c-5.80319-10.77318-6.1047-21.20657,1.08074-31.88766,11.61569,15.38241,26.45194,24.38788,45.65655,26.14044.39486-2.71792.63981-5.16225,1.11594-7.56069,3.65862-18.4297,24.64388-27.34532,40.01061-16.52207,4.08665,2.87835,7.09447,2.59831,10.8079.75158,3.56411-1.77248,7.0638-3.67451,11.85306-6.17924-1.94242,4.9519-3.50075,8.92465-5.27652,13.45168l8.03356-3.31388c-2.1709,6.75924-5.43733,11.73881-10.45965,15.78842a7.80871,7.80871,0,0,0-2.74011,5.11778A70.26167,70.26167,0,0,1,89.72252,258.07137C87.4129,256.76877,85.15609,255.3725,82.87469,254.01984Zm17.67079,3.2035-.1284,1.44288c6.58338,1.27461,13.11469,3.05473,19.75886,3.73906,34.51007,3.55446,68.09-25.12109,69.70138-59.5786.27933-5.97312-.43514-11.81912,6.2962-14.81527.07987-.03554.065-.28393.1188-.55711a14.063,14.063,0,0,1-3.9386.43322,18.54738,18.54738,0,0,1-4.03-1.68494,22.10225,22.10225,0,0,1,2.10939-3.375,46.46613,46.46613,0,0,1,4.18887-3.63274c-7.97939,1.50484-7.97939,1.50484-14.57167-2.66761a21.09638,21.09638,0,0,0-32.08713,12.71671c-.94724,3.90439-.4744,8.15329-.673,12.69559-19.56626.29764-36.28053-7.47324-50.52505-22.325-3.72678,13.48932,2.11041,22.24293,12.9159,30.16669l-13.60734-.62886c3.68965,12.54736,13.17964,16.6391,24.67495,18.136l-.45185,1.38868-14.54954,3.11859c5.35971,8.68812,13.84416,10.96106,24.247,11.00334A61.5209,61.5209,0,0,1,100.54548,257.22334Z" transform="translate(-82.87469 -167.4757)"/></svg>