<svg id="bdf27612-a4ce-4270-a08f-d4d96b059b71" data-name="Layer 1" xmlns="http://www.w3.org/2000/svg" viewBox="0 0 101.62603 96.60068"><path d="M93.7938,202.30853c2.426.19715,3.48819-.65852,3.39307-3.3445-.20115-5.68028-.06931-11.37272-.056-17.06012.0104-4.43386,1.37761-8.02484,5.9094-9.781a6.55794,6.55794,0,0,0,2.00548-1.76145c2.24992-2.35434,4.70944-2.91954,7.3401-.73047a4.82683,4.82683,0,0,1,.32962,7.06932c-2.3935,2.37534-4.91177,2.23889-7.35086-.0228-.38-.35232-.71121-.75718-1.63039-1.746-1.06641,1.56926-2.77623,2.9318-2.82827,4.355-.27355,7.4802-.128,14.97573-.128,22.65832l4.46255.41375c1.87678,11.96365,6.56573,16.99095,15.31149,16.58751,8.54755-.39428,13.36149-5.90631,13.95027-16.24587,3.09468-.0602,3.40806-2.102,3.32534-4.7301-.17472-5.55049.09255-11.12012-.23074-16.658-.12094-2.07167-1.381-4.07685-2.33507-6.6988a35.44183,35.44183,0,0,1-3.19656,2.81795,4.48434,4.48434,0,0,1-6.3914-.89333,4.60552,4.60552,0,0,1,.33026-6.768c1.95544-1.877,4.24985-1.91971,6.47918-.23841,1.64635,1.24162,3.28568,2.49355,4.958,3.69947,2.85828,2.06111,3.72111,5.02987,3.7569,8.32763.06029,5.55465.16093,11.11357.00242,16.66378-.07245,2.5368.2503,4.38875,3.20067,4.26358.70868,11.5704-4.77273,20.4816-15.24,24.63277-2.31848.91946-3.28769,1.96277-3.267,4.52006.02432,3.01026-.18106,6.14955-3.82933,7.54984-.6383.245-1.137,1.6502-1.17457,2.54173-.42039,9.96587,6.813,18.60254,16.362,19.664,8.735.971,17.06949-5.49326,18.62779-15.27225.86544-5.43106.51244-11.06651.58207-16.61143.0797-6.34777-.01187-12.69749.02668-19.046.05735-9.449,5.94485-16.30845,14.10642-16.50231,8.09669-.19232,14.22094,6.52495,14.57045,15.97926.02425.65592.06066,1.31139.08893,1.91432,8.71149,4.79487,11.456,9.22273,9.6273,15.438a11.56938,11.56938,0,0,1-12.68224,8.48988,11.77465,11.77465,0,0,1-10.43706-10.32486c-.77563-5.85275,2.82141-10.6964,10.60781-13.39765-.74641-3.006-1.02856-6.34363-2.40215-9.14631-1.94721-3.97312-5.59738-5.90671-10.17056-5.43074-4.7353.49284-7.6953,3.36742-9.16435,7.66966a20.09694,20.09694,0,0,0-.82982,6.24107c-.08589,10.316.076,20.63509-.0908,30.94918-.17792,11-6.88682,19.73088-16.56782,21.99744-12.22046,2.86111-24.34716-6.48878-25.42948-19.69185-.22242-2.71328-.11247-5.0291-3.13642-6.87138-1.53382-.93443-1.438-4.46258-2.20145-6.77772-.37051-1.12351-.78644-2.84869-1.58408-3.12036-9.05352-3.0835-14.215-9.6297-16.99982-18.42769ZM140.895,205.7694c-2.3219-.7988-3.05851.06485-3.46736,2.47376-1.1363,6.69505-5.16294,11.1148-11.62882,13.18077-11.431,3.65244-20.80519-2.49754-23.85779-15.72109H97.43756c.33274,11.61669,10.00856,20.28046,22.17152,20.06695C131.4923,225.56119,140.78831,216.8909,140.895,205.7694Zm42.73,10.00737a8.35124,8.35124,0,0,0-.35369,16.69743,8.62941,8.62941,0,0,0,8.6931-8.38288A8.541,8.541,0,0,0,183.625,215.77677Zm-60.80637,13.66848h-7.40136c.59482,2.29272.69083,4.47474,1.75478,5.96633.49959.70038,3.74865.63657,4.20094-.07151C122.36342,233.78951,122.364,231.60661,122.81859,229.44525Z" transform="translate(-93.7938 -168.25813)"/><path d="M188.47232,224.09043a4.89553,4.89553,0,0,1-5.00678,5.01742c-2.829-.23-4.65926-1.76476-4.82874-4.7755a4.93951,4.93951,0,0,1,4.78032-5.24568A5.019,5.019,0,0,1,188.47232,224.09043Z" transform="translate(-93.7938 -168.25813)"/></svg>