<svg id="eea3d6bd-0f26-4df9-be5a-9c3322748f3e" data-name="Layer 1" xmlns="http://www.w3.org/2000/svg" viewBox="0 0 101.31203 64.42073"><path d="M93.7938,234.85426c5.87755-2.26953,5.29882-7.28528,5.00182-12.06456-.21122-3.399.98739-4.78222,4.53249-4.61354,4.204.2,9.49039,1.39965,12.34959-.6141,2.81527-1.9828,3.33794-7.39577,4.56386-11.39643.77217-2.51988,2.19216-3.24036,4.65483-3.12746,3.55036.16278,7.11373.04161,10.61288.04161,1.69341-7.73712,3.535-10.19532,7.4628-10.14318,3.97336.05275,5.78725,2.53836,7.18669,10.26441,7.64877-2.52676,9.79689,3.382,11.96256,8.51126,2.207,5.22714,5.39725,7.55345,11.14652,6.61132,2.83328-.46428,5.80671-.13037,8.71484-.0687,5.69281.12072,8.208,2.541,8.33715,8.256.06286,2.78166-.18991,5.28243,3.11371,6.81323,1.08841.50434,2.04184,3.5022,1.5302,4.71668-.68574,1.62776-2.75964,3.52185-4.40924,3.69855a6.37814,6.37814,0,0,0-5.404,3.42691c-3.24613,5.05212-10.82957,4.6069-13.83365-.80444-1.12267-2.02227-2.31808-2.40848-4.32774-2.39847-12.69538.0633-25.392-.03073-38.08577.12548a5.42841,5.42841,0,0,0-3.87248,2.09468c-3.89054,5.95024-11.13737,5.96807-14.97224.00484a5.97665,5.97665,0,0,0-3.5401-2.10579,16.65644,16.65644,0,0,0-5.13555-.05687,7.98034,7.98034,0,0,1-7.58912-3.20246Zm45.5316-28.15709c-14.715-1.696-15.92842-1.02-19.04465,10.38285a4.5142,4.5142,0,0,0-.00821.96642H139.3254Zm23.53129,24.88954v-9.7133H143.1728v9.7133Zm-.96736-13.48894c-2.118-3.84153-3.8823-7.18622-5.81807-10.42857a3.03679,3.03679,0,0,0-2.161-1.23744c-3.51135-.12936-7.0301-.05741-10.70025-.05741v11.72342Zm24.63605,5.78335c-6.13506-3.912-12.98812-1.54627-19.541-2.23488v9.91945h19.57289c1.17949-4.75429-2.99423-2.22585-4.47147-3.6163C180.94031,223.7013,184.94095,225.8234,186.52538,223.88112ZM102.158,231.44127h24.08521l.19873-.97756c-2.31227-.68546-5.07074-.81835-6.80539-2.21911-1.58534-1.2802-2.06281-3.93235-3.15263-6.243-6.61844-3.88717-8.72511,4.13609-13.39824,6.15863C102.46238,228.43,102.48326,230.18816,102.158,231.44127Zm19.342-9.80713-1.116,1.20166a20.03557,20.03557,0,0,0,2.84627,2.74085c1.97349,1.28191,4.64824,1.86964,6.05465,3.55923,2.96051,3.55661,6.37357,2.6802,10.27277,2.30446a47.93791,47.93791,0,0,0-.11949-7.30495,3.61544,3.61544,0,0,0-2.50277-2.38957C131.799,221.51486,126.64685,221.63414,121.5,221.63414Zm21.87456,13.58861-.74582,1.06074c.81534.793,1.60459,2.23869,2.45028,2.27249,5.2749.21078,10.564.16834,15.844.0344.74663-.01894,1.469-.99376,2.20261-1.52615-.65674-.61382-1.30131-1.74473-1.97214-1.76053C155.22983,235.16419,149.30152,235.22275,143.37459,235.22275Zm40.08453,5.07279a4.93222,4.93222,0,0,0-5.09842-4.91682c-2.96358.14267-4.59156,1.90114-4.87072,4.744a4.98556,4.98556,0,1,0,9.96914.17278Zm-61.02407.10344a4.77158,4.77158,0,0,0-4.93434-4.993,4.59646,4.59646,0,0,0-4.89954,4.61577,4.92164,4.92164,0,1,0,9.83388.37721Zm-11.9688-3.81672-.66973-1.36516c-3.24948,0-6.50679-.12432-9.74342.07958-.9112.05741-1.76175,1.07761-2.64012,1.6562.90525.56982,1.76714,1.52379,2.7245,1.63185a25.45261,25.45261,0,0,0,6.63825-.0071C108.07722,238.37839,109.24073,237.27777,110.46625,236.58226Zm29.26357-33.783h6.47966c-.04156-2.98693.67738-6.441-3.49216-6.28117C138.93521,196.663,139.58089,199.90045,139.72982,202.79924Zm-5.534,31.68181c-.58351,4.29108,1.37752,4.46856,3.41669,4.10357.71848-.12861,1.27717-1.14994,1.90881-1.76366Zm-4.39013,4.65469c.12807-5.34507-2.5762-3.75577-4.71847-3.59027l-.578,1.41924Zm56.1255-4.68462c.16665,4.02249,1.81209,4.65025,4.03045,4.08241.71694-.18351,1.23926-1.12733,1.85061-1.72335Zm-19.96843.90549,2.13873,3.28711,3.30527-2.387-.60826-.90013Z" transform="translate(-93.7938 -184.28112)"/><path d="M144.4197,184.28112v5.28126c-1.06975-.20378-2.63615-.1692-2.77086-.59142a6.66615,6.66615,0,0,1-.05407-3.80363C141.74484,184.68055,143.26015,184.61468,144.4197,184.28112Z" transform="translate(-93.7938 -184.28112)"/><path d="M133.20564,192.18863c-.71-.65019-1.19565-1.0652-1.64585-1.51566-.44761-.44786-.85956-.93135-1.45723-1.5853l2.128-2.3723C133.61721,188.41164,136.9864,189.32047,133.20564,192.18863Z" transform="translate(-93.7938 -184.28112)"/><path d="M155.907,189.20909l-3.14548,2.969-2.29841-1.93765C151.56432,187.4356,153.48415,186.94329,155.907,189.20909Z" transform="translate(-93.7938 -184.28112)"/></svg>