<svg id="e6a526ae-d057-4f6f-9bfd-b941a4f86d0b" data-name="Layer 1" xmlns="http://www.w3.org/2000/svg" viewBox="0 0 121.05087 118.90527"><path d="M164.94449,276.63357a83.68755,83.68755,0,0,1-79.62627-69.45144c-1.40142-8.14379,1.76519-12.39856,9.91635-13.3235,3.47287-.39408,6.937-.9219,10.42072-1.15071,5.5899-.36715,9.09623,2.44728,10.44924,7.84666,1.00816,4.02318,1.84761,8.16922,3.51536,11.9262,2.10633,4.745,1.41825,8.48972-1.84465,12.37393-7.01561,8.35149-7.195,9.03931,1.11689,16.42572,5.66929,5.03806,12.24915,9.06842,18.52677,13.39722,2.79348,1.92625,5.33952,1.22406,7.32975-1.54628.87347-1.21586,1.9687-2.2814,2.77035-3.53823,2.919-4.57629,6.483-6.45926,12.20286-4.84522,3.89645,1.09951,8.25508.5602,12.40694.75579,5.8732.27667,9.162,3.27955,9.88132,9.13827.44606,3.63287.96168,7.27292,1.10868,10.92334.26268,6.523-2.7933,9.969-9.20622,10.58605C170.93532,276.43787,167.93459,276.48042,164.94449,276.63357Zm.924-5.57066q3.248,0,6.49594-.00034c3.56376-.00317,6.49914-1.68788,5.4381-5.29122-1.484-5.03958,2.59051-12.34175-5.47707-14.854-1.21834-.37939-2.65331-.0181-3.98237-.09629-2.82063-.16593-5.71655-.05322-8.43695-.68128-3.86689-.89274-6.74373-.24079-8.71767,3.4195a19.06216,19.06216,0,0,1-2.46232,3.14191c-3.93868,4.60356-8.32551,6.10979-13.23122,2.8647-8.132-5.37921-16.23817-11.04816-23.31566-17.701-7.2662-6.83021-6.927-10.80831-.17124-18.35425,3.17161-3.54258,4.38706-6.76877,1.87095-11.00969a13.49875,13.49875,0,0,1-.98114-2.82014c-4.10609-12.89157-4.10455-12.88907-17.68945-10.61326-3.78.63325-5.36927,2.54522-4.75293,6.608C96.00081,242.22865,128.81987,270.78571,165.86849,271.06291Z" transform="translate(-84.99726 -157.7283)"/><path d="M151.50589,237.16388c-6.14921-.00036-12.30018-.08722-18.44687.03714-2.97016.0601-4.14934-1.017-4.10482-4.073.1331-9.13879-.13209-18.28526.09569-27.42031.28864-11.57649,10.37882-20.8286,22.387-20.87443,12.18821-.04652,22.26513,8.89,22.64444,20.53429.30286,9.29716-.00552,18.61276.12561,27.9178.04467,3.16992-1.41225,3.9687-4.25409,3.91477C163.80584,237.0835,157.6551,237.16424,151.50589,237.16388ZM169,231.85914c0-2.11938.003-3.75591-.00051-5.39244-.01519-6.99335.27343-14.00435-.12892-20.97542-.46562-8.06724-7.75506-14.91612-15.75789-15.47948-8.65973-.60962-17.05211,4.57177-18.05472,13.06072-1.11352,9.428-.25485,19.0889-.25485,28.78662Z" transform="translate(-84.99726 -157.7283)"/><path d="M196.64179,213.48624a29.71249,29.71249,0,0,1-5.9549-.10864c-1.14046-.23736-2.057-1.55073-3.07413-2.38042.82436-.88356,1.60478-2.477,2.48047-2.53123a105.21687,105.21687,0,0,1,13.40906-.02982c.90987.06009,1.70034,1.92817,2.54584,2.96283-.97712.68853-1.88919,1.81667-2.94507,1.97289a44.50784,44.50784,0,0,1-6.46124.09272Z" transform="translate(-84.99726 -157.7283)"/><path d="M113.80315,173.694c1.84409-.16779,3.99955-1.02958,4.84245-.32381a92.24484,92.24484,0,0,1,9.46737,9.41349c.60737.68083.531,2.54467.02465,3.44346-.33444.59368-2.49577.98117-2.99062.5301-3.64714-3.32456-7.09306-6.87125-10.55932-10.39038C114.28913,176.06375,114.30134,175.45457,113.80315,173.694Z" transform="translate(-84.99726 -157.7283)"/><path d="M178.16169,187.54263c-.45824-1.449-1.61618-3.39031-1.15324-3.923a141.28471,141.28471,0,0,1,10.40013-10.654c.5122-.477,2.53038-.15792,3.09394.47124a3.22107,3.22107,0,0,1,.15178,3.15085c-3.11438,3.458-6.45749,6.71247-9.785,9.97272C180.44812,186.973,179.6659,187.01712,178.16169,187.54263Z" transform="translate(-84.99726 -157.7283)"/><path d="M155.13416,167.06263a39.78489,39.78489,0,0,1-.10742,6.43939c-.15879.95816-1.52271,2.44767-2.2513,2.39786-.93993-.06427-2.5081-1.38622-2.55992-2.242a105.746,105.746,0,0,1-.01553-13.389c.06042-.90785,1.90761-1.69679,2.93114-2.54054.67424.95888,1.78257,1.85518,1.9317,2.88975a45.52169,45.52169,0,0,1,.091,6.44457Z" transform="translate(-84.99726 -157.7283)"/><path d="M139.6089,213.42106c-.29253-6.17412.14493-12.17426,6.39251-15.55441a15.26682,15.26682,0,0,1,6.14433-1.62424c.821-.05308,2.12019,1.37455,2.4747,2.38336.1928.54866-1.04569,2.26734-1.7974,2.37783-7.636,1.12231-8.34433,6.4658-8.00675,12.58461a19.90728,19.90728,0,0,1-.09975,5.46116c-.27083,1.17692-1.50925,2.13116-2.31492,3.185-.93091-.94486-2.41152-1.76071-2.6703-2.86331C139.288,217.48219,139.6089,215.414,139.6089,213.42106Z" transform="translate(-84.99726 -157.7283)"/></svg>