<svg id="a3bfbb5f-b7a3-4fae-82fb-63fc6e1e3c1f" data-name="Layer 1" xmlns="http://www.w3.org/2000/svg" viewBox="0 0 235.12647 235.72946"><path d="M140.5912,280.023c-1.60511-1.32345-3.23759-1.25275-4.733-1.59942-17.05429-3.9535-29.28784-13.62506-35.43825-30.26171-.98613-2.66746-3.03228-3.43792-5.0916-4.45906-13.01169-6.452-21.8408-16.398-25.91408-30.48018-.68288-2.36084-.20688-5.03929-2.36906-7.7033-3.35443,9.05442-8.4116,16.12073-18.82935,16.21359-6.70709.05978-11.95083-3.30654-16.37825-8.1694-7.01912-7.70946-5.58454-19.6872,3.59919-26.5144,5.71359-4.24751,12.01919-4.4276,18.61446-1.59241,6.24032,2.68259,10.68458,6.86733,12.52112,13.67433,1.87149-1.18946,1.81951-2.75677,2.06519-4.07721,2.916-15.67207,11.4897-27.06292,25.89367-33.8577,3.27819-1.54642,4.78543-3.61767,6.17453-7.03006,6.09435-14.971,17.33255-24.319,33.14045-28.0199,2.15018-.5034,4.33605-.8544,7.417-1.45311-5.89869-1.94575-10.63172-4.20986-13.66823-8.89132-3.02884-4.66965-4.69343-9.62535-3.34878-15.27527,2.23765-9.402,9.7779-15.871,18.86894-16.11606,9.18659-.24762,17.76578,5.7123,20.3332,14.40042a19.70538,19.70538,0,0,1-1.85687,16.30034c-2.98443,5.03838-7.93581,7.246-13.76616,9.734,5.716,1.13534,10.52419,2.187,15.05794,4.24179a47.34241,47.34241,0,0,1,24.96238,25.51392c.79454,1.88279,1.72092,3.41554,3.73873,4.27091,16.487,6.989,26.42278,19.27591,29.66738,36.92512.093.50567.29584.99114.726,2.395,2.30864-6.07144,5.17583-10.8852,10.56711-13.60563a19.2001,19.2001,0,0,1,16.35143-.89328c8.55994,3.34567,14.47464,12.29808,13.55,20.56981-1.038,9.28612-8.00536,16.34824-17.70025,17.94112-8.90176,1.46255-17.55355-4.27191-22.51095-15.03775-1.06037.83736-1.03569,2.0615-1.22947,3.11764-3.11461,16.97551-12.763,28.68064-28.55946,35.39852-1.88462.80148-3.34266,1.71312-4.18543,3.7762q-10.12008,24.77391-36.55326,29.34331a30.606,30.606,0,0,0-3.05336.7472c-.219.06114-.38355.31689-1.18524,1.01922,6.09517,1.70019,11.03777,4.63747,14.18187,9.89112a18.781,18.781,0,0,1,1.53988,16.99273c-2.79143,7.48581-11.51345,13.25318-19.12437,12.63489-9.44323-.76712-17.55046-7.50406-19.23265-15.982C122.71179,293.41162,126.75859,287.14029,140.5912,280.023Zm-37.22295-77.75821c.00836,11.57925,4.40735,19.965,14.19879,27.13467a10.39647,10.39647,0,0,1,1.82967,2.02088c11.39226,14.37906,29.65947,16.47751,44.35027,5.38407,4.05647-3.06316,6.45869-7.45554,10.27484-10.73621,16.1709-13.90179,14.94138-36.958-2.32683-49.78939a12.56136,12.56136,0,0,1-2.43483-2.51122c-10.84785-14.31706-29.61708-16.78057-43.942-5.99635-3.74014,2.81569-5.95195,6.92714-9.62486,9.7676A30.14951,30.14951,0,0,0,103.36825,202.26478Zm18.99611,60.17545a85.82,85.82,0,0,1-5.83852-29.54076c-.03587-2.58828-2.137-3.08865-4.20033-3.17866-8.85688-.38628-17.46916-1.78776-25.49269-5.8158-.69879-.35081-1.55616-.72108-2.18139-.01641-.66979.75488-.00858,1.48767.43521,2.08783a42.30455,42.30455,0,0,0,11.45628,10.5849,8.29009,8.29009,0,0,0,5.677,1.00681c4.89909-.62932,7.15033,1.56856,7.62973,6.47409C110.66413,252.3767,116.22108,257.5918,122.36436,262.44023ZM121.57859,143.262c-6.04544,5.172-11.74581,10.493-11.95376,19.26087a4.61515,4.61515,0,0,1-4.68016,4.85771c-8.4352.185-13.85672,5.4063-19.14631,10.94234-.66843.69957-1.916,1.47768-1.06662,2.59206.71372.93638,1.95931.4785,2.92811.0843a66.27349,66.27349,0,0,1,25.2084-5.06213c2.0806.0007,3.09076-.90861,3.1621-3.05882A91.85646,91.85646,0,0,1,121.57859,143.262ZM204.751,180.33071c-5.39366-6.56251-10.83654-12.5288-20.03812-12.90891-3.85751-.15936-5.38094-1.88526-5.77017-5.93494-.82509-8.58462-6.33424-14.05739-12.69171-19.50178-.3366,1.88678.50411,2.82891.915,3.8875a71.78567,71.78567,0,0,1,4.7782,22.56125c.29959,6.05949.30336,6.25789,6.51592,6.55871a71.92149,71.92149,0,0,1,22.9108,4.968C202.29809,180.32379,203.18812,181.07017,204.751,180.33071Zm-1.41864,44.6207c-9.15174,2.95914-18.28619,5.00072-27.8236,4.96036-2.15916-.00914-3.40069,1.05516-3.37027,3.39423a72.13222,72.13222,0,0,1-5.03057,26.46871c-.17987.47865-.26586,1.01045.67623,1.62478,5.56179-4.75524,10.41264-10.02535,11.07505-17.90284.37748-4.48916,1.3036-5.55742,5.862-6.14061C192.9363,236.305,198.50639,231.19285,203.33238,224.95141Z" transform="translate(-27.41489 -84.40296)"/></svg>