<svg id="bca8efdb-110c-433a-8c88-139cf89dfcce" data-name="Layer 1" xmlns="http://www.w3.org/2000/svg" viewBox="0 0 118.01666 111.54887"><path d="M144.28181,159.00018q23.239,0,46.478.00851c8.12634.01537,12.22334,4.13751,12.23039,12.34813q.03709,43.22954.001,86.4591c-.00632,8.20676-3.93506,12.59314-12.04559,12.62711q-46.97692.1968-93.955-.00409c-8.0837-.03558-11.97657-4.44291-11.98245-12.68686q-.03082-43.22953.00249-86.4591.0114-12.27918,12.2934-12.285Q120.79286,158.96756,144.28181,159.00018Zm-.36817,5.16741q-22.48182,0-44.96365.00407c-7.08579.00631-8.77442,1.70126-8.77752,8.85291q-.01794,41.46649-.0014,82.933c.00242,7.59409,1.5404,9.19792,8.94895,9.20227q44.96364.02637,89.9273-.00129c7.16156-.00484,8.77618-1.65454,8.77963-8.86873q.01995-41.71628-.00086-83.43255c-.00384-7.01263-1.74407-8.68166-8.94879-8.68659Q166.39548,164.15529,143.91364,164.16759Z" transform="translate(-84.99163 -158.99302)"/><path d="M127.1696,207.39719c.00031-7.48931-.159-14.98436.1106-22.46395.06876-1.90743,1.02726-4.64517,2.43461-5.39788,1.38967-.74325,4.23556-.0139,5.80453,1.0292,10.93873,7.27246,21.73583,14.75949,32.52567,22.25357,4.32105,3.00119,4.365,5.9494.08442,8.93178-10.77871,7.50982-21.58412,14.98463-32.51529,22.26868-1.56856,1.04521-4.56142,1.93342-5.70281,1.15222-1.52432-1.04329-2.53931-3.76279-2.62387-5.80987C126.98547,222.05054,127.16929,214.72007,127.1696,207.39719Zm38.0353-.07-32.30347-22.21608v44.36679Z" transform="translate(-84.99163 -158.99302)"/><path d="M161.92944,258.99851c-7.81881-.0001-15.64257.14324-23.45209-.126-1.48921-.05134-2.92225-1.732-4.3812-2.66088,1.4071-.7919,2.80722-2.2578,4.22236-2.27246q23.70344-.24532,47.40972.00409c1.39725.01494,2.77839,1.53655,4.167,2.35837-1.50312.899-2.9817,2.52316-4.51349,2.575C177.57188,259.14084,169.74825,258.99862,161.92944,258.99851Z" transform="translate(-84.99163 -158.99302)"/><path d="M118.03872,258.90992c-5.9,0-10.97027.11823-16.02249-.13074-.73625-.03628-1.76815-1.77034-1.92232-2.8269-.08294-.56845,1.38635-1.93711,2.19232-1.96766,4.92477-.18674,9.86016-.09336,15.57983-.09336,1.41371-3.4252,4.8408-6.57409,9.74116-4.44731,2.31766,1.00588,4.498,4.46168,4.94815,7.1119.6,3.53285-2.024,6.33964-5.70078,7.08384C122.20313,264.58116,119.2623,262.18519,118.03872,258.90992Z" transform="translate(-84.99163 -158.99302)"/></svg>